<?xml version="1.0" encoding="UTF-8" standalone="no"?><svg xmlns="http://www.w3.org/2000/svg" xmlns:xlink="http://www.w3.org/1999/xlink" contentScriptType="application/ecmascript" contentStyleType="text/css" height="375px" preserveAspectRatio="none" style="width:585px;height:375px;" version="1.1" viewBox="0 0 585 375" width="585px" zoomAndPan="magnify"><defs><filter height="300%" id="fpk8xkev1dueq" width="300%" x="-1" y="-1"><feGaussianBlur result="blurOut" stdDeviation="2.0"/><feColorMatrix in="blurOut" result="blurOut2" type="matrix" values="0 0 0 0 0 0 0 0 0 0 0 0 0 0 0 0 0 0 .4 0"/><feOffset dx="4.0" dy="4.0" in="blurOut2" result="blurOut3"/><feBlend in="SourceGraphic" in2="blurOut3" mode="normal"/></filter></defs><g><ellipse cx="415" cy="20" fill="#000000" filter="url(#fpk8xkev1dueq)" rx="10" ry="10" style="stroke: none; stroke-width: 1.0;"/><rect fill="#FEFECE" filter="url(#fpk8xkev1dueq)" height="33.9688" rx="12.5" ry="12.5" style="stroke: #A80036; stroke-width: 1.5;" width="192" x="319" y="50"/><text fill="#000000" font-family="sans-serif" font-size="12" lengthAdjust="spacingAndGlyphs" textLength="172" x="329" y="71.1387">Client want to book an item</text><path d="M10,205.1914 L10,230.3242 A0,0 0 0 0 10,230.3242 L279,230.3242 A0,0 0 0 0 279,230.3242 L279,223.1914 L299,217.7578 L279,215.1914 L279,215.1914 L269,205.1914 L10,205.1914 A0,0 0 0 0 10,205.1914 " fill="#FBFB77" filter="url(#fpk8xkev1dueq)" style="stroke: #A80036; stroke-width: 1.0;"/><path d="M269,205.1914 L269,215.1914 L279,215.1914 L269,205.1914 " fill="#FBFB77" style="stroke: #A80036; stroke-width: 1.0;"/><text fill="#000000" font-family="sans-serif" font-size="13" lengthAdjust="spacingAndGlyphs" textLength="248" x="16" y="222.2583">Call to LibraryItem#addBooking(Client)</text><rect fill="#FEFECE" filter="url(#fpk8xkev1dueq)" height="33.9688" rx="12.5" ry="12.5" style="stroke: #A80036; stroke-width: 1.5;" width="232" x="299" y="200.7734"/><text fill="#000000" font-family="sans-serif" font-size="12" lengthAdjust="spacingAndGlyphs" textLength="212" x="309" y="221.9121">Client is added to item's bookings</text><polygon fill="#FEFECE" filter="url(#fpk8xkev1dueq)" points="329.5,152.3711,500.5,152.3711,512.5,164.3711,500.5,176.3711,329.5,176.3711,317.5,164.3711,329.5,152.3711" style="stroke: #A80036; stroke-width: 1.5;"/><text fill="#000000" font-family="sans-serif" font-size="11" lengthAdjust="spacingAndGlyphs" textLength="14" x="419" y="186.5815">no</text><text fill="#000000" font-family="sans-serif" font-size="11" lengthAdjust="spacingAndGlyphs" textLength="171" x="329.5" y="168.1792">Client is already in bookings ?</text><text fill="#000000" font-family="sans-serif" font-size="11" lengthAdjust="spacingAndGlyphs" textLength="20" x="512.5" y="161.7769">yes</text><polygon fill="#FEFECE" filter="url(#fpk8xkev1dueq)" points="415,254.7422,427,266.7422,415,278.7422,403,266.7422,415,254.7422" style="stroke: #A80036; stroke-width: 1.5;"/><polygon fill="#FEFECE" filter="url(#fpk8xkev1dueq)" points="370,103.9688,460,103.9688,472,115.9688,460,127.9688,370,127.9688,358,115.9688,370,103.9688" style="stroke: #A80036; stroke-width: 1.5;"/><text fill="#000000" font-family="sans-serif" font-size="11" lengthAdjust="spacingAndGlyphs" textLength="20" x="419" y="138.1792">yes</text><text fill="#000000" font-family="sans-serif" font-size="11" lengthAdjust="spacingAndGlyphs" textLength="90" x="370" y="119.7769">Client is eligible</text><text fill="#000000" font-family="sans-serif" font-size="11" lengthAdjust="spacingAndGlyphs" textLength="14" x="472" y="113.3745">no</text><polygon fill="#FEFECE" filter="url(#fpk8xkev1dueq)" points="415,298.7422,427,310.7422,415,322.7422,403,310.7422,415,298.7422" style="stroke: #A80036; stroke-width: 1.5;"/><ellipse cx="415" cy="353.7422" fill="#FFFFFF" filter="url(#fpk8xkev1dueq)" rx="11" ry="11" style="stroke: #000000; stroke-width: 1.0;"/><ellipse cx="415" cy="353.7422" fill="#000000" rx="6" ry="6" style="stroke: #7F7F7F; stroke-width: 1.0;"/><line style="stroke: #A80036; stroke-width: 1.5;" x1="415" x2="415" y1="30" y2="50"/><polygon fill="#A80036" points="411,40,415,50,419,40,415,44" style="stroke: #A80036; stroke-width: 1.0;"/><line style="stroke: #A80036; stroke-width: 1.5;" x1="415" x2="415" y1="176.3711" y2="200.7734"/><polygon fill="#A80036" points="411,190.7734,415,200.7734,419,190.7734,415,194.7734" style="stroke: #A80036; stroke-width: 1.0;"/><line style="stroke: #A80036; stroke-width: 1.5;" x1="512.5" x2="541" y1="164.3711" y2="164.3711"/><polygon fill="#A80036" points="537,207.7578,541,217.7578,545,207.7578,541,211.7578" style="stroke: #A80036; stroke-width: 1.5;"/><line style="stroke: #A80036; stroke-width: 1.5;" x1="541" x2="541" y1="164.3711" y2="266.7422"/><line style="stroke: #A80036; stroke-width: 1.5;" x1="541" x2="427" y1="266.7422" y2="266.7422"/><polygon fill="#A80036" points="437,262.7422,427,266.7422,437,270.7422,433,266.7422" style="stroke: #A80036; stroke-width: 1.0;"/><line style="stroke: #A80036; stroke-width: 1.5;" x1="415" x2="415" y1="234.7422" y2="254.7422"/><polygon fill="#A80036" points="411,244.7422,415,254.7422,419,244.7422,415,248.7422" style="stroke: #A80036; stroke-width: 1.0;"/><line style="stroke: #A80036; stroke-width: 1.5;" x1="415" x2="415" y1="127.9688" y2="152.3711"/><polygon fill="#A80036" points="411,142.3711,415,152.3711,419,142.3711,415,146.3711" style="stroke: #A80036; stroke-width: 1.0;"/><line style="stroke: #A80036; stroke-width: 1.5;" x1="472" x2="559" y1="115.9688" y2="115.9688"/><polygon fill="#A80036" points="555,207.7578,559,217.7578,563,207.7578,559,211.7578" style="stroke: #A80036; stroke-width: 1.5;"/><line style="stroke: #A80036; stroke-width: 1.5;" x1="559" x2="559" y1="115.9688" y2="310.7422"/><line style="stroke: #A80036; stroke-width: 1.5;" x1="559" x2="427" y1="310.7422" y2="310.7422"/><polygon fill="#A80036" points="437,306.7422,427,310.7422,437,314.7422,433,310.7422" style="stroke: #A80036; stroke-width: 1.0;"/><line style="stroke: #A80036; stroke-width: 1.5;" x1="415" x2="415" y1="278.7422" y2="298.7422"/><polygon fill="#A80036" points="411,288.7422,415,298.7422,419,288.7422,415,292.7422" style="stroke: #A80036; stroke-width: 1.0;"/><line style="stroke: #A80036; stroke-width: 1.5;" x1="415" x2="415" y1="83.9688" y2="103.9688"/><polygon fill="#A80036" points="411,93.9688,415,103.9688,419,93.9688,415,97.9688" style="stroke: #A80036; stroke-width: 1.0;"/><line style="stroke: #A80036; stroke-width: 1.5;" x1="415" x2="415" y1="322.7422" y2="342.7422"/><polygon fill="#A80036" points="411,332.7422,415,342.7422,419,332.7422,415,336.7422" style="stroke: #A80036; stroke-width: 1.0;"/><!--MD5=[283bc187aab3da5da867132b23653bd3]
@startuml
start
:Client want to book an item;
if (Client is eligible) then (yes)
    if (Client is already in bookings ?) then (yes)
    else (no)
      :Client is added to item's bookings;
      note: Call to LibraryItem#addBooking(Client)
    endif
  else (no)  
endif
stop
@enduml

PlantUML version 1.2019.12(Sun Nov 03 10:24:54 UTC 2019)
(GPL source distribution)
Java Runtime: OpenJDK Runtime Environment
JVM: OpenJDK 64-Bit Server VM
Java Version: 1.8.0_232-heroku-b09
Operating System: Linux
Default Encoding: UTF-8
Language: en
Country: US
--></g></svg>