<?xml version="1.0" encoding="UTF-8" standalone="no"?><svg xmlns="http://www.w3.org/2000/svg" xmlns:xlink="http://www.w3.org/1999/xlink" contentScriptType="application/ecmascript" contentStyleType="text/css" height="586px" preserveAspectRatio="none" style="width:578px;height:586px;" version="1.1" viewBox="0 0 578 586" width="578px" zoomAndPan="magnify"><defs><filter height="300%" id="f8gq7ss209bmf" width="300%" x="-1" y="-1"><feGaussianBlur result="blurOut" stdDeviation="2.0"/><feColorMatrix in="blurOut" result="blurOut2" type="matrix" values="0 0 0 0 0 0 0 0 0 0 0 0 0 0 0 0 0 0 .4 0"/><feOffset dx="4.0" dy="4.0" in="blurOut2" result="blurOut3"/><feBlend in="SourceGraphic" in2="blurOut3" mode="normal"/></filter></defs><g><!--MD5=[10ea673caf457862023e152271927b45]
cluster controller--><polygon fill="#FFFFFF" filter="url(#f8gq7ss209bmf)" points="360,6,443,6,450,28.2969,550,28.2969,550,115,360,115,360,6" style="stroke:#000000;stroke-width:1.5;"/><line style="stroke:#000000;stroke-width:1.5;" x1="360" x2="450" y1="28.2969" y2="28.2969"/><text fill="#000000" font-family="sans-serif" font-size="14" font-weight="bold" lengthAdjust="spacingAndGlyphs" textLength="77" x="364" y="20.9951">controller</text><!--MD5=[1497e3ba29964c870bef0c5efaf493a3]
cluster logs--><polygon fill="#FFFFFF" filter="url(#f8gq7ss209bmf)" points="392,146,431,146,438,168.2969,518,168.2969,518,242,392,242,392,146" style="stroke:#000000;stroke-width:1.5;"/><line style="stroke:#000000;stroke-width:1.5;" x1="392" x2="438" y1="168.2969" y2="168.2969"/><text fill="#000000" font-family="sans-serif" font-size="14" font-weight="bold" lengthAdjust="spacingAndGlyphs" textLength="33" x="396" y="160.9951">logs</text><!--MD5=[5622bc4ba3bf2be5d17935065b98c5f9]
cluster dao--><polygon fill="#FFFFFF" filter="url(#f8gq7ss209bmf)" points="16,273,51,273,58,295.2969,561,295.2969,561,579,16,579,16,273" style="stroke:#000000;stroke-width:1.5;"/><line style="stroke:#000000;stroke-width:1.5;" x1="16" x2="58" y1="295.2969" y2="295.2969"/><text fill="#000000" font-family="sans-serif" font-size="14" font-weight="bold" lengthAdjust="spacingAndGlyphs" textLength="29" x="20" y="287.9951">dao</text><!--MD5=[bab4019c732006648757f54388533847]
cluster postgres--><polygon fill="#FFFFFF" filter="url(#f8gq7ss209bmf)" points="24,462,101,462,108,484.2969,553,484.2969,553,571,24,571,24,462" style="stroke:#000000;stroke-width:1.5;"/><line style="stroke:#000000;stroke-width:1.5;" x1="24" x2="108" y1="484.2969" y2="484.2969"/><text fill="#000000" font-family="sans-serif" font-size="14" font-weight="bold" lengthAdjust="spacingAndGlyphs" textLength="71" x="28" y="476.9951">postgres</text><!--MD5=[6a4f1d9b6cc41e103d5cce05ed1b2e66]
class LogsController--><rect codeLine="3" fill="#FEFECE" filter="url(#f8gq7ss209bmf)" height="73.6094" id="LogsController" style="stroke:#A80036;stroke-width:1.5;" width="174" x="368" y="33"/><ellipse cx="406.4" cy="49" fill="#ADD1B2" rx="11" ry="11" style="stroke:#A80036;stroke-width:1.0;"/><path d="M409.3688,54.6406 Q408.7906,54.9375 408.15,55.0781 Q407.5094,55.2344 406.8063,55.2344 Q404.3063,55.2344 402.9781,53.5938 Q401.6656,51.9375 401.6656,48.8125 Q401.6656,45.6875 402.9781,44.0313 Q404.3063,42.375 406.8063,42.375 Q407.5094,42.375 408.15,42.5313 Q408.8063,42.6875 409.3688,42.9844 L409.3688,45.7031 Q408.7438,45.125 408.15,44.8594 Q407.5563,44.5781 406.9313,44.5781 Q405.5875,44.5781 404.9,45.6563 Q404.2125,46.7188 404.2125,48.8125 Q404.2125,50.9063 404.9,51.9844 Q405.5875,53.0469 406.9313,53.0469 Q407.5563,53.0469 408.15,52.7813 Q408.7438,52.5 409.3688,51.9219 L409.3688,54.6406 Z " fill="#000000"/><text fill="#000000" font-family="sans-serif" font-size="12" lengthAdjust="spacingAndGlyphs" textLength="90" x="425.6" y="53.1543">LogsController</text><line style="stroke:#A80036;stroke-width:1.5;" x1="369" x2="541" y1="65" y2="65"/><rect fill="none" height="6" style="stroke:#C82930;stroke-width:1.0;" width="6" x="376" y="73"/><text fill="#000000" font-family="sans-serif" font-size="11" lengthAdjust="spacingAndGlyphs" textLength="148" x="388" y="79.2104">searchLogsButton: Button</text><line style="stroke:#A80036;stroke-width:1.5;" x1="369" x2="541" y1="85.8047" y2="85.8047"/><ellipse cx="379" cy="96.8047" fill="#84BE84" rx="3" ry="3" style="stroke:#038048;stroke-width:1.0;"/><text fill="#000000" font-family="sans-serif" font-size="11" lengthAdjust="spacingAndGlyphs" textLength="88" x="388" y="100.0151">getLogs() : void</text><!--MD5=[4d1e7510aa1734ace2c98a69e05e59fd]
class LogsFacade--><rect codeLine="11" fill="#FEFECE" filter="url(#f8gq7ss209bmf)" height="60.8047" id="LogsFacade" style="stroke:#A80036;stroke-width:1.5;" width="109" x="400.5" y="173"/><ellipse cx="416.4" cy="189" fill="#ADD1B2" rx="11" ry="11" style="stroke:#A80036;stroke-width:1.0;"/><path d="M419.3688,194.6406 Q418.7906,194.9375 418.15,195.0781 Q417.5094,195.2344 416.8063,195.2344 Q414.3063,195.2344 412.9781,193.5938 Q411.6656,191.9375 411.6656,188.8125 Q411.6656,185.6875 412.9781,184.0313 Q414.3063,182.375 416.8063,182.375 Q417.5094,182.375 418.15,182.5313 Q418.8063,182.6875 419.3688,182.9844 L419.3688,185.7031 Q418.7438,185.125 418.15,184.8594 Q417.5563,184.5781 416.9313,184.5781 Q415.5875,184.5781 414.9,185.6563 Q414.2125,186.7188 414.2125,188.8125 Q414.2125,190.9063 414.9,191.9844 Q415.5875,193.0469 416.9313,193.0469 Q417.5563,193.0469 418.15,192.7813 Q418.7438,192.5 419.3688,191.9219 L419.3688,194.6406 Z " fill="#000000"/><text fill="#000000" font-family="sans-serif" font-size="12" lengthAdjust="spacingAndGlyphs" textLength="75" x="430.6" y="193.1543">LogsFacade</text><line style="stroke:#A80036;stroke-width:1.5;" x1="401.5" x2="508.5" y1="205" y2="205"/><line style="stroke:#A80036;stroke-width:1.5;" x1="401.5" x2="508.5" y1="213" y2="213"/><ellipse cx="411.5" cy="224" fill="#84BE84" rx="3" ry="3" style="stroke:#038048;stroke-width:1.0;"/><text fill="#000000" font-family="sans-serif" font-size="11" lengthAdjust="spacingAndGlyphs" textLength="83" x="420.5" y="227.2104">getAll() : logs[]</text><!--MD5=[4a0300a6597e068a69ac5dc42e345e2c]
class DAOFactory--><rect codeLine="19" fill="#FEFECE" filter="url(#f8gq7ss209bmf)" height="60.8047" id="DAOFactory" style="stroke:#A80036;stroke-width:1.5;" width="155" x="377.5" y="300"/><ellipse cx="415.45" cy="316" fill="#A9DCDF" rx="11" ry="11" style="stroke:#A80036;stroke-width:1.0;"/><path d="M415.5594,311.3438 L414.4031,316.4219 L416.7313,316.4219 L415.5594,311.3438 Z M414.075,309.1094 L417.0594,309.1094 L420.4188,321.5 L417.9656,321.5 L417.2,318.4375 L413.9188,318.4375 L413.1688,321.5 L410.7313,321.5 L414.075,309.1094 Z " fill="#000000"/><text fill="#000000" font-family="sans-serif" font-size="12" font-style="italic" lengthAdjust="spacingAndGlyphs" textLength="72" x="434.55" y="320.1543">DAOFactory</text><line style="stroke:#A80036;stroke-width:1.5;" x1="378.5" x2="531.5" y1="332" y2="332"/><line style="stroke:#A80036;stroke-width:1.5;" x1="378.5" x2="531.5" y1="340" y2="340"/><ellipse cx="388.5" cy="351" fill="#84BE84" rx="3" ry="3" style="stroke:#038048;stroke-width:1.0;"/><text fill="#000000" font-family="sans-serif" font-size="11" lengthAdjust="spacingAndGlyphs" textLength="129" x="397.5" y="354.2104">getLogDAO(): LogsDAO</text><!--MD5=[32e4ebcef9a7c74c37133ed41263fd0b]
class LogsDAO--><rect codeLine="23" fill="#FEFECE" filter="url(#f8gq7ss209bmf)" height="60.8047" id="LogsDAO" style="stroke:#A80036;stroke-width:1.5;" width="109" x="139.5" y="300"/><ellipse cx="164.4" cy="316" fill="#B4A7E5" rx="11" ry="11" style="stroke:#A80036;stroke-width:1.0;"/><path d="M160.3219,311.7656 L160.3219,309.6094 L167.7125,309.6094 L167.7125,311.7656 L165.2438,311.7656 L165.2438,319.8438 L167.7125,319.8438 L167.7125,322 L160.3219,322 L160.3219,319.8438 L162.7906,319.8438 L162.7906,311.7656 L160.3219,311.7656 Z " fill="#000000"/><text fill="#000000" font-family="sans-serif" font-size="12" font-style="italic" lengthAdjust="spacingAndGlyphs" textLength="55" x="180.6" y="320.1543">LogsDAO</text><line style="stroke:#A80036;stroke-width:1.5;" x1="140.5" x2="247.5" y1="332" y2="332"/><line style="stroke:#A80036;stroke-width:1.5;" x1="140.5" x2="247.5" y1="340" y2="340"/><ellipse cx="150.5" cy="351" fill="#84BE84" rx="3" ry="3" style="stroke:#038048;stroke-width:1.0;"/><text fill="#000000" font-family="sans-serif" font-size="11" lengthAdjust="spacingAndGlyphs" textLength="83" x="159.5" y="354.2104">getAll() : logs[]</text><!--MD5=[9ca4c1b31cd810c4826eaf77f808e515]
class PostgresLogsDAO--><rect codeLine="29" fill="#FEFECE" filter="url(#f8gq7ss209bmf)" height="73.6094" id="PostgresLogsDAO" style="stroke:#A80036;stroke-width:1.5;" width="268" x="32" y="489"/><ellipse cx="106.25" cy="505" fill="#ADD1B2" rx="11" ry="11" style="stroke:#A80036;stroke-width:1.0;"/><path d="M109.2188,510.6406 Q108.6406,510.9375 108,511.0781 Q107.3594,511.2344 106.6563,511.2344 Q104.1563,511.2344 102.8281,509.5938 Q101.5156,507.9375 101.5156,504.8125 Q101.5156,501.6875 102.8281,500.0313 Q104.1563,498.375 106.6563,498.375 Q107.3594,498.375 108,498.5313 Q108.6563,498.6875 109.2188,498.9844 L109.2188,501.7031 Q108.5938,501.125 108,500.8594 Q107.4063,500.5781 106.7813,500.5781 Q105.4375,500.5781 104.75,501.6563 Q104.0625,502.7188 104.0625,504.8125 Q104.0625,506.9063 104.75,507.9844 Q105.4375,509.0469 106.7813,509.0469 Q107.4063,509.0469 108,508.7813 Q108.5938,508.5 109.2188,507.9219 L109.2188,510.6406 Z " fill="#000000"/><text fill="#000000" font-family="sans-serif" font-size="12" lengthAdjust="spacingAndGlyphs" textLength="111" x="126.75" y="509.1543">PostgresLogsDAO</text><line style="stroke:#A80036;stroke-width:1.5;" x1="33" x2="299" y1="521" y2="521"/><rect fill="none" height="6" style="stroke:#C82930;stroke-width:1.0;" width="6" x="40" y="529"/><text fill="#000000" font-family="sans-serif" font-size="11" lengthAdjust="spacingAndGlyphs" textLength="132" x="52" y="535.2104">connection: Connection</text><line style="stroke:#A80036;stroke-width:1.5;" x1="33" x2="299" y1="541.8047" y2="541.8047"/><ellipse cx="43" cy="552.8047" fill="#84BE84" rx="3" ry="3" style="stroke:#038048;stroke-width:1.0;"/><text fill="#000000" font-family="sans-serif" font-size="11" lengthAdjust="spacingAndGlyphs" textLength="242" x="52" y="556.0151">PostgresLogsDAO(Connection: connection)</text><!--MD5=[700a5a1f58ccb71a3c0d036256714175]
class PostgresDAOFactory--><rect codeLine="34" fill="#FEFECE" filter="url(#f8gq7ss209bmf)" height="60.8047" id="PostgresDAOFactory" style="stroke:#A80036;stroke-width:1.5;" width="160" x="385" y="495.5"/><ellipse cx="400" cy="511.5" fill="#ADD1B2" rx="11" ry="11" style="stroke:#A80036;stroke-width:1.0;"/><path d="M402.9688,517.1406 Q402.3906,517.4375 401.75,517.5781 Q401.1094,517.7344 400.4063,517.7344 Q397.9063,517.7344 396.5781,516.0938 Q395.2656,514.4375 395.2656,511.3125 Q395.2656,508.1875 396.5781,506.5313 Q397.9063,504.875 400.4063,504.875 Q401.1094,504.875 401.75,505.0313 Q402.4063,505.1875 402.9688,505.4844 L402.9688,508.2031 Q402.3438,507.625 401.75,507.3594 Q401.1563,507.0781 400.5313,507.0781 Q399.1875,507.0781 398.5,508.1563 Q397.8125,509.2188 397.8125,511.3125 Q397.8125,513.4063 398.5,514.4844 Q399.1875,515.5469 400.5313,515.5469 Q401.1563,515.5469 401.75,515.2813 Q402.3438,515 402.9688,514.4219 L402.9688,517.1406 Z " fill="#000000"/><text fill="#000000" font-family="sans-serif" font-size="12" lengthAdjust="spacingAndGlyphs" textLength="128" x="414" y="515.6543">PostgresDAOFactory</text><line style="stroke:#A80036;stroke-width:1.5;" x1="386" x2="544" y1="527.5" y2="527.5"/><rect fill="none" height="6" style="stroke:#C82930;stroke-width:1.0;" width="6" x="393" y="535.5"/><text fill="#000000" font-family="sans-serif" font-size="11" lengthAdjust="spacingAndGlyphs" textLength="132" x="405" y="541.7104">connection: Connection</text><line style="stroke:#A80036;stroke-width:1.5;" x1="386" x2="544" y1="548.3047" y2="548.3047"/><!--MD5=[f2e8dc96662b2ff151aaa839d59c3ddc]
reverse link LogsDAO to PostgresLogsDAO--><path d="M186.7564,381.0755 C181.9215,414.8337 175.6724,458.4661 171.2995,488.9981 " fill="none" id="LogsDAO-backto-PostgresLogsDAO" style="stroke:#A80036;stroke-width:1.0;stroke-dasharray:7.0,7.0;"/><polygon fill="none" points="179.8601,379.8524,189.625,361.0469,193.7187,381.8373,179.8601,379.8524" style="stroke:#A80036;stroke-width:1.0;"/><!--MD5=[d37a47b44041b5251d0f0ec75d3c62d9]
reverse link DAOFactory to PostgresDAOFactory--><path d="M457.5872,381.0792 C459.4375,417.2537 461.8678,464.7651 463.432,495.3457 " fill="none" id="DAOFactory-backto-PostgresDAOFactory" style="stroke:#A80036;stroke-width:1.0;"/><polygon fill="none" points="450.5934,381.3784,456.5625,361.0469,464.5751,380.6631,450.5934,381.3784" style="stroke:#A80036;stroke-width:1.0;"/><!--MD5=[9525a070b0c1feab45f9a205dcd8fc6d]
reverse link PostgresLogsDAO to PostgresDAOFactory--><path codeLine="41" d="M305.2772,526 C332.5321,526 360.2421,526 384.7614,526 " fill="none" id="PostgresLogsDAO-backto-PostgresDAOFactory" style="stroke:#A80036;stroke-width:1.0;stroke-dasharray:7.0,7.0;"/><polygon fill="#A80036" points="300.1943,526,309.1943,530,305.1943,526,309.1943,522,300.1943,526" style="stroke:#A80036;stroke-width:1.0;"/><text fill="#000000" font-family="sans-serif" font-size="13" lengthAdjust="spacingAndGlyphs" textLength="48" x="318.5" y="519.0669">creates</text><!--MD5=[d34a59e7696ef2cec25a102780be40a3]
reverse link LogsDAO to DAOFactory--><path codeLine="42" d="M254.0291,330.5 C290.5854,330.5 337.6802,330.5 377.0905,330.5 " fill="none" id="LogsDAO-backto-DAOFactory" style="stroke:#A80036;stroke-width:1.0;stroke-dasharray:7.0,7.0;"/><polygon fill="#A80036" points="248.7142,330.5,257.7142,334.5,253.7142,330.5,257.7142,326.5,248.7142,330.5" style="stroke:#A80036;stroke-width:1.0;"/><text fill="#000000" font-family="sans-serif" font-size="13" lengthAdjust="spacingAndGlyphs" textLength="54" x="286" y="323.5669">provides</text><!--MD5=[07ecbbc16a6362a6556a606ed22edcb5]
link LogsFacade to DAOFactory--><path codeLine="43" d="M455,234.2432 C455,252.3606 455,275.377 455,294.36 " fill="none" id="LogsFacade-to-DAOFactory" style="stroke:#A80036;stroke-width:1.0;"/><polygon fill="#A80036" points="455,299.5998,459,290.5998,455,294.5998,451,290.5998,455,299.5998" style="stroke:#A80036;stroke-width:1.0;"/><!--MD5=[b7de9e4c5b5f87d5232baa4df615c8a4]
link LogsController to LogsFacade--><path codeLine="44" d="M455,107.1872 C455,126.0869 455,148.9491 455,167.6556 " fill="none" id="LogsController-to-LogsFacade" style="stroke:#A80036;stroke-width:1.0;"/><polygon fill="#A80036" points="455,172.8148,459,163.8148,455,167.8148,451,163.8148,455,172.8148" style="stroke:#A80036;stroke-width:1.0;"/><!--MD5=[4bce52e3b4fc9e9ab7185e574be07796]
@startuml
package controller {

  class LogsController {
    -searchLogsButton: Button
    +getLogs() : void
  }
}

package logs {

  class LogsFacade {
    +getAll() : Log[]
  }
  
}

package dao {

  abstract class DAOFactory {
    +getLogDAO(): LogsDAO
  }

  interface LogsDAO {
    +getAll() : Log[]
  }

  package postgres {

    class PostgresLogsDAO implements LogsDAO {
      -connection: Connection
      +PostgresLogsDAO(Connection: connection)
    }

    class PostgresDAOFactory extends DAOFactory {
      -connection: Connection
    }
  }

}

PostgresDAOFactory .left> PostgresLogsDAO : "creates"
DAOFactory .left> LogsDAO : "provides"
LogsFacade -down-> DAOFactory
LogsController -down-> LogsFacade
@enduml

PlantUML version 1.2020.22(Sun Dec 06 09:36:27 UTC 2020)
(GPL source distribution)
Java Runtime: OpenJDK Runtime Environment
JVM: OpenJDK 64-Bit Server VM
Default Encoding: UTF-8
Language: en
Country: US
--></g></svg>