<?xml version="1.0" encoding="UTF-8" standalone="no"?><svg xmlns="http://www.w3.org/2000/svg" xmlns:xlink="http://www.w3.org/1999/xlink" contentScriptType="application/ecmascript" contentStyleType="text/css" height="613px" preserveAspectRatio="none" style="width:624px;height:613px;" version="1.1" viewBox="0 0 624 613" width="624px" zoomAndPan="magnify"><defs><filter height="300%" id="fpthbqj2n6pda" width="300%" x="-1" y="-1"><feGaussianBlur result="blurOut" stdDeviation="2.0"/><feColorMatrix in="blurOut" result="blurOut2" type="matrix" values="0 0 0 0 0 0 0 0 0 0 0 0 0 0 0 0 0 0 .4 0"/><feOffset dx="4.0" dy="4.0" in="blurOut2" result="blurOut3"/><feBlend in="SourceGraphic" in2="blurOut3" mode="normal"/></filter></defs><g><!--MD5=[10ea673caf457862023e152271927b45]
cluster controller--><polygon fill="#FFFFFF" filter="url(#fpthbqj2n6pda)" points="376,16,459,16,466,38.2969,566,38.2969,566,137,376,137,376,16" style="stroke: #000000; stroke-width: 1.5;"/><line style="stroke: #000000; stroke-width: 1.5;" x1="376" x2="466" y1="38.2969" y2="38.2969"/><text fill="#000000" font-family="sans-serif" font-size="14" font-weight="bold" lengthAdjust="spacingAndGlyphs" textLength="77" x="380" y="30.9951">controller</text><!--MD5=[fac77c0a9b002e9dadea972f3a8d0a0a]
cluster consult-log--><polygon fill="#FFFFFF" filter="url(#fpthbqj2n6pda)" points="386,168,480,168,487,190.2969,556,190.2969,556,264,386,264,386,168" style="stroke: #000000; stroke-width: 1.5;"/><line style="stroke: #000000; stroke-width: 1.5;" x1="386" x2="487" y1="190.2969" y2="190.2969"/><text fill="#000000" font-family="sans-serif" font-size="14" font-weight="bold" lengthAdjust="spacingAndGlyphs" textLength="88" x="390" y="182.9951">consult-log</text><!--MD5=[5622bc4ba3bf2be5d17935065b98c5f9]
cluster dao--><polygon fill="#FFFFFF" filter="url(#fpthbqj2n6pda)" points="14,295,49,295,56,317.2969,602,317.2969,602,601,14,601,14,295" style="stroke: #000000; stroke-width: 1.5;"/><line style="stroke: #000000; stroke-width: 1.5;" x1="14" x2="56" y1="317.2969" y2="317.2969"/><text fill="#000000" font-family="sans-serif" font-size="14" font-weight="bold" lengthAdjust="spacingAndGlyphs" textLength="29" x="18" y="309.9951">dao</text><!--MD5=[bab4019c732006648757f54388533847]
cluster postgres--><polygon fill="#FFFFFF" filter="url(#fpthbqj2n6pda)" points="22,484,99,484,106,506.2969,594,506.2969,594,593,22,593,22,484" style="stroke: #000000; stroke-width: 1.5;"/><line style="stroke: #000000; stroke-width: 1.5;" x1="22" x2="106" y1="506.2969" y2="506.2969"/><text fill="#000000" font-family="sans-serif" font-size="14" font-weight="bold" lengthAdjust="spacingAndGlyphs" textLength="71" x="26" y="498.9951">postgres</text><!--MD5=[25dfb0efde49334eed5404b049f4c09a]
class ConsultLogsController--><rect fill="#FEFECE" filter="url(#fpthbqj2n6pda)" height="86.4141" id="ConsultLogsController" style="stroke: #A80036; stroke-width: 1.5;" width="174" x="384" y="43"/><ellipse cx="401.25" cy="59" fill="#ADD1B2" rx="11" ry="11" style="stroke: #A80036; stroke-width: 1.0;"/><path d="M404.2188,64.6406 Q403.6406,64.9375 403,65.0859 Q402.3594,65.2344 401.6563,65.2344 Q399.1563,65.2344 397.8359,63.5859 Q396.5156,61.9375 396.5156,58.8125 Q396.5156,55.6875 397.8359,54.0313 Q399.1563,52.375 401.6563,52.375 Q402.3594,52.375 403.0078,52.5313 Q403.6563,52.6875 404.2188,52.9844 L404.2188,55.7031 Q403.5938,55.125 403,54.8516 Q402.4063,54.5781 401.7813,54.5781 Q400.4375,54.5781 399.75,55.6484 Q399.0625,56.7188 399.0625,58.8125 Q399.0625,60.9063 399.75,61.9766 Q400.4375,63.0469 401.7813,63.0469 Q402.4063,63.0469 403,62.7734 Q403.5938,62.5 404.2188,61.9219 L404.2188,64.6406 Z "/><text fill="#000000" font-family="sans-serif" font-size="12" lengthAdjust="spacingAndGlyphs" textLength="137" x="415.75" y="63.1543">ConsultLogsController</text><line style="stroke: #A80036; stroke-width: 1.5;" x1="385" x2="557" y1="75" y2="75"/><rect fill="none" height="6" style="stroke: #C82930; stroke-width: 1.0;" width="6" x="392" y="83"/><text fill="#000000" font-family="sans-serif" font-size="11" lengthAdjust="spacingAndGlyphs" textLength="148" x="404" y="89.2104">searchLogsButton: Button</text><line style="stroke: #A80036; stroke-width: 1.5;" x1="385" x2="557" y1="95.8047" y2="95.8047"/><ellipse cx="395" cy="106.8047" fill="#84BE84" rx="3" ry="3" style="stroke: #038048; stroke-width: 1.0;"/><text fill="#000000" font-family="sans-serif" font-size="11" lengthAdjust="spacingAndGlyphs" textLength="88" x="404" y="110.0151">getLogs() : void</text><ellipse cx="395" cy="119.6094" fill="#84BE84" rx="3" ry="3" style="stroke: #038048; stroke-width: 1.0;"/><text fill="#000000" font-family="sans-serif" font-size="11" lengthAdjust="spacingAndGlyphs" textLength="110" x="404" y="122.8198">displayLogs() : void</text><!--MD5=[c11752f224904b47d03208966e0bd744]
class ConsultLogsFacade--><rect fill="#FEFECE" filter="url(#fpthbqj2n6pda)" height="60.8047" id="ConsultLogsFacade" style="stroke: #A80036; stroke-width: 1.5;" width="154" x="394" y="195"/><ellipse cx="409" cy="211" fill="#ADD1B2" rx="11" ry="11" style="stroke: #A80036; stroke-width: 1.0;"/><path d="M411.9688,216.6406 Q411.3906,216.9375 410.75,217.0859 Q410.1094,217.2344 409.4063,217.2344 Q406.9063,217.2344 405.5859,215.5859 Q404.2656,213.9375 404.2656,210.8125 Q404.2656,207.6875 405.5859,206.0313 Q406.9063,204.375 409.4063,204.375 Q410.1094,204.375 410.7578,204.5313 Q411.4063,204.6875 411.9688,204.9844 L411.9688,207.7031 Q411.3438,207.125 410.75,206.8516 Q410.1563,206.5781 409.5313,206.5781 Q408.1875,206.5781 407.5,207.6484 Q406.8125,208.7188 406.8125,210.8125 Q406.8125,212.9063 407.5,213.9766 Q408.1875,215.0469 409.5313,215.0469 Q410.1563,215.0469 410.75,214.7734 Q411.3438,214.5 411.9688,213.9219 L411.9688,216.6406 Z "/><text fill="#000000" font-family="sans-serif" font-size="12" lengthAdjust="spacingAndGlyphs" textLength="122" x="423" y="215.1543">ConsultLogsFacade</text><line style="stroke: #A80036; stroke-width: 1.5;" x1="395" x2="547" y1="227" y2="227"/><line style="stroke: #A80036; stroke-width: 1.5;" x1="395" x2="547" y1="235" y2="235"/><ellipse cx="405" cy="246" fill="#84BE84" rx="3" ry="3" style="stroke: #038048; stroke-width: 1.0;"/><text fill="#000000" font-family="sans-serif" font-size="11" lengthAdjust="spacingAndGlyphs" textLength="39" x="414" y="249.2104">getAll()</text><!--MD5=[4a0300a6597e068a69ac5dc42e345e2c]
class DAOFactory--><rect fill="#FEFECE" filter="url(#fpthbqj2n6pda)" height="60.8047" id="DAOFactory" style="stroke: #A80036; stroke-width: 1.5;" width="241" x="350.5" y="322"/><ellipse cx="430.75" cy="338" fill="#A9DCDF" rx="11" ry="11" style="stroke: #A80036; stroke-width: 1.0;"/><path d="M430.8594,333.3438 L429.7031,338.4219 L432.0313,338.4219 L430.8594,333.3438 Z M429.375,331.1094 L432.3594,331.1094 L435.7188,343.5 L433.2656,343.5 L432.5,340.4375 L429.2188,340.4375 L428.4688,343.5 L426.0313,343.5 L429.375,331.1094 Z "/><text fill="#000000" font-family="sans-serif" font-size="12" font-style="italic" lengthAdjust="spacingAndGlyphs" textLength="72" x="451.25" y="342.1543">DAOFactory</text><line style="stroke: #A80036; stroke-width: 1.5;" x1="351.5" x2="590.5" y1="354" y2="354"/><line style="stroke: #A80036; stroke-width: 1.5;" x1="351.5" x2="590.5" y1="362" y2="362"/><ellipse cx="361.5" cy="373" fill="#84BE84" rx="3" ry="3" style="stroke: #038048; stroke-width: 1.0;"/><text fill="#000000" font-family="sans-serif" font-size="11" lengthAdjust="spacingAndGlyphs" textLength="215" x="370.5" y="376.2104">getConsultLogDAO(): ConsultLogsDAO</text><!--MD5=[02fe44113477f1ce3dacf11a51425496]
class ConsultLogsDAO--><rect fill="#FEFECE" filter="url(#fpthbqj2n6pda)" height="60.8047" id="ConsultLogsDAO" style="stroke: #A80036; stroke-width: 1.5;" width="134" x="122" y="322"/><ellipse cx="137" cy="338" fill="#B4A7E5" rx="11" ry="11" style="stroke: #A80036; stroke-width: 1.0;"/><path d="M132.9219,333.7656 L132.9219,331.6094 L140.3125,331.6094 L140.3125,333.7656 L137.8438,333.7656 L137.8438,341.8438 L140.3125,341.8438 L140.3125,344 L132.9219,344 L132.9219,341.8438 L135.3906,341.8438 L135.3906,333.7656 L132.9219,333.7656 Z "/><text fill="#000000" font-family="sans-serif" font-size="12" font-style="italic" lengthAdjust="spacingAndGlyphs" textLength="102" x="151" y="342.1543">ConsultLogsDAO</text><line style="stroke: #A80036; stroke-width: 1.5;" x1="123" x2="255" y1="354" y2="354"/><line style="stroke: #A80036; stroke-width: 1.5;" x1="123" x2="255" y1="362" y2="362"/><ellipse cx="133" cy="373" fill="#84BE84" rx="3" ry="3" style="stroke: #038048; stroke-width: 1.0;"/><text fill="#000000" font-family="sans-serif" font-size="11" lengthAdjust="spacingAndGlyphs" textLength="83" x="142" y="376.2104">getAll() : logs[]</text><!--MD5=[0adacdcdfed42b3e2f09067bff9e9b2a]
class PostgresConsultLogsDAO--><rect fill="#FEFECE" filter="url(#fpthbqj2n6pda)" height="73.6094" id="PostgresConsultLogsDAO" style="stroke: #A80036; stroke-width: 1.5;" width="311" x="30.5" y="511"/><ellipse cx="102.75" cy="527" fill="#ADD1B2" rx="11" ry="11" style="stroke: #A80036; stroke-width: 1.0;"/><path d="M105.7188,532.6406 Q105.1406,532.9375 104.5,533.0859 Q103.8594,533.2344 103.1563,533.2344 Q100.6563,533.2344 99.3359,531.5859 Q98.0156,529.9375 98.0156,526.8125 Q98.0156,523.6875 99.3359,522.0313 Q100.6563,520.375 103.1563,520.375 Q103.8594,520.375 104.5078,520.5313 Q105.1563,520.6875 105.7188,520.9844 L105.7188,523.7031 Q105.0938,523.125 104.5,522.8516 Q103.9063,522.5781 103.2813,522.5781 Q101.9375,522.5781 101.25,523.6484 Q100.5625,524.7188 100.5625,526.8125 Q100.5625,528.9063 101.25,529.9766 Q101.9375,531.0469 103.2813,531.0469 Q103.9063,531.0469 104.5,530.7734 Q105.0938,530.5 105.7188,529.9219 L105.7188,532.6406 Z "/><text fill="#000000" font-family="sans-serif" font-size="12" lengthAdjust="spacingAndGlyphs" textLength="158" x="123.25" y="531.1543">PostgresConsultLogsDAO</text><line style="stroke: #A80036; stroke-width: 1.5;" x1="31.5" x2="340.5" y1="543" y2="543"/><rect fill="none" height="6" style="stroke: #C82930; stroke-width: 1.0;" width="6" x="38.5" y="551"/><text fill="#000000" font-family="sans-serif" font-size="11" lengthAdjust="spacingAndGlyphs" textLength="132" x="50.5" y="557.2104">connection: Connection</text><line style="stroke: #A80036; stroke-width: 1.5;" x1="31.5" x2="340.5" y1="563.8047" y2="563.8047"/><ellipse cx="41.5" cy="574.8047" fill="#84BE84" rx="3" ry="3" style="stroke: #038048; stroke-width: 1.0;"/><text fill="#000000" font-family="sans-serif" font-size="11" lengthAdjust="spacingAndGlyphs" textLength="285" x="50.5" y="578.0151">PostgresConsultLogsDAO(Connection: connection)</text><!--MD5=[700a5a1f58ccb71a3c0d036256714175]
class PostgresDAOFactory--><rect fill="#FEFECE" filter="url(#fpthbqj2n6pda)" height="60.8047" id="PostgresDAOFactory" style="stroke: #A80036; stroke-width: 1.5;" width="160" x="426" y="517.5"/><ellipse cx="441" cy="533.5" fill="#ADD1B2" rx="11" ry="11" style="stroke: #A80036; stroke-width: 1.0;"/><path d="M443.9688,539.1406 Q443.3906,539.4375 442.75,539.5859 Q442.1094,539.7344 441.4063,539.7344 Q438.9063,539.7344 437.5859,538.0859 Q436.2656,536.4375 436.2656,533.3125 Q436.2656,530.1875 437.5859,528.5313 Q438.9063,526.875 441.4063,526.875 Q442.1094,526.875 442.7578,527.0313 Q443.4063,527.1875 443.9688,527.4844 L443.9688,530.2031 Q443.3438,529.625 442.75,529.3516 Q442.1563,529.0781 441.5313,529.0781 Q440.1875,529.0781 439.5,530.1484 Q438.8125,531.2188 438.8125,533.3125 Q438.8125,535.4063 439.5,536.4766 Q440.1875,537.5469 441.5313,537.5469 Q442.1563,537.5469 442.75,537.2734 Q443.3438,537 443.9688,536.4219 L443.9688,539.1406 Z "/><text fill="#000000" font-family="sans-serif" font-size="12" lengthAdjust="spacingAndGlyphs" textLength="128" x="455" y="537.6543">PostgresDAOFactory</text><line style="stroke: #A80036; stroke-width: 1.5;" x1="427" x2="585" y1="549.5" y2="549.5"/><rect fill="none" height="6" style="stroke: #C82930; stroke-width: 1.0;" width="6" x="434" y="557.5"/><text fill="#000000" font-family="sans-serif" font-size="11" lengthAdjust="spacingAndGlyphs" textLength="132" x="446" y="563.7104">connection: Connection</text><line style="stroke: #A80036; stroke-width: 1.5;" x1="427" x2="585" y1="570.3047" y2="570.3047"/><!--MD5=[5d270a5d959bae4f4783474bb12aa4b3]
reverse link ConsultLogsDAO to PostgresConsultLogsDAO--><path d="M188.2239,403.0755 C187.7059,436.8337 187.0363,480.4661 186.5678,510.9981 " fill="none" id="ConsultLogsDAO&lt;-PostgresConsultLogsDAO" style="stroke: #A80036; stroke-width: 1.0; stroke-dasharray: 7.0,7.0;"/><polygon fill="none" points="181.2251,402.9371,188.5313,383.0469,195.2235,403.152,181.2251,402.9371" style="stroke: #A80036; stroke-width: 1.0;"/><!--MD5=[d37a47b44041b5251d0f0ec75d3c62d9]
reverse link DAOFactory to PostgresDAOFactory--><path d="M480.0096,402.8253 C486.4915,439.0311 495.0244,486.6934 500.512,517.3457 " fill="none" id="DAOFactory&lt;-PostgresDAOFactory" style="stroke: #A80036; stroke-width: 1.0;"/><polygon fill="none" points="473.1029,403.9675,476.4688,383.0469,486.8838,401.5003,473.1029,403.9675" style="stroke: #A80036; stroke-width: 1.0;"/><!--MD5=[149ccf267fd112ae4d10b67b3ef311c8]
reverse link PostgresConsultLogsDAO to PostgresDAOFactory--><path d="M346.8958,548 C374.287,548 401.6431,548 425.753,548 " fill="none" id="PostgresConsultLogsDAO&lt;-PostgresDAOFactory" style="stroke: #A80036; stroke-width: 1.0; stroke-dasharray: 7.0,7.0;"/><polygon fill="#A80036" points="341.7817,548,350.7817,552,346.7817,548,350.7817,544,341.7817,548" style="stroke: #A80036; stroke-width: 1.0;"/><text fill="#000000" font-family="sans-serif" font-size="13" lengthAdjust="spacingAndGlyphs" textLength="48" x="359.75" y="541.0669">creates</text><!--MD5=[8df0b839bf4ebb81fe32e7e6b79120a1]
reverse link ConsultLogsDAO to DAOFactory--><path d="M261.1969,352.5 C288.311,352.5 319.9218,352.5 350.2554,352.5 " fill="none" id="ConsultLogsDAO&lt;-DAOFactory" style="stroke: #A80036; stroke-width: 1.0; stroke-dasharray: 7.0,7.0;"/><polygon fill="#A80036" points="256.1878,352.5,265.1878,356.5,261.1878,352.5,265.1878,348.5,256.1878,352.5" style="stroke: #A80036; stroke-width: 1.0;"/><text fill="#000000" font-family="sans-serif" font-size="13" lengthAdjust="spacingAndGlyphs" textLength="54" x="276.25" y="345.5669">provides</text><!--MD5=[3dae1427a6ea9dfeca6bb57a82c1a34e]
link ConsultLogsFacade to DAOFactory--><path d="M471,256.2432 C471,274.3606 471,297.377 471,316.36 " fill="none" id="ConsultLogsFacade-&gt;DAOFactory" style="stroke: #A80036; stroke-width: 1.0;"/><polygon fill="#A80036" points="471,321.5998,475,312.5998,471,316.5998,467,312.5998,471,321.5998" style="stroke: #A80036; stroke-width: 1.0;"/><!--MD5=[970c10d81144f81a2c2eaeb5c22e939a]
link ConsultLogsController to ConsultLogsFacade--><path d="M471,129.374 C471,148.8207 471,171.4754 471,189.9057 " fill="none" id="ConsultLogsController-&gt;ConsultLogsFacade" style="stroke: #A80036; stroke-width: 1.0;"/><polygon fill="#A80036" points="471,194.9858,475,185.9858,471,189.9858,467,185.9858,471,194.9858" style="stroke: #A80036; stroke-width: 1.0;"/><!--MD5=[3067972e261cb3aaba65d4b7ef22fac4]
@startuml
package controller {

  class ConsultLogsController {
    -searchLogsButton: Button
    +getLogs() : void
    +displayLogs() : void
  }
}

package consult-log {

  class ConsultLogsFacade {
    +getAll()
  }
  
}

package dao {

  abstract class DAOFactory {
    +getConsultLogDAO(): ConsultLogsDAO
  }

  interface ConsultLogsDAO {
    +getAll() : logs[]
  }

  package postgres {

    class PostgresConsultLogsDAO implements ConsultLogsDAO {
      -connection: Connection
      +PostgresConsultLogsDAO(Connection: connection)
    }

    class PostgresDAOFactory extends DAOFactory {
      -connection: Connection
    }
  }

}

PostgresDAOFactory .left> PostgresConsultLogsDAO : "creates"
DAOFactory .left> ConsultLogsDAO : "provides"
ConsultLogsFacade -down-> DAOFactory
ConsultLogsController -down-> ConsultLogsFacade
@enduml

PlantUML version 1.2019.12(Sun Nov 03 10:24:54 UTC 2019)
(GPL source distribution)
Java Runtime: OpenJDK Runtime Environment
JVM: OpenJDK 64-Bit Server VM
Java Version: 1.8.0_232-heroku-b09
Operating System: Linux
Default Encoding: UTF-8
Language: en
Country: US
--></g></svg>