<?xml version="1.0" encoding="UTF-8" standalone="no"?><svg xmlns="http://www.w3.org/2000/svg" xmlns:xlink="http://www.w3.org/1999/xlink" contentScriptType="application/ecmascript" contentStyleType="text/css" height="532px" preserveAspectRatio="none" style="width:859px;height:532px;" version="1.1" viewBox="0 0 859 532" width="859px" zoomAndPan="magnify"><defs><filter height="300%" id="f1lcq43k1zh1qt" width="300%" x="-1" y="-1"><feGaussianBlur result="blurOut" stdDeviation="2.0"/><feColorMatrix in="blurOut" result="blurOut2" type="matrix" values="0 0 0 0 0 0 0 0 0 0 0 0 0 0 0 0 0 0 .4 0"/><feOffset dx="4.0" dy="4.0" in="blurOut2" result="blurOut3"/><feBlend in="SourceGraphic" in2="blurOut3" mode="normal"/></filter></defs><g><ellipse cx="405.25" cy="20" fill="#000000" filter="url(#f1lcq43k1zh1qt)" rx="10" ry="10" style="stroke: none; stroke-width: 1.0;"/><rect fill="#FEFECE" filter="url(#f1lcq43k1zh1qt)" height="33.9688" rx="12.5" ry="12.5" style="stroke: #A80036; stroke-width: 1.5;" width="204" x="303.25" y="50"/><text fill="#000000" font-family="sans-serif" font-size="12" lengthAdjust="spacingAndGlyphs" textLength="184" x="313.25" y="71.1387">Client want to borrow an item</text><polygon fill="#FEFECE" filter="url(#f1lcq43k1zh1qt)" points="352.75,200.7734,457.75,200.7734,469.75,212.7734,457.75,224.7734,352.75,224.7734,340.75,212.7734,352.75,200.7734" style="stroke: #A80036; stroke-width: 1.5;"/><text fill="#000000" font-family="sans-serif" font-size="11" lengthAdjust="spacingAndGlyphs" textLength="105" x="352.75" y="216.5815">Item has bookings</text><text fill="#000000" font-family="sans-serif" font-size="11" lengthAdjust="spacingAndGlyphs" textLength="20" x="320.75" y="210.1792">yes</text><text fill="#000000" font-family="sans-serif" font-size="11" lengthAdjust="spacingAndGlyphs" textLength="14" x="469.75" y="210.1792">no</text><path d="M10,287.5938 L10,312.7266 A0,0 0 0 0 10,312.7266 L191,312.7266 A0,0 0 0 0 191,312.7266 L191,305.5938 L211,300.1602 L191,297.5938 L191,297.5938 L181,287.5938 L10,287.5938 A0,0 0 0 0 10,287.5938 " fill="#FBFB77" filter="url(#f1lcq43k1zh1qt)" style="stroke: #A80036; stroke-width: 1.0;"/><path d="M181,287.5938 L181,297.5938 L191,297.5938 L181,287.5938 " fill="#FBFB77" style="stroke: #A80036; stroke-width: 1.0;"/><text fill="#000000" font-family="sans-serif" font-size="13" lengthAdjust="spacingAndGlyphs" textLength="160" x="16" y="304.6606">Creation of a Loan object</text><rect fill="#FEFECE" filter="url(#f1lcq43k1zh1qt)" height="33.9688" rx="12.5" ry="12.5" style="stroke: #A80036; stroke-width: 1.5;" width="169" x="211" y="283.1758"/><text fill="#000000" font-family="sans-serif" font-size="12" lengthAdjust="spacingAndGlyphs" textLength="149" x="221" y="304.3145">Client can loan the item</text><polygon fill="#FEFECE" filter="url(#f1lcq43k1zh1qt)" points="205.5,234.7734,385.5,234.7734,397.5,246.7734,385.5,258.7734,205.5,258.7734,193.5,246.7734,205.5,234.7734" style="stroke: #A80036; stroke-width: 1.5;"/><text fill="#000000" font-family="sans-serif" font-size="11" lengthAdjust="spacingAndGlyphs" textLength="20" x="299.5" y="268.9839">yes</text><text fill="#000000" font-family="sans-serif" font-size="11" lengthAdjust="spacingAndGlyphs" textLength="180" x="205.5" y="250.5815">Client in first bookings' position</text><polygon fill="#FEFECE" filter="url(#f1lcq43k1zh1qt)" points="295.5,337.1445,307.5,349.1445,295.5,361.1445,283.5,349.1445,295.5,337.1445" style="stroke: #A80036; stroke-width: 1.5;"/><path d="M620.5,239.1914 L620.5,247.7578 L600.5,251.7578 L620.5,255.7578 L620.5,264.3242 A0,0 0 0 0 620.5,264.3242 L801.5,264.3242 A0,0 0 0 0 801.5,264.3242 L801.5,249.1914 L791.5,239.1914 L620.5,239.1914 A0,0 0 0 0 620.5,239.1914 " fill="#FBFB77" filter="url(#f1lcq43k1zh1qt)" style="stroke: #A80036; stroke-width: 1.0;"/><path d="M791.5,239.1914 L791.5,249.1914 L801.5,249.1914 L791.5,239.1914 " fill="#FBFB77" style="stroke: #A80036; stroke-width: 1.0;"/><text fill="#000000" font-family="sans-serif" font-size="13" lengthAdjust="spacingAndGlyphs" textLength="160" x="626.5" y="256.2583">Creation of a Loan object</text><rect fill="#FEFECE" filter="url(#f1lcq43k1zh1qt)" height="33.9688" rx="12.5" ry="12.5" style="stroke: #A80036; stroke-width: 1.5;" width="171" x="429.5" y="234.7734"/><text fill="#000000" font-family="sans-serif" font-size="12" lengthAdjust="spacingAndGlyphs" textLength="151" x="439.5" y="255.9121">Client can loan this item</text><polygon fill="#FEFECE" filter="url(#f1lcq43k1zh1qt)" points="405.25,367.1445,417.25,379.1445,405.25,391.1445,393.25,379.1445,405.25,367.1445" style="stroke: #A80036; stroke-width: 1.5;"/><polygon fill="#FEFECE" filter="url(#f1lcq43k1zh1qt)" points="366.75,152.3711,443.75,152.3711,455.75,164.3711,443.75,176.3711,366.75,176.3711,354.75,164.3711,366.75,152.3711" style="stroke: #A80036; stroke-width: 1.5;"/><text fill="#000000" font-family="sans-serif" font-size="11" lengthAdjust="spacingAndGlyphs" textLength="14" x="409.25" y="186.5815">no</text><text fill="#000000" font-family="sans-serif" font-size="11" lengthAdjust="spacingAndGlyphs" textLength="77" x="366.75" y="168.1792">Item in loan ?</text><polygon fill="#FEFECE" filter="url(#f1lcq43k1zh1qt)" points="405.25,411.1445,417.25,423.1445,405.25,435.1445,393.25,423.1445,405.25,411.1445" style="stroke: #A80036; stroke-width: 1.5;"/><polygon fill="#FEFECE" filter="url(#f1lcq43k1zh1qt)" points="360.25,103.9688,450.25,103.9688,462.25,115.9688,450.25,127.9688,360.25,127.9688,348.25,115.9688,360.25,103.9688" style="stroke: #A80036; stroke-width: 1.5;"/><text fill="#000000" font-family="sans-serif" font-size="11" lengthAdjust="spacingAndGlyphs" textLength="20" x="409.25" y="138.1792">yes</text><text fill="#000000" font-family="sans-serif" font-size="11" lengthAdjust="spacingAndGlyphs" textLength="90" x="360.25" y="119.7769">Client is eligible</text><polygon fill="#FEFECE" filter="url(#f1lcq43k1zh1qt)" points="405.25,455.1445,417.25,467.1445,405.25,479.1445,393.25,467.1445,405.25,455.1445" style="stroke: #A80036; stroke-width: 1.5;"/><ellipse cx="405.25" cy="510.1445" fill="#FFFFFF" filter="url(#f1lcq43k1zh1qt)" rx="11" ry="11" style="stroke: #000000; stroke-width: 1.0;"/><ellipse cx="405.25" cy="510.1445" fill="#000000" rx="6" ry="6" style="stroke: #7F7F7F; stroke-width: 1.0;"/><line style="stroke: #A80036; stroke-width: 1.5;" x1="405.25" x2="405.25" y1="30" y2="50"/><polygon fill="#A80036" points="401.25,40,405.25,50,409.25,40,405.25,44" style="stroke: #A80036; stroke-width: 1.0;"/><line style="stroke: #A80036; stroke-width: 1.5;" x1="295.5" x2="295.5" y1="258.7734" y2="283.1758"/><polygon fill="#A80036" points="291.5,273.1758,295.5,283.1758,299.5,273.1758,295.5,277.1758" style="stroke: #A80036; stroke-width: 1.0;"/><line style="stroke: #A80036; stroke-width: 1.5;" x1="397.5" x2="409.5" y1="246.7734" y2="246.7734"/><polygon fill="#A80036" points="405.5,290.1602,409.5,300.1602,413.5,290.1602,409.5,294.1602" style="stroke: #A80036; stroke-width: 1.5;"/><line style="stroke: #A80036; stroke-width: 1.5;" x1="409.5" x2="409.5" y1="246.7734" y2="349.1445"/><line style="stroke: #A80036; stroke-width: 1.5;" x1="409.5" x2="307.5" y1="349.1445" y2="349.1445"/><polygon fill="#A80036" points="317.5,345.1445,307.5,349.1445,317.5,353.1445,313.5,349.1445" style="stroke: #A80036; stroke-width: 1.0;"/><line style="stroke: #A80036; stroke-width: 1.5;" x1="295.5" x2="295.5" y1="317.1445" y2="337.1445"/><polygon fill="#A80036" points="291.5,327.1445,295.5,337.1445,299.5,327.1445,295.5,331.1445" style="stroke: #A80036; stroke-width: 1.0;"/><line style="stroke: #A80036; stroke-width: 1.5;" x1="340.75" x2="295.5" y1="212.7734" y2="212.7734"/><line style="stroke: #A80036; stroke-width: 1.5;" x1="295.5" x2="295.5" y1="212.7734" y2="234.7734"/><polygon fill="#A80036" points="291.5,224.7734,295.5,234.7734,299.5,224.7734,295.5,228.7734" style="stroke: #A80036; stroke-width: 1.0;"/><line style="stroke: #A80036; stroke-width: 1.5;" x1="469.75" x2="515" y1="212.7734" y2="212.7734"/><line style="stroke: #A80036; stroke-width: 1.5;" x1="515" x2="515" y1="212.7734" y2="234.7734"/><polygon fill="#A80036" points="511,224.7734,515,234.7734,519,224.7734,515,228.7734" style="stroke: #A80036; stroke-width: 1.0;"/><line style="stroke: #A80036; stroke-width: 1.5;" x1="295.5" x2="295.5" y1="361.1445" y2="379.1445"/><line style="stroke: #A80036; stroke-width: 1.5;" x1="295.5" x2="393.25" y1="379.1445" y2="379.1445"/><polygon fill="#A80036" points="383.25,375.1445,393.25,379.1445,383.25,383.1445,387.25,379.1445" style="stroke: #A80036; stroke-width: 1.0;"/><line style="stroke: #A80036; stroke-width: 1.5;" x1="515" x2="515" y1="268.7422" y2="379.1445"/><line style="stroke: #A80036; stroke-width: 1.5;" x1="515" x2="417.25" y1="379.1445" y2="379.1445"/><polygon fill="#A80036" points="427.25,375.1445,417.25,379.1445,427.25,383.1445,423.25,379.1445" style="stroke: #A80036; stroke-width: 1.0;"/><line style="stroke: #A80036; stroke-width: 1.5;" x1="405.25" x2="405.25" y1="176.3711" y2="200.7734"/><polygon fill="#A80036" points="401.25,190.7734,405.25,200.7734,409.25,190.7734,405.25,194.7734" style="stroke: #A80036; stroke-width: 1.0;"/><line style="stroke: #A80036; stroke-width: 1.5;" x1="455.75" x2="815.5" y1="164.3711" y2="164.3711"/><polygon fill="#A80036" points="811.5,288.1602,815.5,298.1602,819.5,288.1602,815.5,292.1602" style="stroke: #A80036; stroke-width: 1.5;"/><line style="stroke: #A80036; stroke-width: 1.5;" x1="815.5" x2="815.5" y1="164.3711" y2="423.1445"/><line style="stroke: #A80036; stroke-width: 1.5;" x1="815.5" x2="417.25" y1="423.1445" y2="423.1445"/><polygon fill="#A80036" points="427.25,419.1445,417.25,423.1445,427.25,427.1445,423.25,423.1445" style="stroke: #A80036; stroke-width: 1.0;"/><line style="stroke: #A80036; stroke-width: 1.5;" x1="405.25" x2="405.25" y1="391.1445" y2="411.1445"/><polygon fill="#A80036" points="401.25,401.1445,405.25,411.1445,409.25,401.1445,405.25,405.1445" style="stroke: #A80036; stroke-width: 1.0;"/><line style="stroke: #A80036; stroke-width: 1.5;" x1="405.25" x2="405.25" y1="127.9688" y2="152.3711"/><polygon fill="#A80036" points="401.25,142.3711,405.25,152.3711,409.25,142.3711,405.25,146.3711" style="stroke: #A80036; stroke-width: 1.0;"/><line style="stroke: #A80036; stroke-width: 1.5;" x1="462.25" x2="833.5" y1="115.9688" y2="115.9688"/><polygon fill="#A80036" points="829.5,288.1602,833.5,298.1602,837.5,288.1602,833.5,292.1602" style="stroke: #A80036; stroke-width: 1.5;"/><line style="stroke: #A80036; stroke-width: 1.5;" x1="833.5" x2="833.5" y1="115.9688" y2="467.1445"/><line style="stroke: #A80036; stroke-width: 1.5;" x1="833.5" x2="417.25" y1="467.1445" y2="467.1445"/><polygon fill="#A80036" points="427.25,463.1445,417.25,467.1445,427.25,471.1445,423.25,467.1445" style="stroke: #A80036; stroke-width: 1.0;"/><line style="stroke: #A80036; stroke-width: 1.5;" x1="405.25" x2="405.25" y1="435.1445" y2="455.1445"/><polygon fill="#A80036" points="401.25,445.1445,405.25,455.1445,409.25,445.1445,405.25,449.1445" style="stroke: #A80036; stroke-width: 1.0;"/><line style="stroke: #A80036; stroke-width: 1.5;" x1="405.25" x2="405.25" y1="83.9688" y2="103.9688"/><polygon fill="#A80036" points="401.25,93.9688,405.25,103.9688,409.25,93.9688,405.25,97.9688" style="stroke: #A80036; stroke-width: 1.0;"/><line style="stroke: #A80036; stroke-width: 1.5;" x1="405.25" x2="405.25" y1="479.1445" y2="499.1445"/><polygon fill="#A80036" points="401.25,489.1445,405.25,499.1445,409.25,489.1445,405.25,493.1445" style="stroke: #A80036; stroke-width: 1.0;"/><!--MD5=[68e8c9d625bd32c6a5a3530eeb6ad0d0]
@startuml
start
:Client want to borrow an item;
  if (Client is eligible) then (yes)
    if (Item in loan ?) then (no)
      if (Item has bookings) then (yes)
        if (Client in first bookings' position) then (yes)
          :Client can loan the item;
          note left: Creation of a Loan object
        endif
      else (no)
        :Client can loan this item;
        note right: Creation of a Loan object
      endif
  endif 
endif
stop
@enduml

PlantUML version 1.2019.12(Sun Nov 03 10:24:54 UTC 2019)
(GPL source distribution)
Java Runtime: OpenJDK Runtime Environment
JVM: OpenJDK 64-Bit Server VM
Java Version: 1.8.0_232-heroku-b09
Operating System: Linux
Default Encoding: UTF-8
Language: en
Country: US
--></g></svg>