<svg width="255" height="196" viewBox="0 0 255 196" fill="none" xmlns="http://www.w3.org/2000/svg">
<rect width="255" height="196" fill="white"/>
<path d="M78.016 102.636V111H76.924V102.636H78.016ZM83.0811 104.304C83.8811 104.304 84.5291 104.548 85.0251 105.036C85.5211 105.516 85.7691 106.212 85.7691 107.124V111H84.6891V107.28C84.6891 106.624 84.5251 106.124 84.1971 105.78C83.8691 105.428 83.4211 105.252 82.8531 105.252C82.2771 105.252 81.8171 105.432 81.4731 105.792C81.1371 106.152 80.9691 106.676 80.9691 107.364V111H79.8771V104.424H80.9691V105.36C81.1851 105.024 81.4771 104.764 81.8451 104.58C82.2211 104.396 82.6331 104.304 83.0811 104.304ZM90.0009 109.992L92.0409 104.424H93.2049L90.6249 111H89.3529L86.7729 104.424H87.9489L90.0009 109.992ZM93.8715 107.688C93.8715 107.016 94.0075 106.428 94.2795 105.924C94.5515 105.412 94.9235 105.016 95.3955 104.736C95.8755 104.456 96.4075 104.316 96.9915 104.316C97.5675 104.316 98.0675 104.44 98.4915 104.688C98.9155 104.936 99.2315 105.248 99.4395 105.624V104.424H100.543V111H99.4395V109.776C99.2235 110.16 98.8995 110.48 98.4675 110.736C98.0435 110.984 97.5475 111.108 96.9795 111.108C96.3955 111.108 95.8675 110.964 95.3955 110.676C94.9235 110.388 94.5515 109.984 94.2795 109.464C94.0075 108.944 93.8715 108.352 93.8715 107.688ZM99.4395 107.7C99.4395 107.204 99.3395 106.772 99.1395 106.404C98.9395 106.036 98.6675 105.756 98.3235 105.564C97.9875 105.364 97.6155 105.264 97.2075 105.264C96.7995 105.264 96.4275 105.36 96.0915 105.552C95.7555 105.744 95.4875 106.024 95.2875 106.392C95.0875 106.76 94.9875 107.192 94.9875 107.688C94.9875 108.192 95.0875 108.632 95.2875 109.008C95.4875 109.376 95.7555 109.66 96.0915 109.86C96.4275 110.052 96.7995 110.148 97.2075 110.148C97.6155 110.148 97.9875 110.052 98.3235 109.86C98.6675 109.66 98.9395 109.376 99.1395 109.008C99.3395 108.632 99.4395 108.196 99.4395 107.7ZM103.481 102.12V111H102.389V102.12H103.481ZM105.906 103.356C105.698 103.356 105.522 103.284 105.378 103.14C105.234 102.996 105.162 102.82 105.162 102.612C105.162 102.404 105.234 102.228 105.378 102.084C105.522 101.94 105.698 101.868 105.906 101.868C106.106 101.868 106.274 101.94 106.41 102.084C106.554 102.228 106.626 102.404 106.626 102.612C106.626 102.82 106.554 102.996 106.41 103.14C106.274 103.284 106.106 103.356 105.906 103.356ZM106.434 104.424V111H105.342V104.424H106.434ZM107.887 107.688C107.887 107.016 108.023 106.428 108.295 105.924C108.567 105.412 108.939 105.016 109.411 104.736C109.891 104.456 110.427 104.316 111.019 104.316C111.531 104.316 112.007 104.436 112.447 104.676C112.887 104.908 113.223 105.216 113.455 105.6V102.12H114.559V111H113.455V109.764C113.239 110.156 112.919 110.48 112.495 110.736C112.071 110.984 111.575 111.108 111.007 111.108C110.423 111.108 109.891 110.964 109.411 110.676C108.939 110.388 108.567 109.984 108.295 109.464C108.023 108.944 107.887 108.352 107.887 107.688ZM113.455 107.7C113.455 107.204 113.355 106.772 113.155 106.404C112.955 106.036 112.683 105.756 112.339 105.564C112.003 105.364 111.631 105.264 111.223 105.264C110.815 105.264 110.443 105.36 110.107 105.552C109.771 105.744 109.503 106.024 109.303 106.392C109.103 106.76 109.003 107.192 109.003 107.688C109.003 108.192 109.103 108.632 109.303 109.008C109.503 109.376 109.771 109.66 110.107 109.86C110.443 110.052 110.815 110.148 111.223 110.148C111.631 110.148 112.003 110.052 112.339 109.86C112.683 109.66 112.955 109.376 113.155 109.008C113.355 108.632 113.455 108.196 113.455 107.7ZM119.196 107.7C119.196 107.02 119.332 106.428 119.604 105.924C119.876 105.412 120.252 105.016 120.732 104.736C121.22 104.456 121.776 104.316 122.4 104.316C123.208 104.316 123.872 104.512 124.392 104.904C124.92 105.296 125.268 105.84 125.436 106.536H124.26C124.148 106.136 123.928 105.82 123.6 105.588C123.28 105.356 122.88 105.24 122.4 105.24C121.776 105.24 121.272 105.456 120.888 105.888C120.504 106.312 120.312 106.916 120.312 107.7C120.312 108.492 120.504 109.104 120.888 109.536C121.272 109.968 121.776 110.184 122.4 110.184C122.88 110.184 123.28 110.072 123.6 109.848C123.92 109.624 124.14 109.304 124.26 108.888H125.436C125.26 109.56 124.908 110.1 124.38 110.508C123.852 110.908 123.192 111.108 122.4 111.108C121.776 111.108 121.22 110.968 120.732 110.688C120.252 110.408 119.876 110.012 119.604 109.5C119.332 108.988 119.196 108.388 119.196 107.7ZM127.985 102.12V111H126.893V102.12H127.985ZM130.41 103.356C130.202 103.356 130.026 103.284 129.882 103.14C129.738 102.996 129.666 102.82 129.666 102.612C129.666 102.404 129.738 102.228 129.882 102.084C130.026 101.94 130.202 101.868 130.41 101.868C130.61 101.868 130.778 101.94 130.914 102.084C131.058 102.228 131.13 102.404 131.13 102.612C131.13 102.82 131.058 102.996 130.914 103.14C130.778 103.284 130.61 103.356 130.41 103.356ZM130.938 104.424V111H129.846V104.424H130.938ZM138.799 107.46C138.799 107.668 138.787 107.888 138.763 108.12H133.507C133.547 108.768 133.767 109.276 134.167 109.644C134.575 110.004 135.067 110.184 135.643 110.184C136.115 110.184 136.507 110.076 136.819 109.86C137.139 109.636 137.363 109.34 137.491 108.972H138.667C138.491 109.604 138.139 110.12 137.611 110.52C137.083 110.912 136.427 111.108 135.643 111.108C135.019 111.108 134.459 110.968 133.963 110.688C133.475 110.408 133.091 110.012 132.811 109.5C132.531 108.98 132.391 108.38 132.391 107.7C132.391 107.02 132.527 106.424 132.799 105.912C133.071 105.4 133.451 105.008 133.939 104.736C134.435 104.456 135.003 104.316 135.643 104.316C136.267 104.316 136.819 104.452 137.299 104.724C137.779 104.996 138.147 105.372 138.403 105.852C138.667 106.324 138.799 106.86 138.799 107.46ZM137.671 107.232C137.671 106.816 137.579 106.46 137.395 106.164C137.211 105.86 136.959 105.632 136.639 105.48C136.327 105.32 135.979 105.24 135.595 105.24C135.043 105.24 134.571 105.416 134.179 105.768C133.795 106.12 133.575 106.608 133.519 107.232H137.671ZM143.444 104.304C144.244 104.304 144.892 104.548 145.388 105.036C145.884 105.516 146.132 106.212 146.132 107.124V111H145.052V107.28C145.052 106.624 144.888 106.124 144.56 105.78C144.232 105.428 143.784 105.252 143.216 105.252C142.64 105.252 142.18 105.432 141.836 105.792C141.5 106.152 141.332 106.676 141.332 107.364V111H140.24V104.424H141.332V105.36C141.548 105.024 141.84 104.764 142.208 104.58C142.584 104.396 142.996 104.304 143.444 104.304ZM149.248 105.324V109.2C149.248 109.52 149.316 109.748 149.452 109.884C149.588 110.012 149.824 110.076 150.16 110.076H150.964V111H149.98C149.372 111 148.916 110.86 148.612 110.58C148.308 110.3 148.156 109.84 148.156 109.2V105.324H147.304V104.424H148.156V102.768H149.248V104.424H150.964V105.324H149.248ZM156.579 102.636V111H155.487V102.636H156.579ZM161.044 102.636C161.956 102.636 162.744 102.808 163.408 103.152C164.08 103.488 164.592 103.972 164.944 104.604C165.304 105.236 165.484 105.98 165.484 106.836C165.484 107.692 165.304 108.436 164.944 109.068C164.592 109.692 164.08 110.172 163.408 110.508C162.744 110.836 161.956 111 161.044 111H158.44V102.636H161.044ZM161.044 110.1C162.124 110.1 162.948 109.816 163.516 109.248C164.084 108.672 164.368 107.868 164.368 106.836C164.368 105.796 164.08 104.984 163.504 104.4C162.936 103.816 162.116 103.524 161.044 103.524H159.532V110.1H161.044Z" fill="#FC5266"/>
<path d="M35.9375 150H35.1185L31.8245 145.005V150H31.0055V143.718H31.8245L35.1185 148.704V143.718H35.9375V150ZM39.4846 150.081C39.0226 150.081 38.6026 149.976 38.2246 149.766C37.8526 149.556 37.5586 149.259 37.3426 148.875C37.1326 148.485 37.0276 148.035 37.0276 147.525C37.0276 147.021 37.1356 146.577 37.3516 146.193C37.5736 145.803 37.8736 145.506 38.2516 145.302C38.6296 145.092 39.0526 144.987 39.5206 144.987C39.9886 144.987 40.4116 145.092 40.7896 145.302C41.1676 145.506 41.4646 145.8 41.6806 146.184C41.9026 146.568 42.0136 147.015 42.0136 147.525C42.0136 148.035 41.8996 148.485 41.6716 148.875C41.4496 149.259 41.1466 149.556 40.7626 149.766C40.3786 149.976 39.9526 150.081 39.4846 150.081ZM39.4846 149.361C39.7786 149.361 40.0546 149.292 40.3126 149.154C40.5706 149.016 40.7776 148.809 40.9336 148.533C41.0956 148.257 41.1766 147.921 41.1766 147.525C41.1766 147.129 41.0986 146.793 40.9426 146.517C40.7866 146.241 40.5826 146.037 40.3306 145.905C40.0786 145.767 39.8056 145.698 39.5116 145.698C39.2116 145.698 38.9356 145.767 38.6836 145.905C38.4376 146.037 38.2396 146.241 38.0896 146.517C37.9396 146.793 37.8646 147.129 37.8646 147.525C37.8646 147.927 37.9366 148.266 38.0806 148.542C38.2306 148.818 38.4286 149.025 38.6746 149.163C38.9206 149.295 39.1906 149.361 39.4846 149.361ZM45.1839 147.525C45.1839 147.015 45.2859 146.571 45.4899 146.193C45.6939 145.809 45.9759 145.512 46.3359 145.302C46.7019 145.092 47.1189 144.987 47.5869 144.987C48.1929 144.987 48.6909 145.134 49.0809 145.428C49.4769 145.722 49.7379 146.13 49.8639 146.652H48.9819C48.8979 146.352 48.7329 146.115 48.4869 145.941C48.2469 145.767 47.9469 145.68 47.5869 145.68C47.1189 145.68 46.7409 145.842 46.4529 146.166C46.1649 146.484 46.0209 146.937 46.0209 147.525C46.0209 148.119 46.1649 148.578 46.4529 148.902C46.7409 149.226 47.1189 149.388 47.5869 149.388C47.9469 149.388 48.2469 149.304 48.4869 149.136C48.7269 148.968 48.8919 148.728 48.9819 148.416H49.8639C49.7319 148.92 49.4679 149.325 49.0719 149.631C48.6759 149.931 48.1809 150.081 47.5869 150.081C47.1189 150.081 46.7019 149.976 46.3359 149.766C45.9759 149.556 45.6939 149.259 45.4899 148.875C45.2859 148.491 45.1839 148.041 45.1839 147.525ZM51.7757 143.34V150H50.9567V143.34H51.7757ZM53.5945 144.267C53.4385 144.267 53.3065 144.213 53.1985 144.105C53.0905 143.997 53.0365 143.865 53.0365 143.709C53.0365 143.553 53.0905 143.421 53.1985 143.313C53.3065 143.205 53.4385 143.151 53.5945 143.151C53.7445 143.151 53.8705 143.205 53.9725 143.313C54.0805 143.421 54.1345 143.553 54.1345 143.709C54.1345 143.865 54.0805 143.997 53.9725 144.105C53.8705 144.213 53.7445 144.267 53.5945 144.267ZM53.9905 145.068V150H53.1715V145.068H53.9905ZM59.8864 147.345C59.8864 147.501 59.8774 147.666 59.8594 147.84H55.9174C55.9474 148.326 56.1124 148.707 56.4124 148.983C56.7184 149.253 57.0874 149.388 57.5194 149.388C57.8734 149.388 58.1674 149.307 58.4014 149.145C58.6414 148.977 58.8094 148.755 58.9054 148.479H59.7874C59.6554 148.953 59.3914 149.34 58.9954 149.64C58.5994 149.934 58.1074 150.081 57.5194 150.081C57.0514 150.081 56.6314 149.976 56.2594 149.766C55.8934 149.556 55.6054 149.259 55.3954 148.875C55.1854 148.485 55.0804 148.035 55.0804 147.525C55.0804 147.015 55.1824 146.568 55.3864 146.184C55.5904 145.8 55.8754 145.506 56.2414 145.302C56.6134 145.092 57.0394 144.987 57.5194 144.987C57.9874 144.987 58.4014 145.089 58.7614 145.293C59.1214 145.497 59.3974 145.779 59.5894 146.139C59.7874 146.493 59.8864 146.895 59.8864 147.345ZM59.0404 147.174C59.0404 146.862 58.9714 146.595 58.8334 146.373C58.6954 146.145 58.5064 145.974 58.2664 145.86C58.0324 145.74 57.7714 145.68 57.4834 145.68C57.0694 145.68 56.7154 145.812 56.4214 146.076C56.1334 146.34 55.9684 146.706 55.9264 147.174H59.0404ZM63.3704 144.978C63.9704 144.978 64.4564 145.161 64.8284 145.527C65.2004 145.887 65.3864 146.409 65.3864 147.093V150H64.5764V147.21C64.5764 146.718 64.4534 146.343 64.2074 146.085C63.9614 145.821 63.6254 145.689 63.1994 145.689C62.7674 145.689 62.4224 145.824 62.1644 146.094C61.9124 146.364 61.7864 146.757 61.7864 147.273V150H60.9674V145.068H61.7864V145.77C61.9484 145.518 62.1674 145.323 62.4434 145.185C62.7254 145.047 63.0344 144.978 63.3704 144.978ZM67.7233 145.743V148.65C67.7233 148.89 67.7743 149.061 67.8763 149.163C67.9783 149.259 68.1553 149.307 68.4072 149.307H69.0103V150H68.2723C67.8163 150 67.4743 149.895 67.2463 149.685C67.0183 149.475 66.9043 149.13 66.9043 148.65V145.743H66.2653V145.068H66.9043V143.826H67.7233V145.068H69.0103V145.743H67.7233ZM78.972 145.068L77.433 150H76.587L75.399 146.085L74.211 150H73.365L71.817 145.068H72.654L73.788 149.208L75.012 145.068H75.849L77.046 149.217L78.162 145.068H78.972ZM80.2078 144.267C80.0518 144.267 79.9198 144.213 79.8118 144.105C79.7038 143.997 79.6498 143.865 79.6498 143.709C79.6498 143.553 79.7038 143.421 79.8118 143.313C79.9198 143.205 80.0518 143.151 80.2078 143.151C80.3578 143.151 80.4838 143.205 80.5858 143.313C80.6938 143.421 80.7478 143.553 80.7478 143.709C80.7478 143.865 80.6938 143.997 80.5858 144.105C80.4838 144.213 80.3578 144.267 80.2078 144.267ZM80.6038 145.068V150H79.7848V145.068H80.6038ZM82.9986 145.743V148.65C82.9986 148.89 83.0496 149.061 83.1516 149.163C83.2536 149.259 83.4306 149.307 83.6826 149.307H84.2856V150H83.5476C83.0916 150 82.7496 149.895 82.5216 149.685C82.2936 149.475 82.1796 149.13 82.1796 148.65V145.743H81.5406V145.068H82.1796V143.826H82.9986V145.068H84.2856V145.743H82.9986ZM87.726 144.978C88.098 144.978 88.434 145.059 88.734 145.221C89.034 145.377 89.268 145.614 89.436 145.932C89.61 146.25 89.697 146.637 89.697 147.093V150H88.887V147.21C88.887 146.718 88.764 146.343 88.518 146.085C88.272 145.821 87.936 145.689 87.51 145.689C87.078 145.689 86.733 145.824 86.475 146.094C86.223 146.364 86.097 146.757 86.097 147.273V150H85.278V143.34H86.097V145.77C86.259 145.518 86.481 145.323 86.763 145.185C87.051 145.047 87.372 144.978 87.726 144.978ZM94.4332 145.743V148.65C94.4332 148.89 94.4842 149.061 94.5862 149.163C94.6882 149.259 94.8652 149.307 95.1172 149.307H95.7202V150H94.9822C94.5262 150 94.1842 149.895 93.9562 149.685C93.7282 149.475 93.6142 149.13 93.6142 148.65V145.743H92.9752V145.068H93.6142V143.826H94.4332V145.068H95.7202V145.743H94.4332ZM99.1605 144.978C99.5325 144.978 99.8685 145.059 100.169 145.221C100.469 145.377 100.703 145.614 100.871 145.932C101.045 146.25 101.132 146.637 101.132 147.093V150H100.322V147.21C100.322 146.718 100.199 146.343 99.9525 146.085C99.7065 145.821 99.3705 145.689 98.9445 145.689C98.5125 145.689 98.1675 145.824 97.9095 146.094C97.6575 146.364 97.5315 146.757 97.5315 147.273V150H96.7125V143.34H97.5315V145.77C97.6935 145.518 97.9155 145.323 98.1975 145.185C98.4855 145.047 98.8065 144.978 99.1605 144.978ZM106.969 147.345C106.969 147.501 106.96 147.666 106.942 147.84H103C103.03 148.326 103.195 148.707 103.495 148.983C103.801 149.253 104.17 149.388 104.602 149.388C104.956 149.388 105.25 149.307 105.484 149.145C105.724 148.977 105.892 148.755 105.988 148.479H106.87C106.738 148.953 106.474 149.34 106.078 149.64C105.682 149.934 105.19 150.081 104.602 150.081C104.134 150.081 103.714 149.976 103.342 149.766C102.976 149.556 102.688 149.259 102.478 148.875C102.268 148.485 102.163 148.035 102.163 147.525C102.163 147.015 102.265 146.568 102.469 146.184C102.673 145.8 102.958 145.506 103.324 145.302C103.696 145.092 104.122 144.987 104.602 144.987C105.07 144.987 105.484 145.089 105.844 145.293C106.204 145.497 106.48 145.779 106.672 146.139C106.87 146.493 106.969 146.895 106.969 147.345ZM106.123 147.174C106.123 146.862 106.054 146.595 105.916 146.373C105.778 146.145 105.589 145.974 105.349 145.86C105.115 145.74 104.854 145.68 104.566 145.68C104.152 145.68 103.798 145.812 103.504 146.076C103.216 146.34 103.051 146.706 103.009 147.174H106.123ZM111.269 143.727V150H110.45V143.727H111.269ZM114.618 143.727C115.302 143.727 115.893 143.856 116.391 144.114C116.895 144.366 117.279 144.729 117.543 145.203C117.813 145.677 117.948 146.235 117.948 146.877C117.948 147.519 117.813 148.077 117.543 148.551C117.279 149.019 116.895 149.379 116.391 149.631C115.893 149.877 115.302 150 114.618 150H112.665V143.727H114.618ZM114.618 149.325C115.428 149.325 116.046 149.112 116.472 148.686C116.898 148.254 117.111 147.651 117.111 146.877C117.111 146.097 116.895 145.488 116.463 145.05C116.037 144.612 115.422 144.393 114.618 144.393H113.484V149.325H114.618ZM125.675 145.068L122.705 152.322H121.859L122.831 149.946L120.842 145.068H121.751L123.299 149.064L124.829 145.068H125.675ZM128.65 150.081C128.188 150.081 127.768 149.976 127.39 149.766C127.018 149.556 126.724 149.259 126.508 148.875C126.298 148.485 126.193 148.035 126.193 147.525C126.193 147.021 126.301 146.577 126.517 146.193C126.739 145.803 127.039 145.506 127.417 145.302C127.795 145.092 128.218 144.987 128.686 144.987C129.154 144.987 129.577 145.092 129.955 145.302C130.333 145.506 130.63 145.8 130.846 146.184C131.068 146.568 131.179 147.015 131.179 147.525C131.179 148.035 131.065 148.485 130.837 148.875C130.615 149.259 130.312 149.556 129.928 149.766C129.544 149.976 129.118 150.081 128.65 150.081ZM128.65 149.361C128.944 149.361 129.22 149.292 129.478 149.154C129.736 149.016 129.943 148.809 130.099 148.533C130.261 148.257 130.342 147.921 130.342 147.525C130.342 147.129 130.264 146.793 130.108 146.517C129.952 146.241 129.748 146.037 129.496 145.905C129.244 145.767 128.971 145.698 128.677 145.698C128.377 145.698 128.101 145.767 127.849 145.905C127.603 146.037 127.405 146.241 127.255 146.517C127.105 146.793 127.03 147.129 127.03 147.525C127.03 147.927 127.102 148.266 127.246 148.542C127.396 148.818 127.594 149.025 127.84 149.163C128.086 149.295 128.356 149.361 128.65 149.361ZM136.63 145.068V150H135.811V149.271C135.655 149.523 135.436 149.721 135.154 149.865C134.878 150.003 134.572 150.072 134.236 150.072C133.852 150.072 133.507 149.994 133.201 149.838C132.895 149.676 132.652 149.436 132.472 149.118C132.298 148.8 132.211 148.413 132.211 147.957V145.068H133.021V147.849C133.021 148.335 133.144 148.71 133.39 148.974C133.636 149.232 133.972 149.361 134.398 149.361C134.836 149.361 135.181 149.226 135.433 148.956C135.685 148.686 135.811 148.293 135.811 147.777V145.068H136.63ZM141.231 145.977C141.393 145.695 141.633 145.461 141.951 145.275C142.275 145.083 142.65 144.987 143.076 144.987C143.514 144.987 143.91 145.092 144.264 145.302C144.624 145.512 144.906 145.809 145.11 146.193C145.314 146.571 145.416 147.012 145.416 147.516C145.416 148.014 145.314 148.458 145.11 148.848C144.906 149.238 144.624 149.541 144.264 149.757C143.91 149.973 143.514 150.081 143.076 150.081C142.656 150.081 142.284 149.988 141.96 149.802C141.642 149.61 141.399 149.373 141.231 149.091V152.34H140.412V145.068H141.231V145.977ZM144.579 147.516C144.579 147.144 144.504 146.82 144.354 146.544C144.204 146.268 144 146.058 143.742 145.914C143.49 145.77 143.211 145.698 142.905 145.698C142.605 145.698 142.326 145.773 142.068 145.923C141.816 146.067 141.612 146.28 141.456 146.562C141.306 146.838 141.231 147.159 141.231 147.525C141.231 147.897 141.306 148.224 141.456 148.506C141.612 148.782 141.816 148.995 142.068 149.145C142.326 149.289 142.605 149.361 142.905 149.361C143.211 149.361 143.49 149.289 143.742 149.145C144 148.995 144.204 148.782 144.354 148.506C144.504 148.224 144.579 147.894 144.579 147.516ZM147.313 145.869C147.457 145.587 147.661 145.368 147.925 145.212C148.195 145.056 148.522 144.978 148.906 144.978V145.824H148.69C147.772 145.824 147.313 146.322 147.313 147.318V150H146.494V145.068H147.313V145.869ZM152.002 150.081C151.54 150.081 151.12 149.976 150.742 149.766C150.37 149.556 150.076 149.259 149.86 148.875C149.65 148.485 149.545 148.035 149.545 147.525C149.545 147.021 149.653 146.577 149.869 146.193C150.091 145.803 150.391 145.506 150.769 145.302C151.147 145.092 151.57 144.987 152.038 144.987C152.506 144.987 152.929 145.092 153.307 145.302C153.685 145.506 153.982 145.8 154.198 146.184C154.42 146.568 154.531 147.015 154.531 147.525C154.531 148.035 154.417 148.485 154.189 148.875C153.967 149.259 153.664 149.556 153.28 149.766C152.896 149.976 152.47 150.081 152.002 150.081ZM152.002 149.361C152.296 149.361 152.572 149.292 152.83 149.154C153.088 149.016 153.295 148.809 153.451 148.533C153.613 148.257 153.694 147.921 153.694 147.525C153.694 147.129 153.616 146.793 153.46 146.517C153.304 146.241 153.1 146.037 152.848 145.905C152.596 145.767 152.323 145.698 152.029 145.698C151.729 145.698 151.453 145.767 151.201 145.905C150.955 146.037 150.757 146.241 150.607 146.517C150.457 146.793 150.382 147.129 150.382 147.525C150.382 147.927 150.454 148.266 150.598 148.542C150.748 148.818 150.946 149.025 151.192 149.163C151.438 149.295 151.708 149.361 152.002 149.361ZM157.444 149.244L158.974 145.068H159.847L157.912 150H156.958L155.023 145.068H155.905L157.444 149.244ZM161.076 144.267C160.92 144.267 160.788 144.213 160.68 144.105C160.572 143.997 160.518 143.865 160.518 143.709C160.518 143.553 160.572 143.421 160.68 143.313C160.788 143.205 160.92 143.151 161.076 143.151C161.226 143.151 161.352 143.205 161.454 143.313C161.562 143.421 161.616 143.553 161.616 143.709C161.616 143.865 161.562 143.997 161.454 144.105C161.352 144.213 161.226 144.267 161.076 144.267ZM161.472 145.068V150H160.653V145.068H161.472ZM162.562 147.516C162.562 147.012 162.664 146.571 162.868 146.193C163.072 145.809 163.351 145.512 163.705 145.302C164.065 145.092 164.467 144.987 164.911 144.987C165.295 144.987 165.652 145.077 165.982 145.257C166.312 145.431 166.564 145.662 166.738 145.95V143.34H167.566V150H166.738V149.073C166.576 149.367 166.336 149.61 166.018 149.802C165.7 149.988 165.328 150.081 164.902 150.081C164.464 150.081 164.065 149.973 163.705 149.757C163.351 149.541 163.072 149.238 162.868 148.848C162.664 148.458 162.562 148.014 162.562 147.516ZM166.738 147.525C166.738 147.153 166.663 146.829 166.513 146.553C166.363 146.277 166.159 146.067 165.901 145.923C165.649 145.773 165.37 145.698 165.064 145.698C164.758 145.698 164.479 145.77 164.227 145.914C163.975 146.058 163.774 146.268 163.624 146.544C163.474 146.82 163.399 147.144 163.399 147.516C163.399 147.894 163.474 148.224 163.624 148.506C163.774 148.782 163.975 148.995 164.227 149.145C164.479 149.289 164.758 149.361 165.064 149.361C165.37 149.361 165.649 149.289 165.901 149.145C166.159 148.995 166.363 148.782 166.513 148.506C166.663 148.224 166.738 147.897 166.738 147.525ZM173.45 147.345C173.45 147.501 173.441 147.666 173.423 147.84H169.481C169.511 148.326 169.676 148.707 169.976 148.983C170.282 149.253 170.651 149.388 171.083 149.388C171.437 149.388 171.731 149.307 171.965 149.145C172.205 148.977 172.373 148.755 172.469 148.479H173.351C173.219 148.953 172.955 149.34 172.559 149.64C172.163 149.934 171.671 150.081 171.083 150.081C170.615 150.081 170.195 149.976 169.823 149.766C169.457 149.556 169.169 149.259 168.959 148.875C168.749 148.485 168.644 148.035 168.644 147.525C168.644 147.015 168.746 146.568 168.95 146.184C169.154 145.8 169.439 145.506 169.805 145.302C170.177 145.092 170.603 144.987 171.083 144.987C171.551 144.987 171.965 145.089 172.325 145.293C172.685 145.497 172.961 145.779 173.153 146.139C173.351 146.493 173.45 146.895 173.45 147.345ZM172.604 147.174C172.604 146.862 172.535 146.595 172.397 146.373C172.259 146.145 172.07 145.974 171.83 145.86C171.596 145.74 171.335 145.68 171.047 145.68C170.633 145.68 170.279 145.812 169.985 146.076C169.697 146.34 169.532 146.706 169.49 147.174H172.604ZM174.225 147.516C174.225 147.012 174.327 146.571 174.531 146.193C174.735 145.809 175.014 145.512 175.368 145.302C175.728 145.092 176.13 144.987 176.574 144.987C176.958 144.987 177.315 145.077 177.645 145.257C177.975 145.431 178.227 145.662 178.401 145.95V143.34H179.229V150H178.401V149.073C178.239 149.367 177.999 149.61 177.681 149.802C177.363 149.988 176.991 150.081 176.565 150.081C176.127 150.081 175.728 149.973 175.368 149.757C175.014 149.541 174.735 149.238 174.531 148.848C174.327 148.458 174.225 148.014 174.225 147.516ZM178.401 147.525C178.401 147.153 178.326 146.829 178.176 146.553C178.026 146.277 177.822 146.067 177.564 145.923C177.312 145.773 177.033 145.698 176.727 145.698C176.421 145.698 176.142 145.77 175.89 145.914C175.638 146.058 175.437 146.268 175.287 146.544C175.137 146.82 175.062 147.144 175.062 147.516C175.062 147.894 175.137 148.224 175.287 148.506C175.437 148.782 175.638 148.995 175.89 149.145C176.142 149.289 176.421 149.361 176.727 149.361C177.033 149.361 177.312 149.289 177.564 149.145C177.822 148.995 178.026 148.782 178.176 148.506C178.326 148.224 178.401 147.897 178.401 147.525ZM182.706 147.525C182.706 147.015 182.808 146.571 183.012 146.193C183.216 145.809 183.498 145.512 183.858 145.302C184.224 145.092 184.641 144.987 185.109 144.987C185.715 144.987 186.213 145.134 186.603 145.428C186.999 145.722 187.26 146.13 187.386 146.652H186.504C186.42 146.352 186.255 146.115 186.009 145.941C185.769 145.767 185.469 145.68 185.109 145.68C184.641 145.68 184.263 145.842 183.975 146.166C183.687 146.484 183.543 146.937 183.543 147.525C183.543 148.119 183.687 148.578 183.975 148.902C184.263 149.226 184.641 149.388 185.109 149.388C185.469 149.388 185.769 149.304 186.009 149.136C186.249 148.968 186.414 148.728 186.504 148.416H187.386C187.254 148.92 186.99 149.325 186.594 149.631C186.198 149.931 185.703 150.081 185.109 150.081C184.641 150.081 184.224 149.976 183.858 149.766C183.498 149.556 183.216 149.259 183.012 148.875C182.808 148.491 182.706 148.041 182.706 147.525ZM188.173 147.516C188.173 147.012 188.275 146.571 188.479 146.193C188.683 145.809 188.962 145.512 189.316 145.302C189.676 145.092 190.075 144.987 190.513 144.987C190.945 144.987 191.32 145.08 191.638 145.266C191.956 145.452 192.193 145.686 192.349 145.968V145.068H193.177V150H192.349V149.082C192.187 149.37 191.944 149.61 191.62 149.802C191.302 149.988 190.93 150.081 190.504 150.081C190.066 150.081 189.67 149.973 189.316 149.757C188.962 149.541 188.683 149.238 188.479 148.848C188.275 148.458 188.173 148.014 188.173 147.516ZM192.349 147.525C192.349 147.153 192.274 146.829 192.124 146.553C191.974 146.277 191.77 146.067 191.512 145.923C191.26 145.773 190.981 145.698 190.675 145.698C190.369 145.698 190.09 145.77 189.838 145.914C189.586 146.058 189.385 146.268 189.235 146.544C189.085 146.82 189.01 147.144 189.01 147.516C189.01 147.894 189.085 148.224 189.235 148.506C189.385 148.782 189.586 148.995 189.838 149.145C190.09 149.289 190.369 149.361 190.675 149.361C190.981 149.361 191.26 149.289 191.512 149.145C191.77 148.995 191.974 148.782 192.124 148.506C192.274 148.224 192.349 147.897 192.349 147.525ZM196.964 144.978C197.564 144.978 198.05 145.161 198.422 145.527C198.794 145.887 198.98 146.409 198.98 147.093V150H198.17V147.21C198.17 146.718 198.047 146.343 197.801 146.085C197.555 145.821 197.219 145.689 196.793 145.689C196.361 145.689 196.016 145.824 195.758 146.094C195.506 146.364 195.38 146.757 195.38 147.273V150H194.561V145.068H195.38V145.77C195.542 145.518 195.761 145.323 196.037 145.185C196.319 145.047 196.628 144.978 196.964 144.978ZM203.536 145.986C203.704 145.692 203.95 145.452 204.274 145.266C204.598 145.08 204.967 144.987 205.381 144.987C205.825 144.987 206.224 145.092 206.578 145.302C206.932 145.512 207.211 145.809 207.415 146.193C207.619 146.571 207.721 147.012 207.721 147.516C207.721 148.014 207.619 148.458 207.415 148.848C207.211 149.238 206.929 149.541 206.569 149.757C206.215 149.973 205.819 150.081 205.381 150.081C204.955 150.081 204.58 149.988 204.256 149.802C203.938 149.616 203.698 149.379 203.536 149.091V150H202.717V143.34H203.536V145.986ZM206.884 147.516C206.884 147.144 206.809 146.82 206.659 146.544C206.509 146.268 206.305 146.058 206.047 145.914C205.795 145.77 205.516 145.698 205.21 145.698C204.91 145.698 204.631 145.773 204.373 145.923C204.121 146.067 203.917 146.28 203.761 146.562C203.611 146.838 203.536 147.159 203.536 147.525C203.536 147.897 203.611 148.224 203.761 148.506C203.917 148.782 204.121 148.995 204.373 149.145C204.631 149.289 204.91 149.361 205.21 149.361C205.516 149.361 205.795 149.289 206.047 149.145C206.305 148.995 206.509 148.782 206.659 148.506C206.809 148.224 206.884 147.894 206.884 147.516ZM213.299 147.345C213.299 147.501 213.29 147.666 213.272 147.84H209.33C209.36 148.326 209.525 148.707 209.825 148.983C210.131 149.253 210.5 149.388 210.932 149.388C211.286 149.388 211.58 149.307 211.814 149.145C212.054 148.977 212.222 148.755 212.318 148.479H213.2C213.068 148.953 212.804 149.34 212.408 149.64C212.012 149.934 211.52 150.081 210.932 150.081C210.464 150.081 210.044 149.976 209.672 149.766C209.306 149.556 209.018 149.259 208.808 148.875C208.598 148.485 208.493 148.035 208.493 147.525C208.493 147.015 208.595 146.568 208.799 146.184C209.003 145.8 209.288 145.506 209.654 145.302C210.026 145.092 210.452 144.987 210.932 144.987C211.4 144.987 211.814 145.089 212.174 145.293C212.534 145.497 212.81 145.779 213.002 146.139C213.2 146.493 213.299 146.895 213.299 147.345ZM212.453 147.174C212.453 146.862 212.384 146.595 212.246 146.373C212.108 146.145 211.919 145.974 211.679 145.86C211.445 145.74 211.184 145.68 210.896 145.68C210.482 145.68 210.128 145.812 209.834 146.076C209.546 146.34 209.381 146.706 209.339 147.174H212.453ZM72.4051 159.743H71.3701V164H70.5511V159.743H69.9121V159.068H70.5511V158.717C70.5511 158.165 70.6921 157.763 70.9741 157.511C71.2621 157.253 71.7211 157.124 72.3511 157.124V157.808C71.9911 157.808 71.7361 157.88 71.5861 158.024C71.4421 158.162 71.3701 158.393 71.3701 158.717V159.068H72.4051V159.743ZM75.511 164.081C75.049 164.081 74.629 163.976 74.251 163.766C73.879 163.556 73.585 163.259 73.369 162.875C73.159 162.485 73.054 162.035 73.054 161.525C73.054 161.021 73.162 160.577 73.378 160.193C73.6 159.803 73.9 159.506 74.278 159.302C74.656 159.092 75.079 158.987 75.547 158.987C76.015 158.987 76.438 159.092 76.816 159.302C77.194 159.506 77.491 159.8 77.707 160.184C77.929 160.568 78.04 161.015 78.04 161.525C78.04 162.035 77.926 162.485 77.698 162.875C77.476 163.259 77.173 163.556 76.789 163.766C76.405 163.976 75.979 164.081 75.511 164.081ZM75.511 163.361C75.805 163.361 76.081 163.292 76.339 163.154C76.597 163.016 76.804 162.809 76.96 162.533C77.122 162.257 77.203 161.921 77.203 161.525C77.203 161.129 77.125 160.793 76.969 160.517C76.813 160.241 76.609 160.037 76.357 159.905C76.105 159.767 75.832 159.698 75.538 159.698C75.238 159.698 74.962 159.767 74.71 159.905C74.464 160.037 74.266 160.241 74.116 160.517C73.966 160.793 73.891 161.129 73.891 161.525C73.891 161.927 73.963 162.266 74.107 162.542C74.257 162.818 74.455 163.025 74.701 163.163C74.947 163.295 75.217 163.361 75.511 163.361ZM83.4908 159.068V164H82.6718V163.271C82.5158 163.523 82.2968 163.721 82.0148 163.865C81.7388 164.003 81.4328 164.072 81.0968 164.072C80.7128 164.072 80.3678 163.994 80.0618 163.838C79.7558 163.676 79.5128 163.436 79.3328 163.118C79.1588 162.8 79.0718 162.413 79.0718 161.957V159.068H79.8818V161.849C79.8818 162.335 80.0048 162.71 80.2508 162.974C80.4968 163.232 80.8328 163.361 81.2588 163.361C81.6968 163.361 82.0418 163.226 82.2938 162.956C82.5458 162.686 82.6718 162.293 82.6718 161.777V159.068H83.4908ZM87.2767 158.978C87.8767 158.978 88.3627 159.161 88.7347 159.527C89.1067 159.887 89.2927 160.409 89.2927 161.093V164H88.4827V161.21C88.4827 160.718 88.3597 160.343 88.1137 160.085C87.8677 159.821 87.5317 159.689 87.1057 159.689C86.6737 159.689 86.3287 159.824 86.0707 160.094C85.8187 160.364 85.6927 160.757 85.6927 161.273V164H84.8737V159.068H85.6927V159.77C85.8547 159.518 86.0737 159.323 86.3497 159.185C86.6317 159.047 86.9407 158.978 87.2767 158.978ZM90.3245 161.516C90.3245 161.012 90.4265 160.571 90.6305 160.193C90.8345 159.809 91.1135 159.512 91.4675 159.302C91.8275 159.092 92.2295 158.987 92.6735 158.987C93.0575 158.987 93.4145 159.077 93.7445 159.257C94.0745 159.431 94.3265 159.662 94.5005 159.95V157.34H95.3285V164H94.5005V163.073C94.3385 163.367 94.0985 163.61 93.7805 163.802C93.4625 163.988 93.0905 164.081 92.6645 164.081C92.2265 164.081 91.8275 163.973 91.4675 163.757C91.1135 163.541 90.8345 163.238 90.6305 162.848C90.4265 162.458 90.3245 162.014 90.3245 161.516ZM94.5005 161.525C94.5005 161.153 94.4255 160.829 94.2755 160.553C94.1255 160.277 93.9215 160.067 93.6635 159.923C93.4115 159.773 93.1325 159.698 92.8265 159.698C92.5205 159.698 92.2415 159.77 91.9895 159.914C91.7375 160.058 91.5365 160.268 91.3865 160.544C91.2365 160.82 91.1615 161.144 91.1615 161.516C91.1615 161.894 91.2365 162.224 91.3865 162.506C91.5365 162.782 91.7375 162.995 91.9895 163.145C92.2415 163.289 92.5205 163.361 92.8265 163.361C93.1325 163.361 93.4115 163.289 93.6635 163.145C93.9215 162.995 94.1255 162.782 94.2755 162.506C94.4255 162.224 94.5005 161.897 94.5005 161.525ZM96.9735 164.054C96.8175 164.054 96.6855 164 96.5775 163.892C96.4695 163.784 96.4155 163.652 96.4155 163.496C96.4155 163.34 96.4695 163.208 96.5775 163.1C96.6855 162.992 96.8175 162.938 96.9735 162.938C97.1235 162.938 97.2495 162.992 97.3515 163.1C97.4595 163.208 97.5135 163.34 97.5135 163.496C97.5135 163.652 97.4595 163.784 97.3515 163.892C97.2495 164 97.1235 164.054 96.9735 164.054ZM105.196 159.563C105.196 160.085 105.016 160.52 104.656 160.868C104.302 161.21 103.759 161.381 103.027 161.381H101.821V164H101.002V157.727H103.027C103.735 157.727 104.272 157.898 104.638 158.24C105.01 158.582 105.196 159.023 105.196 159.563ZM103.027 160.706C103.483 160.706 103.819 160.607 104.035 160.409C104.251 160.211 104.359 159.929 104.359 159.563C104.359 158.789 103.915 158.402 103.027 158.402H101.821V160.706H103.027ZM107.033 157.34V164H106.214V157.34H107.033ZM112.928 161.345C112.928 161.501 112.919 161.666 112.901 161.84H108.959C108.989 162.326 109.154 162.707 109.454 162.983C109.76 163.253 110.129 163.388 110.561 163.388C110.915 163.388 111.209 163.307 111.443 163.145C111.683 162.977 111.851 162.755 111.947 162.479H112.829C112.697 162.953 112.433 163.34 112.037 163.64C111.641 163.934 111.149 164.081 110.561 164.081C110.093 164.081 109.673 163.976 109.301 163.766C108.935 163.556 108.647 163.259 108.437 162.875C108.227 162.485 108.122 162.035 108.122 161.525C108.122 161.015 108.224 160.568 108.428 160.184C108.632 159.8 108.917 159.506 109.283 159.302C109.655 159.092 110.081 158.987 110.561 158.987C111.029 158.987 111.443 159.089 111.803 159.293C112.163 159.497 112.439 159.779 112.631 160.139C112.829 160.493 112.928 160.895 112.928 161.345ZM112.082 161.174C112.082 160.862 112.013 160.595 111.875 160.373C111.737 160.145 111.548 159.974 111.308 159.86C111.074 159.74 110.813 159.68 110.525 159.68C110.111 159.68 109.757 159.812 109.463 160.076C109.175 160.34 109.01 160.706 108.968 161.174H112.082ZM113.703 161.516C113.703 161.012 113.805 160.571 114.009 160.193C114.213 159.809 114.492 159.512 114.846 159.302C115.206 159.092 115.605 158.987 116.043 158.987C116.475 158.987 116.85 159.08 117.168 159.266C117.486 159.452 117.723 159.686 117.879 159.968V159.068H118.707V164H117.879V163.082C117.717 163.37 117.474 163.61 117.15 163.802C116.832 163.988 116.46 164.081 116.034 164.081C115.596 164.081 115.2 163.973 114.846 163.757C114.492 163.541 114.213 163.238 114.009 162.848C113.805 162.458 113.703 162.014 113.703 161.516ZM117.879 161.525C117.879 161.153 117.804 160.829 117.654 160.553C117.504 160.277 117.3 160.067 117.042 159.923C116.79 159.773 116.511 159.698 116.205 159.698C115.899 159.698 115.62 159.77 115.368 159.914C115.116 160.058 114.915 160.268 114.765 160.544C114.615 160.82 114.54 161.144 114.54 161.516C114.54 161.894 114.615 162.224 114.765 162.506C114.915 162.782 115.116 162.995 115.368 163.145C115.62 163.289 115.899 163.361 116.205 163.361C116.511 163.361 116.79 163.289 117.042 163.145C117.3 162.995 117.504 162.782 117.654 162.506C117.804 162.224 117.879 161.897 117.879 161.525ZM121.837 164.081C121.459 164.081 121.12 164.018 120.82 163.892C120.52 163.76 120.283 163.58 120.109 163.352C119.935 163.118 119.839 162.851 119.821 162.551H120.667C120.691 162.797 120.805 162.998 121.009 163.154C121.219 163.31 121.492 163.388 121.828 163.388C122.14 163.388 122.386 163.319 122.566 163.181C122.746 163.043 122.836 162.869 122.836 162.659C122.836 162.443 122.74 162.284 122.548 162.182C122.356 162.074 122.059 161.969 121.657 161.867C121.291 161.771 120.991 161.675 120.757 161.579C120.529 161.477 120.331 161.33 120.163 161.138C120.001 160.94 119.92 160.682 119.92 160.364C119.92 160.112 119.995 159.881 120.145 159.671C120.295 159.461 120.508 159.296 120.784 159.176C121.06 159.05 121.375 158.987 121.729 158.987C122.275 158.987 122.716 159.125 123.052 159.401C123.388 159.677 123.568 160.055 123.592 160.535H122.773C122.755 160.277 122.65 160.07 122.458 159.914C122.272 159.758 122.02 159.68 121.702 159.68C121.408 159.68 121.174 159.743 121 159.869C120.826 159.995 120.739 160.16 120.739 160.364C120.739 160.526 120.79 160.661 120.892 160.769C121 160.871 121.132 160.955 121.288 161.021C121.45 161.081 121.672 161.15 121.954 161.228C122.308 161.324 122.596 161.42 122.818 161.516C123.04 161.606 123.229 161.744 123.385 161.93C123.547 162.116 123.631 162.359 123.637 162.659C123.637 162.929 123.562 163.172 123.412 163.388C123.262 163.604 123.049 163.775 122.773 163.901C122.503 164.021 122.191 164.081 121.837 164.081ZM129.294 161.345C129.294 161.501 129.285 161.666 129.267 161.84H125.325C125.355 162.326 125.52 162.707 125.82 162.983C126.126 163.253 126.495 163.388 126.927 163.388C127.281 163.388 127.575 163.307 127.809 163.145C128.049 162.977 128.217 162.755 128.313 162.479H129.195C129.063 162.953 128.799 163.34 128.403 163.64C128.007 163.934 127.515 164.081 126.927 164.081C126.459 164.081 126.039 163.976 125.667 163.766C125.301 163.556 125.013 163.259 124.803 162.875C124.593 162.485 124.488 162.035 124.488 161.525C124.488 161.015 124.59 160.568 124.794 160.184C124.998 159.8 125.283 159.506 125.649 159.302C126.021 159.092 126.447 158.987 126.927 158.987C127.395 158.987 127.809 159.089 128.169 159.293C128.529 159.497 128.805 159.779 128.997 160.139C129.195 160.493 129.294 160.895 129.294 161.345ZM128.448 161.174C128.448 160.862 128.379 160.595 128.241 160.373C128.103 160.145 127.914 159.974 127.674 159.86C127.44 159.74 127.179 159.68 126.891 159.68C126.477 159.68 126.123 159.812 125.829 160.076C125.541 160.34 125.376 160.706 125.334 161.174H128.448ZM133.773 159.743V162.65C133.773 162.89 133.824 163.061 133.926 163.163C134.028 163.259 134.205 163.307 134.457 163.307H135.06V164H134.322C133.866 164 133.524 163.895 133.296 163.685C133.068 163.475 132.954 163.13 132.954 162.65V159.743H132.315V159.068H132.954V157.826H133.773V159.068H135.06V159.743H133.773ZM136.871 159.869C137.015 159.587 137.219 159.368 137.483 159.212C137.753 159.056 138.08 158.978 138.464 158.978V159.824H138.248C137.33 159.824 136.871 160.322 136.871 161.318V164H136.052V159.068H136.871V159.869ZM143.658 159.068L140.688 166.322H139.842L140.814 163.946L138.825 159.068H139.734L141.282 163.064L142.812 159.068H143.658ZM146.575 161.516C146.575 161.012 146.677 160.571 146.881 160.193C147.085 159.809 147.364 159.512 147.718 159.302C148.078 159.092 148.477 158.987 148.915 158.987C149.347 158.987 149.722 159.08 150.04 159.266C150.358 159.452 150.595 159.686 150.751 159.968V159.068H151.579V164H150.751V163.082C150.589 163.37 150.346 163.61 150.022 163.802C149.704 163.988 149.332 164.081 148.906 164.081C148.468 164.081 148.072 163.973 147.718 163.757C147.364 163.541 147.085 163.238 146.881 162.848C146.677 162.458 146.575 162.014 146.575 161.516ZM150.751 161.525C150.751 161.153 150.676 160.829 150.526 160.553C150.376 160.277 150.172 160.067 149.914 159.923C149.662 159.773 149.383 159.698 149.077 159.698C148.771 159.698 148.492 159.77 148.24 159.914C147.988 160.058 147.787 160.268 147.637 160.544C147.487 160.82 147.412 161.144 147.412 161.516C147.412 161.894 147.487 162.224 147.637 162.506C147.787 162.782 147.988 162.995 148.24 163.145C148.492 163.289 148.771 163.361 149.077 163.361C149.383 163.361 149.662 163.289 149.914 163.145C150.172 162.995 150.376 162.782 150.526 162.506C150.676 162.224 150.751 161.897 150.751 161.525ZM154.997 158.987C155.423 158.987 155.795 159.08 156.113 159.266C156.437 159.452 156.677 159.686 156.833 159.968V159.068H157.661V164.108C157.661 164.558 157.565 164.957 157.373 165.305C157.181 165.659 156.905 165.935 156.545 166.133C156.191 166.331 155.777 166.43 155.303 166.43C154.655 166.43 154.115 166.277 153.683 165.971C153.251 165.665 152.996 165.248 152.918 164.72H153.728C153.818 165.02 154.004 165.26 154.286 165.44C154.568 165.626 154.907 165.719 155.303 165.719C155.753 165.719 156.119 165.578 156.401 165.296C156.689 165.014 156.833 164.618 156.833 164.108V163.073C156.671 163.361 156.431 163.601 156.113 163.793C155.795 163.985 155.423 164.081 154.997 164.081C154.559 164.081 154.16 163.973 153.8 163.757C153.446 163.541 153.167 163.238 152.963 162.848C152.759 162.458 152.657 162.014 152.657 161.516C152.657 161.012 152.759 160.571 152.963 160.193C153.167 159.809 153.446 159.512 153.8 159.302C154.16 159.092 154.559 158.987 154.997 158.987ZM156.833 161.525C156.833 161.153 156.758 160.829 156.608 160.553C156.458 160.277 156.254 160.067 155.996 159.923C155.744 159.773 155.465 159.698 155.159 159.698C154.853 159.698 154.574 159.77 154.322 159.914C154.07 160.058 153.869 160.268 153.719 160.544C153.569 160.82 153.494 161.144 153.494 161.516C153.494 161.894 153.569 162.224 153.719 162.506C153.869 162.782 154.07 162.995 154.322 163.145C154.574 163.289 154.853 163.361 155.159 163.361C155.465 163.361 155.744 163.289 155.996 163.145C156.254 162.995 156.458 162.782 156.608 162.506C156.758 162.224 156.833 161.897 156.833 161.525ZM158.739 161.516C158.739 161.012 158.841 160.571 159.045 160.193C159.249 159.809 159.528 159.512 159.882 159.302C160.242 159.092 160.641 158.987 161.079 158.987C161.511 158.987 161.886 159.08 162.204 159.266C162.522 159.452 162.759 159.686 162.915 159.968V159.068H163.743V164H162.915V163.082C162.753 163.37 162.51 163.61 162.186 163.802C161.868 163.988 161.496 164.081 161.07 164.081C160.632 164.081 160.236 163.973 159.882 163.757C159.528 163.541 159.249 163.238 159.045 162.848C158.841 162.458 158.739 162.014 158.739 161.516ZM162.915 161.525C162.915 161.153 162.84 160.829 162.69 160.553C162.54 160.277 162.336 160.067 162.078 159.923C161.826 159.773 161.547 159.698 161.241 159.698C160.935 159.698 160.656 159.77 160.404 159.914C160.152 160.058 159.951 160.268 159.801 160.544C159.651 160.82 159.576 161.144 159.576 161.516C159.576 161.894 159.651 162.224 159.801 162.506C159.951 162.782 160.152 162.995 160.404 163.145C160.656 163.289 160.935 163.361 161.241 163.361C161.547 163.361 161.826 163.289 162.078 163.145C162.336 162.995 162.54 162.782 162.69 162.506C162.84 162.224 162.915 161.897 162.915 161.525ZM165.55 158.267C165.394 158.267 165.262 158.213 165.154 158.105C165.046 157.997 164.992 157.865 164.992 157.709C164.992 157.553 165.046 157.421 165.154 157.313C165.262 157.205 165.394 157.151 165.55 157.151C165.7 157.151 165.826 157.205 165.928 157.313C166.036 157.421 166.09 157.553 166.09 157.709C166.09 157.865 166.036 157.997 165.928 158.105C165.826 158.213 165.7 158.267 165.55 158.267ZM165.946 159.068V164H165.127V159.068H165.946ZM169.744 158.978C170.344 158.978 170.83 159.161 171.202 159.527C171.574 159.887 171.76 160.409 171.76 161.093V164H170.95V161.21C170.95 160.718 170.827 160.343 170.581 160.085C170.335 159.821 169.999 159.689 169.573 159.689C169.141 159.689 168.796 159.824 168.538 160.094C168.286 160.364 168.16 160.757 168.16 161.273V164H167.341V159.068H168.16V159.77C168.322 159.518 168.541 159.323 168.817 159.185C169.099 159.047 169.408 158.978 169.744 158.978ZM173.359 164.054C173.203 164.054 173.071 164 172.963 163.892C172.855 163.784 172.801 163.652 172.801 163.496C172.801 163.34 172.855 163.208 172.963 163.1C173.071 162.992 173.203 162.938 173.359 162.938C173.509 162.938 173.635 162.992 173.737 163.1C173.845 163.208 173.899 163.34 173.899 163.496C173.899 163.652 173.845 163.784 173.737 163.892C173.635 164 173.509 164.054 173.359 164.054Z" fill="#C4C4C4"/>
<g clip-path="url(#clip0)">
<path d="M125.499 59.0631C123.906 59.0631 122.57 60.3989 122.57 61.9924C122.57 63.586 123.906 64.9217 125.499 64.9217C127.034 64.9217 128.429 63.586 128.358 62.0627C128.429 60.3872 127.105 59.0631 125.499 59.0631Z" fill="#FC5266"/>
<path d="M152.613 69.4446C154.453 66.2692 154.464 62.4846 152.636 59.3209L134.287 27.5438C132.471 24.345 129.19 22.4468 125.511 22.4468C121.832 22.4468 118.551 24.3567 116.735 27.5321L98.3622 59.3443C96.5343 62.5431 96.546 66.3512 98.3973 69.5266C100.225 72.6668 103.494 74.5533 107.15 74.5533H143.802C147.469 74.5533 150.762 72.6434 152.613 69.4446ZM148.629 67.148C147.61 68.9056 145.805 69.9484 143.79 69.9484H107.138C105.146 69.9484 103.354 68.929 102.358 67.2066C101.35 65.4607 101.338 63.3751 102.346 61.6175L120.719 29.8169C121.715 28.071 123.496 27.0399 125.511 27.0399C127.515 27.0399 129.307 28.0828 130.303 29.8286L148.664 61.6292C149.649 63.3399 149.637 65.4022 148.629 67.148Z" fill="#FC5266"/>
<path d="M124.773 38.4994C123.378 38.8978 122.511 40.1633 122.511 41.6983C122.582 42.6239 122.64 43.5613 122.711 44.487C122.91 48.0138 123.109 51.4704 123.308 54.9973C123.378 56.1925 124.304 57.0595 125.499 57.0595C126.694 57.0595 127.632 56.1339 127.69 54.927C127.69 54.2005 127.69 53.5327 127.761 52.7945C127.89 50.533 128.03 48.2716 128.159 46.0102C128.229 44.5455 128.358 43.0809 128.429 41.6162C128.429 41.089 128.358 40.6203 128.159 40.1516C127.561 38.8392 126.167 38.1714 124.773 38.4994Z" fill="#FC5266"/>
</g>
<g clip-path="url(#clip1)">
<path d="M243.283 13.0118L248.734 7.56032C249.089 7.20572 249.089 6.63239 248.734 6.27779C248.379 5.92319 247.806 5.92319 247.451 6.27779L242 11.7293L236.549 6.27779C236.194 5.92319 235.621 5.92319 235.266 6.27779C234.911 6.63239 234.911 7.20572 235.266 7.56032L240.717 13.0118L235.266 18.4633C234.911 18.8179 234.911 19.3912 235.266 19.7458C235.443 19.9227 235.675 20.0116 235.907 20.0116C236.14 20.0116 236.372 19.9227 236.549 19.7458L242 14.2943L247.451 19.7458C247.628 19.9227 247.86 20.0116 248.093 20.0116C248.325 20.0116 248.557 19.9227 248.734 19.7458C249.089 19.3912 249.089 18.8179 248.734 18.4633L243.283 13.0118Z" fill="#C4C4C4"/>
</g>
<defs>
<clipPath id="clip0">
<rect width="57" height="57" fill="white" transform="translate(97 20)"/>
</clipPath>
<clipPath id="clip1">
<rect width="14" height="14" fill="white" transform="translate(235 6)"/>
</clipPath>
</defs>
</svg>
