<svg width="255" height="196" viewBox="0 0 255 196" fill="none" xmlns="http://www.w3.org/2000/svg">
<rect width="255" height="196" fill="white"/>
<path d="M62.576 108.084C62.024 108.084 61.528 107.988 61.088 107.796C60.656 107.596 60.316 107.324 60.068 106.98C59.82 106.628 59.692 106.224 59.684 105.768H60.848C60.888 106.16 61.048 106.492 61.328 106.764C61.616 107.028 62.032 107.16 62.576 107.16C63.096 107.16 63.504 107.032 63.8 106.776C64.104 106.512 64.256 106.176 64.256 105.768C64.256 105.448 64.168 105.188 63.992 104.988C63.816 104.788 63.596 104.636 63.332 104.532C63.068 104.428 62.712 104.316 62.264 104.196C61.712 104.052 61.268 103.908 60.932 103.764C60.604 103.62 60.32 103.396 60.08 103.092C59.848 102.78 59.732 102.364 59.732 101.844C59.732 101.388 59.848 100.984 60.08 100.632C60.312 100.28 60.636 100.008 61.052 99.816C61.476 99.624 61.96 99.528 62.504 99.528C63.288 99.528 63.928 99.724 64.424 100.116C64.928 100.508 65.212 101.028 65.276 101.676H64.076C64.036 101.356 63.868 101.076 63.572 100.836C63.276 100.588 62.884 100.464 62.396 100.464C61.94 100.464 61.568 100.584 61.28 100.824C60.992 101.056 60.848 101.384 60.848 101.808C60.848 102.112 60.932 102.36 61.1 102.552C61.276 102.744 61.488 102.892 61.736 102.996C61.992 103.092 62.348 103.204 62.804 103.332C63.356 103.484 63.8 103.636 64.136 103.788C64.472 103.932 64.76 104.16 65 104.472C65.24 104.776 65.36 105.192 65.36 105.72C65.36 106.128 65.252 106.512 65.036 106.872C64.82 107.232 64.5 107.524 64.076 107.748C63.652 107.972 63.152 108.084 62.576 108.084ZM72.799 101.424V108H71.707V107.028C71.499 107.364 71.207 107.628 70.831 107.82C70.463 108.004 70.055 108.096 69.607 108.096C69.095 108.096 68.635 107.992 68.227 107.784C67.819 107.568 67.495 107.248 67.255 106.824C67.023 106.4 66.907 105.884 66.907 105.276V101.424H67.987V105.132C67.987 105.78 68.151 106.28 68.479 106.632C68.807 106.976 69.255 107.148 69.823 107.148C70.407 107.148 70.867 106.968 71.203 106.608C71.539 106.248 71.707 105.724 71.707 105.036V101.424H72.799ZM74.2348 104.7C74.2348 104.02 74.3708 103.428 74.6428 102.924C74.9148 102.412 75.2908 102.016 75.7708 101.736C76.2588 101.456 76.8148 101.316 77.4388 101.316C78.2468 101.316 78.9108 101.512 79.4308 101.904C79.9588 102.296 80.3068 102.84 80.4748 103.536H79.2988C79.1868 103.136 78.9668 102.82 78.6388 102.588C78.3188 102.356 77.9188 102.24 77.4388 102.24C76.8148 102.24 76.3108 102.456 75.9268 102.888C75.5428 103.312 75.3508 103.916 75.3508 104.7C75.3508 105.492 75.5428 106.104 75.9268 106.536C76.3108 106.968 76.8148 107.184 77.4388 107.184C77.9188 107.184 78.3188 107.072 78.6388 106.848C78.9588 106.624 79.1788 106.304 79.2988 105.888H80.4748C80.2988 106.56 79.9468 107.1 79.4188 107.508C78.8908 107.908 78.2308 108.108 77.4388 108.108C76.8148 108.108 76.2588 107.968 75.7708 107.688C75.2908 107.408 74.9148 107.012 74.6428 106.5C74.3708 105.988 74.2348 105.388 74.2348 104.7ZM81.5238 104.7C81.5238 104.02 81.6598 103.428 81.9318 102.924C82.2038 102.412 82.5798 102.016 83.0598 101.736C83.5478 101.456 84.1038 101.316 84.7278 101.316C85.5358 101.316 86.1998 101.512 86.7198 101.904C87.2478 102.296 87.5958 102.84 87.7638 103.536H86.5878C86.4758 103.136 86.2558 102.82 85.9278 102.588C85.6078 102.356 85.2078 102.24 84.7278 102.24C84.1038 102.24 83.5998 102.456 83.2158 102.888C82.8318 103.312 82.6398 103.916 82.6398 104.7C82.6398 105.492 82.8318 106.104 83.2158 106.536C83.5998 106.968 84.1038 107.184 84.7278 107.184C85.2078 107.184 85.6078 107.072 85.9278 106.848C86.2478 106.624 86.4678 106.304 86.5878 105.888H87.7638C87.5878 106.56 87.2358 107.1 86.7078 107.508C86.1798 107.908 85.5198 108.108 84.7278 108.108C84.1038 108.108 83.5478 107.968 83.0598 107.688C82.5798 107.408 82.2038 107.012 81.9318 106.5C81.6598 105.988 81.5238 105.388 81.5238 104.7ZM95.2209 104.46C95.2209 104.668 95.2089 104.888 95.1849 105.12H89.9289C89.9689 105.768 90.1889 106.276 90.5889 106.644C90.9969 107.004 91.4889 107.184 92.0649 107.184C92.5369 107.184 92.9289 107.076 93.2409 106.86C93.5609 106.636 93.7849 106.34 93.9129 105.972H95.0889C94.9129 106.604 94.5609 107.12 94.0329 107.52C93.5049 107.912 92.8489 108.108 92.0649 108.108C91.4409 108.108 90.8809 107.968 90.3849 107.688C89.8969 107.408 89.5129 107.012 89.2329 106.5C88.9529 105.98 88.8129 105.38 88.8129 104.7C88.8129 104.02 88.9489 103.424 89.2209 102.912C89.4929 102.4 89.8729 102.008 90.3609 101.736C90.8569 101.456 91.4249 101.316 92.0649 101.316C92.6889 101.316 93.2409 101.452 93.7209 101.724C94.2009 101.996 94.5689 102.372 94.8249 102.852C95.0889 103.324 95.2209 103.86 95.2209 104.46ZM94.0929 104.232C94.0929 103.816 94.0009 103.46 93.8169 103.164C93.6329 102.86 93.3809 102.632 93.0609 102.48C92.7489 102.32 92.4009 102.24 92.0169 102.24C91.4649 102.24 90.9929 102.416 90.6009 102.768C90.2169 103.12 89.9969 103.608 89.9409 104.232H94.0929ZM98.9903 108.108C98.4863 108.108 98.0343 108.024 97.6343 107.856C97.2343 107.68 96.9183 107.44 96.6863 107.136C96.4543 106.824 96.3263 106.468 96.3023 106.068H97.4303C97.4623 106.396 97.6143 106.664 97.8863 106.872C98.1663 107.08 98.5303 107.184 98.9783 107.184C99.3943 107.184 99.7223 107.092 99.9623 106.908C100.202 106.724 100.322 106.492 100.322 106.212C100.322 105.924 100.194 105.712 99.9383 105.576C99.6823 105.432 99.2863 105.292 98.7503 105.156C98.2623 105.028 97.8623 104.9 97.5503 104.772C97.2463 104.636 96.9823 104.44 96.7583 104.184C96.5423 103.92 96.4343 103.576 96.4343 103.152C96.4343 102.816 96.5343 102.508 96.7343 102.228C96.9343 101.948 97.2183 101.728 97.5863 101.568C97.9543 101.4 98.3743 101.316 98.8463 101.316C99.5743 101.316 100.162 101.5 100.61 101.868C101.058 102.236 101.298 102.74 101.33 103.38H100.238C100.214 103.036 100.074 102.76 99.8183 102.552C99.5703 102.344 99.2343 102.24 98.8103 102.24C98.4183 102.24 98.1063 102.324 97.8743 102.492C97.6423 102.66 97.5263 102.88 97.5263 103.152C97.5263 103.368 97.5943 103.548 97.7303 103.692C97.8743 103.828 98.0503 103.94 98.2583 104.028C98.4743 104.108 98.7703 104.2 99.1463 104.304C99.6183 104.432 100.002 104.56 100.298 104.688C100.594 104.808 100.846 104.992 101.054 105.24C101.27 105.488 101.382 105.812 101.39 106.212C101.39 106.572 101.29 106.896 101.09 107.184C100.89 107.472 100.606 107.7 100.238 107.868C99.8783 108.028 99.4623 108.108 98.9903 108.108ZM105.26 108.108C104.756 108.108 104.304 108.024 103.904 107.856C103.504 107.68 103.188 107.44 102.956 107.136C102.724 106.824 102.596 106.468 102.572 106.068H103.7C103.732 106.396 103.884 106.664 104.156 106.872C104.436 107.08 104.8 107.184 105.248 107.184C105.664 107.184 105.992 107.092 106.232 106.908C106.472 106.724 106.592 106.492 106.592 106.212C106.592 105.924 106.464 105.712 106.208 105.576C105.952 105.432 105.556 105.292 105.02 105.156C104.532 105.028 104.132 104.9 103.82 104.772C103.516 104.636 103.252 104.44 103.028 104.184C102.812 103.92 102.704 103.576 102.704 103.152C102.704 102.816 102.804 102.508 103.004 102.228C103.204 101.948 103.488 101.728 103.856 101.568C104.224 101.4 104.644 101.316 105.116 101.316C105.844 101.316 106.432 101.5 106.88 101.868C107.328 102.236 107.568 102.74 107.6 103.38H106.508C106.484 103.036 106.344 102.76 106.088 102.552C105.84 102.344 105.504 102.24 105.08 102.24C104.688 102.24 104.376 102.324 104.144 102.492C103.912 102.66 103.796 102.88 103.796 103.152C103.796 103.368 103.864 103.548 104 103.692C104.144 103.828 104.32 103.94 104.528 104.028C104.744 104.108 105.04 104.2 105.416 104.304C105.888 104.432 106.272 104.56 106.568 104.688C106.864 104.808 107.116 104.992 107.324 105.24C107.54 105.488 107.652 105.812 107.66 106.212C107.66 106.572 107.56 106.896 107.36 107.184C107.16 107.472 106.876 107.7 106.508 107.868C106.148 108.028 105.732 108.108 105.26 108.108ZM111.877 102.324H110.497V108H109.405V102.324H108.553V101.424H109.405V100.956C109.405 100.22 109.593 99.684 109.969 99.348C110.353 99.004 110.965 98.832 111.805 98.832V99.744C111.325 99.744 110.985 99.84 110.785 100.032C110.593 100.216 110.497 100.524 110.497 100.956V101.424H111.877V102.324ZM118.983 101.424V108H117.891V107.028C117.683 107.364 117.391 107.628 117.015 107.82C116.647 108.004 116.239 108.096 115.791 108.096C115.279 108.096 114.819 107.992 114.411 107.784C114.003 107.568 113.679 107.248 113.439 106.824C113.207 106.4 113.091 105.884 113.091 105.276V101.424H114.171V105.132C114.171 105.78 114.335 106.28 114.663 106.632C114.991 106.976 115.439 107.148 116.007 107.148C116.591 107.148 117.051 106.968 117.387 106.608C117.723 106.248 117.891 105.724 117.891 105.036V101.424H118.983ZM121.918 99.12V108H120.826V99.12H121.918ZM124.871 99.12V108H123.779V99.12H124.871ZM133.724 108.084C132.948 108.084 132.24 107.904 131.6 107.544C130.96 107.176 130.452 106.668 130.076 106.02C129.708 105.364 129.524 104.628 129.524 103.812C129.524 102.996 129.708 102.264 130.076 101.616C130.452 100.96 130.96 100.452 131.6 100.092C132.24 99.724 132.948 99.54 133.724 99.54C134.508 99.54 135.22 99.724 135.86 100.092C136.5 100.452 137.004 100.956 137.372 101.604C137.74 102.252 137.924 102.988 137.924 103.812C137.924 104.636 137.74 105.372 137.372 106.02C137.004 106.668 136.5 107.176 135.86 107.544C135.22 107.904 134.508 108.084 133.724 108.084ZM133.724 107.136C134.308 107.136 134.832 107 135.296 106.728C135.768 106.456 136.136 106.068 136.4 105.564C136.672 105.06 136.808 104.476 136.808 103.812C136.808 103.14 136.672 102.556 136.4 102.06C136.136 101.556 135.772 101.168 135.308 100.896C134.844 100.624 134.316 100.488 133.724 100.488C133.132 100.488 132.604 100.624 132.14 100.896C131.676 101.168 131.308 101.556 131.036 102.06C130.772 102.556 130.64 103.14 130.64 103.812C130.64 104.476 130.772 105.06 131.036 105.564C131.308 106.068 131.676 106.456 132.14 106.728C132.612 107 133.14 107.136 133.724 107.136ZM140.457 102.636C140.673 102.26 140.993 101.948 141.417 101.7C141.849 101.444 142.349 101.316 142.917 101.316C143.501 101.316 144.029 101.456 144.501 101.736C144.981 102.016 145.357 102.412 145.629 102.924C145.901 103.428 146.037 104.016 146.037 104.688C146.037 105.352 145.901 105.944 145.629 106.464C145.357 106.984 144.981 107.388 144.501 107.676C144.029 107.964 143.501 108.108 142.917 108.108C142.357 108.108 141.861 107.984 141.429 107.736C141.005 107.48 140.681 107.164 140.457 106.788V111.12H139.365V101.424H140.457V102.636ZM144.921 104.688C144.921 104.192 144.821 103.76 144.621 103.392C144.421 103.024 144.149 102.744 143.805 102.552C143.469 102.36 143.097 102.264 142.689 102.264C142.289 102.264 141.917 102.364 141.573 102.564C141.237 102.756 140.965 103.04 140.757 103.416C140.557 103.784 140.457 104.212 140.457 104.7C140.457 105.196 140.557 105.632 140.757 106.008C140.965 106.376 141.237 106.66 141.573 106.86C141.917 107.052 142.289 107.148 142.689 107.148C143.097 107.148 143.469 107.052 143.805 106.86C144.149 106.66 144.421 106.376 144.621 106.008C144.821 105.632 144.921 105.192 144.921 104.688ZM153.475 104.46C153.475 104.668 153.463 104.888 153.439 105.12H148.183C148.223 105.768 148.443 106.276 148.843 106.644C149.251 107.004 149.743 107.184 150.319 107.184C150.791 107.184 151.183 107.076 151.495 106.86C151.815 106.636 152.039 106.34 152.167 105.972H153.343C153.167 106.604 152.815 107.12 152.287 107.52C151.759 107.912 151.103 108.108 150.319 108.108C149.695 108.108 149.135 107.968 148.639 107.688C148.151 107.408 147.767 107.012 147.487 106.5C147.207 105.98 147.067 105.38 147.067 104.7C147.067 104.02 147.203 103.424 147.475 102.912C147.747 102.4 148.127 102.008 148.615 101.736C149.111 101.456 149.679 101.316 150.319 101.316C150.943 101.316 151.495 101.452 151.975 101.724C152.455 101.996 152.823 102.372 153.079 102.852C153.343 103.324 153.475 103.86 153.475 104.46ZM152.347 104.232C152.347 103.816 152.255 103.46 152.071 103.164C151.887 102.86 151.635 102.632 151.315 102.48C151.003 102.32 150.655 102.24 150.271 102.24C149.719 102.24 149.247 102.416 148.855 102.768C148.471 103.12 148.251 103.608 148.195 104.232H152.347ZM156.008 102.492C156.2 102.116 156.472 101.824 156.824 101.616C157.184 101.408 157.62 101.304 158.132 101.304V102.432H157.844C156.62 102.432 156.008 103.096 156.008 104.424V108H154.916V101.424H156.008V102.492ZM158.985 104.688C158.985 104.016 159.121 103.428 159.393 102.924C159.665 102.412 160.037 102.016 160.509 101.736C160.989 101.456 161.521 101.316 162.105 101.316C162.681 101.316 163.181 101.44 163.605 101.688C164.029 101.936 164.345 102.248 164.553 102.624V101.424H165.657V108H164.553V106.776C164.337 107.16 164.013 107.48 163.581 107.736C163.157 107.984 162.661 108.108 162.093 108.108C161.509 108.108 160.981 107.964 160.509 107.676C160.037 107.388 159.665 106.984 159.393 106.464C159.121 105.944 158.985 105.352 158.985 104.688ZM164.553 104.7C164.553 104.204 164.453 103.772 164.253 103.404C164.053 103.036 163.781 102.756 163.437 102.564C163.101 102.364 162.729 102.264 162.321 102.264C161.913 102.264 161.541 102.36 161.205 102.552C160.869 102.744 160.601 103.024 160.401 103.392C160.201 103.76 160.101 104.192 160.101 104.688C160.101 105.192 160.201 105.632 160.401 106.008C160.601 106.376 160.869 106.66 161.205 106.86C161.541 107.052 161.913 107.148 162.321 107.148C162.729 107.148 163.101 107.052 163.437 106.86C163.781 106.66 164.053 106.376 164.253 106.008C164.453 105.632 164.553 105.196 164.553 104.7ZM168.834 102.324V106.2C168.834 106.52 168.902 106.748 169.038 106.884C169.174 107.012 169.41 107.076 169.746 107.076H170.55V108H169.566C168.958 108 168.502 107.86 168.198 107.58C167.894 107.3 167.742 106.84 167.742 106.2V102.324H166.89V101.424H167.742V99.768H168.834V101.424H170.55V102.324H168.834ZM172.437 100.356C172.229 100.356 172.053 100.284 171.909 100.14C171.765 99.996 171.693 99.82 171.693 99.612C171.693 99.404 171.765 99.228 171.909 99.084C172.053 98.94 172.229 98.868 172.437 98.868C172.637 98.868 172.805 98.94 172.941 99.084C173.085 99.228 173.157 99.404 173.157 99.612C173.157 99.82 173.085 99.996 172.941 100.14C172.805 100.284 172.637 100.356 172.437 100.356ZM172.965 101.424V108H171.873V101.424H172.965ZM177.694 108.108C177.078 108.108 176.518 107.968 176.014 107.688C175.518 107.408 175.126 107.012 174.838 106.5C174.558 105.98 174.418 105.38 174.418 104.7C174.418 104.028 174.562 103.436 174.85 102.924C175.146 102.404 175.546 102.008 176.05 101.736C176.554 101.456 177.118 101.316 177.742 101.316C178.366 101.316 178.93 101.456 179.434 101.736C179.938 102.008 180.334 102.4 180.622 102.912C180.918 103.424 181.066 104.02 181.066 104.7C181.066 105.38 180.914 105.98 180.61 106.5C180.314 107.012 179.91 107.408 179.398 107.688C178.886 107.968 178.318 108.108 177.694 108.108ZM177.694 107.148C178.086 107.148 178.454 107.056 178.798 106.872C179.142 106.688 179.418 106.412 179.626 106.044C179.842 105.676 179.95 105.228 179.95 104.7C179.95 104.172 179.846 103.724 179.638 103.356C179.43 102.988 179.158 102.716 178.822 102.54C178.486 102.356 178.122 102.264 177.73 102.264C177.33 102.264 176.962 102.356 176.626 102.54C176.298 102.716 176.034 102.988 175.834 103.356C175.634 103.724 175.534 104.172 175.534 104.7C175.534 105.236 175.63 105.688 175.822 106.056C176.022 106.424 176.286 106.7 176.614 106.884C176.942 107.06 177.302 107.148 177.694 107.148ZM185.706 101.304C186.506 101.304 187.154 101.548 187.65 102.036C188.146 102.516 188.394 103.212 188.394 104.124V108H187.314V104.28C187.314 103.624 187.15 103.124 186.822 102.78C186.494 102.428 186.046 102.252 185.478 102.252C184.902 102.252 184.442 102.432 184.098 102.792C183.762 103.152 183.594 103.676 183.594 104.364V108H182.502V101.424H183.594V102.36C183.81 102.024 184.102 101.764 184.47 101.58C184.846 101.396 185.258 101.304 185.706 101.304Z" fill="#34D330"/>
<path d="M43.4944 127.727V128.393H41.7844V134H40.9654V128.393H39.2464V127.727H43.4944ZM46.9506 128.978C47.3226 128.978 47.6586 129.059 47.9586 129.221C48.2586 129.377 48.4926 129.614 48.6606 129.932C48.8346 130.25 48.9216 130.637 48.9216 131.093V134H48.1116V131.21C48.1116 130.718 47.9886 130.343 47.7426 130.085C47.4966 129.821 47.1606 129.689 46.7346 129.689C46.3026 129.689 45.9576 129.824 45.6996 130.094C45.4476 130.364 45.3216 130.757 45.3216 131.273V134H44.5026V127.34H45.3216V129.77C45.4836 129.518 45.7056 129.323 45.9876 129.185C46.2756 129.047 46.5966 128.978 46.9506 128.978ZM54.7594 131.345C54.7594 131.501 54.7504 131.666 54.7324 131.84H50.7904C50.8204 132.326 50.9854 132.707 51.2854 132.983C51.5914 133.253 51.9604 133.388 52.3924 133.388C52.7464 133.388 53.0404 133.307 53.2744 133.145C53.5144 132.977 53.6824 132.755 53.7784 132.479H54.6604C54.5284 132.953 54.2644 133.34 53.8684 133.64C53.4724 133.934 52.9804 134.081 52.3924 134.081C51.9244 134.081 51.5044 133.976 51.1324 133.766C50.7664 133.556 50.4784 133.259 50.2684 132.875C50.0584 132.485 49.9534 132.035 49.9534 131.525C49.9534 131.015 50.0554 130.568 50.2594 130.184C50.4634 129.8 50.7484 129.506 51.1144 129.302C51.4864 129.092 51.9124 128.987 52.3924 128.987C52.8604 128.987 53.2744 129.089 53.6344 129.293C53.9944 129.497 54.2704 129.779 54.4624 130.139C54.6604 130.493 54.7594 130.895 54.7594 131.345ZM53.9134 131.174C53.9134 130.862 53.8444 130.595 53.7064 130.373C53.5684 130.145 53.3794 129.974 53.1394 129.86C52.9054 129.74 52.6444 129.68 52.3564 129.68C51.9424 129.68 51.5884 129.812 51.2944 130.076C51.0064 130.34 50.8414 130.706 50.7994 131.174H53.9134ZM58.6629 128.267C58.5069 128.267 58.3749 128.213 58.2669 128.105C58.1589 127.997 58.1049 127.865 58.1049 127.709C58.1049 127.553 58.1589 127.421 58.2669 127.313C58.3749 127.205 58.5069 127.151 58.6629 127.151C58.8129 127.151 58.9389 127.205 59.0409 127.313C59.1489 127.421 59.2029 127.553 59.2029 127.709C59.2029 127.865 59.1489 127.997 59.0409 128.105C58.9389 128.213 58.8129 128.267 58.6629 128.267ZM59.0589 129.068V134H58.2399V129.068H59.0589ZM61.4537 129.743V132.65C61.4537 132.89 61.5047 133.061 61.6067 133.163C61.7087 133.259 61.8857 133.307 62.1377 133.307H62.7407V134H62.0027C61.5467 134 61.2047 133.895 60.9767 133.685C60.7487 133.475 60.6347 133.13 60.6347 132.65V129.743H59.9957V129.068H60.6347V127.826H61.4537V129.068H62.7407V129.743H61.4537ZM68.233 131.345C68.233 131.501 68.224 131.666 68.206 131.84H64.264C64.294 132.326 64.459 132.707 64.759 132.983C65.065 133.253 65.434 133.388 65.866 133.388C66.22 133.388 66.514 133.307 66.748 133.145C66.988 132.977 67.156 132.755 67.252 132.479H68.134C68.002 132.953 67.738 133.34 67.342 133.64C66.946 133.934 66.454 134.081 65.866 134.081C65.398 134.081 64.978 133.976 64.606 133.766C64.24 133.556 63.952 133.259 63.742 132.875C63.532 132.485 63.427 132.035 63.427 131.525C63.427 131.015 63.529 130.568 63.733 130.184C63.937 129.8 64.222 129.506 64.588 129.302C64.96 129.092 65.386 128.987 65.866 128.987C66.334 128.987 66.748 129.089 67.108 129.293C67.468 129.497 67.744 129.779 67.936 130.139C68.134 130.493 68.233 130.895 68.233 131.345ZM67.387 131.174C67.387 130.862 67.318 130.595 67.18 130.373C67.042 130.145 66.853 129.974 66.613 129.86C66.379 129.74 66.118 129.68 65.83 129.68C65.416 129.68 65.062 129.812 64.768 130.076C64.48 130.34 64.315 130.706 64.273 131.174H67.387ZM75.2451 128.978C75.6291 128.978 75.9711 129.059 76.2711 129.221C76.5711 129.377 76.8081 129.614 76.9821 129.932C77.1561 130.25 77.2431 130.637 77.2431 131.093V134H76.4331V131.21C76.4331 130.718 76.3101 130.343 76.0641 130.085C75.8241 129.821 75.4971 129.689 75.0831 129.689C74.6571 129.689 74.3181 129.827 74.0661 130.103C73.8141 130.373 73.6881 130.766 73.6881 131.282V134H72.8781V131.21C72.8781 130.718 72.7551 130.343 72.5091 130.085C72.2691 129.821 71.9421 129.689 71.5281 129.689C71.1021 129.689 70.7631 129.827 70.5111 130.103C70.2591 130.373 70.1331 130.766 70.1331 131.282V134H69.3141V129.068H70.1331V129.779C70.2951 129.521 70.5111 129.323 70.7811 129.185C71.0571 129.047 71.3601 128.978 71.6901 128.978C72.1041 128.978 72.4701 129.071 72.7881 129.257C73.1061 129.443 73.3431 129.716 73.4991 130.076C73.6371 129.728 73.8651 129.458 74.1831 129.266C74.5011 129.074 74.8551 128.978 75.2451 128.978ZM83.434 128.978C83.806 128.978 84.142 129.059 84.442 129.221C84.742 129.377 84.976 129.614 85.144 129.932C85.318 130.25 85.405 130.637 85.405 131.093V134H84.595V131.21C84.595 130.718 84.472 130.343 84.226 130.085C83.98 129.821 83.644 129.689 83.218 129.689C82.786 129.689 82.441 129.824 82.183 130.094C81.931 130.364 81.805 130.757 81.805 131.273V134H80.986V127.34H81.805V129.77C81.967 129.518 82.189 129.323 82.471 129.185C82.759 129.047 83.08 128.978 83.434 128.978ZM86.4368 131.516C86.4368 131.012 86.5388 130.571 86.7428 130.193C86.9468 129.809 87.2258 129.512 87.5798 129.302C87.9398 129.092 88.3388 128.987 88.7768 128.987C89.2088 128.987 89.5838 129.08 89.9018 129.266C90.2198 129.452 90.4568 129.686 90.6128 129.968V129.068H91.4408V134H90.6128V133.082C90.4508 133.37 90.2078 133.61 89.8838 133.802C89.5658 133.988 89.1938 134.081 88.7678 134.081C88.3298 134.081 87.9338 133.973 87.5798 133.757C87.2258 133.541 86.9468 133.238 86.7428 132.848C86.5388 132.458 86.4368 132.014 86.4368 131.516ZM90.6128 131.525C90.6128 131.153 90.5378 130.829 90.3878 130.553C90.2378 130.277 90.0338 130.067 89.7758 129.923C89.5238 129.773 89.2448 129.698 88.9388 129.698C88.6328 129.698 88.3538 129.77 88.1018 129.914C87.8498 130.058 87.6488 130.268 87.4988 130.544C87.3488 130.82 87.2738 131.144 87.2738 131.516C87.2738 131.894 87.3488 132.224 87.4988 132.506C87.6488 132.782 87.8498 132.995 88.1018 133.145C88.3538 133.289 88.6328 133.361 88.9388 133.361C89.2448 133.361 89.5238 133.289 89.7758 133.145C90.0338 132.995 90.2378 132.782 90.3878 132.506C90.5378 132.224 90.6128 131.897 90.6128 131.525ZM94.5708 134.081C94.1928 134.081 93.8538 134.018 93.5538 133.892C93.2538 133.76 93.0168 133.58 92.8428 133.352C92.6688 133.118 92.5728 132.851 92.5548 132.551H93.4008C93.4248 132.797 93.5388 132.998 93.7428 133.154C93.9528 133.31 94.2258 133.388 94.5618 133.388C94.8738 133.388 95.1198 133.319 95.2998 133.181C95.4798 133.043 95.5698 132.869 95.5698 132.659C95.5698 132.443 95.4738 132.284 95.2818 132.182C95.0898 132.074 94.7928 131.969 94.3908 131.867C94.0248 131.771 93.7248 131.675 93.4908 131.579C93.2628 131.477 93.0648 131.33 92.8968 131.138C92.7348 130.94 92.6538 130.682 92.6538 130.364C92.6538 130.112 92.7288 129.881 92.8788 129.671C93.0288 129.461 93.2418 129.296 93.5178 129.176C93.7938 129.05 94.1088 128.987 94.4628 128.987C95.0088 128.987 95.4498 129.125 95.7858 129.401C96.1218 129.677 96.3018 130.055 96.3258 130.535H95.5068C95.4888 130.277 95.3838 130.07 95.1918 129.914C95.0058 129.758 94.7538 129.68 94.4358 129.68C94.1418 129.68 93.9078 129.743 93.7338 129.869C93.5598 129.995 93.4728 130.16 93.4728 130.364C93.4728 130.526 93.5238 130.661 93.6258 130.769C93.7338 130.871 93.8658 130.955 94.0218 131.021C94.1838 131.081 94.4058 131.15 94.6878 131.228C95.0418 131.324 95.3298 131.42 95.5518 131.516C95.7738 131.606 95.9628 131.744 96.1188 131.93C96.2808 132.116 96.3648 132.359 96.3708 132.659C96.3708 132.929 96.2958 133.172 96.1458 133.388C95.9958 133.604 95.7828 133.775 95.5068 133.901C95.2368 134.021 94.9248 134.081 94.5708 134.081ZM100.745 129.986C100.913 129.692 101.159 129.452 101.483 129.266C101.807 129.08 102.176 128.987 102.59 128.987C103.034 128.987 103.433 129.092 103.787 129.302C104.141 129.512 104.42 129.809 104.624 130.193C104.828 130.571 104.93 131.012 104.93 131.516C104.93 132.014 104.828 132.458 104.624 132.848C104.42 133.238 104.138 133.541 103.778 133.757C103.424 133.973 103.028 134.081 102.59 134.081C102.164 134.081 101.789 133.988 101.465 133.802C101.147 133.616 100.907 133.379 100.745 133.091V134H99.9264V127.34H100.745V129.986ZM104.093 131.516C104.093 131.144 104.018 130.82 103.868 130.544C103.718 130.268 103.514 130.058 103.256 129.914C103.004 129.77 102.725 129.698 102.419 129.698C102.119 129.698 101.84 129.773 101.582 129.923C101.33 130.067 101.126 130.28 100.97 130.562C100.82 130.838 100.745 131.159 100.745 131.525C100.745 131.897 100.82 132.224 100.97 132.506C101.126 132.782 101.33 132.995 101.582 133.145C101.84 133.289 102.119 133.361 102.419 133.361C102.725 133.361 103.004 133.289 103.256 133.145C103.514 132.995 103.718 132.782 103.868 132.506C104.018 132.224 104.093 131.894 104.093 131.516ZM110.508 131.345C110.508 131.501 110.499 131.666 110.481 131.84H106.539C106.569 132.326 106.734 132.707 107.034 132.983C107.34 133.253 107.709 133.388 108.141 133.388C108.495 133.388 108.789 133.307 109.023 133.145C109.263 132.977 109.431 132.755 109.527 132.479H110.409C110.277 132.953 110.013 133.34 109.617 133.64C109.221 133.934 108.729 134.081 108.141 134.081C107.673 134.081 107.253 133.976 106.881 133.766C106.515 133.556 106.227 133.259 106.017 132.875C105.807 132.485 105.702 132.035 105.702 131.525C105.702 131.015 105.804 130.568 106.008 130.184C106.212 129.8 106.497 129.506 106.863 129.302C107.235 129.092 107.661 128.987 108.141 128.987C108.609 128.987 109.023 129.089 109.383 129.293C109.743 129.497 110.019 129.779 110.211 130.139C110.409 130.493 110.508 130.895 110.508 131.345ZM109.662 131.174C109.662 130.862 109.593 130.595 109.455 130.373C109.317 130.145 109.128 129.974 108.888 129.86C108.654 129.74 108.393 129.68 108.105 129.68C107.691 129.68 107.337 129.812 107.043 130.076C106.755 130.34 106.59 130.706 106.548 131.174H109.662ZM116.089 131.345C116.089 131.501 116.08 131.666 116.062 131.84H112.12C112.15 132.326 112.315 132.707 112.615 132.983C112.921 133.253 113.29 133.388 113.722 133.388C114.076 133.388 114.37 133.307 114.604 133.145C114.844 132.977 115.012 132.755 115.108 132.479H115.99C115.858 132.953 115.594 133.34 115.198 133.64C114.802 133.934 114.31 134.081 113.722 134.081C113.254 134.081 112.834 133.976 112.462 133.766C112.096 133.556 111.808 133.259 111.598 132.875C111.388 132.485 111.283 132.035 111.283 131.525C111.283 131.015 111.385 130.568 111.589 130.184C111.793 129.8 112.078 129.506 112.444 129.302C112.816 129.092 113.242 128.987 113.722 128.987C114.19 128.987 114.604 129.089 114.964 129.293C115.324 129.497 115.6 129.779 115.792 130.139C115.99 130.493 116.089 130.895 116.089 131.345ZM115.243 131.174C115.243 130.862 115.174 130.595 115.036 130.373C114.898 130.145 114.709 129.974 114.469 129.86C114.235 129.74 113.974 129.68 113.686 129.68C113.272 129.68 112.918 129.812 112.624 130.076C112.336 130.34 112.171 130.706 112.129 131.174H115.243ZM119.574 128.978C120.174 128.978 120.66 129.161 121.032 129.527C121.404 129.887 121.59 130.409 121.59 131.093V134H120.78V131.21C120.78 130.718 120.657 130.343 120.411 130.085C120.165 129.821 119.829 129.689 119.403 129.689C118.971 129.689 118.626 129.824 118.368 130.094C118.116 130.364 117.99 130.757 117.99 131.273V134H117.171V129.068H117.99V129.77C118.152 129.518 118.371 129.323 118.647 129.185C118.929 129.047 119.238 128.978 119.574 128.978ZM127.073 134.081C126.695 134.081 126.356 134.018 126.056 133.892C125.756 133.76 125.519 133.58 125.345 133.352C125.171 133.118 125.075 132.851 125.057 132.551H125.903C125.927 132.797 126.041 132.998 126.245 133.154C126.455 133.31 126.728 133.388 127.064 133.388C127.376 133.388 127.622 133.319 127.802 133.181C127.982 133.043 128.072 132.869 128.072 132.659C128.072 132.443 127.976 132.284 127.784 132.182C127.592 132.074 127.295 131.969 126.893 131.867C126.527 131.771 126.227 131.675 125.993 131.579C125.765 131.477 125.567 131.33 125.399 131.138C125.237 130.94 125.156 130.682 125.156 130.364C125.156 130.112 125.231 129.881 125.381 129.671C125.531 129.461 125.744 129.296 126.02 129.176C126.296 129.05 126.611 128.987 126.965 128.987C127.511 128.987 127.952 129.125 128.288 129.401C128.624 129.677 128.804 130.055 128.828 130.535H128.009C127.991 130.277 127.886 130.07 127.694 129.914C127.508 129.758 127.256 129.68 126.938 129.68C126.644 129.68 126.41 129.743 126.236 129.869C126.062 129.995 125.975 130.16 125.975 130.364C125.975 130.526 126.026 130.661 126.128 130.769C126.236 130.871 126.368 130.955 126.524 131.021C126.686 131.081 126.908 131.15 127.19 131.228C127.544 131.324 127.832 131.42 128.054 131.516C128.276 131.606 128.465 131.744 128.621 131.93C128.783 132.116 128.867 132.359 128.873 132.659C128.873 132.929 128.798 133.172 128.648 133.388C128.498 133.604 128.285 133.775 128.009 133.901C127.739 134.021 127.427 134.081 127.073 134.081ZM134.403 129.068V134H133.584V133.271C133.428 133.523 133.209 133.721 132.927 133.865C132.651 134.003 132.345 134.072 132.009 134.072C131.625 134.072 131.28 133.994 130.974 133.838C130.668 133.676 130.425 133.436 130.245 133.118C130.071 132.8 129.984 132.413 129.984 131.957V129.068H130.794V131.849C130.794 132.335 130.917 132.71 131.163 132.974C131.409 133.232 131.745 133.361 132.171 133.361C132.609 133.361 132.954 133.226 133.206 132.956C133.458 132.686 133.584 132.293 133.584 131.777V129.068H134.403ZM135.48 131.525C135.48 131.015 135.582 130.571 135.786 130.193C135.99 129.809 136.272 129.512 136.632 129.302C136.998 129.092 137.415 128.987 137.883 128.987C138.489 128.987 138.987 129.134 139.377 129.428C139.773 129.722 140.034 130.13 140.16 130.652H139.278C139.194 130.352 139.029 130.115 138.783 129.941C138.543 129.767 138.243 129.68 137.883 129.68C137.415 129.68 137.037 129.842 136.749 130.166C136.461 130.484 136.317 130.937 136.317 131.525C136.317 132.119 136.461 132.578 136.749 132.902C137.037 133.226 137.415 133.388 137.883 133.388C138.243 133.388 138.543 133.304 138.783 133.136C139.023 132.968 139.188 132.728 139.278 132.416H140.16C140.028 132.92 139.764 133.325 139.368 133.631C138.972 133.931 138.477 134.081 137.883 134.081C137.415 134.081 136.998 133.976 136.632 133.766C136.272 133.556 135.99 133.259 135.786 132.875C135.582 132.491 135.48 132.041 135.48 131.525ZM140.947 131.525C140.947 131.015 141.049 130.571 141.253 130.193C141.457 129.809 141.739 129.512 142.099 129.302C142.465 129.092 142.882 128.987 143.35 128.987C143.956 128.987 144.454 129.134 144.844 129.428C145.24 129.722 145.501 130.13 145.627 130.652H144.745C144.661 130.352 144.496 130.115 144.25 129.941C144.01 129.767 143.71 129.68 143.35 129.68C142.882 129.68 142.504 129.842 142.216 130.166C141.928 130.484 141.784 130.937 141.784 131.525C141.784 132.119 141.928 132.578 142.216 132.902C142.504 133.226 142.882 133.388 143.35 133.388C143.71 133.388 144.01 133.304 144.25 133.136C144.49 132.968 144.655 132.728 144.745 132.416H145.627C145.495 132.92 145.231 133.325 144.835 133.631C144.439 133.931 143.944 134.081 143.35 134.081C142.882 134.081 142.465 133.976 142.099 133.766C141.739 133.556 141.457 133.259 141.253 132.875C141.049 132.491 140.947 132.041 140.947 131.525ZM151.219 131.345C151.219 131.501 151.21 131.666 151.192 131.84H147.25C147.28 132.326 147.445 132.707 147.745 132.983C148.051 133.253 148.42 133.388 148.852 133.388C149.206 133.388 149.5 133.307 149.734 133.145C149.974 132.977 150.142 132.755 150.238 132.479H151.12C150.988 132.953 150.724 133.34 150.328 133.64C149.932 133.934 149.44 134.081 148.852 134.081C148.384 134.081 147.964 133.976 147.592 133.766C147.226 133.556 146.938 133.259 146.728 132.875C146.518 132.485 146.413 132.035 146.413 131.525C146.413 131.015 146.515 130.568 146.719 130.184C146.923 129.8 147.208 129.506 147.574 129.302C147.946 129.092 148.372 128.987 148.852 128.987C149.32 128.987 149.734 129.089 150.094 129.293C150.454 129.497 150.73 129.779 150.922 130.139C151.12 130.493 151.219 130.895 151.219 131.345ZM150.373 131.174C150.373 130.862 150.304 130.595 150.166 130.373C150.028 130.145 149.839 129.974 149.599 129.86C149.365 129.74 149.104 129.68 148.816 129.68C148.402 129.68 148.048 129.812 147.754 130.076C147.466 130.34 147.301 130.706 147.259 131.174H150.373ZM154.046 134.081C153.668 134.081 153.329 134.018 153.029 133.892C152.729 133.76 152.492 133.58 152.318 133.352C152.144 133.118 152.048 132.851 152.03 132.551H152.876C152.9 132.797 153.014 132.998 153.218 133.154C153.428 133.31 153.701 133.388 154.037 133.388C154.349 133.388 154.595 133.319 154.775 133.181C154.955 133.043 155.045 132.869 155.045 132.659C155.045 132.443 154.949 132.284 154.757 132.182C154.565 132.074 154.268 131.969 153.866 131.867C153.5 131.771 153.2 131.675 152.966 131.579C152.738 131.477 152.54 131.33 152.372 131.138C152.21 130.94 152.129 130.682 152.129 130.364C152.129 130.112 152.204 129.881 152.354 129.671C152.504 129.461 152.717 129.296 152.993 129.176C153.269 129.05 153.584 128.987 153.938 128.987C154.484 128.987 154.925 129.125 155.261 129.401C155.597 129.677 155.777 130.055 155.801 130.535H154.982C154.964 130.277 154.859 130.07 154.667 129.914C154.481 129.758 154.229 129.68 153.911 129.68C153.617 129.68 153.383 129.743 153.209 129.869C153.035 129.995 152.948 130.16 152.948 130.364C152.948 130.526 152.999 130.661 153.101 130.769C153.209 130.871 153.341 130.955 153.497 131.021C153.659 131.081 153.881 131.15 154.163 131.228C154.517 131.324 154.805 131.42 155.027 131.516C155.249 131.606 155.438 131.744 155.594 131.93C155.756 132.116 155.84 132.359 155.846 132.659C155.846 132.929 155.771 133.172 155.621 133.388C155.471 133.604 155.258 133.775 154.982 133.901C154.712 134.021 154.4 134.081 154.046 134.081ZM158.749 134.081C158.371 134.081 158.032 134.018 157.732 133.892C157.432 133.76 157.195 133.58 157.021 133.352C156.847 133.118 156.751 132.851 156.733 132.551H157.579C157.603 132.797 157.717 132.998 157.921 133.154C158.131 133.31 158.404 133.388 158.74 133.388C159.052 133.388 159.298 133.319 159.478 133.181C159.658 133.043 159.748 132.869 159.748 132.659C159.748 132.443 159.652 132.284 159.46 132.182C159.268 132.074 158.971 131.969 158.569 131.867C158.203 131.771 157.903 131.675 157.669 131.579C157.441 131.477 157.243 131.33 157.075 131.138C156.913 130.94 156.832 130.682 156.832 130.364C156.832 130.112 156.907 129.881 157.057 129.671C157.207 129.461 157.42 129.296 157.696 129.176C157.972 129.05 158.287 128.987 158.641 128.987C159.187 128.987 159.628 129.125 159.964 129.401C160.3 129.677 160.48 130.055 160.504 130.535H159.685C159.667 130.277 159.562 130.07 159.37 129.914C159.184 129.758 158.932 129.68 158.614 129.68C158.32 129.68 158.086 129.743 157.912 129.869C157.738 129.995 157.651 130.16 157.651 130.364C157.651 130.526 157.702 130.661 157.804 130.769C157.912 130.871 158.044 130.955 158.2 131.021C158.362 131.081 158.584 131.15 158.866 131.228C159.22 131.324 159.508 131.42 159.73 131.516C159.952 131.606 160.141 131.744 160.297 131.93C160.459 132.116 160.543 132.359 160.549 132.659C160.549 132.929 160.474 133.172 160.324 133.388C160.174 133.604 159.961 133.775 159.685 133.901C159.415 134.021 159.103 134.081 158.749 134.081ZM163.712 129.743H162.677V134H161.858V129.743H161.219V129.068H161.858V128.717C161.858 128.165 161.999 127.763 162.281 127.511C162.569 127.253 163.028 127.124 163.658 127.124V127.808C163.298 127.808 163.043 127.88 162.893 128.024C162.749 128.162 162.677 128.393 162.677 128.717V129.068H163.712V129.743ZM169.041 129.068V134H168.222V133.271C168.066 133.523 167.847 133.721 167.565 133.865C167.289 134.003 166.983 134.072 166.647 134.072C166.263 134.072 165.918 133.994 165.612 133.838C165.306 133.676 165.063 133.436 164.883 133.118C164.709 132.8 164.622 132.413 164.622 131.957V129.068H165.432V131.849C165.432 132.335 165.555 132.71 165.801 132.974C166.047 133.232 166.383 133.361 166.809 133.361C167.247 133.361 167.592 133.226 167.844 132.956C168.096 132.686 168.222 132.293 168.222 131.777V129.068H169.041ZM171.242 127.34V134H170.423V127.34H171.242ZM173.457 127.34V134H172.638V127.34H173.457ZM179.101 129.068L176.131 136.322H175.285L176.257 133.946L174.268 129.068H175.177L176.725 133.064L178.255 129.068H179.101ZM182.018 131.525C182.018 131.015 182.12 130.571 182.324 130.193C182.528 129.809 182.81 129.512 183.17 129.302C183.536 129.092 183.953 128.987 184.421 128.987C185.027 128.987 185.525 129.134 185.915 129.428C186.311 129.722 186.572 130.13 186.698 130.652H185.816C185.732 130.352 185.567 130.115 185.321 129.941C185.081 129.767 184.781 129.68 184.421 129.68C183.953 129.68 183.575 129.842 183.287 130.166C182.999 130.484 182.855 130.937 182.855 131.525C182.855 132.119 182.999 132.578 183.287 132.902C183.575 133.226 183.953 133.388 184.421 133.388C184.781 133.388 185.081 133.304 185.321 133.136C185.561 132.968 185.726 132.728 185.816 132.416H186.698C186.566 132.92 186.302 133.325 185.906 133.631C185.51 133.931 185.015 134.081 184.421 134.081C183.953 134.081 183.536 133.976 183.17 133.766C182.81 133.556 182.528 133.259 182.324 132.875C182.12 132.491 182.018 132.041 182.018 131.525ZM188.61 129.869C188.754 129.587 188.958 129.368 189.222 129.212C189.492 129.056 189.819 128.978 190.203 128.978V129.824H189.987C189.069 129.824 188.61 130.322 188.61 131.318V134H187.791V129.068H188.61V129.869ZM195.648 131.345C195.648 131.501 195.639 131.666 195.621 131.84H191.679C191.709 132.326 191.874 132.707 192.174 132.983C192.48 133.253 192.849 133.388 193.281 133.388C193.635 133.388 193.929 133.307 194.163 133.145C194.403 132.977 194.571 132.755 194.667 132.479H195.549C195.417 132.953 195.153 133.34 194.757 133.64C194.361 133.934 193.869 134.081 193.281 134.081C192.813 134.081 192.393 133.976 192.021 133.766C191.655 133.556 191.367 133.259 191.157 132.875C190.947 132.485 190.842 132.035 190.842 131.525C190.842 131.015 190.944 130.568 191.148 130.184C191.352 129.8 191.637 129.506 192.003 129.302C192.375 129.092 192.801 128.987 193.281 128.987C193.749 128.987 194.163 129.089 194.523 129.293C194.883 129.497 195.159 129.779 195.351 130.139C195.549 130.493 195.648 130.895 195.648 131.345ZM194.802 131.174C194.802 130.862 194.733 130.595 194.595 130.373C194.457 130.145 194.268 129.974 194.028 129.86C193.794 129.74 193.533 129.68 193.245 129.68C192.831 129.68 192.477 129.812 192.183 130.076C191.895 130.34 191.73 130.706 191.688 131.174H194.802ZM196.423 131.516C196.423 131.012 196.525 130.571 196.729 130.193C196.933 129.809 197.212 129.512 197.566 129.302C197.926 129.092 198.325 128.987 198.763 128.987C199.195 128.987 199.57 129.08 199.888 129.266C200.206 129.452 200.443 129.686 200.599 129.968V129.068H201.427V134H200.599V133.082C200.437 133.37 200.194 133.61 199.87 133.802C199.552 133.988 199.18 134.081 198.754 134.081C198.316 134.081 197.92 133.973 197.566 133.757C197.212 133.541 196.933 133.238 196.729 132.848C196.525 132.458 196.423 132.014 196.423 131.516ZM200.599 131.525C200.599 131.153 200.524 130.829 200.374 130.553C200.224 130.277 200.02 130.067 199.762 129.923C199.51 129.773 199.231 129.698 198.925 129.698C198.619 129.698 198.34 129.77 198.088 129.914C197.836 130.058 197.635 130.268 197.485 130.544C197.335 130.82 197.26 131.144 197.26 131.516C197.26 131.894 197.335 132.224 197.485 132.506C197.635 132.782 197.836 132.995 198.088 133.145C198.34 133.289 198.619 133.361 198.925 133.361C199.231 133.361 199.51 133.289 199.762 133.145C200.02 132.995 200.224 132.782 200.374 132.506C200.524 132.224 200.599 131.897 200.599 131.525ZM203.81 129.743V132.65C203.81 132.89 203.861 133.061 203.963 133.163C204.065 133.259 204.242 133.307 204.494 133.307H205.097V134H204.359C203.903 134 203.561 133.895 203.333 133.685C203.105 133.475 202.991 133.13 202.991 132.65V129.743H202.352V129.068H202.991V127.826H203.81V129.068H205.097V129.743H203.81ZM210.589 131.345C210.589 131.501 210.58 131.666 210.562 131.84H206.62C206.65 132.326 206.815 132.707 207.115 132.983C207.421 133.253 207.79 133.388 208.222 133.388C208.576 133.388 208.87 133.307 209.104 133.145C209.344 132.977 209.512 132.755 209.608 132.479H210.49C210.358 132.953 210.094 133.34 209.698 133.64C209.302 133.934 208.81 134.081 208.222 134.081C207.754 134.081 207.334 133.976 206.962 133.766C206.596 133.556 206.308 133.259 206.098 132.875C205.888 132.485 205.783 132.035 205.783 131.525C205.783 131.015 205.885 130.568 206.089 130.184C206.293 129.8 206.578 129.506 206.944 129.302C207.316 129.092 207.742 128.987 208.222 128.987C208.69 128.987 209.104 129.089 209.464 129.293C209.824 129.497 210.1 129.779 210.292 130.139C210.49 130.493 210.589 130.895 210.589 131.345ZM209.743 131.174C209.743 130.862 209.674 130.595 209.536 130.373C209.398 130.145 209.209 129.974 208.969 129.86C208.735 129.74 208.474 129.68 208.186 129.68C207.772 129.68 207.418 129.812 207.124 130.076C206.836 130.34 206.671 130.706 206.629 131.174H209.743ZM211.365 131.516C211.365 131.012 211.467 130.571 211.671 130.193C211.875 129.809 212.154 129.512 212.508 129.302C212.868 129.092 213.27 128.987 213.714 128.987C214.098 128.987 214.455 129.077 214.785 129.257C215.115 129.431 215.367 129.662 215.541 129.95V127.34H216.369V134H215.541V133.073C215.379 133.367 215.139 133.61 214.821 133.802C214.503 133.988 214.131 134.081 213.705 134.081C213.267 134.081 212.868 133.973 212.508 133.757C212.154 133.541 211.875 133.238 211.671 132.848C211.467 132.458 211.365 132.014 211.365 131.516ZM215.541 131.525C215.541 131.153 215.466 130.829 215.316 130.553C215.166 130.277 214.962 130.067 214.704 129.923C214.452 129.773 214.173 129.698 213.867 129.698C213.561 129.698 213.282 129.77 213.03 129.914C212.778 130.058 212.577 130.268 212.427 130.544C212.277 130.82 212.202 131.144 212.202 131.516C212.202 131.894 212.277 132.224 212.427 132.506C212.577 132.782 212.778 132.995 213.03 133.145C213.282 133.289 213.561 133.361 213.867 133.361C214.173 133.361 214.452 133.289 214.704 133.145C214.962 132.995 215.166 132.782 215.316 132.506C215.466 132.224 215.541 131.897 215.541 131.525Z" fill="#C4C4C4"/>
<g clip-path="url(#clip0)">
<path d="M97 51.2332L120.971 75.25L167 29.2666L160.392 22.7498L120.971 62.1247L103.517 44.6705L97 51.2332Z" fill="#34D330"/>
</g>
<g clip-path="url(#clip1)">
<path d="M243.283 13.0118L248.734 7.56032C249.089 7.20572 249.089 6.63239 248.734 6.27779C248.379 5.92319 247.806 5.92319 247.451 6.27779L242 11.7293L236.549 6.27779C236.194 5.92319 235.621 5.92319 235.266 6.27779C234.911 6.63239 234.911 7.20572 235.266 7.56032L240.717 13.0118L235.266 18.4633C234.911 18.8179 234.911 19.3912 235.266 19.7458C235.443 19.9227 235.675 20.0116 235.907 20.0116C236.14 20.0116 236.372 19.9227 236.549 19.7458L242 14.2943L247.451 19.7458C247.628 19.9227 247.86 20.0116 248.093 20.0116C248.325 20.0116 248.557 19.9227 248.734 19.7458C249.089 19.3912 249.089 18.8179 248.734 18.4633L243.283 13.0118Z" fill="#C4C4C4"/>
</g>
<defs>
<clipPath id="clip0">
<rect width="70" height="70" fill="white" transform="translate(97 14)"/>
</clipPath>
<clipPath id="clip1">
<rect width="14" height="14" fill="white" transform="translate(235 6)"/>
</clipPath>
</defs>
</svg>
