<svg width="255" height="196" viewBox="0 0 255 196" fill="none" xmlns="http://www.w3.org/2000/svg">
<rect width="255" height="196" fill="white"/>
<path d="M62.576 108.084C62.024 108.084 61.528 107.988 61.088 107.796C60.656 107.596 60.316 107.324 60.068 106.98C59.82 106.628 59.692 106.224 59.684 105.768H60.848C60.888 106.16 61.048 106.492 61.328 106.764C61.616 107.028 62.032 107.16 62.576 107.16C63.096 107.16 63.504 107.032 63.8 106.776C64.104 106.512 64.256 106.176 64.256 105.768C64.256 105.448 64.168 105.188 63.992 104.988C63.816 104.788 63.596 104.636 63.332 104.532C63.068 104.428 62.712 104.316 62.264 104.196C61.712 104.052 61.268 103.908 60.932 103.764C60.604 103.62 60.32 103.396 60.08 103.092C59.848 102.78 59.732 102.364 59.732 101.844C59.732 101.388 59.848 100.984 60.08 100.632C60.312 100.28 60.636 100.008 61.052 99.816C61.476 99.624 61.96 99.528 62.504 99.528C63.288 99.528 63.928 99.724 64.424 100.116C64.928 100.508 65.212 101.028 65.276 101.676H64.076C64.036 101.356 63.868 101.076 63.572 100.836C63.276 100.588 62.884 100.464 62.396 100.464C61.94 100.464 61.568 100.584 61.28 100.824C60.992 101.056 60.848 101.384 60.848 101.808C60.848 102.112 60.932 102.36 61.1 102.552C61.276 102.744 61.488 102.892 61.736 102.996C61.992 103.092 62.348 103.204 62.804 103.332C63.356 103.484 63.8 103.636 64.136 103.788C64.472 103.932 64.76 104.16 65 104.472C65.24 104.776 65.36 105.192 65.36 105.72C65.36 106.128 65.252 106.512 65.036 106.872C64.82 107.232 64.5 107.524 64.076 107.748C63.652 107.972 63.152 108.084 62.576 108.084ZM72.799 101.424V108H71.707V107.028C71.499 107.364 71.207 107.628 70.831 107.82C70.463 108.004 70.055 108.096 69.607 108.096C69.095 108.096 68.635 107.992 68.227 107.784C67.819 107.568 67.495 107.248 67.255 106.824C67.023 106.4 66.907 105.884 66.907 105.276V101.424H67.987V105.132C67.987 105.78 68.151 106.28 68.479 106.632C68.807 106.976 69.255 107.148 69.823 107.148C70.407 107.148 70.867 106.968 71.203 106.608C71.539 106.248 71.707 105.724 71.707 105.036V101.424H72.799ZM74.2348 104.7C74.2348 104.02 74.3708 103.428 74.6428 102.924C74.9148 102.412 75.2908 102.016 75.7708 101.736C76.2588 101.456 76.8148 101.316 77.4388 101.316C78.2468 101.316 78.9108 101.512 79.4308 101.904C79.9588 102.296 80.3068 102.84 80.4748 103.536H79.2988C79.1868 103.136 78.9668 102.82 78.6388 102.588C78.3188 102.356 77.9188 102.24 77.4388 102.24C76.8148 102.24 76.3108 102.456 75.9268 102.888C75.5428 103.312 75.3508 103.916 75.3508 104.7C75.3508 105.492 75.5428 106.104 75.9268 106.536C76.3108 106.968 76.8148 107.184 77.4388 107.184C77.9188 107.184 78.3188 107.072 78.6388 106.848C78.9588 106.624 79.1788 106.304 79.2988 105.888H80.4748C80.2988 106.56 79.9468 107.1 79.4188 107.508C78.8908 107.908 78.2308 108.108 77.4388 108.108C76.8148 108.108 76.2588 107.968 75.7708 107.688C75.2908 107.408 74.9148 107.012 74.6428 106.5C74.3708 105.988 74.2348 105.388 74.2348 104.7ZM81.5238 104.7C81.5238 104.02 81.6598 103.428 81.9318 102.924C82.2038 102.412 82.5798 102.016 83.0598 101.736C83.5478 101.456 84.1038 101.316 84.7278 101.316C85.5358 101.316 86.1998 101.512 86.7198 101.904C87.2478 102.296 87.5958 102.84 87.7638 103.536H86.5878C86.4758 103.136 86.2558 102.82 85.9278 102.588C85.6078 102.356 85.2078 102.24 84.7278 102.24C84.1038 102.24 83.5998 102.456 83.2158 102.888C82.8318 103.312 82.6398 103.916 82.6398 104.7C82.6398 105.492 82.8318 106.104 83.2158 106.536C83.5998 106.968 84.1038 107.184 84.7278 107.184C85.2078 107.184 85.6078 107.072 85.9278 106.848C86.2478 106.624 86.4678 106.304 86.5878 105.888H87.7638C87.5878 106.56 87.2358 107.1 86.7078 107.508C86.1798 107.908 85.5198 108.108 84.7278 108.108C84.1038 108.108 83.5478 107.968 83.0598 107.688C82.5798 107.408 82.2038 107.012 81.9318 106.5C81.6598 105.988 81.5238 105.388 81.5238 104.7ZM95.2209 104.46C95.2209 104.668 95.2089 104.888 95.1849 105.12H89.9289C89.9689 105.768 90.1889 106.276 90.5889 106.644C90.9969 107.004 91.4889 107.184 92.0649 107.184C92.5369 107.184 92.9289 107.076 93.2409 106.86C93.5609 106.636 93.7849 106.34 93.9129 105.972H95.0889C94.9129 106.604 94.5609 107.12 94.0329 107.52C93.5049 107.912 92.8489 108.108 92.0649 108.108C91.4409 108.108 90.8809 107.968 90.3849 107.688C89.8969 107.408 89.5129 107.012 89.2329 106.5C88.9529 105.98 88.8129 105.38 88.8129 104.7C88.8129 104.02 88.9489 103.424 89.2209 102.912C89.4929 102.4 89.8729 102.008 90.3609 101.736C90.8569 101.456 91.4249 101.316 92.0649 101.316C92.6889 101.316 93.2409 101.452 93.7209 101.724C94.2009 101.996 94.5689 102.372 94.8249 102.852C95.0889 103.324 95.2209 103.86 95.2209 104.46ZM94.0929 104.232C94.0929 103.816 94.0009 103.46 93.8169 103.164C93.6329 102.86 93.3809 102.632 93.0609 102.48C92.7489 102.32 92.4009 102.24 92.0169 102.24C91.4649 102.24 90.9929 102.416 90.6009 102.768C90.2169 103.12 89.9969 103.608 89.9409 104.232H94.0929ZM98.9903 108.108C98.4863 108.108 98.0343 108.024 97.6343 107.856C97.2343 107.68 96.9183 107.44 96.6863 107.136C96.4543 106.824 96.3263 106.468 96.3023 106.068H97.4303C97.4623 106.396 97.6143 106.664 97.8863 106.872C98.1663 107.08 98.5303 107.184 98.9783 107.184C99.3943 107.184 99.7223 107.092 99.9623 106.908C100.202 106.724 100.322 106.492 100.322 106.212C100.322 105.924 100.194 105.712 99.9383 105.576C99.6823 105.432 99.2863 105.292 98.7503 105.156C98.2623 105.028 97.8623 104.9 97.5503 104.772C97.2463 104.636 96.9823 104.44 96.7583 104.184C96.5423 103.92 96.4343 103.576 96.4343 103.152C96.4343 102.816 96.5343 102.508 96.7343 102.228C96.9343 101.948 97.2183 101.728 97.5863 101.568C97.9543 101.4 98.3743 101.316 98.8463 101.316C99.5743 101.316 100.162 101.5 100.61 101.868C101.058 102.236 101.298 102.74 101.33 103.38H100.238C100.214 103.036 100.074 102.76 99.8183 102.552C99.5703 102.344 99.2343 102.24 98.8103 102.24C98.4183 102.24 98.1063 102.324 97.8743 102.492C97.6423 102.66 97.5263 102.88 97.5263 103.152C97.5263 103.368 97.5943 103.548 97.7303 103.692C97.8743 103.828 98.0503 103.94 98.2583 104.028C98.4743 104.108 98.7703 104.2 99.1463 104.304C99.6183 104.432 100.002 104.56 100.298 104.688C100.594 104.808 100.846 104.992 101.054 105.24C101.27 105.488 101.382 105.812 101.39 106.212C101.39 106.572 101.29 106.896 101.09 107.184C100.89 107.472 100.606 107.7 100.238 107.868C99.8783 108.028 99.4623 108.108 98.9903 108.108ZM105.26 108.108C104.756 108.108 104.304 108.024 103.904 107.856C103.504 107.68 103.188 107.44 102.956 107.136C102.724 106.824 102.596 106.468 102.572 106.068H103.7C103.732 106.396 103.884 106.664 104.156 106.872C104.436 107.08 104.8 107.184 105.248 107.184C105.664 107.184 105.992 107.092 106.232 106.908C106.472 106.724 106.592 106.492 106.592 106.212C106.592 105.924 106.464 105.712 106.208 105.576C105.952 105.432 105.556 105.292 105.02 105.156C104.532 105.028 104.132 104.9 103.82 104.772C103.516 104.636 103.252 104.44 103.028 104.184C102.812 103.92 102.704 103.576 102.704 103.152C102.704 102.816 102.804 102.508 103.004 102.228C103.204 101.948 103.488 101.728 103.856 101.568C104.224 101.4 104.644 101.316 105.116 101.316C105.844 101.316 106.432 101.5 106.88 101.868C107.328 102.236 107.568 102.74 107.6 103.38H106.508C106.484 103.036 106.344 102.76 106.088 102.552C105.84 102.344 105.504 102.24 105.08 102.24C104.688 102.24 104.376 102.324 104.144 102.492C103.912 102.66 103.796 102.88 103.796 103.152C103.796 103.368 103.864 103.548 104 103.692C104.144 103.828 104.32 103.94 104.528 104.028C104.744 104.108 105.04 104.2 105.416 104.304C105.888 104.432 106.272 104.56 106.568 104.688C106.864 104.808 107.116 104.992 107.324 105.24C107.54 105.488 107.652 105.812 107.66 106.212C107.66 106.572 107.56 106.896 107.36 107.184C107.16 107.472 106.876 107.7 106.508 107.868C106.148 108.028 105.732 108.108 105.26 108.108ZM111.877 102.324H110.497V108H109.405V102.324H108.553V101.424H109.405V100.956C109.405 100.22 109.593 99.684 109.969 99.348C110.353 99.004 110.965 98.832 111.805 98.832V99.744C111.325 99.744 110.985 99.84 110.785 100.032C110.593 100.216 110.497 100.524 110.497 100.956V101.424H111.877V102.324ZM118.983 101.424V108H117.891V107.028C117.683 107.364 117.391 107.628 117.015 107.82C116.647 108.004 116.239 108.096 115.791 108.096C115.279 108.096 114.819 107.992 114.411 107.784C114.003 107.568 113.679 107.248 113.439 106.824C113.207 106.4 113.091 105.884 113.091 105.276V101.424H114.171V105.132C114.171 105.78 114.335 106.28 114.663 106.632C114.991 106.976 115.439 107.148 116.007 107.148C116.591 107.148 117.051 106.968 117.387 106.608C117.723 106.248 117.891 105.724 117.891 105.036V101.424H118.983ZM121.918 99.12V108H120.826V99.12H121.918ZM124.871 99.12V108H123.779V99.12H124.871ZM133.724 108.084C132.948 108.084 132.24 107.904 131.6 107.544C130.96 107.176 130.452 106.668 130.076 106.02C129.708 105.364 129.524 104.628 129.524 103.812C129.524 102.996 129.708 102.264 130.076 101.616C130.452 100.96 130.96 100.452 131.6 100.092C132.24 99.724 132.948 99.54 133.724 99.54C134.508 99.54 135.22 99.724 135.86 100.092C136.5 100.452 137.004 100.956 137.372 101.604C137.74 102.252 137.924 102.988 137.924 103.812C137.924 104.636 137.74 105.372 137.372 106.02C137.004 106.668 136.5 107.176 135.86 107.544C135.22 107.904 134.508 108.084 133.724 108.084ZM133.724 107.136C134.308 107.136 134.832 107 135.296 106.728C135.768 106.456 136.136 106.068 136.4 105.564C136.672 105.06 136.808 104.476 136.808 103.812C136.808 103.14 136.672 102.556 136.4 102.06C136.136 101.556 135.772 101.168 135.308 100.896C134.844 100.624 134.316 100.488 133.724 100.488C133.132 100.488 132.604 100.624 132.14 100.896C131.676 101.168 131.308 101.556 131.036 102.06C130.772 102.556 130.64 103.14 130.64 103.812C130.64 104.476 130.772 105.06 131.036 105.564C131.308 106.068 131.676 106.456 132.14 106.728C132.612 107 133.14 107.136 133.724 107.136ZM140.457 102.636C140.673 102.26 140.993 101.948 141.417 101.7C141.849 101.444 142.349 101.316 142.917 101.316C143.501 101.316 144.029 101.456 144.501 101.736C144.981 102.016 145.357 102.412 145.629 102.924C145.901 103.428 146.037 104.016 146.037 104.688C146.037 105.352 145.901 105.944 145.629 106.464C145.357 106.984 144.981 107.388 144.501 107.676C144.029 107.964 143.501 108.108 142.917 108.108C142.357 108.108 141.861 107.984 141.429 107.736C141.005 107.48 140.681 107.164 140.457 106.788V111.12H139.365V101.424H140.457V102.636ZM144.921 104.688C144.921 104.192 144.821 103.76 144.621 103.392C144.421 103.024 144.149 102.744 143.805 102.552C143.469 102.36 143.097 102.264 142.689 102.264C142.289 102.264 141.917 102.364 141.573 102.564C141.237 102.756 140.965 103.04 140.757 103.416C140.557 103.784 140.457 104.212 140.457 104.7C140.457 105.196 140.557 105.632 140.757 106.008C140.965 106.376 141.237 106.66 141.573 106.86C141.917 107.052 142.289 107.148 142.689 107.148C143.097 107.148 143.469 107.052 143.805 106.86C144.149 106.66 144.421 106.376 144.621 106.008C144.821 105.632 144.921 105.192 144.921 104.688ZM153.475 104.46C153.475 104.668 153.463 104.888 153.439 105.12H148.183C148.223 105.768 148.443 106.276 148.843 106.644C149.251 107.004 149.743 107.184 150.319 107.184C150.791 107.184 151.183 107.076 151.495 106.86C151.815 106.636 152.039 106.34 152.167 105.972H153.343C153.167 106.604 152.815 107.12 152.287 107.52C151.759 107.912 151.103 108.108 150.319 108.108C149.695 108.108 149.135 107.968 148.639 107.688C148.151 107.408 147.767 107.012 147.487 106.5C147.207 105.98 147.067 105.38 147.067 104.7C147.067 104.02 147.203 103.424 147.475 102.912C147.747 102.4 148.127 102.008 148.615 101.736C149.111 101.456 149.679 101.316 150.319 101.316C150.943 101.316 151.495 101.452 151.975 101.724C152.455 101.996 152.823 102.372 153.079 102.852C153.343 103.324 153.475 103.86 153.475 104.46ZM152.347 104.232C152.347 103.816 152.255 103.46 152.071 103.164C151.887 102.86 151.635 102.632 151.315 102.48C151.003 102.32 150.655 102.24 150.271 102.24C149.719 102.24 149.247 102.416 148.855 102.768C148.471 103.12 148.251 103.608 148.195 104.232H152.347ZM156.008 102.492C156.2 102.116 156.472 101.824 156.824 101.616C157.184 101.408 157.62 101.304 158.132 101.304V102.432H157.844C156.62 102.432 156.008 103.096 156.008 104.424V108H154.916V101.424H156.008V102.492ZM158.985 104.688C158.985 104.016 159.121 103.428 159.393 102.924C159.665 102.412 160.037 102.016 160.509 101.736C160.989 101.456 161.521 101.316 162.105 101.316C162.681 101.316 163.181 101.44 163.605 101.688C164.029 101.936 164.345 102.248 164.553 102.624V101.424H165.657V108H164.553V106.776C164.337 107.16 164.013 107.48 163.581 107.736C163.157 107.984 162.661 108.108 162.093 108.108C161.509 108.108 160.981 107.964 160.509 107.676C160.037 107.388 159.665 106.984 159.393 106.464C159.121 105.944 158.985 105.352 158.985 104.688ZM164.553 104.7C164.553 104.204 164.453 103.772 164.253 103.404C164.053 103.036 163.781 102.756 163.437 102.564C163.101 102.364 162.729 102.264 162.321 102.264C161.913 102.264 161.541 102.36 161.205 102.552C160.869 102.744 160.601 103.024 160.401 103.392C160.201 103.76 160.101 104.192 160.101 104.688C160.101 105.192 160.201 105.632 160.401 106.008C160.601 106.376 160.869 106.66 161.205 106.86C161.541 107.052 161.913 107.148 162.321 107.148C162.729 107.148 163.101 107.052 163.437 106.86C163.781 106.66 164.053 106.376 164.253 106.008C164.453 105.632 164.553 105.196 164.553 104.7ZM168.834 102.324V106.2C168.834 106.52 168.902 106.748 169.038 106.884C169.174 107.012 169.41 107.076 169.746 107.076H170.55V108H169.566C168.958 108 168.502 107.86 168.198 107.58C167.894 107.3 167.742 106.84 167.742 106.2V102.324H166.89V101.424H167.742V99.768H168.834V101.424H170.55V102.324H168.834ZM172.437 100.356C172.229 100.356 172.053 100.284 171.909 100.14C171.765 99.996 171.693 99.82 171.693 99.612C171.693 99.404 171.765 99.228 171.909 99.084C172.053 98.94 172.229 98.868 172.437 98.868C172.637 98.868 172.805 98.94 172.941 99.084C173.085 99.228 173.157 99.404 173.157 99.612C173.157 99.82 173.085 99.996 172.941 100.14C172.805 100.284 172.637 100.356 172.437 100.356ZM172.965 101.424V108H171.873V101.424H172.965ZM177.694 108.108C177.078 108.108 176.518 107.968 176.014 107.688C175.518 107.408 175.126 107.012 174.838 106.5C174.558 105.98 174.418 105.38 174.418 104.7C174.418 104.028 174.562 103.436 174.85 102.924C175.146 102.404 175.546 102.008 176.05 101.736C176.554 101.456 177.118 101.316 177.742 101.316C178.366 101.316 178.93 101.456 179.434 101.736C179.938 102.008 180.334 102.4 180.622 102.912C180.918 103.424 181.066 104.02 181.066 104.7C181.066 105.38 180.914 105.98 180.61 106.5C180.314 107.012 179.91 107.408 179.398 107.688C178.886 107.968 178.318 108.108 177.694 108.108ZM177.694 107.148C178.086 107.148 178.454 107.056 178.798 106.872C179.142 106.688 179.418 106.412 179.626 106.044C179.842 105.676 179.95 105.228 179.95 104.7C179.95 104.172 179.846 103.724 179.638 103.356C179.43 102.988 179.158 102.716 178.822 102.54C178.486 102.356 178.122 102.264 177.73 102.264C177.33 102.264 176.962 102.356 176.626 102.54C176.298 102.716 176.034 102.988 175.834 103.356C175.634 103.724 175.534 104.172 175.534 104.7C175.534 105.236 175.63 105.688 175.822 106.056C176.022 106.424 176.286 106.7 176.614 106.884C176.942 107.06 177.302 107.148 177.694 107.148ZM185.706 101.304C186.506 101.304 187.154 101.548 187.65 102.036C188.146 102.516 188.394 103.212 188.394 104.124V108H187.314V104.28C187.314 103.624 187.15 103.124 186.822 102.78C186.494 102.428 186.046 102.252 185.478 102.252C184.902 102.252 184.442 102.432 184.098 102.792C183.762 103.152 183.594 103.676 183.594 104.364V108H182.502V101.424H183.594V102.36C183.81 102.024 184.102 101.764 184.47 101.58C184.846 101.396 185.258 101.304 185.706 101.304Z" fill="#34D330"/>
<path d="M44.0086 127.727V128.393H42.2986V134H41.4796V128.393H39.7606V127.727H44.0086ZM47.4647 128.978C47.8367 128.978 48.1727 129.059 48.4727 129.221C48.7727 129.377 49.0067 129.614 49.1747 129.932C49.3487 130.25 49.4357 130.637 49.4357 131.093V134H48.6257V131.21C48.6257 130.718 48.5027 130.343 48.2567 130.085C48.0107 129.821 47.6747 129.689 47.2487 129.689C46.8167 129.689 46.4717 129.824 46.2137 130.094C45.9617 130.364 45.8357 130.757 45.8357 131.273V134H45.0167V127.34H45.8357V129.77C45.9977 129.518 46.2197 129.323 46.5017 129.185C46.7897 129.047 47.1107 128.978 47.4647 128.978ZM55.2736 131.345C55.2736 131.501 55.2646 131.666 55.2466 131.84H51.3046C51.3346 132.326 51.4996 132.707 51.7996 132.983C52.1056 133.253 52.4746 133.388 52.9066 133.388C53.2606 133.388 53.5546 133.307 53.7886 133.145C54.0286 132.977 54.1966 132.755 54.2926 132.479H55.1746C55.0426 132.953 54.7786 133.34 54.3826 133.64C53.9866 133.934 53.4946 134.081 52.9066 134.081C52.4386 134.081 52.0186 133.976 51.6466 133.766C51.2806 133.556 50.9926 133.259 50.7826 132.875C50.5726 132.485 50.4676 132.035 50.4676 131.525C50.4676 131.015 50.5696 130.568 50.7736 130.184C50.9776 129.8 51.2626 129.506 51.6286 129.302C52.0006 129.092 52.4266 128.987 52.9066 128.987C53.3746 128.987 53.7886 129.089 54.1486 129.293C54.5086 129.497 54.7846 129.779 54.9766 130.139C55.1746 130.493 55.2736 130.895 55.2736 131.345ZM54.4276 131.174C54.4276 130.862 54.3586 130.595 54.2206 130.373C54.0826 130.145 53.8936 129.974 53.6536 129.86C53.4196 129.74 53.1586 129.68 52.8706 129.68C52.4566 129.68 52.1026 129.812 51.8086 130.076C51.5206 130.34 51.3556 130.706 51.3136 131.174H54.4276ZM59.177 128.267C59.021 128.267 58.889 128.213 58.781 128.105C58.673 127.997 58.619 127.865 58.619 127.709C58.619 127.553 58.673 127.421 58.781 127.313C58.889 127.205 59.021 127.151 59.177 127.151C59.327 127.151 59.453 127.205 59.555 127.313C59.663 127.421 59.717 127.553 59.717 127.709C59.717 127.865 59.663 127.997 59.555 128.105C59.453 128.213 59.327 128.267 59.177 128.267ZM59.573 129.068V134H58.754V129.068H59.573ZM61.9679 129.743V132.65C61.9679 132.89 62.0189 133.061 62.1209 133.163C62.2229 133.259 62.3999 133.307 62.6519 133.307H63.2549V134H62.5169C62.0609 134 61.7189 133.895 61.4909 133.685C61.2629 133.475 61.1489 133.13 61.1489 132.65V129.743H60.5099V129.068H61.1489V127.826H61.9679V129.068H63.2549V129.743H61.9679ZM68.7472 131.345C68.7472 131.501 68.7382 131.666 68.7202 131.84H64.7782C64.8082 132.326 64.9732 132.707 65.2732 132.983C65.5792 133.253 65.9482 133.388 66.3802 133.388C66.7342 133.388 67.0282 133.307 67.2622 133.145C67.5022 132.977 67.6702 132.755 67.7662 132.479H68.6482C68.5162 132.953 68.2522 133.34 67.8562 133.64C67.4602 133.934 66.9682 134.081 66.3802 134.081C65.9122 134.081 65.4922 133.976 65.1202 133.766C64.7542 133.556 64.4662 133.259 64.2562 132.875C64.0462 132.485 63.9412 132.035 63.9412 131.525C63.9412 131.015 64.0432 130.568 64.2472 130.184C64.4512 129.8 64.7362 129.506 65.1022 129.302C65.4742 129.092 65.9002 128.987 66.3802 128.987C66.8482 128.987 67.2622 129.089 67.6222 129.293C67.9822 129.497 68.2582 129.779 68.4502 130.139C68.6482 130.493 68.7472 130.895 68.7472 131.345ZM67.9012 131.174C67.9012 130.862 67.8322 130.595 67.6942 130.373C67.5562 130.145 67.3672 129.974 67.1272 129.86C66.8932 129.74 66.6322 129.68 66.3442 129.68C65.9302 129.68 65.5762 129.812 65.2822 130.076C64.9942 130.34 64.8292 130.706 64.7872 131.174H67.9012ZM75.7593 128.978C76.1433 128.978 76.4853 129.059 76.7853 129.221C77.0853 129.377 77.3223 129.614 77.4963 129.932C77.6703 130.25 77.7573 130.637 77.7573 131.093V134H76.9473V131.21C76.9473 130.718 76.8243 130.343 76.5783 130.085C76.3383 129.821 76.0113 129.689 75.5973 129.689C75.1713 129.689 74.8323 129.827 74.5803 130.103C74.3283 130.373 74.2023 130.766 74.2023 131.282V134H73.3923V131.21C73.3923 130.718 73.2693 130.343 73.0233 130.085C72.7833 129.821 72.4563 129.689 72.0423 129.689C71.6163 129.689 71.2773 129.827 71.0253 130.103C70.7733 130.373 70.6473 130.766 70.6473 131.282V134H69.8283V129.068H70.6473V129.779C70.8093 129.521 71.0253 129.323 71.2953 129.185C71.5713 129.047 71.8743 128.978 72.2043 128.978C72.6183 128.978 72.9843 129.071 73.3023 129.257C73.6203 129.443 73.8573 129.716 74.0133 130.076C74.1513 129.728 74.3793 129.458 74.6973 129.266C75.0153 129.074 75.3693 128.978 75.7593 128.978ZM83.9481 128.978C84.3201 128.978 84.6561 129.059 84.9561 129.221C85.2561 129.377 85.4901 129.614 85.6581 129.932C85.8321 130.25 85.9191 130.637 85.9191 131.093V134H85.1091V131.21C85.1091 130.718 84.9861 130.343 84.7401 130.085C84.4941 129.821 84.1581 129.689 83.7321 129.689C83.3001 129.689 82.9551 129.824 82.6971 130.094C82.4451 130.364 82.3191 130.757 82.3191 131.273V134H81.5001V127.34H82.3191V129.77C82.4811 129.518 82.7031 129.323 82.9851 129.185C83.2731 129.047 83.5941 128.978 83.9481 128.978ZM86.951 131.516C86.951 131.012 87.053 130.571 87.257 130.193C87.461 129.809 87.74 129.512 88.094 129.302C88.454 129.092 88.853 128.987 89.291 128.987C89.723 128.987 90.098 129.08 90.416 129.266C90.734 129.452 90.971 129.686 91.127 129.968V129.068H91.955V134H91.127V133.082C90.965 133.37 90.722 133.61 90.398 133.802C90.08 133.988 89.708 134.081 89.282 134.081C88.844 134.081 88.448 133.973 88.094 133.757C87.74 133.541 87.461 133.238 87.257 132.848C87.053 132.458 86.951 132.014 86.951 131.516ZM91.127 131.525C91.127 131.153 91.052 130.829 90.902 130.553C90.752 130.277 90.548 130.067 90.29 129.923C90.038 129.773 89.759 129.698 89.453 129.698C89.147 129.698 88.868 129.77 88.616 129.914C88.364 130.058 88.163 130.268 88.013 130.544C87.863 130.82 87.788 131.144 87.788 131.516C87.788 131.894 87.863 132.224 88.013 132.506C88.163 132.782 88.364 132.995 88.616 133.145C88.868 133.289 89.147 133.361 89.453 133.361C89.759 133.361 90.038 133.289 90.29 133.145C90.548 132.995 90.752 132.782 90.902 132.506C91.052 132.224 91.127 131.897 91.127 131.525ZM95.085 134.081C94.707 134.081 94.368 134.018 94.068 133.892C93.768 133.76 93.531 133.58 93.357 133.352C93.183 133.118 93.087 132.851 93.069 132.551H93.915C93.939 132.797 94.053 132.998 94.257 133.154C94.467 133.31 94.74 133.388 95.076 133.388C95.388 133.388 95.634 133.319 95.814 133.181C95.994 133.043 96.084 132.869 96.084 132.659C96.084 132.443 95.988 132.284 95.796 132.182C95.604 132.074 95.307 131.969 94.905 131.867C94.539 131.771 94.239 131.675 94.005 131.579C93.777 131.477 93.579 131.33 93.411 131.138C93.249 130.94 93.168 130.682 93.168 130.364C93.168 130.112 93.243 129.881 93.393 129.671C93.543 129.461 93.756 129.296 94.032 129.176C94.308 129.05 94.623 128.987 94.977 128.987C95.523 128.987 95.964 129.125 96.3 129.401C96.636 129.677 96.816 130.055 96.84 130.535H96.021C96.003 130.277 95.898 130.07 95.706 129.914C95.52 129.758 95.268 129.68 94.95 129.68C94.656 129.68 94.422 129.743 94.248 129.869C94.074 129.995 93.987 130.16 93.987 130.364C93.987 130.526 94.038 130.661 94.14 130.769C94.248 130.871 94.38 130.955 94.536 131.021C94.698 131.081 94.92 131.15 95.202 131.228C95.556 131.324 95.844 131.42 96.066 131.516C96.288 131.606 96.477 131.744 96.633 131.93C96.795 132.116 96.879 132.359 96.885 132.659C96.885 132.929 96.81 133.172 96.66 133.388C96.51 133.604 96.297 133.775 96.021 133.901C95.751 134.021 95.439 134.081 95.085 134.081ZM101.26 129.986C101.428 129.692 101.674 129.452 101.998 129.266C102.322 129.08 102.691 128.987 103.105 128.987C103.549 128.987 103.948 129.092 104.302 129.302C104.656 129.512 104.935 129.809 105.139 130.193C105.343 130.571 105.445 131.012 105.445 131.516C105.445 132.014 105.343 132.458 105.139 132.848C104.935 133.238 104.653 133.541 104.293 133.757C103.939 133.973 103.543 134.081 103.105 134.081C102.679 134.081 102.304 133.988 101.98 133.802C101.662 133.616 101.422 133.379 101.26 133.091V134H100.441V127.34H101.26V129.986ZM104.608 131.516C104.608 131.144 104.533 130.82 104.383 130.544C104.233 130.268 104.029 130.058 103.771 129.914C103.519 129.77 103.24 129.698 102.934 129.698C102.634 129.698 102.355 129.773 102.097 129.923C101.845 130.067 101.641 130.28 101.485 130.562C101.335 130.838 101.26 131.159 101.26 131.525C101.26 131.897 101.335 132.224 101.485 132.506C101.641 132.782 101.845 132.995 102.097 133.145C102.355 133.289 102.634 133.361 102.934 133.361C103.24 133.361 103.519 133.289 103.771 133.145C104.029 132.995 104.233 132.782 104.383 132.506C104.533 132.224 104.608 131.894 104.608 131.516ZM111.023 131.345C111.023 131.501 111.014 131.666 110.996 131.84H107.054C107.084 132.326 107.249 132.707 107.549 132.983C107.855 133.253 108.224 133.388 108.656 133.388C109.01 133.388 109.304 133.307 109.538 133.145C109.778 132.977 109.946 132.755 110.042 132.479H110.924C110.792 132.953 110.528 133.34 110.132 133.64C109.736 133.934 109.244 134.081 108.656 134.081C108.188 134.081 107.768 133.976 107.396 133.766C107.03 133.556 106.742 133.259 106.532 132.875C106.322 132.485 106.217 132.035 106.217 131.525C106.217 131.015 106.319 130.568 106.523 130.184C106.727 129.8 107.012 129.506 107.378 129.302C107.75 129.092 108.176 128.987 108.656 128.987C109.124 128.987 109.538 129.089 109.898 129.293C110.258 129.497 110.534 129.779 110.726 130.139C110.924 130.493 111.023 130.895 111.023 131.345ZM110.177 131.174C110.177 130.862 110.108 130.595 109.97 130.373C109.832 130.145 109.643 129.974 109.403 129.86C109.169 129.74 108.908 129.68 108.62 129.68C108.206 129.68 107.852 129.812 107.558 130.076C107.27 130.34 107.105 130.706 107.063 131.174H110.177ZM116.604 131.345C116.604 131.501 116.595 131.666 116.577 131.84H112.635C112.665 132.326 112.83 132.707 113.13 132.983C113.436 133.253 113.805 133.388 114.237 133.388C114.591 133.388 114.885 133.307 115.119 133.145C115.359 132.977 115.527 132.755 115.623 132.479H116.505C116.373 132.953 116.109 133.34 115.713 133.64C115.317 133.934 114.825 134.081 114.237 134.081C113.769 134.081 113.349 133.976 112.977 133.766C112.611 133.556 112.323 133.259 112.113 132.875C111.903 132.485 111.798 132.035 111.798 131.525C111.798 131.015 111.9 130.568 112.104 130.184C112.308 129.8 112.593 129.506 112.959 129.302C113.331 129.092 113.757 128.987 114.237 128.987C114.705 128.987 115.119 129.089 115.479 129.293C115.839 129.497 116.115 129.779 116.307 130.139C116.505 130.493 116.604 130.895 116.604 131.345ZM115.758 131.174C115.758 130.862 115.689 130.595 115.551 130.373C115.413 130.145 115.224 129.974 114.984 129.86C114.75 129.74 114.489 129.68 114.201 129.68C113.787 129.68 113.433 129.812 113.139 130.076C112.851 130.34 112.686 130.706 112.644 131.174H115.758ZM120.088 128.978C120.688 128.978 121.174 129.161 121.546 129.527C121.918 129.887 122.104 130.409 122.104 131.093V134H121.294V131.21C121.294 130.718 121.171 130.343 120.925 130.085C120.679 129.821 120.343 129.689 119.917 129.689C119.485 129.689 119.14 129.824 118.882 130.094C118.63 130.364 118.504 130.757 118.504 131.273V134H117.685V129.068H118.504V129.77C118.666 129.518 118.885 129.323 119.161 129.185C119.443 129.047 119.752 128.978 120.088 128.978ZM127.587 134.081C127.209 134.081 126.87 134.018 126.57 133.892C126.27 133.76 126.033 133.58 125.859 133.352C125.685 133.118 125.589 132.851 125.571 132.551H126.417C126.441 132.797 126.555 132.998 126.759 133.154C126.969 133.31 127.242 133.388 127.578 133.388C127.89 133.388 128.136 133.319 128.316 133.181C128.496 133.043 128.586 132.869 128.586 132.659C128.586 132.443 128.49 132.284 128.298 132.182C128.106 132.074 127.809 131.969 127.407 131.867C127.041 131.771 126.741 131.675 126.507 131.579C126.279 131.477 126.081 131.33 125.913 131.138C125.751 130.94 125.67 130.682 125.67 130.364C125.67 130.112 125.745 129.881 125.895 129.671C126.045 129.461 126.258 129.296 126.534 129.176C126.81 129.05 127.125 128.987 127.479 128.987C128.025 128.987 128.466 129.125 128.802 129.401C129.138 129.677 129.318 130.055 129.342 130.535H128.523C128.505 130.277 128.4 130.07 128.208 129.914C128.022 129.758 127.77 129.68 127.452 129.68C127.158 129.68 126.924 129.743 126.75 129.869C126.576 129.995 126.489 130.16 126.489 130.364C126.489 130.526 126.54 130.661 126.642 130.769C126.75 130.871 126.882 130.955 127.038 131.021C127.2 131.081 127.422 131.15 127.704 131.228C128.058 131.324 128.346 131.42 128.568 131.516C128.79 131.606 128.979 131.744 129.135 131.93C129.297 132.116 129.381 132.359 129.387 132.659C129.387 132.929 129.312 133.172 129.162 133.388C129.012 133.604 128.799 133.775 128.523 133.901C128.253 134.021 127.941 134.081 127.587 134.081ZM134.917 129.068V134H134.098V133.271C133.942 133.523 133.723 133.721 133.441 133.865C133.165 134.003 132.859 134.072 132.523 134.072C132.139 134.072 131.794 133.994 131.488 133.838C131.182 133.676 130.939 133.436 130.759 133.118C130.585 132.8 130.498 132.413 130.498 131.957V129.068H131.308V131.849C131.308 132.335 131.431 132.71 131.677 132.974C131.923 133.232 132.259 133.361 132.685 133.361C133.123 133.361 133.468 133.226 133.72 132.956C133.972 132.686 134.098 132.293 134.098 131.777V129.068H134.917ZM135.994 131.525C135.994 131.015 136.096 130.571 136.3 130.193C136.504 129.809 136.786 129.512 137.146 129.302C137.512 129.092 137.929 128.987 138.397 128.987C139.003 128.987 139.501 129.134 139.891 129.428C140.287 129.722 140.548 130.13 140.674 130.652H139.792C139.708 130.352 139.543 130.115 139.297 129.941C139.057 129.767 138.757 129.68 138.397 129.68C137.929 129.68 137.551 129.842 137.263 130.166C136.975 130.484 136.831 130.937 136.831 131.525C136.831 132.119 136.975 132.578 137.263 132.902C137.551 133.226 137.929 133.388 138.397 133.388C138.757 133.388 139.057 133.304 139.297 133.136C139.537 132.968 139.702 132.728 139.792 132.416H140.674C140.542 132.92 140.278 133.325 139.882 133.631C139.486 133.931 138.991 134.081 138.397 134.081C137.929 134.081 137.512 133.976 137.146 133.766C136.786 133.556 136.504 133.259 136.3 132.875C136.096 132.491 135.994 132.041 135.994 131.525ZM141.461 131.525C141.461 131.015 141.563 130.571 141.767 130.193C141.971 129.809 142.253 129.512 142.613 129.302C142.979 129.092 143.396 128.987 143.864 128.987C144.47 128.987 144.968 129.134 145.358 129.428C145.754 129.722 146.015 130.13 146.141 130.652H145.259C145.175 130.352 145.01 130.115 144.764 129.941C144.524 129.767 144.224 129.68 143.864 129.68C143.396 129.68 143.018 129.842 142.73 130.166C142.442 130.484 142.298 130.937 142.298 131.525C142.298 132.119 142.442 132.578 142.73 132.902C143.018 133.226 143.396 133.388 143.864 133.388C144.224 133.388 144.524 133.304 144.764 133.136C145.004 132.968 145.169 132.728 145.259 132.416H146.141C146.009 132.92 145.745 133.325 145.349 133.631C144.953 133.931 144.458 134.081 143.864 134.081C143.396 134.081 142.979 133.976 142.613 133.766C142.253 133.556 141.971 133.259 141.767 132.875C141.563 132.491 141.461 132.041 141.461 131.525ZM151.734 131.345C151.734 131.501 151.725 131.666 151.707 131.84H147.765C147.795 132.326 147.96 132.707 148.26 132.983C148.566 133.253 148.935 133.388 149.367 133.388C149.721 133.388 150.015 133.307 150.249 133.145C150.489 132.977 150.657 132.755 150.753 132.479H151.635C151.503 132.953 151.239 133.34 150.843 133.64C150.447 133.934 149.955 134.081 149.367 134.081C148.899 134.081 148.479 133.976 148.107 133.766C147.741 133.556 147.453 133.259 147.243 132.875C147.033 132.485 146.928 132.035 146.928 131.525C146.928 131.015 147.03 130.568 147.234 130.184C147.438 129.8 147.723 129.506 148.089 129.302C148.461 129.092 148.887 128.987 149.367 128.987C149.835 128.987 150.249 129.089 150.609 129.293C150.969 129.497 151.245 129.779 151.437 130.139C151.635 130.493 151.734 130.895 151.734 131.345ZM150.888 131.174C150.888 130.862 150.819 130.595 150.681 130.373C150.543 130.145 150.354 129.974 150.114 129.86C149.88 129.74 149.619 129.68 149.331 129.68C148.917 129.68 148.563 129.812 148.269 130.076C147.981 130.34 147.816 130.706 147.774 131.174H150.888ZM154.561 134.081C154.183 134.081 153.844 134.018 153.544 133.892C153.244 133.76 153.007 133.58 152.833 133.352C152.659 133.118 152.563 132.851 152.545 132.551H153.391C153.415 132.797 153.529 132.998 153.733 133.154C153.943 133.31 154.216 133.388 154.552 133.388C154.864 133.388 155.11 133.319 155.29 133.181C155.47 133.043 155.56 132.869 155.56 132.659C155.56 132.443 155.464 132.284 155.272 132.182C155.08 132.074 154.783 131.969 154.381 131.867C154.015 131.771 153.715 131.675 153.481 131.579C153.253 131.477 153.055 131.33 152.887 131.138C152.725 130.94 152.644 130.682 152.644 130.364C152.644 130.112 152.719 129.881 152.869 129.671C153.019 129.461 153.232 129.296 153.508 129.176C153.784 129.05 154.099 128.987 154.453 128.987C154.999 128.987 155.44 129.125 155.776 129.401C156.112 129.677 156.292 130.055 156.316 130.535H155.497C155.479 130.277 155.374 130.07 155.182 129.914C154.996 129.758 154.744 129.68 154.426 129.68C154.132 129.68 153.898 129.743 153.724 129.869C153.55 129.995 153.463 130.16 153.463 130.364C153.463 130.526 153.514 130.661 153.616 130.769C153.724 130.871 153.856 130.955 154.012 131.021C154.174 131.081 154.396 131.15 154.678 131.228C155.032 131.324 155.32 131.42 155.542 131.516C155.764 131.606 155.953 131.744 156.109 131.93C156.271 132.116 156.355 132.359 156.361 132.659C156.361 132.929 156.286 133.172 156.136 133.388C155.986 133.604 155.773 133.775 155.497 133.901C155.227 134.021 154.915 134.081 154.561 134.081ZM159.263 134.081C158.885 134.081 158.546 134.018 158.246 133.892C157.946 133.76 157.709 133.58 157.535 133.352C157.361 133.118 157.265 132.851 157.247 132.551H158.093C158.117 132.797 158.231 132.998 158.435 133.154C158.645 133.31 158.918 133.388 159.254 133.388C159.566 133.388 159.812 133.319 159.992 133.181C160.172 133.043 160.262 132.869 160.262 132.659C160.262 132.443 160.166 132.284 159.974 132.182C159.782 132.074 159.485 131.969 159.083 131.867C158.717 131.771 158.417 131.675 158.183 131.579C157.955 131.477 157.757 131.33 157.589 131.138C157.427 130.94 157.346 130.682 157.346 130.364C157.346 130.112 157.421 129.881 157.571 129.671C157.721 129.461 157.934 129.296 158.21 129.176C158.486 129.05 158.801 128.987 159.155 128.987C159.701 128.987 160.142 129.125 160.478 129.401C160.814 129.677 160.994 130.055 161.018 130.535H160.199C160.181 130.277 160.076 130.07 159.884 129.914C159.698 129.758 159.446 129.68 159.128 129.68C158.834 129.68 158.6 129.743 158.426 129.869C158.252 129.995 158.165 130.16 158.165 130.364C158.165 130.526 158.216 130.661 158.318 130.769C158.426 130.871 158.558 130.955 158.714 131.021C158.876 131.081 159.098 131.15 159.38 131.228C159.734 131.324 160.022 131.42 160.244 131.516C160.466 131.606 160.655 131.744 160.811 131.93C160.973 132.116 161.057 132.359 161.063 132.659C161.063 132.929 160.988 133.172 160.838 133.388C160.688 133.604 160.475 133.775 160.199 133.901C159.929 134.021 159.617 134.081 159.263 134.081ZM164.226 129.743H163.191V134H162.372V129.743H161.733V129.068H162.372V128.717C162.372 128.165 162.513 127.763 162.795 127.511C163.083 127.253 163.542 127.124 164.172 127.124V127.808C163.812 127.808 163.557 127.88 163.407 128.024C163.263 128.162 163.191 128.393 163.191 128.717V129.068H164.226V129.743ZM169.555 129.068V134H168.736V133.271C168.58 133.523 168.361 133.721 168.079 133.865C167.803 134.003 167.497 134.072 167.161 134.072C166.777 134.072 166.432 133.994 166.126 133.838C165.82 133.676 165.577 133.436 165.397 133.118C165.223 132.8 165.136 132.413 165.136 131.957V129.068H165.946V131.849C165.946 132.335 166.069 132.71 166.315 132.974C166.561 133.232 166.897 133.361 167.323 133.361C167.761 133.361 168.106 133.226 168.358 132.956C168.61 132.686 168.736 132.293 168.736 131.777V129.068H169.555ZM171.757 127.34V134H170.938V127.34H171.757ZM173.971 127.34V134H173.152V127.34H173.971ZM179.615 129.068L176.645 136.322H175.799L176.771 133.946L174.782 129.068H175.691L177.239 133.064L178.769 129.068H179.615ZM182.532 131.516C182.532 131.012 182.634 130.571 182.838 130.193C183.042 129.809 183.321 129.512 183.675 129.302C184.035 129.092 184.437 128.987 184.881 128.987C185.265 128.987 185.622 129.077 185.952 129.257C186.282 129.431 186.534 129.662 186.708 129.95V127.34H187.536V134H186.708V133.073C186.546 133.367 186.306 133.61 185.988 133.802C185.67 133.988 185.298 134.081 184.872 134.081C184.434 134.081 184.035 133.973 183.675 133.757C183.321 133.541 183.042 133.238 182.838 132.848C182.634 132.458 182.532 132.014 182.532 131.516ZM186.708 131.525C186.708 131.153 186.633 130.829 186.483 130.553C186.333 130.277 186.129 130.067 185.871 129.923C185.619 129.773 185.34 129.698 185.034 129.698C184.728 129.698 184.449 129.77 184.197 129.914C183.945 130.058 183.744 130.268 183.594 130.544C183.444 130.82 183.369 131.144 183.369 131.516C183.369 131.894 183.444 132.224 183.594 132.506C183.744 132.782 183.945 132.995 184.197 133.145C184.449 133.289 184.728 133.361 185.034 133.361C185.34 133.361 185.619 133.289 185.871 133.145C186.129 132.995 186.333 132.782 186.483 132.506C186.633 132.224 186.708 131.897 186.708 131.525ZM193.42 131.345C193.42 131.501 193.411 131.666 193.393 131.84H189.451C189.481 132.326 189.646 132.707 189.946 132.983C190.252 133.253 190.621 133.388 191.053 133.388C191.407 133.388 191.701 133.307 191.935 133.145C192.175 132.977 192.343 132.755 192.439 132.479H193.321C193.189 132.953 192.925 133.34 192.529 133.64C192.133 133.934 191.641 134.081 191.053 134.081C190.585 134.081 190.165 133.976 189.793 133.766C189.427 133.556 189.139 133.259 188.929 132.875C188.719 132.485 188.614 132.035 188.614 131.525C188.614 131.015 188.716 130.568 188.92 130.184C189.124 129.8 189.409 129.506 189.775 129.302C190.147 129.092 190.573 128.987 191.053 128.987C191.521 128.987 191.935 129.089 192.295 129.293C192.655 129.497 192.931 129.779 193.123 130.139C193.321 130.493 193.42 130.895 193.42 131.345ZM192.574 131.174C192.574 130.862 192.505 130.595 192.367 130.373C192.229 130.145 192.04 129.974 191.8 129.86C191.566 129.74 191.305 129.68 191.017 129.68C190.603 129.68 190.249 129.812 189.955 130.076C189.667 130.34 189.502 130.706 189.46 131.174H192.574ZM195.32 127.34V134H194.501V127.34H195.32ZM201.216 131.345C201.216 131.501 201.207 131.666 201.189 131.84H197.247C197.277 132.326 197.442 132.707 197.742 132.983C198.048 133.253 198.417 133.388 198.849 133.388C199.203 133.388 199.497 133.307 199.731 133.145C199.971 132.977 200.139 132.755 200.235 132.479H201.117C200.985 132.953 200.721 133.34 200.325 133.64C199.929 133.934 199.437 134.081 198.849 134.081C198.381 134.081 197.961 133.976 197.589 133.766C197.223 133.556 196.935 133.259 196.725 132.875C196.515 132.485 196.41 132.035 196.41 131.525C196.41 131.015 196.512 130.568 196.716 130.184C196.92 129.8 197.205 129.506 197.571 129.302C197.943 129.092 198.369 128.987 198.849 128.987C199.317 128.987 199.731 129.089 200.091 129.293C200.451 129.497 200.727 129.779 200.919 130.139C201.117 130.493 201.216 130.895 201.216 131.345ZM200.37 131.174C200.37 130.862 200.301 130.595 200.163 130.373C200.025 130.145 199.836 129.974 199.596 129.86C199.362 129.74 199.101 129.68 198.813 129.68C198.399 129.68 198.045 129.812 197.751 130.076C197.463 130.34 197.298 130.706 197.256 131.174H200.37ZM203.296 129.743V132.65C203.296 132.89 203.347 133.061 203.449 133.163C203.551 133.259 203.728 133.307 203.98 133.307H204.583V134H203.845C203.389 134 203.047 133.895 202.819 133.685C202.591 133.475 202.477 133.13 202.477 132.65V129.743H201.838V129.068H202.477V127.826H203.296V129.068H204.583V129.743H203.296ZM210.075 131.345C210.075 131.501 210.066 131.666 210.048 131.84H206.106C206.136 132.326 206.301 132.707 206.601 132.983C206.907 133.253 207.276 133.388 207.708 133.388C208.062 133.388 208.356 133.307 208.59 133.145C208.83 132.977 208.998 132.755 209.094 132.479H209.976C209.844 132.953 209.58 133.34 209.184 133.64C208.788 133.934 208.296 134.081 207.708 134.081C207.24 134.081 206.82 133.976 206.448 133.766C206.082 133.556 205.794 133.259 205.584 132.875C205.374 132.485 205.269 132.035 205.269 131.525C205.269 131.015 205.371 130.568 205.575 130.184C205.779 129.8 206.064 129.506 206.43 129.302C206.802 129.092 207.228 128.987 207.708 128.987C208.176 128.987 208.59 129.089 208.95 129.293C209.31 129.497 209.586 129.779 209.778 130.139C209.976 130.493 210.075 130.895 210.075 131.345ZM209.229 131.174C209.229 130.862 209.16 130.595 209.022 130.373C208.884 130.145 208.695 129.974 208.455 129.86C208.221 129.74 207.96 129.68 207.672 129.68C207.258 129.68 206.904 129.812 206.61 130.076C206.322 130.34 206.157 130.706 206.115 131.174H209.229ZM210.85 131.516C210.85 131.012 210.952 130.571 211.156 130.193C211.36 129.809 211.639 129.512 211.993 129.302C212.353 129.092 212.755 128.987 213.199 128.987C213.583 128.987 213.94 129.077 214.27 129.257C214.6 129.431 214.852 129.662 215.026 129.95V127.34H215.854V134H215.026V133.073C214.864 133.367 214.624 133.61 214.306 133.802C213.988 133.988 213.616 134.081 213.19 134.081C212.752 134.081 212.353 133.973 211.993 133.757C211.639 133.541 211.36 133.238 211.156 132.848C210.952 132.458 210.85 132.014 210.85 131.516ZM215.026 131.525C215.026 131.153 214.951 130.829 214.801 130.553C214.651 130.277 214.447 130.067 214.189 129.923C213.937 129.773 213.658 129.698 213.352 129.698C213.046 129.698 212.767 129.77 212.515 129.914C212.263 130.058 212.062 130.268 211.912 130.544C211.762 130.82 211.687 131.144 211.687 131.516C211.687 131.894 211.762 132.224 211.912 132.506C212.062 132.782 212.263 132.995 212.515 133.145C212.767 133.289 213.046 133.361 213.352 133.361C213.658 133.361 213.937 133.289 214.189 133.145C214.447 132.995 214.651 132.782 214.801 132.506C214.951 132.224 215.026 131.897 215.026 131.525Z" fill="#C4C4C4"/>
<g clip-path="url(#clip0)">
<path d="M97 51.2332L120.971 75.25L167 29.2666L160.392 22.7498L120.971 62.1247L103.517 44.6705L97 51.2332Z" fill="#34D330"/>
</g>
<g clip-path="url(#clip1)">
<path d="M243.283 13.0118L248.734 7.56032C249.089 7.20572 249.089 6.63239 248.734 6.27779C248.379 5.92319 247.806 5.92319 247.451 6.27779L242 11.7293L236.549 6.27779C236.194 5.92319 235.621 5.92319 235.266 6.27779C234.911 6.63239 234.911 7.20572 235.266 7.56032L240.717 13.0118L235.266 18.4633C234.911 18.8179 234.911 19.3912 235.266 19.7458C235.443 19.9227 235.675 20.0116 235.907 20.0116C236.14 20.0116 236.372 19.9227 236.549 19.7458L242 14.2943L247.451 19.7458C247.628 19.9227 247.86 20.0116 248.093 20.0116C248.325 20.0116 248.557 19.9227 248.734 19.7458C249.089 19.3912 249.089 18.8179 248.734 18.4633L243.283 13.0118Z" fill="#C4C4C4"/>
</g>
<defs>
<clipPath id="clip0">
<rect width="70" height="70" fill="white" transform="translate(97 14)"/>
</clipPath>
<clipPath id="clip1">
<rect width="14" height="14" fill="white" transform="translate(235 6)"/>
</clipPath>
</defs>
</svg>
