<svg width="255" height="196" viewBox="0 0 255 196" fill="none" xmlns="http://www.w3.org/2000/svg">
<rect width="255" height="196" fill="white"/>
<path d="M62.576 108.084C62.024 108.084 61.528 107.988 61.088 107.796C60.656 107.596 60.316 107.324 60.068 106.98C59.82 106.628 59.692 106.224 59.684 105.768H60.848C60.888 106.16 61.048 106.492 61.328 106.764C61.616 107.028 62.032 107.16 62.576 107.16C63.096 107.16 63.504 107.032 63.8 106.776C64.104 106.512 64.256 106.176 64.256 105.768C64.256 105.448 64.168 105.188 63.992 104.988C63.816 104.788 63.596 104.636 63.332 104.532C63.068 104.428 62.712 104.316 62.264 104.196C61.712 104.052 61.268 103.908 60.932 103.764C60.604 103.62 60.32 103.396 60.08 103.092C59.848 102.78 59.732 102.364 59.732 101.844C59.732 101.388 59.848 100.984 60.08 100.632C60.312 100.28 60.636 100.008 61.052 99.816C61.476 99.624 61.96 99.528 62.504 99.528C63.288 99.528 63.928 99.724 64.424 100.116C64.928 100.508 65.212 101.028 65.276 101.676H64.076C64.036 101.356 63.868 101.076 63.572 100.836C63.276 100.588 62.884 100.464 62.396 100.464C61.94 100.464 61.568 100.584 61.28 100.824C60.992 101.056 60.848 101.384 60.848 101.808C60.848 102.112 60.932 102.36 61.1 102.552C61.276 102.744 61.488 102.892 61.736 102.996C61.992 103.092 62.348 103.204 62.804 103.332C63.356 103.484 63.8 103.636 64.136 103.788C64.472 103.932 64.76 104.16 65 104.472C65.24 104.776 65.36 105.192 65.36 105.72C65.36 106.128 65.252 106.512 65.036 106.872C64.82 107.232 64.5 107.524 64.076 107.748C63.652 107.972 63.152 108.084 62.576 108.084ZM72.799 101.424V108H71.707V107.028C71.499 107.364 71.207 107.628 70.831 107.82C70.463 108.004 70.055 108.096 69.607 108.096C69.095 108.096 68.635 107.992 68.227 107.784C67.819 107.568 67.495 107.248 67.255 106.824C67.023 106.4 66.907 105.884 66.907 105.276V101.424H67.987V105.132C67.987 105.78 68.151 106.28 68.479 106.632C68.807 106.976 69.255 107.148 69.823 107.148C70.407 107.148 70.867 106.968 71.203 106.608C71.539 106.248 71.707 105.724 71.707 105.036V101.424H72.799ZM74.2348 104.7C74.2348 104.02 74.3708 103.428 74.6428 102.924C74.9148 102.412 75.2908 102.016 75.7708 101.736C76.2588 101.456 76.8148 101.316 77.4388 101.316C78.2468 101.316 78.9108 101.512 79.4308 101.904C79.9588 102.296 80.3068 102.84 80.4748 103.536H79.2988C79.1868 103.136 78.9668 102.82 78.6388 102.588C78.3188 102.356 77.9188 102.24 77.4388 102.24C76.8148 102.24 76.3108 102.456 75.9268 102.888C75.5428 103.312 75.3508 103.916 75.3508 104.7C75.3508 105.492 75.5428 106.104 75.9268 106.536C76.3108 106.968 76.8148 107.184 77.4388 107.184C77.9188 107.184 78.3188 107.072 78.6388 106.848C78.9588 106.624 79.1788 106.304 79.2988 105.888H80.4748C80.2988 106.56 79.9468 107.1 79.4188 107.508C78.8908 107.908 78.2308 108.108 77.4388 108.108C76.8148 108.108 76.2588 107.968 75.7708 107.688C75.2908 107.408 74.9148 107.012 74.6428 106.5C74.3708 105.988 74.2348 105.388 74.2348 104.7ZM81.5238 104.7C81.5238 104.02 81.6598 103.428 81.9318 102.924C82.2038 102.412 82.5798 102.016 83.0598 101.736C83.5478 101.456 84.1038 101.316 84.7278 101.316C85.5358 101.316 86.1998 101.512 86.7198 101.904C87.2478 102.296 87.5958 102.84 87.7638 103.536H86.5878C86.4758 103.136 86.2558 102.82 85.9278 102.588C85.6078 102.356 85.2078 102.24 84.7278 102.24C84.1038 102.24 83.5998 102.456 83.2158 102.888C82.8318 103.312 82.6398 103.916 82.6398 104.7C82.6398 105.492 82.8318 106.104 83.2158 106.536C83.5998 106.968 84.1038 107.184 84.7278 107.184C85.2078 107.184 85.6078 107.072 85.9278 106.848C86.2478 106.624 86.4678 106.304 86.5878 105.888H87.7638C87.5878 106.56 87.2358 107.1 86.7078 107.508C86.1798 107.908 85.5198 108.108 84.7278 108.108C84.1038 108.108 83.5478 107.968 83.0598 107.688C82.5798 107.408 82.2038 107.012 81.9318 106.5C81.6598 105.988 81.5238 105.388 81.5238 104.7ZM95.2209 104.46C95.2209 104.668 95.2089 104.888 95.1849 105.12H89.9289C89.9689 105.768 90.1889 106.276 90.5889 106.644C90.9969 107.004 91.4889 107.184 92.0649 107.184C92.5369 107.184 92.9289 107.076 93.2409 106.86C93.5609 106.636 93.7849 106.34 93.9129 105.972H95.0889C94.9129 106.604 94.5609 107.12 94.0329 107.52C93.5049 107.912 92.8489 108.108 92.0649 108.108C91.4409 108.108 90.8809 107.968 90.3849 107.688C89.8969 107.408 89.5129 107.012 89.2329 106.5C88.9529 105.98 88.8129 105.38 88.8129 104.7C88.8129 104.02 88.9489 103.424 89.2209 102.912C89.4929 102.4 89.8729 102.008 90.3609 101.736C90.8569 101.456 91.4249 101.316 92.0649 101.316C92.6889 101.316 93.2409 101.452 93.7209 101.724C94.2009 101.996 94.5689 102.372 94.8249 102.852C95.0889 103.324 95.2209 103.86 95.2209 104.46ZM94.0929 104.232C94.0929 103.816 94.0009 103.46 93.8169 103.164C93.6329 102.86 93.3809 102.632 93.0609 102.48C92.7489 102.32 92.4009 102.24 92.0169 102.24C91.4649 102.24 90.9929 102.416 90.6009 102.768C90.2169 103.12 89.9969 103.608 89.9409 104.232H94.0929ZM98.9903 108.108C98.4863 108.108 98.0343 108.024 97.6343 107.856C97.2343 107.68 96.9183 107.44 96.6863 107.136C96.4543 106.824 96.3263 106.468 96.3023 106.068H97.4303C97.4623 106.396 97.6143 106.664 97.8863 106.872C98.1663 107.08 98.5303 107.184 98.9783 107.184C99.3943 107.184 99.7223 107.092 99.9623 106.908C100.202 106.724 100.322 106.492 100.322 106.212C100.322 105.924 100.194 105.712 99.9383 105.576C99.6823 105.432 99.2863 105.292 98.7503 105.156C98.2623 105.028 97.8623 104.9 97.5503 104.772C97.2463 104.636 96.9823 104.44 96.7583 104.184C96.5423 103.92 96.4343 103.576 96.4343 103.152C96.4343 102.816 96.5343 102.508 96.7343 102.228C96.9343 101.948 97.2183 101.728 97.5863 101.568C97.9543 101.4 98.3743 101.316 98.8463 101.316C99.5743 101.316 100.162 101.5 100.61 101.868C101.058 102.236 101.298 102.74 101.33 103.38H100.238C100.214 103.036 100.074 102.76 99.8183 102.552C99.5703 102.344 99.2343 102.24 98.8103 102.24C98.4183 102.24 98.1063 102.324 97.8743 102.492C97.6423 102.66 97.5263 102.88 97.5263 103.152C97.5263 103.368 97.5943 103.548 97.7303 103.692C97.8743 103.828 98.0503 103.94 98.2583 104.028C98.4743 104.108 98.7703 104.2 99.1463 104.304C99.6183 104.432 100.002 104.56 100.298 104.688C100.594 104.808 100.846 104.992 101.054 105.24C101.27 105.488 101.382 105.812 101.39 106.212C101.39 106.572 101.29 106.896 101.09 107.184C100.89 107.472 100.606 107.7 100.238 107.868C99.8783 108.028 99.4623 108.108 98.9903 108.108ZM105.26 108.108C104.756 108.108 104.304 108.024 103.904 107.856C103.504 107.68 103.188 107.44 102.956 107.136C102.724 106.824 102.596 106.468 102.572 106.068H103.7C103.732 106.396 103.884 106.664 104.156 106.872C104.436 107.08 104.8 107.184 105.248 107.184C105.664 107.184 105.992 107.092 106.232 106.908C106.472 106.724 106.592 106.492 106.592 106.212C106.592 105.924 106.464 105.712 106.208 105.576C105.952 105.432 105.556 105.292 105.02 105.156C104.532 105.028 104.132 104.9 103.82 104.772C103.516 104.636 103.252 104.44 103.028 104.184C102.812 103.92 102.704 103.576 102.704 103.152C102.704 102.816 102.804 102.508 103.004 102.228C103.204 101.948 103.488 101.728 103.856 101.568C104.224 101.4 104.644 101.316 105.116 101.316C105.844 101.316 106.432 101.5 106.88 101.868C107.328 102.236 107.568 102.74 107.6 103.38H106.508C106.484 103.036 106.344 102.76 106.088 102.552C105.84 102.344 105.504 102.24 105.08 102.24C104.688 102.24 104.376 102.324 104.144 102.492C103.912 102.66 103.796 102.88 103.796 103.152C103.796 103.368 103.864 103.548 104 103.692C104.144 103.828 104.32 103.94 104.528 104.028C104.744 104.108 105.04 104.2 105.416 104.304C105.888 104.432 106.272 104.56 106.568 104.688C106.864 104.808 107.116 104.992 107.324 105.24C107.54 105.488 107.652 105.812 107.66 106.212C107.66 106.572 107.56 106.896 107.36 107.184C107.16 107.472 106.876 107.7 106.508 107.868C106.148 108.028 105.732 108.108 105.26 108.108ZM111.877 102.324H110.497V108H109.405V102.324H108.553V101.424H109.405V100.956C109.405 100.22 109.593 99.684 109.969 99.348C110.353 99.004 110.965 98.832 111.805 98.832V99.744C111.325 99.744 110.985 99.84 110.785 100.032C110.593 100.216 110.497 100.524 110.497 100.956V101.424H111.877V102.324ZM118.983 101.424V108H117.891V107.028C117.683 107.364 117.391 107.628 117.015 107.82C116.647 108.004 116.239 108.096 115.791 108.096C115.279 108.096 114.819 107.992 114.411 107.784C114.003 107.568 113.679 107.248 113.439 106.824C113.207 106.4 113.091 105.884 113.091 105.276V101.424H114.171V105.132C114.171 105.78 114.335 106.28 114.663 106.632C114.991 106.976 115.439 107.148 116.007 107.148C116.591 107.148 117.051 106.968 117.387 106.608C117.723 106.248 117.891 105.724 117.891 105.036V101.424H118.983ZM121.918 99.12V108H120.826V99.12H121.918ZM124.871 99.12V108H123.779V99.12H124.871ZM133.724 108.084C132.948 108.084 132.24 107.904 131.6 107.544C130.96 107.176 130.452 106.668 130.076 106.02C129.708 105.364 129.524 104.628 129.524 103.812C129.524 102.996 129.708 102.264 130.076 101.616C130.452 100.96 130.96 100.452 131.6 100.092C132.24 99.724 132.948 99.54 133.724 99.54C134.508 99.54 135.22 99.724 135.86 100.092C136.5 100.452 137.004 100.956 137.372 101.604C137.74 102.252 137.924 102.988 137.924 103.812C137.924 104.636 137.74 105.372 137.372 106.02C137.004 106.668 136.5 107.176 135.86 107.544C135.22 107.904 134.508 108.084 133.724 108.084ZM133.724 107.136C134.308 107.136 134.832 107 135.296 106.728C135.768 106.456 136.136 106.068 136.4 105.564C136.672 105.06 136.808 104.476 136.808 103.812C136.808 103.14 136.672 102.556 136.4 102.06C136.136 101.556 135.772 101.168 135.308 100.896C134.844 100.624 134.316 100.488 133.724 100.488C133.132 100.488 132.604 100.624 132.14 100.896C131.676 101.168 131.308 101.556 131.036 102.06C130.772 102.556 130.64 103.14 130.64 103.812C130.64 104.476 130.772 105.06 131.036 105.564C131.308 106.068 131.676 106.456 132.14 106.728C132.612 107 133.14 107.136 133.724 107.136ZM140.457 102.636C140.673 102.26 140.993 101.948 141.417 101.7C141.849 101.444 142.349 101.316 142.917 101.316C143.501 101.316 144.029 101.456 144.501 101.736C144.981 102.016 145.357 102.412 145.629 102.924C145.901 103.428 146.037 104.016 146.037 104.688C146.037 105.352 145.901 105.944 145.629 106.464C145.357 106.984 144.981 107.388 144.501 107.676C144.029 107.964 143.501 108.108 142.917 108.108C142.357 108.108 141.861 107.984 141.429 107.736C141.005 107.48 140.681 107.164 140.457 106.788V111.12H139.365V101.424H140.457V102.636ZM144.921 104.688C144.921 104.192 144.821 103.76 144.621 103.392C144.421 103.024 144.149 102.744 143.805 102.552C143.469 102.36 143.097 102.264 142.689 102.264C142.289 102.264 141.917 102.364 141.573 102.564C141.237 102.756 140.965 103.04 140.757 103.416C140.557 103.784 140.457 104.212 140.457 104.7C140.457 105.196 140.557 105.632 140.757 106.008C140.965 106.376 141.237 106.66 141.573 106.86C141.917 107.052 142.289 107.148 142.689 107.148C143.097 107.148 143.469 107.052 143.805 106.86C144.149 106.66 144.421 106.376 144.621 106.008C144.821 105.632 144.921 105.192 144.921 104.688ZM153.475 104.46C153.475 104.668 153.463 104.888 153.439 105.12H148.183C148.223 105.768 148.443 106.276 148.843 106.644C149.251 107.004 149.743 107.184 150.319 107.184C150.791 107.184 151.183 107.076 151.495 106.86C151.815 106.636 152.039 106.34 152.167 105.972H153.343C153.167 106.604 152.815 107.12 152.287 107.52C151.759 107.912 151.103 108.108 150.319 108.108C149.695 108.108 149.135 107.968 148.639 107.688C148.151 107.408 147.767 107.012 147.487 106.5C147.207 105.98 147.067 105.38 147.067 104.7C147.067 104.02 147.203 103.424 147.475 102.912C147.747 102.4 148.127 102.008 148.615 101.736C149.111 101.456 149.679 101.316 150.319 101.316C150.943 101.316 151.495 101.452 151.975 101.724C152.455 101.996 152.823 102.372 153.079 102.852C153.343 103.324 153.475 103.86 153.475 104.46ZM152.347 104.232C152.347 103.816 152.255 103.46 152.071 103.164C151.887 102.86 151.635 102.632 151.315 102.48C151.003 102.32 150.655 102.24 150.271 102.24C149.719 102.24 149.247 102.416 148.855 102.768C148.471 103.12 148.251 103.608 148.195 104.232H152.347ZM156.008 102.492C156.2 102.116 156.472 101.824 156.824 101.616C157.184 101.408 157.62 101.304 158.132 101.304V102.432H157.844C156.62 102.432 156.008 103.096 156.008 104.424V108H154.916V101.424H156.008V102.492ZM158.985 104.688C158.985 104.016 159.121 103.428 159.393 102.924C159.665 102.412 160.037 102.016 160.509 101.736C160.989 101.456 161.521 101.316 162.105 101.316C162.681 101.316 163.181 101.44 163.605 101.688C164.029 101.936 164.345 102.248 164.553 102.624V101.424H165.657V108H164.553V106.776C164.337 107.16 164.013 107.48 163.581 107.736C163.157 107.984 162.661 108.108 162.093 108.108C161.509 108.108 160.981 107.964 160.509 107.676C160.037 107.388 159.665 106.984 159.393 106.464C159.121 105.944 158.985 105.352 158.985 104.688ZM164.553 104.7C164.553 104.204 164.453 103.772 164.253 103.404C164.053 103.036 163.781 102.756 163.437 102.564C163.101 102.364 162.729 102.264 162.321 102.264C161.913 102.264 161.541 102.36 161.205 102.552C160.869 102.744 160.601 103.024 160.401 103.392C160.201 103.76 160.101 104.192 160.101 104.688C160.101 105.192 160.201 105.632 160.401 106.008C160.601 106.376 160.869 106.66 161.205 106.86C161.541 107.052 161.913 107.148 162.321 107.148C162.729 107.148 163.101 107.052 163.437 106.86C163.781 106.66 164.053 106.376 164.253 106.008C164.453 105.632 164.553 105.196 164.553 104.7ZM168.834 102.324V106.2C168.834 106.52 168.902 106.748 169.038 106.884C169.174 107.012 169.41 107.076 169.746 107.076H170.55V108H169.566C168.958 108 168.502 107.86 168.198 107.58C167.894 107.3 167.742 106.84 167.742 106.2V102.324H166.89V101.424H167.742V99.768H168.834V101.424H170.55V102.324H168.834ZM172.437 100.356C172.229 100.356 172.053 100.284 171.909 100.14C171.765 99.996 171.693 99.82 171.693 99.612C171.693 99.404 171.765 99.228 171.909 99.084C172.053 98.94 172.229 98.868 172.437 98.868C172.637 98.868 172.805 98.94 172.941 99.084C173.085 99.228 173.157 99.404 173.157 99.612C173.157 99.82 173.085 99.996 172.941 100.14C172.805 100.284 172.637 100.356 172.437 100.356ZM172.965 101.424V108H171.873V101.424H172.965ZM177.694 108.108C177.078 108.108 176.518 107.968 176.014 107.688C175.518 107.408 175.126 107.012 174.838 106.5C174.558 105.98 174.418 105.38 174.418 104.7C174.418 104.028 174.562 103.436 174.85 102.924C175.146 102.404 175.546 102.008 176.05 101.736C176.554 101.456 177.118 101.316 177.742 101.316C178.366 101.316 178.93 101.456 179.434 101.736C179.938 102.008 180.334 102.4 180.622 102.912C180.918 103.424 181.066 104.02 181.066 104.7C181.066 105.38 180.914 105.98 180.61 106.5C180.314 107.012 179.91 107.408 179.398 107.688C178.886 107.968 178.318 108.108 177.694 108.108ZM177.694 107.148C178.086 107.148 178.454 107.056 178.798 106.872C179.142 106.688 179.418 106.412 179.626 106.044C179.842 105.676 179.95 105.228 179.95 104.7C179.95 104.172 179.846 103.724 179.638 103.356C179.43 102.988 179.158 102.716 178.822 102.54C178.486 102.356 178.122 102.264 177.73 102.264C177.33 102.264 176.962 102.356 176.626 102.54C176.298 102.716 176.034 102.988 175.834 103.356C175.634 103.724 175.534 104.172 175.534 104.7C175.534 105.236 175.63 105.688 175.822 106.056C176.022 106.424 176.286 106.7 176.614 106.884C176.942 107.06 177.302 107.148 177.694 107.148ZM185.706 101.304C186.506 101.304 187.154 101.548 187.65 102.036C188.146 102.516 188.394 103.212 188.394 104.124V108H187.314V104.28C187.314 103.624 187.15 103.124 186.822 102.78C186.494 102.428 186.046 102.252 185.478 102.252C184.902 102.252 184.442 102.432 184.098 102.792C183.762 103.152 183.594 103.676 183.594 104.364V108H182.502V101.424H183.594V102.36C183.81 102.024 184.102 101.764 184.47 101.58C184.846 101.396 185.258 101.304 185.706 101.304Z" fill="#34D330"/>
<path d="M41.7366 127.727V128.393H40.0266V134H39.2076V128.393H37.4886V127.727H41.7366ZM45.1928 128.978C45.5648 128.978 45.9008 129.059 46.2008 129.221C46.5008 129.377 46.7348 129.614 46.9028 129.932C47.0768 130.25 47.1638 130.637 47.1638 131.093V134H46.3538V131.21C46.3538 130.718 46.2308 130.343 45.9848 130.085C45.7388 129.821 45.4028 129.689 44.9768 129.689C44.5448 129.689 44.1998 129.824 43.9418 130.094C43.6898 130.364 43.5638 130.757 43.5638 131.273V134H42.7448V127.34H43.5638V129.77C43.7258 129.518 43.9478 129.323 44.2298 129.185C44.5178 129.047 44.8388 128.978 45.1928 128.978ZM53.0016 131.345C53.0016 131.501 52.9926 131.666 52.9746 131.84H49.0326C49.0626 132.326 49.2276 132.707 49.5276 132.983C49.8336 133.253 50.2026 133.388 50.6346 133.388C50.9886 133.388 51.2826 133.307 51.5166 133.145C51.7566 132.977 51.9246 132.755 52.0206 132.479H52.9026C52.7706 132.953 52.5066 133.34 52.1106 133.64C51.7146 133.934 51.2226 134.081 50.6346 134.081C50.1666 134.081 49.7466 133.976 49.3746 133.766C49.0086 133.556 48.7206 133.259 48.5106 132.875C48.3006 132.485 48.1956 132.035 48.1956 131.525C48.1956 131.015 48.2976 130.568 48.5016 130.184C48.7056 129.8 48.9906 129.506 49.3566 129.302C49.7286 129.092 50.1546 128.987 50.6346 128.987C51.1026 128.987 51.5166 129.089 51.8766 129.293C52.2366 129.497 52.5126 129.779 52.7046 130.139C52.9026 130.493 53.0016 130.895 53.0016 131.345ZM52.1556 131.174C52.1556 130.862 52.0866 130.595 51.9486 130.373C51.8106 130.145 51.6216 129.974 51.3816 129.86C51.1476 129.74 50.8866 129.68 50.5986 129.68C50.1846 129.68 49.8306 129.812 49.5366 130.076C49.2486 130.34 49.0836 130.706 49.0416 131.174H52.1556ZM56.9051 128.267C56.7491 128.267 56.6171 128.213 56.5091 128.105C56.4011 127.997 56.3471 127.865 56.3471 127.709C56.3471 127.553 56.4011 127.421 56.5091 127.313C56.6171 127.205 56.7491 127.151 56.9051 127.151C57.0551 127.151 57.1811 127.205 57.2831 127.313C57.3911 127.421 57.4451 127.553 57.4451 127.709C57.4451 127.865 57.3911 127.997 57.2831 128.105C57.1811 128.213 57.0551 128.267 56.9051 128.267ZM57.3011 129.068V134H56.4821V129.068H57.3011ZM59.6959 129.743V132.65C59.6959 132.89 59.7469 133.061 59.8489 133.163C59.9509 133.259 60.1279 133.307 60.3799 133.307H60.9829V134H60.2449C59.7889 134 59.4469 133.895 59.2189 133.685C58.9909 133.475 58.8769 133.13 58.8769 132.65V129.743H58.2379V129.068H58.8769V127.826H59.6959V129.068H60.9829V129.743H59.6959ZM66.4752 131.345C66.4752 131.501 66.4662 131.666 66.4482 131.84H62.5062C62.5362 132.326 62.7012 132.707 63.0012 132.983C63.3072 133.253 63.6762 133.388 64.1082 133.388C64.4622 133.388 64.7562 133.307 64.9902 133.145C65.2302 132.977 65.3982 132.755 65.4942 132.479H66.3762C66.2442 132.953 65.9802 133.34 65.5842 133.64C65.1882 133.934 64.6962 134.081 64.1082 134.081C63.6402 134.081 63.2202 133.976 62.8482 133.766C62.4822 133.556 62.1942 133.259 61.9842 132.875C61.7742 132.485 61.6692 132.035 61.6692 131.525C61.6692 131.015 61.7712 130.568 61.9752 130.184C62.1792 129.8 62.4642 129.506 62.8302 129.302C63.2022 129.092 63.6282 128.987 64.1082 128.987C64.5762 128.987 64.9902 129.089 65.3502 129.293C65.7102 129.497 65.9862 129.779 66.1782 130.139C66.3762 130.493 66.4752 130.895 66.4752 131.345ZM65.6292 131.174C65.6292 130.862 65.5602 130.595 65.4222 130.373C65.2842 130.145 65.0952 129.974 64.8552 129.86C64.6212 129.74 64.3602 129.68 64.0722 129.68C63.6582 129.68 63.3042 129.812 63.0102 130.076C62.7222 130.34 62.5572 130.706 62.5152 131.174H65.6292ZM73.4873 128.978C73.8713 128.978 74.2133 129.059 74.5133 129.221C74.8133 129.377 75.0503 129.614 75.2243 129.932C75.3983 130.25 75.4853 130.637 75.4853 131.093V134H74.6753V131.21C74.6753 130.718 74.5523 130.343 74.3063 130.085C74.0663 129.821 73.7393 129.689 73.3253 129.689C72.8993 129.689 72.5603 129.827 72.3083 130.103C72.0563 130.373 71.9303 130.766 71.9303 131.282V134H71.1203V131.21C71.1203 130.718 70.9973 130.343 70.7513 130.085C70.5113 129.821 70.1843 129.689 69.7703 129.689C69.3443 129.689 69.0053 129.827 68.7533 130.103C68.5013 130.373 68.3753 130.766 68.3753 131.282V134H67.5563V129.068H68.3753V129.779C68.5373 129.521 68.7533 129.323 69.0233 129.185C69.2993 129.047 69.6023 128.978 69.9323 128.978C70.3463 128.978 70.7123 129.071 71.0303 129.257C71.3483 129.443 71.5853 129.716 71.7413 130.076C71.8793 129.728 72.1073 129.458 72.4253 129.266C72.7433 129.074 73.0973 128.978 73.4873 128.978ZM81.6762 128.978C82.0482 128.978 82.3842 129.059 82.6842 129.221C82.9842 129.377 83.2182 129.614 83.3862 129.932C83.5602 130.25 83.6472 130.637 83.6472 131.093V134H82.8372V131.21C82.8372 130.718 82.7142 130.343 82.4682 130.085C82.2222 129.821 81.8862 129.689 81.4602 129.689C81.0282 129.689 80.6832 129.824 80.4252 130.094C80.1732 130.364 80.0472 130.757 80.0472 131.273V134H79.2282V127.34H80.0472V129.77C80.2092 129.518 80.4312 129.323 80.7132 129.185C81.0012 129.047 81.3222 128.978 81.6762 128.978ZM84.679 131.516C84.679 131.012 84.781 130.571 84.985 130.193C85.189 129.809 85.468 129.512 85.822 129.302C86.182 129.092 86.581 128.987 87.019 128.987C87.451 128.987 87.826 129.08 88.144 129.266C88.462 129.452 88.699 129.686 88.855 129.968V129.068H89.683V134H88.855V133.082C88.693 133.37 88.45 133.61 88.126 133.802C87.808 133.988 87.436 134.081 87.01 134.081C86.572 134.081 86.176 133.973 85.822 133.757C85.468 133.541 85.189 133.238 84.985 132.848C84.781 132.458 84.679 132.014 84.679 131.516ZM88.855 131.525C88.855 131.153 88.78 130.829 88.63 130.553C88.48 130.277 88.276 130.067 88.018 129.923C87.766 129.773 87.487 129.698 87.181 129.698C86.875 129.698 86.596 129.77 86.344 129.914C86.092 130.058 85.891 130.268 85.741 130.544C85.591 130.82 85.516 131.144 85.516 131.516C85.516 131.894 85.591 132.224 85.741 132.506C85.891 132.782 86.092 132.995 86.344 133.145C86.596 133.289 86.875 133.361 87.181 133.361C87.487 133.361 87.766 133.289 88.018 133.145C88.276 132.995 88.48 132.782 88.63 132.506C88.78 132.224 88.855 131.897 88.855 131.525ZM92.813 134.081C92.435 134.081 92.096 134.018 91.796 133.892C91.496 133.76 91.259 133.58 91.085 133.352C90.911 133.118 90.815 132.851 90.797 132.551H91.643C91.667 132.797 91.781 132.998 91.985 133.154C92.195 133.31 92.468 133.388 92.804 133.388C93.116 133.388 93.362 133.319 93.542 133.181C93.722 133.043 93.812 132.869 93.812 132.659C93.812 132.443 93.716 132.284 93.524 132.182C93.332 132.074 93.035 131.969 92.633 131.867C92.267 131.771 91.967 131.675 91.733 131.579C91.505 131.477 91.307 131.33 91.139 131.138C90.977 130.94 90.896 130.682 90.896 130.364C90.896 130.112 90.971 129.881 91.121 129.671C91.271 129.461 91.484 129.296 91.76 129.176C92.036 129.05 92.351 128.987 92.705 128.987C93.251 128.987 93.692 129.125 94.028 129.401C94.364 129.677 94.544 130.055 94.568 130.535H93.749C93.731 130.277 93.626 130.07 93.434 129.914C93.248 129.758 92.996 129.68 92.678 129.68C92.384 129.68 92.15 129.743 91.976 129.869C91.802 129.995 91.715 130.16 91.715 130.364C91.715 130.526 91.766 130.661 91.868 130.769C91.976 130.871 92.108 130.955 92.264 131.021C92.426 131.081 92.648 131.15 92.93 131.228C93.284 131.324 93.572 131.42 93.794 131.516C94.016 131.606 94.205 131.744 94.361 131.93C94.523 132.116 94.607 132.359 94.613 132.659C94.613 132.929 94.538 133.172 94.388 133.388C94.238 133.604 94.025 133.775 93.749 133.901C93.479 134.021 93.167 134.081 92.813 134.081ZM98.9876 129.986C99.1556 129.692 99.4016 129.452 99.7256 129.266C100.05 129.08 100.419 128.987 100.833 128.987C101.277 128.987 101.676 129.092 102.03 129.302C102.384 129.512 102.663 129.809 102.867 130.193C103.071 130.571 103.173 131.012 103.173 131.516C103.173 132.014 103.071 132.458 102.867 132.848C102.663 133.238 102.381 133.541 102.021 133.757C101.667 133.973 101.271 134.081 100.833 134.081C100.407 134.081 100.032 133.988 99.7076 133.802C99.3896 133.616 99.1496 133.379 98.9876 133.091V134H98.1686V127.34H98.9876V129.986ZM102.336 131.516C102.336 131.144 102.261 130.82 102.111 130.544C101.961 130.268 101.757 130.058 101.499 129.914C101.247 129.77 100.968 129.698 100.662 129.698C100.362 129.698 100.083 129.773 99.8246 129.923C99.5726 130.067 99.3686 130.28 99.2126 130.562C99.0626 130.838 98.9876 131.159 98.9876 131.525C98.9876 131.897 99.0626 132.224 99.2126 132.506C99.3686 132.782 99.5726 132.995 99.8246 133.145C100.083 133.289 100.362 133.361 100.662 133.361C100.968 133.361 101.247 133.289 101.499 133.145C101.757 132.995 101.961 132.782 102.111 132.506C102.261 132.224 102.336 131.894 102.336 131.516ZM108.751 131.345C108.751 131.501 108.742 131.666 108.724 131.84H104.782C104.812 132.326 104.977 132.707 105.277 132.983C105.583 133.253 105.952 133.388 106.384 133.388C106.738 133.388 107.032 133.307 107.266 133.145C107.506 132.977 107.674 132.755 107.77 132.479H108.652C108.52 132.953 108.256 133.34 107.86 133.64C107.464 133.934 106.972 134.081 106.384 134.081C105.916 134.081 105.496 133.976 105.124 133.766C104.758 133.556 104.47 133.259 104.26 132.875C104.05 132.485 103.945 132.035 103.945 131.525C103.945 131.015 104.047 130.568 104.251 130.184C104.455 129.8 104.74 129.506 105.106 129.302C105.478 129.092 105.904 128.987 106.384 128.987C106.852 128.987 107.266 129.089 107.626 129.293C107.986 129.497 108.262 129.779 108.454 130.139C108.652 130.493 108.751 130.895 108.751 131.345ZM107.905 131.174C107.905 130.862 107.836 130.595 107.698 130.373C107.56 130.145 107.371 129.974 107.131 129.86C106.897 129.74 106.636 129.68 106.348 129.68C105.934 129.68 105.58 129.812 105.286 130.076C104.998 130.34 104.833 130.706 104.791 131.174H107.905ZM114.332 131.345C114.332 131.501 114.323 131.666 114.305 131.84H110.363C110.393 132.326 110.558 132.707 110.858 132.983C111.164 133.253 111.533 133.388 111.965 133.388C112.319 133.388 112.613 133.307 112.847 133.145C113.087 132.977 113.255 132.755 113.351 132.479H114.233C114.101 132.953 113.837 133.34 113.441 133.64C113.045 133.934 112.553 134.081 111.965 134.081C111.497 134.081 111.077 133.976 110.705 133.766C110.339 133.556 110.051 133.259 109.841 132.875C109.631 132.485 109.526 132.035 109.526 131.525C109.526 131.015 109.628 130.568 109.832 130.184C110.036 129.8 110.321 129.506 110.687 129.302C111.059 129.092 111.485 128.987 111.965 128.987C112.433 128.987 112.847 129.089 113.207 129.293C113.567 129.497 113.843 129.779 114.035 130.139C114.233 130.493 114.332 130.895 114.332 131.345ZM113.486 131.174C113.486 130.862 113.417 130.595 113.279 130.373C113.141 130.145 112.952 129.974 112.712 129.86C112.478 129.74 112.217 129.68 111.929 129.68C111.515 129.68 111.161 129.812 110.867 130.076C110.579 130.34 110.414 130.706 110.372 131.174H113.486ZM117.816 128.978C118.416 128.978 118.902 129.161 119.274 129.527C119.646 129.887 119.832 130.409 119.832 131.093V134H119.022V131.21C119.022 130.718 118.899 130.343 118.653 130.085C118.407 129.821 118.071 129.689 117.645 129.689C117.213 129.689 116.868 129.824 116.61 130.094C116.358 130.364 116.232 130.757 116.232 131.273V134H115.413V129.068H116.232V129.77C116.394 129.518 116.613 129.323 116.889 129.185C117.171 129.047 117.48 128.978 117.816 128.978ZM125.315 134.081C124.937 134.081 124.598 134.018 124.298 133.892C123.998 133.76 123.761 133.58 123.587 133.352C123.413 133.118 123.317 132.851 123.299 132.551H124.145C124.169 132.797 124.283 132.998 124.487 133.154C124.697 133.31 124.97 133.388 125.306 133.388C125.618 133.388 125.864 133.319 126.044 133.181C126.224 133.043 126.314 132.869 126.314 132.659C126.314 132.443 126.218 132.284 126.026 132.182C125.834 132.074 125.537 131.969 125.135 131.867C124.769 131.771 124.469 131.675 124.235 131.579C124.007 131.477 123.809 131.33 123.641 131.138C123.479 130.94 123.398 130.682 123.398 130.364C123.398 130.112 123.473 129.881 123.623 129.671C123.773 129.461 123.986 129.296 124.262 129.176C124.538 129.05 124.853 128.987 125.207 128.987C125.753 128.987 126.194 129.125 126.53 129.401C126.866 129.677 127.046 130.055 127.07 130.535H126.251C126.233 130.277 126.128 130.07 125.936 129.914C125.75 129.758 125.498 129.68 125.18 129.68C124.886 129.68 124.652 129.743 124.478 129.869C124.304 129.995 124.217 130.16 124.217 130.364C124.217 130.526 124.268 130.661 124.37 130.769C124.478 130.871 124.61 130.955 124.766 131.021C124.928 131.081 125.15 131.15 125.432 131.228C125.786 131.324 126.074 131.42 126.296 131.516C126.518 131.606 126.707 131.744 126.863 131.93C127.025 132.116 127.109 132.359 127.115 132.659C127.115 132.929 127.04 133.172 126.89 133.388C126.74 133.604 126.527 133.775 126.251 133.901C125.981 134.021 125.669 134.081 125.315 134.081ZM132.645 129.068V134H131.826V133.271C131.67 133.523 131.451 133.721 131.169 133.865C130.893 134.003 130.587 134.072 130.251 134.072C129.867 134.072 129.522 133.994 129.216 133.838C128.91 133.676 128.667 133.436 128.487 133.118C128.313 132.8 128.226 132.413 128.226 131.957V129.068H129.036V131.849C129.036 132.335 129.159 132.71 129.405 132.974C129.651 133.232 129.987 133.361 130.413 133.361C130.851 133.361 131.196 133.226 131.448 132.956C131.7 132.686 131.826 132.293 131.826 131.777V129.068H132.645ZM133.722 131.525C133.722 131.015 133.824 130.571 134.028 130.193C134.232 129.809 134.514 129.512 134.874 129.302C135.24 129.092 135.657 128.987 136.125 128.987C136.731 128.987 137.229 129.134 137.619 129.428C138.015 129.722 138.276 130.13 138.402 130.652H137.52C137.436 130.352 137.271 130.115 137.025 129.941C136.785 129.767 136.485 129.68 136.125 129.68C135.657 129.68 135.279 129.842 134.991 130.166C134.703 130.484 134.559 130.937 134.559 131.525C134.559 132.119 134.703 132.578 134.991 132.902C135.279 133.226 135.657 133.388 136.125 133.388C136.485 133.388 136.785 133.304 137.025 133.136C137.265 132.968 137.43 132.728 137.52 132.416H138.402C138.27 132.92 138.006 133.325 137.61 133.631C137.214 133.931 136.719 134.081 136.125 134.081C135.657 134.081 135.24 133.976 134.874 133.766C134.514 133.556 134.232 133.259 134.028 132.875C133.824 132.491 133.722 132.041 133.722 131.525ZM139.189 131.525C139.189 131.015 139.291 130.571 139.495 130.193C139.699 129.809 139.981 129.512 140.341 129.302C140.707 129.092 141.124 128.987 141.592 128.987C142.198 128.987 142.696 129.134 143.086 129.428C143.482 129.722 143.743 130.13 143.869 130.652H142.987C142.903 130.352 142.738 130.115 142.492 129.941C142.252 129.767 141.952 129.68 141.592 129.68C141.124 129.68 140.746 129.842 140.458 130.166C140.17 130.484 140.026 130.937 140.026 131.525C140.026 132.119 140.17 132.578 140.458 132.902C140.746 133.226 141.124 133.388 141.592 133.388C141.952 133.388 142.252 133.304 142.492 133.136C142.732 132.968 142.897 132.728 142.987 132.416H143.869C143.737 132.92 143.473 133.325 143.077 133.631C142.681 133.931 142.186 134.081 141.592 134.081C141.124 134.081 140.707 133.976 140.341 133.766C139.981 133.556 139.699 133.259 139.495 132.875C139.291 132.491 139.189 132.041 139.189 131.525ZM149.462 131.345C149.462 131.501 149.453 131.666 149.435 131.84H145.493C145.523 132.326 145.688 132.707 145.988 132.983C146.294 133.253 146.663 133.388 147.095 133.388C147.449 133.388 147.743 133.307 147.977 133.145C148.217 132.977 148.385 132.755 148.481 132.479H149.363C149.231 132.953 148.967 133.34 148.571 133.64C148.175 133.934 147.683 134.081 147.095 134.081C146.627 134.081 146.207 133.976 145.835 133.766C145.469 133.556 145.181 133.259 144.971 132.875C144.761 132.485 144.656 132.035 144.656 131.525C144.656 131.015 144.758 130.568 144.962 130.184C145.166 129.8 145.451 129.506 145.817 129.302C146.189 129.092 146.615 128.987 147.095 128.987C147.563 128.987 147.977 129.089 148.337 129.293C148.697 129.497 148.973 129.779 149.165 130.139C149.363 130.493 149.462 130.895 149.462 131.345ZM148.616 131.174C148.616 130.862 148.547 130.595 148.409 130.373C148.271 130.145 148.082 129.974 147.842 129.86C147.608 129.74 147.347 129.68 147.059 129.68C146.645 129.68 146.291 129.812 145.997 130.076C145.709 130.34 145.544 130.706 145.502 131.174H148.616ZM152.289 134.081C151.911 134.081 151.572 134.018 151.272 133.892C150.972 133.76 150.735 133.58 150.561 133.352C150.387 133.118 150.291 132.851 150.273 132.551H151.119C151.143 132.797 151.257 132.998 151.461 133.154C151.671 133.31 151.944 133.388 152.28 133.388C152.592 133.388 152.838 133.319 153.018 133.181C153.198 133.043 153.288 132.869 153.288 132.659C153.288 132.443 153.192 132.284 153 132.182C152.808 132.074 152.511 131.969 152.109 131.867C151.743 131.771 151.443 131.675 151.209 131.579C150.981 131.477 150.783 131.33 150.615 131.138C150.453 130.94 150.372 130.682 150.372 130.364C150.372 130.112 150.447 129.881 150.597 129.671C150.747 129.461 150.96 129.296 151.236 129.176C151.512 129.05 151.827 128.987 152.181 128.987C152.727 128.987 153.168 129.125 153.504 129.401C153.84 129.677 154.02 130.055 154.044 130.535H153.225C153.207 130.277 153.102 130.07 152.91 129.914C152.724 129.758 152.472 129.68 152.154 129.68C151.86 129.68 151.626 129.743 151.452 129.869C151.278 129.995 151.191 130.16 151.191 130.364C151.191 130.526 151.242 130.661 151.344 130.769C151.452 130.871 151.584 130.955 151.74 131.021C151.902 131.081 152.124 131.15 152.406 131.228C152.76 131.324 153.048 131.42 153.27 131.516C153.492 131.606 153.681 131.744 153.837 131.93C153.999 132.116 154.083 132.359 154.089 132.659C154.089 132.929 154.014 133.172 153.864 133.388C153.714 133.604 153.501 133.775 153.225 133.901C152.955 134.021 152.643 134.081 152.289 134.081ZM156.991 134.081C156.613 134.081 156.274 134.018 155.974 133.892C155.674 133.76 155.437 133.58 155.263 133.352C155.089 133.118 154.993 132.851 154.975 132.551H155.821C155.845 132.797 155.959 132.998 156.163 133.154C156.373 133.31 156.646 133.388 156.982 133.388C157.294 133.388 157.54 133.319 157.72 133.181C157.9 133.043 157.99 132.869 157.99 132.659C157.99 132.443 157.894 132.284 157.702 132.182C157.51 132.074 157.213 131.969 156.811 131.867C156.445 131.771 156.145 131.675 155.911 131.579C155.683 131.477 155.485 131.33 155.317 131.138C155.155 130.94 155.074 130.682 155.074 130.364C155.074 130.112 155.149 129.881 155.299 129.671C155.449 129.461 155.662 129.296 155.938 129.176C156.214 129.05 156.529 128.987 156.883 128.987C157.429 128.987 157.87 129.125 158.206 129.401C158.542 129.677 158.722 130.055 158.746 130.535H157.927C157.909 130.277 157.804 130.07 157.612 129.914C157.426 129.758 157.174 129.68 156.856 129.68C156.562 129.68 156.328 129.743 156.154 129.869C155.98 129.995 155.893 130.16 155.893 130.364C155.893 130.526 155.944 130.661 156.046 130.769C156.154 130.871 156.286 130.955 156.442 131.021C156.604 131.081 156.826 131.15 157.108 131.228C157.462 131.324 157.75 131.42 157.972 131.516C158.194 131.606 158.383 131.744 158.539 131.93C158.701 132.116 158.785 132.359 158.791 132.659C158.791 132.929 158.716 133.172 158.566 133.388C158.416 133.604 158.203 133.775 157.927 133.901C157.657 134.021 157.345 134.081 156.991 134.081ZM161.954 129.743H160.919V134H160.1V129.743H159.461V129.068H160.1V128.717C160.1 128.165 160.241 127.763 160.523 127.511C160.811 127.253 161.27 127.124 161.9 127.124V127.808C161.54 127.808 161.285 127.88 161.135 128.024C160.991 128.162 160.919 128.393 160.919 128.717V129.068H161.954V129.743ZM167.283 129.068V134H166.464V133.271C166.308 133.523 166.089 133.721 165.807 133.865C165.531 134.003 165.225 134.072 164.889 134.072C164.505 134.072 164.16 133.994 163.854 133.838C163.548 133.676 163.305 133.436 163.125 133.118C162.951 132.8 162.864 132.413 162.864 131.957V129.068H163.674V131.849C163.674 132.335 163.797 132.71 164.043 132.974C164.289 133.232 164.625 133.361 165.051 133.361C165.489 133.361 165.834 133.226 166.086 132.956C166.338 132.686 166.464 132.293 166.464 131.777V129.068H167.283ZM169.485 127.34V134H168.666V127.34H169.485ZM171.7 127.34V134H170.881V127.34H171.7ZM177.343 129.068L174.373 136.322H173.527L174.499 133.946L172.51 129.068H173.419L174.967 133.064L176.497 129.068H177.343ZM184.94 129.068V134H184.121V133.271C183.965 133.523 183.746 133.721 183.464 133.865C183.188 134.003 182.882 134.072 182.546 134.072C182.162 134.072 181.817 133.994 181.511 133.838C181.205 133.676 180.962 133.436 180.782 133.118C180.608 132.8 180.521 132.413 180.521 131.957V129.068H181.331V131.849C181.331 132.335 181.454 132.71 181.7 132.974C181.946 133.232 182.282 133.361 182.708 133.361C183.146 133.361 183.491 133.226 183.743 132.956C183.995 132.686 184.121 132.293 184.121 131.777V129.068H184.94ZM187.142 129.977C187.304 129.695 187.544 129.461 187.862 129.275C188.186 129.083 188.561 128.987 188.987 128.987C189.425 128.987 189.821 129.092 190.175 129.302C190.535 129.512 190.817 129.809 191.021 130.193C191.225 130.571 191.327 131.012 191.327 131.516C191.327 132.014 191.225 132.458 191.021 132.848C190.817 133.238 190.535 133.541 190.175 133.757C189.821 133.973 189.425 134.081 188.987 134.081C188.567 134.081 188.195 133.988 187.871 133.802C187.553 133.61 187.31 133.373 187.142 133.091V136.34H186.323V129.068H187.142V129.977ZM190.49 131.516C190.49 131.144 190.415 130.82 190.265 130.544C190.115 130.268 189.911 130.058 189.653 129.914C189.401 129.77 189.122 129.698 188.816 129.698C188.516 129.698 188.237 129.773 187.979 129.923C187.727 130.067 187.523 130.28 187.367 130.562C187.217 130.838 187.142 131.159 187.142 131.525C187.142 131.897 187.217 132.224 187.367 132.506C187.523 132.782 187.727 132.995 187.979 133.145C188.237 133.289 188.516 133.361 188.816 133.361C189.122 133.361 189.401 133.289 189.653 133.145C189.911 132.995 190.115 132.782 190.265 132.506C190.415 132.224 190.49 131.894 190.49 131.516ZM192.099 131.516C192.099 131.012 192.201 130.571 192.405 130.193C192.609 129.809 192.888 129.512 193.242 129.302C193.602 129.092 194.004 128.987 194.448 128.987C194.832 128.987 195.189 129.077 195.519 129.257C195.849 129.431 196.101 129.662 196.275 129.95V127.34H197.103V134H196.275V133.073C196.113 133.367 195.873 133.61 195.555 133.802C195.237 133.988 194.865 134.081 194.439 134.081C194.001 134.081 193.602 133.973 193.242 133.757C192.888 133.541 192.609 133.238 192.405 132.848C192.201 132.458 192.099 132.014 192.099 131.516ZM196.275 131.525C196.275 131.153 196.2 130.829 196.05 130.553C195.9 130.277 195.696 130.067 195.438 129.923C195.186 129.773 194.907 129.698 194.601 129.698C194.295 129.698 194.016 129.77 193.764 129.914C193.512 130.058 193.311 130.268 193.161 130.544C193.011 130.82 192.936 131.144 192.936 131.516C192.936 131.894 193.011 132.224 193.161 132.506C193.311 132.782 193.512 132.995 193.764 133.145C194.016 133.289 194.295 133.361 194.601 133.361C194.907 133.361 195.186 133.289 195.438 133.145C195.696 132.995 195.9 132.782 196.05 132.506C196.2 132.224 196.275 131.897 196.275 131.525ZM198.181 131.516C198.181 131.012 198.283 130.571 198.487 130.193C198.691 129.809 198.97 129.512 199.324 129.302C199.684 129.092 200.083 128.987 200.521 128.987C200.953 128.987 201.328 129.08 201.646 129.266C201.964 129.452 202.201 129.686 202.357 129.968V129.068H203.185V134H202.357V133.082C202.195 133.37 201.952 133.61 201.628 133.802C201.31 133.988 200.938 134.081 200.512 134.081C200.074 134.081 199.678 133.973 199.324 133.757C198.97 133.541 198.691 133.238 198.487 132.848C198.283 132.458 198.181 132.014 198.181 131.516ZM202.357 131.525C202.357 131.153 202.282 130.829 202.132 130.553C201.982 130.277 201.778 130.067 201.52 129.923C201.268 129.773 200.989 129.698 200.683 129.698C200.377 129.698 200.098 129.77 199.846 129.914C199.594 130.058 199.393 130.268 199.243 130.544C199.093 130.82 199.018 131.144 199.018 131.516C199.018 131.894 199.093 132.224 199.243 132.506C199.393 132.782 199.594 132.995 199.846 133.145C200.098 133.289 200.377 133.361 200.683 133.361C200.989 133.361 201.268 133.289 201.52 133.145C201.778 132.995 201.982 132.782 202.132 132.506C202.282 132.224 202.357 131.897 202.357 131.525ZM205.568 129.743V132.65C205.568 132.89 205.619 133.061 205.721 133.163C205.823 133.259 206 133.307 206.252 133.307H206.855V134H206.117C205.661 134 205.319 133.895 205.091 133.685C204.863 133.475 204.749 133.13 204.749 132.65V129.743H204.11V129.068H204.749V127.826H205.568V129.068H206.855V129.743H205.568ZM212.347 131.345C212.347 131.501 212.338 131.666 212.32 131.84H208.378C208.408 132.326 208.573 132.707 208.873 132.983C209.179 133.253 209.548 133.388 209.98 133.388C210.334 133.388 210.628 133.307 210.862 133.145C211.102 132.977 211.27 132.755 211.366 132.479H212.248C212.116 132.953 211.852 133.34 211.456 133.64C211.06 133.934 210.568 134.081 209.98 134.081C209.512 134.081 209.092 133.976 208.72 133.766C208.354 133.556 208.066 133.259 207.856 132.875C207.646 132.485 207.541 132.035 207.541 131.525C207.541 131.015 207.643 130.568 207.847 130.184C208.051 129.8 208.336 129.506 208.702 129.302C209.074 129.092 209.5 128.987 209.98 128.987C210.448 128.987 210.862 129.089 211.222 129.293C211.582 129.497 211.858 129.779 212.05 130.139C212.248 130.493 212.347 130.895 212.347 131.345ZM211.501 131.174C211.501 130.862 211.432 130.595 211.294 130.373C211.156 130.145 210.967 129.974 210.727 129.86C210.493 129.74 210.232 129.68 209.944 129.68C209.53 129.68 209.176 129.812 208.882 130.076C208.594 130.34 208.429 130.706 208.387 131.174H211.501ZM213.122 131.516C213.122 131.012 213.224 130.571 213.428 130.193C213.632 129.809 213.911 129.512 214.265 129.302C214.625 129.092 215.027 128.987 215.471 128.987C215.855 128.987 216.212 129.077 216.542 129.257C216.872 129.431 217.124 129.662 217.298 129.95V127.34H218.126V134H217.298V133.073C217.136 133.367 216.896 133.61 216.578 133.802C216.26 133.988 215.888 134.081 215.462 134.081C215.024 134.081 214.625 133.973 214.265 133.757C213.911 133.541 213.632 133.238 213.428 132.848C213.224 132.458 213.122 132.014 213.122 131.516ZM217.298 131.525C217.298 131.153 217.223 130.829 217.073 130.553C216.923 130.277 216.719 130.067 216.461 129.923C216.209 129.773 215.93 129.698 215.624 129.698C215.318 129.698 215.039 129.77 214.787 129.914C214.535 130.058 214.334 130.268 214.184 130.544C214.034 130.82 213.959 131.144 213.959 131.516C213.959 131.894 214.034 132.224 214.184 132.506C214.334 132.782 214.535 132.995 214.787 133.145C215.039 133.289 215.318 133.361 215.624 133.361C215.93 133.361 216.209 133.289 216.461 133.145C216.719 132.995 216.923 132.782 217.073 132.506C217.223 132.224 217.298 131.897 217.298 131.525Z" fill="#C4C4C4"/>
<g clip-path="url(#clip0)">
<path d="M97 51.2332L120.971 75.25L167 29.2666L160.392 22.7498L120.971 62.1247L103.517 44.6705L97 51.2332Z" fill="#34D330"/>
</g>
<g clip-path="url(#clip1)">
<path d="M243.283 13.0118L248.734 7.56032C249.089 7.20572 249.089 6.63239 248.734 6.27779C248.379 5.92319 247.806 5.92319 247.451 6.27779L242 11.7293L236.549 6.27779C236.194 5.92319 235.621 5.92319 235.266 6.27779C234.911 6.63239 234.911 7.20572 235.266 7.56032L240.717 13.0118L235.266 18.4633C234.911 18.8179 234.911 19.3912 235.266 19.7458C235.443 19.9227 235.675 20.0116 235.907 20.0116C236.14 20.0116 236.372 19.9227 236.549 19.7458L242 14.2943L247.451 19.7458C247.628 19.9227 247.86 20.0116 248.093 20.0116C248.325 20.0116 248.557 19.9227 248.734 19.7458C249.089 19.3912 249.089 18.8179 248.734 18.4633L243.283 13.0118Z" fill="#C4C4C4"/>
</g>
<defs>
<clipPath id="clip0">
<rect width="70" height="70" fill="white" transform="translate(97 14)"/>
</clipPath>
<clipPath id="clip1">
<rect width="14" height="14" fill="white" transform="translate(235 6)"/>
</clipPath>
</defs>
</svg>
