<svg width="255" height="196" viewBox="0 0 255 196" fill="none" xmlns="http://www.w3.org/2000/svg">
<rect width="255" height="196" fill="white"/>
<path d="M77.9242 103.812C77.9242 102.996 78.1082 102.264 78.4762 101.616C78.8442 100.96 79.3442 100.448 79.9762 100.08C80.6162 99.712 81.3242 99.528 82.1002 99.528C83.0122 99.528 83.8082 99.748 84.4882 100.188C85.1682 100.628 85.6642 101.252 85.9762 102.06H84.6682C84.4362 101.556 84.1002 101.168 83.6602 100.896C83.2282 100.624 82.7082 100.488 82.1002 100.488C81.5162 100.488 80.9922 100.624 80.5282 100.896C80.0642 101.168 79.7002 101.556 79.4362 102.06C79.1722 102.556 79.0402 103.14 79.0402 103.812C79.0402 104.476 79.1722 105.06 79.4362 105.564C79.7002 106.06 80.0642 106.444 80.5282 106.716C80.9922 106.988 81.5162 107.124 82.1002 107.124C82.7082 107.124 83.2282 106.992 83.6602 106.728C84.1002 106.456 84.4362 106.068 84.6682 105.564H85.9762C85.6642 106.364 85.1682 106.984 84.4882 107.424C83.8082 107.856 83.0122 108.072 82.1002 108.072C81.3242 108.072 80.6162 107.892 79.9762 107.532C79.3442 107.164 78.8442 106.656 78.4762 106.008C78.1082 105.36 77.9242 104.628 77.9242 103.812ZM90.4697 108.108C89.8537 108.108 89.2937 107.968 88.7897 107.688C88.2937 107.408 87.9017 107.012 87.6137 106.5C87.3337 105.98 87.1937 105.38 87.1937 104.7C87.1937 104.028 87.3377 103.436 87.6257 102.924C87.9217 102.404 88.3217 102.008 88.8257 101.736C89.3297 101.456 89.8937 101.316 90.5177 101.316C91.1417 101.316 91.7057 101.456 92.2097 101.736C92.7137 102.008 93.1097 102.4 93.3977 102.912C93.6937 103.424 93.8417 104.02 93.8417 104.7C93.8417 105.38 93.6897 105.98 93.3857 106.5C93.0897 107.012 92.6857 107.408 92.1737 107.688C91.6617 107.968 91.0937 108.108 90.4697 108.108ZM90.4697 107.148C90.8617 107.148 91.2297 107.056 91.5737 106.872C91.9177 106.688 92.1937 106.412 92.4017 106.044C92.6177 105.676 92.7257 105.228 92.7257 104.7C92.7257 104.172 92.6217 103.724 92.4137 103.356C92.2057 102.988 91.9337 102.716 91.5977 102.54C91.2617 102.356 90.8977 102.264 90.5057 102.264C90.1057 102.264 89.7377 102.356 89.4017 102.54C89.0737 102.716 88.8097 102.988 88.6097 103.356C88.4097 103.724 88.3097 104.172 88.3097 104.7C88.3097 105.236 88.4057 105.688 88.5977 106.056C88.7977 106.424 89.0617 106.7 89.3897 106.884C89.7177 107.06 90.0777 107.148 90.4697 107.148ZM98.4815 101.304C99.2815 101.304 99.9295 101.548 100.426 102.036C100.922 102.516 101.17 103.212 101.17 104.124V108H100.09V104.28C100.09 103.624 99.9255 103.124 99.5975 102.78C99.2695 102.428 98.8215 102.252 98.2535 102.252C97.6775 102.252 97.2175 102.432 96.8735 102.792C96.5375 103.152 96.3695 103.676 96.3695 104.364V108H95.2775V101.424H96.3695V102.36C96.5855 102.024 96.8775 101.764 97.2455 101.58C97.6215 101.396 98.0335 101.304 98.4815 101.304ZM105.629 102.324H104.249V108H103.157V102.324H102.305V101.424H103.157V100.956C103.157 100.22 103.345 99.684 103.721 99.348C104.105 99.004 104.717 98.832 105.557 98.832V99.744C105.077 99.744 104.737 99.84 104.537 100.032C104.345 100.216 104.249 100.524 104.249 100.956V101.424H105.629V102.324ZM107.467 100.356C107.259 100.356 107.083 100.284 106.939 100.14C106.795 99.996 106.723 99.82 106.723 99.612C106.723 99.404 106.795 99.228 106.939 99.084C107.083 98.94 107.259 98.868 107.467 98.868C107.667 98.868 107.835 98.94 107.971 99.084C108.115 99.228 108.187 99.404 108.187 99.612C108.187 99.82 108.115 99.996 107.971 100.14C107.835 100.284 107.667 100.356 107.467 100.356ZM107.995 101.424V108H106.903V101.424H107.995ZM110.948 102.492C111.14 102.116 111.412 101.824 111.764 101.616C112.124 101.408 112.56 101.304 113.072 101.304V102.432H112.784C111.56 102.432 110.948 103.096 110.948 104.424V108H109.856V101.424H110.948V102.492ZM122.24 101.304C122.752 101.304 123.208 101.412 123.608 101.628C124.008 101.836 124.324 102.152 124.556 102.576C124.788 103 124.904 103.516 124.904 104.124V108H123.824V104.28C123.824 103.624 123.66 103.124 123.332 102.78C123.012 102.428 122.576 102.252 122.024 102.252C121.456 102.252 121.004 102.436 120.668 102.804C120.332 103.164 120.164 103.688 120.164 104.376V108H119.084V104.28C119.084 103.624 118.92 103.124 118.592 102.78C118.272 102.428 117.836 102.252 117.284 102.252C116.716 102.252 116.264 102.436 115.928 102.804C115.592 103.164 115.424 103.688 115.424 104.376V108H114.332V101.424H115.424V102.372C115.64 102.028 115.928 101.764 116.288 101.58C116.656 101.396 117.06 101.304 117.5 101.304C118.052 101.304 118.54 101.428 118.964 101.676C119.388 101.924 119.704 102.288 119.912 102.768C120.096 102.304 120.4 101.944 120.824 101.688C121.248 101.432 121.72 101.304 122.24 101.304ZM129.487 104.688C129.487 104.016 129.623 103.428 129.895 102.924C130.167 102.412 130.539 102.016 131.011 101.736C131.491 101.456 132.027 101.316 132.619 101.316C133.131 101.316 133.607 101.436 134.047 101.676C134.487 101.908 134.823 102.216 135.055 102.6V99.12H136.159V108H135.055V106.764C134.839 107.156 134.519 107.48 134.095 107.736C133.671 107.984 133.175 108.108 132.607 108.108C132.023 108.108 131.491 107.964 131.011 107.676C130.539 107.388 130.167 106.984 129.895 106.464C129.623 105.944 129.487 105.352 129.487 104.688ZM135.055 104.7C135.055 104.204 134.955 103.772 134.755 103.404C134.555 103.036 134.283 102.756 133.939 102.564C133.603 102.364 133.231 102.264 132.823 102.264C132.415 102.264 132.043 102.36 131.707 102.552C131.371 102.744 131.103 103.024 130.903 103.392C130.703 103.76 130.603 104.192 130.603 104.688C130.603 105.192 130.703 105.632 130.903 106.008C131.103 106.376 131.371 106.66 131.707 106.86C132.043 107.052 132.415 107.148 132.823 107.148C133.231 107.148 133.603 107.052 133.939 106.86C134.283 106.66 134.555 106.376 134.755 106.008C134.955 105.632 135.055 105.196 135.055 104.7ZM144.004 104.46C144.004 104.668 143.992 104.888 143.968 105.12H138.712C138.752 105.768 138.972 106.276 139.372 106.644C139.78 107.004 140.272 107.184 140.848 107.184C141.32 107.184 141.712 107.076 142.024 106.86C142.344 106.636 142.568 106.34 142.696 105.972H143.872C143.696 106.604 143.344 107.12 142.816 107.52C142.288 107.912 141.632 108.108 140.848 108.108C140.224 108.108 139.664 107.968 139.168 107.688C138.68 107.408 138.296 107.012 138.016 106.5C137.736 105.98 137.596 105.38 137.596 104.7C137.596 104.02 137.732 103.424 138.004 102.912C138.276 102.4 138.656 102.008 139.144 101.736C139.64 101.456 140.208 101.316 140.848 101.316C141.472 101.316 142.024 101.452 142.504 101.724C142.984 101.996 143.352 102.372 143.608 102.852C143.872 103.324 144.004 103.86 144.004 104.46ZM142.876 104.232C142.876 103.816 142.784 103.46 142.6 103.164C142.416 102.86 142.164 102.632 141.844 102.48C141.532 102.32 141.184 102.24 140.8 102.24C140.248 102.24 139.776 102.416 139.384 102.768C139 103.12 138.78 103.608 138.724 104.232H142.876ZM146.537 99.12V108H145.445V99.12H146.537ZM154.399 104.46C154.399 104.668 154.387 104.888 154.363 105.12H149.107C149.147 105.768 149.367 106.276 149.767 106.644C150.175 107.004 150.667 107.184 151.243 107.184C151.715 107.184 152.107 107.076 152.419 106.86C152.739 106.636 152.963 106.34 153.091 105.972H154.267C154.091 106.604 153.739 107.12 153.211 107.52C152.683 107.912 152.027 108.108 151.243 108.108C150.619 108.108 150.059 107.968 149.563 107.688C149.075 107.408 148.691 107.012 148.411 106.5C148.131 105.98 147.991 105.38 147.991 104.7C147.991 104.02 148.127 103.424 148.399 102.912C148.671 102.4 149.051 102.008 149.539 101.736C150.035 101.456 150.603 101.316 151.243 101.316C151.867 101.316 152.419 101.452 152.899 101.724C153.379 101.996 153.747 102.372 154.003 102.852C154.267 103.324 154.399 103.86 154.399 104.46ZM153.271 104.232C153.271 103.816 153.179 103.46 152.995 103.164C152.811 102.86 152.559 102.632 152.239 102.48C151.927 102.32 151.579 102.24 151.195 102.24C150.643 102.24 150.171 102.416 149.779 102.768C149.395 103.12 149.175 103.608 149.119 104.232H153.271ZM157.172 102.324V106.2C157.172 106.52 157.24 106.748 157.376 106.884C157.512 107.012 157.748 107.076 158.084 107.076H158.888V108H157.904C157.296 108 156.84 107.86 156.536 107.58C156.232 107.3 156.08 106.84 156.08 106.2V102.324H155.228V101.424H156.08V99.768H157.172V101.424H158.888V102.324H157.172ZM160.775 100.356C160.567 100.356 160.391 100.284 160.247 100.14C160.103 99.996 160.031 99.82 160.031 99.612C160.031 99.404 160.103 99.228 160.247 99.084C160.391 98.94 160.567 98.868 160.775 98.868C160.975 98.868 161.143 98.94 161.279 99.084C161.423 99.228 161.495 99.404 161.495 99.612C161.495 99.82 161.423 99.996 161.279 100.14C161.143 100.284 160.975 100.356 160.775 100.356ZM161.303 101.424V108H160.211V101.424H161.303ZM166.032 108.108C165.416 108.108 164.856 107.968 164.352 107.688C163.856 107.408 163.464 107.012 163.176 106.5C162.896 105.98 162.756 105.38 162.756 104.7C162.756 104.028 162.9 103.436 163.188 102.924C163.484 102.404 163.884 102.008 164.388 101.736C164.892 101.456 165.456 101.316 166.08 101.316C166.704 101.316 167.268 101.456 167.772 101.736C168.276 102.008 168.672 102.4 168.96 102.912C169.256 103.424 169.404 104.02 169.404 104.7C169.404 105.38 169.252 105.98 168.948 106.5C168.652 107.012 168.248 107.408 167.736 107.688C167.224 107.968 166.656 108.108 166.032 108.108ZM166.032 107.148C166.424 107.148 166.792 107.056 167.136 106.872C167.48 106.688 167.756 106.412 167.964 106.044C168.18 105.676 168.288 105.228 168.288 104.7C168.288 104.172 168.184 103.724 167.976 103.356C167.768 102.988 167.496 102.716 167.16 102.54C166.824 102.356 166.46 102.264 166.068 102.264C165.668 102.264 165.3 102.356 164.964 102.54C164.636 102.716 164.372 102.988 164.172 103.356C163.972 103.724 163.872 104.172 163.872 104.7C163.872 105.236 163.968 105.688 164.16 106.056C164.36 106.424 164.624 106.7 164.952 106.884C165.28 107.06 165.64 107.148 166.032 107.148ZM174.044 101.304C174.844 101.304 175.492 101.548 175.988 102.036C176.484 102.516 176.732 103.212 176.732 104.124V108H175.652V104.28C175.652 103.624 175.488 103.124 175.16 102.78C174.832 102.428 174.384 102.252 173.816 102.252C173.24 102.252 172.78 102.432 172.436 102.792C172.1 103.152 171.932 103.676 171.932 104.364V108H170.84V101.424H171.932V102.36C172.148 102.024 172.44 101.764 172.808 101.58C173.184 101.396 173.596 101.304 174.044 101.304Z" fill="#F39C12"/>
<path d="M61.7442 127.727L59.7012 131.633V134H58.8822V131.633L56.8302 127.727H57.7392L59.2872 130.904L60.8352 127.727H61.7442ZM64.759 134.081C64.297 134.081 63.877 133.976 63.499 133.766C63.127 133.556 62.833 133.259 62.617 132.875C62.407 132.485 62.302 132.035 62.302 131.525C62.302 131.021 62.41 130.577 62.626 130.193C62.848 129.803 63.148 129.506 63.526 129.302C63.904 129.092 64.327 128.987 64.795 128.987C65.263 128.987 65.686 129.092 66.064 129.302C66.442 129.506 66.739 129.8 66.955 130.184C67.177 130.568 67.288 131.015 67.288 131.525C67.288 132.035 67.174 132.485 66.946 132.875C66.724 133.259 66.421 133.556 66.037 133.766C65.653 133.976 65.227 134.081 64.759 134.081ZM64.759 133.361C65.053 133.361 65.329 133.292 65.587 133.154C65.845 133.016 66.052 132.809 66.208 132.533C66.37 132.257 66.451 131.921 66.451 131.525C66.451 131.129 66.373 130.793 66.217 130.517C66.061 130.241 65.857 130.037 65.605 129.905C65.353 129.767 65.08 129.698 64.786 129.698C64.486 129.698 64.21 129.767 63.958 129.905C63.712 130.037 63.514 130.241 63.364 130.517C63.214 130.793 63.139 131.129 63.139 131.525C63.139 131.927 63.211 132.266 63.355 132.542C63.505 132.818 63.703 133.025 63.949 133.163C64.195 133.295 64.465 133.361 64.759 133.361ZM72.7389 129.068V134H71.9199V133.271C71.7639 133.523 71.5449 133.721 71.2629 133.865C70.9869 134.003 70.6809 134.072 70.3449 134.072C69.9609 134.072 69.6159 133.994 69.3099 133.838C69.0039 133.676 68.7609 133.436 68.5809 133.118C68.4069 132.8 68.3199 132.413 68.3199 131.957V129.068H69.1299V131.849C69.1299 132.335 69.2529 132.71 69.4989 132.974C69.7449 133.232 70.0809 133.361 70.5069 133.361C70.9449 133.361 71.2899 133.226 71.5419 132.956C71.7939 132.686 71.9199 132.293 71.9199 131.777V129.068H72.7389ZM76.2151 131.516C76.2151 131.012 76.3171 130.571 76.5211 130.193C76.7251 129.809 77.0041 129.512 77.3581 129.302C77.7181 129.092 78.1171 128.987 78.5551 128.987C78.9871 128.987 79.3621 129.08 79.6801 129.266C79.9981 129.452 80.2351 129.686 80.3911 129.968V129.068H81.2191V134H80.3911V133.082C80.2291 133.37 79.9861 133.61 79.6621 133.802C79.3441 133.988 78.9721 134.081 78.5461 134.081C78.1081 134.081 77.7121 133.973 77.3581 133.757C77.0041 133.541 76.7251 133.238 76.5211 132.848C76.3171 132.458 76.2151 132.014 76.2151 131.516ZM80.3911 131.525C80.3911 131.153 80.3161 130.829 80.1661 130.553C80.0161 130.277 79.8121 130.067 79.5541 129.923C79.3021 129.773 79.0231 129.698 78.7171 129.698C78.4111 129.698 78.1321 129.77 77.8801 129.914C77.6281 130.058 77.4271 130.268 77.2771 130.544C77.1271 130.82 77.0521 131.144 77.0521 131.516C77.0521 131.894 77.1271 132.224 77.2771 132.506C77.4271 132.782 77.6281 132.995 77.8801 133.145C78.1321 133.289 78.4111 133.361 78.7171 133.361C79.0231 133.361 79.3021 133.289 79.5541 133.145C79.8121 132.995 80.0161 132.782 80.1661 132.506C80.3161 132.224 80.3911 131.897 80.3911 131.525ZM83.4222 129.869C83.5662 129.587 83.7702 129.368 84.0342 129.212C84.3042 129.056 84.6312 128.978 85.0152 128.978V129.824H84.7992C83.8812 129.824 83.4222 130.322 83.4222 131.318V134H82.6032V129.068H83.4222V129.869ZM90.4606 131.345C90.4606 131.501 90.4516 131.666 90.4336 131.84H86.4916C86.5216 132.326 86.6866 132.707 86.9866 132.983C87.2926 133.253 87.6616 133.388 88.0936 133.388C88.4476 133.388 88.7416 133.307 88.9756 133.145C89.2156 132.977 89.3836 132.755 89.4796 132.479H90.3616C90.2296 132.953 89.9656 133.34 89.5696 133.64C89.1736 133.934 88.6816 134.081 88.0936 134.081C87.6256 134.081 87.2056 133.976 86.8336 133.766C86.4676 133.556 86.1796 133.259 85.9696 132.875C85.7596 132.485 85.6546 132.035 85.6546 131.525C85.6546 131.015 85.7566 130.568 85.9606 130.184C86.1646 129.8 86.4496 129.506 86.8156 129.302C87.1876 129.092 87.6136 128.987 88.0936 128.987C88.5616 128.987 88.9756 129.089 89.3356 129.293C89.6956 129.497 89.9716 129.779 90.1636 130.139C90.3616 130.493 90.4606 130.895 90.4606 131.345ZM89.6146 131.174C89.6146 130.862 89.5456 130.595 89.4076 130.373C89.2696 130.145 89.0806 129.974 88.8406 129.86C88.6066 129.74 88.3456 129.68 88.0576 129.68C87.6436 129.68 87.2896 129.812 86.9956 130.076C86.7076 130.34 86.5426 130.706 86.5006 131.174H89.6146ZM93.635 131.516C93.635 131.012 93.737 130.571 93.941 130.193C94.145 129.809 94.424 129.512 94.778 129.302C95.138 129.092 95.537 128.987 95.975 128.987C96.407 128.987 96.782 129.08 97.1 129.266C97.418 129.452 97.655 129.686 97.811 129.968V129.068H98.639V134H97.811V133.082C97.649 133.37 97.406 133.61 97.082 133.802C96.764 133.988 96.392 134.081 95.966 134.081C95.528 134.081 95.132 133.973 94.778 133.757C94.424 133.541 94.145 133.238 93.941 132.848C93.737 132.458 93.635 132.014 93.635 131.516ZM97.811 131.525C97.811 131.153 97.736 130.829 97.586 130.553C97.436 130.277 97.232 130.067 96.974 129.923C96.722 129.773 96.443 129.698 96.137 129.698C95.831 129.698 95.552 129.77 95.3 129.914C95.048 130.058 94.847 130.268 94.697 130.544C94.547 130.82 94.472 131.144 94.472 131.516C94.472 131.894 94.547 132.224 94.697 132.506C94.847 132.782 95.048 132.995 95.3 133.145C95.552 133.289 95.831 133.361 96.137 133.361C96.443 133.361 96.722 133.289 96.974 133.145C97.232 132.995 97.436 132.782 97.586 132.506C97.736 132.224 97.811 131.897 97.811 131.525ZM100.842 129.986C101.01 129.692 101.256 129.452 101.58 129.266C101.904 129.08 102.273 128.987 102.687 128.987C103.131 128.987 103.53 129.092 103.884 129.302C104.238 129.512 104.517 129.809 104.721 130.193C104.925 130.571 105.027 131.012 105.027 131.516C105.027 132.014 104.925 132.458 104.721 132.848C104.517 133.238 104.235 133.541 103.875 133.757C103.521 133.973 103.125 134.081 102.687 134.081C102.261 134.081 101.886 133.988 101.562 133.802C101.244 133.616 101.004 133.379 100.842 133.091V134H100.023V127.34H100.842V129.986ZM104.19 131.516C104.19 131.144 104.115 130.82 103.965 130.544C103.815 130.268 103.611 130.058 103.353 129.914C103.101 129.77 102.822 129.698 102.516 129.698C102.216 129.698 101.937 129.773 101.679 129.923C101.427 130.067 101.223 130.28 101.067 130.562C100.917 130.838 100.842 131.159 100.842 131.525C100.842 131.897 100.917 132.224 101.067 132.506C101.223 132.782 101.427 132.995 101.679 133.145C101.937 133.289 102.216 133.361 102.516 133.361C102.822 133.361 103.101 133.289 103.353 133.145C103.611 132.995 103.815 132.782 103.965 132.506C104.115 132.224 104.19 131.894 104.19 131.516ZM108.256 134.081C107.794 134.081 107.374 133.976 106.996 133.766C106.624 133.556 106.33 133.259 106.114 132.875C105.904 132.485 105.799 132.035 105.799 131.525C105.799 131.021 105.907 130.577 106.123 130.193C106.345 129.803 106.645 129.506 107.023 129.302C107.401 129.092 107.824 128.987 108.292 128.987C108.76 128.987 109.183 129.092 109.561 129.302C109.939 129.506 110.236 129.8 110.452 130.184C110.674 130.568 110.785 131.015 110.785 131.525C110.785 132.035 110.671 132.485 110.443 132.875C110.221 133.259 109.918 133.556 109.534 133.766C109.15 133.976 108.724 134.081 108.256 134.081ZM108.256 133.361C108.55 133.361 108.826 133.292 109.084 133.154C109.342 133.016 109.549 132.809 109.705 132.533C109.867 132.257 109.948 131.921 109.948 131.525C109.948 131.129 109.87 130.793 109.714 130.517C109.558 130.241 109.354 130.037 109.102 129.905C108.85 129.767 108.577 129.698 108.283 129.698C107.983 129.698 107.707 129.767 107.455 129.905C107.209 130.037 107.011 130.241 106.861 130.517C106.711 130.793 106.636 131.129 106.636 131.525C106.636 131.927 106.708 132.266 106.852 132.542C107.002 132.818 107.2 133.025 107.446 133.163C107.692 133.295 107.962 133.361 108.256 133.361ZM116.236 129.068V134H115.417V133.271C115.261 133.523 115.042 133.721 114.76 133.865C114.484 134.003 114.178 134.072 113.842 134.072C113.458 134.072 113.113 133.994 112.807 133.838C112.501 133.676 112.258 133.436 112.078 133.118C111.904 132.8 111.817 132.413 111.817 131.957V129.068H112.627V131.849C112.627 132.335 112.75 132.71 112.996 132.974C113.242 133.232 113.578 133.361 114.004 133.361C114.442 133.361 114.787 133.226 115.039 132.956C115.291 132.686 115.417 132.293 115.417 131.777V129.068H116.236ZM118.618 129.743V132.65C118.618 132.89 118.669 133.061 118.771 133.163C118.873 133.259 119.05 133.307 119.302 133.307H119.905V134H119.167C118.711 134 118.369 133.895 118.141 133.685C117.913 133.475 117.799 133.13 117.799 132.65V129.743H117.16V129.068H117.799V127.826H118.618V129.068H119.905V129.743H118.618ZM124.296 129.743V132.65C124.296 132.89 124.347 133.061 124.449 133.163C124.551 133.259 124.728 133.307 124.98 133.307H125.583V134H124.845C124.389 134 124.047 133.895 123.819 133.685C123.591 133.475 123.477 133.13 123.477 132.65V129.743H122.838V129.068H123.477V127.826H124.296V129.068H125.583V129.743H124.296ZM128.726 134.081C128.264 134.081 127.844 133.976 127.466 133.766C127.094 133.556 126.8 133.259 126.584 132.875C126.374 132.485 126.269 132.035 126.269 131.525C126.269 131.021 126.377 130.577 126.593 130.193C126.815 129.803 127.115 129.506 127.493 129.302C127.871 129.092 128.294 128.987 128.762 128.987C129.23 128.987 129.653 129.092 130.031 129.302C130.409 129.506 130.706 129.8 130.922 130.184C131.144 130.568 131.255 131.015 131.255 131.525C131.255 132.035 131.141 132.485 130.913 132.875C130.691 133.259 130.388 133.556 130.004 133.766C129.62 133.976 129.194 134.081 128.726 134.081ZM128.726 133.361C129.02 133.361 129.296 133.292 129.554 133.154C129.812 133.016 130.019 132.809 130.175 132.533C130.337 132.257 130.418 131.921 130.418 131.525C130.418 131.129 130.34 130.793 130.184 130.517C130.028 130.241 129.824 130.037 129.572 129.905C129.32 129.767 129.047 129.698 128.753 129.698C128.453 129.698 128.177 129.767 127.925 129.905C127.679 130.037 127.481 130.241 127.331 130.517C127.181 130.793 127.106 131.129 127.106 131.525C127.106 131.927 127.178 132.266 127.322 132.542C127.472 132.818 127.67 133.025 127.916 133.163C128.162 133.295 128.432 133.361 128.726 133.361ZM134.425 131.516C134.425 131.012 134.527 130.571 134.731 130.193C134.935 129.809 135.214 129.512 135.568 129.302C135.928 129.092 136.33 128.987 136.774 128.987C137.158 128.987 137.515 129.077 137.845 129.257C138.175 129.431 138.427 129.662 138.601 129.95V127.34H139.429V134H138.601V133.073C138.439 133.367 138.199 133.61 137.881 133.802C137.563 133.988 137.191 134.081 136.765 134.081C136.327 134.081 135.928 133.973 135.568 133.757C135.214 133.541 134.935 133.238 134.731 132.848C134.527 132.458 134.425 132.014 134.425 131.516ZM138.601 131.525C138.601 131.153 138.526 130.829 138.376 130.553C138.226 130.277 138.022 130.067 137.764 129.923C137.512 129.773 137.233 129.698 136.927 129.698C136.621 129.698 136.342 129.77 136.09 129.914C135.838 130.058 135.637 130.268 135.487 130.544C135.337 130.82 135.262 131.144 135.262 131.516C135.262 131.894 135.337 132.224 135.487 132.506C135.637 132.782 135.838 132.995 136.09 133.145C136.342 133.289 136.621 133.361 136.927 133.361C137.233 133.361 137.512 133.289 137.764 133.145C138.022 132.995 138.226 132.782 138.376 132.506C138.526 132.224 138.601 131.897 138.601 131.525ZM145.313 131.345C145.313 131.501 145.304 131.666 145.286 131.84H141.344C141.374 132.326 141.539 132.707 141.839 132.983C142.145 133.253 142.514 133.388 142.946 133.388C143.3 133.388 143.594 133.307 143.828 133.145C144.068 132.977 144.236 132.755 144.332 132.479H145.214C145.082 132.953 144.818 133.34 144.422 133.64C144.026 133.934 143.534 134.081 142.946 134.081C142.478 134.081 142.058 133.976 141.686 133.766C141.32 133.556 141.032 133.259 140.822 132.875C140.612 132.485 140.507 132.035 140.507 131.525C140.507 131.015 140.609 130.568 140.813 130.184C141.017 129.8 141.302 129.506 141.668 129.302C142.04 129.092 142.466 128.987 142.946 128.987C143.414 128.987 143.828 129.089 144.188 129.293C144.548 129.497 144.824 129.779 145.016 130.139C145.214 130.493 145.313 130.895 145.313 131.345ZM144.467 131.174C144.467 130.862 144.398 130.595 144.26 130.373C144.122 130.145 143.933 129.974 143.693 129.86C143.459 129.74 143.198 129.68 142.91 129.68C142.496 129.68 142.142 129.812 141.848 130.076C141.56 130.34 141.395 130.706 141.353 131.174H144.467ZM147.213 127.34V134H146.394V127.34H147.213ZM153.109 131.345C153.109 131.501 153.1 131.666 153.082 131.84H149.14C149.17 132.326 149.335 132.707 149.635 132.983C149.941 133.253 150.31 133.388 150.742 133.388C151.096 133.388 151.39 133.307 151.624 133.145C151.864 132.977 152.032 132.755 152.128 132.479H153.01C152.878 132.953 152.614 133.34 152.218 133.64C151.822 133.934 151.33 134.081 150.742 134.081C150.274 134.081 149.854 133.976 149.482 133.766C149.116 133.556 148.828 133.259 148.618 132.875C148.408 132.485 148.303 132.035 148.303 131.525C148.303 131.015 148.405 130.568 148.609 130.184C148.813 129.8 149.098 129.506 149.464 129.302C149.836 129.092 150.262 128.987 150.742 128.987C151.21 128.987 151.624 129.089 151.984 129.293C152.344 129.497 152.62 129.779 152.812 130.139C153.01 130.493 153.109 130.895 153.109 131.345ZM152.263 131.174C152.263 130.862 152.194 130.595 152.056 130.373C151.918 130.145 151.729 129.974 151.489 129.86C151.255 129.74 150.994 129.68 150.706 129.68C150.292 129.68 149.938 129.812 149.644 130.076C149.356 130.34 149.191 130.706 149.149 131.174H152.263ZM155.189 129.743V132.65C155.189 132.89 155.24 133.061 155.342 133.163C155.444 133.259 155.621 133.307 155.873 133.307H156.476V134H155.738C155.282 134 154.94 133.895 154.712 133.685C154.484 133.475 154.37 133.13 154.37 132.65V129.743H153.731V129.068H154.37V127.826H155.189V129.068H156.476V129.743H155.189ZM161.968 131.345C161.968 131.501 161.959 131.666 161.941 131.84H157.999C158.029 132.326 158.194 132.707 158.494 132.983C158.8 133.253 159.169 133.388 159.601 133.388C159.955 133.388 160.249 133.307 160.483 133.145C160.723 132.977 160.891 132.755 160.987 132.479H161.869C161.737 132.953 161.473 133.34 161.077 133.64C160.681 133.934 160.189 134.081 159.601 134.081C159.133 134.081 158.713 133.976 158.341 133.766C157.975 133.556 157.687 133.259 157.477 132.875C157.267 132.485 157.162 132.035 157.162 131.525C157.162 131.015 157.264 130.568 157.468 130.184C157.672 129.8 157.957 129.506 158.323 129.302C158.695 129.092 159.121 128.987 159.601 128.987C160.069 128.987 160.483 129.089 160.843 129.293C161.203 129.497 161.479 129.779 161.671 130.139C161.869 130.493 161.968 130.895 161.968 131.345ZM161.122 131.174C161.122 130.862 161.053 130.595 160.915 130.373C160.777 130.145 160.588 129.974 160.348 129.86C160.114 129.74 159.853 129.68 159.565 129.68C159.151 129.68 158.797 129.812 158.503 130.076C158.215 130.34 158.05 130.706 158.008 131.174H161.122ZM165.143 131.516C165.143 131.012 165.245 130.571 165.449 130.193C165.653 129.809 165.932 129.512 166.286 129.302C166.646 129.092 167.045 128.987 167.483 128.987C167.915 128.987 168.29 129.08 168.608 129.266C168.926 129.452 169.163 129.686 169.319 129.968V129.068H170.147V134H169.319V133.082C169.157 133.37 168.914 133.61 168.59 133.802C168.272 133.988 167.9 134.081 167.474 134.081C167.036 134.081 166.64 133.973 166.286 133.757C165.932 133.541 165.653 133.238 165.449 132.848C165.245 132.458 165.143 132.014 165.143 131.516ZM169.319 131.525C169.319 131.153 169.244 130.829 169.094 130.553C168.944 130.277 168.74 130.067 168.482 129.923C168.23 129.773 167.951 129.698 167.645 129.698C167.339 129.698 167.06 129.77 166.808 129.914C166.556 130.058 166.355 130.268 166.205 130.544C166.055 130.82 165.98 131.144 165.98 131.516C165.98 131.894 166.055 132.224 166.205 132.506C166.355 132.782 166.556 132.995 166.808 133.145C167.06 133.289 167.339 133.361 167.645 133.361C167.951 133.361 168.23 133.289 168.482 133.145C168.74 132.995 168.944 132.782 169.094 132.506C169.244 132.224 169.319 131.897 169.319 131.525ZM173.934 128.978C174.534 128.978 175.02 129.161 175.392 129.527C175.764 129.887 175.95 130.409 175.95 131.093V134H175.14V131.21C175.14 130.718 175.017 130.343 174.771 130.085C174.525 129.821 174.189 129.689 173.763 129.689C173.331 129.689 172.986 129.824 172.728 130.094C172.476 130.364 172.35 130.757 172.35 131.273V134H171.531V129.068H172.35V129.77C172.512 129.518 172.731 129.323 173.007 129.185C173.289 129.047 173.598 128.978 173.934 128.978ZM180.11 128.267C179.954 128.267 179.822 128.213 179.714 128.105C179.606 127.997 179.552 127.865 179.552 127.709C179.552 127.553 179.606 127.421 179.714 127.313C179.822 127.205 179.954 127.151 180.11 127.151C180.26 127.151 180.386 127.205 180.488 127.313C180.596 127.421 180.65 127.553 180.65 127.709C180.65 127.865 180.596 127.997 180.488 128.105C180.386 128.213 180.26 128.267 180.11 128.267ZM180.506 129.068V134H179.687V129.068H180.506ZM182.901 129.743V132.65C182.901 132.89 182.952 133.061 183.054 133.163C183.156 133.259 183.333 133.307 183.585 133.307H184.188V134H183.45C182.994 134 182.652 133.895 182.424 133.685C182.196 133.475 182.082 133.13 182.082 132.65V129.743H181.443V129.068H182.082V127.826H182.901V129.068H184.188V129.743H182.901ZM189.68 131.345C189.68 131.501 189.671 131.666 189.653 131.84H185.711C185.741 132.326 185.906 132.707 186.206 132.983C186.512 133.253 186.881 133.388 187.313 133.388C187.667 133.388 187.961 133.307 188.195 133.145C188.435 132.977 188.603 132.755 188.699 132.479H189.581C189.449 132.953 189.185 133.34 188.789 133.64C188.393 133.934 187.901 134.081 187.313 134.081C186.845 134.081 186.425 133.976 186.053 133.766C185.687 133.556 185.399 133.259 185.189 132.875C184.979 132.485 184.874 132.035 184.874 131.525C184.874 131.015 184.976 130.568 185.18 130.184C185.384 129.8 185.669 129.506 186.035 129.302C186.407 129.092 186.833 128.987 187.313 128.987C187.781 128.987 188.195 129.089 188.555 129.293C188.915 129.497 189.191 129.779 189.383 130.139C189.581 130.493 189.68 130.895 189.68 131.345ZM188.834 131.174C188.834 130.862 188.765 130.595 188.627 130.373C188.489 130.145 188.3 129.974 188.06 129.86C187.826 129.74 187.565 129.68 187.277 129.68C186.863 129.68 186.509 129.812 186.215 130.076C185.927 130.34 185.762 130.706 185.72 131.174H188.834ZM196.692 128.978C197.076 128.978 197.418 129.059 197.718 129.221C198.018 129.377 198.255 129.614 198.429 129.932C198.603 130.25 198.69 130.637 198.69 131.093V134H197.88V131.21C197.88 130.718 197.757 130.343 197.511 130.085C197.271 129.821 196.944 129.689 196.53 129.689C196.104 129.689 195.765 129.827 195.513 130.103C195.261 130.373 195.135 130.766 195.135 131.282V134H194.325V131.21C194.325 130.718 194.202 130.343 193.956 130.085C193.716 129.821 193.389 129.689 192.975 129.689C192.549 129.689 192.21 129.827 191.958 130.103C191.706 130.373 191.58 130.766 191.58 131.282V134H190.761V129.068H191.58V129.779C191.742 129.521 191.958 129.323 192.228 129.185C192.504 129.047 192.807 128.978 193.137 128.978C193.551 128.978 193.917 129.071 194.235 129.257C194.553 129.443 194.79 129.716 194.946 130.076C195.084 129.728 195.312 129.458 195.63 129.266C195.948 129.074 196.302 128.978 196.692 128.978Z" fill="#C4C4C4"/>
<path d="M127.5 24C112.852 24 101 35.8533 101 50.5C101 65.1478 112.853 77 127.5 77C142.148 77 154 65.1467 154 50.5C154 35.8522 142.147 24 127.5 24ZM127.5 72.8594C115.141 72.8594 105.141 62.8582 105.141 50.5C105.141 38.141 115.142 28.1406 127.5 28.1406C139.859 28.1406 149.859 38.1418 149.859 50.5C149.859 62.859 139.858 72.8594 127.5 72.8594Z" fill="#F39C12"/>
<path d="M127.5 46.1865C126.357 46.1865 125.43 47.1134 125.43 48.2568V61.5889C125.43 62.7324 126.357 63.6592 127.5 63.6592C128.643 63.6592 129.57 62.7323 129.57 61.5888V48.2568C129.57 47.1134 128.643 46.1865 127.5 46.1865Z" fill="#F39C12"/>
<path d="M127.5 43.6515C129.044 43.6515 130.295 42.4002 130.295 40.8566C130.295 39.313 129.044 38.0616 127.5 38.0616C125.956 38.0616 124.705 39.313 124.705 40.8566C124.705 42.4002 125.956 43.6515 127.5 43.6515Z" fill="#F39C12"/>
<g clip-path="url(#clip0)">
<path d="M243.283 13.0118L248.734 7.56032C249.089 7.20572 249.089 6.63239 248.734 6.27779C248.379 5.92319 247.806 5.92319 247.451 6.27779L242 11.7293L236.549 6.27779C236.194 5.92319 235.621 5.92319 235.266 6.27779C234.911 6.63239 234.911 7.20572 235.266 7.56032L240.717 13.0118L235.266 18.4633C234.911 18.8179 234.911 19.3912 235.266 19.7458C235.443 19.9227 235.675 20.0116 235.907 20.0116C236.14 20.0116 236.372 19.9227 236.549 19.7458L242 14.2943L247.451 19.7458C247.628 19.9227 247.86 20.0116 248.093 20.0116C248.325 20.0116 248.557 19.9227 248.734 19.7458C249.089 19.3912 249.089 18.8179 248.734 18.4633L243.283 13.0118Z" fill="#C4C4C4"/>
</g>
<rect x="69.5" y="150.5" width="55" height="18" rx="3.5" stroke="#FC5266"/>
<path d="M82.234 155.333C83.07 155.333 83.7923 155.491 84.401 155.806C85.017 156.114 85.4863 156.558 85.809 157.137C86.139 157.716 86.304 158.398 86.304 159.183C86.304 159.968 86.139 160.65 85.809 161.229C85.4863 161.801 85.017 162.241 84.401 162.549C83.7923 162.85 83.07 163 82.234 163H79.847V155.333H82.234ZM82.234 162.175C83.224 162.175 83.9793 161.915 84.5 161.394C85.0207 160.866 85.281 160.129 85.281 159.183C85.281 158.23 85.017 157.485 84.489 156.95C83.9683 156.415 83.2167 156.147 82.234 156.147H80.848V162.175H82.234ZM93.1243 159.755C93.1243 159.946 93.1133 160.147 93.0913 160.36H88.2733C88.31 160.954 88.5117 161.42 88.8783 161.757C89.2523 162.087 89.7033 162.252 90.2313 162.252C90.664 162.252 91.0233 162.153 91.3093 161.955C91.6027 161.75 91.808 161.478 91.9253 161.141H93.0033C92.842 161.72 92.5193 162.193 92.0353 162.56C91.5513 162.919 90.95 163.099 90.2313 163.099C89.6593 163.099 89.146 162.971 88.6913 162.714C88.244 162.457 87.892 162.094 87.6353 161.625C87.3787 161.148 87.2503 160.598 87.2503 159.975C87.2503 159.352 87.375 158.805 87.6243 158.336C87.8737 157.867 88.222 157.507 88.6693 157.258C89.124 157.001 89.6447 156.873 90.2313 156.873C90.8033 156.873 91.3093 156.998 91.7493 157.247C92.1893 157.496 92.5267 157.841 92.7613 158.281C93.0033 158.714 93.1243 159.205 93.1243 159.755ZM92.0903 159.546C92.0903 159.165 92.006 158.838 91.8373 158.567C91.6687 158.288 91.4377 158.079 91.1443 157.94C90.8583 157.793 90.5393 157.72 90.1873 157.72C89.6813 157.72 89.2487 157.881 88.8893 158.204C88.5373 158.527 88.3357 158.974 88.2843 159.546H92.0903ZM95.4466 154.86V163H94.4456V154.86H95.4466ZM102.653 159.755C102.653 159.946 102.642 160.147 102.62 160.36H97.8017C97.8383 160.954 98.04 161.42 98.4067 161.757C98.7807 162.087 99.2317 162.252 99.7597 162.252C100.192 162.252 100.552 162.153 100.838 161.955C101.131 161.75 101.336 161.478 101.454 161.141H102.532C102.37 161.72 102.048 162.193 101.564 162.56C101.08 162.919 100.478 163.099 99.7597 163.099C99.1877 163.099 98.6743 162.971 98.2197 162.714C97.7723 162.457 97.4203 162.094 97.1637 161.625C96.907 161.148 96.7787 160.598 96.7787 159.975C96.7787 159.352 96.9033 158.805 97.1527 158.336C97.402 157.867 97.7503 157.507 98.1977 157.258C98.6523 157.001 99.173 156.873 99.7597 156.873C100.332 156.873 100.838 156.998 101.278 157.247C101.718 157.496 102.055 157.841 102.29 158.281C102.532 158.714 102.653 159.205 102.653 159.755ZM101.619 159.546C101.619 159.165 101.534 158.838 101.366 158.567C101.197 158.288 100.966 158.079 100.673 157.94C100.387 157.793 100.068 157.72 99.7157 157.72C99.2097 157.72 98.777 157.881 98.4177 158.204C98.0657 158.527 97.864 158.974 97.8127 159.546H101.619ZM105.195 157.797V161.35C105.195 161.643 105.257 161.852 105.382 161.977C105.507 162.094 105.723 162.153 106.031 162.153H106.768V163H105.866C105.309 163 104.891 162.872 104.612 162.615C104.333 162.358 104.194 161.937 104.194 161.35V157.797H103.413V156.972H104.194V155.454H105.195V156.972H106.768V157.797H105.195ZM113.481 159.755C113.481 159.946 113.47 160.147 113.448 160.36H108.63C108.666 160.954 108.868 161.42 109.235 161.757C109.609 162.087 110.06 162.252 110.588 162.252C111.02 162.252 111.38 162.153 111.666 161.955C111.959 161.75 112.164 161.478 112.282 161.141H113.36C113.198 161.72 112.876 162.193 112.392 162.56C111.908 162.919 111.306 163.099 110.588 163.099C110.016 163.099 109.502 162.971 109.048 162.714C108.6 162.457 108.248 162.094 107.992 161.625C107.735 161.148 107.607 160.598 107.607 159.975C107.607 159.352 107.731 158.805 107.981 158.336C108.23 157.867 108.578 157.507 109.026 157.258C109.48 157.001 110.001 156.873 110.588 156.873C111.16 156.873 111.666 156.998 112.106 157.247C112.546 157.496 112.883 157.841 113.118 158.281C113.36 158.714 113.481 159.205 113.481 159.755ZM112.447 159.546C112.447 159.165 112.362 158.838 112.194 158.567C112.025 158.288 111.794 158.079 111.501 157.94C111.215 157.793 110.896 157.72 110.544 157.72C110.038 157.72 109.605 157.881 109.246 158.204C108.894 158.527 108.692 158.974 108.641 159.546H112.447Z" fill="#FC5266"/>
<rect x="130" y="150" width="56" height="19" rx="4" fill="#5282FC"/>
<path d="M138.473 159.161C138.473 158.413 138.642 157.742 138.979 157.148C139.316 156.547 139.775 156.077 140.354 155.74C140.941 155.403 141.59 155.234 142.301 155.234C143.137 155.234 143.867 155.436 144.49 155.839C145.113 156.242 145.568 156.814 145.854 157.555H144.655C144.442 157.093 144.134 156.737 143.731 156.488C143.335 156.239 142.858 156.114 142.301 156.114C141.766 156.114 141.285 156.239 140.86 156.488C140.435 156.737 140.101 157.093 139.859 157.555C139.617 158.01 139.496 158.545 139.496 159.161C139.496 159.77 139.617 160.305 139.859 160.767C140.101 161.222 140.435 161.574 140.86 161.823C141.285 162.072 141.766 162.197 142.301 162.197C142.858 162.197 143.335 162.076 143.731 161.834C144.134 161.585 144.442 161.229 144.655 160.767H145.854C145.568 161.5 145.113 162.069 144.49 162.472C143.867 162.868 143.137 163.066 142.301 163.066C141.59 163.066 140.941 162.901 140.354 162.571C139.775 162.234 139.316 161.768 138.979 161.174C138.642 160.58 138.473 159.909 138.473 159.161ZM146.97 159.964C146.97 159.348 147.095 158.809 147.344 158.347C147.593 157.878 147.934 157.515 148.367 157.258C148.807 157.001 149.295 156.873 149.83 156.873C150.358 156.873 150.816 156.987 151.205 157.214C151.594 157.441 151.883 157.727 152.074 158.072V156.972H153.086V163H152.074V161.878C151.876 162.23 151.579 162.523 151.183 162.758C150.794 162.985 150.34 163.099 149.819 163.099C149.284 163.099 148.8 162.967 148.367 162.703C147.934 162.439 147.593 162.069 147.344 161.592C147.095 161.115 146.97 160.573 146.97 159.964ZM152.074 159.975C152.074 159.52 151.982 159.124 151.799 158.787C151.616 158.45 151.366 158.193 151.051 158.017C150.743 157.834 150.402 157.742 150.028 157.742C149.654 157.742 149.313 157.83 149.005 158.006C148.697 158.182 148.451 158.439 148.268 158.776C148.085 159.113 147.993 159.509 147.993 159.964C147.993 160.426 148.085 160.829 148.268 161.174C148.451 161.511 148.697 161.772 149.005 161.955C149.313 162.131 149.654 162.219 150.028 162.219C150.402 162.219 150.743 162.131 151.051 161.955C151.366 161.772 151.616 161.511 151.799 161.174C151.982 160.829 152.074 160.43 152.074 159.975ZM157.715 156.862C158.448 156.862 159.042 157.086 159.497 157.533C159.951 157.973 160.179 158.611 160.179 159.447V163H159.189V159.59C159.189 158.989 159.038 158.53 158.738 158.215C158.437 157.892 158.026 157.731 157.506 157.731C156.978 157.731 156.556 157.896 156.241 158.226C155.933 158.556 155.779 159.036 155.779 159.667V163H154.778V156.972H155.779V157.83C155.977 157.522 156.244 157.284 156.582 157.115C156.926 156.946 157.304 156.862 157.715 156.862ZM161.44 159.975C161.44 159.352 161.564 158.809 161.814 158.347C162.063 157.878 162.408 157.515 162.848 157.258C163.295 157.001 163.805 156.873 164.377 156.873C165.117 156.873 165.726 157.053 166.203 157.412C166.687 157.771 167.006 158.27 167.16 158.908H166.082C165.979 158.541 165.777 158.252 165.477 158.039C165.183 157.826 164.817 157.72 164.377 157.72C163.805 157.72 163.343 157.918 162.991 158.314C162.639 158.703 162.463 159.256 162.463 159.975C162.463 160.701 162.639 161.262 162.991 161.658C163.343 162.054 163.805 162.252 164.377 162.252C164.817 162.252 165.183 162.149 165.477 161.944C165.77 161.739 165.972 161.445 166.082 161.064H167.16C166.998 161.68 166.676 162.175 166.192 162.549C165.708 162.916 165.103 163.099 164.377 163.099C163.805 163.099 163.295 162.971 162.848 162.714C162.408 162.457 162.063 162.094 161.814 161.625C161.564 161.156 161.44 160.606 161.44 159.975ZM173.995 159.755C173.995 159.946 173.984 160.147 173.962 160.36H169.144C169.181 160.954 169.383 161.42 169.749 161.757C170.123 162.087 170.574 162.252 171.102 162.252C171.535 162.252 171.894 162.153 172.18 161.955C172.474 161.75 172.679 161.478 172.796 161.141H173.874C173.713 161.72 173.39 162.193 172.906 162.56C172.422 162.919 171.821 163.099 171.102 163.099C170.53 163.099 170.017 162.971 169.562 162.714C169.115 162.457 168.763 162.094 168.506 161.625C168.25 161.148 168.121 160.598 168.121 159.975C168.121 159.352 168.246 158.805 168.495 158.336C168.745 157.867 169.093 157.507 169.54 157.258C169.995 157.001 170.516 156.873 171.102 156.873C171.674 156.873 172.18 156.998 172.62 157.247C173.06 157.496 173.398 157.841 173.632 158.281C173.874 158.714 173.995 159.205 173.995 159.755ZM172.961 159.546C172.961 159.165 172.877 158.838 172.708 158.567C172.54 158.288 172.309 158.079 172.015 157.94C171.729 157.793 171.41 157.72 171.058 157.72C170.552 157.72 170.12 157.881 169.76 158.204C169.408 158.527 169.207 158.974 169.155 159.546H172.961ZM176.318 154.86V163H175.317V154.86H176.318Z" fill="white"/>
<defs>
<clipPath id="clip0">
<rect width="14" height="14" fill="white" transform="translate(235 6)"/>
</clipPath>
</defs>
</svg>
