<?xml version="1.0" encoding="UTF-8" standalone="no"?><svg xmlns="http://www.w3.org/2000/svg" xmlns:xlink="http://www.w3.org/1999/xlink" contentScriptType="application/ecmascript" contentStyleType="text/css" height="933px" preserveAspectRatio="none" style="width:1748px;height:933px;" version="1.1" viewBox="0 0 1748 933" width="1748px" zoomAndPan="magnify"><defs><filter height="300%" id="fc3sgm1gyhxe0" width="300%" x="-1" y="-1"><feGaussianBlur result="blurOut" stdDeviation="2.0"/><feColorMatrix in="blurOut" result="blurOut2" type="matrix" values="0 0 0 0 0 0 0 0 0 0 0 0 0 0 0 0 0 0 .4 0"/><feOffset dx="4.0" dy="4.0" in="blurOut2" result="blurOut3"/><feBlend in="SourceGraphic" in2="blurOut3" mode="normal"/></filter></defs><g><!--MD5=[10ea673caf457862023e152271927b45]
cluster controller--><polygon fill="#FFFFFF" filter="url(#fc3sgm1gyhxe0)" points="479,16,562,16,569,38.2969,693,38.2969,693,189,479,189,479,16" style="stroke: #000000; stroke-width: 1.5;"/><line style="stroke: #000000; stroke-width: 1.5;" x1="479" x2="569" y1="38.2969" y2="38.2969"/><text fill="#000000" font-family="sans-serif" font-size="14" font-weight="bold" lengthAdjust="spacingAndGlyphs" textLength="77" x="483" y="30.9951">controller</text><!--MD5=[0c4a738b3201a23a254af68352446157]
cluster auth--><polygon fill="#FFFFFF" filter="url(#fc3sgm1gyhxe0)" points="14,220,55,220,62,242.2969,737,242.2969,737,921,14,921,14,220" style="stroke: #000000; stroke-width: 1.5;"/><line style="stroke: #000000; stroke-width: 1.5;" x1="14" x2="62" y1="242.2969" y2="242.2969"/><text fill="#000000" font-family="sans-serif" font-size="14" font-weight="bold" lengthAdjust="spacingAndGlyphs" textLength="35" x="18" y="234.9951">auth</text><!--MD5=[5622bc4ba3bf2be5d17935065b98c5f9]
cluster dao--><polygon fill="#FFFFFF" filter="url(#fc3sgm1gyhxe0)" points="745,372,780,372,787,394.2969,1726,394.2969,1726,828,745,828,745,372" style="stroke: #000000; stroke-width: 1.5;"/><line style="stroke: #000000; stroke-width: 1.5;" x1="745" x2="787" y1="394.2969" y2="394.2969"/><text fill="#000000" font-family="sans-serif" font-size="14" font-weight="bold" lengthAdjust="spacingAndGlyphs" textLength="29" x="749" y="386.9951">dao</text><!--MD5=[bab4019c732006648757f54388533847]
cluster postgres--><polygon fill="#FFFFFF" filter="url(#fc3sgm1gyhxe0)" points="785,711,862,711,869,733.2969,1718,733.2969,1718,820,785,820,785,711" style="stroke: #000000; stroke-width: 1.5;"/><line style="stroke: #000000; stroke-width: 1.5;" x1="785" x2="869" y1="733.2969" y2="733.2969"/><text fill="#000000" font-family="sans-serif" font-size="14" font-weight="bold" lengthAdjust="spacingAndGlyphs" textLength="71" x="789" y="725.9951">postgres</text><!--MD5=[5103e3471bf31fadd75905833dcba617]
class LoginController--><rect fill="#FEFECE" filter="url(#fc3sgm1gyhxe0)" height="137.6328" id="LoginController" style="stroke: #A80036; stroke-width: 1.5;" width="198" x="487" y="43"/><ellipse cx="534.75" cy="59" fill="#ADD1B2" rx="11" ry="11" style="stroke: #A80036; stroke-width: 1.0;"/><path d="M537.7188,64.6406 Q537.1406,64.9375 536.5,65.0859 Q535.8594,65.2344 535.1563,65.2344 Q532.6563,65.2344 531.3359,63.5859 Q530.0156,61.9375 530.0156,58.8125 Q530.0156,55.6875 531.3359,54.0313 Q532.6563,52.375 535.1563,52.375 Q535.8594,52.375 536.5078,52.5313 Q537.1563,52.6875 537.7188,52.9844 L537.7188,55.7031 Q537.0938,55.125 536.5,54.8516 Q535.9063,54.5781 535.2813,54.5781 Q533.9375,54.5781 533.25,55.6484 Q532.5625,56.7188 532.5625,58.8125 Q532.5625,60.9063 533.25,61.9766 Q533.9375,63.0469 535.2813,63.0469 Q535.9063,63.0469 536.5,62.7734 Q537.0938,62.5 537.7188,61.9219 L537.7188,64.6406 Z "/><text fill="#000000" font-family="sans-serif" font-size="12" lengthAdjust="spacingAndGlyphs" textLength="94" x="555.25" y="63.1543">LoginController</text><line style="stroke: #A80036; stroke-width: 1.5;" x1="488" x2="684" y1="75" y2="75"/><rect fill="none" height="6" style="stroke: #C82930; stroke-width: 1.0;" width="6" x="495" y="83"/><text fill="#000000" font-family="sans-serif" font-size="11" lengthAdjust="spacingAndGlyphs" textLength="136" x="507" y="89.2104">loginButtonStaff: Button</text><rect fill="none" height="6" style="stroke: #C82930; stroke-width: 1.0;" width="6" x="495" y="95.8047"/><text fill="#000000" font-family="sans-serif" font-size="11" lengthAdjust="spacingAndGlyphs" textLength="142" x="507" y="102.0151">usernameField: TextField</text><rect fill="none" height="6" style="stroke: #C82930; stroke-width: 1.0;" width="6" x="495" y="108.6094"/><text fill="#000000" font-family="sans-serif" font-size="11" lengthAdjust="spacingAndGlyphs" textLength="172" x="507" y="114.8198">passwordField: PasswordField</text><rect fill="none" height="6" style="stroke: #C82930; stroke-width: 1.0;" width="6" x="495" y="121.4141"/><text fill="#000000" font-family="sans-serif" font-size="11" lengthAdjust="spacingAndGlyphs" textLength="141" x="507" y="127.6245">loginButtonClient: Button</text><rect fill="none" height="6" style="stroke: #C82930; stroke-width: 1.0;" width="6" x="495" y="134.2188"/><text fill="#000000" font-family="sans-serif" font-size="11" lengthAdjust="spacingAndGlyphs" textLength="124" x="507" y="140.4292">clientIdField: TextField</text><line style="stroke: #A80036; stroke-width: 1.5;" x1="488" x2="684" y1="147.0234" y2="147.0234"/><ellipse cx="498" cy="158.0234" fill="#84BE84" rx="3" ry="3" style="stroke: #038048; stroke-width: 1.0;"/><text fill="#000000" font-family="sans-serif" font-size="11" lengthAdjust="spacingAndGlyphs" textLength="93" x="507" y="161.2339">loginStaff(): void</text><ellipse cx="498" cy="170.8281" fill="#84BE84" rx="3" ry="3" style="stroke: #038048; stroke-width: 1.0;"/><text fill="#000000" font-family="sans-serif" font-size="11" lengthAdjust="spacingAndGlyphs" textLength="98" x="507" y="174.0386">loginClient(): void</text><!--MD5=[8ae808d068a8995f06b9b3ec51357f0b]
class AuthFacade--><rect fill="#FEFECE" filter="url(#fc3sgm1gyhxe0)" height="86.4141" id="AuthFacade" style="stroke: #A80036; stroke-width: 1.5;" width="286" x="443" y="247"/><ellipse cx="544.25" cy="263" fill="#ADD1B2" rx="11" ry="11" style="stroke: #A80036; stroke-width: 1.0;"/><path d="M547.2188,268.6406 Q546.6406,268.9375 546,269.0859 Q545.3594,269.2344 544.6563,269.2344 Q542.1563,269.2344 540.8359,267.5859 Q539.5156,265.9375 539.5156,262.8125 Q539.5156,259.6875 540.8359,258.0313 Q542.1563,256.375 544.6563,256.375 Q545.3594,256.375 546.0078,256.5313 Q546.6563,256.6875 547.2188,256.9844 L547.2188,259.7031 Q546.5938,259.125 546,258.8516 Q545.4063,258.5781 544.7813,258.5781 Q543.4375,258.5781 542.75,259.6484 Q542.0625,260.7188 542.0625,262.8125 Q542.0625,264.9063 542.75,265.9766 Q543.4375,267.0469 544.7813,267.0469 Q545.4063,267.0469 546,266.7734 Q546.5938,266.5 547.2188,265.9219 L547.2188,268.6406 Z "/><text fill="#000000" font-family="sans-serif" font-size="12" lengthAdjust="spacingAndGlyphs" textLength="75" x="564.75" y="267.1543">AuthFacade</text><line style="stroke: #A80036; stroke-width: 1.5;" x1="444" x2="728" y1="279" y2="279"/><line style="stroke: #A80036; stroke-width: 1.5;" x1="444" x2="728" y1="287" y2="287"/><ellipse cx="454" cy="298" fill="#84BE84" rx="3" ry="3" style="stroke: #038048; stroke-width: 1.0;"/><text fill="#000000" font-family="sans-serif" font-size="11" lengthAdjust="spacingAndGlyphs" textLength="260" x="463" y="301.2104">loginStaff(String username, String password)</text><ellipse cx="454" cy="310.8047" fill="#84BE84" rx="3" ry="3" style="stroke: #038048; stroke-width: 1.0;"/><text fill="#000000" font-family="sans-serif" font-size="11" lengthAdjust="spacingAndGlyphs" textLength="145" x="463" y="314.0151">loginClient(String clientId)</text><ellipse cx="454" cy="323.6094" fill="#84BE84" rx="3" ry="3" style="stroke: #038048; stroke-width: 1.0;"/><text fill="#000000" font-family="sans-serif" font-size="11" lengthAdjust="spacingAndGlyphs" textLength="43" x="463" y="326.8198">logout()</text><!--MD5=[c0d08496fce3f09bdc101c5a1ee74e19]
class PasswordAlgorithm--><rect fill="#FEFECE" filter="url(#fc3sgm1gyhxe0)" height="73.6094" id="PasswordAlgorithm" style="stroke: #A80036; stroke-width: 1.5;" width="386" x="22" y="253"/><ellipse cx="151.25" cy="269" fill="#B4A7E5" rx="11" ry="11" style="stroke: #A80036; stroke-width: 1.0;"/><path d="M147.1719,264.7656 L147.1719,262.6094 L154.5625,262.6094 L154.5625,264.7656 L152.0938,264.7656 L152.0938,272.8438 L154.5625,272.8438 L154.5625,275 L147.1719,275 L147.1719,272.8438 L149.6406,272.8438 L149.6406,264.7656 L147.1719,264.7656 Z "/><text fill="#000000" font-family="sans-serif" font-size="12" font-style="italic" lengthAdjust="spacingAndGlyphs" textLength="119" x="171.75" y="273.1543">PasswordAlgorithm</text><line style="stroke: #A80036; stroke-width: 1.5;" x1="23" x2="407" y1="285" y2="285"/><line style="stroke: #A80036; stroke-width: 1.5;" x1="23" x2="407" y1="293" y2="293"/><ellipse cx="33" cy="304" fill="#84BE84" rx="3" ry="3" style="stroke: #038048; stroke-width: 1.0;"/><text fill="#000000" font-family="sans-serif" font-size="11" lengthAdjust="spacingAndGlyphs" textLength="186" x="42" y="307.2104">hashPassword(String password)</text><ellipse cx="33" cy="316.8047" fill="#84BE84" rx="3" ry="3" style="stroke: #038048; stroke-width: 1.0;"/><text fill="#000000" font-family="sans-serif" font-size="11" lengthAdjust="spacingAndGlyphs" textLength="360" x="42" y="320.0151">verifyPassword(String plainPassword, String hashedPassword)</text><!--MD5=[e3e779b5b89ee0feb17ac05485237bbb]
class PlainTextPasswordAlgorithm--><rect fill="#FEFECE" filter="url(#fc3sgm1gyhxe0)" height="48" id="PlainTextPasswordAlgorithm" style="stroke: #A80036; stroke-width: 1.5;" width="207" x="111.5" y="579"/><ellipse cx="126.5" cy="595" fill="#ADD1B2" rx="11" ry="11" style="stroke: #A80036; stroke-width: 1.0;"/><path d="M129.4688,600.6406 Q128.8906,600.9375 128.25,601.0859 Q127.6094,601.2344 126.9063,601.2344 Q124.4063,601.2344 123.0859,599.5859 Q121.7656,597.9375 121.7656,594.8125 Q121.7656,591.6875 123.0859,590.0313 Q124.4063,588.375 126.9063,588.375 Q127.6094,588.375 128.2578,588.5313 Q128.9063,588.6875 129.4688,588.9844 L129.4688,591.7031 Q128.8438,591.125 128.25,590.8516 Q127.6563,590.5781 127.0313,590.5781 Q125.6875,590.5781 125,591.6484 Q124.3125,592.7188 124.3125,594.8125 Q124.3125,596.9063 125,597.9766 Q125.6875,599.0469 127.0313,599.0469 Q127.6563,599.0469 128.25,598.7734 Q128.8438,598.5 129.4688,597.9219 L129.4688,600.6406 Z "/><text fill="#000000" font-family="sans-serif" font-size="12" lengthAdjust="spacingAndGlyphs" textLength="175" x="140.5" y="599.1543">PlainTextPasswordAlgorithm</text><line style="stroke: #A80036; stroke-width: 1.5;" x1="112.5" x2="317.5" y1="611" y2="611"/><line style="stroke: #A80036; stroke-width: 1.5;" x1="112.5" x2="317.5" y1="619" y2="619"/><!--MD5=[2ca1536628238a7dc78c5d90808014f9]
class Session--><rect fill="#FEFECE" filter="url(#fc3sgm1gyhxe0)" height="137.6328" id="Session" style="stroke: #A80036; stroke-width: 1.5;" width="268" x="423" y="534"/><ellipse cx="528.25" cy="550" fill="#ADD1B2" rx="11" ry="11" style="stroke: #A80036; stroke-width: 1.0;"/><path d="M531.2188,555.6406 Q530.6406,555.9375 530,556.0859 Q529.3594,556.2344 528.6563,556.2344 Q526.1563,556.2344 524.8359,554.5859 Q523.5156,552.9375 523.5156,549.8125 Q523.5156,546.6875 524.8359,545.0313 Q526.1563,543.375 528.6563,543.375 Q529.3594,543.375 530.0078,543.5313 Q530.6563,543.6875 531.2188,543.9844 L531.2188,546.7031 Q530.5938,546.125 530,545.8516 Q529.4063,545.5781 528.7813,545.5781 Q527.4375,545.5781 526.75,546.6484 Q526.0625,547.7188 526.0625,549.8125 Q526.0625,551.9063 526.75,552.9766 Q527.4375,554.0469 528.7813,554.0469 Q529.4063,554.0469 530,553.7734 Q530.5938,553.5 531.2188,552.9219 L531.2188,555.6406 Z "/><text fill="#000000" font-family="sans-serif" font-size="12" lengthAdjust="spacingAndGlyphs" textLength="49" x="548.75" y="554.1543">Session</text><line style="stroke: #A80036; stroke-width: 1.5;" x1="424" x2="690" y1="566" y2="566"/><rect fill="none" height="6" style="stroke: #C82930; stroke-width: 1.0;" width="6" x="431" y="574"/><text fill="#000000" font-family="sans-serif" font-size="11" lengthAdjust="spacingAndGlyphs" textLength="156" x="443" y="580.2104">loggedInStaff: StaffMember</text><rect fill="none" height="6" style="stroke: #C82930; stroke-width: 1.0;" width="6" x="431" y="586.8047"/><text fill="#000000" font-family="sans-serif" font-size="11" lengthAdjust="spacingAndGlyphs" textLength="120" x="443" y="593.0151">loggedInClient: Client</text><line style="stroke: #A80036; stroke-width: 1.5;" x1="424" x2="690" y1="599.6094" y2="599.6094"/><ellipse cx="434" cy="610.6094" fill="#84BE84" rx="3" ry="3" style="stroke: #038048; stroke-width: 1.0;"/><text fill="#000000" font-family="sans-serif" font-size="11" lengthAdjust="spacingAndGlyphs" textLength="185" x="443" y="613.8198">getLoggedInStaff(): StaffMember</text><ellipse cx="434" cy="623.4141" fill="#84BE84" rx="3" ry="3" style="stroke: #038048; stroke-width: 1.0;"/><text fill="#000000" font-family="sans-serif" font-size="11" lengthAdjust="spacingAndGlyphs" textLength="149" x="443" y="626.6245">getLoggedInClient(): Client</text><ellipse cx="434" cy="636.2188" fill="#84BE84" rx="3" ry="3" style="stroke: #038048; stroke-width: 1.0;"/><text fill="#000000" font-family="sans-serif" font-size="11" lengthAdjust="spacingAndGlyphs" textLength="242" x="443" y="639.4292">setLoggedInStaff(StaffMember: staff): void</text><ellipse cx="434" cy="649.0234" fill="#84BE84" rx="3" ry="3" style="stroke: #038048; stroke-width: 1.0;"/><text fill="#000000" font-family="sans-serif" font-size="11" lengthAdjust="spacingAndGlyphs" textLength="206" x="443" y="652.2339">setLoggedInClient(Client client): void</text><ellipse cx="434" cy="661.8281" fill="#84BE84" rx="3" ry="3" style="stroke: #038048; stroke-width: 1.0;"/><text fill="#000000" font-family="sans-serif" font-size="11" lengthAdjust="spacingAndGlyphs" textLength="74" x="443" y="665.0386">logout(): void</text><path d="M361.5,873 L361.5,913.2656 A0,0 0 0 0 361.5,913.2656 L728.5,913.2656 A0,0 0 0 0 728.5,913.2656 L728.5,883 L718.5,873 L549.8361,873 L554.1409,672.0938 L541.8361,873 L361.5,873 A0,0 0 0 0 361.5,873 " fill="#FBFB77" filter="url(#fc3sgm1gyhxe0)" style="stroke: #A80036; stroke-width: 1.0;"/><path d="M718.5,873 L718.5,883 L728.5,883 L718.5,873 " fill="#FBFB77" style="stroke: #A80036; stroke-width: 1.0;"/><text fill="#000000" font-family="sans-serif" font-size="13" lengthAdjust="spacingAndGlyphs" textLength="346" x="367.5" y="890.0669">A client and a staff member can't be connected at the</text><text fill="#000000" font-family="sans-serif" font-size="13" lengthAdjust="spacingAndGlyphs" textLength="69" x="367.5" y="905.1997">same time</text><!--MD5=[4a0300a6597e068a69ac5dc42e345e2c]
class DAOFactory--><rect fill="#FEFECE" filter="url(#fc3sgm1gyhxe0)" height="73.6094" id="DAOFactory" style="stroke: #A80036; stroke-width: 1.5;" width="254" x="1149" y="399"/><ellipse cx="1235.75" cy="415" fill="#A9DCDF" rx="11" ry="11" style="stroke: #A80036; stroke-width: 1.0;"/><path d="M1235.8594,410.3438 L1234.7031,415.4219 L1237.0313,415.4219 L1235.8594,410.3438 Z M1234.375,408.1094 L1237.3594,408.1094 L1240.7188,420.5 L1238.2656,420.5 L1237.5,417.4375 L1234.2188,417.4375 L1233.4688,420.5 L1231.0313,420.5 L1234.375,408.1094 Z "/><text fill="#000000" font-family="sans-serif" font-size="12" font-style="italic" lengthAdjust="spacingAndGlyphs" textLength="72" x="1256.25" y="419.1543">DAOFactory</text><line style="stroke: #A80036; stroke-width: 1.5;" x1="1150" x2="1402" y1="431" y2="431"/><line style="stroke: #A80036; stroke-width: 1.5;" x1="1150" x2="1402" y1="439" y2="439"/><ellipse cx="1160" cy="450" fill="#84BE84" rx="3" ry="3" style="stroke: #038048; stroke-width: 1.0;"/><text fill="#000000" font-family="sans-serif" font-size="11" lengthAdjust="spacingAndGlyphs" textLength="228" x="1169" y="453.2104">getStaffMemberDAO(): StaffMemberDAO</text><ellipse cx="1160" cy="462.8047" fill="#84BE84" rx="3" ry="3" style="stroke: #038048; stroke-width: 1.0;"/><text fill="#000000" font-family="sans-serif" font-size="11" lengthAdjust="spacingAndGlyphs" textLength="146" x="1169" y="466.0151">getClientDAO(): ClientDAO</text><!--MD5=[b7785740adc24eec8e80232fb4c80faa]
class StaffMemberDAO--><rect fill="#FEFECE" filter="url(#fc3sgm1gyhxe0)" height="60.8047" id="StaffMemberDAO" style="stroke: #A80036; stroke-width: 1.5;" width="305" x="753.5" y="405.5"/><ellipse cx="849.25" cy="421.5" fill="#B4A7E5" rx="11" ry="11" style="stroke: #A80036; stroke-width: 1.0;"/><path d="M845.1719,417.2656 L845.1719,415.1094 L852.5625,415.1094 L852.5625,417.2656 L850.0938,417.2656 L850.0938,425.3438 L852.5625,425.3438 L852.5625,427.5 L845.1719,427.5 L845.1719,425.3438 L847.6406,425.3438 L847.6406,417.2656 L845.1719,417.2656 Z "/><text fill="#000000" font-family="sans-serif" font-size="12" font-style="italic" lengthAdjust="spacingAndGlyphs" textLength="105" x="869.75" y="425.6543">StaffMemberDAO</text><line style="stroke: #A80036; stroke-width: 1.5;" x1="754.5" x2="1057.5" y1="437.5" y2="437.5"/><line style="stroke: #A80036; stroke-width: 1.5;" x1="754.5" x2="1057.5" y1="445.5" y2="445.5"/><ellipse cx="764.5" cy="456.5" fill="#84BE84" rx="3" ry="3" style="stroke: #038048; stroke-width: 1.0;"/><text fill="#000000" font-family="sans-serif" font-size="11" lengthAdjust="spacingAndGlyphs" textLength="279" x="773.5" y="459.7104">findByUsername(String username): StaffMember</text><!--MD5=[72b7ee9540731bec4e6ab85f2dbab504]
class ClientDAO--><rect fill="#FEFECE" filter="url(#fc3sgm1gyhxe0)" height="60.8047" id="ClientDAO" style="stroke: #A80036; stroke-width: 1.5;" width="224" x="1494" y="405.5"/><ellipse cx="1571.25" cy="421.5" fill="#B4A7E5" rx="11" ry="11" style="stroke: #A80036; stroke-width: 1.0;"/><path d="M1567.1719,417.2656 L1567.1719,415.1094 L1574.5625,415.1094 L1574.5625,417.2656 L1572.0938,417.2656 L1572.0938,425.3438 L1574.5625,425.3438 L1574.5625,427.5 L1567.1719,427.5 L1567.1719,425.3438 L1569.6406,425.3438 L1569.6406,417.2656 L1567.1719,417.2656 Z "/><text fill="#000000" font-family="sans-serif" font-size="12" font-style="italic" lengthAdjust="spacingAndGlyphs" textLength="61" x="1591.75" y="425.6543">ClientDAO</text><line style="stroke: #A80036; stroke-width: 1.5;" x1="1495" x2="1717" y1="437.5" y2="437.5"/><line style="stroke: #A80036; stroke-width: 1.5;" x1="1495" x2="1717" y1="445.5" y2="445.5"/><ellipse cx="1505" cy="456.5" fill="#84BE84" rx="3" ry="3" style="stroke: #038048; stroke-width: 1.0;"/><text fill="#000000" font-family="sans-serif" font-size="11" lengthAdjust="spacingAndGlyphs" textLength="198" x="1514" y="459.7104">findByCardId(String clientId): Client</text><!--MD5=[eaa04f0840f124e699d692db6cc90032]
class PostgresStaffMemberDAO--><rect fill="#FEFECE" filter="url(#fc3sgm1gyhxe0)" height="73.6094" id="PostgresStaffMemberDAO" style="stroke: #A80036; stroke-width: 1.5;" width="314" x="793" y="738"/><ellipse cx="865.25" cy="754" fill="#ADD1B2" rx="11" ry="11" style="stroke: #A80036; stroke-width: 1.0;"/><path d="M868.2188,759.6406 Q867.6406,759.9375 867,760.0859 Q866.3594,760.2344 865.6563,760.2344 Q863.1563,760.2344 861.8359,758.5859 Q860.5156,756.9375 860.5156,753.8125 Q860.5156,750.6875 861.8359,749.0313 Q863.1563,747.375 865.6563,747.375 Q866.3594,747.375 867.0078,747.5313 Q867.6563,747.6875 868.2188,747.9844 L868.2188,750.7031 Q867.5938,750.125 867,749.8516 Q866.4063,749.5781 865.7813,749.5781 Q864.4375,749.5781 863.75,750.6484 Q863.0625,751.7188 863.0625,753.8125 Q863.0625,755.9063 863.75,756.9766 Q864.4375,758.0469 865.7813,758.0469 Q866.4063,758.0469 867,757.7734 Q867.5938,757.5 868.2188,756.9219 L868.2188,759.6406 Z "/><text fill="#000000" font-family="sans-serif" font-size="12" lengthAdjust="spacingAndGlyphs" textLength="161" x="885.75" y="758.1543">PostgresStaffMemberDAO</text><line style="stroke: #A80036; stroke-width: 1.5;" x1="794" x2="1106" y1="770" y2="770"/><rect fill="none" height="6" style="stroke: #C82930; stroke-width: 1.0;" width="6" x="801" y="778"/><text fill="#000000" font-family="sans-serif" font-size="11" lengthAdjust="spacingAndGlyphs" textLength="132" x="813" y="784.2104">connection: Connection</text><line style="stroke: #A80036; stroke-width: 1.5;" x1="794" x2="1106" y1="790.8047" y2="790.8047"/><ellipse cx="804" cy="801.8047" fill="#84BE84" rx="3" ry="3" style="stroke: #038048; stroke-width: 1.0;"/><text fill="#000000" font-family="sans-serif" font-size="11" lengthAdjust="spacingAndGlyphs" textLength="288" x="813" y="805.0151">PostgresStaffMemberDAO(Connection: connection)</text><!--MD5=[700a5a1f58ccb71a3c0d036256714175]
class PostgresDAOFactory--><rect fill="#FEFECE" filter="url(#fc3sgm1gyhxe0)" height="60.8047" id="PostgresDAOFactory" style="stroke: #A80036; stroke-width: 1.5;" width="160" x="1192" y="744.5"/><ellipse cx="1207" cy="760.5" fill="#ADD1B2" rx="11" ry="11" style="stroke: #A80036; stroke-width: 1.0;"/><path d="M1209.9688,766.1406 Q1209.3906,766.4375 1208.75,766.5859 Q1208.1094,766.7344 1207.4063,766.7344 Q1204.9063,766.7344 1203.5859,765.0859 Q1202.2656,763.4375 1202.2656,760.3125 Q1202.2656,757.1875 1203.5859,755.5313 Q1204.9063,753.875 1207.4063,753.875 Q1208.1094,753.875 1208.7578,754.0313 Q1209.4063,754.1875 1209.9688,754.4844 L1209.9688,757.2031 Q1209.3438,756.625 1208.75,756.3516 Q1208.1563,756.0781 1207.5313,756.0781 Q1206.1875,756.0781 1205.5,757.1484 Q1204.8125,758.2188 1204.8125,760.3125 Q1204.8125,762.4063 1205.5,763.4766 Q1206.1875,764.5469 1207.5313,764.5469 Q1208.1563,764.5469 1208.75,764.2734 Q1209.3438,764 1209.9688,763.4219 L1209.9688,766.1406 Z "/><text fill="#000000" font-family="sans-serif" font-size="12" lengthAdjust="spacingAndGlyphs" textLength="128" x="1221" y="764.6543">PostgresDAOFactory</text><line style="stroke: #A80036; stroke-width: 1.5;" x1="1193" x2="1351" y1="776.5" y2="776.5"/><rect fill="none" height="6" style="stroke: #C82930; stroke-width: 1.0;" width="6" x="1200" y="784.5"/><text fill="#000000" font-family="sans-serif" font-size="11" lengthAdjust="spacingAndGlyphs" textLength="132" x="1212" y="790.7104">connection: Connection</text><line style="stroke: #A80036; stroke-width: 1.5;" x1="1193" x2="1351" y1="797.3047" y2="797.3047"/><!--MD5=[92d6d0eb09ee113d0154e250e698125e]
class PostgresClientDAO--><rect fill="#FEFECE" filter="url(#fc3sgm1gyhxe0)" height="73.6094" id="PostgresClientDAO" style="stroke: #A80036; stroke-width: 1.5;" width="273" x="1436.5" y="738"/><ellipse cx="1510.25" cy="754" fill="#ADD1B2" rx="11" ry="11" style="stroke: #A80036; stroke-width: 1.0;"/><path d="M1513.2188,759.6406 Q1512.6406,759.9375 1512,760.0859 Q1511.3594,760.2344 1510.6563,760.2344 Q1508.1563,760.2344 1506.8359,758.5859 Q1505.5156,756.9375 1505.5156,753.8125 Q1505.5156,750.6875 1506.8359,749.0313 Q1508.1563,747.375 1510.6563,747.375 Q1511.3594,747.375 1512.0078,747.5313 Q1512.6563,747.6875 1513.2188,747.9844 L1513.2188,750.7031 Q1512.5938,750.125 1512,749.8516 Q1511.4063,749.5781 1510.7813,749.5781 Q1509.4375,749.5781 1508.75,750.6484 Q1508.0625,751.7188 1508.0625,753.8125 Q1508.0625,755.9063 1508.75,756.9766 Q1509.4375,758.0469 1510.7813,758.0469 Q1511.4063,758.0469 1512,757.7734 Q1512.5938,757.5 1513.2188,756.9219 L1513.2188,759.6406 Z "/><text fill="#000000" font-family="sans-serif" font-size="12" lengthAdjust="spacingAndGlyphs" textLength="117" x="1530.75" y="758.1543">PostgresClientDAO</text><line style="stroke: #A80036; stroke-width: 1.5;" x1="1437.5" x2="1708.5" y1="770" y2="770"/><rect fill="none" height="6" style="stroke: #C82930; stroke-width: 1.0;" width="6" x="1444.5" y="778"/><text fill="#000000" font-family="sans-serif" font-size="11" lengthAdjust="spacingAndGlyphs" textLength="132" x="1456.5" y="784.2104">connection: Connection</text><line style="stroke: #A80036; stroke-width: 1.5;" x1="1437.5" x2="1708.5" y1="790.8047" y2="790.8047"/><ellipse cx="1447.5" cy="801.8047" fill="#84BE84" rx="3" ry="3" style="stroke: #038048; stroke-width: 1.0;"/><text fill="#000000" font-family="sans-serif" font-size="11" lengthAdjust="spacingAndGlyphs" textLength="247" x="1456.5" y="805.0151">PostgresClientDAO(Connection: connection)</text><!--MD5=[ada1feee44c38177333870a3dbadfcf0]
reverse link PasswordAlgorithm to PlainTextPasswordAlgorithm--><path d="M215,347.5052 C215,416.7045 215,529.7116 215,578.8803 " fill="none" id="PasswordAlgorithm&lt;-PlainTextPasswordAlgorithm" style="stroke: #A80036; stroke-width: 1.0; stroke-dasharray: 7.0,7.0;"/><polygon fill="none" points="208.0001,347.1344,215,327.1343,222.0001,347.1343,208.0001,347.1344" style="stroke: #A80036; stroke-width: 1.0;"/><!--MD5=[4f8700d0b95738fd5f0985cc42fcd2db]
link AuthFacade to PasswordAlgorithm--><path d="M442.8529,290 C432.9905,290 423.1281,290 413.2658,290 " fill="none" id="AuthFacade-&gt;PasswordAlgorithm" style="stroke: #A80036; stroke-width: 1.0;"/><polygon fill="#A80036" points="408.1084,290,417.1084,294,413.1084,290,417.1084,286,408.1084,290" style="stroke: #A80036; stroke-width: 1.0;"/><!--MD5=[1f05014746e2776af8602a9a1e15e516]
link AuthFacade to Session--><path d="M581.9981,333.1927 C577.3282,383.5961 569.5269,467.796 563.8797,528.7462 " fill="none" id="AuthFacade-&gt;Session" style="stroke: #A80036; stroke-width: 1.0;"/><polygon fill="#A80036" points="563.4087,533.8301,568.2222,525.2376,563.8701,528.8514,560.2563,524.4994,563.4087,533.8301" style="stroke: #A80036; stroke-width: 1.0;"/><!--MD5=[48a68d3211fbfa353397754b228fb597]
reverse link StaffMemberDAO to PostgresStaffMemberDAO--><path d="M912.5696,486.6156 C921.4957,555.3876 937.2481,676.7522 945.1678,737.7697 " fill="none" id="StaffMemberDAO&lt;-PostgresStaffMemberDAO" style="stroke: #A80036; stroke-width: 1.0; stroke-dasharray: 7.0,7.0;"/><polygon fill="none" points="905.6149,487.4166,909.9823,466.6819,919.4984,485.6145,905.6149,487.4166" style="stroke: #A80036; stroke-width: 1.0;"/><!--MD5=[d37a47b44041b5251d0f0ec75d3c62d9]
reverse link DAOFactory to PostgresDAOFactory--><path d="M1275.3208,493.5602 C1274.4672,565.9074 1273.0329,687.4643 1272.364,744.1538 " fill="none" id="DAOFactory&lt;-PostgresDAOFactory" style="stroke: #A80036; stroke-width: 1.0;"/><polygon fill="none" points="1268.3249,493.1646,1275.5605,473.2487,1282.3239,493.3299,1268.3249,493.1646" style="stroke: #A80036; stroke-width: 1.0;"/><!--MD5=[1b60c4af3729b774c9057ad39560ad99]
reverse link ClientDAO to PostgresClientDAO--><path d="M1601.0728,486.6156 C1594.3782,555.3876 1582.5639,676.7522 1576.6242,737.7697 " fill="none" id="ClientDAO&lt;-PostgresClientDAO" style="stroke: #A80036; stroke-width: 1.0; stroke-dasharray: 7.0,7.0;"/><polygon fill="none" points="1594.1084,485.9096,1603.0133,466.6819,1608.0425,487.266,1594.1084,485.9096" style="stroke: #A80036; stroke-width: 1.0;"/><!--MD5=[0a13172e59c610c45f69a8e72458813a]
reverse link PostgresStaffMemberDAO to PostgresDAOFactory--><path d="M1112.3913,775 C1140.0505,775 1167.655,775 1191.939,775 " fill="none" id="PostgresStaffMemberDAO&lt;-PostgresDAOFactory" style="stroke: #A80036; stroke-width: 1.0; stroke-dasharray: 7.0,7.0;"/><polygon fill="#A80036" points="1107.2269,775,1116.2269,779,1112.2269,775,1116.2269,771,1107.2269,775" style="stroke: #A80036; stroke-width: 1.0;"/><text fill="#000000" font-family="sans-serif" font-size="13" lengthAdjust="spacingAndGlyphs" textLength="48" x="1125.5" y="768.0669">creates</text><!--MD5=[0b458e71980b4953b7ebabd947b67321]
link PostgresDAOFactory to PostgresClientDAO--><path d="M1352.2671,775 C1376.6136,775 1404.1211,775 1431.2484,775 " fill="none" id="PostgresDAOFactory-&gt;PostgresClientDAO" style="stroke: #A80036; stroke-width: 1.0; stroke-dasharray: 7.0,7.0;"/><polygon fill="#A80036" points="1436.3083,775,1427.3083,771,1431.3083,775,1427.3083,779,1436.3083,775" style="stroke: #A80036; stroke-width: 1.0;"/><text fill="#000000" font-family="sans-serif" font-size="13" lengthAdjust="spacingAndGlyphs" textLength="48" x="1370.25" y="768.0669">creates</text><!--MD5=[07dde0e0b6955e3bb78c662e60108163]
reverse link StaffMemberDAO to DAOFactory--><path d="M1063.907,436 C1092.229,436 1121.417,436 1148.7378,436 " fill="none" id="StaffMemberDAO&lt;-DAOFactory" style="stroke: #A80036; stroke-width: 1.0; stroke-dasharray: 7.0,7.0;"/><polygon fill="#A80036" points="1058.6293,436,1067.6293,440,1063.6293,436,1067.6293,432,1058.6293,436" style="stroke: #A80036; stroke-width: 1.0;"/><text fill="#000000" font-family="sans-serif" font-size="13" lengthAdjust="spacingAndGlyphs" textLength="54" x="1076.75" y="429.0669">provides</text><!--MD5=[7d2807088028e8c9fd00fee6d1e90cf2]
link DAOFactory to ClientDAO--><path d="M1403.1146,436 C1431.2323,436 1460.9016,436 1488.6117,436 " fill="none" id="DAOFactory-&gt;ClientDAO" style="stroke: #A80036; stroke-width: 1.0; stroke-dasharray: 7.0,7.0;"/><polygon fill="#A80036" points="1493.7621,436,1484.7621,432,1488.7621,436,1484.7621,440,1493.7621,436" style="stroke: #A80036; stroke-width: 1.0;"/><text fill="#000000" font-family="sans-serif" font-size="13" lengthAdjust="spacingAndGlyphs" textLength="54" x="1421.5" y="429.0669">provides</text><!--MD5=[e016c6f60aa93b182a1c9e78139b16e0]
link AuthFacade to DAOFactory--><path d="M729.1491,308.4127 C827.4524,322.4064 960.5297,344.0169 1076,372 C1105.1393,379.0616 1136.1975,388.1913 1164.9343,397.3314 " fill="none" id="AuthFacade-&gt;DAOFactory" style="stroke: #A80036; stroke-width: 1.0;"/><polygon fill="#A80036" points="1169.8976,398.9175,1162.5423,392.3677,1165.1349,397.3955,1160.1071,399.9881,1169.8976,398.9175" style="stroke: #A80036; stroke-width: 1.0;"/><!--MD5=[e74fdd0308ecde77f3e7247252ffb6a4]
link LoginController to AuthFacade--><path d="M586,181.0742 C586,201.3511 586,223.0826 586,241.7595 " fill="none" id="LoginController-&gt;AuthFacade" style="stroke: #A80036; stroke-width: 1.0;"/><polygon fill="#A80036" points="586,246.9426,590,237.9426,586,241.9426,582,237.9426,586,246.9426" style="stroke: #A80036; stroke-width: 1.0;"/><!--MD5=[081d6c930edd3b01f3d5e77f5ded992e]
@startuml
package controller {

  class LoginController {
    -loginButtonStaff: Button
    -usernameField: TextField
    -passwordField: PasswordField
    -loginButtonClient: Button
    -clientIdField: TextField
    +loginStaff(): void
    +loginClient(): void
  }

}

package auth {

  class AuthFacade {
    +loginStaff(String username, String password)
    +loginClient(String clientId)
    +logout()
  }

  interface PasswordAlgorithm {
    +hashPassword(String password)
    +verifyPassword(String plainPassword, String hashedPassword)
  }

  class PlainTextPasswordAlgorithm implements PasswordAlgorithm {}

  class Session {
    - loggedInStaff: StaffMember
    - loggedInClient: Client
    +getLoggedInStaff(): StaffMember
    +getLoggedInClient(): Client
    +setLoggedInStaff(StaffMember: staff): void
    +setLoggedInClient(Client client): void
    +logout(): void
  }
  note bottom of Session
    A client and a staff member can't be connected at the
    same time
  end note

}

AuthFacade -> PasswordAlgorithm
AuthFacade -down-> Session

package dao {

  abstract class DAOFactory {
    +getStaffMemberDAO(): StaffMemberDAO
    +getClientDAO(): ClientDAO
  }

  interface StaffMemberDAO {
    +findByUsername(String username): StaffMember
  }

  interface ClientDAO {
    +findByCardId(String clientId): Client
  }

  package postgres {

    class PostgresStaffMemberDAO implements StaffMemberDAO {
      -connection: Connection
      +PostgresStaffMemberDAO(Connection: connection)
    }

    class PostgresDAOFactory extends DAOFactory {
      -connection: Connection
    }

    class PostgresClientDAO implements ClientDAO {
      -connection: Connection
      +PostgresClientDAO(Connection: connection)
    }

  }

}

PostgresDAOFactory .left> PostgresStaffMemberDAO : "creates"
PostgresDAOFactory .> PostgresClientDAO : "creates"
DAOFactory .left> StaffMemberDAO : "provides"
DAOFactory .> ClientDAO : "provides"


AuthFacade -down-> DAOFactory
LoginController - -> AuthFacade
@enduml

PlantUML version 1.2019.12(Sun Nov 03 10:24:54 UTC 2019)
(GPL source distribution)
Java Runtime: OpenJDK Runtime Environment
JVM: OpenJDK 64-Bit Server VM
Java Version: 1.8.0_232-heroku-b09
Operating System: Linux
Default Encoding: UTF-8
Language: en
Country: US
--></g></svg>