<?xml version="1.0" encoding="UTF-8" standalone="no"?><svg xmlns="http://www.w3.org/2000/svg" xmlns:xlink="http://www.w3.org/1999/xlink" contentScriptType="application/ecmascript" contentStyleType="text/css" height="483px" preserveAspectRatio="none" style="width:558px;height:483px;" version="1.1" viewBox="0 0 558 483" width="558px" zoomAndPan="magnify"><defs><filter height="300%" id="f1mquvkew96onn" width="300%" x="-1" y="-1"><feGaussianBlur result="blurOut" stdDeviation="2.0"/><feColorMatrix in="blurOut" result="blurOut2" type="matrix" values="0 0 0 0 0 0 0 0 0 0 0 0 0 0 0 0 0 0 .4 0"/><feOffset dx="4.0" dy="4.0" in="blurOut2" result="blurOut3"/><feBlend in="SourceGraphic" in2="blurOut3" mode="normal"/></filter></defs><g><ellipse cx="432" cy="20" fill="#000000" filter="url(#f1mquvkew96onn)" rx="10" ry="10" style="stroke: none; stroke-width: 1.0;"/><rect fill="#FEFECE" filter="url(#f1mquvkew96onn)" height="33.9688" rx="12.5" ry="12.5" style="stroke: #A80036; stroke-width: 1.5;" width="149" x="357.5" y="50"/><text fill="#000000" font-family="sans-serif" font-size="12" lengthAdjust="spacingAndGlyphs" textLength="129" x="367.5" y="71.1387">Client return an item</text><path d="M11,156.7891 L11,181.9219 A0,0 0 0 0 11,181.9219 L326,181.9219 A0,0 0 0 0 326,181.9219 L326,174.7891 L346,169.3555 L326,166.7891 L326,166.7891 L316,156.7891 L11,156.7891 A0,0 0 0 0 11,156.7891 " fill="#FBFB77" filter="url(#f1mquvkew96onn)" style="stroke: #A80036; stroke-width: 1.0;"/><path d="M316,156.7891 L316,166.7891 L326,166.7891 L316,156.7891 " fill="#FBFB77" style="stroke: #A80036; stroke-width: 1.0;"/><text fill="#000000" font-family="sans-serif" font-size="13" lengthAdjust="spacingAndGlyphs" textLength="294" x="17" y="173.856">Creates Fine object with OutDelay as FineType</text><rect fill="#FEFECE" filter="url(#f1mquvkew96onn)" height="33.9688" rx="12.5" ry="12.5" style="stroke: #A80036; stroke-width: 1.5;" width="172" x="346" y="152.3711"/><text fill="#000000" font-family="sans-serif" font-size="12" lengthAdjust="spacingAndGlyphs" textLength="152" x="356" y="173.5098">Create fine for out delay</text><polygon fill="#FEFECE" filter="url(#f1mquvkew96onn)" points="355.5,103.9688,508.5,103.9688,520.5,115.9688,508.5,127.9688,355.5,127.9688,343.5,115.9688,355.5,103.9688" style="stroke: #A80036; stroke-width: 1.5;"/><text fill="#000000" font-family="sans-serif" font-size="11" lengthAdjust="spacingAndGlyphs" textLength="14" x="436" y="138.1792">no</text><text fill="#000000" font-family="sans-serif" font-size="11" lengthAdjust="spacingAndGlyphs" textLength="153" x="355.5" y="119.7769">Client return item in time ?</text><text fill="#000000" font-family="sans-serif" font-size="11" lengthAdjust="spacingAndGlyphs" textLength="20" x="520.5" y="113.3745">yes</text><polygon fill="#FEFECE" filter="url(#f1mquvkew96onn)" points="432,206.3398,444,218.3398,432,230.3398,420,218.3398,432,206.3398" style="stroke: #A80036; stroke-width: 1.5;"/><path d="M10,303.1602 L10,328.293 A0,0 0 0 0 10,328.293 L326,328.293 A0,0 0 0 0 326,328.293 L326,321.1602 L346,315.7266 L326,313.1602 L326,313.1602 L316,303.1602 L10,303.1602 A0,0 0 0 0 10,303.1602 " fill="#FBFB77" filter="url(#f1mquvkew96onn)" style="stroke: #A80036; stroke-width: 1.0;"/><path d="M316,303.1602 L316,313.1602 L326,313.1602 L316,303.1602 " fill="#FBFB77" style="stroke: #A80036; stroke-width: 1.0;"/><text fill="#000000" font-family="sans-serif" font-size="13" lengthAdjust="spacingAndGlyphs" textLength="295" x="16" y="320.2271">Creates Fine object with Condition as FineType</text><rect fill="#FEFECE" filter="url(#f1mquvkew96onn)" height="33.9688" rx="12.5" ry="12.5" style="stroke: #A80036; stroke-width: 1.5;" width="172" x="346" y="298.7422"/><text fill="#000000" font-family="sans-serif" font-size="12" lengthAdjust="spacingAndGlyphs" textLength="152" x="356" y="319.8809">Create fine for condition</text><polygon fill="#FEFECE" filter="url(#f1mquvkew96onn)" points="356,250.3398,508,250.3398,520,262.3398,508,274.3398,356,274.3398,344,262.3398,356,250.3398" style="stroke: #A80036; stroke-width: 1.5;"/><text fill="#000000" font-family="sans-serif" font-size="11" lengthAdjust="spacingAndGlyphs" textLength="20" x="436" y="284.5503">yes</text><text fill="#000000" font-family="sans-serif" font-size="11" lengthAdjust="spacingAndGlyphs" textLength="152" x="356" y="266.1479">Item's condition changed ?</text><text fill="#000000" font-family="sans-serif" font-size="11" lengthAdjust="spacingAndGlyphs" textLength="14" x="520" y="259.7456">no</text><polygon fill="#FEFECE" filter="url(#f1mquvkew96onn)" points="432,352.7109,444,364.7109,432,376.7109,420,364.7109,432,352.7109" style="stroke: #A80036; stroke-width: 1.5;"/><rect fill="#FEFECE" filter="url(#f1mquvkew96onn)" height="33.9688" rx="12.5" ry="12.5" style="stroke: #A80036; stroke-width: 1.5;" width="118" x="373" y="396.7109"/><text fill="#000000" font-family="sans-serif" font-size="12" lengthAdjust="spacingAndGlyphs" textLength="98" x="383" y="417.8496">Return the Item</text><ellipse cx="432" cy="461.6797" fill="#FFFFFF" filter="url(#f1mquvkew96onn)" rx="11" ry="11" style="stroke: #000000; stroke-width: 1.0;"/><ellipse cx="432" cy="461.6797" fill="#000000" rx="6" ry="6" style="stroke: #7F7F7F; stroke-width: 1.0;"/><line style="stroke: #A80036; stroke-width: 1.5;" x1="432" x2="432" y1="30" y2="50"/><polygon fill="#A80036" points="428,40,432,50,436,40,432,44" style="stroke: #A80036; stroke-width: 1.0;"/><line style="stroke: #A80036; stroke-width: 1.5;" x1="432" x2="432" y1="127.9688" y2="152.3711"/><polygon fill="#A80036" points="428,142.3711,432,152.3711,436,142.3711,432,146.3711" style="stroke: #A80036; stroke-width: 1.0;"/><line style="stroke: #A80036; stroke-width: 1.5;" x1="520.5" x2="532.5" y1="115.9688" y2="115.9688"/><polygon fill="#A80036" points="528.5,159.3555,532.5,169.3555,536.5,159.3555,532.5,163.3555" style="stroke: #A80036; stroke-width: 1.5;"/><line style="stroke: #A80036; stroke-width: 1.5;" x1="532.5" x2="532.5" y1="115.9688" y2="218.3398"/><line style="stroke: #A80036; stroke-width: 1.5;" x1="532.5" x2="444" y1="218.3398" y2="218.3398"/><polygon fill="#A80036" points="454,214.3398,444,218.3398,454,222.3398,450,218.3398" style="stroke: #A80036; stroke-width: 1.0;"/><line style="stroke: #A80036; stroke-width: 1.5;" x1="432" x2="432" y1="186.3398" y2="206.3398"/><polygon fill="#A80036" points="428,196.3398,432,206.3398,436,196.3398,432,200.3398" style="stroke: #A80036; stroke-width: 1.0;"/><line style="stroke: #A80036; stroke-width: 1.5;" x1="432" x2="432" y1="83.9688" y2="103.9688"/><polygon fill="#A80036" points="428,93.9688,432,103.9688,436,93.9688,432,97.9688" style="stroke: #A80036; stroke-width: 1.0;"/><line style="stroke: #A80036; stroke-width: 1.5;" x1="432" x2="432" y1="274.3398" y2="298.7422"/><polygon fill="#A80036" points="428,288.7422,432,298.7422,436,288.7422,432,292.7422" style="stroke: #A80036; stroke-width: 1.0;"/><line style="stroke: #A80036; stroke-width: 1.5;" x1="520" x2="532" y1="262.3398" y2="262.3398"/><polygon fill="#A80036" points="528,305.7266,532,315.7266,536,305.7266,532,309.7266" style="stroke: #A80036; stroke-width: 1.5;"/><line style="stroke: #A80036; stroke-width: 1.5;" x1="532" x2="532" y1="262.3398" y2="364.7109"/><line style="stroke: #A80036; stroke-width: 1.5;" x1="532" x2="444" y1="364.7109" y2="364.7109"/><polygon fill="#A80036" points="454,360.7109,444,364.7109,454,368.7109,450,364.7109" style="stroke: #A80036; stroke-width: 1.0;"/><line style="stroke: #A80036; stroke-width: 1.5;" x1="432" x2="432" y1="332.7109" y2="352.7109"/><polygon fill="#A80036" points="428,342.7109,432,352.7109,436,342.7109,432,346.7109" style="stroke: #A80036; stroke-width: 1.0;"/><line style="stroke: #A80036; stroke-width: 1.5;" x1="432" x2="432" y1="230.3398" y2="250.3398"/><polygon fill="#A80036" points="428,240.3398,432,250.3398,436,240.3398,432,244.3398" style="stroke: #A80036; stroke-width: 1.0;"/><line style="stroke: #A80036; stroke-width: 1.5;" x1="432" x2="432" y1="376.7109" y2="396.7109"/><polygon fill="#A80036" points="428,386.7109,432,396.7109,436,386.7109,432,390.7109" style="stroke: #A80036; stroke-width: 1.0;"/><line style="stroke: #A80036; stroke-width: 1.5;" x1="432" x2="432" y1="430.6797" y2="450.6797"/><polygon fill="#A80036" points="428,440.6797,432,450.6797,436,440.6797,432,444.6797" style="stroke: #A80036; stroke-width: 1.0;"/><!--MD5=[e89a32106b11801adb6478c789a5fce6]
@startuml
start
:Client return an item;

    if (Client return item in time ?) then (yes)

    else (no)
      :Create fine for out delay;
      note: Creates Fine object with OutDelay as FineType
    endif

    if (Item's condition changed ?) then (yes)
      :Create fine for condition;
      note: Creates Fine object with Condition as FineType
    else (no)
    endif
      
    :Return the Item;
stop
@enduml

PlantUML version 1.2019.12(Sun Nov 03 10:24:54 UTC 2019)
(GPL source distribution)
Java Runtime: OpenJDK Runtime Environment
JVM: OpenJDK 64-Bit Server VM
Java Version: 1.8.0_232-heroku-b09
Operating System: Linux
Default Encoding: UTF-8
Language: en
Country: US
--></g></svg>