<svg width="300" height="224" viewBox="0 0 300 224" fill="none" xmlns="http://www.w3.org/2000/svg">
<rect width="300" height="224" fill="white"/>
<rect x="82" y="181" width="137" height="28.5231" fill="#5282FC"/>
<path d="M138.917 203H137.279L130.691 193.01V203H129.053V190.436H130.691L137.279 200.408V190.436H138.917V203ZM146.011 203.162C145.087 203.162 144.247 202.952 143.491 202.532C142.747 202.112 142.159 201.518 141.727 200.75C141.307 199.97 141.097 199.07 141.097 198.05C141.097 197.042 141.313 196.154 141.745 195.386C142.189 194.606 142.789 194.012 143.545 193.604C144.301 193.184 145.147 192.974 146.083 192.974C147.019 192.974 147.865 193.184 148.621 193.604C149.377 194.012 149.971 194.6 150.403 195.368C150.847 196.136 151.069 197.03 151.069 198.05C151.069 199.07 150.841 199.97 150.385 200.75C149.941 201.518 149.335 202.112 148.567 202.532C147.799 202.952 146.947 203.162 146.011 203.162ZM146.011 201.722C146.599 201.722 147.151 201.584 147.667 201.308C148.183 201.032 148.597 200.618 148.909 200.066C149.233 199.514 149.395 198.842 149.395 198.05C149.395 197.258 149.239 196.586 148.927 196.034C148.615 195.482 148.207 195.074 147.703 194.81C147.199 194.534 146.653 194.396 146.065 194.396C145.465 194.396 144.913 194.534 144.409 194.81C143.917 195.074 143.521 195.482 143.221 196.034C142.921 196.586 142.771 197.258 142.771 198.05C142.771 198.854 142.915 199.532 143.203 200.084C143.503 200.636 143.899 201.05 144.391 201.326C144.883 201.59 145.423 201.722 146.011 201.722ZM155.221 194.486V200.3C155.221 200.78 155.323 201.122 155.527 201.326C155.731 201.518 156.085 201.614 156.589 201.614H157.795V203H156.319C155.407 203 154.723 202.79 154.267 202.37C153.811 201.95 153.583 201.26 153.583 200.3V194.486H152.305V193.136H153.583V190.652H155.221V193.136H157.795V194.486H155.221ZM168.779 197.69C168.779 198.002 168.761 198.332 168.725 198.68H160.841C160.901 199.652 161.231 200.414 161.831 200.966C162.443 201.506 163.181 201.776 164.045 201.776C164.753 201.776 165.341 201.614 165.809 201.29C166.289 200.954 166.625 200.51 166.817 199.958H168.581C168.317 200.906 167.789 201.68 166.997 202.28C166.205 202.868 165.221 203.162 164.045 203.162C163.109 203.162 162.269 202.952 161.525 202.532C160.793 202.112 160.217 201.518 159.797 200.75C159.377 199.97 159.167 199.07 159.167 198.05C159.167 197.03 159.371 196.136 159.779 195.368C160.187 194.6 160.757 194.012 161.489 193.604C162.233 193.184 163.085 192.974 164.045 192.974C164.981 192.974 165.809 193.178 166.529 193.586C167.249 193.994 167.801 194.558 168.185 195.278C168.581 195.986 168.779 196.79 168.779 197.69ZM167.087 197.348C167.087 196.724 166.949 196.19 166.673 195.746C166.397 195.29 166.019 194.948 165.539 194.72C165.071 194.48 164.549 194.36 163.973 194.36C163.145 194.36 162.437 194.624 161.849 195.152C161.273 195.68 160.943 196.412 160.859 197.348H167.087Z" fill="white"/>
<path d="M257.017 116.923L256.78 116.191L256.542 116.923L252.283 130.031H238.5H237.73L238.353 130.483L249.503 138.584L245.244 151.693L245.007 152.424L245.629 151.972L256.78 143.871L267.93 151.972L268.553 152.424L268.315 151.693L264.056 138.584L275.206 130.483L275.829 130.031H275.059H261.276L257.017 116.923Z" fill="#C4C4C4" stroke="#D8D8D8" stroke-width="0.5"/>
<path d="M203.628 116.923L203.39 116.191L203.152 116.923L198.893 130.031H185.11H184.341L184.963 130.483L196.114 138.584L191.855 151.693L191.617 152.424L192.24 151.972L203.39 143.871L214.541 151.972L215.163 152.424L214.925 151.693L210.666 138.584L221.817 130.483L222.439 130.031H221.67H207.887L203.628 116.923Z" fill="#C4C4C4" stroke="#D8D8D8" stroke-width="0.5"/>
<path d="M150.238 116.923L150 116.191L149.762 116.923L145.503 130.031H131.72H130.951L131.573 130.483L142.724 138.584L138.465 151.693L138.227 152.424L138.85 151.972L150 143.871L161.151 151.972L161.773 152.424L161.535 151.693L157.276 138.584L168.427 130.483L169.049 130.031H168.28H154.497L150.238 116.923Z" fill="#C4C4C4" stroke="#D8D8D8" stroke-width="0.5"/>
<path d="M96.8478 116.923L96.61 116.191L96.3722 116.923L92.1131 130.031H78.3304H77.5609L78.1834 130.483L89.3339 138.584L85.0748 151.693L84.837 152.424L85.4595 151.972L96.61 143.871L107.76 151.972L108.383 152.424L108.145 151.693L103.886 138.584L115.037 130.483L115.659 130.031H114.89H101.107L96.8478 116.923Z" fill="#FAFF00" stroke="#D8D8D8" stroke-width="0.5"/>
<path d="M43.4581 116.923L43.2203 116.191L42.9826 116.923L38.7235 130.031H24.9407H24.1713L24.7938 130.483L35.9443 138.584L31.6851 151.693L31.4474 152.424L32.0699 151.972L43.2203 143.871L54.3708 151.972L54.9933 152.424L54.7556 151.693L50.4964 138.584L61.6469 130.483L62.2694 130.031H61.5H47.7172L43.4581 116.923Z" fill="#FAFF00" stroke="#D8D8D8" stroke-width="0.5"/>
<path d="M56.052 38.454V51H54.414V45.312H48.024V51H46.386V38.454H48.024V43.962H54.414V38.454H56.052ZM63.1509 51.162C62.2269 51.162 61.3869 50.952 60.6309 50.532C59.8869 50.112 59.2989 49.518 58.8669 48.75C58.4469 47.97 58.2369 47.07 58.2369 46.05C58.2369 45.042 58.4529 44.154 58.8849 43.386C59.3289 42.606 59.9289 42.012 60.6849 41.604C61.4409 41.184 62.2869 40.974 63.2229 40.974C64.1589 40.974 65.0049 41.184 65.7609 41.604C66.5169 42.012 67.1109 42.6 67.5429 43.368C67.9869 44.136 68.2089 45.03 68.2089 46.05C68.2089 47.07 67.9809 47.97 67.5249 48.75C67.0809 49.518 66.4749 50.112 65.7069 50.532C64.9389 50.952 64.0869 51.162 63.1509 51.162ZM63.1509 49.722C63.7389 49.722 64.2909 49.584 64.8069 49.308C65.3229 49.032 65.7369 48.618 66.0489 48.066C66.3729 47.514 66.5349 46.842 66.5349 46.05C66.5349 45.258 66.3789 44.586 66.0669 44.034C65.7549 43.482 65.3469 43.074 64.8429 42.81C64.3389 42.534 63.7929 42.396 63.2049 42.396C62.6049 42.396 62.0529 42.534 61.5489 42.81C61.0569 43.074 60.6609 43.482 60.3609 44.034C60.0609 44.586 59.9109 45.258 59.9109 46.05C59.9109 46.854 60.0549 47.532 60.3429 48.084C60.6429 48.636 61.0389 49.05 61.5309 49.326C62.0229 49.59 62.5629 49.722 63.1509 49.722ZM83.5026 41.136L80.4246 51H78.7326L76.3566 43.17L73.9806 51H72.2886L69.1926 41.136H70.8666L73.1346 49.416L75.5826 41.136H77.2566L79.6506 49.434L81.8826 41.136H83.5026ZM101.789 40.956C102.557 40.956 103.241 41.118 103.841 41.442C104.441 41.754 104.915 42.228 105.263 42.864C105.611 43.5 105.785 44.274 105.785 45.186V51H104.165V45.42C104.165 44.436 103.919 43.686 103.427 43.17C102.947 42.642 102.293 42.378 101.465 42.378C100.613 42.378 99.935 42.654 99.431 43.206C98.927 43.746 98.675 44.532 98.675 45.564V51H97.055V45.42C97.055 44.436 96.809 43.686 96.317 43.17C95.837 42.642 95.183 42.378 94.355 42.378C93.503 42.378 92.825 42.654 92.321 43.206C91.817 43.746 91.565 44.532 91.565 45.564V51H89.927V41.136H91.565V42.558C91.889 42.042 92.321 41.646 92.861 41.37C93.413 41.094 94.019 40.956 94.679 40.956C95.507 40.956 96.239 41.142 96.875 41.514C97.511 41.886 97.985 42.432 98.297 43.152C98.573 42.456 99.029 41.916 99.665 41.532C100.301 41.148 101.009 40.956 101.789 40.956ZM117.22 41.136V51H115.582V49.542C115.27 50.046 114.832 50.442 114.268 50.73C113.716 51.006 113.104 51.144 112.432 51.144C111.664 51.144 110.974 50.988 110.362 50.676C109.75 50.352 109.264 49.872 108.904 49.236C108.556 48.6 108.382 47.826 108.382 46.914V41.136H110.002V46.698C110.002 47.67 110.248 48.42 110.74 48.948C111.232 49.464 111.904 49.722 112.756 49.722C113.632 49.722 114.322 49.452 114.826 48.912C115.33 48.372 115.582 47.586 115.582 46.554V41.136H117.22ZM119.374 46.05C119.374 45.03 119.578 44.142 119.986 43.386C120.394 42.618 120.958 42.024 121.678 41.604C122.41 41.184 123.244 40.974 124.18 40.974C125.392 40.974 126.388 41.268 127.168 41.856C127.96 42.444 128.482 43.26 128.734 44.304H126.97C126.802 43.704 126.472 43.23 125.98 42.882C125.5 42.534 124.9 42.36 124.18 42.36C123.244 42.36 122.488 42.684 121.912 43.332C121.336 43.968 121.048 44.874 121.048 46.05C121.048 47.238 121.336 48.156 121.912 48.804C122.488 49.452 123.244 49.776 124.18 49.776C124.9 49.776 125.5 49.608 125.98 49.272C126.46 48.936 126.79 48.456 126.97 47.832H128.734C128.47 48.84 127.942 49.65 127.15 50.262C126.358 50.862 125.368 51.162 124.18 51.162C123.244 51.162 122.41 50.952 121.678 50.532C120.958 50.112 120.394 49.518 119.986 48.75C119.578 47.982 119.374 47.082 119.374 46.05ZM135.815 40.956C136.559 40.956 137.231 41.118 137.831 41.442C138.431 41.754 138.899 42.228 139.235 42.864C139.583 43.5 139.757 44.274 139.757 45.186V51H138.137V45.42C138.137 44.436 137.891 43.686 137.399 43.17C136.907 42.642 136.235 42.378 135.383 42.378C134.519 42.378 133.829 42.648 133.313 43.188C132.809 43.728 132.557 44.514 132.557 45.546V51H130.919V37.68H132.557V42.54C132.881 42.036 133.325 41.646 133.889 41.37C134.465 41.094 135.107 40.956 135.815 40.956ZM146.62 46.032C146.62 45.024 146.824 44.142 147.232 43.386C147.64 42.618 148.198 42.024 148.906 41.604C149.626 41.184 150.43 40.974 151.318 40.974C152.086 40.974 152.8 41.154 153.46 41.514C154.12 41.862 154.624 42.324 154.972 42.9V37.68H156.628V51H154.972V49.146C154.648 49.734 154.168 50.22 153.532 50.604C152.896 50.976 152.152 51.162 151.3 51.162C150.424 51.162 149.626 50.946 148.906 50.514C148.198 50.082 147.64 49.476 147.232 48.696C146.824 47.916 146.62 47.028 146.62 46.032ZM154.972 46.05C154.972 45.306 154.822 44.658 154.522 44.106C154.222 43.554 153.814 43.134 153.298 42.846C152.794 42.546 152.236 42.396 151.624 42.396C151.012 42.396 150.454 42.54 149.95 42.828C149.446 43.116 149.044 43.536 148.744 44.088C148.444 44.64 148.294 45.288 148.294 46.032C148.294 46.788 148.444 47.448 148.744 48.012C149.044 48.564 149.446 48.99 149.95 49.29C150.454 49.578 151.012 49.722 151.624 49.722C152.236 49.722 152.794 49.578 153.298 49.29C153.814 48.99 154.222 48.564 154.522 48.012C154.822 47.448 154.972 46.794 154.972 46.05ZM160.242 39.534C159.93 39.534 159.666 39.426 159.45 39.21C159.234 38.994 159.126 38.73 159.126 38.418C159.126 38.106 159.234 37.842 159.45 37.626C159.666 37.41 159.93 37.302 160.242 37.302C160.542 37.302 160.794 37.41 160.998 37.626C161.214 37.842 161.322 38.106 161.322 38.418C161.322 38.73 161.214 38.994 160.998 39.21C160.794 39.426 160.542 39.534 160.242 39.534ZM161.034 41.136V51H159.396V41.136H161.034ZM163.213 46.032C163.213 45.024 163.417 44.142 163.825 43.386C164.233 42.618 164.791 42.024 165.499 41.604C166.219 41.184 167.023 40.974 167.911 40.974C168.679 40.974 169.393 41.154 170.053 41.514C170.713 41.862 171.217 42.324 171.565 42.9V37.68H173.221V51H171.565V49.146C171.241 49.734 170.761 50.22 170.125 50.604C169.489 50.976 168.745 51.162 167.893 51.162C167.017 51.162 166.219 50.946 165.499 50.514C164.791 50.082 164.233 49.476 163.825 48.696C163.417 47.916 163.213 47.028 163.213 46.032ZM171.565 46.05C171.565 45.306 171.415 44.658 171.115 44.106C170.815 43.554 170.407 43.134 169.891 42.846C169.387 42.546 168.829 42.396 168.217 42.396C167.605 42.396 167.047 42.54 166.543 42.828C166.039 43.116 165.637 43.536 165.337 44.088C165.037 44.64 164.887 45.288 164.887 46.032C164.887 46.788 165.037 47.448 165.337 48.012C165.637 48.564 166.039 48.99 166.543 49.29C167.047 49.578 167.605 49.722 168.217 49.722C168.829 49.722 169.387 49.578 169.891 49.29C170.407 48.99 170.815 48.564 171.115 48.012C171.415 47.448 171.565 46.794 171.565 46.05ZM189.284 41.136L183.344 55.644H181.652L183.596 50.892L179.618 41.136H181.436L184.532 49.128L187.592 41.136H189.284ZM195.233 51.162C194.309 51.162 193.469 50.952 192.713 50.532C191.969 50.112 191.381 49.518 190.949 48.75C190.529 47.97 190.319 47.07 190.319 46.05C190.319 45.042 190.535 44.154 190.967 43.386C191.411 42.606 192.011 42.012 192.767 41.604C193.523 41.184 194.369 40.974 195.305 40.974C196.241 40.974 197.087 41.184 197.843 41.604C198.599 42.012 199.193 42.6 199.625 43.368C200.069 44.136 200.291 45.03 200.291 46.05C200.291 47.07 200.063 47.97 199.607 48.75C199.163 49.518 198.557 50.112 197.789 50.532C197.021 50.952 196.169 51.162 195.233 51.162ZM195.233 49.722C195.821 49.722 196.373 49.584 196.889 49.308C197.405 49.032 197.819 48.618 198.131 48.066C198.455 47.514 198.617 46.842 198.617 46.05C198.617 45.258 198.461 44.586 198.149 44.034C197.837 43.482 197.429 43.074 196.925 42.81C196.421 42.534 195.875 42.396 195.287 42.396C194.687 42.396 194.135 42.534 193.631 42.81C193.139 43.074 192.743 43.482 192.443 44.034C192.143 44.586 191.993 45.258 191.993 46.05C191.993 46.854 192.137 47.532 192.425 48.084C192.725 48.636 193.121 49.05 193.613 49.326C194.105 49.59 194.645 49.722 195.233 49.722ZM211.193 41.136V51H209.555V49.542C209.243 50.046 208.805 50.442 208.241 50.73C207.689 51.006 207.077 51.144 206.405 51.144C205.637 51.144 204.947 50.988 204.335 50.676C203.723 50.352 203.237 49.872 202.877 49.236C202.529 48.6 202.355 47.826 202.355 46.914V41.136H203.975V46.698C203.975 47.67 204.221 48.42 204.713 48.948C205.205 49.464 205.877 49.722 206.729 49.722C207.605 49.722 208.295 49.452 208.799 48.912C209.303 48.372 209.555 47.586 209.555 46.554V41.136H211.193ZM220.395 37.68V51H218.757V37.68H220.395ZM224.033 39.534C223.721 39.534 223.457 39.426 223.241 39.21C223.025 38.994 222.917 38.73 222.917 38.418C222.917 38.106 223.025 37.842 223.241 37.626C223.457 37.41 223.721 37.302 224.033 37.302C224.333 37.302 224.585 37.41 224.789 37.626C225.005 37.842 225.113 38.106 225.113 38.418C225.113 38.73 225.005 38.994 224.789 39.21C224.585 39.426 224.333 39.534 224.033 39.534ZM224.825 41.136V51H223.187V41.136H224.825ZM233.124 51L229.254 46.644V51H227.616V37.68H229.254V45.51L233.052 41.136H235.338L230.694 46.05L235.356 51H233.124ZM245.88 45.69C245.88 46.002 245.862 46.332 245.826 46.68H237.942C238.002 47.652 238.332 48.414 238.932 48.966C239.544 49.506 240.282 49.776 241.146 49.776C241.854 49.776 242.442 49.614 242.91 49.29C243.39 48.954 243.726 48.51 243.918 47.958H245.682C245.418 48.906 244.89 49.68 244.098 50.28C243.306 50.868 242.322 51.162 241.146 51.162C240.21 51.162 239.37 50.952 238.626 50.532C237.894 50.112 237.318 49.518 236.898 48.75C236.478 47.97 236.268 47.07 236.268 46.05C236.268 45.03 236.472 44.136 236.88 43.368C237.288 42.6 237.858 42.012 238.59 41.604C239.334 41.184 240.186 40.974 241.146 40.974C242.082 40.974 242.91 41.178 243.63 41.586C244.35 41.994 244.902 42.558 245.286 43.278C245.682 43.986 245.88 44.79 245.88 45.69ZM244.188 45.348C244.188 44.724 244.05 44.19 243.774 43.746C243.498 43.29 243.12 42.948 242.64 42.72C242.172 42.48 241.65 42.36 241.074 42.36C240.246 42.36 239.538 42.624 238.95 43.152C238.374 43.68 238.044 44.412 237.96 45.348H244.188ZM253.363 51.108C253.051 51.108 252.787 51 252.571 50.784C252.355 50.568 252.247 50.304 252.247 49.992C252.247 49.68 252.355 49.416 252.571 49.2C252.787 48.984 253.051 48.876 253.363 48.876C253.663 48.876 253.915 48.984 254.119 49.2C254.335 49.416 254.443 49.68 254.443 49.992C254.443 50.304 254.335 50.568 254.119 50.784C253.915 51 253.663 51.108 253.363 51.108ZM253.363 43.404C253.051 43.404 252.787 43.296 252.571 43.08C252.355 42.864 252.247 42.6 252.247 42.288C252.247 41.976 252.355 41.712 252.571 41.496C252.787 41.28 253.051 41.172 253.363 41.172C253.663 41.172 253.915 41.28 254.119 41.496C254.335 41.712 254.443 41.976 254.443 42.288C254.443 42.6 254.335 42.864 254.119 43.08C253.915 43.296 253.663 43.404 253.363 43.404Z" fill="black"/>
<path d="M89.024 92.668H93.416V94H87.386V81.454H89.024V92.668ZM94.5435 89.032C94.5435 88.024 94.7475 87.142 95.1555 86.386C95.5635 85.618 96.1215 85.024 96.8295 84.604C97.5495 84.184 98.3475 83.974 99.2235 83.974C100.088 83.974 100.838 84.16 101.474 84.532C102.11 84.904 102.584 85.372 102.896 85.936V84.136H104.552V94H102.896V92.164C102.572 92.74 102.086 93.22 101.438 93.604C100.802 93.976 100.058 94.162 99.2055 94.162C98.3295 94.162 97.5375 93.946 96.8295 93.514C96.1215 93.082 95.5635 92.476 95.1555 91.696C94.7475 90.916 94.5435 90.028 94.5435 89.032ZM102.896 89.05C102.896 88.306 102.746 87.658 102.446 87.106C102.146 86.554 101.738 86.134 101.222 85.846C100.718 85.546 100.16 85.396 99.5475 85.396C98.9355 85.396 98.3775 85.54 97.8735 85.828C97.3695 86.116 96.9675 86.536 96.6675 87.088C96.3675 87.64 96.2175 88.288 96.2175 89.032C96.2175 89.788 96.3675 90.448 96.6675 91.012C96.9675 91.564 97.3695 91.99 97.8735 92.29C98.3775 92.578 98.9355 92.722 99.5475 92.722C100.16 92.722 100.718 92.578 101.222 92.29C101.738 91.99 102.146 91.564 102.446 91.012C102.746 90.448 102.896 89.794 102.896 89.05ZM113.756 85.972C114.092 85.384 114.584 84.904 115.232 84.532C115.88 84.16 116.618 83.974 117.446 83.974C118.334 83.974 119.132 84.184 119.84 84.604C120.548 85.024 121.106 85.618 121.514 86.386C121.922 87.142 122.126 88.024 122.126 89.032C122.126 90.028 121.922 90.916 121.514 91.696C121.106 92.476 120.542 93.082 119.822 93.514C119.114 93.946 118.322 94.162 117.446 94.162C116.594 94.162 115.844 93.976 115.196 93.604C114.56 93.232 114.08 92.758 113.756 92.182V94H112.118V80.68H113.756V85.972ZM120.452 89.032C120.452 88.288 120.302 87.64 120.002 87.088C119.702 86.536 119.294 86.116 118.778 85.828C118.274 85.54 117.716 85.396 117.104 85.396C116.504 85.396 115.946 85.546 115.43 85.846C114.926 86.134 114.518 86.56 114.206 87.124C113.906 87.676 113.756 88.318 113.756 89.05C113.756 89.794 113.906 90.448 114.206 91.012C114.518 91.564 114.926 91.99 115.43 92.29C115.946 92.578 116.504 92.722 117.104 92.722C117.716 92.722 118.274 92.578 118.778 92.29C119.294 91.99 119.702 91.564 120.002 91.012C120.302 90.448 120.452 89.788 120.452 89.032ZM128.584 94.162C127.66 94.162 126.82 93.952 126.064 93.532C125.32 93.112 124.732 92.518 124.3 91.75C123.88 90.97 123.67 90.07 123.67 89.05C123.67 88.042 123.886 87.154 124.318 86.386C124.762 85.606 125.362 85.012 126.118 84.604C126.874 84.184 127.72 83.974 128.656 83.974C129.592 83.974 130.438 84.184 131.194 84.604C131.95 85.012 132.544 85.6 132.976 86.368C133.42 87.136 133.642 88.03 133.642 89.05C133.642 90.07 133.414 90.97 132.958 91.75C132.514 92.518 131.908 93.112 131.14 93.532C130.372 93.952 129.52 94.162 128.584 94.162ZM128.584 92.722C129.172 92.722 129.724 92.584 130.24 92.308C130.756 92.032 131.17 91.618 131.482 91.066C131.806 90.514 131.968 89.842 131.968 89.05C131.968 88.258 131.812 87.586 131.5 87.034C131.188 86.482 130.78 86.074 130.276 85.81C129.772 85.534 129.226 85.396 128.638 85.396C128.038 85.396 127.486 85.534 126.982 85.81C126.49 86.074 126.094 86.482 125.794 87.034C125.494 87.586 125.344 88.258 125.344 89.05C125.344 89.854 125.488 90.532 125.776 91.084C126.076 91.636 126.472 92.05 126.964 92.326C127.456 92.59 127.996 92.722 128.584 92.722ZM140.602 83.956C141.802 83.956 142.774 84.322 143.518 85.054C144.262 85.774 144.634 86.818 144.634 88.186V94H143.014V88.42C143.014 87.436 142.768 86.686 142.276 86.17C141.784 85.642 141.112 85.378 140.26 85.378C139.396 85.378 138.706 85.648 138.19 86.188C137.686 86.728 137.434 87.514 137.434 88.546V94H135.796V84.136H137.434V85.54C137.758 85.036 138.196 84.646 138.748 84.37C139.312 84.094 139.93 83.956 140.602 83.956ZM152.116 83.956C153.316 83.956 154.288 84.322 155.032 85.054C155.776 85.774 156.148 86.818 156.148 88.186V94H154.528V88.42C154.528 87.436 154.282 86.686 153.79 86.17C153.298 85.642 152.626 85.378 151.774 85.378C150.91 85.378 150.22 85.648 149.704 86.188C149.2 86.728 148.948 87.514 148.948 88.546V94H147.31V84.136H148.948V85.54C149.272 85.036 149.71 84.646 150.262 84.37C150.826 84.094 151.444 83.956 152.116 83.956ZM167.824 88.69C167.824 89.002 167.806 89.332 167.77 89.68H159.886C159.946 90.652 160.276 91.414 160.876 91.966C161.488 92.506 162.226 92.776 163.09 92.776C163.798 92.776 164.386 92.614 164.854 92.29C165.334 91.954 165.67 91.51 165.862 90.958H167.626C167.362 91.906 166.834 92.68 166.042 93.28C165.25 93.868 164.266 94.162 163.09 94.162C162.154 94.162 161.314 93.952 160.57 93.532C159.838 93.112 159.262 92.518 158.842 91.75C158.422 90.97 158.212 90.07 158.212 89.05C158.212 88.03 158.416 87.136 158.824 86.368C159.232 85.6 159.802 85.012 160.534 84.604C161.278 84.184 162.13 83.974 163.09 83.974C164.026 83.974 164.854 84.178 165.574 84.586C166.294 84.994 166.846 85.558 167.23 86.278C167.626 86.986 167.824 87.79 167.824 88.69ZM166.132 88.348C166.132 87.724 165.994 87.19 165.718 86.746C165.442 86.29 165.064 85.948 164.584 85.72C164.116 85.48 163.594 85.36 163.018 85.36C162.19 85.36 161.482 85.624 160.894 86.152C160.318 86.68 159.988 87.412 159.904 88.348H166.132ZM176.422 85.954C176.746 85.39 177.226 84.922 177.862 84.55C178.51 84.166 179.26 83.974 180.112 83.974C180.988 83.974 181.78 84.184 182.488 84.604C183.208 85.024 183.772 85.618 184.18 86.386C184.588 87.142 184.792 88.024 184.792 89.032C184.792 90.028 184.588 90.916 184.18 91.696C183.772 92.476 183.208 93.082 182.488 93.514C181.78 93.946 180.988 94.162 180.112 94.162C179.272 94.162 178.528 93.976 177.88 93.604C177.244 93.22 176.758 92.746 176.422 92.182V98.68H174.784V84.136H176.422V85.954ZM183.118 89.032C183.118 88.288 182.968 87.64 182.668 87.088C182.368 86.536 181.96 86.116 181.444 85.828C180.94 85.54 180.382 85.396 179.77 85.396C179.17 85.396 178.612 85.546 178.096 85.846C177.592 86.134 177.184 86.56 176.872 87.124C176.572 87.676 176.422 88.318 176.422 89.05C176.422 89.794 176.572 90.448 176.872 91.012C177.184 91.564 177.592 91.99 178.096 92.29C178.612 92.578 179.17 92.722 179.77 92.722C180.382 92.722 180.94 92.578 181.444 92.29C181.96 91.99 182.368 91.564 182.668 91.012C182.968 90.448 183.118 89.788 183.118 89.032ZM186.337 89.032C186.337 88.024 186.541 87.142 186.949 86.386C187.357 85.618 187.915 85.024 188.623 84.604C189.343 84.184 190.141 83.974 191.017 83.974C191.881 83.974 192.631 84.16 193.267 84.532C193.903 84.904 194.377 85.372 194.689 85.936V84.136H196.345V94H194.689V92.164C194.365 92.74 193.879 93.22 193.231 93.604C192.595 93.976 191.851 94.162 190.999 94.162C190.123 94.162 189.331 93.946 188.623 93.514C187.915 93.082 187.357 92.476 186.949 91.696C186.541 90.916 186.337 90.028 186.337 89.032ZM194.689 89.05C194.689 88.306 194.539 87.658 194.239 87.106C193.939 86.554 193.531 86.134 193.015 85.846C192.511 85.546 191.953 85.396 191.341 85.396C190.729 85.396 190.171 85.54 189.667 85.828C189.163 86.116 188.761 86.536 188.461 87.088C188.161 87.64 188.011 88.288 188.011 89.032C188.011 89.788 188.161 90.448 188.461 91.012C188.761 91.564 189.163 91.99 189.667 92.29C190.171 92.578 190.729 92.722 191.341 92.722C191.953 92.722 192.511 92.578 193.015 92.29C193.531 91.99 193.939 91.564 194.239 91.012C194.539 90.448 194.689 89.794 194.689 89.05ZM199.959 82.534C199.647 82.534 199.383 82.426 199.167 82.21C198.951 81.994 198.843 81.73 198.843 81.418C198.843 81.106 198.951 80.842 199.167 80.626C199.383 80.41 199.647 80.302 199.959 80.302C200.259 80.302 200.511 80.41 200.715 80.626C200.931 80.842 201.039 81.106 201.039 81.418C201.039 81.73 200.931 81.994 200.715 82.21C200.511 82.426 200.259 82.534 199.959 82.534ZM200.751 84.136V94H199.113V84.136H200.751ZM212.542 88.69C212.542 89.002 212.524 89.332 212.488 89.68H204.604C204.664 90.652 204.994 91.414 205.594 91.966C206.206 92.506 206.944 92.776 207.808 92.776C208.516 92.776 209.104 92.614 209.572 92.29C210.052 91.954 210.388 91.51 210.58 90.958H212.344C212.08 91.906 211.552 92.68 210.76 93.28C209.968 93.868 208.984 94.162 207.808 94.162C206.872 94.162 206.032 93.952 205.288 93.532C204.556 93.112 203.98 92.518 203.56 91.75C203.14 90.97 202.93 90.07 202.93 89.05C202.93 88.03 203.134 87.136 203.542 86.368C203.95 85.6 204.52 85.012 205.252 84.604C205.996 84.184 206.848 83.974 207.808 83.974C208.744 83.974 209.572 84.178 210.292 84.586C211.012 84.994 211.564 85.558 211.948 86.278C212.344 86.986 212.542 87.79 212.542 88.69ZM210.85 88.348C210.85 87.724 210.712 87.19 210.436 86.746C210.16 86.29 209.782 85.948 209.302 85.72C208.834 85.48 208.312 85.36 207.736 85.36C206.908 85.36 206.2 85.624 205.612 86.152C205.036 86.68 204.706 87.412 204.622 88.348H210.85Z" fill="#C4C4C4"/>
<path d="M276.277 21.0195L272.926 16.3203H270.418L275.141 22.5898L270.289 29H272.82L276.324 24.1719L279.828 29H282.336L277.484 22.5898L282.207 16.3203H279.664L276.277 21.0195Z" fill="#C4C4C4"/>
</svg>
