<?xml version="1.0" encoding="UTF-8" standalone="no"?><svg xmlns="http://www.w3.org/2000/svg" xmlns:xlink="http://www.w3.org/1999/xlink" contentScriptType="application/ecmascript" contentStyleType="text/css" height="831px" preserveAspectRatio="none" style="width:753px;height:831px;" version="1.1" viewBox="0 0 753 831" width="753px" zoomAndPan="magnify"><defs><filter height="300%" id="f1d8a8896x4vlf" width="300%" x="-1" y="-1"><feGaussianBlur result="blurOut" stdDeviation="2.0"/><feColorMatrix in="blurOut" result="blurOut2" type="matrix" values="0 0 0 0 0 0 0 0 0 0 0 0 0 0 0 0 0 0 .4 0"/><feOffset dx="4.0" dy="4.0" in="blurOut2" result="blurOut3"/><feBlend in="SourceGraphic" in2="blurOut3" mode="normal"/></filter></defs><g><!--MD5=[10ea673caf457862023e152271927b45]
cluster controller--><polygon fill="#FFFFFF" filter="url(#f1d8a8896x4vlf)" points="428,16,511,16,518,38.2969,674,38.2969,674,253,428,253,428,16" style="stroke: #000000; stroke-width: 1.5;"/><line style="stroke: #000000; stroke-width: 1.5;" x1="428" x2="518" y1="38.2969" y2="38.2969"/><text fill="#000000" font-family="sans-serif" font-size="14" font-weight="bold" lengthAdjust="spacingAndGlyphs" textLength="77" x="432" y="30.9951">controller</text><!--MD5=[d2ad5820dd9aa5a29144465bd5db57d8]
cluster loan--><polygon fill="#FFFFFF" filter="url(#f1d8a8896x4vlf)" points="371,284,410,284,417,306.2969,731,306.2969,731,431,371,431,371,284" style="stroke: #000000; stroke-width: 1.5;"/><line style="stroke: #000000; stroke-width: 1.5;" x1="371" x2="417" y1="306.2969" y2="306.2969"/><text fill="#000000" font-family="sans-serif" font-size="14" font-weight="bold" lengthAdjust="spacingAndGlyphs" textLength="33" x="375" y="298.9951">loan</text><!--MD5=[5622bc4ba3bf2be5d17935065b98c5f9]
cluster dao--><polygon fill="#FFFFFF" filter="url(#f1d8a8896x4vlf)" points="14,462,49,462,56,484.2969,640,484.2969,640,819,14,819,14,462" style="stroke: #000000; stroke-width: 1.5;"/><line style="stroke: #000000; stroke-width: 1.5;" x1="14" x2="56" y1="484.2969" y2="484.2969"/><text fill="#000000" font-family="sans-serif" font-size="14" font-weight="bold" lengthAdjust="spacingAndGlyphs" textLength="29" x="18" y="476.9951">dao</text><!--MD5=[bab4019c732006648757f54388533847]
cluster postgres--><polygon fill="#FFFFFF" filter="url(#f1d8a8896x4vlf)" points="88,702,165,702,172,724.2969,617,724.2969,617,811,88,811,88,702" style="stroke: #000000; stroke-width: 1.5;"/><line style="stroke: #000000; stroke-width: 1.5;" x1="88" x2="172" y1="724.2969" y2="724.2969"/><text fill="#000000" font-family="sans-serif" font-size="14" font-weight="bold" lengthAdjust="spacingAndGlyphs" textLength="71" x="92" y="716.9951">postgres</text><!--MD5=[5e8336fb63d19efe52ac94c7e567f684]
class LoanController--><rect fill="#FEFECE" filter="url(#f1d8a8896x4vlf)" height="201.6563" id="LoanController" style="stroke: #A80036; stroke-width: 1.5;" width="229" x="436.5" y="43"/><ellipse cx="501.25" cy="59" fill="#ADD1B2" rx="11" ry="11" style="stroke: #A80036; stroke-width: 1.0;"/><path d="M504.2188,64.6406 Q503.6406,64.9375 503,65.0859 Q502.3594,65.2344 501.6563,65.2344 Q499.1563,65.2344 497.8359,63.5859 Q496.5156,61.9375 496.5156,58.8125 Q496.5156,55.6875 497.8359,54.0313 Q499.1563,52.375 501.6563,52.375 Q502.3594,52.375 503.0078,52.5313 Q503.6563,52.6875 504.2188,52.9844 L504.2188,55.7031 Q503.5938,55.125 503,54.8516 Q502.4063,54.5781 501.7813,54.5781 Q500.4375,54.5781 499.75,55.6484 Q499.0625,56.7188 499.0625,58.8125 Q499.0625,60.9063 499.75,61.9766 Q500.4375,63.0469 501.7813,63.0469 Q502.4063,63.0469 503,62.7734 Q503.5938,62.5 504.2188,61.9219 L504.2188,64.6406 Z "/><text fill="#000000" font-family="sans-serif" font-size="12" lengthAdjust="spacingAndGlyphs" textLength="91" x="521.75" y="63.1543">LoanController</text><line style="stroke: #A80036; stroke-width: 1.5;" x1="437.5" x2="664.5" y1="75" y2="75"/><rect fill="none" height="6" style="stroke: #C82930; stroke-width: 1.0;" width="6" x="444.5" y="83"/><text fill="#000000" font-family="sans-serif" font-size="11" lengthAdjust="spacingAndGlyphs" textLength="119" x="456.5" y="89.2104">itemIdField: TextField</text><rect fill="none" height="6" style="stroke: #C82930; stroke-width: 1.0;" width="6" x="444.5" y="95.8047"/><text fill="#000000" font-family="sans-serif" font-size="11" lengthAdjust="spacingAndGlyphs" textLength="119" x="456.5" y="102.0151">cardIdField: TextField</text><rect fill="none" height="6" style="stroke: #C82930; stroke-width: 1.0;" width="6" x="444.5" y="108.6094"/><text fill="#000000" font-family="sans-serif" font-size="11" lengthAdjust="spacingAndGlyphs" textLength="156" x="456.5" y="114.8198">dateFromPicker: DatePicker</text><rect fill="none" height="6" style="stroke: #C82930; stroke-width: 1.0;" width="6" x="444.5" y="121.4141"/><text fill="#000000" font-family="sans-serif" font-size="11" lengthAdjust="spacingAndGlyphs" textLength="141" x="456.5" y="127.6245">dateToPicker: DatePicker</text><rect fill="none" height="6" style="stroke: #C82930; stroke-width: 1.0;" width="6" x="444.5" y="134.2188"/><text fill="#000000" font-family="sans-serif" font-size="11" lengthAdjust="spacingAndGlyphs" textLength="134" x="456.5" y="140.4292">LoanItemButton: Button</text><rect fill="none" height="6" style="stroke: #C82930; stroke-width: 1.0;" width="6" x="444.5" y="147.0234"/><text fill="#000000" font-family="sans-serif" font-size="11" lengthAdjust="spacingAndGlyphs" textLength="129" x="456.5" y="153.2339">analysisButton: Button</text><rect fill="none" height="6" style="stroke: #C82930; stroke-width: 1.0;" width="6" x="444.5" y="159.8281"/><text fill="#000000" font-family="sans-serif" font-size="11" lengthAdjust="spacingAndGlyphs" textLength="137" x="456.5" y="166.0386">findLoansButton: Button</text><line style="stroke: #A80036; stroke-width: 1.5;" x1="437.5" x2="664.5" y1="172.6328" y2="172.6328"/><ellipse cx="447.5" cy="183.6328" fill="#84BE84" rx="3" ry="3" style="stroke: #038048; stroke-width: 1.0;"/><text fill="#000000" font-family="sans-serif" font-size="11" lengthAdjust="spacingAndGlyphs" textLength="79" x="456.5" y="186.8433">create() : void</text><ellipse cx="447.5" cy="196.4375" fill="#84BE84" rx="3" ry="3" style="stroke: #038048; stroke-width: 1.0;"/><text fill="#000000" font-family="sans-serif" font-size="11" lengthAdjust="spacingAndGlyphs" textLength="161" x="456.5" y="199.6479">findAllLoansForClient() : void</text><ellipse cx="447.5" cy="209.2422" fill="#84BE84" rx="3" ry="3" style="stroke: #038048; stroke-width: 1.0;"/><text fill="#000000" font-family="sans-serif" font-size="11" lengthAdjust="spacingAndGlyphs" textLength="203" x="456.5" y="212.4526">findLoansByDateForAnalysis() : void</text><ellipse cx="447.5" cy="222.0469" fill="#84BE84" rx="3" ry="3" style="stroke: #038048; stroke-width: 1.0;"/><text fill="#000000" font-family="sans-serif" font-size="11" lengthAdjust="spacingAndGlyphs" textLength="188" x="456.5" y="225.2573">findLoansByDateForClient() : void</text><ellipse cx="447.5" cy="234.8516" fill="#84BE84" rx="3" ry="3" style="stroke: #038048; stroke-width: 1.0;"/><text fill="#000000" font-family="sans-serif" font-size="11" lengthAdjust="spacingAndGlyphs" textLength="110" x="456.5" y="238.062">displayLoan() : void</text><!--MD5=[0f94ab9aef886e7f30dbc211b378b1e8]
class LoanFacade--><rect fill="#FEFECE" filter="url(#f1d8a8896x4vlf)" height="112.0234" id="LoanFacade" style="stroke: #A80036; stroke-width: 1.5;" width="345" x="378.5" y="311"/><ellipse cx="508.75" cy="327" fill="#ADD1B2" rx="11" ry="11" style="stroke: #A80036; stroke-width: 1.0;"/><path d="M511.7188,332.6406 Q511.1406,332.9375 510.5,333.0859 Q509.8594,333.2344 509.1563,333.2344 Q506.6563,333.2344 505.3359,331.5859 Q504.0156,329.9375 504.0156,326.8125 Q504.0156,323.6875 505.3359,322.0313 Q506.6563,320.375 509.1563,320.375 Q509.8594,320.375 510.5078,320.5313 Q511.1563,320.6875 511.7188,320.9844 L511.7188,323.7031 Q511.0938,323.125 510.5,322.8516 Q509.9063,322.5781 509.2813,322.5781 Q507.9375,322.5781 507.25,323.6484 Q506.5625,324.7188 506.5625,326.8125 Q506.5625,328.9063 507.25,329.9766 Q507.9375,331.0469 509.2813,331.0469 Q509.9063,331.0469 510.5,330.7734 Q511.0938,330.5 511.7188,329.9219 L511.7188,332.6406 Z "/><text fill="#000000" font-family="sans-serif" font-size="12" lengthAdjust="spacingAndGlyphs" textLength="76" x="529.25" y="331.1543">LoanFacade</text><line style="stroke: #A80036; stroke-width: 1.5;" x1="379.5" x2="722.5" y1="343" y2="343"/><line style="stroke: #A80036; stroke-width: 1.5;" x1="379.5" x2="722.5" y1="351" y2="351"/><ellipse cx="389.5" cy="362" fill="#84BE84" rx="3" ry="3" style="stroke: #038048; stroke-width: 1.0;"/><text fill="#000000" font-family="sans-serif" font-size="11" lengthAdjust="spacingAndGlyphs" textLength="319" x="398.5" y="365.2104">createLoan(Date from, Date to, String cardId, int itemId)</text><ellipse cx="389.5" cy="374.8047" fill="#84BE84" rx="3" ry="3" style="stroke: #038048; stroke-width: 1.0;"/><text fill="#000000" font-family="sans-serif" font-size="11" lengthAdjust="spacingAndGlyphs" textLength="115" x="398.5" y="378.0151">findAll(String cardId)</text><ellipse cx="389.5" cy="387.6094" fill="#84BE84" rx="3" ry="3" style="stroke: #038048; stroke-width: 1.0;"/><text fill="#000000" font-family="sans-serif" font-size="11" lengthAdjust="spacingAndGlyphs" textLength="155" x="398.5" y="390.8198">findByDateFrom(Date from)</text><ellipse cx="389.5" cy="400.4141" fill="#84BE84" rx="3" ry="3" style="stroke: #038048; stroke-width: 1.0;"/><text fill="#000000" font-family="sans-serif" font-size="11" lengthAdjust="spacingAndGlyphs" textLength="124" x="398.5" y="403.6245">findByDateTo(Date to)</text><ellipse cx="389.5" cy="413.2188" fill="#84BE84" rx="3" ry="3" style="stroke: #038048; stroke-width: 1.0;"/><text fill="#000000" font-family="sans-serif" font-size="11" lengthAdjust="spacingAndGlyphs" textLength="246" x="398.5" y="416.4292">findByDateToByUser(Date to, String cardId)</text><!--MD5=[4a0300a6597e068a69ac5dc42e345e2c]
class DAOFactory--><rect fill="#FEFECE" filter="url(#f1d8a8896x4vlf)" height="60.8047" id="DAOFactory" style="stroke: #A80036; stroke-width: 1.5;" width="162" x="470" y="514.5"/><ellipse cx="511.1" cy="530.5" fill="#A9DCDF" rx="11" ry="11" style="stroke: #A80036; stroke-width: 1.0;"/><path d="M511.2094,525.8438 L510.0531,530.9219 L512.3813,530.9219 L511.2094,525.8438 Z M509.725,523.6094 L512.7094,523.6094 L516.0688,536 L513.6156,536 L512.85,532.9375 L509.5688,532.9375 L508.8188,536 L506.3813,536 L509.725,523.6094 Z "/><text fill="#000000" font-family="sans-serif" font-size="12" font-style="italic" lengthAdjust="spacingAndGlyphs" textLength="72" x="530.9" y="534.6543">DAOFactory</text><line style="stroke: #A80036; stroke-width: 1.5;" x1="471" x2="631" y1="546.5" y2="546.5"/><line style="stroke: #A80036; stroke-width: 1.5;" x1="471" x2="631" y1="554.5" y2="554.5"/><ellipse cx="481" cy="565.5" fill="#84BE84" rx="3" ry="3" style="stroke: #038048; stroke-width: 1.0;"/><text fill="#000000" font-family="sans-serif" font-size="11" lengthAdjust="spacingAndGlyphs" textLength="136" x="490" y="568.7104">getLoanDAO(): LoanDAO</text><!--MD5=[49898ca32f4dc84a3dd1f2529e35941d]
class LoanDAO--><rect fill="#FEFECE" filter="url(#f1d8a8896x4vlf)" height="112.0234" id="LoanDAO" style="stroke: #A80036; stroke-width: 1.5;" width="357" x="22.5" y="489"/><ellipse cx="168.75" cy="505" fill="#B4A7E5" rx="11" ry="11" style="stroke: #A80036; stroke-width: 1.0;"/><path d="M164.6719,500.7656 L164.6719,498.6094 L172.0625,498.6094 L172.0625,500.7656 L169.5938,500.7656 L169.5938,508.8438 L172.0625,508.8438 L172.0625,511 L164.6719,511 L164.6719,508.8438 L167.1406,508.8438 L167.1406,500.7656 L164.6719,500.7656 Z "/><text fill="#000000" font-family="sans-serif" font-size="12" font-style="italic" lengthAdjust="spacingAndGlyphs" textLength="56" x="189.25" y="509.1543">LoanDAO</text><line style="stroke: #A80036; stroke-width: 1.5;" x1="23.5" x2="378.5" y1="521" y2="521"/><line style="stroke: #A80036; stroke-width: 1.5;" x1="23.5" x2="378.5" y1="529" y2="529"/><ellipse cx="33.5" cy="540" fill="#84BE84" rx="3" ry="3" style="stroke: #038048; stroke-width: 1.0;"/><text fill="#000000" font-family="sans-serif" font-size="11" lengthAdjust="spacingAndGlyphs" textLength="203" x="42.5" y="543.2104">findByCardId(String cardId): Loans[]</text><ellipse cx="33.5" cy="552.8047" fill="#84BE84" rx="3" ry="3" style="stroke: #038048; stroke-width: 1.0;"/><text fill="#000000" font-family="sans-serif" font-size="11" lengthAdjust="spacingAndGlyphs" textLength="209" x="42.5" y="556.0151">findByDateFrom(Date from) : Loans[]</text><ellipse cx="33.5" cy="565.6094" fill="#84BE84" rx="3" ry="3" style="stroke: #038048; stroke-width: 1.0;"/><text fill="#000000" font-family="sans-serif" font-size="11" lengthAdjust="spacingAndGlyphs" textLength="178" x="42.5" y="568.8198">findByDateTo(Date to) : Loans[]</text><ellipse cx="33.5" cy="578.4141" fill="#84BE84" rx="3" ry="3" style="stroke: #038048; stroke-width: 1.0;"/><text fill="#000000" font-family="sans-serif" font-size="11" lengthAdjust="spacingAndGlyphs" textLength="300" x="42.5" y="581.6245">findByDateToByUser(Date to, String cardId) : Loans[]</text><ellipse cx="33.5" cy="591.2188" fill="#84BE84" rx="3" ry="3" style="stroke: #038048; stroke-width: 1.0;"/><text fill="#000000" font-family="sans-serif" font-size="11" lengthAdjust="spacingAndGlyphs" textLength="331" x="42.5" y="594.4292">create(Date from, Date to, String cardId, int itemId) : Loan</text><!--MD5=[d31719c66243472fdbf6452c22c414e1]
class PostgresLoanDAO--><rect fill="#FEFECE" filter="url(#f1d8a8896x4vlf)" height="73.6094" id="PostgresLoanDAO" style="stroke: #A80036; stroke-width: 1.5;" width="268" x="96" y="729"/><ellipse cx="169.75" cy="745" fill="#ADD1B2" rx="11" ry="11" style="stroke: #A80036; stroke-width: 1.0;"/><path d="M172.7188,750.6406 Q172.1406,750.9375 171.5,751.0859 Q170.8594,751.2344 170.1563,751.2344 Q167.6563,751.2344 166.3359,749.5859 Q165.0156,747.9375 165.0156,744.8125 Q165.0156,741.6875 166.3359,740.0313 Q167.6563,738.375 170.1563,738.375 Q170.8594,738.375 171.5078,738.5313 Q172.1563,738.6875 172.7188,738.9844 L172.7188,741.7031 Q172.0938,741.125 171.5,740.8516 Q170.9063,740.5781 170.2813,740.5781 Q168.9375,740.5781 168.25,741.6484 Q167.5625,742.7188 167.5625,744.8125 Q167.5625,746.9063 168.25,747.9766 Q168.9375,749.0469 170.2813,749.0469 Q170.9063,749.0469 171.5,748.7734 Q172.0938,748.5 172.7188,747.9219 L172.7188,750.6406 Z "/><text fill="#000000" font-family="sans-serif" font-size="12" lengthAdjust="spacingAndGlyphs" textLength="112" x="190.25" y="749.1543">PostgresLoanDAO</text><line style="stroke: #A80036; stroke-width: 1.5;" x1="97" x2="363" y1="761" y2="761"/><rect fill="none" height="6" style="stroke: #C82930; stroke-width: 1.0;" width="6" x="104" y="769"/><text fill="#000000" font-family="sans-serif" font-size="11" lengthAdjust="spacingAndGlyphs" textLength="132" x="116" y="775.2104">connection: Connection</text><line style="stroke: #A80036; stroke-width: 1.5;" x1="97" x2="363" y1="781.8047" y2="781.8047"/><ellipse cx="107" cy="792.8047" fill="#84BE84" rx="3" ry="3" style="stroke: #038048; stroke-width: 1.0;"/><text fill="#000000" font-family="sans-serif" font-size="11" lengthAdjust="spacingAndGlyphs" textLength="242" x="116" y="796.0151">PostgresLoanDAO(Connection: connection)</text><!--MD5=[700a5a1f58ccb71a3c0d036256714175]
class PostgresDAOFactory--><rect fill="#FEFECE" filter="url(#f1d8a8896x4vlf)" height="60.8047" id="PostgresDAOFactory" style="stroke: #A80036; stroke-width: 1.5;" width="160" x="449" y="735.5"/><ellipse cx="464" cy="751.5" fill="#ADD1B2" rx="11" ry="11" style="stroke: #A80036; stroke-width: 1.0;"/><path d="M466.9688,757.1406 Q466.3906,757.4375 465.75,757.5859 Q465.1094,757.7344 464.4063,757.7344 Q461.9063,757.7344 460.5859,756.0859 Q459.2656,754.4375 459.2656,751.3125 Q459.2656,748.1875 460.5859,746.5313 Q461.9063,744.875 464.4063,744.875 Q465.1094,744.875 465.7578,745.0313 Q466.4063,745.1875 466.9688,745.4844 L466.9688,748.2031 Q466.3438,747.625 465.75,747.3516 Q465.1563,747.0781 464.5313,747.0781 Q463.1875,747.0781 462.5,748.1484 Q461.8125,749.2188 461.8125,751.3125 Q461.8125,753.4063 462.5,754.4766 Q463.1875,755.5469 464.5313,755.5469 Q465.1563,755.5469 465.75,755.2734 Q466.3438,755 466.9688,754.4219 L466.9688,757.1406 Z "/><text fill="#000000" font-family="sans-serif" font-size="12" lengthAdjust="spacingAndGlyphs" textLength="128" x="478" y="755.6543">PostgresDAOFactory</text><line style="stroke: #A80036; stroke-width: 1.5;" x1="450" x2="608" y1="767.5" y2="767.5"/><rect fill="none" height="6" style="stroke: #C82930; stroke-width: 1.0;" width="6" x="457" y="775.5"/><text fill="#000000" font-family="sans-serif" font-size="11" lengthAdjust="spacingAndGlyphs" textLength="132" x="469" y="781.7104">connection: Connection</text><line style="stroke: #A80036; stroke-width: 1.5;" x1="450" x2="608" y1="788.3047" y2="788.3047"/><!--MD5=[2c9099205f7e842031a96f7a3674ceb2]
reverse link LoanDAO to PostgresLoanDAO--><path d="M210.9908,621.137 C215.7642,657.5137 221.2617,699.4079 225.1128,728.7559 " fill="none" id="LoanDAO&lt;-PostgresLoanDAO" style="stroke: #A80036; stroke-width: 1.0; stroke-dasharray: 7.0,7.0;"/><polygon fill="none" points="204.0171,621.7941,208.3554,601.0533,217.8981,619.9726,204.0171,621.7941" style="stroke: #A80036; stroke-width: 1.0;"/><!--MD5=[d37a47b44041b5251d0f0ec75d3c62d9]
reverse link DAOFactory to PostgresDAOFactory--><path d="M545.9371,595.8589 C541.6547,638.8776 535.6582,699.1154 532.0684,735.1764 " fill="none" id="DAOFactory&lt;-PostgresDAOFactory" style="stroke: #A80036; stroke-width: 1.0;"/><polygon fill="none" points="538.9942,594.9373,547.941,575.7291,552.9253,596.3242,538.9942,594.9373" style="stroke: #A80036; stroke-width: 1.0;"/><!--MD5=[fae3b9d4cd7046345d15a3dfb0fd8d24]
reverse link PostgresLoanDAO to PostgresDAOFactory--><path d="M369.2772,766 C396.5321,766 424.2421,766 448.7614,766 " fill="none" id="PostgresLoanDAO&lt;-PostgresDAOFactory" style="stroke: #A80036; stroke-width: 1.0; stroke-dasharray: 7.0,7.0;"/><polygon fill="#A80036" points="364.1943,766,373.1943,770,369.1943,766,373.1943,762,364.1943,766" style="stroke: #A80036; stroke-width: 1.0;"/><text fill="#000000" font-family="sans-serif" font-size="13" lengthAdjust="spacingAndGlyphs" textLength="48" x="382.5" y="759.0669">creates</text><!--MD5=[2a5350986dd0572f19176e47429dd0b5]
reverse link LoanDAO to DAOFactory--><path d="M384.757,545 C414.5211,545 443.9466,545 469.5779,545 " fill="none" id="LoanDAO&lt;-DAOFactory" style="stroke: #A80036; stroke-width: 1.0; stroke-dasharray: 7.0,7.0;"/><polygon fill="#A80036" points="379.5886,545,388.5886,549,384.5886,545,388.5886,541,379.5886,545" style="stroke: #A80036; stroke-width: 1.0;"/><text fill="#000000" font-family="sans-serif" font-size="13" lengthAdjust="spacingAndGlyphs" textLength="54" x="397.75" y="538.0669">provides</text><!--MD5=[caa04ddd59d0ea036a80a34981a0877c]
link LoanFacade to DAOFactory--><path d="M551,423.3203 C551,451.4666 551,484.6767 551,509.285 " fill="none" id="LoanFacade-&gt;DAOFactory" style="stroke: #A80036; stroke-width: 1.0;"/><polygon fill="#A80036" points="551,514.4007,555,505.4007,551,509.4007,547,505.4007,551,514.4007" style="stroke: #A80036; stroke-width: 1.0;"/><!--MD5=[67e3b39a7ee0e9beb2644124fe05f02c]
link LoanController to LoanFacade--><path d="M551,245.0605 C551,265.7065 551,286.8341 551,305.5784 " fill="none" id="LoanController-&gt;LoanFacade" style="stroke: #A80036; stroke-width: 1.0;"/><polygon fill="#A80036" points="551,310.7997,555,301.7997,551,305.7997,547,301.7997,551,310.7997" style="stroke: #A80036; stroke-width: 1.0;"/><!--MD5=[2317d4fba57ebdb06ad0deac2a92914f]
@startuml
package controller {

  class LoanController {
    -itemIdField: TextField
    -cardIdField: TextField
    -dateFromPicker: DatePicker
    -dateToPicker: DatePicker
    -LoanItemButton: Button
    -analysisButton: Button
    -findLoansButton: Button
    +create() : void
    +findAllLoansForClient() : void
    +findLoansByDateForAnalysis() : void
    +findLoansByDateForClient() : void
    +displayLoan() : void
  }
}

package loan {

  class LoanFacade {
    +createLoan(Date from, Date to, String cardId, int itemId)
    +findAll(String cardId)
    +findByDateFrom(Date from) 
    +findByDateTo(Date to) 
    +findByDateToByUser(Date to, String cardId) 
  }
}

package dao {

  abstract class DAOFactory {
    +getLoanDAO(): LoanDAO
  }

  interface LoanDAO {
    +findByCardId(String cardId): Loans[]
    +findByDateFrom(Date from) : Loans[]
    +findByDateTo(Date to) : Loans[]
    +findByDateToByUser(Date to, String cardId) : Loans[]
    +create(Date from, Date to, String cardId, int itemId) : Loan
  }

  package postgres {

    class PostgresLoanDAO implements LoanDAO {
      -connection: Connection
      +PostgresLoanDAO(Connection: connection)
    }

    class PostgresDAOFactory extends DAOFactory {
      -connection: Connection
    }
  }

}

PostgresDAOFactory .left> PostgresLoanDAO : "creates"
DAOFactory .left> LoanDAO : "provides"
LoanFacade -down-> DAOFactory
LoanController -down-> LoanFacade
@enduml

PlantUML version 1.2019.12(Sun Nov 03 10:24:54 UTC 2019)
(GPL source distribution)
Java Runtime: OpenJDK Runtime Environment
JVM: OpenJDK 64-Bit Server VM
Java Version: 1.8.0_232-heroku-b09
Operating System: Linux
Default Encoding: UTF-8
Language: en
Country: US
--></g></svg>