<?xml version="1.0" encoding="UTF-8" standalone="no"?><svg xmlns="http://www.w3.org/2000/svg" xmlns:xlink="http://www.w3.org/1999/xlink" contentScriptType="application/ecmascript" contentStyleType="text/css" height="1799px" preserveAspectRatio="none" style="width:782px;height:1799px;" version="1.1" viewBox="0 0 782 1799" width="782px" zoomAndPan="magnify"><defs><filter height="300%" id="f12ect88pzi3zx" width="300%" x="-1" y="-1"><feGaussianBlur result="blurOut" stdDeviation="2.0"/><feColorMatrix in="blurOut" result="blurOut2" type="matrix" values="0 0 0 0 0 0 0 0 0 0 0 0 0 0 0 0 0 0 .4 0"/><feOffset dx="4.0" dy="4.0" in="blurOut2" result="blurOut3"/><feBlend in="SourceGraphic" in2="blurOut3" mode="normal"/></filter></defs><g><rect fill="#FFFFFF" filter="url(#f12ect88pzi3zx)" height="116.5313" style="stroke: #A80036; stroke-width: 1.0;" width="10" x="729" y="156.8281"/><rect fill="#FFFFFF" filter="url(#f12ect88pzi3zx)" height="116.5313" style="stroke: #A80036; stroke-width: 1.0;" width="10" x="729" y="669.8438"/><rect fill="#FFFFFF" filter="url(#f12ect88pzi3zx)" height="116.5313" style="stroke: #A80036; stroke-width: 1.0;" width="10" x="729" y="1051.0469"/><rect fill="#FFFFFF" filter="url(#f12ect88pzi3zx)" height="116.5313" style="stroke: #A80036; stroke-width: 1.0;" width="10" x="729" y="1432.25"/><rect fill="#FFFFFF" filter="url(#f12ect88pzi3zx)" height="265.9531" style="stroke: #000000; stroke-width: 2.0;" width="376.5" x="161" y="288.3594"/><rect fill="#FFFFFF" height="43.9375" style="stroke: none; stroke-width: 1.0;" width="376.5" x="161" y="334.625"/><rect fill="#FFFFFF" height="43.9375" style="stroke: none; stroke-width: 1.0;" width="376.5" x="161" y="378.5625"/><rect fill="#FFFFFF" height="43.9375" style="stroke: none; stroke-width: 1.0;" width="376.5" x="161" y="422.5"/><rect fill="#FFFFFF" height="43.9375" style="stroke: none; stroke-width: 1.0;" width="376.5" x="161" y="466.4375"/><rect fill="#FFFFFF" height="43.9375" style="stroke: none; stroke-width: 1.0;" width="376.5" x="161" y="510.375"/><rect fill="#FFFFFF" filter="url(#f12ect88pzi3zx)" height="134.1406" style="stroke: #000000; stroke-width: 2.0;" width="376.5" x="161" y="801.375"/><rect fill="#FFFFFF" height="43.9375" style="stroke: none; stroke-width: 1.0;" width="376.5" x="161" y="847.6406"/><rect fill="#FFFFFF" height="43.9375" style="stroke: none; stroke-width: 1.0;" width="376.5" x="161" y="891.5781"/><rect fill="#FFFFFF" filter="url(#f12ect88pzi3zx)" height="134.1406" style="stroke: #000000; stroke-width: 2.0;" width="376.5" x="161" y="1182.5781"/><rect fill="#FFFFFF" height="43.9375" style="stroke: none; stroke-width: 1.0;" width="376.5" x="161" y="1228.8438"/><rect fill="#FFFFFF" height="43.9375" style="stroke: none; stroke-width: 1.0;" width="376.5" x="161" y="1272.7813"/><rect fill="#FFFFFF" filter="url(#f12ect88pzi3zx)" height="178.0781" style="stroke: #000000; stroke-width: 2.0;" width="376.5" x="161" y="1563.7813"/><rect fill="#FFFFFF" height="43.9375" style="stroke: none; stroke-width: 1.0;" width="376.5" x="161" y="1610.0469"/><rect fill="#FFFFFF" height="43.9375" style="stroke: none; stroke-width: 1.0;" width="376.5" x="161" y="1653.9844"/><rect fill="#FFFFFF" height="43.9375" style="stroke: none; stroke-width: 1.0;" width="376.5" x="161" y="1697.9219"/><line style="stroke: #A80036; stroke-width: 1.0; stroke-dasharray: 5.0,5.0;" x1="230" x2="230" y1="38.2969" y2="1758.8594"/><line style="stroke: #A80036; stroke-width: 1.0; stroke-dasharray: 5.0,5.0;" x1="476.5" x2="476.5" y1="38.2969" y2="1758.8594"/><line style="stroke: #A80036; stroke-width: 1.0; stroke-dasharray: 5.0,5.0;" x1="604.5" x2="604.5" y1="38.2969" y2="1758.8594"/><line style="stroke: #A80036; stroke-width: 1.0; stroke-dasharray: 5.0,5.0;" x1="734" x2="734" y1="38.2969" y2="1758.8594"/><rect fill="#FEFECE" filter="url(#f12ect88pzi3zx)" height="30.2969" style="stroke: #A80036; stroke-width: 1.5;" width="114" x="171" y="3"/><text fill="#000000" font-family="sans-serif" font-size="14" lengthAdjust="spacingAndGlyphs" textLength="100" x="178" y="22.9951">LoanController</text><rect fill="#FEFECE" filter="url(#f12ect88pzi3zx)" height="30.2969" style="stroke: #A80036; stroke-width: 1.5;" width="114" x="171" y="1757.8594"/><text fill="#000000" font-family="sans-serif" font-size="14" lengthAdjust="spacingAndGlyphs" textLength="100" x="178" y="1777.8545">LoanController</text><rect fill="#FEFECE" filter="url(#f12ect88pzi3zx)" height="30.2969" style="stroke: #A80036; stroke-width: 1.5;" width="97" x="426.5" y="3"/><text fill="#000000" font-family="sans-serif" font-size="14" lengthAdjust="spacingAndGlyphs" textLength="83" x="433.5" y="22.9951">LoanFacade</text><rect fill="#FEFECE" filter="url(#f12ect88pzi3zx)" height="30.2969" style="stroke: #A80036; stroke-width: 1.5;" width="97" x="426.5" y="1757.8594"/><text fill="#000000" font-family="sans-serif" font-size="14" lengthAdjust="spacingAndGlyphs" textLength="83" x="433.5" y="1777.8545">LoanFacade</text><rect fill="#FEFECE" filter="url(#f12ect88pzi3zx)" height="30.2969" style="stroke: #A80036; stroke-width: 1.5;" width="95" x="555.5" y="3"/><text fill="#000000" font-family="sans-serif" font-size="14" lengthAdjust="spacingAndGlyphs" textLength="81" x="562.5" y="22.9951">DAOFactory</text><rect fill="#FEFECE" filter="url(#f12ect88pzi3zx)" height="30.2969" style="stroke: #A80036; stroke-width: 1.5;" width="95" x="555.5" y="1757.8594"/><text fill="#000000" font-family="sans-serif" font-size="14" lengthAdjust="spacingAndGlyphs" textLength="81" x="562.5" y="1777.8545">DAOFactory</text><rect fill="#FEFECE" filter="url(#f12ect88pzi3zx)" height="30.2969" style="stroke: #A80036; stroke-width: 1.5;" width="78" x="693" y="3"/><text fill="#000000" font-family="sans-serif" font-size="14" lengthAdjust="spacingAndGlyphs" textLength="64" x="700" y="22.9951">LoanDAO</text><rect fill="#FEFECE" filter="url(#f12ect88pzi3zx)" height="30.2969" style="stroke: #A80036; stroke-width: 1.5;" width="78" x="693" y="1757.8594"/><text fill="#000000" font-family="sans-serif" font-size="14" lengthAdjust="spacingAndGlyphs" textLength="64" x="700" y="1777.8545">LoanDAO</text><rect fill="#FFFFFF" filter="url(#f12ect88pzi3zx)" height="116.5313" style="stroke: #A80036; stroke-width: 1.0;" width="10" x="729" y="156.8281"/><rect fill="#FFFFFF" filter="url(#f12ect88pzi3zx)" height="116.5313" style="stroke: #A80036; stroke-width: 1.0;" width="10" x="729" y="669.8438"/><rect fill="#FFFFFF" filter="url(#f12ect88pzi3zx)" height="116.5313" style="stroke: #A80036; stroke-width: 1.0;" width="10" x="729" y="1051.0469"/><rect fill="#FFFFFF" filter="url(#f12ect88pzi3zx)" height="116.5313" style="stroke: #A80036; stroke-width: 1.0;" width="10" x="729" y="1432.25"/><polygon fill="#A80036" points="218,65.4297,228,69.4297,218,73.4297,222,69.4297" style="stroke: #A80036; stroke-width: 1.0;"/><line style="stroke: #A80036; stroke-width: 1.0; stroke-dasharray: 2.0,2.0;" x1="3" x2="224" y1="69.4297" y2="69.4297"/><text fill="#000000" font-family="sans-serif" font-size="13" font-weight="bold" lengthAdjust="spacingAndGlyphs" textLength="9" x="10" y="64.3638">1</text><text fill="#000000" font-family="sans-serif" font-size="13" lengthAdjust="spacingAndGlyphs" textLength="51" x="23" y="64.3638">create()</text><polygon fill="#A80036" points="465,94.5625,475,98.5625,465,102.5625,469,98.5625" style="stroke: #A80036; stroke-width: 1.0;"/><line style="stroke: #A80036; stroke-width: 1.0;" x1="230" x2="471" y1="98.5625" y2="98.5625"/><text fill="#000000" font-family="sans-serif" font-size="13" font-weight="bold" lengthAdjust="spacingAndGlyphs" textLength="9" x="237" y="93.4966">2</text><text fill="#000000" font-family="sans-serif" font-size="13" lengthAdjust="spacingAndGlyphs" textLength="210" x="250" y="93.4966">createLoan(Date,Date,String,int)</text><polygon fill="#A80036" points="593,123.6953,603,127.6953,593,131.6953,597,127.6953" style="stroke: #A80036; stroke-width: 1.0;"/><line style="stroke: #A80036; stroke-width: 1.0;" x1="477" x2="599" y1="127.6953" y2="127.6953"/><text fill="#000000" font-family="sans-serif" font-size="13" font-weight="bold" lengthAdjust="spacingAndGlyphs" textLength="9" x="484" y="122.6294">3</text><text fill="#000000" font-family="sans-serif" font-size="13" lengthAdjust="spacingAndGlyphs" textLength="91" x="497" y="122.6294">getLoanDAO()</text><polygon fill="#A80036" points="717,152.8281,727,156.8281,717,160.8281,721,156.8281" style="stroke: #A80036; stroke-width: 1.0;"/><line style="stroke: #A80036; stroke-width: 1.0;" x1="605" x2="723" y1="156.8281" y2="156.8281"/><text fill="#000000" font-family="sans-serif" font-size="13" font-weight="bold" lengthAdjust="spacingAndGlyphs" textLength="9" x="612" y="151.7622">4</text><text fill="#000000" font-family="sans-serif" font-size="13" lengthAdjust="spacingAndGlyphs" textLength="92" x="625" y="151.7622">&lt;&lt;creates&gt;&gt;</text><polygon fill="#A80036" points="616,181.9609,606,185.9609,616,189.9609,612,185.9609" style="stroke: #A80036; stroke-width: 1.0;"/><line style="stroke: #A80036; stroke-width: 1.0;" x1="610" x2="728" y1="185.9609" y2="185.9609"/><text fill="#000000" font-family="sans-serif" font-size="13" font-weight="bold" lengthAdjust="spacingAndGlyphs" textLength="9" x="622" y="180.895">5</text><text fill="#000000" font-family="sans-serif" font-size="13" lengthAdjust="spacingAndGlyphs" textLength="0" x="639" y="180.895"/><polygon fill="#A80036" points="488,211.0938,478,215.0938,488,219.0938,484,215.0938" style="stroke: #A80036; stroke-width: 1.0;"/><line style="stroke: #A80036; stroke-width: 1.0;" x1="482" x2="604" y1="215.0938" y2="215.0938"/><text fill="#000000" font-family="sans-serif" font-size="13" font-weight="bold" lengthAdjust="spacingAndGlyphs" textLength="9" x="494" y="210.0278">6</text><text fill="#000000" font-family="sans-serif" font-size="13" lengthAdjust="spacingAndGlyphs" textLength="60" x="507" y="210.0278">LoanDAO</text><polygon fill="#A80036" points="717,240.2266,727,244.2266,717,248.2266,721,244.2266" style="stroke: #A80036; stroke-width: 1.0;"/><line style="stroke: #A80036; stroke-width: 1.0;" x1="477" x2="723" y1="244.2266" y2="244.2266"/><text fill="#000000" font-family="sans-serif" font-size="13" font-weight="bold" lengthAdjust="spacingAndGlyphs" textLength="9" x="484" y="239.1606">7</text><text fill="#000000" font-family="sans-serif" font-size="13" lengthAdjust="spacingAndGlyphs" textLength="179" x="497" y="239.1606">create(Date,Date,String,int)</text><polygon fill="#A80036" points="488,269.3594,478,273.3594,488,277.3594,484,273.3594" style="stroke: #A80036; stroke-width: 1.0;"/><line style="stroke: #A80036; stroke-width: 1.0;" x1="482" x2="733" y1="273.3594" y2="273.3594"/><text fill="#000000" font-family="sans-serif" font-size="13" font-weight="bold" lengthAdjust="spacingAndGlyphs" textLength="9" x="494" y="268.2935">8</text><text fill="#000000" font-family="sans-serif" font-size="13" lengthAdjust="spacingAndGlyphs" textLength="27" x="507" y="268.2935">loan</text><path d="M161,288.3594 L225,288.3594 L225,295.3594 L215,305.3594 L161,305.3594 L161,288.3594 " fill="#EEEEEE" style="stroke: #000000; stroke-width: 1.0;"/><rect fill="none" height="265.9531" style="stroke: #000000; stroke-width: 2.0;" width="376.5" x="161" y="288.3594"/><text fill="#000000" font-family="sans-serif" font-size="13" font-weight="bold" lengthAdjust="spacingAndGlyphs" textLength="19" x="176" y="301.4263">alt</text><text fill="#000000" font-family="sans-serif" font-size="11" font-weight="bold" lengthAdjust="spacingAndGlyphs" textLength="113" x="240" y="300.5698">[loan was create]</text><polygon fill="#A80036" points="241,322.625,231,326.625,241,330.625,237,326.625" style="stroke: #A80036; stroke-width: 1.0;"/><line style="stroke: #A80036; stroke-width: 1.0;" x1="235" x2="476" y1="326.625" y2="326.625"/><text fill="#000000" font-family="sans-serif" font-size="13" font-weight="bold" lengthAdjust="spacingAndGlyphs" textLength="9" x="247" y="321.5591">9</text><text fill="#000000" font-family="sans-serif" font-size="13" lengthAdjust="spacingAndGlyphs" textLength="85" x="260" y="321.5591">displayLoan()</text><line style="stroke: #000000; stroke-width: 1.0; stroke-dasharray: 2.0,2.0;" x1="161" x2="537.5" y1="335.625" y2="335.625"/><text fill="#000000" font-family="sans-serif" font-size="11" font-weight="bold" lengthAdjust="spacingAndGlyphs" textLength="141" x="166" y="345.8354">[client does not exist]</text><polygon fill="#A80036" points="241,366.5625,231,370.5625,241,374.5625,237,370.5625" style="stroke: #A80036; stroke-width: 1.0;"/><line style="stroke: #A80036; stroke-width: 1.0;" x1="235" x2="476" y1="370.5625" y2="370.5625"/><text fill="#000000" font-family="sans-serif" font-size="13" font-weight="bold" lengthAdjust="spacingAndGlyphs" textLength="18" x="247" y="365.4966">10</text><text fill="#000000" font-family="sans-serif" font-size="13" lengthAdjust="spacingAndGlyphs" textLength="134" x="269" y="365.4966">client not found error</text><line style="stroke: #000000; stroke-width: 1.0; stroke-dasharray: 2.0,2.0;" x1="161" x2="537.5" y1="379.5625" y2="379.5625"/><text fill="#000000" font-family="sans-serif" font-size="11" font-weight="bold" lengthAdjust="spacingAndGlyphs" textLength="133" x="166" y="389.7729">[item does not exist]</text><polygon fill="#A80036" points="241,410.5,231,414.5,241,418.5,237,414.5" style="stroke: #A80036; stroke-width: 1.0;"/><line style="stroke: #A80036; stroke-width: 1.0;" x1="235" x2="476" y1="414.5" y2="414.5"/><text fill="#000000" font-family="sans-serif" font-size="13" font-weight="bold" lengthAdjust="spacingAndGlyphs" textLength="18" x="247" y="409.4341">11</text><text fill="#000000" font-family="sans-serif" font-size="13" lengthAdjust="spacingAndGlyphs" textLength="129" x="269" y="409.4341">item not found error</text><line style="stroke: #000000; stroke-width: 1.0; stroke-dasharray: 2.0,2.0;" x1="161" x2="537.5" y1="423.5" y2="423.5"/><text fill="#000000" font-family="sans-serif" font-size="11" font-weight="bold" lengthAdjust="spacingAndGlyphs" textLength="90" x="166" y="433.7104">[item on loan]</text><polygon fill="#A80036" points="241,454.4375,231,458.4375,241,462.4375,237,458.4375" style="stroke: #A80036; stroke-width: 1.0;"/><line style="stroke: #A80036; stroke-width: 1.0;" x1="235" x2="476" y1="458.4375" y2="458.4375"/><text fill="#000000" font-family="sans-serif" font-size="13" font-weight="bold" lengthAdjust="spacingAndGlyphs" textLength="18" x="247" y="453.3716">12</text><text fill="#000000" font-family="sans-serif" font-size="13" lengthAdjust="spacingAndGlyphs" textLength="166" x="269" y="453.3716">item already on loan error</text><line style="stroke: #000000; stroke-width: 1.0; stroke-dasharray: 2.0,2.0;" x1="161" x2="537.5" y1="467.4375" y2="467.4375"/><text fill="#000000" font-family="sans-serif" font-size="11" font-weight="bold" lengthAdjust="spacingAndGlyphs" textLength="290" x="166" y="477.6479">[non-valid Subscription or Client not eligible]</text><polygon fill="#A80036" points="241,498.375,231,502.375,241,506.375,237,502.375" style="stroke: #A80036; stroke-width: 1.0;"/><line style="stroke: #A80036; stroke-width: 1.0;" x1="235" x2="476" y1="502.375" y2="502.375"/><text fill="#000000" font-family="sans-serif" font-size="13" font-weight="bold" lengthAdjust="spacingAndGlyphs" textLength="18" x="247" y="497.3091">13</text><text fill="#000000" font-family="sans-serif" font-size="13" lengthAdjust="spacingAndGlyphs" textLength="142" x="269" y="497.3091">client not eligible error</text><line style="stroke: #000000; stroke-width: 1.0; stroke-dasharray: 2.0,2.0;" x1="161" x2="537.5" y1="511.375" y2="511.375"/><text fill="#000000" font-family="sans-serif" font-size="11" font-weight="bold" lengthAdjust="spacingAndGlyphs" textLength="106" x="166" y="521.5854">[any other error]</text><polygon fill="#A80036" points="241,542.3125,231,546.3125,241,550.3125,237,546.3125" style="stroke: #A80036; stroke-width: 1.0;"/><line style="stroke: #A80036; stroke-width: 1.0;" x1="235" x2="476" y1="546.3125" y2="546.3125"/><text fill="#000000" font-family="sans-serif" font-size="13" font-weight="bold" lengthAdjust="spacingAndGlyphs" textLength="18" x="247" y="541.2466">14</text><text fill="#000000" font-family="sans-serif" font-size="13" lengthAdjust="spacingAndGlyphs" textLength="83" x="269" y="541.2466">internal error</text><polygon fill="#A80036" points="218,578.4453,228,582.4453,218,586.4453,222,582.4453" style="stroke: #A80036; stroke-width: 1.0;"/><line style="stroke: #A80036; stroke-width: 1.0; stroke-dasharray: 2.0,2.0;" x1="3" x2="224" y1="582.4453" y2="582.4453"/><text fill="#000000" font-family="sans-serif" font-size="13" font-weight="bold" lengthAdjust="spacingAndGlyphs" textLength="9" x="10" y="577.3794">1</text><text fill="#000000" font-family="sans-serif" font-size="13" lengthAdjust="spacingAndGlyphs" textLength="142" x="23" y="577.3794">findAllLoansForClient()</text><polygon fill="#A80036" points="465,607.5781,475,611.5781,465,615.5781,469,611.5781" style="stroke: #A80036; stroke-width: 1.0;"/><line style="stroke: #A80036; stroke-width: 1.0;" x1="230" x2="471" y1="611.5781" y2="611.5781"/><text fill="#000000" font-family="sans-serif" font-size="13" font-weight="bold" lengthAdjust="spacingAndGlyphs" textLength="9" x="237" y="606.5122">2</text><text fill="#000000" font-family="sans-serif" font-size="13" lengthAdjust="spacingAndGlyphs" textLength="86" x="250" y="606.5122">findAll(String)</text><polygon fill="#A80036" points="593,636.7109,603,640.7109,593,644.7109,597,640.7109" style="stroke: #A80036; stroke-width: 1.0;"/><line style="stroke: #A80036; stroke-width: 1.0;" x1="477" x2="599" y1="640.7109" y2="640.7109"/><text fill="#000000" font-family="sans-serif" font-size="13" font-weight="bold" lengthAdjust="spacingAndGlyphs" textLength="9" x="484" y="635.645">3</text><text fill="#000000" font-family="sans-serif" font-size="13" lengthAdjust="spacingAndGlyphs" textLength="91" x="497" y="635.645">getLoanDAO()</text><polygon fill="#A80036" points="717,665.8438,727,669.8438,717,673.8438,721,669.8438" style="stroke: #A80036; stroke-width: 1.0;"/><line style="stroke: #A80036; stroke-width: 1.0;" x1="605" x2="723" y1="669.8438" y2="669.8438"/><text fill="#000000" font-family="sans-serif" font-size="13" font-weight="bold" lengthAdjust="spacingAndGlyphs" textLength="9" x="612" y="664.7778">4</text><text fill="#000000" font-family="sans-serif" font-size="13" lengthAdjust="spacingAndGlyphs" textLength="92" x="625" y="664.7778">&lt;&lt;creates&gt;&gt;</text><polygon fill="#A80036" points="616,694.9766,606,698.9766,616,702.9766,612,698.9766" style="stroke: #A80036; stroke-width: 1.0;"/><line style="stroke: #A80036; stroke-width: 1.0;" x1="610" x2="728" y1="698.9766" y2="698.9766"/><text fill="#000000" font-family="sans-serif" font-size="13" font-weight="bold" lengthAdjust="spacingAndGlyphs" textLength="9" x="622" y="693.9106">5</text><text fill="#000000" font-family="sans-serif" font-size="13" lengthAdjust="spacingAndGlyphs" textLength="0" x="639" y="693.9106"/><polygon fill="#A80036" points="488,724.1094,478,728.1094,488,732.1094,484,728.1094" style="stroke: #A80036; stroke-width: 1.0;"/><line style="stroke: #A80036; stroke-width: 1.0;" x1="482" x2="604" y1="728.1094" y2="728.1094"/><text fill="#000000" font-family="sans-serif" font-size="13" font-weight="bold" lengthAdjust="spacingAndGlyphs" textLength="9" x="494" y="723.0435">6</text><text fill="#000000" font-family="sans-serif" font-size="13" lengthAdjust="spacingAndGlyphs" textLength="60" x="507" y="723.0435">LoanDAO</text><polygon fill="#A80036" points="717,753.2422,727,757.2422,717,761.2422,721,757.2422" style="stroke: #A80036; stroke-width: 1.0;"/><line style="stroke: #A80036; stroke-width: 1.0;" x1="477" x2="723" y1="757.2422" y2="757.2422"/><text fill="#000000" font-family="sans-serif" font-size="13" font-weight="bold" lengthAdjust="spacingAndGlyphs" textLength="9" x="484" y="752.1763">7</text><text fill="#000000" font-family="sans-serif" font-size="13" lengthAdjust="spacingAndGlyphs" textLength="128" x="497" y="752.1763">findByCardId(String)</text><polygon fill="#A80036" points="488,782.375,478,786.375,488,790.375,484,786.375" style="stroke: #A80036; stroke-width: 1.0;"/><line style="stroke: #A80036; stroke-width: 1.0;" x1="482" x2="733" y1="786.375" y2="786.375"/><text fill="#000000" font-family="sans-serif" font-size="13" font-weight="bold" lengthAdjust="spacingAndGlyphs" textLength="9" x="494" y="781.3091">8</text><text fill="#000000" font-family="sans-serif" font-size="13" lengthAdjust="spacingAndGlyphs" textLength="44" x="507" y="781.3091">loans[]</text><path d="M161,801.375 L225,801.375 L225,808.375 L215,818.375 L161,818.375 L161,801.375 " fill="#EEEEEE" style="stroke: #000000; stroke-width: 1.0;"/><rect fill="none" height="134.1406" style="stroke: #000000; stroke-width: 2.0;" width="376.5" x="161" y="801.375"/><text fill="#000000" font-family="sans-serif" font-size="13" font-weight="bold" lengthAdjust="spacingAndGlyphs" textLength="19" x="176" y="814.4419">alt</text><text fill="#000000" font-family="sans-serif" font-size="11" font-weight="bold" lengthAdjust="spacingAndGlyphs" textLength="104" x="240" y="813.5854">[loans was find]</text><polygon fill="#A80036" points="241,835.6406,231,839.6406,241,843.6406,237,839.6406" style="stroke: #A80036; stroke-width: 1.0;"/><line style="stroke: #A80036; stroke-width: 1.0;" x1="235" x2="476" y1="839.6406" y2="839.6406"/><text fill="#000000" font-family="sans-serif" font-size="13" font-weight="bold" lengthAdjust="spacingAndGlyphs" textLength="9" x="247" y="834.5747">9</text><text fill="#000000" font-family="sans-serif" font-size="13" lengthAdjust="spacingAndGlyphs" textLength="85" x="260" y="834.5747">displayLoan()</text><line style="stroke: #000000; stroke-width: 1.0; stroke-dasharray: 2.0,2.0;" x1="161" x2="537.5" y1="848.6406" y2="848.6406"/><text fill="#000000" font-family="sans-serif" font-size="11" font-weight="bold" lengthAdjust="spacingAndGlyphs" textLength="141" x="166" y="858.8511">[client does not exist]</text><polygon fill="#A80036" points="241,879.5781,231,883.5781,241,887.5781,237,883.5781" style="stroke: #A80036; stroke-width: 1.0;"/><line style="stroke: #A80036; stroke-width: 1.0;" x1="235" x2="476" y1="883.5781" y2="883.5781"/><text fill="#000000" font-family="sans-serif" font-size="13" font-weight="bold" lengthAdjust="spacingAndGlyphs" textLength="18" x="247" y="878.5122">10</text><text fill="#000000" font-family="sans-serif" font-size="13" lengthAdjust="spacingAndGlyphs" textLength="134" x="269" y="878.5122">client not found error</text><line style="stroke: #000000; stroke-width: 1.0; stroke-dasharray: 2.0,2.0;" x1="161" x2="537.5" y1="892.5781" y2="892.5781"/><text fill="#000000" font-family="sans-serif" font-size="11" font-weight="bold" lengthAdjust="spacingAndGlyphs" textLength="106" x="166" y="902.7886">[any other error]</text><polygon fill="#A80036" points="241,923.5156,231,927.5156,241,931.5156,237,927.5156" style="stroke: #A80036; stroke-width: 1.0;"/><line style="stroke: #A80036; stroke-width: 1.0;" x1="235" x2="476" y1="927.5156" y2="927.5156"/><text fill="#000000" font-family="sans-serif" font-size="13" font-weight="bold" lengthAdjust="spacingAndGlyphs" textLength="18" x="247" y="922.4497">11</text><text fill="#000000" font-family="sans-serif" font-size="13" lengthAdjust="spacingAndGlyphs" textLength="83" x="269" y="922.4497">internal error</text><polygon fill="#A80036" points="218,959.6484,228,963.6484,218,967.6484,222,963.6484" style="stroke: #A80036; stroke-width: 1.0;"/><line style="stroke: #A80036; stroke-width: 1.0; stroke-dasharray: 2.0,2.0;" x1="3" x2="224" y1="963.6484" y2="963.6484"/><text fill="#000000" font-family="sans-serif" font-size="13" font-weight="bold" lengthAdjust="spacingAndGlyphs" textLength="9" x="10" y="958.5825">1</text><text fill="#000000" font-family="sans-serif" font-size="13" lengthAdjust="spacingAndGlyphs" textLength="190" x="23" y="958.5825">findLoansByDateForAnalysis()</text><polygon fill="#A80036" points="465,988.7813,475,992.7813,465,996.7813,469,992.7813" style="stroke: #A80036; stroke-width: 1.0;"/><line style="stroke: #A80036; stroke-width: 1.0;" x1="230" x2="471" y1="992.7813" y2="992.7813"/><text fill="#000000" font-family="sans-serif" font-size="13" font-weight="bold" lengthAdjust="spacingAndGlyphs" textLength="9" x="237" y="987.7153">2</text><text fill="#000000" font-family="sans-serif" font-size="13" lengthAdjust="spacingAndGlyphs" textLength="144" x="250" y="987.7153">findByDateFrom(Date)</text><polygon fill="#A80036" points="593,1017.9141,603,1021.9141,593,1025.9141,597,1021.9141" style="stroke: #A80036; stroke-width: 1.0;"/><line style="stroke: #A80036; stroke-width: 1.0;" x1="477" x2="599" y1="1021.9141" y2="1021.9141"/><text fill="#000000" font-family="sans-serif" font-size="13" font-weight="bold" lengthAdjust="spacingAndGlyphs" textLength="9" x="484" y="1016.8481">3</text><text fill="#000000" font-family="sans-serif" font-size="13" lengthAdjust="spacingAndGlyphs" textLength="91" x="497" y="1016.8481">getLoanDAO()</text><polygon fill="#A80036" points="717,1047.0469,727,1051.0469,717,1055.0469,721,1051.0469" style="stroke: #A80036; stroke-width: 1.0;"/><line style="stroke: #A80036; stroke-width: 1.0;" x1="605" x2="723" y1="1051.0469" y2="1051.0469"/><text fill="#000000" font-family="sans-serif" font-size="13" font-weight="bold" lengthAdjust="spacingAndGlyphs" textLength="9" x="612" y="1045.981">4</text><text fill="#000000" font-family="sans-serif" font-size="13" lengthAdjust="spacingAndGlyphs" textLength="92" x="625" y="1045.981">&lt;&lt;creates&gt;&gt;</text><polygon fill="#A80036" points="616,1076.1797,606,1080.1797,616,1084.1797,612,1080.1797" style="stroke: #A80036; stroke-width: 1.0;"/><line style="stroke: #A80036; stroke-width: 1.0;" x1="610" x2="728" y1="1080.1797" y2="1080.1797"/><text fill="#000000" font-family="sans-serif" font-size="13" font-weight="bold" lengthAdjust="spacingAndGlyphs" textLength="9" x="622" y="1075.1138">5</text><text fill="#000000" font-family="sans-serif" font-size="13" lengthAdjust="spacingAndGlyphs" textLength="0" x="639" y="1075.1138"/><polygon fill="#A80036" points="488,1105.3125,478,1109.3125,488,1113.3125,484,1109.3125" style="stroke: #A80036; stroke-width: 1.0;"/><line style="stroke: #A80036; stroke-width: 1.0;" x1="482" x2="604" y1="1109.3125" y2="1109.3125"/><text fill="#000000" font-family="sans-serif" font-size="13" font-weight="bold" lengthAdjust="spacingAndGlyphs" textLength="9" x="494" y="1104.2466">6</text><text fill="#000000" font-family="sans-serif" font-size="13" lengthAdjust="spacingAndGlyphs" textLength="60" x="507" y="1104.2466">LoanDAO</text><polygon fill="#A80036" points="717,1134.4453,727,1138.4453,717,1142.4453,721,1138.4453" style="stroke: #A80036; stroke-width: 1.0;"/><line style="stroke: #A80036; stroke-width: 1.0;" x1="477" x2="723" y1="1138.4453" y2="1138.4453"/><text fill="#000000" font-family="sans-serif" font-size="13" font-weight="bold" lengthAdjust="spacingAndGlyphs" textLength="9" x="484" y="1133.3794">7</text><text fill="#000000" font-family="sans-serif" font-size="13" lengthAdjust="spacingAndGlyphs" textLength="144" x="497" y="1133.3794">findByDateFrom(Date)</text><polygon fill="#A80036" points="488,1163.5781,478,1167.5781,488,1171.5781,484,1167.5781" style="stroke: #A80036; stroke-width: 1.0;"/><line style="stroke: #A80036; stroke-width: 1.0;" x1="482" x2="733" y1="1167.5781" y2="1167.5781"/><text fill="#000000" font-family="sans-serif" font-size="13" font-weight="bold" lengthAdjust="spacingAndGlyphs" textLength="9" x="494" y="1162.5122">8</text><text fill="#000000" font-family="sans-serif" font-size="13" lengthAdjust="spacingAndGlyphs" textLength="44" x="507" y="1162.5122">loans[]</text><path d="M161,1182.5781 L225,1182.5781 L225,1189.5781 L215,1199.5781 L161,1199.5781 L161,1182.5781 " fill="#EEEEEE" style="stroke: #000000; stroke-width: 1.0;"/><rect fill="none" height="134.1406" style="stroke: #000000; stroke-width: 2.0;" width="376.5" x="161" y="1182.5781"/><text fill="#000000" font-family="sans-serif" font-size="13" font-weight="bold" lengthAdjust="spacingAndGlyphs" textLength="19" x="176" y="1195.645">alt</text><text fill="#000000" font-family="sans-serif" font-size="11" font-weight="bold" lengthAdjust="spacingAndGlyphs" textLength="104" x="240" y="1194.7886">[loans was find]</text><polygon fill="#A80036" points="241,1216.8438,231,1220.8438,241,1224.8438,237,1220.8438" style="stroke: #A80036; stroke-width: 1.0;"/><line style="stroke: #A80036; stroke-width: 1.0;" x1="235" x2="476" y1="1220.8438" y2="1220.8438"/><text fill="#000000" font-family="sans-serif" font-size="13" font-weight="bold" lengthAdjust="spacingAndGlyphs" textLength="9" x="247" y="1215.7778">9</text><text fill="#000000" font-family="sans-serif" font-size="13" lengthAdjust="spacingAndGlyphs" textLength="85" x="260" y="1215.7778">displayLoan()</text><line style="stroke: #000000; stroke-width: 1.0; stroke-dasharray: 2.0,2.0;" x1="161" x2="537.5" y1="1229.8438" y2="1229.8438"/><text fill="#000000" font-family="sans-serif" font-size="11" font-weight="bold" lengthAdjust="spacingAndGlyphs" textLength="181" x="166" y="1240.0542">[Date format does not exist]</text><polygon fill="#A80036" points="241,1260.7813,231,1264.7813,241,1268.7813,237,1264.7813" style="stroke: #A80036; stroke-width: 1.0;"/><line style="stroke: #A80036; stroke-width: 1.0;" x1="235" x2="476" y1="1264.7813" y2="1264.7813"/><text fill="#000000" font-family="sans-serif" font-size="13" font-weight="bold" lengthAdjust="spacingAndGlyphs" textLength="18" x="247" y="1259.7153">10</text><text fill="#000000" font-family="sans-serif" font-size="13" lengthAdjust="spacingAndGlyphs" textLength="111" x="269" y="1259.7153">date format error</text><line style="stroke: #000000; stroke-width: 1.0; stroke-dasharray: 2.0,2.0;" x1="161" x2="537.5" y1="1273.7813" y2="1273.7813"/><text fill="#000000" font-family="sans-serif" font-size="11" font-weight="bold" lengthAdjust="spacingAndGlyphs" textLength="106" x="166" y="1283.9917">[any other error]</text><polygon fill="#A80036" points="241,1304.7188,231,1308.7188,241,1312.7188,237,1308.7188" style="stroke: #A80036; stroke-width: 1.0;"/><line style="stroke: #A80036; stroke-width: 1.0;" x1="235" x2="476" y1="1308.7188" y2="1308.7188"/><text fill="#000000" font-family="sans-serif" font-size="13" font-weight="bold" lengthAdjust="spacingAndGlyphs" textLength="18" x="247" y="1303.6528">11</text><text fill="#000000" font-family="sans-serif" font-size="13" lengthAdjust="spacingAndGlyphs" textLength="83" x="269" y="1303.6528">internal error</text><polygon fill="#A80036" points="218,1340.8516,228,1344.8516,218,1348.8516,222,1344.8516" style="stroke: #A80036; stroke-width: 1.0;"/><line style="stroke: #A80036; stroke-width: 1.0; stroke-dasharray: 2.0,2.0;" x1="3" x2="224" y1="1344.8516" y2="1344.8516"/><text fill="#000000" font-family="sans-serif" font-size="13" font-weight="bold" lengthAdjust="spacingAndGlyphs" textLength="9" x="10" y="1339.7856">1</text><text fill="#000000" font-family="sans-serif" font-size="13" lengthAdjust="spacingAndGlyphs" textLength="174" x="23" y="1339.7856">findLoansByDateForClient()</text><polygon fill="#A80036" points="465,1369.9844,475,1373.9844,465,1377.9844,469,1373.9844" style="stroke: #A80036; stroke-width: 1.0;"/><line style="stroke: #A80036; stroke-width: 1.0;" x1="230" x2="471" y1="1373.9844" y2="1373.9844"/><text fill="#000000" font-family="sans-serif" font-size="13" font-weight="bold" lengthAdjust="spacingAndGlyphs" textLength="9" x="237" y="1368.9185">2</text><text fill="#000000" font-family="sans-serif" font-size="13" lengthAdjust="spacingAndGlyphs" textLength="172" x="250" y="1368.9185">findByDateToByUser(Date)</text><polygon fill="#A80036" points="593,1399.1172,603,1403.1172,593,1407.1172,597,1403.1172" style="stroke: #A80036; stroke-width: 1.0;"/><line style="stroke: #A80036; stroke-width: 1.0;" x1="477" x2="599" y1="1403.1172" y2="1403.1172"/><text fill="#000000" font-family="sans-serif" font-size="13" font-weight="bold" lengthAdjust="spacingAndGlyphs" textLength="9" x="484" y="1398.0513">3</text><text fill="#000000" font-family="sans-serif" font-size="13" lengthAdjust="spacingAndGlyphs" textLength="91" x="497" y="1398.0513">getLoanDAO()</text><polygon fill="#A80036" points="717,1428.25,727,1432.25,717,1436.25,721,1432.25" style="stroke: #A80036; stroke-width: 1.0;"/><line style="stroke: #A80036; stroke-width: 1.0;" x1="605" x2="723" y1="1432.25" y2="1432.25"/><text fill="#000000" font-family="sans-serif" font-size="13" font-weight="bold" lengthAdjust="spacingAndGlyphs" textLength="9" x="612" y="1427.1841">4</text><text fill="#000000" font-family="sans-serif" font-size="13" lengthAdjust="spacingAndGlyphs" textLength="92" x="625" y="1427.1841">&lt;&lt;creates&gt;&gt;</text><polygon fill="#A80036" points="616,1457.3828,606,1461.3828,616,1465.3828,612,1461.3828" style="stroke: #A80036; stroke-width: 1.0;"/><line style="stroke: #A80036; stroke-width: 1.0;" x1="610" x2="728" y1="1461.3828" y2="1461.3828"/><text fill="#000000" font-family="sans-serif" font-size="13" font-weight="bold" lengthAdjust="spacingAndGlyphs" textLength="9" x="622" y="1456.3169">5</text><text fill="#000000" font-family="sans-serif" font-size="13" lengthAdjust="spacingAndGlyphs" textLength="0" x="639" y="1456.3169"/><polygon fill="#A80036" points="488,1486.5156,478,1490.5156,488,1494.5156,484,1490.5156" style="stroke: #A80036; stroke-width: 1.0;"/><line style="stroke: #A80036; stroke-width: 1.0;" x1="482" x2="604" y1="1490.5156" y2="1490.5156"/><text fill="#000000" font-family="sans-serif" font-size="13" font-weight="bold" lengthAdjust="spacingAndGlyphs" textLength="9" x="494" y="1485.4497">6</text><text fill="#000000" font-family="sans-serif" font-size="13" lengthAdjust="spacingAndGlyphs" textLength="60" x="507" y="1485.4497">LoanDAO</text><polygon fill="#A80036" points="717,1515.6484,727,1519.6484,717,1523.6484,721,1519.6484" style="stroke: #A80036; stroke-width: 1.0;"/><line style="stroke: #A80036; stroke-width: 1.0;" x1="477" x2="723" y1="1519.6484" y2="1519.6484"/><text fill="#000000" font-family="sans-serif" font-size="13" font-weight="bold" lengthAdjust="spacingAndGlyphs" textLength="9" x="484" y="1514.5825">7</text><text fill="#000000" font-family="sans-serif" font-size="13" lengthAdjust="spacingAndGlyphs" textLength="172" x="497" y="1514.5825">findByDateToByUser(Date)</text><polygon fill="#A80036" points="488,1544.7813,478,1548.7813,488,1552.7813,484,1548.7813" style="stroke: #A80036; stroke-width: 1.0;"/><line style="stroke: #A80036; stroke-width: 1.0;" x1="482" x2="733" y1="1548.7813" y2="1548.7813"/><text fill="#000000" font-family="sans-serif" font-size="13" font-weight="bold" lengthAdjust="spacingAndGlyphs" textLength="9" x="494" y="1543.7153">8</text><text fill="#000000" font-family="sans-serif" font-size="13" lengthAdjust="spacingAndGlyphs" textLength="44" x="507" y="1543.7153">loans[]</text><path d="M161,1563.7813 L225,1563.7813 L225,1570.7813 L215,1580.7813 L161,1580.7813 L161,1563.7813 " fill="#EEEEEE" style="stroke: #000000; stroke-width: 1.0;"/><rect fill="none" height="178.0781" style="stroke: #000000; stroke-width: 2.0;" width="376.5" x="161" y="1563.7813"/><text fill="#000000" font-family="sans-serif" font-size="13" font-weight="bold" lengthAdjust="spacingAndGlyphs" textLength="19" x="176" y="1576.8481">alt</text><text fill="#000000" font-family="sans-serif" font-size="11" font-weight="bold" lengthAdjust="spacingAndGlyphs" textLength="104" x="240" y="1575.9917">[loans was find]</text><polygon fill="#A80036" points="241,1598.0469,231,1602.0469,241,1606.0469,237,1602.0469" style="stroke: #A80036; stroke-width: 1.0;"/><line style="stroke: #A80036; stroke-width: 1.0;" x1="235" x2="476" y1="1602.0469" y2="1602.0469"/><text fill="#000000" font-family="sans-serif" font-size="13" font-weight="bold" lengthAdjust="spacingAndGlyphs" textLength="9" x="247" y="1596.981">9</text><text fill="#000000" font-family="sans-serif" font-size="13" lengthAdjust="spacingAndGlyphs" textLength="85" x="260" y="1596.981">displayLoan()</text><line style="stroke: #000000; stroke-width: 1.0; stroke-dasharray: 2.0,2.0;" x1="161" x2="537.5" y1="1611.0469" y2="1611.0469"/><text fill="#000000" font-family="sans-serif" font-size="11" font-weight="bold" lengthAdjust="spacingAndGlyphs" textLength="141" x="166" y="1621.2573">[client does not exist]</text><polygon fill="#A80036" points="241,1641.9844,231,1645.9844,241,1649.9844,237,1645.9844" style="stroke: #A80036; stroke-width: 1.0;"/><line style="stroke: #A80036; stroke-width: 1.0;" x1="235" x2="476" y1="1645.9844" y2="1645.9844"/><text fill="#000000" font-family="sans-serif" font-size="13" font-weight="bold" lengthAdjust="spacingAndGlyphs" textLength="18" x="247" y="1640.9185">10</text><text fill="#000000" font-family="sans-serif" font-size="13" lengthAdjust="spacingAndGlyphs" textLength="134" x="269" y="1640.9185">client not found error</text><line style="stroke: #000000; stroke-width: 1.0; stroke-dasharray: 2.0,2.0;" x1="161" x2="537.5" y1="1654.9844" y2="1654.9844"/><text fill="#000000" font-family="sans-serif" font-size="11" font-weight="bold" lengthAdjust="spacingAndGlyphs" textLength="181" x="166" y="1665.1948">[Date format does not exist]</text><polygon fill="#A80036" points="241,1685.9219,231,1689.9219,241,1693.9219,237,1689.9219" style="stroke: #A80036; stroke-width: 1.0;"/><line style="stroke: #A80036; stroke-width: 1.0;" x1="235" x2="476" y1="1689.9219" y2="1689.9219"/><text fill="#000000" font-family="sans-serif" font-size="13" font-weight="bold" lengthAdjust="spacingAndGlyphs" textLength="18" x="247" y="1684.856">11</text><text fill="#000000" font-family="sans-serif" font-size="13" lengthAdjust="spacingAndGlyphs" textLength="111" x="269" y="1684.856">date format error</text><line style="stroke: #000000; stroke-width: 1.0; stroke-dasharray: 2.0,2.0;" x1="161" x2="537.5" y1="1698.9219" y2="1698.9219"/><text fill="#000000" font-family="sans-serif" font-size="11" font-weight="bold" lengthAdjust="spacingAndGlyphs" textLength="106" x="166" y="1709.1323">[any other error]</text><polygon fill="#A80036" points="241,1729.8594,231,1733.8594,241,1737.8594,237,1733.8594" style="stroke: #A80036; stroke-width: 1.0;"/><line style="stroke: #A80036; stroke-width: 1.0;" x1="235" x2="476" y1="1733.8594" y2="1733.8594"/><text fill="#000000" font-family="sans-serif" font-size="13" font-weight="bold" lengthAdjust="spacingAndGlyphs" textLength="18" x="247" y="1728.7935">12</text><text fill="#000000" font-family="sans-serif" font-size="13" lengthAdjust="spacingAndGlyphs" textLength="83" x="269" y="1728.7935">internal error</text><!--MD5=[b0581cead03e9122e1313fa9bb7e0e35]
@startuml
autonumber

- -> LoanController: create()
LoanController -> LoanFacade: createLoan(Date,Date,String,int)
LoanFacade -> DAOFactory : getLoanDAO()
DAOFactory -> LoanDAO ++ : <<creates>>
LoanDAO -> DAOFactory
DAOFactory -> LoanFacade : LoanDAO
LoanFacade -> LoanDAO : create(Date,Date,String,int)
LoanDAO -> LoanFacade : loan
deactivate LoanDAO
alt loan was create
  LoanFacade -> LoanController : displayLoan()
else client does not exist
  LoanFacade -> LoanController: client not found error
else item does not exist
  LoanFacade -> LoanController: item not found error
else item on loan
  LoanFacade -> LoanController: item already on loan error
else non-valid Subscription or Client not eligible
  LoanFacade -> LoanController: client not eligible error
else any other error
  LoanFacade -> LoanController: internal error
end

autonumber
- -> LoanController: findAllLoansForClient()
LoanController -> LoanFacade: findAll(String)
LoanFacade -> DAOFactory : getLoanDAO()
DAOFactory -> LoanDAO ++ : <<creates>>
LoanDAO -> DAOFactory
DAOFactory -> LoanFacade : LoanDAO
LoanFacade -> LoanDAO : findByCardId(String)
LoanDAO -> LoanFacade : loans[]
deactivate LoanDAO
alt loans was find
  LoanFacade -> LoanController : displayLoan()
else client does not exist
  LoanFacade -> LoanController: client not found error
else any other error
  LoanFacade -> LoanController: internal error
end


autonumber
- -> LoanController: findLoansByDateForAnalysis()
LoanController -> LoanFacade: findByDateFrom(Date)
LoanFacade -> DAOFactory : getLoanDAO()
DAOFactory -> LoanDAO ++ : <<creates>>
LoanDAO -> DAOFactory
DAOFactory -> LoanFacade : LoanDAO
LoanFacade -> LoanDAO : findByDateFrom(Date)
LoanDAO -> LoanFacade : loans[]
deactivate LoanDAO
alt loans was find
  LoanFacade -> LoanController : displayLoan()
else Date format does not exist
  LoanFacade -> LoanController: date format error
else any other error
  LoanFacade -> LoanController: internal error
end

autonumber
- -> LoanController: findLoansByDateForClient()
LoanController -> LoanFacade: findByDateToByUser(Date)
LoanFacade -> DAOFactory : getLoanDAO()
DAOFactory -> LoanDAO ++ : <<creates>>
LoanDAO -> DAOFactory
DAOFactory -> LoanFacade : LoanDAO
LoanFacade -> LoanDAO : findByDateToByUser(Date)
LoanDAO -> LoanFacade : loans[]
deactivate LoanDAO
alt loans was find
  LoanFacade -> LoanController : displayLoan()
else client does not exist
  LoanFacade -> LoanController: client not found error
else Date format does not exist
  LoanFacade -> LoanController: date format error
else any other error
  LoanFacade -> LoanController: internal error
end
@enduml

PlantUML version 1.2019.12(Sun Nov 03 10:24:54 UTC 2019)
(GPL source distribution)
Java Runtime: OpenJDK Runtime Environment
JVM: OpenJDK 64-Bit Server VM
Java Version: 1.8.0_232-heroku-b09
Operating System: Linux
Default Encoding: UTF-8
Language: en
Country: US
--></g></svg>