<?xml version="1.0" encoding="UTF-8" standalone="no"?><svg xmlns="http://www.w3.org/2000/svg" xmlns:xlink="http://www.w3.org/1999/xlink" contentScriptType="application/ecmascript" contentStyleType="text/css" height="728px" preserveAspectRatio="none" style="width:1441px;height:728px;" version="1.1" viewBox="0 0 1441 728" width="1441px" zoomAndPan="magnify"><defs><filter height="300%" id="f130nly81iual0" width="300%" x="-1" y="-1"><feGaussianBlur result="blurOut" stdDeviation="2.0"/><feColorMatrix in="blurOut" result="blurOut2" type="matrix" values="0 0 0 0 0 0 0 0 0 0 0 0 0 0 0 0 0 0 .4 0"/><feOffset dx="4.0" dy="4.0" in="blurOut2" result="blurOut3"/><feBlend in="SourceGraphic" in2="blurOut3" mode="normal"/></filter></defs><g><!--MD5=[10ea673caf457862023e152271927b45]
cluster controller--><polygon fill="#FFFFFF" filter="url(#f130nly81iual0)" points="14,16,97,16,104,38.2969,778,38.2969,778,499.5,14,499.5,14,16" style="stroke: #000000; stroke-width: 1.5;"/><line style="stroke: #000000; stroke-width: 1.5;" x1="14" x2="104" y1="38.2969" y2="38.2969"/><text fill="#000000" font-family="sans-serif" font-size="14" font-weight="bold" lengthAdjust="spacingAndGlyphs" textLength="77" x="18" y="30.9951">controller</text><!--MD5=[efb0237bd9668543587733966cf4f7b8]
cluster items--><polygon fill="#FFFFFF" filter="url(#f130nly81iual0)" points="786,207,835,207,842,229.2969,1000,229.2969,1000,341,786,341,786,207" style="stroke: #000000; stroke-width: 1.5;"/><line style="stroke: #000000; stroke-width: 1.5;" x1="786" x2="842" y1="229.2969" y2="229.2969"/><text fill="#000000" font-family="sans-serif" font-size="14" font-weight="bold" lengthAdjust="spacingAndGlyphs" textLength="43" x="790" y="221.9951">items</text><!--MD5=[5622bc4ba3bf2be5d17935065b98c5f9]
cluster dao--><polygon fill="#FFFFFF" filter="url(#f130nly81iual0)" points="797,372,832,372,839,394.2969,1419,394.2969,1419,716,797,716,797,372" style="stroke: #000000; stroke-width: 1.5;"/><line style="stroke: #000000; stroke-width: 1.5;" x1="797" x2="839" y1="394.2969" y2="394.2969"/><text fill="#000000" font-family="sans-serif" font-size="14" font-weight="bold" lengthAdjust="spacingAndGlyphs" textLength="29" x="801" y="386.9951">dao</text><!--MD5=[bab4019c732006648757f54388533847]
cluster postgres--><polygon fill="#FFFFFF" filter="url(#f130nly81iual0)" points="842,599,919,599,926,621.2969,1408,621.2969,1408,708,842,708,842,599" style="stroke: #000000; stroke-width: 1.5;"/><line style="stroke: #000000; stroke-width: 1.5;" x1="842" x2="926" y1="621.2969" y2="621.2969"/><text fill="#000000" font-family="sans-serif" font-size="14" font-weight="bold" lengthAdjust="spacingAndGlyphs" textLength="71" x="846" y="613.9951">postgres</text><!--MD5=[cd8c98701b4a10e429151268249edc07]
class LibraryItemFormController--><rect fill="#FEFECE" filter="url(#f130nly81iual0)" height="124.8281" id="LibraryItemFormController" style="stroke: #A80036; stroke-width: 1.5;" width="192" x="353" y="43"/><ellipse cx="368" cy="59" fill="#A9DCDF" rx="11" ry="11" style="stroke: #A80036; stroke-width: 1.0;"/><path d="M368.1094,54.3438 L366.9531,59.4219 L369.2813,59.4219 L368.1094,54.3438 Z M366.625,52.1094 L369.6094,52.1094 L372.9688,64.5 L370.5156,64.5 L369.75,61.4375 L366.4688,61.4375 L365.7188,64.5 L363.2813,64.5 L366.625,52.1094 Z "/><text fill="#000000" font-family="sans-serif" font-size="12" font-style="italic" lengthAdjust="spacingAndGlyphs" textLength="160" x="382" y="63.1543">LibraryItemFormController</text><line style="stroke: #A80036; stroke-width: 1.5;" x1="354" x2="544" y1="75" y2="75"/><polygon fill="none" points="364,81,368,85,364,89,360,85" style="stroke: #B38D22; stroke-width: 1.0;"/><text fill="#000000" font-family="sans-serif" font-size="11" lengthAdjust="spacingAndGlyphs" textLength="116" x="373" y="89.2104">nameField: TextField</text><polygon fill="none" points="364,93.8047,368,97.8047,364,101.8047,360,97.8047" style="stroke: #B38D22; stroke-width: 1.0;"/><text fill="#000000" font-family="sans-serif" font-size="11" lengthAdjust="spacingAndGlyphs" textLength="102" x="373" y="102.0151">location: TextField</text><text fill="#000000" font-family="sans-serif" font-size="11" lengthAdjust="spacingAndGlyphs" textLength="12" x="373" y="114.8198">...</text><line style="stroke: #A80036; stroke-width: 1.5;" x1="354" x2="544" y1="121.4141" y2="121.4141"/><ellipse cx="364" cy="132.4141" fill="#84BE84" rx="3" ry="3" style="stroke: #038048; stroke-width: 1.0;"/><text fill="#000000" font-family="sans-serif" font-size="11" lengthAdjust="spacingAndGlyphs" textLength="75" x="373" y="135.6245">create(): void</text><ellipse cx="364" cy="145.2188" fill="#84BE84" rx="3" ry="3" style="stroke: #038048; stroke-width: 1.0;"/><text fill="#000000" font-family="sans-serif" font-size="11" lengthAdjust="spacingAndGlyphs" textLength="78" x="373" y="148.4292">update(): void</text><ellipse cx="364" cy="158.0234" fill="#84BE84" rx="3" ry="3" style="stroke: #038048; stroke-width: 1.0;"/><text fill="#000000" font-family="sans-serif" font-size="11" font-style="italic" lengthAdjust="spacingAndGlyphs" textLength="123" x="373" y="161.2339">getItem(): LibraryItem</text><!--MD5=[3b81bc54c52c846e24a54081d49fb155]
class BookFormController--><rect fill="#FEFECE" filter="url(#f130nly81iual0)" height="86.4141" id="BookFormController" style="stroke: #A80036; stroke-width: 1.5;" width="155" x="22.5" y="405.5"/><ellipse cx="37.5" cy="421.5" fill="#ADD1B2" rx="11" ry="11" style="stroke: #A80036; stroke-width: 1.0;"/><path d="M40.4688,427.1406 Q39.8906,427.4375 39.25,427.5859 Q38.6094,427.7344 37.9063,427.7344 Q35.4063,427.7344 34.0859,426.0859 Q32.7656,424.4375 32.7656,421.3125 Q32.7656,418.1875 34.0859,416.5313 Q35.4063,414.875 37.9063,414.875 Q38.6094,414.875 39.2578,415.0313 Q39.9063,415.1875 40.4688,415.4844 L40.4688,418.2031 Q39.8438,417.625 39.25,417.3516 Q38.6563,417.0781 38.0313,417.0781 Q36.6875,417.0781 36,418.1484 Q35.3125,419.2188 35.3125,421.3125 Q35.3125,423.4063 36,424.4766 Q36.6875,425.5469 38.0313,425.5469 Q38.6563,425.5469 39.25,425.2734 Q39.8438,425 40.4688,424.4219 L40.4688,427.1406 Z "/><text fill="#000000" font-family="sans-serif" font-size="12" lengthAdjust="spacingAndGlyphs" textLength="123" x="51.5" y="425.6543">BookFormController</text><line style="stroke: #A80036; stroke-width: 1.5;" x1="23.5" x2="176.5" y1="437.5" y2="437.5"/><rect fill="none" height="6" style="stroke: #C82930; stroke-width: 1.0;" width="6" x="30.5" y="445.5"/><text fill="#000000" font-family="sans-serif" font-size="11" lengthAdjust="spacingAndGlyphs" textLength="121" x="42.5" y="451.7104">authorField: TextField</text><rect fill="none" height="6" style="stroke: #C82930; stroke-width: 1.0;" width="6" x="30.5" y="458.3047"/><text fill="#000000" font-family="sans-serif" font-size="11" lengthAdjust="spacingAndGlyphs" textLength="108" x="42.5" y="464.5151">isbnField: TextField</text><text fill="#000000" font-family="sans-serif" font-size="11" lengthAdjust="spacingAndGlyphs" textLength="12" x="42.5" y="477.3198">...</text><line style="stroke: #A80036; stroke-width: 1.5;" x1="23.5" x2="176.5" y1="483.9141" y2="483.9141"/><!--MD5=[5bd6937e204d44c55a8a9276e7070d75]
class CDFormController--><rect fill="#FEFECE" filter="url(#f130nly81iual0)" height="73.6094" id="CDFormController" style="stroke: #A80036; stroke-width: 1.5;" width="173" x="212.5" y="411.5"/><ellipse cx="241.9" cy="427.5" fill="#ADD1B2" rx="11" ry="11" style="stroke: #A80036; stroke-width: 1.0;"/><path d="M244.8688,433.1406 Q244.2906,433.4375 243.65,433.5859 Q243.0094,433.7344 242.3063,433.7344 Q239.8063,433.7344 238.4859,432.0859 Q237.1656,430.4375 237.1656,427.3125 Q237.1656,424.1875 238.4859,422.5313 Q239.8063,420.875 242.3063,420.875 Q243.0094,420.875 243.6578,421.0313 Q244.3063,421.1875 244.8688,421.4844 L244.8688,424.2031 Q244.2438,423.625 243.65,423.3516 Q243.0563,423.0781 242.4313,423.0781 Q241.0875,423.0781 240.4,424.1484 Q239.7125,425.2188 239.7125,427.3125 Q239.7125,429.4063 240.4,430.4766 Q241.0875,431.5469 242.4313,431.5469 Q243.0563,431.5469 243.65,431.2734 Q244.2438,431 244.8688,430.4219 L244.8688,433.1406 Z "/><text fill="#000000" font-family="sans-serif" font-size="12" lengthAdjust="spacingAndGlyphs" textLength="109" x="259.1" y="431.6543">CDFormController</text><line style="stroke: #A80036; stroke-width: 1.5;" x1="213.5" x2="384.5" y1="443.5" y2="443.5"/><rect fill="none" height="6" style="stroke: #C82930; stroke-width: 1.0;" width="6" x="220.5" y="451.5"/><text fill="#000000" font-family="sans-serif" font-size="11" lengthAdjust="spacingAndGlyphs" textLength="147" x="232.5" y="457.7104">durationField: IntegerField</text><text fill="#000000" font-family="sans-serif" font-size="11" lengthAdjust="spacingAndGlyphs" textLength="12" x="232.5" y="470.5151">...</text><line style="stroke: #A80036; stroke-width: 1.5;" x1="213.5" x2="384.5" y1="477.1094" y2="477.1094"/><!--MD5=[2901ee0c11f42297aa356374cdc34944]
class DVDFormController--><rect fill="#FEFECE" filter="url(#f130nly81iual0)" height="73.6094" id="DVDFormController" style="stroke: #A80036; stroke-width: 1.5;" width="150" x="421" y="411.5"/><ellipse cx="436" cy="427.5" fill="#ADD1B2" rx="11" ry="11" style="stroke: #A80036; stroke-width: 1.0;"/><path d="M438.9688,433.1406 Q438.3906,433.4375 437.75,433.5859 Q437.1094,433.7344 436.4063,433.7344 Q433.9063,433.7344 432.5859,432.0859 Q431.2656,430.4375 431.2656,427.3125 Q431.2656,424.1875 432.5859,422.5313 Q433.9063,420.875 436.4063,420.875 Q437.1094,420.875 437.7578,421.0313 Q438.4063,421.1875 438.9688,421.4844 L438.9688,424.2031 Q438.3438,423.625 437.75,423.3516 Q437.1563,423.0781 436.5313,423.0781 Q435.1875,423.0781 434.5,424.1484 Q433.8125,425.2188 433.8125,427.3125 Q433.8125,429.4063 434.5,430.4766 Q435.1875,431.5469 436.5313,431.5469 Q437.1563,431.5469 437.75,431.2734 Q438.3438,431 438.9688,430.4219 L438.9688,433.1406 Z "/><text fill="#000000" font-family="sans-serif" font-size="12" lengthAdjust="spacingAndGlyphs" textLength="118" x="450" y="431.6543">DVDFormController</text><line style="stroke: #A80036; stroke-width: 1.5;" x1="422" x2="570" y1="443.5" y2="443.5"/><rect fill="none" height="6" style="stroke: #C82930; stroke-width: 1.0;" width="6" x="429" y="451.5"/><text fill="#000000" font-family="sans-serif" font-size="11" lengthAdjust="spacingAndGlyphs" textLength="109" x="441" y="457.7104">producer: TextField</text><text fill="#000000" font-family="sans-serif" font-size="11" lengthAdjust="spacingAndGlyphs" textLength="12" x="441" y="470.5151">...</text><line style="stroke: #A80036; stroke-width: 1.5;" x1="422" x2="570" y1="477.1094" y2="477.1094"/><!--MD5=[35f1f1a6251cc1d219b5aab2e55de748]
class GameFormController--><rect fill="#FEFECE" filter="url(#f130nly81iual0)" height="86.4141" id="GameFormController" style="stroke: #A80036; stroke-width: 1.5;" width="163" x="606.5" y="405.5"/><ellipse cx="622.85" cy="421.5" fill="#ADD1B2" rx="11" ry="11" style="stroke: #A80036; stroke-width: 1.0;"/><path d="M625.8188,427.1406 Q625.2406,427.4375 624.6,427.5859 Q623.9594,427.7344 623.2563,427.7344 Q620.7563,427.7344 619.4359,426.0859 Q618.1156,424.4375 618.1156,421.3125 Q618.1156,418.1875 619.4359,416.5313 Q620.7563,414.875 623.2563,414.875 Q623.9594,414.875 624.6078,415.0313 Q625.2563,415.1875 625.8188,415.4844 L625.8188,418.2031 Q625.1938,417.625 624.6,417.3516 Q624.0063,417.0781 623.3813,417.0781 Q622.0375,417.0781 621.35,418.1484 Q620.6625,419.2188 620.6625,421.3125 Q620.6625,423.4063 621.35,424.4766 Q622.0375,425.5469 623.3813,425.5469 Q624.0063,425.5469 624.6,425.2734 Q625.1938,425 625.8188,424.4219 L625.8188,427.1406 Z "/><text fill="#000000" font-family="sans-serif" font-size="12" lengthAdjust="spacingAndGlyphs" textLength="128" x="637.15" y="425.6543">GameFormController</text><line style="stroke: #A80036; stroke-width: 1.5;" x1="607.5" x2="768.5" y1="437.5" y2="437.5"/><rect fill="none" height="6" style="stroke: #C82930; stroke-width: 1.0;" width="6" x="614.5" y="445.5"/><text fill="#000000" font-family="sans-serif" font-size="11" lengthAdjust="spacingAndGlyphs" textLength="111" x="626.5" y="451.7104">publisher: TextField</text><rect fill="none" height="6" style="stroke: #C82930; stroke-width: 1.0;" width="6" x="614.5" y="458.3047"/><text fill="#000000" font-family="sans-serif" font-size="11" lengthAdjust="spacingAndGlyphs" textLength="137" x="626.5" y="464.5151">minPlayers: IntegerField</text><text fill="#000000" font-family="sans-serif" font-size="11" lengthAdjust="spacingAndGlyphs" textLength="12" x="626.5" y="477.3198">...</text><line style="stroke: #A80036; stroke-width: 1.5;" x1="607.5" x2="768.5" y1="483.9141" y2="483.9141"/><!--MD5=[09b02f6d13171ef5a64d47ed3cba543b]
class LibraryItemsListController--><rect fill="#FEFECE" filter="url(#f130nly81iual0)" height="86.4141" id="LibraryItemsListController" style="stroke: #A80036; stroke-width: 1.5;" width="189" x="580.5" y="62.5"/><ellipse cx="595.5" cy="78.5" fill="#ADD1B2" rx="11" ry="11" style="stroke: #A80036; stroke-width: 1.0;"/><path d="M598.4688,84.1406 Q597.8906,84.4375 597.25,84.5859 Q596.6094,84.7344 595.9063,84.7344 Q593.4063,84.7344 592.0859,83.0859 Q590.7656,81.4375 590.7656,78.3125 Q590.7656,75.1875 592.0859,73.5313 Q593.4063,71.875 595.9063,71.875 Q596.6094,71.875 597.2578,72.0313 Q597.9063,72.1875 598.4688,72.4844 L598.4688,75.2031 Q597.8438,74.625 597.25,74.3516 Q596.6563,74.0781 596.0313,74.0781 Q594.6875,74.0781 594,75.1484 Q593.3125,76.2188 593.3125,78.3125 Q593.3125,80.4063 594,81.4766 Q594.6875,82.5469 596.0313,82.5469 Q596.6563,82.5469 597.25,82.2734 Q597.8438,82 598.4688,81.4219 L598.4688,84.1406 Z "/><text fill="#000000" font-family="sans-serif" font-size="12" lengthAdjust="spacingAndGlyphs" textLength="157" x="609.5" y="82.6543">LibraryItemsListController</text><line style="stroke: #A80036; stroke-width: 1.5;" x1="581.5" x2="768.5" y1="94.5" y2="94.5"/><rect fill="none" height="6" style="stroke: #C82930; stroke-width: 1.0;" width="6" x="588.5" y="102.5"/><text fill="#000000" font-family="sans-serif" font-size="11" lengthAdjust="spacingAndGlyphs" textLength="120" x="600.5" y="108.7104">selected: LibraryItem</text><rect fill="none" height="6" style="stroke: #C82930; stroke-width: 1.0;" width="6" x="588.5" y="115.3047"/><text fill="#000000" font-family="sans-serif" font-size="11" lengthAdjust="spacingAndGlyphs" textLength="71" x="600.5" y="121.5151">list: ListView</text><line style="stroke: #A80036; stroke-width: 1.5;" x1="581.5" x2="768.5" y1="128.1094" y2="128.1094"/><ellipse cx="591.5" cy="139.1094" fill="#84BE84" rx="3" ry="3" style="stroke: #038048; stroke-width: 1.0;"/><text fill="#000000" font-family="sans-serif" font-size="11" lengthAdjust="spacingAndGlyphs" textLength="43" x="600.5" y="142.3198">delete()</text><!--MD5=[12e2b0d253b18cc24533f49b591decd6]
class LibraryItemFacade--><rect fill="#FEFECE" filter="url(#f130nly81iual0)" height="99.2188" id="LibraryItemFacade" style="stroke: #A80036; stroke-width: 1.5;" width="197" x="794.5" y="234"/><ellipse cx="832.45" cy="250" fill="#ADD1B2" rx="11" ry="11" style="stroke: #A80036; stroke-width: 1.0;"/><path d="M835.4188,255.6406 Q834.8406,255.9375 834.2,256.0859 Q833.5594,256.2344 832.8563,256.2344 Q830.3563,256.2344 829.0359,254.5859 Q827.7156,252.9375 827.7156,249.8125 Q827.7156,246.6875 829.0359,245.0313 Q830.3563,243.375 832.8563,243.375 Q833.5594,243.375 834.2078,243.5313 Q834.8563,243.6875 835.4188,243.9844 L835.4188,246.7031 Q834.7938,246.125 834.2,245.8516 Q833.6063,245.5781 832.9813,245.5781 Q831.6375,245.5781 830.95,246.6484 Q830.2625,247.7188 830.2625,249.8125 Q830.2625,251.9063 830.95,252.9766 Q831.6375,254.0469 832.9813,254.0469 Q833.6063,254.0469 834.2,253.7734 Q834.7938,253.5 835.4188,252.9219 L835.4188,255.6406 Z "/><text fill="#000000" font-family="sans-serif" font-size="12" lengthAdjust="spacingAndGlyphs" textLength="114" x="851.55" y="254.1543">LibraryItemFacade</text><line style="stroke: #A80036; stroke-width: 1.5;" x1="795.5" x2="990.5" y1="266" y2="266"/><line style="stroke: #A80036; stroke-width: 1.5;" x1="795.5" x2="990.5" y1="274" y2="274"/><ellipse cx="805.5" cy="285" fill="#84BE84" rx="3" ry="3" style="stroke: #038048; stroke-width: 1.0;"/><text fill="#000000" font-family="sans-serif" font-size="11" lengthAdjust="spacingAndGlyphs" textLength="168" x="814.5" y="288.2104">create(LibraryItem item): void</text><ellipse cx="805.5" cy="297.8047" fill="#84BE84" rx="3" ry="3" style="stroke: #038048; stroke-width: 1.0;"/><text fill="#000000" font-family="sans-serif" font-size="11" lengthAdjust="spacingAndGlyphs" textLength="122" x="814.5" y="301.0151">findAll(): LibraryItem[]</text><ellipse cx="805.5" cy="310.6094" fill="#84BE84" rx="3" ry="3" style="stroke: #038048; stroke-width: 1.0;"/><text fill="#000000" font-family="sans-serif" font-size="11" lengthAdjust="spacingAndGlyphs" textLength="171" x="814.5" y="313.8198">update(LibraryItem item): void</text><ellipse cx="805.5" cy="323.4141" fill="#84BE84" rx="3" ry="3" style="stroke: #038048; stroke-width: 1.0;"/><text fill="#000000" font-family="sans-serif" font-size="11" lengthAdjust="spacingAndGlyphs" textLength="167" x="814.5" y="326.6245">delete(Libraryitem item): void</text><!--MD5=[4a0300a6597e068a69ac5dc42e345e2c]
class DAOFactory--><rect fill="#FEFECE" filter="url(#f130nly81iual0)" height="60.8047" id="DAOFactory" style="stroke: #A80036; stroke-width: 1.5;" width="236" x="805" y="418"/><ellipse cx="882.75" cy="434" fill="#A9DCDF" rx="11" ry="11" style="stroke: #A80036; stroke-width: 1.0;"/><path d="M882.8594,429.3438 L881.7031,434.4219 L884.0313,434.4219 L882.8594,429.3438 Z M881.375,427.1094 L884.3594,427.1094 L887.7188,439.5 L885.2656,439.5 L884.5,436.4375 L881.2188,436.4375 L880.4688,439.5 L878.0313,439.5 L881.375,427.1094 Z "/><text fill="#000000" font-family="sans-serif" font-size="12" font-style="italic" lengthAdjust="spacingAndGlyphs" textLength="72" x="903.25" y="438.1543">DAOFactory</text><line style="stroke: #A80036; stroke-width: 1.5;" x1="806" x2="1040" y1="450" y2="450"/><line style="stroke: #A80036; stroke-width: 1.5;" x1="806" x2="1040" y1="458" y2="458"/><ellipse cx="816" cy="469" fill="#84BE84" rx="3" ry="3" style="stroke: #038048; stroke-width: 1.0;"/><text fill="#000000" font-family="sans-serif" font-size="11" lengthAdjust="spacingAndGlyphs" textLength="210" x="825" y="472.2104">getLibraryItemDAO(): LibraryItemDAO</text><!--MD5=[f8ac9437d47d045124c5924dba28e3a3]
class LibraryItemDAO--><rect fill="#FEFECE" filter="url(#f130nly81iual0)" height="99.2188" id="LibraryItemDAO" style="stroke: #A80036; stroke-width: 1.5;" width="279" x="1131.5" y="399"/><ellipse cx="1219.75" cy="415" fill="#B4A7E5" rx="11" ry="11" style="stroke: #A80036; stroke-width: 1.0;"/><path d="M1215.6719,410.7656 L1215.6719,408.6094 L1223.0625,408.6094 L1223.0625,410.7656 L1220.5938,410.7656 L1220.5938,418.8438 L1223.0625,418.8438 L1223.0625,421 L1215.6719,421 L1215.6719,418.8438 L1218.1406,418.8438 L1218.1406,410.7656 L1215.6719,410.7656 Z "/><text fill="#000000" font-family="sans-serif" font-size="12" font-style="italic" lengthAdjust="spacingAndGlyphs" textLength="94" x="1240.25" y="419.1543">LibraryItemDAO</text><line style="stroke: #A80036; stroke-width: 1.5;" x1="1132.5" x2="1409.5" y1="431" y2="431"/><line style="stroke: #A80036; stroke-width: 1.5;" x1="1132.5" x2="1409.5" y1="439" y2="439"/><ellipse cx="1142.5" cy="450" fill="#84BE84" rx="3" ry="3" style="stroke: #038048; stroke-width: 1.0;"/><text fill="#000000" font-family="sans-serif" font-size="11" lengthAdjust="spacingAndGlyphs" textLength="237" x="1151.5" y="453.2104">create&lt;T extends LibraryItem&gt;(T item): T</text><ellipse cx="1142.5" cy="462.8047" fill="#84BE84" rx="3" ry="3" style="stroke: #038048; stroke-width: 1.0;"/><text fill="#000000" font-family="sans-serif" font-size="11" lengthAdjust="spacingAndGlyphs" textLength="122" x="1151.5" y="466.0151">findAll(): LibraryItem[]</text><ellipse cx="1142.5" cy="475.6094" fill="#84BE84" rx="3" ry="3" style="stroke: #038048; stroke-width: 1.0;"/><text fill="#000000" font-family="sans-serif" font-size="11" lengthAdjust="spacingAndGlyphs" textLength="253" x="1151.5" y="478.8198">update&lt;LibraryItem&gt;(LibraryItem item): void</text><ellipse cx="1142.5" cy="488.4141" fill="#84BE84" rx="3" ry="3" style="stroke: #038048; stroke-width: 1.0;"/><text fill="#000000" font-family="sans-serif" font-size="11" lengthAdjust="spacingAndGlyphs" textLength="71" x="1151.5" y="491.6245">delete(int id)</text><!--MD5=[347f450d9af984a2ca6c27561eedc0a1]
class PostgresLibraryItemDAO--><rect fill="#FEFECE" filter="url(#f130nly81iual0)" height="73.6094" id="PostgresLibraryItemDAO" style="stroke: #A80036; stroke-width: 1.5;" width="305" x="1094.5" y="626"/><ellipse cx="1167.75" cy="642" fill="#ADD1B2" rx="11" ry="11" style="stroke: #A80036; stroke-width: 1.0;"/><path d="M1170.7188,647.6406 Q1170.1406,647.9375 1169.5,648.0859 Q1168.8594,648.2344 1168.1563,648.2344 Q1165.6563,648.2344 1164.3359,646.5859 Q1163.0156,644.9375 1163.0156,641.8125 Q1163.0156,638.6875 1164.3359,637.0313 Q1165.6563,635.375 1168.1563,635.375 Q1168.8594,635.375 1169.5078,635.5313 Q1170.1563,635.6875 1170.7188,635.9844 L1170.7188,638.7031 Q1170.0938,638.125 1169.5,637.8516 Q1168.9063,637.5781 1168.2813,637.5781 Q1166.9375,637.5781 1166.25,638.6484 Q1165.5625,639.7188 1165.5625,641.8125 Q1165.5625,643.9063 1166.25,644.9766 Q1166.9375,646.0469 1168.2813,646.0469 Q1168.9063,646.0469 1169.5,645.7734 Q1170.0938,645.5 1170.7188,644.9219 L1170.7188,647.6406 Z "/><text fill="#000000" font-family="sans-serif" font-size="12" lengthAdjust="spacingAndGlyphs" textLength="150" x="1188.25" y="646.1543">PostgresLibraryItemDAO</text><line style="stroke: #A80036; stroke-width: 1.5;" x1="1095.5" x2="1398.5" y1="658" y2="658"/><rect fill="none" height="6" style="stroke: #C82930; stroke-width: 1.0;" width="6" x="1102.5" y="666"/><text fill="#000000" font-family="sans-serif" font-size="11" lengthAdjust="spacingAndGlyphs" textLength="132" x="1114.5" y="672.2104">connection: Connection</text><line style="stroke: #A80036; stroke-width: 1.5;" x1="1095.5" x2="1398.5" y1="678.8047" y2="678.8047"/><ellipse cx="1105.5" cy="689.8047" fill="#84BE84" rx="3" ry="3" style="stroke: #038048; stroke-width: 1.0;"/><text fill="#000000" font-family="sans-serif" font-size="11" lengthAdjust="spacingAndGlyphs" textLength="279" x="1114.5" y="693.0151">PostgresLibraryItemDAO(Connection: connection)</text><!--MD5=[700a5a1f58ccb71a3c0d036256714175]
class PostgresDAOFactory--><rect fill="#FEFECE" filter="url(#f130nly81iual0)" height="60.8047" id="PostgresDAOFactory" style="stroke: #A80036; stroke-width: 1.5;" width="160" x="850" y="632.5"/><ellipse cx="865" cy="648.5" fill="#ADD1B2" rx="11" ry="11" style="stroke: #A80036; stroke-width: 1.0;"/><path d="M867.9688,654.1406 Q867.3906,654.4375 866.75,654.5859 Q866.1094,654.7344 865.4063,654.7344 Q862.9063,654.7344 861.5859,653.0859 Q860.2656,651.4375 860.2656,648.3125 Q860.2656,645.1875 861.5859,643.5313 Q862.9063,641.875 865.4063,641.875 Q866.1094,641.875 866.7578,642.0313 Q867.4063,642.1875 867.9688,642.4844 L867.9688,645.2031 Q867.3438,644.625 866.75,644.3516 Q866.1563,644.0781 865.5313,644.0781 Q864.1875,644.0781 863.5,645.1484 Q862.8125,646.2188 862.8125,648.3125 Q862.8125,650.4063 863.5,651.4766 Q864.1875,652.5469 865.5313,652.5469 Q866.1563,652.5469 866.75,652.2734 Q867.3438,652 867.9688,651.4219 L867.9688,654.1406 Z "/><text fill="#000000" font-family="sans-serif" font-size="12" lengthAdjust="spacingAndGlyphs" textLength="128" x="879" y="652.6543">PostgresDAOFactory</text><line style="stroke: #A80036; stroke-width: 1.5;" x1="851" x2="1009" y1="664.5" y2="664.5"/><rect fill="none" height="6" style="stroke: #C82930; stroke-width: 1.0;" width="6" x="858" y="672.5"/><text fill="#000000" font-family="sans-serif" font-size="11" lengthAdjust="spacingAndGlyphs" textLength="132" x="870" y="678.7104">connection: Connection</text><line style="stroke: #A80036; stroke-width: 1.5;" x1="851" x2="1009" y1="685.3047" y2="685.3047"/><!--MD5=[7f00c38c23c9bbba92599888273a9083]
reverse link LibraryItemFormController to BookFormController--><path d="M364.7576,181.6816 C355.6638,190.1575 346.5973,198.7182 338,207 C267.6244,274.7932 188.445,356.2109 141.4702,405.0787 " fill="none" id="LibraryItemFormController&lt;-BookFormController" style="stroke: #A80036; stroke-width: 1.0;"/><polygon fill="none" points="360.0717,176.4805,379.5026,168.0283,369.5836,186.753,360.0717,176.4805" style="stroke: #A80036; stroke-width: 1.0;"/><!--MD5=[dc879b046e8069167f6c5ef09c6e3973]
reverse link LibraryItemFormController to CDFormController--><path d="M413.4576,186.7736 C382.3776,257.8431 338.6584,357.8143 315.2711,411.2935 " fill="none" id="LibraryItemFormController&lt;-CDFormController" style="stroke: #A80036; stroke-width: 1.0;"/><polygon fill="none" points="407.2349,183.5323,421.6621,168.0127,420.062,189.1418,407.2349,183.5323" style="stroke: #A80036; stroke-width: 1.0;"/><!--MD5=[59ff46b8c6d7a88cbfe631b56b8c5a95]
reverse link LibraryItemFormController to DVDFormController--><path d="M460.324,188.1409 C470.05,259.1202 483.6206,358.1564 490.9017,411.2935 " fill="none" id="LibraryItemFormController&lt;-DVDFormController" style="stroke: #A80036; stroke-width: 1.0;"/><polygon fill="none" points="453.3459,188.7778,457.5659,168.0127,467.2163,186.8772,453.3459,188.7778" style="stroke: #A80036; stroke-width: 1.0;"/><!--MD5=[7ba477d115a6cce88638c07c7c30d3f9]
reverse link LibraryItemFormController to GameFormController--><path d="M504.2726,184.8242 C552.1207,253.4934 619.5143,350.213 657.9744,405.4088 " fill="none" id="LibraryItemFormController&lt;-GameFormController" style="stroke: #A80036; stroke-width: 1.0;"/><polygon fill="none" points="498.2491,188.4239,492.5584,168.0127,509.7356,180.4201,498.2491,188.4239" style="stroke: #A80036; stroke-width: 1.0;"/><!--MD5=[31540489fc416062c4a9a0afa2f83c69]
reverse link LibraryItemDAO to PostgresLibraryItemDAO--><path d="M1263.2008,518.2053 C1259.1886,554.0647 1254.4593,596.3327 1251.1497,625.9124 " fill="none" id="LibraryItemDAO&lt;-PostgresLibraryItemDAO" style="stroke: #A80036; stroke-width: 1.0; stroke-dasharray: 7.0,7.0;"/><polygon fill="none" points="1256.253,517.3473,1265.4336,498.2498,1270.1662,518.9041,1256.253,517.3473" style="stroke: #A80036; stroke-width: 1.0;"/><!--MD5=[d37a47b44041b5251d0f0ec75d3c62d9]
reverse link DAOFactory to PostgresDAOFactory--><path d="M924.6554,499.2247 C926.0048,540.5766 927.8666,597.6252 928.9989,632.3244 " fill="none" id="DAOFactory&lt;-PostgresDAOFactory" style="stroke: #A80036; stroke-width: 1.0;"/><polygon fill="none" points="917.6591,499.4503,924.0029,479.2326,931.6516,498.9936,917.6591,499.4503" style="stroke: #A80036; stroke-width: 1.0;"/><!--MD5=[d04ac385cc665f9007d50bd562feec8f]
link PostgresDAOFactory to PostgresLibraryItemDAO--><path d="M1010.4023,663 C1034.5774,663 1061.984,663 1089.3566,663 " fill="none" id="PostgresDAOFactory-&gt;PostgresLibraryItemDAO" style="stroke: #A80036; stroke-width: 1.0; stroke-dasharray: 7.0,7.0;"/><polygon fill="#A80036" points="1094.4664,663,1085.4664,659,1089.4664,663,1085.4664,667,1094.4664,663" style="stroke: #A80036; stroke-width: 1.0;"/><text fill="#000000" font-family="sans-serif" font-size="13" lengthAdjust="spacingAndGlyphs" textLength="48" x="1028.25" y="656.0669">creates</text><!--MD5=[1f939e4ba7af35c17008a19763ad3a60]
link DAOFactory to LibraryItemDAO--><path d="M1041.3025,448.5 C1068.5706,448.5 1097.8788,448.5 1126.1322,448.5 " fill="none" id="DAOFactory-&gt;LibraryItemDAO" style="stroke: #A80036; stroke-width: 1.0; stroke-dasharray: 7.0,7.0;"/><polygon fill="#A80036" points="1131.3947,448.5,1122.3947,444.5,1126.3947,448.5,1122.3947,452.5,1131.3947,448.5" style="stroke: #A80036; stroke-width: 1.0;"/><text fill="#000000" font-family="sans-serif" font-size="13" lengthAdjust="spacingAndGlyphs" textLength="54" x="1059.25" y="441.5669">provides</text><!--MD5=[b934abe196a41256a530e7e89ff55c1b]
link LibraryItemFacade to DAOFactory--><path d="M902.001,333.0054 C906.6542,358.5982 912.2296,389.2628 916.4657,412.5613 " fill="none" id="LibraryItemFacade-&gt;DAOFactory" style="stroke: #A80036; stroke-width: 1.0;"/><polygon fill="#A80036" points="917.4029,417.7157,919.7284,408.1453,916.5085,412.7964,911.8574,409.5764,917.4029,417.7157" style="stroke: #A80036; stroke-width: 1.0;"/><!--MD5=[b942e5e460076c9aeafe74acec171cb4]
link LibraryItemFormController to LibraryItemFacade--><path d="M545.0155,160.9433 C551.0134,163.5267 557.0363,165.9084 563,168 C657.9453,201.2992 693.2066,168.1047 786,207 C800.8871,213.2401 815.711,221.8668 829.3715,231.0863 " fill="none" id="LibraryItemFormController-&gt;LibraryItemFacade" style="stroke: #A80036; stroke-width: 1.0;"/><polygon fill="#A80036" points="833.5724,233.9646,828.4089,225.5778,829.4477,231.1385,823.8871,232.1773,833.5724,233.9646" style="stroke: #A80036; stroke-width: 1.0;"/><!--MD5=[e7462f4a4c9bd588d584f4798fcfc276]
link LibraryItemsListController to LibraryItemFacade--><path d="M727.7717,148.5888 C758.0439,173.3065 796.2842,204.5302 828.3506,230.7129 " fill="none" id="LibraryItemsListController-&gt;LibraryItemFacade" style="stroke: #A80036; stroke-width: 1.0;"/><polygon fill="#A80036" points="832.2296,233.8801,827.788,225.0896,828.3566,230.7178,822.7284,231.2864,832.2296,233.8801" style="stroke: #A80036; stroke-width: 1.0;"/><!--MD5=[af3027324a601aead1d1f1d2fa64fc2c]
@startuml
package controller {
  
  abstract class LibraryItemFormController {
    #nameField: TextField
    #location: TextField
    ...
    +create(): void
    +update(): void
    +{abstract}getItem(): LibraryItem
  }
  
  class BookFormController extends LibraryItemFormController {
    -authorField: TextField
    -isbnField: TextField
    ...
  }
  
  class CDFormController extends LibraryItemFormController {
    -durationField: IntegerField
    ...
  }
  
  class DVDFormController extends LibraryItemFormController {
    -producer: TextField
    ...
  }
  
  class GameFormController extends LibraryItemFormController {
    -publisher: TextField
    -minPlayers: IntegerField
    ...
  }
  
  class LibraryItemsListController {
    -selected: LibraryItem
    -list: ListView
    +delete()
  }

}

package items {

  class LibraryItemFacade {
    +create(LibraryItem item): void
    +findAll(): LibraryItem[]
    +update(LibraryItem item): void
    +delete(Libraryitem item): void
  }

}

package dao {

  abstract class DAOFactory {
    +getLibraryItemDAO(): LibraryItemDAO
  }

  interface LibraryItemDAO {
    +create<T extends LibraryItem>(T item): T
    +findAll(): LibraryItem[]
    +update<LibraryItem>(LibraryItem item): void
    +delete(int id)
  }

  package postgres {

    class PostgresLibraryItemDAO implements LibraryItemDAO {
      -connection: Connection
      +PostgresLibraryItemDAO(Connection: connection)
    }

    class PostgresDAOFactory extends DAOFactory {
      -connection: Connection
    }

  }

}

PostgresDAOFactory .> PostgresLibraryItemDAO : "creates"
DAOFactory .> LibraryItemDAO : "provides"


LibraryItemFacade -down-> DAOFactory
LibraryItemFormController - -> LibraryItemFacade
LibraryItemsListController - -> LibraryItemFacade
@enduml

PlantUML version 1.2019.12(Sun Nov 03 10:24:54 UTC 2019)
(GPL source distribution)
Java Runtime: OpenJDK Runtime Environment
JVM: OpenJDK 64-Bit Server VM
Java Version: 1.8.0_232-heroku-b09
Operating System: Linux
Default Encoding: UTF-8
Language: en
Country: US
--></g></svg>