<?xml version="1.0" encoding="UTF-8" standalone="no"?><svg xmlns="http://www.w3.org/2000/svg" xmlns:xlink="http://www.w3.org/1999/xlink" contentScriptType="application/ecmascript" contentStyleType="text/css" height="713px" preserveAspectRatio="none" style="width:1438px;height:713px;" version="1.1" viewBox="0 0 1438 713" width="1438px" zoomAndPan="magnify"><defs><filter height="300%" id="fovw6thbb02lr" width="300%" x="-1" y="-1"><feGaussianBlur result="blurOut" stdDeviation="2.0"/><feColorMatrix in="blurOut" result="blurOut2" type="matrix" values="0 0 0 0 0 0 0 0 0 0 0 0 0 0 0 0 0 0 .4 0"/><feOffset dx="4.0" dy="4.0" in="blurOut2" result="blurOut3"/><feBlend in="SourceGraphic" in2="blurOut3" mode="normal"/></filter></defs><g><!--MD5=[10ea673caf457862023e152271927b45]
cluster controller--><polygon fill="#FFFFFF" filter="url(#fovw6thbb02lr)" points="16,6,99,6,106,28.2969,780,28.2969,780,489.5,16,489.5,16,6" style="stroke:#000000;stroke-width:1.5;"/><line style="stroke:#000000;stroke-width:1.5;" x1="16" x2="106" y1="28.2969" y2="28.2969"/><text fill="#000000" font-family="sans-serif" font-size="14" font-weight="bold" lengthAdjust="spacingAndGlyphs" textLength="77" x="20" y="20.9951">controller</text><!--MD5=[efb0237bd9668543587733966cf4f7b8]
cluster items--><polygon fill="#FFFFFF" filter="url(#fovw6thbb02lr)" points="788,197,837,197,844,219.2969,1002,219.2969,1002,331,788,331,788,197" style="stroke:#000000;stroke-width:1.5;"/><line style="stroke:#000000;stroke-width:1.5;" x1="788" x2="844" y1="219.2969" y2="219.2969"/><text fill="#000000" font-family="sans-serif" font-size="14" font-weight="bold" lengthAdjust="spacingAndGlyphs" textLength="43" x="792" y="211.9951">items</text><!--MD5=[5622bc4ba3bf2be5d17935065b98c5f9]
cluster dao--><polygon fill="#FFFFFF" filter="url(#fovw6thbb02lr)" points="799,362,834,362,841,384.2969,1421,384.2969,1421,706,799,706,799,362" style="stroke:#000000;stroke-width:1.5;"/><line style="stroke:#000000;stroke-width:1.5;" x1="799" x2="841" y1="384.2969" y2="384.2969"/><text fill="#000000" font-family="sans-serif" font-size="14" font-weight="bold" lengthAdjust="spacingAndGlyphs" textLength="29" x="803" y="376.9951">dao</text><!--MD5=[bab4019c732006648757f54388533847]
cluster postgres--><polygon fill="#FFFFFF" filter="url(#fovw6thbb02lr)" points="844,589,921,589,928,611.2969,1410,611.2969,1410,698,844,698,844,589" style="stroke:#000000;stroke-width:1.5;"/><line style="stroke:#000000;stroke-width:1.5;" x1="844" x2="928" y1="611.2969" y2="611.2969"/><text fill="#000000" font-family="sans-serif" font-size="14" font-weight="bold" lengthAdjust="spacingAndGlyphs" textLength="71" x="848" y="603.9951">postgres</text><!--MD5=[cd8c98701b4a10e429151268249edc07]
class LibraryItemFormController--><rect codeLine="3" fill="#FEFECE" filter="url(#fovw6thbb02lr)" height="124.8281" id="LibraryItemFormController" style="stroke:#A80036;stroke-width:1.5;" width="211" x="336.5" y="33"/><ellipse cx="360.05" cy="49" fill="#A9DCDF" rx="11" ry="11" style="stroke:#A80036;stroke-width:1.0;"/><path d="M360.1594,44.3438 L359.0031,49.4219 L361.3313,49.4219 L360.1594,44.3438 Z M358.675,42.1094 L361.6594,42.1094 L365.0188,54.5 L362.5656,54.5 L361.8,51.4375 L358.5188,51.4375 L357.7688,54.5 L355.3313,54.5 L358.675,42.1094 Z " fill="#000000"/><text fill="#000000" font-family="sans-serif" font-size="12" font-style="italic" lengthAdjust="spacingAndGlyphs" textLength="160" x="375.95" y="53.1543">LibraryItemFormController</text><line style="stroke:#A80036;stroke-width:1.5;" x1="337.5" x2="546.5" y1="65" y2="65"/><polygon fill="none" points="347.5,71,351.5,75,347.5,79,343.5,75" style="stroke:#B38D22;stroke-width:1.0;"/><text fill="#000000" font-family="sans-serif" font-size="11" lengthAdjust="spacingAndGlyphs" textLength="116" x="356.5" y="79.2104">nameField: TextField</text><polygon fill="none" points="347.5,83.8047,351.5,87.8047,347.5,91.8047,343.5,87.8047" style="stroke:#B38D22;stroke-width:1.0;"/><text fill="#000000" font-family="sans-serif" font-size="11" lengthAdjust="spacingAndGlyphs" textLength="102" x="356.5" y="92.0151">location: TextField</text><text fill="#000000" font-family="sans-serif" font-size="11" lengthAdjust="spacingAndGlyphs" textLength="12" x="356.5" y="104.8198">...</text><line style="stroke:#A80036;stroke-width:1.5;" x1="337.5" x2="546.5" y1="111.4141" y2="111.4141"/><ellipse cx="347.5" cy="122.4141" fill="#84BE84" rx="3" ry="3" style="stroke:#038048;stroke-width:1.0;"/><text fill="#000000" font-family="sans-serif" font-size="11" lengthAdjust="spacingAndGlyphs" textLength="75" x="356.5" y="125.6245">create(): void</text><ellipse cx="347.5" cy="135.2188" fill="#84BE84" rx="3" ry="3" style="stroke:#038048;stroke-width:1.0;"/><text fill="#000000" font-family="sans-serif" font-size="11" lengthAdjust="spacingAndGlyphs" textLength="78" x="356.5" y="138.4292">update(): void</text><ellipse cx="347.5" cy="148.0234" fill="#84BE84" rx="3" ry="3" style="stroke:#038048;stroke-width:1.0;"/><text fill="#000000" font-family="sans-serif" font-size="11" font-style="italic" lengthAdjust="spacingAndGlyphs" textLength="185" x="356.5" y="151.2339">getItemFromFields(): LibraryItem</text><!--MD5=[3b81bc54c52c846e24a54081d49fb155]
class BookFormController--><rect codeLine="12" fill="#FEFECE" filter="url(#fovw6thbb02lr)" height="86.4141" id="BookFormController" style="stroke:#A80036;stroke-width:1.5;" width="155" x="24.5" y="395.5"/><ellipse cx="39.5" cy="411.5" fill="#ADD1B2" rx="11" ry="11" style="stroke:#A80036;stroke-width:1.0;"/><path d="M42.4688,417.1406 Q41.8906,417.4375 41.25,417.5781 Q40.6094,417.7344 39.9063,417.7344 Q37.4063,417.7344 36.0781,416.0938 Q34.7656,414.4375 34.7656,411.3125 Q34.7656,408.1875 36.0781,406.5313 Q37.4063,404.875 39.9063,404.875 Q40.6094,404.875 41.25,405.0313 Q41.9063,405.1875 42.4688,405.4844 L42.4688,408.2031 Q41.8438,407.625 41.25,407.3594 Q40.6563,407.0781 40.0313,407.0781 Q38.6875,407.0781 38,408.1563 Q37.3125,409.2188 37.3125,411.3125 Q37.3125,413.4063 38,414.4844 Q38.6875,415.5469 40.0313,415.5469 Q40.6563,415.5469 41.25,415.2813 Q41.8438,415 42.4688,414.4219 L42.4688,417.1406 Z " fill="#000000"/><text fill="#000000" font-family="sans-serif" font-size="12" lengthAdjust="spacingAndGlyphs" textLength="123" x="53.5" y="415.6543">BookFormController</text><line style="stroke:#A80036;stroke-width:1.5;" x1="25.5" x2="178.5" y1="427.5" y2="427.5"/><rect fill="none" height="6" style="stroke:#C82930;stroke-width:1.0;" width="6" x="32.5" y="435.5"/><text fill="#000000" font-family="sans-serif" font-size="11" lengthAdjust="spacingAndGlyphs" textLength="121" x="44.5" y="441.7104">authorField: TextField</text><rect fill="none" height="6" style="stroke:#C82930;stroke-width:1.0;" width="6" x="32.5" y="448.3047"/><text fill="#000000" font-family="sans-serif" font-size="11" lengthAdjust="spacingAndGlyphs" textLength="108" x="44.5" y="454.5151">isbnField: TextField</text><text fill="#000000" font-family="sans-serif" font-size="11" lengthAdjust="spacingAndGlyphs" textLength="12" x="44.5" y="467.3198">...</text><line style="stroke:#A80036;stroke-width:1.5;" x1="25.5" x2="178.5" y1="473.9141" y2="473.9141"/><!--MD5=[5bd6937e204d44c55a8a9276e7070d75]
class CDFormController--><rect codeLine="18" fill="#FEFECE" filter="url(#fovw6thbb02lr)" height="73.6094" id="CDFormController" style="stroke:#A80036;stroke-width:1.5;" width="173" x="214.5" y="401.5"/><ellipse cx="243.9" cy="417.5" fill="#ADD1B2" rx="11" ry="11" style="stroke:#A80036;stroke-width:1.0;"/><path d="M246.8688,423.1406 Q246.2906,423.4375 245.65,423.5781 Q245.0094,423.7344 244.3063,423.7344 Q241.8063,423.7344 240.4781,422.0938 Q239.1656,420.4375 239.1656,417.3125 Q239.1656,414.1875 240.4781,412.5313 Q241.8063,410.875 244.3063,410.875 Q245.0094,410.875 245.65,411.0313 Q246.3063,411.1875 246.8688,411.4844 L246.8688,414.2031 Q246.2438,413.625 245.65,413.3594 Q245.0563,413.0781 244.4313,413.0781 Q243.0875,413.0781 242.4,414.1563 Q241.7125,415.2188 241.7125,417.3125 Q241.7125,419.4063 242.4,420.4844 Q243.0875,421.5469 244.4313,421.5469 Q245.0563,421.5469 245.65,421.2813 Q246.2438,421 246.8688,420.4219 L246.8688,423.1406 Z " fill="#000000"/><text fill="#000000" font-family="sans-serif" font-size="12" lengthAdjust="spacingAndGlyphs" textLength="109" x="261.1" y="421.6543">CDFormController</text><line style="stroke:#A80036;stroke-width:1.5;" x1="215.5" x2="386.5" y1="433.5" y2="433.5"/><rect fill="none" height="6" style="stroke:#C82930;stroke-width:1.0;" width="6" x="222.5" y="441.5"/><text fill="#000000" font-family="sans-serif" font-size="11" lengthAdjust="spacingAndGlyphs" textLength="147" x="234.5" y="447.7104">durationField: IntegerField</text><text fill="#000000" font-family="sans-serif" font-size="11" lengthAdjust="spacingAndGlyphs" textLength="12" x="234.5" y="460.5151">...</text><line style="stroke:#A80036;stroke-width:1.5;" x1="215.5" x2="386.5" y1="467.1094" y2="467.1094"/><!--MD5=[2901ee0c11f42297aa356374cdc34944]
class DVDFormController--><rect codeLine="23" fill="#FEFECE" filter="url(#fovw6thbb02lr)" height="73.6094" id="DVDFormController" style="stroke:#A80036;stroke-width:1.5;" width="150" x="423" y="401.5"/><ellipse cx="438" cy="417.5" fill="#ADD1B2" rx="11" ry="11" style="stroke:#A80036;stroke-width:1.0;"/><path d="M440.9688,423.1406 Q440.3906,423.4375 439.75,423.5781 Q439.1094,423.7344 438.4063,423.7344 Q435.9063,423.7344 434.5781,422.0938 Q433.2656,420.4375 433.2656,417.3125 Q433.2656,414.1875 434.5781,412.5313 Q435.9063,410.875 438.4063,410.875 Q439.1094,410.875 439.75,411.0313 Q440.4063,411.1875 440.9688,411.4844 L440.9688,414.2031 Q440.3438,413.625 439.75,413.3594 Q439.1563,413.0781 438.5313,413.0781 Q437.1875,413.0781 436.5,414.1563 Q435.8125,415.2188 435.8125,417.3125 Q435.8125,419.4063 436.5,420.4844 Q437.1875,421.5469 438.5313,421.5469 Q439.1563,421.5469 439.75,421.2813 Q440.3438,421 440.9688,420.4219 L440.9688,423.1406 Z " fill="#000000"/><text fill="#000000" font-family="sans-serif" font-size="12" lengthAdjust="spacingAndGlyphs" textLength="118" x="452" y="421.6543">DVDFormController</text><line style="stroke:#A80036;stroke-width:1.5;" x1="424" x2="572" y1="433.5" y2="433.5"/><rect fill="none" height="6" style="stroke:#C82930;stroke-width:1.0;" width="6" x="431" y="441.5"/><text fill="#000000" font-family="sans-serif" font-size="11" lengthAdjust="spacingAndGlyphs" textLength="109" x="443" y="447.7104">producer: TextField</text><text fill="#000000" font-family="sans-serif" font-size="11" lengthAdjust="spacingAndGlyphs" textLength="12" x="443" y="460.5151">...</text><line style="stroke:#A80036;stroke-width:1.5;" x1="424" x2="572" y1="467.1094" y2="467.1094"/><!--MD5=[35f1f1a6251cc1d219b5aab2e55de748]
class GameFormController--><rect codeLine="28" fill="#FEFECE" filter="url(#fovw6thbb02lr)" height="86.4141" id="GameFormController" style="stroke:#A80036;stroke-width:1.5;" width="163" x="608.5" y="395.5"/><ellipse cx="624.85" cy="411.5" fill="#ADD1B2" rx="11" ry="11" style="stroke:#A80036;stroke-width:1.0;"/><path d="M627.8188,417.1406 Q627.2406,417.4375 626.6,417.5781 Q625.9594,417.7344 625.2563,417.7344 Q622.7563,417.7344 621.4281,416.0938 Q620.1156,414.4375 620.1156,411.3125 Q620.1156,408.1875 621.4281,406.5313 Q622.7563,404.875 625.2563,404.875 Q625.9594,404.875 626.6,405.0313 Q627.2563,405.1875 627.8188,405.4844 L627.8188,408.2031 Q627.1938,407.625 626.6,407.3594 Q626.0063,407.0781 625.3813,407.0781 Q624.0375,407.0781 623.35,408.1563 Q622.6625,409.2188 622.6625,411.3125 Q622.6625,413.4063 623.35,414.4844 Q624.0375,415.5469 625.3813,415.5469 Q626.0063,415.5469 626.6,415.2813 Q627.1938,415 627.8188,414.4219 L627.8188,417.1406 Z " fill="#000000"/><text fill="#000000" font-family="sans-serif" font-size="12" lengthAdjust="spacingAndGlyphs" textLength="128" x="639.15" y="415.6543">GameFormController</text><line style="stroke:#A80036;stroke-width:1.5;" x1="609.5" x2="770.5" y1="427.5" y2="427.5"/><rect fill="none" height="6" style="stroke:#C82930;stroke-width:1.0;" width="6" x="616.5" y="435.5"/><text fill="#000000" font-family="sans-serif" font-size="11" lengthAdjust="spacingAndGlyphs" textLength="111" x="628.5" y="441.7104">publisher: TextField</text><rect fill="none" height="6" style="stroke:#C82930;stroke-width:1.0;" width="6" x="616.5" y="448.3047"/><text fill="#000000" font-family="sans-serif" font-size="11" lengthAdjust="spacingAndGlyphs" textLength="137" x="628.5" y="454.5151">minPlayers: IntegerField</text><text fill="#000000" font-family="sans-serif" font-size="11" lengthAdjust="spacingAndGlyphs" textLength="12" x="628.5" y="467.3198">...</text><line style="stroke:#A80036;stroke-width:1.5;" x1="609.5" x2="770.5" y1="473.9141" y2="473.9141"/><!--MD5=[09b02f6d13171ef5a64d47ed3cba543b]
class LibraryItemsListController--><rect codeLine="34" fill="#FEFECE" filter="url(#fovw6thbb02lr)" height="86.4141" id="LibraryItemsListController" style="stroke:#A80036;stroke-width:1.5;" width="189" x="582.5" y="52.5"/><ellipse cx="597.5" cy="68.5" fill="#ADD1B2" rx="11" ry="11" style="stroke:#A80036;stroke-width:1.0;"/><path d="M600.4688,74.1406 Q599.8906,74.4375 599.25,74.5781 Q598.6094,74.7344 597.9063,74.7344 Q595.4063,74.7344 594.0781,73.0938 Q592.7656,71.4375 592.7656,68.3125 Q592.7656,65.1875 594.0781,63.5313 Q595.4063,61.875 597.9063,61.875 Q598.6094,61.875 599.25,62.0313 Q599.9063,62.1875 600.4688,62.4844 L600.4688,65.2031 Q599.8438,64.625 599.25,64.3594 Q598.6563,64.0781 598.0313,64.0781 Q596.6875,64.0781 596,65.1563 Q595.3125,66.2188 595.3125,68.3125 Q595.3125,70.4063 596,71.4844 Q596.6875,72.5469 598.0313,72.5469 Q598.6563,72.5469 599.25,72.2813 Q599.8438,72 600.4688,71.4219 L600.4688,74.1406 Z " fill="#000000"/><text fill="#000000" font-family="sans-serif" font-size="12" lengthAdjust="spacingAndGlyphs" textLength="157" x="611.5" y="72.6543">LibraryItemsListController</text><line style="stroke:#A80036;stroke-width:1.5;" x1="583.5" x2="770.5" y1="84.5" y2="84.5"/><rect fill="none" height="6" style="stroke:#C82930;stroke-width:1.0;" width="6" x="590.5" y="92.5"/><text fill="#000000" font-family="sans-serif" font-size="11" lengthAdjust="spacingAndGlyphs" textLength="120" x="602.5" y="98.7104">selected: LibraryItem</text><rect fill="none" height="6" style="stroke:#C82930;stroke-width:1.0;" width="6" x="590.5" y="105.3047"/><text fill="#000000" font-family="sans-serif" font-size="11" lengthAdjust="spacingAndGlyphs" textLength="71" x="602.5" y="111.5151">list: ListView</text><line style="stroke:#A80036;stroke-width:1.5;" x1="583.5" x2="770.5" y1="118.1094" y2="118.1094"/><ellipse cx="593.5" cy="129.1094" fill="#84BE84" rx="3" ry="3" style="stroke:#038048;stroke-width:1.0;"/><text fill="#000000" font-family="sans-serif" font-size="11" lengthAdjust="spacingAndGlyphs" textLength="43" x="602.5" y="132.3198">delete()</text><!--MD5=[12e2b0d253b18cc24533f49b591decd6]
class LibraryItemFacade--><rect codeLine="44" fill="#FEFECE" filter="url(#fovw6thbb02lr)" height="99.2188" id="LibraryItemFacade" style="stroke:#A80036;stroke-width:1.5;" width="197" x="796.5" y="224"/><ellipse cx="834.45" cy="240" fill="#ADD1B2" rx="11" ry="11" style="stroke:#A80036;stroke-width:1.0;"/><path d="M837.4188,245.6406 Q836.8406,245.9375 836.2,246.0781 Q835.5594,246.2344 834.8563,246.2344 Q832.3563,246.2344 831.0281,244.5938 Q829.7156,242.9375 829.7156,239.8125 Q829.7156,236.6875 831.0281,235.0313 Q832.3563,233.375 834.8563,233.375 Q835.5594,233.375 836.2,233.5313 Q836.8563,233.6875 837.4188,233.9844 L837.4188,236.7031 Q836.7938,236.125 836.2,235.8594 Q835.6063,235.5781 834.9813,235.5781 Q833.6375,235.5781 832.95,236.6563 Q832.2625,237.7188 832.2625,239.8125 Q832.2625,241.9063 832.95,242.9844 Q833.6375,244.0469 834.9813,244.0469 Q835.6063,244.0469 836.2,243.7813 Q836.7938,243.5 837.4188,242.9219 L837.4188,245.6406 Z " fill="#000000"/><text fill="#000000" font-family="sans-serif" font-size="12" lengthAdjust="spacingAndGlyphs" textLength="114" x="853.55" y="244.1543">LibraryItemFacade</text><line style="stroke:#A80036;stroke-width:1.5;" x1="797.5" x2="992.5" y1="256" y2="256"/><line style="stroke:#A80036;stroke-width:1.5;" x1="797.5" x2="992.5" y1="264" y2="264"/><ellipse cx="807.5" cy="275" fill="#84BE84" rx="3" ry="3" style="stroke:#038048;stroke-width:1.0;"/><text fill="#000000" font-family="sans-serif" font-size="11" lengthAdjust="spacingAndGlyphs" textLength="168" x="816.5" y="278.2104">create(LibraryItem item): void</text><ellipse cx="807.5" cy="287.8047" fill="#84BE84" rx="3" ry="3" style="stroke:#038048;stroke-width:1.0;"/><text fill="#000000" font-family="sans-serif" font-size="11" lengthAdjust="spacingAndGlyphs" textLength="122" x="816.5" y="291.0151">findAll(): LibraryItem[]</text><ellipse cx="807.5" cy="300.6094" fill="#84BE84" rx="3" ry="3" style="stroke:#038048;stroke-width:1.0;"/><text fill="#000000" font-family="sans-serif" font-size="11" lengthAdjust="spacingAndGlyphs" textLength="171" x="816.5" y="303.8198">update(LibraryItem item): void</text><ellipse cx="807.5" cy="313.4141" fill="#84BE84" rx="3" ry="3" style="stroke:#038048;stroke-width:1.0;"/><text fill="#000000" font-family="sans-serif" font-size="11" lengthAdjust="spacingAndGlyphs" textLength="167" x="816.5" y="316.6245">delete(Libraryitem item): void</text><!--MD5=[4a0300a6597e068a69ac5dc42e345e2c]
class DAOFactory--><rect codeLine="55" fill="#FEFECE" filter="url(#fovw6thbb02lr)" height="60.8047" id="DAOFactory" style="stroke:#A80036;stroke-width:1.5;" width="236" x="807" y="408"/><ellipse cx="884.75" cy="424" fill="#A9DCDF" rx="11" ry="11" style="stroke:#A80036;stroke-width:1.0;"/><path d="M884.8594,419.3438 L883.7031,424.4219 L886.0313,424.4219 L884.8594,419.3438 Z M883.375,417.1094 L886.3594,417.1094 L889.7188,429.5 L887.2656,429.5 L886.5,426.4375 L883.2188,426.4375 L882.4688,429.5 L880.0313,429.5 L883.375,417.1094 Z " fill="#000000"/><text fill="#000000" font-family="sans-serif" font-size="12" font-style="italic" lengthAdjust="spacingAndGlyphs" textLength="72" x="905.25" y="428.1543">DAOFactory</text><line style="stroke:#A80036;stroke-width:1.5;" x1="808" x2="1042" y1="440" y2="440"/><line style="stroke:#A80036;stroke-width:1.5;" x1="808" x2="1042" y1="448" y2="448"/><ellipse cx="818" cy="459" fill="#84BE84" rx="3" ry="3" style="stroke:#038048;stroke-width:1.0;"/><text fill="#000000" font-family="sans-serif" font-size="11" lengthAdjust="spacingAndGlyphs" textLength="210" x="827" y="462.2104">getLibraryItemDAO(): LibraryItemDAO</text><!--MD5=[f8ac9437d47d045124c5924dba28e3a3]
class LibraryItemDAO--><rect codeLine="59" fill="#FEFECE" filter="url(#fovw6thbb02lr)" height="99.2188" id="LibraryItemDAO" style="stroke:#A80036;stroke-width:1.5;" width="279" x="1133.5" y="389"/><ellipse cx="1221.75" cy="405" fill="#B4A7E5" rx="11" ry="11" style="stroke:#A80036;stroke-width:1.0;"/><path d="M1217.6719,400.7656 L1217.6719,398.6094 L1225.0625,398.6094 L1225.0625,400.7656 L1222.5938,400.7656 L1222.5938,408.8438 L1225.0625,408.8438 L1225.0625,411 L1217.6719,411 L1217.6719,408.8438 L1220.1406,408.8438 L1220.1406,400.7656 L1217.6719,400.7656 Z " fill="#000000"/><text fill="#000000" font-family="sans-serif" font-size="12" font-style="italic" lengthAdjust="spacingAndGlyphs" textLength="94" x="1242.25" y="409.1543">LibraryItemDAO</text><line style="stroke:#A80036;stroke-width:1.5;" x1="1134.5" x2="1411.5" y1="421" y2="421"/><line style="stroke:#A80036;stroke-width:1.5;" x1="1134.5" x2="1411.5" y1="429" y2="429"/><ellipse cx="1144.5" cy="440" fill="#84BE84" rx="3" ry="3" style="stroke:#038048;stroke-width:1.0;"/><text fill="#000000" font-family="sans-serif" font-size="11" lengthAdjust="spacingAndGlyphs" textLength="237" x="1153.5" y="443.2104">create&lt;T extends LibraryItem&gt;(T item): T</text><ellipse cx="1144.5" cy="452.8047" fill="#84BE84" rx="3" ry="3" style="stroke:#038048;stroke-width:1.0;"/><text fill="#000000" font-family="sans-serif" font-size="11" lengthAdjust="spacingAndGlyphs" textLength="122" x="1153.5" y="456.0151">findAll(): LibraryItem[]</text><ellipse cx="1144.5" cy="465.6094" fill="#84BE84" rx="3" ry="3" style="stroke:#038048;stroke-width:1.0;"/><text fill="#000000" font-family="sans-serif" font-size="11" lengthAdjust="spacingAndGlyphs" textLength="253" x="1153.5" y="468.8198">update&lt;LibraryItem&gt;(LibraryItem item): void</text><ellipse cx="1144.5" cy="478.4141" fill="#84BE84" rx="3" ry="3" style="stroke:#038048;stroke-width:1.0;"/><text fill="#000000" font-family="sans-serif" font-size="11" lengthAdjust="spacingAndGlyphs" textLength="71" x="1153.5" y="481.6245">delete(int id)</text><!--MD5=[347f450d9af984a2ca6c27561eedc0a1]
class PostgresLibraryItemDAO--><rect codeLine="68" fill="#FEFECE" filter="url(#fovw6thbb02lr)" height="73.6094" id="PostgresLibraryItemDAO" style="stroke:#A80036;stroke-width:1.5;" width="305" x="1096.5" y="616"/><ellipse cx="1169.75" cy="632" fill="#ADD1B2" rx="11" ry="11" style="stroke:#A80036;stroke-width:1.0;"/><path d="M1172.7188,637.6406 Q1172.1406,637.9375 1171.5,638.0781 Q1170.8594,638.2344 1170.1563,638.2344 Q1167.6563,638.2344 1166.3281,636.5938 Q1165.0156,634.9375 1165.0156,631.8125 Q1165.0156,628.6875 1166.3281,627.0313 Q1167.6563,625.375 1170.1563,625.375 Q1170.8594,625.375 1171.5,625.5313 Q1172.1563,625.6875 1172.7188,625.9844 L1172.7188,628.7031 Q1172.0938,628.125 1171.5,627.8594 Q1170.9063,627.5781 1170.2813,627.5781 Q1168.9375,627.5781 1168.25,628.6563 Q1167.5625,629.7188 1167.5625,631.8125 Q1167.5625,633.9063 1168.25,634.9844 Q1168.9375,636.0469 1170.2813,636.0469 Q1170.9063,636.0469 1171.5,635.7813 Q1172.0938,635.5 1172.7188,634.9219 L1172.7188,637.6406 Z " fill="#000000"/><text fill="#000000" font-family="sans-serif" font-size="12" lengthAdjust="spacingAndGlyphs" textLength="150" x="1190.25" y="636.1543">PostgresLibraryItemDAO</text><line style="stroke:#A80036;stroke-width:1.5;" x1="1097.5" x2="1400.5" y1="648" y2="648"/><rect fill="none" height="6" style="stroke:#C82930;stroke-width:1.0;" width="6" x="1104.5" y="656"/><text fill="#000000" font-family="sans-serif" font-size="11" lengthAdjust="spacingAndGlyphs" textLength="132" x="1116.5" y="662.2104">connection: Connection</text><line style="stroke:#A80036;stroke-width:1.5;" x1="1097.5" x2="1400.5" y1="668.8047" y2="668.8047"/><ellipse cx="1107.5" cy="679.8047" fill="#84BE84" rx="3" ry="3" style="stroke:#038048;stroke-width:1.0;"/><text fill="#000000" font-family="sans-serif" font-size="11" lengthAdjust="spacingAndGlyphs" textLength="279" x="1116.5" y="683.0151">PostgresLibraryItemDAO(Connection: connection)</text><!--MD5=[700a5a1f58ccb71a3c0d036256714175]
class PostgresDAOFactory--><rect codeLine="73" fill="#FEFECE" filter="url(#fovw6thbb02lr)" height="60.8047" id="PostgresDAOFactory" style="stroke:#A80036;stroke-width:1.5;" width="160" x="852" y="622.5"/><ellipse cx="867" cy="638.5" fill="#ADD1B2" rx="11" ry="11" style="stroke:#A80036;stroke-width:1.0;"/><path d="M869.9688,644.1406 Q869.3906,644.4375 868.75,644.5781 Q868.1094,644.7344 867.4063,644.7344 Q864.9063,644.7344 863.5781,643.0938 Q862.2656,641.4375 862.2656,638.3125 Q862.2656,635.1875 863.5781,633.5313 Q864.9063,631.875 867.4063,631.875 Q868.1094,631.875 868.75,632.0313 Q869.4063,632.1875 869.9688,632.4844 L869.9688,635.2031 Q869.3438,634.625 868.75,634.3594 Q868.1563,634.0781 867.5313,634.0781 Q866.1875,634.0781 865.5,635.1563 Q864.8125,636.2188 864.8125,638.3125 Q864.8125,640.4063 865.5,641.4844 Q866.1875,642.5469 867.5313,642.5469 Q868.1563,642.5469 868.75,642.2813 Q869.3438,642 869.9688,641.4219 L869.9688,644.1406 Z " fill="#000000"/><text fill="#000000" font-family="sans-serif" font-size="12" lengthAdjust="spacingAndGlyphs" textLength="128" x="881" y="642.6543">PostgresDAOFactory</text><line style="stroke:#A80036;stroke-width:1.5;" x1="853" x2="1011" y1="654.5" y2="654.5"/><rect fill="none" height="6" style="stroke:#C82930;stroke-width:1.0;" width="6" x="860" y="662.5"/><text fill="#000000" font-family="sans-serif" font-size="11" lengthAdjust="spacingAndGlyphs" textLength="132" x="872" y="668.7104">connection: Connection</text><line style="stroke:#A80036;stroke-width:1.5;" x1="853" x2="1011" y1="675.3047" y2="675.3047"/><!--MD5=[7f00c38c23c9bbba92599888273a9083]
reverse link LibraryItemFormController to BookFormController--><path d="M361.8425,172.4935 C353.4195,180.7305 345.0114,189.015 337,197 C268.2178,265.5551 189.8268,346.7466 143.2093,395.3612 " fill="none" id="LibraryItemFormController-backto-BookFormController" style="stroke:#A80036;stroke-width:1.0;"/><polygon fill="none" points="357.234,167.2104,376.4455,158.2705,367.0022,177.2396,357.234,167.2104" style="stroke:#A80036;stroke-width:1.0;"/><!--MD5=[dc879b046e8069167f6c5ef09c6e3973]
reverse link LibraryItemFormController to CDFormController--><path d="M408.5901,176.7736 C379.375,247.8431 338.2789,347.8143 316.2948,401.2935 " fill="none" id="LibraryItemFormController-backto-CDFormController" style="stroke:#A80036;stroke-width:1.0;"/><polygon fill="none" points="402.2239,173.8492,416.3024,158.0127,415.1725,179.1722,402.2239,173.8492" style="stroke:#A80036;stroke-width:1.0;"/><!--MD5=[59ff46b8c6d7a88cbfe631b56b8c5a95]
reverse link LibraryItemFormController to DVDFormController--><path d="M455.4924,178.1409 C467.0808,249.1202 483.25,348.1564 491.9255,401.2935 " fill="none" id="LibraryItemFormController-backto-DVDFormController" style="stroke:#A80036;stroke-width:1.0;"/><polygon fill="none" points="448.5203,178.8793,452.2061,158.0127,462.3374,176.6234,448.5203,178.8793" style="stroke:#A80036;stroke-width:1.0;"/><!--MD5=[7ba477d115a6cce88638c07c7c30d3f9]
reverse link LibraryItemFormController to GameFormController--><path d="M499.0386,174.3881 C548.7075,243.0833 618.8508,340.0961 658.8437,395.4088 " fill="none" id="LibraryItemFormController-backto-GameFormController" style="stroke:#A80036;stroke-width:1.0;"/><polygon fill="none" points="493.2445,178.3215,487.1987,158.0127,504.5897,170.1186,493.2445,178.3215" style="stroke:#A80036;stroke-width:1.0;"/><!--MD5=[31540489fc416062c4a9a0afa2f83c69]
reverse link LibraryItemDAO to PostgresLibraryItemDAO--><path d="M1265.2008,508.2053 C1261.1886,544.0647 1256.4593,586.3327 1253.1497,615.9124 " fill="none" id="LibraryItemDAO-backto-PostgresLibraryItemDAO" style="stroke:#A80036;stroke-width:1.0;stroke-dasharray:7.0,7.0;"/><polygon fill="none" points="1258.253,507.3473,1267.4336,488.2498,1272.1662,508.9041,1258.253,507.3473" style="stroke:#A80036;stroke-width:1.0;"/><!--MD5=[d37a47b44041b5251d0f0ec75d3c62d9]
reverse link DAOFactory to PostgresDAOFactory--><path d="M926.6554,489.2247 C928.0048,530.5766 929.8666,587.6252 930.9989,622.3244 " fill="none" id="DAOFactory-backto-PostgresDAOFactory" style="stroke:#A80036;stroke-width:1.0;"/><polygon fill="none" points="919.6591,489.4503,926.0029,469.2326,933.6516,488.9936,919.6591,489.4503" style="stroke:#A80036;stroke-width:1.0;"/><!--MD5=[d04ac385cc665f9007d50bd562feec8f]
link PostgresDAOFactory to PostgresLibraryItemDAO--><path codeLine="81" d="M1012.4023,653 C1036.5774,653 1063.984,653 1091.3566,653 " fill="none" id="PostgresDAOFactory-to-PostgresLibraryItemDAO" style="stroke:#A80036;stroke-width:1.0;stroke-dasharray:7.0,7.0;"/><polygon fill="#A80036" points="1096.4664,653,1087.4664,649,1091.4664,653,1087.4664,657,1096.4664,653" style="stroke:#A80036;stroke-width:1.0;"/><text fill="#000000" font-family="sans-serif" font-size="13" lengthAdjust="spacingAndGlyphs" textLength="48" x="1030.25" y="646.0669">creates</text><!--MD5=[1f939e4ba7af35c17008a19763ad3a60]
link DAOFactory to LibraryItemDAO--><path codeLine="82" d="M1043.3025,438.5 C1070.5706,438.5 1099.8788,438.5 1128.1322,438.5 " fill="none" id="DAOFactory-to-LibraryItemDAO" style="stroke:#A80036;stroke-width:1.0;stroke-dasharray:7.0,7.0;"/><polygon fill="#A80036" points="1133.3947,438.5,1124.3947,434.5,1128.3947,438.5,1124.3947,442.5,1133.3947,438.5" style="stroke:#A80036;stroke-width:1.0;"/><text fill="#000000" font-family="sans-serif" font-size="13" lengthAdjust="spacingAndGlyphs" textLength="54" x="1061.25" y="431.5669">provides</text><!--MD5=[b934abe196a41256a530e7e89ff55c1b]
link LibraryItemFacade to DAOFactory--><path codeLine="86" d="M904.001,323.0054 C908.6542,348.5982 914.2296,379.2628 918.4657,402.5613 " fill="none" id="LibraryItemFacade-to-DAOFactory" style="stroke:#A80036;stroke-width:1.0;"/><polygon fill="#A80036" points="919.4029,407.7157,921.7284,398.1453,918.5085,402.7964,913.8574,399.5764,919.4029,407.7157" style="stroke:#A80036;stroke-width:1.0;"/><!--MD5=[b942e5e460076c9aeafe74acec171cb4]
link LibraryItemFormController to LibraryItemFacade--><path codeLine="87" d="M547.8329,151.7044 C553.5743,153.9877 559.3189,156.107 565,158 C660.4559,189.8062 695.2066,158.1047 788,197 C802.8871,203.2401 817.711,211.8668 831.3715,221.0863 " fill="none" id="LibraryItemFormController-to-LibraryItemFacade" style="stroke:#A80036;stroke-width:1.0;"/><polygon fill="#A80036" points="835.5724,223.9646,830.4089,215.5778,831.4477,221.1385,825.8871,222.1773,835.5724,223.9646" style="stroke:#A80036;stroke-width:1.0;"/><!--MD5=[e7462f4a4c9bd588d584f4798fcfc276]
link LibraryItemsListController to LibraryItemFacade--><path codeLine="88" d="M729.7717,138.5888 C760.0439,163.3065 798.2842,194.5302 830.3506,220.7129 " fill="none" id="LibraryItemsListController-to-LibraryItemFacade" style="stroke:#A80036;stroke-width:1.0;"/><polygon fill="#A80036" points="834.2296,223.8801,829.788,215.0896,830.3566,220.7178,824.7284,221.2864,834.2296,223.8801" style="stroke:#A80036;stroke-width:1.0;"/><!--MD5=[0c91c2eb8930f623248fe77e412137b6]
@startuml
package controller {

  abstract class LibraryItemFormController {
    #nameField: TextField
    #location: TextField
    ...
    +create(): void
    +update(): void
    +{abstract}getItemFromFields(): LibraryItem
  }

  class BookFormController extends LibraryItemFormController {
    -authorField: TextField
    -isbnField: TextField
    ...
  }

  class CDFormController extends LibraryItemFormController {
    -durationField: IntegerField
    ...
  }

  class DVDFormController extends LibraryItemFormController {
    -producer: TextField
    ...
  }

  class GameFormController extends LibraryItemFormController {
    -publisher: TextField
    -minPlayers: IntegerField
    ...
  }

  class LibraryItemsListController {
    -selected: LibraryItem
    -list: ListView
    +delete()
  }

}

package items {

  class LibraryItemFacade {
    +create(LibraryItem item): void
    +findAll(): LibraryItem[]
    +update(LibraryItem item): void
    +delete(Libraryitem item): void
  }

}

package dao {

  abstract class DAOFactory {
    +getLibraryItemDAO(): LibraryItemDAO
  }

  interface LibraryItemDAO {
    +create<T extends LibraryItem>(T item): T
    +findAll(): LibraryItem[]
    +update<LibraryItem>(LibraryItem item): void
    +delete(int id)
  }

  package postgres {

    class PostgresLibraryItemDAO implements LibraryItemDAO {
      -connection: Connection
      +PostgresLibraryItemDAO(Connection: connection)
    }

    class PostgresDAOFactory extends DAOFactory {
      -connection: Connection
    }

  }

}

PostgresDAOFactory .> PostgresLibraryItemDAO : "creates"
DAOFactory .> LibraryItemDAO : "provides"

' Inter-packages relations

LibraryItemFacade -down-> DAOFactory
LibraryItemFormController - -> LibraryItemFacade
LibraryItemsListController - -> LibraryItemFacade
@enduml

@startuml
package controller {

  abstract class LibraryItemFormController {
    #nameField: TextField
    #location: TextField
    ...
    +create(): void
    +update(): void
    +{abstract}getItemFromFields(): LibraryItem
  }

  class BookFormController extends LibraryItemFormController {
    -authorField: TextField
    -isbnField: TextField
    ...
  }

  class CDFormController extends LibraryItemFormController {
    -durationField: IntegerField
    ...
  }

  class DVDFormController extends LibraryItemFormController {
    -producer: TextField
    ...
  }

  class GameFormController extends LibraryItemFormController {
    -publisher: TextField
    -minPlayers: IntegerField
    ...
  }

  class LibraryItemsListController {
    -selected: LibraryItem
    -list: ListView
    +delete()
  }

}

package items {

  class LibraryItemFacade {
    +create(LibraryItem item): void
    +findAll(): LibraryItem[]
    +update(LibraryItem item): void
    +delete(Libraryitem item): void
  }

}

package dao {

  abstract class DAOFactory {
    +getLibraryItemDAO(): LibraryItemDAO
  }

  interface LibraryItemDAO {
    +create<T extends LibraryItem>(T item): T
    +findAll(): LibraryItem[]
    +update<LibraryItem>(LibraryItem item): void
    +delete(int id)
  }

  package postgres {

    class PostgresLibraryItemDAO implements LibraryItemDAO {
      -connection: Connection
      +PostgresLibraryItemDAO(Connection: connection)
    }

    class PostgresDAOFactory extends DAOFactory {
      -connection: Connection
    }

  }

}

PostgresDAOFactory .> PostgresLibraryItemDAO : "creates"
DAOFactory .> LibraryItemDAO : "provides"


LibraryItemFacade -down-> DAOFactory
LibraryItemFormController - -> LibraryItemFacade
LibraryItemsListController - -> LibraryItemFacade
@enduml

PlantUML version 1.2020.22(Sun Dec 06 09:36:27 UTC 2020)
(GPL source distribution)
Java Runtime: OpenJDK Runtime Environment
JVM: OpenJDK 64-Bit Server VM
Default Encoding: UTF-8
Language: en
Country: US
--></g></svg>