<?xml version="1.0" encoding="UTF-8" standalone="no"?><svg xmlns="http://www.w3.org/2000/svg" xmlns:xlink="http://www.w3.org/1999/xlink" contentScriptType="application/ecmascript" contentStyleType="text/css" height="755px" preserveAspectRatio="none" style="width:723px;height:755px;" version="1.1" viewBox="0 0 723 755" width="723px" zoomAndPan="magnify"><defs><filter height="300%" id="f1de7q5jxbgztm" width="300%" x="-1" y="-1"><feGaussianBlur result="blurOut" stdDeviation="2.0"/><feColorMatrix in="blurOut" result="blurOut2" type="matrix" values="0 0 0 0 0 0 0 0 0 0 0 0 0 0 0 0 0 0 .4 0"/><feOffset dx="4.0" dy="4.0" in="blurOut2" result="blurOut3"/><feBlend in="SourceGraphic" in2="blurOut3" mode="normal"/></filter></defs><g><!--MD5=[10ea673caf457862023e152271927b45]
cluster controller--><polygon fill="#FFFFFF" filter="url(#f1de7q5jxbgztm)" points="378,16,461,16,468,38.2969,562,38.2969,562,253,378,253,378,16" style="stroke: #000000; stroke-width: 1.5;"/><line style="stroke: #000000; stroke-width: 1.5;" x1="378" x2="468" y1="38.2969" y2="38.2969"/><text fill="#000000" font-family="sans-serif" font-size="14" font-weight="bold" lengthAdjust="spacingAndGlyphs" textLength="77" x="382" y="30.9951">controller</text><!--MD5=[9bf626b9444c211e8aa648b6073aa437]
cluster rating--><polygon fill="#FFFFFF" filter="url(#f1de7q5jxbgztm)" points="239,284,291,284,298,306.2969,701,306.2969,701,393,239,393,239,284" style="stroke: #000000; stroke-width: 1.5;"/><line style="stroke: #000000; stroke-width: 1.5;" x1="239" x2="298" y1="306.2969" y2="306.2969"/><text fill="#000000" font-family="sans-serif" font-size="14" font-weight="bold" lengthAdjust="spacingAndGlyphs" textLength="46" x="243" y="298.9951">rating</text><!--MD5=[5622bc4ba3bf2be5d17935065b98c5f9]
cluster dao--><polygon fill="#FFFFFF" filter="url(#f1de7q5jxbgztm)" points="14,424,49,424,56,446.2969,567,446.2969,567,743,14,743,14,424" style="stroke: #000000; stroke-width: 1.5;"/><line style="stroke: #000000; stroke-width: 1.5;" x1="14" x2="56" y1="446.2969" y2="446.2969"/><text fill="#000000" font-family="sans-serif" font-size="14" font-weight="bold" lengthAdjust="spacingAndGlyphs" textLength="29" x="18" y="438.9951">dao</text><!--MD5=[bab4019c732006648757f54388533847]
cluster postgres--><polygon fill="#FFFFFF" filter="url(#f1de7q5jxbgztm)" points="22,626,99,626,106,648.2969,559,648.2969,559,735,22,735,22,626" style="stroke: #000000; stroke-width: 1.5;"/><line style="stroke: #000000; stroke-width: 1.5;" x1="22" x2="106" y1="648.2969" y2="648.2969"/><text fill="#000000" font-family="sans-serif" font-size="14" font-weight="bold" lengthAdjust="spacingAndGlyphs" textLength="71" x="26" y="640.9951">postgres</text><!--MD5=[28b9aff8eabf4f2c96d7496045d8e3a8]
class RatingController--><rect fill="#FEFECE" filter="url(#f1de7q5jxbgztm)" height="201.6563" id="RatingController" style="stroke: #A80036; stroke-width: 1.5;" width="168" x="386" y="43"/><ellipse cx="416.75" cy="59" fill="#ADD1B2" rx="11" ry="11" style="stroke: #A80036; stroke-width: 1.0;"/><path d="M419.7188,64.6406 Q419.1406,64.9375 418.5,65.0859 Q417.8594,65.2344 417.1563,65.2344 Q414.6563,65.2344 413.3359,63.5859 Q412.0156,61.9375 412.0156,58.8125 Q412.0156,55.6875 413.3359,54.0313 Q414.6563,52.375 417.1563,52.375 Q417.8594,52.375 418.5078,52.5313 Q419.1563,52.6875 419.7188,52.9844 L419.7188,55.7031 Q419.0938,55.125 418.5,54.8516 Q417.9063,54.5781 417.2813,54.5781 Q415.9375,54.5781 415.25,55.6484 Q414.5625,56.7188 414.5625,58.8125 Q414.5625,60.9063 415.25,61.9766 Q415.9375,63.0469 417.2813,63.0469 Q417.9063,63.0469 418.5,62.7734 Q419.0938,62.5 419.7188,61.9219 L419.7188,64.6406 Z "/><text fill="#000000" font-family="sans-serif" font-size="12" lengthAdjust="spacingAndGlyphs" textLength="101" x="434.25" y="63.1543">RatingController</text><line style="stroke: #A80036; stroke-width: 1.5;" x1="387" x2="553" y1="75" y2="75"/><rect fill="none" height="6" style="stroke: #C82930; stroke-width: 1.0;" width="6" x="394" y="83"/><text fill="#000000" font-family="sans-serif" font-size="11" lengthAdjust="spacingAndGlyphs" textLength="121" x="406" y="89.2104">searchButton: Button</text><rect fill="none" height="6" style="stroke: #C82930; stroke-width: 1.0;" width="6" x="394" y="95.8047"/><text fill="#000000" font-family="sans-serif" font-size="11" lengthAdjust="spacingAndGlyphs" textLength="90" x="406" y="102.0151">name: TextField</text><rect fill="none" height="6" style="stroke: #C82930; stroke-width: 1.0;" width="6" x="394" y="108.6094"/><text fill="#000000" font-family="sans-serif" font-size="11" lengthAdjust="spacingAndGlyphs" textLength="139" x="406" y="114.8198">unratedItems: CheckBox</text><rect fill="none" height="6" style="stroke: #C82930; stroke-width: 1.0;" width="6" x="394" y="121.4141"/><text fill="#000000" font-family="sans-serif" font-size="11" lengthAdjust="spacingAndGlyphs" textLength="125" x="406" y="127.6245">ratedItems: CheckBox</text><rect fill="none" height="6" style="stroke: #C82930; stroke-width: 1.0;" width="6" x="394" y="134.2188"/><text fill="#000000" font-family="sans-serif" font-size="11" lengthAdjust="spacingAndGlyphs" textLength="117" x="406" y="140.4292">popupButton: Button</text><rect fill="none" height="6" style="stroke: #C82930; stroke-width: 1.0;" width="6" x="394" y="147.0234"/><text fill="#000000" font-family="sans-serif" font-size="11" lengthAdjust="spacingAndGlyphs" textLength="142" x="406" y="153.2339">popupRateButton: Button</text><rect fill="none" height="6" style="stroke: #C82930; stroke-width: 1.0;" width="6" x="394" y="159.8281"/><text fill="#000000" font-family="sans-serif" font-size="11" lengthAdjust="spacingAndGlyphs" textLength="109" x="406" y="166.0386">popupSlider: Slider</text><rect fill="none" height="6" style="stroke: #C82930; stroke-width: 1.0;" width="6" x="394" y="172.6328"/><text fill="#000000" font-family="sans-serif" font-size="11" lengthAdjust="spacingAndGlyphs" textLength="112" x="406" y="178.8433">popupClose: Button</text><line style="stroke: #A80036; stroke-width: 1.5;" x1="387" x2="553" y1="185.4375" y2="185.4375"/><ellipse cx="397" cy="196.4375" fill="#84BE84" rx="3" ry="3" style="stroke: #038048; stroke-width: 1.0;"/><text fill="#000000" font-family="sans-serif" font-size="11" lengthAdjust="spacingAndGlyphs" textLength="78" x="406" y="199.6479">search(): void</text><ellipse cx="397" cy="209.2422" fill="#84BE84" rx="3" ry="3" style="stroke: #038048; stroke-width: 1.0;"/><text fill="#000000" font-family="sans-serif" font-size="11" lengthAdjust="spacingAndGlyphs" textLength="62" x="406" y="212.4526">rate(): void</text><ellipse cx="397" cy="222.0469" fill="#84BE84" rx="3" ry="3" style="stroke: #038048; stroke-width: 1.0;"/><text fill="#000000" font-family="sans-serif" font-size="11" lengthAdjust="spacingAndGlyphs" textLength="74" x="406" y="225.2573">popup(): void</text><ellipse cx="397" cy="234.8516" fill="#84BE84" rx="3" ry="3" style="stroke: #038048; stroke-width: 1.0;"/><text fill="#000000" font-family="sans-serif" font-size="11" lengthAdjust="spacingAndGlyphs" textLength="104" x="406" y="238.062">closePopup(): void</text><!--MD5=[e5d13ab87021bc22fddbbc56b664b33e]
class RatingFacade--><rect fill="#FEFECE" filter="url(#f1de7q5jxbgztm)" height="73.6094" id="RatingFacade" style="stroke: #A80036; stroke-width: 1.5;" width="445" x="247.5" y="311"/><ellipse cx="422.75" cy="327" fill="#ADD1B2" rx="11" ry="11" style="stroke: #A80036; stroke-width: 1.0;"/><path d="M425.7188,332.6406 Q425.1406,332.9375 424.5,333.0859 Q423.8594,333.2344 423.1563,333.2344 Q420.6563,333.2344 419.3359,331.5859 Q418.0156,329.9375 418.0156,326.8125 Q418.0156,323.6875 419.3359,322.0313 Q420.6563,320.375 423.1563,320.375 Q423.8594,320.375 424.5078,320.5313 Q425.1563,320.6875 425.7188,320.9844 L425.7188,323.7031 Q425.0938,323.125 424.5,322.8516 Q423.9063,322.5781 423.2813,322.5781 Q421.9375,322.5781 421.25,323.6484 Q420.5625,324.7188 420.5625,326.8125 Q420.5625,328.9063 421.25,329.9766 Q421.9375,331.0469 423.2813,331.0469 Q423.9063,331.0469 424.5,330.7734 Q425.0938,330.5 425.7188,329.9219 L425.7188,332.6406 Z "/><text fill="#000000" font-family="sans-serif" font-size="12" lengthAdjust="spacingAndGlyphs" textLength="86" x="443.25" y="331.1543">RatingFacade</text><line style="stroke: #A80036; stroke-width: 1.5;" x1="248.5" x2="691.5" y1="343" y2="343"/><line style="stroke: #A80036; stroke-width: 1.5;" x1="248.5" x2="691.5" y1="351" y2="351"/><ellipse cx="258.5" cy="362" fill="#84BE84" rx="3" ry="3" style="stroke: #038048; stroke-width: 1.0;"/><text fill="#000000" font-family="sans-serif" font-size="11" lengthAdjust="spacingAndGlyphs" textLength="419" x="267.5" y="365.2104">search(String name, Boolean unratedItems, Boolean ratedItems): Items[]</text><ellipse cx="258.5" cy="374.8047" fill="#84BE84" rx="3" ry="3" style="stroke: #038048; stroke-width: 1.0;"/><text fill="#000000" font-family="sans-serif" font-size="11" lengthAdjust="spacingAndGlyphs" textLength="155" x="267.5" y="378.0151">rate(Item itemId, float rate)</text><!--MD5=[4a0300a6597e068a69ac5dc42e345e2c]
class DAOFactory--><rect fill="#FEFECE" filter="url(#f1de7q5jxbgztm)" height="60.8047" id="DAOFactory" style="stroke: #A80036; stroke-width: 1.5;" width="178" x="381" y="457.5"/><ellipse cx="429.75" cy="473.5" fill="#A9DCDF" rx="11" ry="11" style="stroke: #A80036; stroke-width: 1.0;"/><path d="M429.8594,468.8438 L428.7031,473.9219 L431.0313,473.9219 L429.8594,468.8438 Z M428.375,466.6094 L431.3594,466.6094 L434.7188,479 L432.2656,479 L431.5,475.9375 L428.2188,475.9375 L427.4688,479 L425.0313,479 L428.375,466.6094 Z "/><text fill="#000000" font-family="sans-serif" font-size="12" font-style="italic" lengthAdjust="spacingAndGlyphs" textLength="72" x="450.25" y="477.6543">DAOFactory</text><line style="stroke: #A80036; stroke-width: 1.5;" x1="382" x2="558" y1="489.5" y2="489.5"/><line style="stroke: #A80036; stroke-width: 1.5;" x1="382" x2="558" y1="497.5" y2="497.5"/><ellipse cx="392" cy="508.5" fill="#84BE84" rx="3" ry="3" style="stroke: #038048; stroke-width: 1.0;"/><text fill="#000000" font-family="sans-serif" font-size="11" lengthAdjust="spacingAndGlyphs" textLength="152" x="401" y="511.7104">getRatingDAO(): RatingDAO</text><!--MD5=[8d54e6243788548ab578e2d48ea5c118]
class RatingDAO--><rect fill="#FEFECE" filter="url(#f1de7q5jxbgztm)" height="73.6094" id="RatingDAO" style="stroke: #A80036; stroke-width: 1.5;" width="263" x="27.5" y="451"/><ellipse cx="121.75" cy="467" fill="#B4A7E5" rx="11" ry="11" style="stroke: #A80036; stroke-width: 1.0;"/><path d="M117.6719,462.7656 L117.6719,460.6094 L125.0625,460.6094 L125.0625,462.7656 L122.5938,462.7656 L122.5938,470.8438 L125.0625,470.8438 L125.0625,473 L117.6719,473 L117.6719,470.8438 L120.1406,470.8438 L120.1406,462.7656 L117.6719,462.7656 Z "/><text fill="#000000" font-family="sans-serif" font-size="12" font-style="italic" lengthAdjust="spacingAndGlyphs" textLength="66" x="142.25" y="471.1543">RatingDAO</text><line style="stroke: #A80036; stroke-width: 1.5;" x1="28.5" x2="289.5" y1="483" y2="483"/><line style="stroke: #A80036; stroke-width: 1.5;" x1="28.5" x2="289.5" y1="491" y2="491"/><ellipse cx="38.5" cy="502" fill="#84BE84" rx="3" ry="3" style="stroke: #038048; stroke-width: 1.0;"/><text fill="#000000" font-family="sans-serif" font-size="11" lengthAdjust="spacingAndGlyphs" textLength="237" x="47.5" y="505.2104">search(String, Boolean, Boolean): Items[]</text><ellipse cx="38.5" cy="514.8047" fill="#84BE84" rx="3" ry="3" style="stroke: #038048; stroke-width: 1.0;"/><text fill="#000000" font-family="sans-serif" font-size="11" lengthAdjust="spacingAndGlyphs" textLength="147" x="47.5" y="518.0151">create(Rating rating): void</text><!--MD5=[043d28c3f7aa63d4d97844ce9ca8572d]
class PostgresRatingDAO--><rect fill="#FEFECE" filter="url(#f1de7q5jxbgztm)" height="73.6094" id="PostgresRatingDAO" style="stroke: #A80036; stroke-width: 1.5;" width="276" x="30" y="653"/><ellipse cx="102.75" cy="669" fill="#ADD1B2" rx="11" ry="11" style="stroke: #A80036; stroke-width: 1.0;"/><path d="M105.7188,674.6406 Q105.1406,674.9375 104.5,675.0859 Q103.8594,675.2344 103.1563,675.2344 Q100.6563,675.2344 99.3359,673.5859 Q98.0156,671.9375 98.0156,668.8125 Q98.0156,665.6875 99.3359,664.0313 Q100.6563,662.375 103.1563,662.375 Q103.8594,662.375 104.5078,662.5313 Q105.1563,662.6875 105.7188,662.9844 L105.7188,665.7031 Q105.0938,665.125 104.5,664.8516 Q103.9063,664.5781 103.2813,664.5781 Q101.9375,664.5781 101.25,665.6484 Q100.5625,666.7188 100.5625,668.8125 Q100.5625,670.9063 101.25,671.9766 Q101.9375,673.0469 103.2813,673.0469 Q103.9063,673.0469 104.5,672.7734 Q105.0938,672.5 105.7188,671.9219 L105.7188,674.6406 Z "/><text fill="#000000" font-family="sans-serif" font-size="12" lengthAdjust="spacingAndGlyphs" textLength="122" x="123.25" y="673.1543">PostgresRatingDAO</text><line style="stroke: #A80036; stroke-width: 1.5;" x1="31" x2="305" y1="685" y2="685"/><rect fill="none" height="6" style="stroke: #C82930; stroke-width: 1.0;" width="6" x="38" y="693"/><text fill="#000000" font-family="sans-serif" font-size="11" lengthAdjust="spacingAndGlyphs" textLength="132" x="50" y="699.2104">connection: Connection</text><line style="stroke: #A80036; stroke-width: 1.5;" x1="31" x2="305" y1="705.8047" y2="705.8047"/><ellipse cx="41" cy="716.8047" fill="#84BE84" rx="3" ry="3" style="stroke: #038048; stroke-width: 1.0;"/><text fill="#000000" font-family="sans-serif" font-size="11" lengthAdjust="spacingAndGlyphs" textLength="250" x="50" y="720.0151">PostgresRatingDAO(Connection: connection)</text><!--MD5=[700a5a1f58ccb71a3c0d036256714175]
class PostgresDAOFactory--><rect fill="#FEFECE" filter="url(#f1de7q5jxbgztm)" height="60.8047" id="PostgresDAOFactory" style="stroke: #A80036; stroke-width: 1.5;" width="160" x="391" y="659.5"/><ellipse cx="406" cy="675.5" fill="#ADD1B2" rx="11" ry="11" style="stroke: #A80036; stroke-width: 1.0;"/><path d="M408.9688,681.1406 Q408.3906,681.4375 407.75,681.5859 Q407.1094,681.7344 406.4063,681.7344 Q403.9063,681.7344 402.5859,680.0859 Q401.2656,678.4375 401.2656,675.3125 Q401.2656,672.1875 402.5859,670.5313 Q403.9063,668.875 406.4063,668.875 Q407.1094,668.875 407.7578,669.0313 Q408.4063,669.1875 408.9688,669.4844 L408.9688,672.2031 Q408.3438,671.625 407.75,671.3516 Q407.1563,671.0781 406.5313,671.0781 Q405.1875,671.0781 404.5,672.1484 Q403.8125,673.2188 403.8125,675.3125 Q403.8125,677.4063 404.5,678.4766 Q405.1875,679.5469 406.5313,679.5469 Q407.1563,679.5469 407.75,679.2734 Q408.3438,679 408.9688,678.4219 L408.9688,681.1406 Z "/><text fill="#000000" font-family="sans-serif" font-size="12" lengthAdjust="spacingAndGlyphs" textLength="128" x="420" y="679.6543">PostgresDAOFactory</text><line style="stroke: #A80036; stroke-width: 1.5;" x1="392" x2="550" y1="691.5" y2="691.5"/><rect fill="none" height="6" style="stroke: #C82930; stroke-width: 1.0;" width="6" x="399" y="699.5"/><text fill="#000000" font-family="sans-serif" font-size="11" lengthAdjust="spacingAndGlyphs" textLength="132" x="411" y="705.7104">connection: Connection</text><line style="stroke: #A80036; stroke-width: 1.5;" x1="392" x2="550" y1="712.3047" y2="712.3047"/><!--MD5=[5f2af719d22776f201248d3b1f3564bc]
reverse link RatingDAO to PostgresRatingDAO--><path d="M161.551,545.2563 C163.0887,579.7675 165.0026,622.7245 166.3445,652.8435 " fill="none" id="RatingDAO&lt;-PostgresRatingDAO" style="stroke: #A80036; stroke-width: 1.0; stroke-dasharray: 7.0,7.0;"/><polygon fill="none" points="154.548,545.3417,160.6507,525.0499,168.5341,544.7185,154.548,545.3417" style="stroke: #A80036; stroke-width: 1.0;"/><!--MD5=[d37a47b44041b5251d0f0ec75d3c62d9]
reverse link DAOFactory to PostgresDAOFactory--><path d="M470.2515,538.7938 C470.4394,576.7532 470.6901,627.4012 470.8483,659.3634 " fill="none" id="DAOFactory&lt;-PostgresDAOFactory" style="stroke: #A80036; stroke-width: 1.0;"/><polygon fill="none" points="463.2511,538.7139,470.1519,518.6795,477.2509,538.6445,463.2511,538.7139" style="stroke: #A80036; stroke-width: 1.0;"/><!--MD5=[d10ce2eb59d7cd3f08a4a269a4510000]
reverse link PostgresRatingDAO to PostgresDAOFactory--><path d="M311.3088,690 C338.6972,690 366.4437,690 390.9537,690 " fill="none" id="PostgresRatingDAO&lt;-PostgresDAOFactory" style="stroke: #A80036; stroke-width: 1.0; stroke-dasharray: 7.0,7.0;"/><polygon fill="#A80036" points="306.1998,690,315.1998,694,311.1998,690,315.1998,686,306.1998,690" style="stroke: #A80036; stroke-width: 1.0;"/><text fill="#000000" font-family="sans-serif" font-size="13" lengthAdjust="spacingAndGlyphs" textLength="48" x="324.5" y="683.0669">creates</text><!--MD5=[f3558f07741abf2898018c3d8a5eb886]
reverse link RatingDAO to DAOFactory--><path d="M296.2291,488 C324.8699,488 354.349,488 380.7074,488 " fill="none" id="RatingDAO&lt;-DAOFactory" style="stroke: #A80036; stroke-width: 1.0; stroke-dasharray: 7.0,7.0;"/><polygon fill="#A80036" points="290.892,488,299.892,492,295.892,488,299.892,484,290.892,488" style="stroke: #A80036; stroke-width: 1.0;"/><text fill="#000000" font-family="sans-serif" font-size="13" lengthAdjust="spacingAndGlyphs" textLength="54" x="308.75" y="481.0669">provides</text><!--MD5=[faaa8247888eb67fcf07a24b8ca1dc6d]
link RatingFacade to DAOFactory--><path d="M470,385.1499 C470,405.9105 470,431.6568 470,452.196 " fill="none" id="RatingFacade-&gt;DAOFactory" style="stroke: #A80036; stroke-width: 1.0;"/><polygon fill="#A80036" points="470,457.2994,474,448.2994,470,452.2994,466,448.2994,470,457.2994" style="stroke: #A80036; stroke-width: 1.0;"/><!--MD5=[4de21c1412093bc50d965131302097ce]
link RatingController to RatingFacade--><path d="M470,245.1035 C470,266.35 470,287.6483 470,305.3107 " fill="none" id="RatingController-&gt;RatingFacade" style="stroke: #A80036; stroke-width: 1.0;"/><polygon fill="#A80036" points="470,310.6713,474,301.6713,470,305.6713,466,301.6713,470,310.6713" style="stroke: #A80036; stroke-width: 1.0;"/><!--MD5=[0e607f1ae6a0d394bb37be160df8d7d1]
@startuml
package controller {

  class RatingController {
    -searchButton: Button
    -name: TextField
    -unratedItems: CheckBox
    -ratedItems: CheckBox
    -popupButton: Button
    -popupRateButton: Button
    -popupSlider: Slider
    -popupClose: Button
    +search(): void
    +rate(): void
    +popup(): void
    +closePopup(): void
  }

}

package rating {
  class RatingFacade {
    +search(String name, Boolean unratedItems, Boolean ratedItems): Items[]
    +rate(Item itemId, float rate)
  }
}

package dao {
  abstract class DAOFactory {
    +getRatingDAO(): RatingDAO
  }

  interface RatingDAO {
    +search(String, Boolean, Boolean): Items[]
    +create(Rating rating): void
  }

  package postgres {

    class PostgresRatingDAO implements RatingDAO {
      -connection: Connection
      +PostgresRatingDAO(Connection: connection)
    }

    class PostgresDAOFactory extends DAOFactory {
      -connection: Connection
    }

  }

}

PostgresDAOFactory .left> PostgresRatingDAO : "creates"
DAOFactory .left> RatingDAO : "provides"


RatingFacade -down-> DAOFactory
RatingController - -> RatingFacade
@enduml

PlantUML version 1.2019.12(Sun Nov 03 10:24:54 UTC 2019)
(GPL source distribution)
Java Runtime: OpenJDK Runtime Environment
JVM: OpenJDK 64-Bit Server VM
Java Version: 1.8.0_232-heroku-b09
Operating System: Linux
Default Encoding: UTF-8
Language: en
Country: US
--></g></svg>