<?xml version="1.0" encoding="UTF-8" standalone="no"?><svg xmlns="http://www.w3.org/2000/svg" xmlns:xlink="http://www.w3.org/1999/xlink" contentScriptType="application/ecmascript" contentStyleType="text/css" height="690px" preserveAspectRatio="none" style="width:589px;height:690px;" version="1.1" viewBox="0 0 589 690" width="589px" zoomAndPan="magnify"><defs><filter height="300%" id="f7f6i4ukzqqmz" width="300%" x="-1" y="-1"><feGaussianBlur result="blurOut" stdDeviation="2.0"/><feColorMatrix in="blurOut" result="blurOut2" type="matrix" values="0 0 0 0 0 0 0 0 0 0 0 0 0 0 0 0 0 0 .4 0"/><feOffset dx="4.0" dy="4.0" in="blurOut2" result="blurOut3"/><feBlend in="SourceGraphic" in2="blurOut3" mode="normal"/></filter></defs><g><!--MD5=[10ea673caf457862023e152271927b45]
cluster controller--><polygon fill="#FFFFFF" filter="url(#f7f6i4ukzqqmz)" points="328,16,411,16,418,38.2969,564,38.2969,564,214,328,214,328,16" style="stroke: #000000; stroke-width: 1.5;"/><line style="stroke: #000000; stroke-width: 1.5;" x1="328" x2="418" y1="38.2969" y2="38.2969"/><text fill="#000000" font-family="sans-serif" font-size="14" font-weight="bold" lengthAdjust="spacingAndGlyphs" textLength="77" x="332" y="30.9951">controller</text><!--MD5=[1bba25019853a49d0bcd05d526747720]
cluster recommandation--><polygon fill="#FFFFFF" filter="url(#f7f6i4ukzqqmz)" points="344,245,482,245,489,267.2969,548,267.2969,548,341,344,341,344,245" style="stroke: #000000; stroke-width: 1.5;"/><line style="stroke: #000000; stroke-width: 1.5;" x1="344" x2="489" y1="267.2969" y2="267.2969"/><text fill="#000000" font-family="sans-serif" font-size="14" font-weight="bold" lengthAdjust="spacingAndGlyphs" textLength="132" x="348" y="259.9951">recommandation</text><!--MD5=[5622bc4ba3bf2be5d17935065b98c5f9]
cluster dao--><polygon fill="#FFFFFF" filter="url(#f7f6i4ukzqqmz)" points="14,372,49,372,56,394.2969,567,394.2969,567,678,14,678,14,372" style="stroke: #000000; stroke-width: 1.5;"/><line style="stroke: #000000; stroke-width: 1.5;" x1="14" x2="56" y1="394.2969" y2="394.2969"/><text fill="#000000" font-family="sans-serif" font-size="14" font-weight="bold" lengthAdjust="spacingAndGlyphs" textLength="29" x="18" y="386.9951">dao</text><!--MD5=[bab4019c732006648757f54388533847]
cluster postgres--><polygon fill="#FFFFFF" filter="url(#f7f6i4ukzqqmz)" points="22,561,99,561,106,583.2969,559,583.2969,559,670,22,670,22,561" style="stroke: #000000; stroke-width: 1.5;"/><line style="stroke: #000000; stroke-width: 1.5;" x1="22" x2="106" y1="583.2969" y2="583.2969"/><text fill="#000000" font-family="sans-serif" font-size="14" font-weight="bold" lengthAdjust="spacingAndGlyphs" textLength="71" x="26" y="575.9951">postgres</text><!--MD5=[0fdb6b9a11c11e091da4524ffc23f7d0]
class RecommandationController--><rect fill="#FEFECE" filter="url(#f7f6i4ukzqqmz)" height="163.2422" id="RecommandationController" style="stroke: #A80036; stroke-width: 1.5;" width="219" x="336.5" y="43"/><ellipse cx="359.15" cy="59" fill="#ADD1B2" rx="11" ry="11" style="stroke: #A80036; stroke-width: 1.0;"/><path d="M362.1188,64.6406 Q361.5406,64.9375 360.9,65.0859 Q360.2594,65.2344 359.5563,65.2344 Q357.0563,65.2344 355.7359,63.5859 Q354.4156,61.9375 354.4156,58.8125 Q354.4156,55.6875 355.7359,54.0313 Q357.0563,52.375 359.5563,52.375 Q360.2594,52.375 360.9078,52.5313 Q361.5563,52.6875 362.1188,52.9844 L362.1188,55.7031 Q361.4938,55.125 360.9,54.8516 Q360.3063,54.5781 359.6813,54.5781 Q358.3375,54.5781 357.65,55.6484 Q356.9625,56.7188 356.9625,58.8125 Q356.9625,60.9063 357.65,61.9766 Q358.3375,63.0469 359.6813,63.0469 Q360.3063,63.0469 360.9,62.7734 Q361.4938,62.5 362.1188,61.9219 L362.1188,64.6406 Z "/><text fill="#000000" font-family="sans-serif" font-size="12" lengthAdjust="spacingAndGlyphs" textLength="170" x="374.85" y="63.1543">RecommandationController</text><line style="stroke: #A80036; stroke-width: 1.5;" x1="337.5" x2="554.5" y1="75" y2="75"/><rect fill="none" height="6" style="stroke: #C82930; stroke-width: 1.0;" width="6" x="344.5" y="83"/><text fill="#000000" font-family="sans-serif" font-size="11" lengthAdjust="spacingAndGlyphs" textLength="67" x="356.5" y="89.2104">type: Select</text><rect fill="none" height="6" style="stroke: #C82930; stroke-width: 1.0;" width="6" x="344.5" y="95.8047"/><text fill="#000000" font-family="sans-serif" font-size="11" lengthAdjust="spacingAndGlyphs" textLength="107" x="356.5" y="102.0151">category: TextField</text><rect fill="none" height="6" style="stroke: #C82930; stroke-width: 1.0;" width="6" x="344.5" y="108.6094"/><text fill="#000000" font-family="sans-serif" font-size="11" lengthAdjust="spacingAndGlyphs" textLength="78" x="356.5" y="114.8198">cdd: TextField</text><rect fill="none" height="6" style="stroke: #C82930; stroke-width: 1.0;" width="6" x="344.5" y="121.4141"/><text fill="#000000" font-family="sans-serif" font-size="11" lengthAdjust="spacingAndGlyphs" textLength="90" x="356.5" y="127.6245">name: TextField</text><rect fill="none" height="6" style="stroke: #C82930; stroke-width: 1.0;" width="6" x="344.5" y="134.2188"/><text fill="#000000" font-family="sans-serif" font-size="11" lengthAdjust="spacingAndGlyphs" textLength="88" x="356.5" y="140.4292">other: TextField</text><rect fill="none" height="6" style="stroke: #C82930; stroke-width: 1.0;" width="6" x="344.5" y="147.0234"/><text fill="#000000" font-family="sans-serif" font-size="11" lengthAdjust="spacingAndGlyphs" textLength="84" x="356.5" y="153.2339">search: Button</text><rect fill="none" height="6" style="stroke: #C82930; stroke-width: 1.0;" width="6" x="344.5" y="159.8281"/><text fill="#000000" font-family="sans-serif" font-size="11" lengthAdjust="spacingAndGlyphs" textLength="144" x="356.5" y="166.0386">recommandations: Item[]</text><line style="stroke: #A80036; stroke-width: 1.5;" x1="337.5" x2="554.5" y1="172.6328" y2="172.6328"/><ellipse cx="347.5" cy="183.6328" fill="#84BE84" rx="3" ry="3" style="stroke: #038048; stroke-width: 1.0;"/><text fill="#000000" font-family="sans-serif" font-size="11" lengthAdjust="spacingAndGlyphs" textLength="65" x="356.5" y="186.8433">filter(): void</text><ellipse cx="347.5" cy="196.4375" fill="#84BE84" rx="3" ry="3" style="stroke: #038048; stroke-width: 1.0;"/><text fill="#000000" font-family="sans-serif" font-size="11" lengthAdjust="spacingAndGlyphs" textLength="193" x="356.5" y="199.6479">computeRecommandations(): void</text><!--MD5=[e2bf062926a1d788c76b6ce44f474f1c]
class RecommandationFacade--><rect fill="#FEFECE" filter="url(#f7f6i4ukzqqmz)" height="60.8047" id="RecommandationFacade" style="stroke: #A80036; stroke-width: 1.5;" width="188" x="352" y="272"/><ellipse cx="367.45" cy="288" fill="#ADD1B2" rx="11" ry="11" style="stroke: #A80036; stroke-width: 1.0;"/><path d="M370.4188,293.6406 Q369.8406,293.9375 369.2,294.0859 Q368.5594,294.2344 367.8563,294.2344 Q365.3563,294.2344 364.0359,292.5859 Q362.7156,290.9375 362.7156,287.8125 Q362.7156,284.6875 364.0359,283.0313 Q365.3563,281.375 367.8563,281.375 Q368.5594,281.375 369.2078,281.5313 Q369.8563,281.6875 370.4188,281.9844 L370.4188,284.7031 Q369.7938,284.125 369.2,283.8516 Q368.6063,283.5781 367.9813,283.5781 Q366.6375,283.5781 365.95,284.6484 Q365.2625,285.7188 365.2625,287.8125 Q365.2625,289.9063 365.95,290.9766 Q366.6375,292.0469 367.9813,292.0469 Q368.6063,292.0469 369.2,291.7734 Q369.7938,291.5 370.4188,290.9219 L370.4188,293.6406 Z "/><text fill="#000000" font-family="sans-serif" font-size="12" lengthAdjust="spacingAndGlyphs" textLength="155" x="381.55" y="292.1543">RecommandationFacade</text><line style="stroke: #A80036; stroke-width: 1.5;" x1="353" x2="539" y1="304" y2="304"/><line style="stroke: #A80036; stroke-width: 1.5;" x1="353" x2="539" y1="312" y2="312"/><ellipse cx="363" cy="323" fill="#84BE84" rx="3" ry="3" style="stroke: #038048; stroke-width: 1.0;"/><text fill="#000000" font-family="sans-serif" font-size="11" lengthAdjust="spacingAndGlyphs" textLength="162" x="372" y="326.2104">computeRecommandations()</text><!--MD5=[4a0300a6597e068a69ac5dc42e345e2c]
class DAOFactory--><rect fill="#FEFECE" filter="url(#f7f6i4ukzqqmz)" height="60.8047" id="DAOFactory" style="stroke: #A80036; stroke-width: 1.5;" width="178" x="357" y="399"/><ellipse cx="405.75" cy="415" fill="#A9DCDF" rx="11" ry="11" style="stroke: #A80036; stroke-width: 1.0;"/><path d="M405.8594,410.3438 L404.7031,415.4219 L407.0313,415.4219 L405.8594,410.3438 Z M404.375,408.1094 L407.3594,408.1094 L410.7188,420.5 L408.2656,420.5 L407.5,417.4375 L404.2188,417.4375 L403.4688,420.5 L401.0313,420.5 L404.375,408.1094 Z "/><text fill="#000000" font-family="sans-serif" font-size="12" font-style="italic" lengthAdjust="spacingAndGlyphs" textLength="72" x="426.25" y="419.1543">DAOFactory</text><line style="stroke: #A80036; stroke-width: 1.5;" x1="358" x2="534" y1="431" y2="431"/><line style="stroke: #A80036; stroke-width: 1.5;" x1="358" x2="534" y1="439" y2="439"/><ellipse cx="368" cy="450" fill="#84BE84" rx="3" ry="3" style="stroke: #038048; stroke-width: 1.0;"/><text fill="#000000" font-family="sans-serif" font-size="11" lengthAdjust="spacingAndGlyphs" textLength="152" x="377" y="453.2104">getRatingDAO(): RatingDAO</text><!--MD5=[8d54e6243788548ab578e2d48ea5c118]
class RatingDAO--><rect fill="#FEFECE" filter="url(#f7f6i4ukzqqmz)" height="60.8047" id="RatingDAO" style="stroke: #A80036; stroke-width: 1.5;" width="158" x="97" y="399"/><ellipse cx="139" cy="415" fill="#B4A7E5" rx="11" ry="11" style="stroke: #A80036; stroke-width: 1.0;"/><path d="M134.9219,410.7656 L134.9219,408.6094 L142.3125,408.6094 L142.3125,410.7656 L139.8438,410.7656 L139.8438,418.8438 L142.3125,418.8438 L142.3125,421 L134.9219,421 L134.9219,418.8438 L137.3906,418.8438 L137.3906,410.7656 L134.9219,410.7656 Z "/><text fill="#000000" font-family="sans-serif" font-size="12" font-style="italic" lengthAdjust="spacingAndGlyphs" textLength="66" x="159" y="419.1543">RatingDAO</text><line style="stroke: #A80036; stroke-width: 1.5;" x1="98" x2="254" y1="431" y2="431"/><line style="stroke: #A80036; stroke-width: 1.5;" x1="98" x2="254" y1="439" y2="439"/><ellipse cx="108" cy="450" fill="#84BE84" rx="3" ry="3" style="stroke: #038048; stroke-width: 1.0;"/><text fill="#000000" font-family="sans-serif" font-size="11" lengthAdjust="spacingAndGlyphs" textLength="132" x="117" y="453.2104">getAllRatings(): Rating[]</text><!--MD5=[043d28c3f7aa63d4d97844ce9ca8572d]
class PostgresRatingDAO--><rect fill="#FEFECE" filter="url(#f7f6i4ukzqqmz)" height="73.6094" id="PostgresRatingDAO" style="stroke: #A80036; stroke-width: 1.5;" width="276" x="30" y="588"/><ellipse cx="102.75" cy="604" fill="#ADD1B2" rx="11" ry="11" style="stroke: #A80036; stroke-width: 1.0;"/><path d="M105.7188,609.6406 Q105.1406,609.9375 104.5,610.0859 Q103.8594,610.2344 103.1563,610.2344 Q100.6563,610.2344 99.3359,608.5859 Q98.0156,606.9375 98.0156,603.8125 Q98.0156,600.6875 99.3359,599.0313 Q100.6563,597.375 103.1563,597.375 Q103.8594,597.375 104.5078,597.5313 Q105.1563,597.6875 105.7188,597.9844 L105.7188,600.7031 Q105.0938,600.125 104.5,599.8516 Q103.9063,599.5781 103.2813,599.5781 Q101.9375,599.5781 101.25,600.6484 Q100.5625,601.7188 100.5625,603.8125 Q100.5625,605.9063 101.25,606.9766 Q101.9375,608.0469 103.2813,608.0469 Q103.9063,608.0469 104.5,607.7734 Q105.0938,607.5 105.7188,606.9219 L105.7188,609.6406 Z "/><text fill="#000000" font-family="sans-serif" font-size="12" lengthAdjust="spacingAndGlyphs" textLength="122" x="123.25" y="608.1543">PostgresRatingDAO</text><line style="stroke: #A80036; stroke-width: 1.5;" x1="31" x2="305" y1="620" y2="620"/><rect fill="none" height="6" style="stroke: #C82930; stroke-width: 1.0;" width="6" x="38" y="628"/><text fill="#000000" font-family="sans-serif" font-size="11" lengthAdjust="spacingAndGlyphs" textLength="132" x="50" y="634.2104">connection: Connection</text><line style="stroke: #A80036; stroke-width: 1.5;" x1="31" x2="305" y1="640.8047" y2="640.8047"/><ellipse cx="41" cy="651.8047" fill="#84BE84" rx="3" ry="3" style="stroke: #038048; stroke-width: 1.0;"/><text fill="#000000" font-family="sans-serif" font-size="11" lengthAdjust="spacingAndGlyphs" textLength="250" x="50" y="655.0151">PostgresRatingDAO(Connection: connection)</text><!--MD5=[700a5a1f58ccb71a3c0d036256714175]
class PostgresDAOFactory--><rect fill="#FEFECE" filter="url(#f7f6i4ukzqqmz)" height="60.8047" id="PostgresDAOFactory" style="stroke: #A80036; stroke-width: 1.5;" width="160" x="391" y="594.5"/><ellipse cx="406" cy="610.5" fill="#ADD1B2" rx="11" ry="11" style="stroke: #A80036; stroke-width: 1.0;"/><path d="M408.9688,616.1406 Q408.3906,616.4375 407.75,616.5859 Q407.1094,616.7344 406.4063,616.7344 Q403.9063,616.7344 402.5859,615.0859 Q401.2656,613.4375 401.2656,610.3125 Q401.2656,607.1875 402.5859,605.5313 Q403.9063,603.875 406.4063,603.875 Q407.1094,603.875 407.7578,604.0313 Q408.4063,604.1875 408.9688,604.4844 L408.9688,607.2031 Q408.3438,606.625 407.75,606.3516 Q407.1563,606.0781 406.5313,606.0781 Q405.1875,606.0781 404.5,607.1484 Q403.8125,608.2188 403.8125,610.3125 Q403.8125,612.4063 404.5,613.4766 Q405.1875,614.5469 406.5313,614.5469 Q407.1563,614.5469 407.75,614.2734 Q408.3438,614 408.9688,613.4219 L408.9688,616.1406 Z "/><text fill="#000000" font-family="sans-serif" font-size="12" lengthAdjust="spacingAndGlyphs" textLength="128" x="420" y="614.6543">PostgresDAOFactory</text><line style="stroke: #A80036; stroke-width: 1.5;" x1="392" x2="550" y1="626.5" y2="626.5"/><rect fill="none" height="6" style="stroke: #C82930; stroke-width: 1.0;" width="6" x="399" y="634.5"/><text fill="#000000" font-family="sans-serif" font-size="11" lengthAdjust="spacingAndGlyphs" textLength="132" x="411" y="640.7104">connection: Connection</text><line style="stroke: #A80036; stroke-width: 1.5;" x1="392" x2="550" y1="647.3047" y2="647.3047"/><!--MD5=[5f2af719d22776f201248d3b1f3564bc]
reverse link RatingDAO to PostgresRatingDAO--><path d="M173.9304,480.0755 C172.549,513.8337 170.7635,557.4661 169.5141,587.9981 " fill="none" id="RatingDAO&lt;-PostgresRatingDAO" style="stroke: #A80036; stroke-width: 1.0; stroke-dasharray: 7.0,7.0;"/><polygon fill="none" points="166.938,479.7439,174.75,460.0469,180.9263,480.3164,166.938,479.7439" style="stroke: #A80036; stroke-width: 1.0;"/><!--MD5=[d37a47b44041b5251d0f0ec75d3c62d9]
reverse link DAOFactory to PostgresDAOFactory--><path d="M452.4679,480.0792 C457.0938,516.2537 463.1694,563.7651 467.08,594.3457 " fill="none" id="DAOFactory&lt;-PostgresDAOFactory" style="stroke: #A80036; stroke-width: 1.0;"/><polygon fill="none" points="445.4998,480.7733,449.9063,460.0469,459.3867,478.9974,445.4998,480.7733" style="stroke: #A80036; stroke-width: 1.0;"/><!--MD5=[d10ce2eb59d7cd3f08a4a269a4510000]
reverse link PostgresRatingDAO to PostgresDAOFactory--><path d="M311.3088,625 C338.6972,625 366.4437,625 390.9537,625 " fill="none" id="PostgresRatingDAO&lt;-PostgresDAOFactory" style="stroke: #A80036; stroke-width: 1.0; stroke-dasharray: 7.0,7.0;"/><polygon fill="#A80036" points="306.1998,625,315.1998,629,311.1998,625,315.1998,621,306.1998,625" style="stroke: #A80036; stroke-width: 1.0;"/><text fill="#000000" font-family="sans-serif" font-size="13" lengthAdjust="spacingAndGlyphs" textLength="48" x="324.5" y="618.0669">creates</text><!--MD5=[f3558f07741abf2898018c3d8a5eb886]
reverse link RatingDAO to DAOFactory--><path d="M260.4617,429.5 C291.112,429.5 325.8241,429.5 356.8648,429.5 " fill="none" id="RatingDAO&lt;-DAOFactory" style="stroke: #A80036; stroke-width: 1.0; stroke-dasharray: 7.0,7.0;"/><polygon fill="#A80036" points="255.1846,429.5,264.1846,433.5,260.1846,429.5,264.1846,425.5,255.1846,429.5" style="stroke: #A80036; stroke-width: 1.0;"/><text fill="#000000" font-family="sans-serif" font-size="13" lengthAdjust="spacingAndGlyphs" textLength="54" x="279" y="422.5669">provides</text><!--MD5=[fb010eb3007248f48ef550e0402ddae1]
link RecommandationFacade to DAOFactory--><path d="M446,333.2432 C446,351.3606 446,374.377 446,393.36 " fill="none" id="RecommandationFacade-&gt;DAOFactory" style="stroke: #A80036; stroke-width: 1.0;"/><polygon fill="#A80036" points="446,398.5998,450,389.5998,446,393.5998,442,389.5998,446,398.5998" style="stroke: #A80036; stroke-width: 1.0;"/><!--MD5=[feba5a278203ab902275ed054dac1ee2]
link RecommandationController to RecommandationFacade--><path d="M446,206.2065 C446,227.4097 446,249.1687 446,266.6263 " fill="none" id="RecommandationController-&gt;RecommandationFacade" style="stroke: #A80036; stroke-width: 1.0;"/><polygon fill="#A80036" points="446,271.9007,450,262.9007,446,266.9007,442,262.9007,446,271.9007" style="stroke: #A80036; stroke-width: 1.0;"/><!--MD5=[9dfe96b777f52a28d6c448e85116365b]
@startuml
package controller {

  class RecommandationController {
    -type: Select
    -category: TextField
    -cdd: TextField
    -name: TextField
    -other: TextField
    -search: Button
    -recommandations: Item[]
    +filter(): void
    +computeRecommandations(): void
  }

}

package recommandation {
  class RecommandationFacade {
    +computeRecommandations()
  }
}

package dao {
  abstract class DAOFactory {
    +getRatingDAO(): RatingDAO
  }

  interface RatingDAO {
    +getAllRatings(): Rating[]
  }

  package postgres {

    class PostgresRatingDAO implements RatingDAO {
      -connection: Connection
      +PostgresRatingDAO(Connection: connection)
    }

    class PostgresDAOFactory extends DAOFactory {
      -connection: Connection
    }

  }

}

PostgresDAOFactory .left> PostgresRatingDAO : "creates"
DAOFactory .left> RatingDAO : "provides"


RecommandationFacade -down-> DAOFactory
RecommandationController - -> RecommandationFacade
@enduml

PlantUML version 1.2019.12(Sun Nov 03 10:24:54 UTC 2019)
(GPL source distribution)
Java Runtime: OpenJDK Runtime Environment
JVM: OpenJDK 64-Bit Server VM
Java Version: 1.8.0_232-heroku-b09
Operating System: Linux
Default Encoding: UTF-8
Language: en
Country: US
--></g></svg>