<?xml version="1.0" encoding="UTF-8" standalone="no"?><svg xmlns="http://www.w3.org/2000/svg" xmlns:xlink="http://www.w3.org/1999/xlink" contentScriptType="application/ecmascript" contentStyleType="text/css" height="736px" preserveAspectRatio="none" style="width:968px;height:736px;" version="1.1" viewBox="0 0 968 736" width="968px" zoomAndPan="magnify"><defs><filter height="300%" id="f1rh4pm21ug6q9" width="300%" x="-1" y="-1"><feGaussianBlur result="blurOut" stdDeviation="2.0"/><feColorMatrix in="blurOut" result="blurOut2" type="matrix" values="0 0 0 0 0 0 0 0 0 0 0 0 0 0 0 0 0 0 .4 0"/><feOffset dx="4.0" dy="4.0" in="blurOut2" result="blurOut3"/><feBlend in="SourceGraphic" in2="blurOut3" mode="normal"/></filter></defs><g><!--MD5=[10ea673caf457862023e152271927b45]
cluster controller--><polygon fill="#FFFFFF" filter="url(#f1rh4pm21ug6q9)" points="743,97,826,97,833,119.2969,951,119.2969,951,270,743,270,743,97" style="stroke:#000000;stroke-width:1.5;"/><line style="stroke:#000000;stroke-width:1.5;" x1="743" x2="833" y1="119.2969" y2="119.2969"/><text fill="#000000" font-family="sans-serif" font-size="14" font-weight="bold" lengthAdjust="spacingAndGlyphs" textLength="77" x="747" y="111.9951">controller</text><!--MD5=[4aacadbe8a6026f0dd01fe1016e60b7f]
cluster item-search--><polygon fill="#FFFFFF" filter="url(#f1rh4pm21ug6q9)" points="207,6,307,6,314,28.2969,735,28.2969,735,392,207,392,207,6" style="stroke:#000000;stroke-width:1.5;"/><line style="stroke:#000000;stroke-width:1.5;" x1="207" x2="314" y1="28.2969" y2="28.2969"/><text fill="#000000" font-family="sans-serif" font-size="14" font-weight="bold" lengthAdjust="spacingAndGlyphs" textLength="94" x="211" y="20.9951">item-search</text><!--MD5=[5622bc4ba3bf2be5d17935065b98c5f9]
cluster dao--><polygon fill="#FFFFFF" filter="url(#f1rh4pm21ug6q9)" points="16,423,51,423,58,445.2969,598,445.2969,598,729,16,729,16,423" style="stroke:#000000;stroke-width:1.5;"/><line style="stroke:#000000;stroke-width:1.5;" x1="16" x2="58" y1="445.2969" y2="445.2969"/><text fill="#000000" font-family="sans-serif" font-size="14" font-weight="bold" lengthAdjust="spacingAndGlyphs" textLength="29" x="20" y="437.9951">dao</text><!--MD5=[bab4019c732006648757f54388533847]
cluster postgres--><polygon fill="#FFFFFF" filter="url(#f1rh4pm21ug6q9)" points="24,612,101,612,108,634.2969,590,634.2969,590,721,24,721,24,612" style="stroke:#000000;stroke-width:1.5;"/><line style="stroke:#000000;stroke-width:1.5;" x1="24" x2="108" y1="634.2969" y2="634.2969"/><text fill="#000000" font-family="sans-serif" font-size="14" font-weight="bold" lengthAdjust="spacingAndGlyphs" textLength="71" x="28" y="626.9951">postgres</text><!--MD5=[d8acc2fcb7fceca3e498947e64f7d6b3]
class ItemSearchController--><rect codeLine="3" fill="#FEFECE" filter="url(#f1rh4pm21ug6q9)" height="137.6328" id="ItemSearchController" style="stroke:#A80036;stroke-width:1.5;" width="192" x="751" y="124"/><ellipse cx="778.6" cy="140" fill="#ADD1B2" rx="11" ry="11" style="stroke:#A80036;stroke-width:1.0;"/><path d="M781.5688,145.6406 Q780.9906,145.9375 780.35,146.0781 Q779.7094,146.2344 779.0063,146.2344 Q776.5063,146.2344 775.1781,144.5938 Q773.8656,142.9375 773.8656,139.8125 Q773.8656,136.6875 775.1781,135.0313 Q776.5063,133.375 779.0063,133.375 Q779.7094,133.375 780.35,133.5313 Q781.0063,133.6875 781.5688,133.9844 L781.5688,136.7031 Q780.9438,136.125 780.35,135.8594 Q779.7563,135.5781 779.1313,135.5781 Q777.7875,135.5781 777.1,136.6563 Q776.4125,137.7188 776.4125,139.8125 Q776.4125,141.9063 777.1,142.9844 Q777.7875,144.0469 779.1313,144.0469 Q779.7563,144.0469 780.35,143.7813 Q780.9438,143.5 781.5688,142.9219 L781.5688,145.6406 Z " fill="#000000"/><text fill="#000000" font-family="sans-serif" font-size="12" lengthAdjust="spacingAndGlyphs" textLength="132" x="795.4" y="144.1543">ItemSearchController</text><line style="stroke:#A80036;stroke-width:1.5;" x1="752" x2="942" y1="156" y2="156"/><rect fill="none" height="6" style="stroke:#C82930;stroke-width:1.0;" width="6" x="759" y="164"/><text fill="#000000" font-family="sans-serif" font-size="11" lengthAdjust="spacingAndGlyphs" textLength="108" x="771" y="170.2104">typeField: TextField</text><rect fill="none" height="6" style="stroke:#C82930;stroke-width:1.0;" width="6" x="759" y="176.8047"/><text fill="#000000" font-family="sans-serif" font-size="11" lengthAdjust="spacingAndGlyphs" textLength="166" x="771" y="183.0151">cardIdOrNameField: TextField</text><rect fill="none" height="6" style="stroke:#C82930;stroke-width:1.0;" width="6" x="759" y="189.6094"/><text fill="#000000" font-family="sans-serif" font-size="11" lengthAdjust="spacingAndGlyphs" textLength="133" x="771" y="195.8198">categoryField: TextField</text><rect fill="none" height="6" style="stroke:#C82930;stroke-width:1.0;" width="6" x="759" y="202.4141"/><text fill="#000000" font-family="sans-serif" font-size="11" lengthAdjust="spacingAndGlyphs" textLength="104" x="771" y="208.6245">cddField: TextField</text><rect fill="none" height="6" style="stroke:#C82930;stroke-width:1.0;" width="6" x="759" y="215.2188"/><text fill="#000000" font-family="sans-serif" font-size="11" lengthAdjust="spacingAndGlyphs" textLength="128" x="771" y="221.4292">authorsField: TextField</text><rect fill="none" height="6" style="stroke:#C82930;stroke-width:1.0;" width="6" x="759" y="228.0234"/><text fill="#000000" font-family="sans-serif" font-size="11" lengthAdjust="spacingAndGlyphs" textLength="121" x="771" y="234.2339">searchButton: Button</text><line style="stroke:#A80036;stroke-width:1.5;" x1="752" x2="942" y1="240.8281" y2="240.8281"/><ellipse cx="762" cy="251.8281" fill="#84BE84" rx="3" ry="3" style="stroke:#038048;stroke-width:1.0;"/><text fill="#000000" font-family="sans-serif" font-size="11" lengthAdjust="spacingAndGlyphs" textLength="82" x="771" y="255.0386">search() : void</text><!--MD5=[85c1fd633340e15a69bb0b764d655fe7]
class ItemSearchFacade--><rect codeLine="16" fill="#FEFECE" filter="url(#f1rh4pm21ug6q9)" height="60.8047" id="ItemSearchFacade" style="stroke:#A80036;stroke-width:1.5;" width="512" x="215" y="323"/><ellipse cx="408.25" cy="339" fill="#ADD1B2" rx="11" ry="11" style="stroke:#A80036;stroke-width:1.0;"/><path d="M411.2188,344.6406 Q410.6406,344.9375 410,345.0781 Q409.3594,345.2344 408.6563,345.2344 Q406.1563,345.2344 404.8281,343.5938 Q403.5156,341.9375 403.5156,338.8125 Q403.5156,335.6875 404.8281,334.0313 Q406.1563,332.375 408.6563,332.375 Q409.3594,332.375 410,332.5313 Q410.6563,332.6875 411.2188,332.9844 L411.2188,335.7031 Q410.5938,335.125 410,334.8594 Q409.4063,334.5781 408.7813,334.5781 Q407.4375,334.5781 406.75,335.6563 Q406.0625,336.7188 406.0625,338.8125 Q406.0625,340.9063 406.75,341.9844 Q407.4375,343.0469 408.7813,343.0469 Q409.4063,343.0469 410,342.7813 Q410.5938,342.5 411.2188,341.9219 L411.2188,344.6406 Z " fill="#000000"/><text fill="#000000" font-family="sans-serif" font-size="12" lengthAdjust="spacingAndGlyphs" textLength="117" x="428.75" y="343.1543">ItemSearchFacade</text><line style="stroke:#A80036;stroke-width:1.5;" x1="216" x2="726" y1="355" y2="355"/><line style="stroke:#A80036;stroke-width:1.5;" x1="216" x2="726" y1="363" y2="363"/><ellipse cx="226" cy="374" fill="#84BE84" rx="3" ry="3" style="stroke:#038048;stroke-width:1.0;"/><text fill="#000000" font-family="sans-serif" font-size="11" lengthAdjust="spacingAndGlyphs" textLength="486" x="235" y="377.2104">search(String type, String category, String cdd, String cardId, String authors) : item[]</text><path d="M391.5,33 L391.5,58.1328 A0,0 0 0 0 391.5,58.1328 L467,58.1328 L471,322.8573 L475,58.1328 L550.5,58.1328 A0,0 0 0 0 550.5,58.1328 L550.5,43 L540.5,33 L391.5,33 A0,0 0 0 0 391.5,33 " fill="#FBFB77" filter="url(#f1rh4pm21ug6q9)" style="stroke:#A80036;stroke-width:1.0;"/><path d="M540.5,33 L540.5,43 L550.5,43 L540.5,33 " fill="#FBFB77" style="stroke:#A80036;stroke-width:1.0;"/><text fill="#000000" font-family="sans-serif" font-size="13" lengthAdjust="spacingAndGlyphs" textLength="138" x="397.5" y="50.0669">Attributes can be Null</text><!--MD5=[4a0300a6597e068a69ac5dc42e345e2c]
class DAOFactory--><rect codeLine="27" fill="#FEFECE" filter="url(#f1rh4pm21ug6q9)" height="60.8047" id="DAOFactory" style="stroke:#A80036;stroke-width:1.5;" width="236" x="353" y="450"/><ellipse cx="430.75" cy="466" fill="#A9DCDF" rx="11" ry="11" style="stroke:#A80036;stroke-width:1.0;"/><path d="M430.8594,461.3438 L429.7031,466.4219 L432.0313,466.4219 L430.8594,461.3438 Z M429.375,459.1094 L432.3594,459.1094 L435.7188,471.5 L433.2656,471.5 L432.5,468.4375 L429.2188,468.4375 L428.4688,471.5 L426.0313,471.5 L429.375,459.1094 Z " fill="#000000"/><text fill="#000000" font-family="sans-serif" font-size="12" font-style="italic" lengthAdjust="spacingAndGlyphs" textLength="72" x="451.25" y="470.1543">DAOFactory</text><line style="stroke:#A80036;stroke-width:1.5;" x1="354" x2="588" y1="482" y2="482"/><line style="stroke:#A80036;stroke-width:1.5;" x1="354" x2="588" y1="490" y2="490"/><ellipse cx="364" cy="501" fill="#84BE84" rx="3" ry="3" style="stroke:#038048;stroke-width:1.0;"/><text fill="#000000" font-family="sans-serif" font-size="11" lengthAdjust="spacingAndGlyphs" textLength="210" x="373" y="504.2104">getLibraryItemDAO(): LibraryItemDAO</text><!--MD5=[f8ac9437d47d045124c5924dba28e3a3]
class LibraryItemDAO--><rect codeLine="31" fill="#FEFECE" filter="url(#f1rh4pm21ug6q9)" height="60.8047" id="LibraryItemDAO" style="stroke:#A80036;stroke-width:1.5;" width="142" x="117" y="450"/><ellipse cx="139.2" cy="466" fill="#B4A7E5" rx="11" ry="11" style="stroke:#A80036;stroke-width:1.0;"/><path d="M135.1219,461.7656 L135.1219,459.6094 L142.5125,459.6094 L142.5125,461.7656 L140.0438,461.7656 L140.0438,469.8438 L142.5125,469.8438 L142.5125,472 L135.1219,472 L135.1219,469.8438 L137.5906,469.8438 L137.5906,461.7656 L135.1219,461.7656 Z " fill="#000000"/><text fill="#000000" font-family="sans-serif" font-size="12" font-style="italic" lengthAdjust="spacingAndGlyphs" textLength="94" x="154.8" y="470.1543">LibraryItemDAO</text><line style="stroke:#A80036;stroke-width:1.5;" x1="118" x2="258" y1="482" y2="482"/><line style="stroke:#A80036;stroke-width:1.5;" x1="118" x2="258" y1="490" y2="490"/><ellipse cx="128" cy="501" fill="#84BE84" rx="3" ry="3" style="stroke:#038048;stroke-width:1.0;"/><text fill="#000000" font-family="sans-serif" font-size="11" lengthAdjust="spacingAndGlyphs" textLength="116" x="137" y="504.2104">findByFilter() : item[]</text><!--MD5=[347f450d9af984a2ca6c27561eedc0a1]
class PostgresLibraryItemDAO--><rect codeLine="37" fill="#FEFECE" filter="url(#f1rh4pm21ug6q9)" height="73.6094" id="PostgresLibraryItemDAO" style="stroke:#A80036;stroke-width:1.5;" width="305" x="32.5" y="639"/><ellipse cx="105.75" cy="655" fill="#ADD1B2" rx="11" ry="11" style="stroke:#A80036;stroke-width:1.0;"/><path d="M108.7188,660.6406 Q108.1406,660.9375 107.5,661.0781 Q106.8594,661.2344 106.1563,661.2344 Q103.6563,661.2344 102.3281,659.5938 Q101.0156,657.9375 101.0156,654.8125 Q101.0156,651.6875 102.3281,650.0313 Q103.6563,648.375 106.1563,648.375 Q106.8594,648.375 107.5,648.5313 Q108.1563,648.6875 108.7188,648.9844 L108.7188,651.7031 Q108.0938,651.125 107.5,650.8594 Q106.9063,650.5781 106.2813,650.5781 Q104.9375,650.5781 104.25,651.6563 Q103.5625,652.7188 103.5625,654.8125 Q103.5625,656.9063 104.25,657.9844 Q104.9375,659.0469 106.2813,659.0469 Q106.9063,659.0469 107.5,658.7813 Q108.0938,658.5 108.7188,657.9219 L108.7188,660.6406 Z " fill="#000000"/><text fill="#000000" font-family="sans-serif" font-size="12" lengthAdjust="spacingAndGlyphs" textLength="150" x="126.25" y="659.1543">PostgresLibraryItemDAO</text><line style="stroke:#A80036;stroke-width:1.5;" x1="33.5" x2="336.5" y1="671" y2="671"/><rect fill="none" height="6" style="stroke:#C82930;stroke-width:1.0;" width="6" x="40.5" y="679"/><text fill="#000000" font-family="sans-serif" font-size="11" lengthAdjust="spacingAndGlyphs" textLength="132" x="52.5" y="685.2104">connection: Connection</text><line style="stroke:#A80036;stroke-width:1.5;" x1="33.5" x2="336.5" y1="691.8047" y2="691.8047"/><ellipse cx="43.5" cy="702.8047" fill="#84BE84" rx="3" ry="3" style="stroke:#038048;stroke-width:1.0;"/><text fill="#000000" font-family="sans-serif" font-size="11" lengthAdjust="spacingAndGlyphs" textLength="279" x="52.5" y="706.0151">PostgresLibraryItemDAO(Connection: connection)</text><!--MD5=[700a5a1f58ccb71a3c0d036256714175]
class PostgresDAOFactory--><rect codeLine="42" fill="#FEFECE" filter="url(#f1rh4pm21ug6q9)" height="60.8047" id="PostgresDAOFactory" style="stroke:#A80036;stroke-width:1.5;" width="160" x="422" y="645.5"/><ellipse cx="437" cy="661.5" fill="#ADD1B2" rx="11" ry="11" style="stroke:#A80036;stroke-width:1.0;"/><path d="M439.9688,667.1406 Q439.3906,667.4375 438.75,667.5781 Q438.1094,667.7344 437.4063,667.7344 Q434.9063,667.7344 433.5781,666.0938 Q432.2656,664.4375 432.2656,661.3125 Q432.2656,658.1875 433.5781,656.5313 Q434.9063,654.875 437.4063,654.875 Q438.1094,654.875 438.75,655.0313 Q439.4063,655.1875 439.9688,655.4844 L439.9688,658.2031 Q439.3438,657.625 438.75,657.3594 Q438.1563,657.0781 437.5313,657.0781 Q436.1875,657.0781 435.5,658.1563 Q434.8125,659.2188 434.8125,661.3125 Q434.8125,663.4063 435.5,664.4844 Q436.1875,665.5469 437.5313,665.5469 Q438.1563,665.5469 438.75,665.2813 Q439.3438,665 439.9688,664.4219 L439.9688,667.1406 Z " fill="#000000"/><text fill="#000000" font-family="sans-serif" font-size="12" lengthAdjust="spacingAndGlyphs" textLength="128" x="451" y="665.6543">PostgresDAOFactory</text><line style="stroke:#A80036;stroke-width:1.5;" x1="423" x2="581" y1="677.5" y2="677.5"/><rect fill="none" height="6" style="stroke:#C82930;stroke-width:1.0;" width="6" x="430" y="685.5"/><text fill="#000000" font-family="sans-serif" font-size="11" lengthAdjust="spacingAndGlyphs" textLength="132" x="442" y="691.7104">connection: Connection</text><line style="stroke:#A80036;stroke-width:1.5;" x1="423" x2="581" y1="698.3047" y2="698.3047"/><!--MD5=[31540489fc416062c4a9a0afa2f83c69]
reverse link LibraryItemDAO to PostgresLibraryItemDAO--><path d="M187.2239,531.0755 C186.7059,564.8337 186.0363,608.4661 185.5678,638.9981 " fill="none" id="LibraryItemDAO-backto-PostgresLibraryItemDAO" style="stroke:#A80036;stroke-width:1.0;stroke-dasharray:7.0,7.0;"/><polygon fill="none" points="180.2251,530.9371,187.5313,511.0469,194.2235,531.152,180.2251,530.9371" style="stroke:#A80036;stroke-width:1.0;"/><!--MD5=[d37a47b44041b5251d0f0ec75d3c62d9]
reverse link DAOFactory to PostgresDAOFactory--><path d="M478.98,530.8253 C484.721,567.0311 492.2788,614.6934 497.1392,645.3457 " fill="none" id="DAOFactory-backto-PostgresDAOFactory" style="stroke:#A80036;stroke-width:1.0;"/><polygon fill="none" points="472.0624,531.8964,475.8438,511.0469,485.8897,529.7038,472.0624,531.8964" style="stroke:#A80036;stroke-width:1.0;"/><!--MD5=[6c9204539c26ae6f81665b62a202a07c]
reverse link PostgresLibraryItemDAO to PostgresDAOFactory--><path codeLine="49" d="M343.0236,676 C370.3144,676 397.6241,676 421.7162,676 " fill="none" id="PostgresLibraryItemDAO-backto-PostgresDAOFactory" style="stroke:#A80036;stroke-width:1.0;stroke-dasharray:7.0,7.0;"/><polygon fill="#A80036" points="337.9288,676,346.9288,680,342.9288,676,346.9288,672,337.9288,676" style="stroke:#A80036;stroke-width:1.0;"/><text fill="#000000" font-family="sans-serif" font-size="13" lengthAdjust="spacingAndGlyphs" textLength="48" x="355.75" y="669.0669">creates</text><!--MD5=[775670528a6183d48d7c634cc7f7ee9b]
reverse link LibraryItemDAO to DAOFactory--><path codeLine="50" d="M264.0921,480.5 C291.3743,480.5 322.8156,480.5 352.8186,480.5 " fill="none" id="LibraryItemDAO-backto-DAOFactory" style="stroke:#A80036;stroke-width:1.0;stroke-dasharray:7.0,7.0;"/><polygon fill="#A80036" points="259.0476,480.5,268.0476,484.5,264.0476,480.5,268.0476,476.5,259.0476,480.5" style="stroke:#A80036;stroke-width:1.0;"/><text fill="#000000" font-family="sans-serif" font-size="13" lengthAdjust="spacingAndGlyphs" textLength="54" x="279" y="473.5669">provides</text><!--MD5=[f58f9814082c95c60d6d44c39f714ba4]
link ItemSearchFacade to DAOFactory--><path codeLine="51" d="M471,384.2432 C471,402.3606 471,425.377 471,444.36 " fill="none" id="ItemSearchFacade-to-DAOFactory" style="stroke:#A80036;stroke-width:1.0;"/><polygon fill="#A80036" points="471,449.5998,475,440.5998,471,444.5998,467,440.5998,471,449.5998" style="stroke:#A80036;stroke-width:1.0;"/><!--MD5=[ea2a6d8d963ea195af9918210a0a0295]
link ItemSearchController to ItemSearchFacade--><path codeLine="52" d="M757.4294,262.1088 C752.6376,264.9184 747.813,267.5698 743,270 C700.5617,291.4285 651.5887,308.5467 606.9926,321.5668 " fill="none" id="ItemSearchController-to-ItemSearchFacade" style="stroke:#A80036;stroke-width:1.0;"/><polygon fill="#A80036" points="602.1357,322.9737,611.8933,324.3114,606.9382,321.5824,609.6672,316.6274,602.1357,322.9737" style="stroke:#A80036;stroke-width:1.0;"/><!--MD5=[0aae39a4cc8884fb2c1b8c96390b4c76]
@startuml
package controller {

  class ItemSearchController {
    -typeField: TextField
    -cardIdOrNameField: TextField
    -categoryField: TextField
    -cddField: TextField
    -authorsField: TextField
    -searchButton: Button
    +search() : void
  }
}

package item-search {

  class ItemSearchFacade {
    +search(String type, String category, String cdd, String cardId, String authors) : item[]
  }
  note top of ItemSearchFacade
   Attributes can be Null
  end note
  
}

package dao {

  abstract class DAOFactory {
    +getLibraryItemDAO(): LibraryItemDAO
  }

  interface LibraryItemDAO {
    +findByFilter() : item[]
  }

  package postgres {

    class PostgresLibraryItemDAO implements LibraryItemDAO {
      -connection: Connection
      +PostgresLibraryItemDAO(Connection: connection)
    }

    class PostgresDAOFactory extends DAOFactory {
      -connection: Connection
    }
  }

}

PostgresDAOFactory .left> PostgresLibraryItemDAO : "creates"
DAOFactory .left> LibraryItemDAO : "provides"
ItemSearchFacade -down-> DAOFactory
ItemSearchController -down-> ItemSearchFacade
@enduml

PlantUML version 1.2020.22(Sun Dec 06 09:36:27 UTC 2020)
(GPL source distribution)
Java Runtime: OpenJDK Runtime Environment
JVM: OpenJDK 64-Bit Server VM
Default Encoding: UTF-8
Language: en
Country: US
--></g></svg>