<?xml version="1.0" encoding="UTF-8" standalone="no"?><svg xmlns="http://www.w3.org/2000/svg" xmlns:xlink="http://www.w3.org/1999/xlink" contentScriptType="application/ecmascript" contentStyleType="text/css" height="736px" preserveAspectRatio="none" style="width:1325px;height:736px;" version="1.1" viewBox="0 0 1325 736" width="1325px" zoomAndPan="magnify"><defs><filter height="300%" id="f117k1en0prgoa" width="300%" x="-1" y="-1"><feGaussianBlur result="blurOut" stdDeviation="2.0"/><feColorMatrix in="blurOut" result="blurOut2" type="matrix" values="0 0 0 0 0 0 0 0 0 0 0 0 0 0 0 0 0 0 .4 0"/><feOffset dx="4.0" dy="4.0" in="blurOut2" result="blurOut3"/><feBlend in="SourceGraphic" in2="blurOut3" mode="normal"/></filter></defs><g><!--MD5=[10ea673caf457862023e152271927b45]
cluster controller--><polygon fill="#FFFFFF" filter="url(#f117k1en0prgoa)" points="1100,97,1183,97,1190,119.2969,1308,119.2969,1308,270,1100,270,1100,97" style="stroke:#000000;stroke-width:1.5;"/><line style="stroke:#000000;stroke-width:1.5;" x1="1100" x2="1190" y1="119.2969" y2="119.2969"/><text fill="#000000" font-family="sans-serif" font-size="14" font-weight="bold" lengthAdjust="spacingAndGlyphs" textLength="77" x="1104" y="111.9951">controller</text><!--MD5=[4aacadbe8a6026f0dd01fe1016e60b7f]
cluster item-search--><polygon fill="#FFFFFF" filter="url(#f117k1en0prgoa)" points="524,6,624,6,631,28.2969,1092,28.2969,1092,392,524,392,524,6" style="stroke:#000000;stroke-width:1.5;"/><line style="stroke:#000000;stroke-width:1.5;" x1="524" x2="631" y1="28.2969" y2="28.2969"/><text fill="#000000" font-family="sans-serif" font-size="14" font-weight="bold" lengthAdjust="spacingAndGlyphs" textLength="94" x="528" y="20.9951">item-search</text><!--MD5=[5622bc4ba3bf2be5d17935065b98c5f9]
cluster dao--><polygon fill="#FFFFFF" filter="url(#f117k1en0prgoa)" points="16,423,51,423,58,445.2969,934,445.2969,934,729,16,729,16,423" style="stroke:#000000;stroke-width:1.5;"/><line style="stroke:#000000;stroke-width:1.5;" x1="16" x2="58" y1="445.2969" y2="445.2969"/><text fill="#000000" font-family="sans-serif" font-size="14" font-weight="bold" lengthAdjust="spacingAndGlyphs" textLength="29" x="20" y="437.9951">dao</text><!--MD5=[bab4019c732006648757f54388533847]
cluster postgres--><polygon fill="#FFFFFF" filter="url(#f117k1en0prgoa)" points="262,612,339,612,346,634.2969,828,634.2969,828,721,262,721,262,612" style="stroke:#000000;stroke-width:1.5;"/><line style="stroke:#000000;stroke-width:1.5;" x1="262" x2="346" y1="634.2969" y2="634.2969"/><text fill="#000000" font-family="sans-serif" font-size="14" font-weight="bold" lengthAdjust="spacingAndGlyphs" textLength="71" x="266" y="626.9951">postgres</text><!--MD5=[d8acc2fcb7fceca3e498947e64f7d6b3]
class ItemSearchController--><rect codeLine="3" fill="#FEFECE" filter="url(#f117k1en0prgoa)" height="137.6328" id="ItemSearchController" style="stroke:#A80036;stroke-width:1.5;" width="192" x="1108" y="124"/><ellipse cx="1135.6" cy="140" fill="#ADD1B2" rx="11" ry="11" style="stroke:#A80036;stroke-width:1.0;"/><path d="M1138.5688,145.6406 Q1137.9906,145.9375 1137.35,146.0781 Q1136.7094,146.2344 1136.0063,146.2344 Q1133.5063,146.2344 1132.1781,144.5938 Q1130.8656,142.9375 1130.8656,139.8125 Q1130.8656,136.6875 1132.1781,135.0313 Q1133.5063,133.375 1136.0063,133.375 Q1136.7094,133.375 1137.35,133.5313 Q1138.0063,133.6875 1138.5688,133.9844 L1138.5688,136.7031 Q1137.9438,136.125 1137.35,135.8594 Q1136.7563,135.5781 1136.1313,135.5781 Q1134.7875,135.5781 1134.1,136.6563 Q1133.4125,137.7188 1133.4125,139.8125 Q1133.4125,141.9063 1134.1,142.9844 Q1134.7875,144.0469 1136.1313,144.0469 Q1136.7563,144.0469 1137.35,143.7813 Q1137.9438,143.5 1138.5688,142.9219 L1138.5688,145.6406 Z " fill="#000000"/><text fill="#000000" font-family="sans-serif" font-size="12" lengthAdjust="spacingAndGlyphs" textLength="132" x="1152.4" y="144.1543">ItemSearchController</text><line style="stroke:#A80036;stroke-width:1.5;" x1="1109" x2="1299" y1="156" y2="156"/><rect fill="none" height="6" style="stroke:#C82930;stroke-width:1.0;" width="6" x="1116" y="164"/><text fill="#000000" font-family="sans-serif" font-size="11" lengthAdjust="spacingAndGlyphs" textLength="108" x="1128" y="170.2104">typeField: TextField</text><rect fill="none" height="6" style="stroke:#C82930;stroke-width:1.0;" width="6" x="1116" y="176.8047"/><text fill="#000000" font-family="sans-serif" font-size="11" lengthAdjust="spacingAndGlyphs" textLength="166" x="1128" y="183.0151">cardIdOrNameField: TextField</text><rect fill="none" height="6" style="stroke:#C82930;stroke-width:1.0;" width="6" x="1116" y="189.6094"/><text fill="#000000" font-family="sans-serif" font-size="11" lengthAdjust="spacingAndGlyphs" textLength="133" x="1128" y="195.8198">categoryField: TextField</text><rect fill="none" height="6" style="stroke:#C82930;stroke-width:1.0;" width="6" x="1116" y="202.4141"/><text fill="#000000" font-family="sans-serif" font-size="11" lengthAdjust="spacingAndGlyphs" textLength="104" x="1128" y="208.6245">cddField: TextField</text><rect fill="none" height="6" style="stroke:#C82930;stroke-width:1.0;" width="6" x="1116" y="215.2188"/><text fill="#000000" font-family="sans-serif" font-size="11" lengthAdjust="spacingAndGlyphs" textLength="128" x="1128" y="221.4292">authorsField: TextField</text><rect fill="none" height="6" style="stroke:#C82930;stroke-width:1.0;" width="6" x="1116" y="228.0234"/><text fill="#000000" font-family="sans-serif" font-size="11" lengthAdjust="spacingAndGlyphs" textLength="121" x="1128" y="234.2339">searchButton: Button</text><line style="stroke:#A80036;stroke-width:1.5;" x1="1109" x2="1299" y1="240.8281" y2="240.8281"/><ellipse cx="1119" cy="251.8281" fill="#84BE84" rx="3" ry="3" style="stroke:#038048;stroke-width:1.0;"/><text fill="#000000" font-family="sans-serif" font-size="11" lengthAdjust="spacingAndGlyphs" textLength="82" x="1128" y="255.0386">search() : void</text><!--MD5=[85c1fd633340e15a69bb0b764d655fe7]
class ItemSearchFacade--><rect codeLine="16" fill="#FEFECE" filter="url(#f117k1en0prgoa)" height="60.8047" id="ItemSearchFacade" style="stroke:#A80036;stroke-width:1.5;" width="551" x="532.5" y="323"/><ellipse cx="745.25" cy="339" fill="#ADD1B2" rx="11" ry="11" style="stroke:#A80036;stroke-width:1.0;"/><path d="M748.2188,344.6406 Q747.6406,344.9375 747,345.0781 Q746.3594,345.2344 745.6563,345.2344 Q743.1563,345.2344 741.8281,343.5938 Q740.5156,341.9375 740.5156,338.8125 Q740.5156,335.6875 741.8281,334.0313 Q743.1563,332.375 745.6563,332.375 Q746.3594,332.375 747,332.5313 Q747.6563,332.6875 748.2188,332.9844 L748.2188,335.7031 Q747.5938,335.125 747,334.8594 Q746.4063,334.5781 745.7813,334.5781 Q744.4375,334.5781 743.75,335.6563 Q743.0625,336.7188 743.0625,338.8125 Q743.0625,340.9063 743.75,341.9844 Q744.4375,343.0469 745.7813,343.0469 Q746.4063,343.0469 747,342.7813 Q747.5938,342.5 748.2188,341.9219 L748.2188,344.6406 Z " fill="#000000"/><text fill="#000000" font-family="sans-serif" font-size="12" lengthAdjust="spacingAndGlyphs" textLength="117" x="765.75" y="343.1543">ItemSearchFacade</text><line style="stroke:#A80036;stroke-width:1.5;" x1="533.5" x2="1082.5" y1="355" y2="355"/><line style="stroke:#A80036;stroke-width:1.5;" x1="533.5" x2="1082.5" y1="363" y2="363"/><ellipse cx="543.5" cy="374" fill="#84BE84" rx="3" ry="3" style="stroke:#038048;stroke-width:1.0;"/><text fill="#000000" font-family="sans-serif" font-size="11" lengthAdjust="spacingAndGlyphs" textLength="525" x="552.5" y="377.2104">search(String type, String category, String cdd, String cardId, String authors) : LibraryItem[]</text><path d="M728.5,33 L728.5,58.1328 A0,0 0 0 0 728.5,58.1328 L804,58.1328 L808,322.8573 L812,58.1328 L887.5,58.1328 A0,0 0 0 0 887.5,58.1328 L887.5,43 L877.5,33 L728.5,33 A0,0 0 0 0 728.5,33 " fill="#FBFB77" filter="url(#f117k1en0prgoa)" style="stroke:#A80036;stroke-width:1.0;"/><path d="M877.5,33 L877.5,43 L887.5,43 L877.5,33 " fill="#FBFB77" style="stroke:#A80036;stroke-width:1.0;"/><text fill="#000000" font-family="sans-serif" font-size="13" lengthAdjust="spacingAndGlyphs" textLength="138" x="734.5" y="50.0669">Attributes can be Null</text><!--MD5=[4a0300a6597e068a69ac5dc42e345e2c]
class DAOFactory--><rect codeLine="27" fill="#FEFECE" filter="url(#f117k1en0prgoa)" height="60.8047" id="DAOFactory" style="stroke:#A80036;stroke-width:1.5;" width="236" x="690" y="450"/><ellipse cx="767.75" cy="466" fill="#A9DCDF" rx="11" ry="11" style="stroke:#A80036;stroke-width:1.0;"/><path d="M767.8594,461.3438 L766.7031,466.4219 L769.0313,466.4219 L767.8594,461.3438 Z M766.375,459.1094 L769.3594,459.1094 L772.7188,471.5 L770.2656,471.5 L769.5,468.4375 L766.2188,468.4375 L765.4688,471.5 L763.0313,471.5 L766.375,459.1094 Z " fill="#000000"/><text fill="#000000" font-family="sans-serif" font-size="12" font-style="italic" lengthAdjust="spacingAndGlyphs" textLength="72" x="788.25" y="470.1543">DAOFactory</text><line style="stroke:#A80036;stroke-width:1.5;" x1="691" x2="925" y1="482" y2="482"/><line style="stroke:#A80036;stroke-width:1.5;" x1="691" x2="925" y1="490" y2="490"/><ellipse cx="701" cy="501" fill="#84BE84" rx="3" ry="3" style="stroke:#038048;stroke-width:1.0;"/><text fill="#000000" font-family="sans-serif" font-size="11" lengthAdjust="spacingAndGlyphs" textLength="210" x="710" y="504.2104">getLibraryItemDAO(): LibraryItemDAO</text><!--MD5=[f8ac9437d47d045124c5924dba28e3a3]
class LibraryItemDAO--><rect codeLine="31" fill="#FEFECE" filter="url(#f117k1en0prgoa)" height="60.8047" id="LibraryItemDAO" style="stroke:#A80036;stroke-width:1.5;" width="575" x="24.5" y="450"/><ellipse cx="260.75" cy="466" fill="#B4A7E5" rx="11" ry="11" style="stroke:#A80036;stroke-width:1.0;"/><path d="M256.6719,461.7656 L256.6719,459.6094 L264.0625,459.6094 L264.0625,461.7656 L261.5938,461.7656 L261.5938,469.8438 L264.0625,469.8438 L264.0625,472 L256.6719,472 L256.6719,469.8438 L259.1406,469.8438 L259.1406,461.7656 L256.6719,461.7656 Z " fill="#000000"/><text fill="#000000" font-family="sans-serif" font-size="12" font-style="italic" lengthAdjust="spacingAndGlyphs" textLength="94" x="281.25" y="470.1543">LibraryItemDAO</text><line style="stroke:#A80036;stroke-width:1.5;" x1="25.5" x2="598.5" y1="482" y2="482"/><line style="stroke:#A80036;stroke-width:1.5;" x1="25.5" x2="598.5" y1="490" y2="490"/><ellipse cx="35.5" cy="501" fill="#84BE84" rx="3" ry="3" style="stroke:#038048;stroke-width:1.0;"/><text fill="#000000" font-family="sans-serif" font-size="11" lengthAdjust="spacingAndGlyphs" textLength="549" x="44.5" y="504.2104">findByFilter(String type, String category, String cdd, String cardId, String authors) : LibraryItem[]</text><!--MD5=[347f450d9af984a2ca6c27561eedc0a1]
class PostgresLibraryItemDAO--><rect codeLine="37" fill="#FEFECE" filter="url(#f117k1en0prgoa)" height="73.6094" id="PostgresLibraryItemDAO" style="stroke:#A80036;stroke-width:1.5;" width="305" x="270.5" y="639"/><ellipse cx="343.75" cy="655" fill="#ADD1B2" rx="11" ry="11" style="stroke:#A80036;stroke-width:1.0;"/><path d="M346.7188,660.6406 Q346.1406,660.9375 345.5,661.0781 Q344.8594,661.2344 344.1563,661.2344 Q341.6563,661.2344 340.3281,659.5938 Q339.0156,657.9375 339.0156,654.8125 Q339.0156,651.6875 340.3281,650.0313 Q341.6563,648.375 344.1563,648.375 Q344.8594,648.375 345.5,648.5313 Q346.1563,648.6875 346.7188,648.9844 L346.7188,651.7031 Q346.0938,651.125 345.5,650.8594 Q344.9063,650.5781 344.2813,650.5781 Q342.9375,650.5781 342.25,651.6563 Q341.5625,652.7188 341.5625,654.8125 Q341.5625,656.9063 342.25,657.9844 Q342.9375,659.0469 344.2813,659.0469 Q344.9063,659.0469 345.5,658.7813 Q346.0938,658.5 346.7188,657.9219 L346.7188,660.6406 Z " fill="#000000"/><text fill="#000000" font-family="sans-serif" font-size="12" lengthAdjust="spacingAndGlyphs" textLength="150" x="364.25" y="659.1543">PostgresLibraryItemDAO</text><line style="stroke:#A80036;stroke-width:1.5;" x1="271.5" x2="574.5" y1="671" y2="671"/><rect fill="none" height="6" style="stroke:#C82930;stroke-width:1.0;" width="6" x="278.5" y="679"/><text fill="#000000" font-family="sans-serif" font-size="11" lengthAdjust="spacingAndGlyphs" textLength="132" x="290.5" y="685.2104">connection: Connection</text><line style="stroke:#A80036;stroke-width:1.5;" x1="271.5" x2="574.5" y1="691.8047" y2="691.8047"/><ellipse cx="281.5" cy="702.8047" fill="#84BE84" rx="3" ry="3" style="stroke:#038048;stroke-width:1.0;"/><text fill="#000000" font-family="sans-serif" font-size="11" lengthAdjust="spacingAndGlyphs" textLength="279" x="290.5" y="706.0151">PostgresLibraryItemDAO(Connection: connection)</text><!--MD5=[700a5a1f58ccb71a3c0d036256714175]
class PostgresDAOFactory--><rect codeLine="42" fill="#FEFECE" filter="url(#f117k1en0prgoa)" height="60.8047" id="PostgresDAOFactory" style="stroke:#A80036;stroke-width:1.5;" width="160" x="660" y="645.5"/><ellipse cx="675" cy="661.5" fill="#ADD1B2" rx="11" ry="11" style="stroke:#A80036;stroke-width:1.0;"/><path d="M677.9688,667.1406 Q677.3906,667.4375 676.75,667.5781 Q676.1094,667.7344 675.4063,667.7344 Q672.9063,667.7344 671.5781,666.0938 Q670.2656,664.4375 670.2656,661.3125 Q670.2656,658.1875 671.5781,656.5313 Q672.9063,654.875 675.4063,654.875 Q676.1094,654.875 676.75,655.0313 Q677.4063,655.1875 677.9688,655.4844 L677.9688,658.2031 Q677.3438,657.625 676.75,657.3594 Q676.1563,657.0781 675.5313,657.0781 Q674.1875,657.0781 673.5,658.1563 Q672.8125,659.2188 672.8125,661.3125 Q672.8125,663.4063 673.5,664.4844 Q674.1875,665.5469 675.5313,665.5469 Q676.1563,665.5469 676.75,665.2813 Q677.3438,665 677.9688,664.4219 L677.9688,667.1406 Z " fill="#000000"/><text fill="#000000" font-family="sans-serif" font-size="12" lengthAdjust="spacingAndGlyphs" textLength="128" x="689" y="665.6543">PostgresDAOFactory</text><line style="stroke:#A80036;stroke-width:1.5;" x1="661" x2="819" y1="677.5" y2="677.5"/><rect fill="none" height="6" style="stroke:#C82930;stroke-width:1.0;" width="6" x="668" y="685.5"/><text fill="#000000" font-family="sans-serif" font-size="11" lengthAdjust="spacingAndGlyphs" textLength="132" x="680" y="691.7104">connection: Connection</text><line style="stroke:#A80036;stroke-width:1.5;" x1="661" x2="819" y1="698.3047" y2="698.3047"/><!--MD5=[31540489fc416062c4a9a0afa2f83c69]
reverse link LibraryItemDAO to PostgresLibraryItemDAO--><path d="M339.3625,528.6926 C358.7043,562.7585 384.2451,607.7426 401.9913,638.9981 " fill="none" id="LibraryItemDAO-backto-PostgresLibraryItemDAO" style="stroke:#A80036;stroke-width:1.0;stroke-dasharray:7.0,7.0;"/><polygon fill="none" points="333.1314,531.8953,329.3438,511.0469,345.3059,524.9828,333.1314,531.8953" style="stroke:#A80036;stroke-width:1.0;"/><!--MD5=[d37a47b44041b5251d0f0ec75d3c62d9]
reverse link DAOFactory to PostgresDAOFactory--><path d="M790.7598,530.0656 C778.1349,566.3621 761.3988,614.4786 750.6624,645.3457 " fill="none" id="DAOFactory-backto-PostgresDAOFactory" style="stroke:#A80036;stroke-width:1.0;"/><polygon fill="none" points="784.193,527.6371,797.375,511.0469,797.416,532.2365,784.193,527.6371" style="stroke:#A80036;stroke-width:1.0;"/><!--MD5=[6c9204539c26ae6f81665b62a202a07c]
reverse link PostgresLibraryItemDAO to PostgresDAOFactory--><path codeLine="49" d="M581.0236,676 C608.3144,676 635.6241,676 659.7162,676 " fill="none" id="PostgresLibraryItemDAO-backto-PostgresDAOFactory" style="stroke:#A80036;stroke-width:1.0;stroke-dasharray:7.0,7.0;"/><polygon fill="#A80036" points="575.9288,676,584.9288,680,580.9288,676,584.9288,672,575.9288,676" style="stroke:#A80036;stroke-width:1.0;"/><text fill="#000000" font-family="sans-serif" font-size="13" lengthAdjust="spacingAndGlyphs" textLength="48" x="593.75" y="669.0669">creates</text><!--MD5=[775670528a6183d48d7c634cc7f7ee9b]
reverse link LibraryItemDAO to DAOFactory--><path codeLine="50" d="M604.9873,480.5 C634.7843,480.5 663.6848,480.5 689.8897,480.5 " fill="none" id="LibraryItemDAO-backto-DAOFactory" style="stroke:#A80036;stroke-width:1.0;stroke-dasharray:7.0,7.0;"/><polygon fill="#A80036" points="599.8072,480.5,608.8072,484.5,604.8072,480.5,608.8072,476.5,599.8072,480.5" style="stroke:#A80036;stroke-width:1.0;"/><text fill="#000000" font-family="sans-serif" font-size="13" lengthAdjust="spacingAndGlyphs" textLength="54" x="617.75" y="473.5669">provides</text><!--MD5=[f58f9814082c95c60d6d44c39f714ba4]
link ItemSearchFacade to DAOFactory--><path codeLine="51" d="M808,384.2432 C808,402.3606 808,425.377 808,444.36 " fill="none" id="ItemSearchFacade-to-DAOFactory" style="stroke:#A80036;stroke-width:1.0;"/><polygon fill="#A80036" points="808,449.5998,812,440.5998,808,444.5998,804,440.5998,808,449.5998" style="stroke:#A80036;stroke-width:1.0;"/><!--MD5=[ea2a6d8d963ea195af9918210a0a0295]
link ItemSearchController to ItemSearchFacade--><path codeLine="52" d="M1114.7871,262.0498 C1109.8816,264.8939 1104.937,267.5667 1100,270 C1055.8515,291.7592 1005.0743,308.7522 958.3727,321.5618 " fill="none" id="ItemSearchController-to-ItemSearchFacade" style="stroke:#A80036;stroke-width:1.0;"/><polygon fill="#A80036" points="953.2844,322.9454,963.0186,324.4437,958.1092,321.6334,960.9195,316.724,953.2844,322.9454" style="stroke:#A80036;stroke-width:1.0;"/><!--MD5=[22db2f5a2d90e8fe99b89cd5b124966b]
@startuml
package controller {

  class ItemSearchController {
    -typeField: TextField
    -cardIdOrNameField: TextField
    -categoryField: TextField
    -cddField: TextField
    -authorsField: TextField
    -searchButton: Button
    +search() : void
  }
}

package item-search {

  class ItemSearchFacade {
    +search(String type, String category, String cdd, String cardId, String authors) : LibraryItem[]
  }
  note top of ItemSearchFacade
   Attributes can be Null
  end note
  
}

package dao {

  abstract class DAOFactory {
    +getLibraryItemDAO(): LibraryItemDAO
  }

  interface LibraryItemDAO {
    +findByFilter(String type, String category, String cdd, String cardId, String authors) : LibraryItem[]
  }

  package postgres {

    class PostgresLibraryItemDAO implements LibraryItemDAO {
      -connection: Connection
      +PostgresLibraryItemDAO(Connection: connection)
    }

    class PostgresDAOFactory extends DAOFactory {
      -connection: Connection
    }
  }

}

PostgresDAOFactory .left> PostgresLibraryItemDAO : "creates"
DAOFactory .left> LibraryItemDAO : "provides"
ItemSearchFacade -down-> DAOFactory
ItemSearchController -down-> ItemSearchFacade
@enduml

PlantUML version 1.2020.22(Sun Dec 06 09:36:27 UTC 2020)
(GPL source distribution)
Java Runtime: OpenJDK Runtime Environment
JVM: OpenJDK 64-Bit Server VM
Default Encoding: UTF-8
Language: en
Country: US
--></g></svg>