<?xml version="1.0" encoding="UTF-8" standalone="no"?><svg xmlns="http://www.w3.org/2000/svg" xmlns:xlink="http://www.w3.org/1999/xlink" contentScriptType="application/ecmascript" contentStyleType="text/css" height="763px" preserveAspectRatio="none" style="width:1219px;height:763px;" version="1.1" viewBox="0 0 1219 763" width="1219px" zoomAndPan="magnify"><defs><filter height="300%" id="fhytesgddah82" width="300%" x="-1" y="-1"><feGaussianBlur result="blurOut" stdDeviation="2.0"/><feColorMatrix in="blurOut" result="blurOut2" type="matrix" values="0 0 0 0 0 0 0 0 0 0 0 0 0 0 0 0 0 0 .4 0"/><feOffset dx="4.0" dy="4.0" in="blurOut2" result="blurOut3"/><feBlend in="SourceGraphic" in2="blurOut3" mode="normal"/></filter></defs><g><!--MD5=[10ea673caf457862023e152271927b45]
cluster controller--><polygon fill="#FFFFFF" filter="url(#fhytesgddah82)" points="989,107,1072,107,1079,129.2969,1197,129.2969,1197,292,989,292,989,107" style="stroke: #000000; stroke-width: 1.5;"/><line style="stroke: #000000; stroke-width: 1.5;" x1="989" x2="1079" y1="129.2969" y2="129.2969"/><text fill="#000000" font-family="sans-serif" font-size="14" font-weight="bold" lengthAdjust="spacingAndGlyphs" textLength="77" x="993" y="121.9951">controller</text><!--MD5=[4aacadbe8a6026f0dd01fe1016e60b7f]
cluster item-search--><polygon fill="#FFFFFF" filter="url(#fhytesgddah82)" points="497,16,597,16,604,38.2969,981,38.2969,981,414,497,414,497,16" style="stroke: #000000; stroke-width: 1.5;"/><line style="stroke: #000000; stroke-width: 1.5;" x1="497" x2="604" y1="38.2969" y2="38.2969"/><text fill="#000000" font-family="sans-serif" font-size="14" font-weight="bold" lengthAdjust="spacingAndGlyphs" textLength="94" x="501" y="30.9951">item-search</text><!--MD5=[5622bc4ba3bf2be5d17935065b98c5f9]
cluster dao--><polygon fill="#FFFFFF" filter="url(#fhytesgddah82)" points="14,445,49,445,56,467.2969,847,467.2969,847,751,14,751,14,445" style="stroke: #000000; stroke-width: 1.5;"/><line style="stroke: #000000; stroke-width: 1.5;" x1="14" x2="56" y1="467.2969" y2="467.2969"/><text fill="#000000" font-family="sans-serif" font-size="14" font-weight="bold" lengthAdjust="spacingAndGlyphs" textLength="29" x="18" y="459.9951">dao</text><!--MD5=[bab4019c732006648757f54388533847]
cluster postgres--><polygon fill="#FFFFFF" filter="url(#fhytesgddah82)" points="209,634,286,634,293,656.2969,776,656.2969,776,743,209,743,209,634" style="stroke: #000000; stroke-width: 1.5;"/><line style="stroke: #000000; stroke-width: 1.5;" x1="209" x2="293" y1="656.2969" y2="656.2969"/><text fill="#000000" font-family="sans-serif" font-size="14" font-weight="bold" lengthAdjust="spacingAndGlyphs" textLength="71" x="213" y="648.9951">postgres</text><!--MD5=[d8acc2fcb7fceca3e498947e64f7d6b3]
class ItemSearchController--><rect fill="#FEFECE" filter="url(#fhytesgddah82)" height="150.4375" id="ItemSearchController" style="stroke: #A80036; stroke-width: 1.5;" width="192" x="997" y="134"/><ellipse cx="1024.6" cy="150" fill="#ADD1B2" rx="11" ry="11" style="stroke: #A80036; stroke-width: 1.0;"/><path d="M1027.5688,155.6406 Q1026.9906,155.9375 1026.35,156.0859 Q1025.7094,156.2344 1025.0063,156.2344 Q1022.5062,156.2344 1021.1859,154.5859 Q1019.8656,152.9375 1019.8656,149.8125 Q1019.8656,146.6875 1021.1859,145.0313 Q1022.5062,143.375 1025.0063,143.375 Q1025.7094,143.375 1026.3578,143.5313 Q1027.0063,143.6875 1027.5688,143.9844 L1027.5688,146.7031 Q1026.9438,146.125 1026.35,145.8516 Q1025.7563,145.5781 1025.1313,145.5781 Q1023.7875,145.5781 1023.1,146.6484 Q1022.4125,147.7188 1022.4125,149.8125 Q1022.4125,151.9063 1023.1,152.9766 Q1023.7875,154.0469 1025.1313,154.0469 Q1025.7563,154.0469 1026.35,153.7734 Q1026.9438,153.5 1027.5688,152.9219 L1027.5688,155.6406 Z "/><text fill="#000000" font-family="sans-serif" font-size="12" lengthAdjust="spacingAndGlyphs" textLength="132" x="1041.4" y="154.1543">ItemSearchController</text><line style="stroke: #A80036; stroke-width: 1.5;" x1="998" x2="1188" y1="166" y2="166"/><rect fill="none" height="6" style="stroke: #C82930; stroke-width: 1.0;" width="6" x="1005" y="174"/><text fill="#000000" font-family="sans-serif" font-size="11" lengthAdjust="spacingAndGlyphs" textLength="108" x="1017" y="180.2104">typeField: TextField</text><rect fill="none" height="6" style="stroke: #C82930; stroke-width: 1.0;" width="6" x="1005" y="186.8047"/><text fill="#000000" font-family="sans-serif" font-size="11" lengthAdjust="spacingAndGlyphs" textLength="166" x="1017" y="193.0151">cardIdOrNameField: TextField</text><rect fill="none" height="6" style="stroke: #C82930; stroke-width: 1.0;" width="6" x="1005" y="199.6094"/><text fill="#000000" font-family="sans-serif" font-size="11" lengthAdjust="spacingAndGlyphs" textLength="133" x="1017" y="205.8198">categoryField: TextField</text><rect fill="none" height="6" style="stroke: #C82930; stroke-width: 1.0;" width="6" x="1005" y="212.4141"/><text fill="#000000" font-family="sans-serif" font-size="11" lengthAdjust="spacingAndGlyphs" textLength="104" x="1017" y="218.6245">cddField: TextField</text><rect fill="none" height="6" style="stroke: #C82930; stroke-width: 1.0;" width="6" x="1005" y="225.2188"/><text fill="#000000" font-family="sans-serif" font-size="11" lengthAdjust="spacingAndGlyphs" textLength="128" x="1017" y="231.4292">authorsField: TextField</text><rect fill="none" height="6" style="stroke: #C82930; stroke-width: 1.0;" width="6" x="1005" y="238.0234"/><text fill="#000000" font-family="sans-serif" font-size="11" lengthAdjust="spacingAndGlyphs" textLength="121" x="1017" y="244.2339">searchButton: Button</text><line style="stroke: #A80036; stroke-width: 1.5;" x1="998" x2="1188" y1="250.8281" y2="250.8281"/><ellipse cx="1008" cy="261.8281" fill="#84BE84" rx="3" ry="3" style="stroke: #038048; stroke-width: 1.0;"/><text fill="#000000" font-family="sans-serif" font-size="11" lengthAdjust="spacingAndGlyphs" textLength="82" x="1017" y="265.0386">search() : void</text><ellipse cx="1008" cy="274.6328" fill="#84BE84" rx="3" ry="3" style="stroke: #038048; stroke-width: 1.0;"/><text fill="#000000" font-family="sans-serif" font-size="11" lengthAdjust="spacingAndGlyphs" textLength="123" x="1017" y="277.8433">displaySearch() : void</text><!--MD5=[85c1fd633340e15a69bb0b764d655fe7]
class ItemSearchFacade--><rect fill="#FEFECE" filter="url(#fhytesgddah82)" height="60.8047" id="ItemSearchFacade" style="stroke: #A80036; stroke-width: 1.5;" width="467" x="505.5" y="345"/><ellipse cx="676.25" cy="361" fill="#ADD1B2" rx="11" ry="11" style="stroke: #A80036; stroke-width: 1.0;"/><path d="M679.2188,366.6406 Q678.6406,366.9375 678,367.0859 Q677.3594,367.2344 676.6563,367.2344 Q674.1563,367.2344 672.8359,365.5859 Q671.5156,363.9375 671.5156,360.8125 Q671.5156,357.6875 672.8359,356.0313 Q674.1563,354.375 676.6563,354.375 Q677.3594,354.375 678.0078,354.5313 Q678.6563,354.6875 679.2188,354.9844 L679.2188,357.7031 Q678.5938,357.125 678,356.8516 Q677.4063,356.5781 676.7813,356.5781 Q675.4375,356.5781 674.75,357.6484 Q674.0625,358.7188 674.0625,360.8125 Q674.0625,362.9063 674.75,363.9766 Q675.4375,365.0469 676.7813,365.0469 Q677.4063,365.0469 678,364.7734 Q678.5938,364.5 679.2188,363.9219 L679.2188,366.6406 Z "/><text fill="#000000" font-family="sans-serif" font-size="12" lengthAdjust="spacingAndGlyphs" textLength="117" x="696.75" y="365.1543">ItemSearchFacade</text><line style="stroke: #A80036; stroke-width: 1.5;" x1="506.5" x2="971.5" y1="377" y2="377"/><line style="stroke: #A80036; stroke-width: 1.5;" x1="506.5" x2="971.5" y1="385" y2="385"/><ellipse cx="516.5" cy="396" fill="#84BE84" rx="3" ry="3" style="stroke: #038048; stroke-width: 1.0;"/><text fill="#000000" font-family="sans-serif" font-size="11" lengthAdjust="spacingAndGlyphs" textLength="441" x="525.5" y="399.2104">search(String type, String category, String cdd, String cardId, String authors)</text><path d="M659.5,43 L659.5,68.1328 A0,0 0 0 0 659.5,68.1328 L735,68.1328 L739,344.9473 L743,68.1328 L818.5,68.1328 A0,0 0 0 0 818.5,68.1328 L818.5,53 L808.5,43 L659.5,43 A0,0 0 0 0 659.5,43 " fill="#FBFB77" filter="url(#fhytesgddah82)" style="stroke: #A80036; stroke-width: 1.0;"/><path d="M808.5,43 L808.5,53 L818.5,53 L808.5,43 " fill="#FBFB77" style="stroke: #A80036; stroke-width: 1.0;"/><text fill="#000000" font-family="sans-serif" font-size="13" lengthAdjust="spacingAndGlyphs" textLength="138" x="665.5" y="60.0669">Attributes can be Null</text><!--MD5=[4a0300a6597e068a69ac5dc42e345e2c]
class DAOFactory--><rect fill="#FEFECE" filter="url(#fhytesgddah82)" height="60.8047" id="DAOFactory" style="stroke: #A80036; stroke-width: 1.5;" width="200" x="639" y="472"/><ellipse cx="698.75" cy="488" fill="#A9DCDF" rx="11" ry="11" style="stroke: #A80036; stroke-width: 1.0;"/><path d="M698.8594,483.3438 L697.7031,488.4219 L700.0313,488.4219 L698.8594,483.3438 Z M697.375,481.1094 L700.3594,481.1094 L703.7188,493.5 L701.2656,493.5 L700.5,490.4375 L697.2188,490.4375 L696.4688,493.5 L694.0313,493.5 L697.375,481.1094 Z "/><text fill="#000000" font-family="sans-serif" font-size="12" font-style="italic" lengthAdjust="spacingAndGlyphs" textLength="72" x="719.25" y="492.1543">DAOFactory</text><line style="stroke: #A80036; stroke-width: 1.5;" x1="640" x2="838" y1="504" y2="504"/><line style="stroke: #A80036; stroke-width: 1.5;" x1="640" x2="838" y1="512" y2="512"/><ellipse cx="650" cy="523" fill="#84BE84" rx="3" ry="3" style="stroke: #038048; stroke-width: 1.0;"/><text fill="#000000" font-family="sans-serif" font-size="11" lengthAdjust="spacingAndGlyphs" textLength="174" x="659" y="526.2104">getLoanDAO(): ItemSearchDAO</text><!--MD5=[336da9b07d0a8dbb4c6d68448a0fc016]
class ItemSearchDAO--><rect fill="#FEFECE" filter="url(#fhytesgddah82)" height="60.8047" id="ItemSearchDAO" style="stroke: #A80036; stroke-width: 1.5;" width="526" x="22" y="472"/><ellipse cx="232.25" cy="488" fill="#B4A7E5" rx="11" ry="11" style="stroke: #A80036; stroke-width: 1.0;"/><path d="M228.1719,483.7656 L228.1719,481.6094 L235.5625,481.6094 L235.5625,483.7656 L233.0938,483.7656 L233.0938,491.8438 L235.5625,491.8438 L235.5625,494 L228.1719,494 L228.1719,491.8438 L230.6406,491.8438 L230.6406,483.7656 L228.1719,483.7656 Z "/><text fill="#000000" font-family="sans-serif" font-size="12" font-style="italic" lengthAdjust="spacingAndGlyphs" textLength="97" x="252.75" y="492.1543">ItemSearchDAO</text><line style="stroke: #A80036; stroke-width: 1.5;" x1="23" x2="547" y1="504" y2="504"/><line style="stroke: #A80036; stroke-width: 1.5;" x1="23" x2="547" y1="512" y2="512"/><ellipse cx="33" cy="523" fill="#84BE84" rx="3" ry="3" style="stroke: #038048; stroke-width: 1.0;"/><text fill="#000000" font-family="sans-serif" font-size="11" lengthAdjust="spacingAndGlyphs" textLength="500" x="42" y="526.2104">search(String type, String category, String cdd, String cardId, String authors) : search[]</text><!--MD5=[2a408710d569b26d9df72a127e227b1d]
class PostgresItemSearchDAO--><rect fill="#FEFECE" filter="url(#fhytesgddah82)" height="73.6094" id="PostgresItemSearchDAO" style="stroke: #A80036; stroke-width: 1.5;" width="306" x="217" y="661"/><ellipse cx="289.25" cy="677" fill="#ADD1B2" rx="11" ry="11" style="stroke: #A80036; stroke-width: 1.0;"/><path d="M292.2188,682.6406 Q291.6406,682.9375 291,683.0859 Q290.3594,683.2344 289.6563,683.2344 Q287.1563,683.2344 285.8359,681.5859 Q284.5156,679.9375 284.5156,676.8125 Q284.5156,673.6875 285.8359,672.0313 Q287.1563,670.375 289.6563,670.375 Q290.3594,670.375 291.0078,670.5313 Q291.6563,670.6875 292.2188,670.9844 L292.2188,673.7031 Q291.5938,673.125 291,672.8516 Q290.4063,672.5781 289.7813,672.5781 Q288.4375,672.5781 287.75,673.6484 Q287.0625,674.7188 287.0625,676.8125 Q287.0625,678.9063 287.75,679.9766 Q288.4375,681.0469 289.7813,681.0469 Q290.4063,681.0469 291,680.7734 Q291.5938,680.5 292.2188,679.9219 L292.2188,682.6406 Z "/><text fill="#000000" font-family="sans-serif" font-size="12" lengthAdjust="spacingAndGlyphs" textLength="153" x="309.75" y="681.1543">PostgresItemSearchDAO</text><line style="stroke: #A80036; stroke-width: 1.5;" x1="218" x2="522" y1="693" y2="693"/><rect fill="none" height="6" style="stroke: #C82930; stroke-width: 1.0;" width="6" x="225" y="701"/><text fill="#000000" font-family="sans-serif" font-size="11" lengthAdjust="spacingAndGlyphs" textLength="132" x="237" y="707.2104">connection: Connection</text><line style="stroke: #A80036; stroke-width: 1.5;" x1="218" x2="522" y1="713.8047" y2="713.8047"/><ellipse cx="228" cy="724.8047" fill="#84BE84" rx="3" ry="3" style="stroke: #038048; stroke-width: 1.0;"/><text fill="#000000" font-family="sans-serif" font-size="11" lengthAdjust="spacingAndGlyphs" textLength="280" x="237" y="728.0151">PostgresItemSearchDAO(Connection: connection)</text><!--MD5=[700a5a1f58ccb71a3c0d036256714175]
class PostgresDAOFactory--><rect fill="#FEFECE" filter="url(#fhytesgddah82)" height="60.8047" id="PostgresDAOFactory" style="stroke: #A80036; stroke-width: 1.5;" width="160" x="608" y="667.5"/><ellipse cx="623" cy="683.5" fill="#ADD1B2" rx="11" ry="11" style="stroke: #A80036; stroke-width: 1.0;"/><path d="M625.9688,689.1406 Q625.3906,689.4375 624.75,689.5859 Q624.1094,689.7344 623.4063,689.7344 Q620.9063,689.7344 619.5859,688.0859 Q618.2656,686.4375 618.2656,683.3125 Q618.2656,680.1875 619.5859,678.5313 Q620.9063,676.875 623.4063,676.875 Q624.1094,676.875 624.7578,677.0313 Q625.4063,677.1875 625.9688,677.4844 L625.9688,680.2031 Q625.3438,679.625 624.75,679.3516 Q624.1563,679.0781 623.5313,679.0781 Q622.1875,679.0781 621.5,680.1484 Q620.8125,681.2188 620.8125,683.3125 Q620.8125,685.4063 621.5,686.4766 Q622.1875,687.5469 623.5313,687.5469 Q624.1563,687.5469 624.75,687.2734 Q625.3438,687 625.9688,686.4219 L625.9688,689.1406 Z "/><text fill="#000000" font-family="sans-serif" font-size="12" lengthAdjust="spacingAndGlyphs" textLength="128" x="637" y="687.6543">PostgresDAOFactory</text><line style="stroke: #A80036; stroke-width: 1.5;" x1="609" x2="767" y1="699.5" y2="699.5"/><rect fill="none" height="6" style="stroke: #C82930; stroke-width: 1.0;" width="6" x="616" y="707.5"/><text fill="#000000" font-family="sans-serif" font-size="11" lengthAdjust="spacingAndGlyphs" textLength="132" x="628" y="713.7104">connection: Connection</text><line style="stroke: #A80036; stroke-width: 1.5;" x1="609" x2="767" y1="720.3047" y2="720.3047"/><!--MD5=[87b55eec19aa7e4c196c63e612965547]
reverse link ItemSearchDAO to PostgresItemSearchDAO--><path d="M306.3659,551.6416 C321.1262,585.5903 340.4487,630.032 353.9122,660.9981 " fill="none" id="ItemSearchDAO&lt;-PostgresItemSearchDAO" style="stroke: #A80036; stroke-width: 1.0; stroke-dasharray: 7.0,7.0;"/><polygon fill="none" points="299.8363,554.1794,298.2813,533.0469,312.6753,548.5972,299.8363,554.1794" style="stroke: #A80036; stroke-width: 1.0;"/><!--MD5=[d37a47b44041b5251d0f0ec75d3c62d9]
reverse link DAOFactory to PostgresDAOFactory--><path d="M725.9378,552.5717 C716.4848,588.8083 704.0117,636.6218 695.9968,667.3457 " fill="none" id="DAOFactory&lt;-PostgresDAOFactory" style="stroke: #A80036; stroke-width: 1.0;"/><polygon fill="none" points="719.2094,550.6322,731.0313,533.0469,732.7561,554.1662,719.2094,550.6322" style="stroke: #A80036; stroke-width: 1.0;"/><!--MD5=[288fde091ef57c45b033b4ec0461b247]
reverse link PostgresItemSearchDAO to PostgresDAOFactory--><path d="M528.55,698 C556.0765,698 583.6211,698 607.8835,698 " fill="none" id="PostgresItemSearchDAO&lt;-PostgresDAOFactory" style="stroke: #A80036; stroke-width: 1.0; stroke-dasharray: 7.0,7.0;"/><polygon fill="#A80036" points="523.4112,698,532.4112,702,528.4112,698,532.4112,694,523.4112,698" style="stroke: #A80036; stroke-width: 1.0;"/><text fill="#000000" font-family="sans-serif" font-size="13" lengthAdjust="spacingAndGlyphs" textLength="48" x="541.5" y="691.0669">creates</text><!--MD5=[56262fef2320939567668d92e145b13c]
reverse link ItemSearchDAO to DAOFactory--><path d="M553.3677,502.5 C583.6189,502.5 612.8557,502.5 638.8299,502.5 " fill="none" id="ItemSearchDAO&lt;-DAOFactory" style="stroke: #A80036; stroke-width: 1.0; stroke-dasharray: 7.0,7.0;"/><polygon fill="#A80036" points="548.1077,502.5,557.1077,506.5,553.1077,502.5,557.1077,498.5,548.1077,502.5" style="stroke: #A80036; stroke-width: 1.0;"/><text fill="#000000" font-family="sans-serif" font-size="13" lengthAdjust="spacingAndGlyphs" textLength="54" x="566.5" y="495.5669">provides</text><!--MD5=[f58f9814082c95c60d6d44c39f714ba4]
link ItemSearchFacade to DAOFactory--><path d="M739,406.2432 C739,424.3606 739,447.377 739,466.36 " fill="none" id="ItemSearchFacade-&gt;DAOFactory" style="stroke: #A80036; stroke-width: 1.0;"/><polygon fill="#A80036" points="739,471.5998,743,462.5998,739,466.5998,735,462.5998,739,471.5998" style="stroke: #A80036; stroke-width: 1.0;"/><!--MD5=[ea2a6d8d963ea195af9918210a0a0295]
link ItemSearchController to ItemSearchFacade--><path d="M1002.3638,284.1821 C997.9306,286.9494 993.465,289.5726 989,292 C950.0781,313.1601 904.8399,330.2578 863.6296,343.3393 " fill="none" id="ItemSearchController-&gt;ItemSearchFacade" style="stroke: #A80036; stroke-width: 1.0;"/><polygon fill="#A80036" points="858.6246,344.9147,868.4104,346.0278,863.3939,343.4134,866.0083,338.3969,858.6246,344.9147" style="stroke: #A80036; stroke-width: 1.0;"/><!--MD5=[fcf9072e6392a1c56779f811cead712b]
@startuml
package controller {

  class ItemSearchController {
    -typeField: TextField
    -cardIdOrNameField: TextField
    -categoryField: TextField
    -cddField: TextField
    -authorsField: TextField
    -searchButton: Button
    +search() : void
    +displaySearch() : void
  }
}

package item-search {

  class ItemSearchFacade {
    +search(String type, String category, String cdd, String cardId, String authors)
  }
  note top of ItemSearchFacade
   Attributes can be Null
  end note
  
}

package dao {

  abstract class DAOFactory {
    +getLoanDAO(): ItemSearchDAO
  }

  interface ItemSearchDAO {
    +search(String type, String category, String cdd, String cardId, String authors) : search[]
  }

  package postgres {

    class PostgresItemSearchDAO implements ItemSearchDAO {
      -connection: Connection
      +PostgresItemSearchDAO(Connection: connection)
    }

    class PostgresDAOFactory extends DAOFactory {
      -connection: Connection
    }
  }

}

PostgresDAOFactory .left> PostgresItemSearchDAO : "creates"
DAOFactory .left> ItemSearchDAO : "provides"
ItemSearchFacade -down-> DAOFactory
ItemSearchController -down-> ItemSearchFacade
@enduml

PlantUML version 1.2019.12(Sun Nov 03 10:24:54 UTC 2019)
(GPL source distribution)
Java Runtime: OpenJDK Runtime Environment
JVM: OpenJDK 64-Bit Server VM
Java Version: 1.8.0_232-heroku-b09
Operating System: Linux
Default Encoding: UTF-8
Language: en
Country: US
--></g></svg>