<?xml version="1.0" encoding="UTF-8" standalone="no"?><svg xmlns="http://www.w3.org/2000/svg" xmlns:xlink="http://www.w3.org/1999/xlink" contentScriptType="application/ecmascript" contentStyleType="text/css" height="626px" preserveAspectRatio="none" style="width:626px;height:626px;" version="1.1" viewBox="0 0 626 626" width="626px" zoomAndPan="magnify"><defs><filter height="300%" id="f3r5s8sxsx2rs" width="300%" x="-1" y="-1"><feGaussianBlur result="blurOut" stdDeviation="2.0"/><feColorMatrix in="blurOut" result="blurOut2" type="matrix" values="0 0 0 0 0 0 0 0 0 0 0 0 0 0 0 0 0 0 .4 0"/><feOffset dx="4.0" dy="4.0" in="blurOut2" result="blurOut3"/><feBlend in="SourceGraphic" in2="blurOut3" mode="normal"/></filter></defs><g><!--MD5=[10ea673caf457862023e152271927b45]
cluster controller--><polygon fill="#FFFFFF" filter="url(#f3r5s8sxsx2rs)" points="382,16,465,16,472,38.2969,558,38.2969,558,150,382,150,382,16" style="stroke: #000000; stroke-width: 1.5;"/><line style="stroke: #000000; stroke-width: 1.5;" x1="382" x2="472" y1="38.2969" y2="38.2969"/><text fill="#000000" font-family="sans-serif" font-size="14" font-weight="bold" lengthAdjust="spacingAndGlyphs" textLength="77" x="386" y="30.9951">controller</text><!--MD5=[0c4a738b3201a23a254af68352446157]
cluster auth--><polygon fill="#FFFFFF" filter="url(#f3r5s8sxsx2rs)" points="336,181,377,181,384,203.2969,604,203.2969,604,277,336,277,336,181" style="stroke: #000000; stroke-width: 1.5;"/><line style="stroke: #000000; stroke-width: 1.5;" x1="336" x2="384" y1="203.2969" y2="203.2969"/><text fill="#000000" font-family="sans-serif" font-size="14" font-weight="bold" lengthAdjust="spacingAndGlyphs" textLength="35" x="340" y="195.9951">auth</text><!--MD5=[5622bc4ba3bf2be5d17935065b98c5f9]
cluster dao--><polygon fill="#FFFFFF" filter="url(#f3r5s8sxsx2rs)" points="14,308,49,308,56,330.2969,596,330.2969,596,614,14,614,14,308" style="stroke: #000000; stroke-width: 1.5;"/><line style="stroke: #000000; stroke-width: 1.5;" x1="14" x2="56" y1="330.2969" y2="330.2969"/><text fill="#000000" font-family="sans-serif" font-size="14" font-weight="bold" lengthAdjust="spacingAndGlyphs" textLength="29" x="18" y="322.9951">dao</text><!--MD5=[bab4019c732006648757f54388533847]
cluster postgres--><polygon fill="#FFFFFF" filter="url(#f3r5s8sxsx2rs)" points="22,497,99,497,106,519.2969,588,519.2969,588,606,22,606,22,497" style="stroke: #000000; stroke-width: 1.5;"/><line style="stroke: #000000; stroke-width: 1.5;" x1="22" x2="106" y1="519.2969" y2="519.2969"/><text fill="#000000" font-family="sans-serif" font-size="14" font-weight="bold" lengthAdjust="spacingAndGlyphs" textLength="71" x="26" y="511.9951">postgres</text><!--MD5=[ac74f2cffac7b468ba02dceb498c6058]
class BookingController--><rect fill="#FEFECE" filter="url(#f3r5s8sxsx2rs)" height="99.2188" id="BookingController" style="stroke: #A80036; stroke-width: 1.5;" width="160" x="390" y="43"/><ellipse cx="412.65" cy="59" fill="#ADD1B2" rx="11" ry="11" style="stroke: #A80036; stroke-width: 1.0;"/><path d="M415.6188,64.6406 Q415.0406,64.9375 414.4,65.0859 Q413.7594,65.2344 413.0563,65.2344 Q410.5563,65.2344 409.2359,63.5859 Q407.9156,61.9375 407.9156,58.8125 Q407.9156,55.6875 409.2359,54.0313 Q410.5563,52.375 413.0563,52.375 Q413.7594,52.375 414.4078,52.5313 Q415.0563,52.6875 415.6188,52.9844 L415.6188,55.7031 Q414.9938,55.125 414.4,54.8516 Q413.8063,54.5781 413.1813,54.5781 Q411.8375,54.5781 411.15,55.6484 Q410.4625,56.7188 410.4625,58.8125 Q410.4625,60.9063 411.15,61.9766 Q411.8375,63.0469 413.1813,63.0469 Q413.8063,63.0469 414.4,62.7734 Q414.9938,62.5 415.6188,61.9219 L415.6188,64.6406 Z "/><text fill="#000000" font-family="sans-serif" font-size="12" lengthAdjust="spacingAndGlyphs" textLength="111" x="428.35" y="63.1543">BookingController</text><line style="stroke: #A80036; stroke-width: 1.5;" x1="391" x2="549" y1="75" y2="75"/><rect fill="none" height="6" style="stroke: #C82930; stroke-width: 1.0;" width="6" x="398" y="83"/><text fill="#000000" font-family="sans-serif" font-size="11" lengthAdjust="spacingAndGlyphs" textLength="119" x="410" y="89.2104">cardIdField: TextField</text><rect fill="none" height="6" style="stroke: #C82930; stroke-width: 1.0;" width="6" x="398" y="95.8047"/><text fill="#000000" font-family="sans-serif" font-size="11" lengthAdjust="spacingAndGlyphs" textLength="119" x="410" y="102.0151">itemIdField: TextField</text><rect fill="none" height="6" style="stroke: #C82930; stroke-width: 1.0;" width="6" x="398" y="108.6094"/><text fill="#000000" font-family="sans-serif" font-size="11" lengthAdjust="spacingAndGlyphs" textLength="134" x="410" y="114.8198">bookButtonItem: Button</text><line style="stroke: #A80036; stroke-width: 1.5;" x1="391" x2="549" y1="121.4141" y2="121.4141"/><ellipse cx="401" cy="132.4141" fill="#84BE84" rx="3" ry="3" style="stroke: #038048; stroke-width: 1.0;"/><text fill="#000000" font-family="sans-serif" font-size="11" lengthAdjust="spacingAndGlyphs" textLength="91" x="410" y="135.6245">bookItem(): void</text><!--MD5=[692f5ef3ecb57b4b403650bc0b91d76b]
class BookingFacade--><rect fill="#FEFECE" filter="url(#f3r5s8sxsx2rs)" height="60.8047" id="BookingFacade" style="stroke: #A80036; stroke-width: 1.5;" width="251" x="344.5" y="208"/><ellipse cx="417.75" cy="224" fill="#ADD1B2" rx="11" ry="11" style="stroke: #A80036; stroke-width: 1.0;"/><path d="M420.7188,229.6406 Q420.1406,229.9375 419.5,230.0859 Q418.8594,230.2344 418.1563,230.2344 Q415.6563,230.2344 414.3359,228.5859 Q413.0156,226.9375 413.0156,223.8125 Q413.0156,220.6875 414.3359,219.0313 Q415.6563,217.375 418.1563,217.375 Q418.8594,217.375 419.5078,217.5313 Q420.1563,217.6875 420.7188,217.9844 L420.7188,220.7031 Q420.0938,220.125 419.5,219.8516 Q418.9063,219.5781 418.2813,219.5781 Q416.9375,219.5781 416.25,220.6484 Q415.5625,221.7188 415.5625,223.8125 Q415.5625,225.9063 416.25,226.9766 Q416.9375,228.0469 418.2813,228.0469 Q418.9063,228.0469 419.5,227.7734 Q420.0938,227.5 420.7188,226.9219 L420.7188,229.6406 Z "/><text fill="#000000" font-family="sans-serif" font-size="12" lengthAdjust="spacingAndGlyphs" textLength="96" x="438.25" y="228.1543">BookingFacade</text><line style="stroke: #A80036; stroke-width: 1.5;" x1="345.5" x2="594.5" y1="240" y2="240"/><line style="stroke: #A80036; stroke-width: 1.5;" x1="345.5" x2="594.5" y1="248" y2="248"/><ellipse cx="355.5" cy="259" fill="#84BE84" rx="3" ry="3" style="stroke: #038048; stroke-width: 1.0;"/><text fill="#000000" font-family="sans-serif" font-size="11" lengthAdjust="spacingAndGlyphs" textLength="225" x="364.5" y="262.2104">bookItem(int itemId, String cardId): void</text><!--MD5=[4a0300a6597e068a69ac5dc42e345e2c]
class DAOFactory--><rect fill="#FEFECE" filter="url(#f3r5s8sxsx2rs)" height="60.8047" id="DAOFactory" style="stroke: #A80036; stroke-width: 1.5;" width="236" x="352" y="335"/><ellipse cx="429.75" cy="351" fill="#A9DCDF" rx="11" ry="11" style="stroke: #A80036; stroke-width: 1.0;"/><path d="M429.8594,346.3438 L428.7031,351.4219 L431.0313,351.4219 L429.8594,346.3438 Z M428.375,344.1094 L431.3594,344.1094 L434.7188,356.5 L432.2656,356.5 L431.5,353.4375 L428.2188,353.4375 L427.4688,356.5 L425.0313,356.5 L428.375,344.1094 Z "/><text fill="#000000" font-family="sans-serif" font-size="12" font-style="italic" lengthAdjust="spacingAndGlyphs" textLength="72" x="450.25" y="355.1543">DAOFactory</text><line style="stroke: #A80036; stroke-width: 1.5;" x1="353" x2="587" y1="367" y2="367"/><line style="stroke: #A80036; stroke-width: 1.5;" x1="353" x2="587" y1="375" y2="375"/><ellipse cx="363" cy="386" fill="#84BE84" rx="3" ry="3" style="stroke: #038048; stroke-width: 1.0;"/><text fill="#000000" font-family="sans-serif" font-size="11" lengthAdjust="spacingAndGlyphs" textLength="210" x="372" y="389.2104">getLibraryItemDAO(): LibraryItemDAO</text><!--MD5=[f8ac9437d47d045124c5924dba28e3a3]
class LibraryItemDAO--><rect fill="#FEFECE" filter="url(#f3r5s8sxsx2rs)" height="60.8047" id="LibraryItemDAO" style="stroke: #A80036; stroke-width: 1.5;" width="189" x="72.5" y="335"/><ellipse cx="115.85" cy="351" fill="#B4A7E5" rx="11" ry="11" style="stroke: #A80036; stroke-width: 1.0;"/><path d="M111.7719,346.7656 L111.7719,344.6094 L119.1625,344.6094 L119.1625,346.7656 L116.6938,346.7656 L116.6938,354.8438 L119.1625,354.8438 L119.1625,357 L111.7719,357 L111.7719,354.8438 L114.2406,354.8438 L114.2406,346.7656 L111.7719,346.7656 Z "/><text fill="#000000" font-family="sans-serif" font-size="12" font-style="italic" lengthAdjust="spacingAndGlyphs" textLength="94" x="136.15" y="355.1543">LibraryItemDAO</text><line style="stroke: #A80036; stroke-width: 1.5;" x1="73.5" x2="260.5" y1="367" y2="367"/><line style="stroke: #A80036; stroke-width: 1.5;" x1="73.5" x2="260.5" y1="375" y2="375"/><ellipse cx="83.5" cy="386" fill="#84BE84" rx="3" ry="3" style="stroke: #038048; stroke-width: 1.0;"/><text fill="#000000" font-family="sans-serif" font-size="11" lengthAdjust="spacingAndGlyphs" textLength="163" x="92.5" y="389.2104">addBooking(int clientId): void</text><!--MD5=[347f450d9af984a2ca6c27561eedc0a1]
class PostgresLibraryItemDAO--><rect fill="#FEFECE" filter="url(#f3r5s8sxsx2rs)" height="73.6094" id="PostgresLibraryItemDAO" style="stroke: #A80036; stroke-width: 1.5;" width="305" x="30.5" y="524"/><ellipse cx="103.75" cy="540" fill="#ADD1B2" rx="11" ry="11" style="stroke: #A80036; stroke-width: 1.0;"/><path d="M106.7188,545.6406 Q106.1406,545.9375 105.5,546.0859 Q104.8594,546.2344 104.1563,546.2344 Q101.6563,546.2344 100.3359,544.5859 Q99.0156,542.9375 99.0156,539.8125 Q99.0156,536.6875 100.3359,535.0313 Q101.6563,533.375 104.1563,533.375 Q104.8594,533.375 105.5078,533.5313 Q106.1563,533.6875 106.7188,533.9844 L106.7188,536.7031 Q106.0938,536.125 105.5,535.8516 Q104.9063,535.5781 104.2813,535.5781 Q102.9375,535.5781 102.25,536.6484 Q101.5625,537.7188 101.5625,539.8125 Q101.5625,541.9063 102.25,542.9766 Q102.9375,544.0469 104.2813,544.0469 Q104.9063,544.0469 105.5,543.7734 Q106.0938,543.5 106.7188,542.9219 L106.7188,545.6406 Z "/><text fill="#000000" font-family="sans-serif" font-size="12" lengthAdjust="spacingAndGlyphs" textLength="150" x="124.25" y="544.1543">PostgresLibraryItemDAO</text><line style="stroke: #A80036; stroke-width: 1.5;" x1="31.5" x2="334.5" y1="556" y2="556"/><rect fill="none" height="6" style="stroke: #C82930; stroke-width: 1.0;" width="6" x="38.5" y="564"/><text fill="#000000" font-family="sans-serif" font-size="11" lengthAdjust="spacingAndGlyphs" textLength="132" x="50.5" y="570.2104">connection: Connection</text><line style="stroke: #A80036; stroke-width: 1.5;" x1="31.5" x2="334.5" y1="576.8047" y2="576.8047"/><ellipse cx="41.5" cy="587.8047" fill="#84BE84" rx="3" ry="3" style="stroke: #038048; stroke-width: 1.0;"/><text fill="#000000" font-family="sans-serif" font-size="11" lengthAdjust="spacingAndGlyphs" textLength="279" x="50.5" y="591.0151">PostgresLibraryItemDAO(Connection: connection)</text><!--MD5=[700a5a1f58ccb71a3c0d036256714175]
class PostgresDAOFactory--><rect fill="#FEFECE" filter="url(#f3r5s8sxsx2rs)" height="60.8047" id="PostgresDAOFactory" style="stroke: #A80036; stroke-width: 1.5;" width="160" x="420" y="530.5"/><ellipse cx="435" cy="546.5" fill="#ADD1B2" rx="11" ry="11" style="stroke: #A80036; stroke-width: 1.0;"/><path d="M437.9688,552.1406 Q437.3906,552.4375 436.75,552.5859 Q436.1094,552.7344 435.4063,552.7344 Q432.9063,552.7344 431.5859,551.0859 Q430.2656,549.4375 430.2656,546.3125 Q430.2656,543.1875 431.5859,541.5313 Q432.9063,539.875 435.4063,539.875 Q436.1094,539.875 436.7578,540.0313 Q437.4063,540.1875 437.9688,540.4844 L437.9688,543.2031 Q437.3438,542.625 436.75,542.3516 Q436.1563,542.0781 435.5313,542.0781 Q434.1875,542.0781 433.5,543.1484 Q432.8125,544.2188 432.8125,546.3125 Q432.8125,548.4063 433.5,549.4766 Q434.1875,550.5469 435.5313,550.5469 Q436.1563,550.5469 436.75,550.2734 Q437.3438,550 437.9688,549.4219 L437.9688,552.1406 Z "/><text fill="#000000" font-family="sans-serif" font-size="12" lengthAdjust="spacingAndGlyphs" textLength="128" x="449" y="550.6543">PostgresDAOFactory</text><line style="stroke: #A80036; stroke-width: 1.5;" x1="421" x2="579" y1="562.5" y2="562.5"/><rect fill="none" height="6" style="stroke: #C82930; stroke-width: 1.0;" width="6" x="428" y="570.5"/><text fill="#000000" font-family="sans-serif" font-size="11" lengthAdjust="spacingAndGlyphs" textLength="132" x="440" y="576.7104">connection: Connection</text><line style="stroke: #A80036; stroke-width: 1.5;" x1="421" x2="579" y1="583.3047" y2="583.3047"/><!--MD5=[31540489fc416062c4a9a0afa2f83c69]
reverse link LibraryItemDAO to PostgresLibraryItemDAO--><path d="M171.1392,416.0755 C173.902,449.8337 177.4729,493.4661 179.9717,523.9981 " fill="none" id="LibraryItemDAO&lt;-PostgresLibraryItemDAO" style="stroke: #A80036; stroke-width: 1.0; stroke-dasharray: 7.0,7.0;"/><polygon fill="none" points="164.1548,416.5512,169.5,396.0469,178.1081,415.4092,164.1548,416.5512" style="stroke: #A80036; stroke-width: 1.0;"/><!--MD5=[d37a47b44041b5251d0f0ec75d3c62d9]
reverse link DAOFactory to PostgresDAOFactory--><path d="M477.7225,415.8253 C483.2784,452.0311 490.5923,499.6934 495.296,530.3457 " fill="none" id="DAOFactory&lt;-PostgresDAOFactory" style="stroke: #A80036; stroke-width: 1.0;"/><polygon fill="none" points="470.8021,416.8772,474.6875,396.0469,484.6401,414.7537,470.8021,416.8772" style="stroke: #A80036; stroke-width: 1.0;"/><!--MD5=[6c9204539c26ae6f81665b62a202a07c]
reverse link PostgresLibraryItemDAO to PostgresDAOFactory--><path d="M341.0236,561 C368.3144,561 395.6241,561 419.7162,561 " fill="none" id="PostgresLibraryItemDAO&lt;-PostgresDAOFactory" style="stroke: #A80036; stroke-width: 1.0; stroke-dasharray: 7.0,7.0;"/><polygon fill="#A80036" points="335.9288,561,344.9288,565,340.9288,561,344.9288,557,335.9288,561" style="stroke: #A80036; stroke-width: 1.0;"/><text fill="#000000" font-family="sans-serif" font-size="13" lengthAdjust="spacingAndGlyphs" textLength="48" x="353.75" y="554.0669">creates</text><!--MD5=[775670528a6183d48d7c634cc7f7ee9b]
reverse link LibraryItemDAO to DAOFactory--><path d="M266.6772,365.5 C293.8994,365.5 323.6596,365.5 351.8062,365.5 " fill="none" id="LibraryItemDAO&lt;-DAOFactory" style="stroke: #A80036; stroke-width: 1.0; stroke-dasharray: 7.0,7.0;"/><polygon fill="#A80036" points="261.6247,365.5,270.6247,369.5,266.6247,365.5,270.6247,361.5,261.6247,365.5" style="stroke: #A80036; stroke-width: 1.0;"/><text fill="#000000" font-family="sans-serif" font-size="13" lengthAdjust="spacingAndGlyphs" textLength="54" x="279.75" y="358.5669">provides</text><!--MD5=[08c1eb0abdccc66f25ed6254338d0e89]
link BookingFacade to DAOFactory--><path d="M470,269.2432 C470,287.3606 470,310.377 470,329.36 " fill="none" id="BookingFacade-&gt;DAOFactory" style="stroke: #A80036; stroke-width: 1.0;"/><polygon fill="#A80036" points="470,334.5998,474,325.5998,470,329.5998,466,325.5998,470,334.5998" style="stroke: #A80036; stroke-width: 1.0;"/><!--MD5=[cc4f103826cd79a72a05c125dfbeeca9]
link BookingController to BookingFacade--><path d="M470,142.3366 C470,162.1198 470,184.4351 470,202.5854 " fill="none" id="BookingController-&gt;BookingFacade" style="stroke: #A80036; stroke-width: 1.0;"/><polygon fill="#A80036" points="470,207.5888,474,198.5888,470,202.5888,466,198.5888,470,207.5888" style="stroke: #A80036; stroke-width: 1.0;"/><!--MD5=[664bce58df4e92f9e1b7d5857266c1a2]
@startuml
package controller {

  class BookingController {
    -cardIdField: TextField
    -itemIdField: TextField
    -bookButtonItem: Button
    +bookItem(): void
  }

}

package auth {

  class BookingFacade {
    +bookItem(int itemId, String cardId): void
  }

}

package dao {

  abstract class DAOFactory {
    +getLibraryItemDAO(): LibraryItemDAO
  }

  interface LibraryItemDAO {
    +addBooking(int clientId): void
  }

  package postgres {

    class PostgresLibraryItemDAO implements LibraryItemDAO {
      -connection: Connection
      +PostgresLibraryItemDAO(Connection: connection)
    }

    class PostgresDAOFactory extends DAOFactory {
      -connection: Connection
    }

  }

}

PostgresDAOFactory .left> PostgresLibraryItemDAO : "creates"
DAOFactory .left> LibraryItemDAO : "provides"


BookingFacade -down-> DAOFactory
BookingController - -> BookingFacade
@enduml

PlantUML version 1.2019.12(Sun Nov 03 10:24:54 UTC 2019)
(GPL source distribution)
Java Runtime: OpenJDK Runtime Environment
JVM: OpenJDK 64-Bit Server VM
Java Version: 1.8.0_232-heroku-b09
Operating System: Linux
Default Encoding: UTF-8
Language: en
Country: US
--></g></svg>