<?xml version="1.0" encoding="UTF-8" standalone="no"?><svg xmlns="http://www.w3.org/2000/svg" xmlns:xlink="http://www.w3.org/1999/xlink" contentScriptType="application/ecmascript" contentStyleType="text/css" height="764px" preserveAspectRatio="none" style="width:898px;height:764px;" version="1.1" viewBox="0 0 898 764" width="898px" zoomAndPan="magnify"><defs><filter height="300%" id="f1i0n5pb2xfjgs" width="300%" x="-1" y="-1"><feGaussianBlur result="blurOut" stdDeviation="2.0"/><feColorMatrix in="blurOut" result="blurOut2" type="matrix" values="0 0 0 0 0 0 0 0 0 0 0 0 0 0 0 0 0 0 .4 0"/><feOffset dx="4.0" dy="4.0" in="blurOut2" result="blurOut3"/><feBlend in="SourceGraphic" in2="blurOut3" mode="normal"/></filter></defs><g><!--MD5=[10ea673caf457862023e152271927b45]
cluster controller--><polygon fill="#FFFFFF" filter="url(#f1i0n5pb2xfjgs)" points="191,6,274,6,281,28.2969,881,28.2969,881,191,191,191,191,6" style="stroke:#000000;stroke-width:1.5;"/><line style="stroke:#000000;stroke-width:1.5;" x1="191" x2="281" y1="28.2969" y2="28.2969"/><text fill="#000000" font-family="sans-serif" font-size="14" font-weight="bold" lengthAdjust="spacingAndGlyphs" textLength="77" x="195" y="20.9951">controller</text><!--MD5=[c8f8ab40fc7915cdf338a17a9e2cf10d]
cluster StaffMember--><polygon fill="#FFFFFF" filter="url(#f1i0n5pb2xfjgs)" points="386,222,493,222,500,244.2969,708,244.2969,708,369,386,369,386,222" style="stroke:#000000;stroke-width:1.5;"/><line style="stroke:#000000;stroke-width:1.5;" x1="386" x2="500" y1="244.2969" y2="244.2969"/><text fill="#000000" font-family="sans-serif" font-size="14" font-weight="bold" lengthAdjust="spacingAndGlyphs" textLength="101" x="390" y="236.9951">StaffMember</text><!--MD5=[5622bc4ba3bf2be5d17935065b98c5f9]
cluster dao--><polygon fill="#FFFFFF" filter="url(#f1i0n5pb2xfjgs)" points="16,400,51,400,58,422.2969,682,422.2969,682,757,16,757,16,400" style="stroke:#000000;stroke-width:1.5;"/><line style="stroke:#000000;stroke-width:1.5;" x1="16" x2="58" y1="422.2969" y2="422.2969"/><text fill="#000000" font-family="sans-serif" font-size="14" font-weight="bold" lengthAdjust="spacingAndGlyphs" textLength="29" x="20" y="414.9951">dao</text><!--MD5=[bab4019c732006648757f54388533847]
cluster postgres--><polygon fill="#FFFFFF" filter="url(#f1i0n5pb2xfjgs)" points="42,640,119,640,126,662.2969,617,662.2969,617,749,42,749,42,640" style="stroke:#000000;stroke-width:1.5;"/><line style="stroke:#000000;stroke-width:1.5;" x1="42" x2="126" y1="662.2969" y2="662.2969"/><text fill="#000000" font-family="sans-serif" font-size="14" font-weight="bold" lengthAdjust="spacingAndGlyphs" textLength="71" x="46" y="654.9951">postgres</text><!--MD5=[c9c223b8d282850f45ab4892089a1827]
class CreateStaffMemberController--><rect codeLine="3" fill="#FEFECE" filter="url(#f1i0n5pb2xfjgs)" height="112.0234" id="CreateStaffMemberController" style="stroke:#A80036;stroke-width:1.5;" width="214" x="199" y="52"/><ellipse cx="214" cy="68" fill="#ADD1B2" rx="11" ry="11" style="stroke:#A80036;stroke-width:1.0;"/><path d="M216.9688,73.6406 Q216.3906,73.9375 215.75,74.0781 Q215.1094,74.2344 214.4063,74.2344 Q211.9063,74.2344 210.5781,72.5938 Q209.2656,70.9375 209.2656,67.8125 Q209.2656,64.6875 210.5781,63.0313 Q211.9063,61.375 214.4063,61.375 Q215.1094,61.375 215.75,61.5313 Q216.4063,61.6875 216.9688,61.9844 L216.9688,64.7031 Q216.3438,64.125 215.75,63.8594 Q215.1563,63.5781 214.5313,63.5781 Q213.1875,63.5781 212.5,64.6563 Q211.8125,65.7188 211.8125,67.8125 Q211.8125,69.9063 212.5,70.9844 Q213.1875,72.0469 214.5313,72.0469 Q215.1563,72.0469 215.75,71.7813 Q216.3438,71.5 216.9688,70.9219 L216.9688,73.6406 Z " fill="#000000"/><text fill="#000000" font-family="sans-serif" font-size="12" lengthAdjust="spacingAndGlyphs" textLength="182" x="228" y="72.1543">CreateStaffMemberController</text><line style="stroke:#A80036;stroke-width:1.5;" x1="200" x2="412" y1="84" y2="84"/><rect fill="none" height="6" style="stroke:#C82930;stroke-width:1.0;" width="6" x="207" y="92"/><text fill="#000000" font-family="sans-serif" font-size="11" lengthAdjust="spacingAndGlyphs" textLength="116" x="219" y="98.2104">nameField: TextField</text><rect fill="none" height="6" style="stroke:#C82930;stroke-width:1.0;" width="6" x="207" y="104.8047"/><text fill="#000000" font-family="sans-serif" font-size="11" lengthAdjust="spacingAndGlyphs" textLength="140" x="219" y="111.0151">passwordField: TextField</text><rect fill="none" height="6" style="stroke:#C82930;stroke-width:1.0;" width="6" x="207" y="117.6094"/><text fill="#000000" font-family="sans-serif" font-size="11" lengthAdjust="spacingAndGlyphs" textLength="140" x="219" y="123.8198">roleCheckBox: CheckBox</text><rect fill="none" height="6" style="stroke:#C82930;stroke-width:1.0;" width="6" x="207" y="130.4141"/><text fill="#000000" font-family="sans-serif" font-size="11" lengthAdjust="spacingAndGlyphs" textLength="118" x="219" y="136.6245">createButton: Button</text><line style="stroke:#A80036;stroke-width:1.5;" x1="200" x2="412" y1="143.2188" y2="143.2188"/><ellipse cx="210" cy="154.2188" fill="#84BE84" rx="3" ry="3" style="stroke:#038048;stroke-width:1.0;"/><text fill="#000000" font-family="sans-serif" font-size="11" lengthAdjust="spacingAndGlyphs" textLength="125" x="219" y="157.4292">create(): StaffMember</text><!--MD5=[8d6b76b1d10b117a0f4e8058ebab4a0c]
class FindStaffMemberController--><rect codeLine="11" fill="#FEFECE" filter="url(#f1i0n5pb2xfjgs)" height="99.2188" id="FindStaffMemberController" style="stroke:#A80036;stroke-width:1.5;" width="198" x="448" y="58.5"/><ellipse cx="463" cy="74.5" fill="#ADD1B2" rx="11" ry="11" style="stroke:#A80036;stroke-width:1.0;"/><path d="M465.9688,80.1406 Q465.3906,80.4375 464.75,80.5781 Q464.1094,80.7344 463.4063,80.7344 Q460.9063,80.7344 459.5781,79.0938 Q458.2656,77.4375 458.2656,74.3125 Q458.2656,71.1875 459.5781,69.5313 Q460.9063,67.875 463.4063,67.875 Q464.1094,67.875 464.75,68.0313 Q465.4063,68.1875 465.9688,68.4844 L465.9688,71.2031 Q465.3438,70.625 464.75,70.3594 Q464.1563,70.0781 463.5313,70.0781 Q462.1875,70.0781 461.5,71.1563 Q460.8125,72.2188 460.8125,74.3125 Q460.8125,76.4063 461.5,77.4844 Q462.1875,78.5469 463.5313,78.5469 Q464.1563,78.5469 464.75,78.2813 Q465.3438,78 465.9688,77.4219 L465.9688,80.1406 Z " fill="#000000"/><text fill="#000000" font-family="sans-serif" font-size="12" lengthAdjust="spacingAndGlyphs" textLength="166" x="477" y="78.6543">FindStaffMemberController</text><line style="stroke:#A80036;stroke-width:1.5;" x1="449" x2="645" y1="90.5" y2="90.5"/><rect fill="none" height="6" style="stroke:#C82930;stroke-width:1.0;" width="6" x="456" y="98.5"/><text fill="#000000" font-family="sans-serif" font-size="11" lengthAdjust="spacingAndGlyphs" textLength="94" x="468" y="104.7104">idField: TextField</text><rect fill="none" height="6" style="stroke:#C82930;stroke-width:1.0;" width="6" x="456" y="111.3047"/><text fill="#000000" font-family="sans-serif" font-size="11" lengthAdjust="spacingAndGlyphs" textLength="116" x="468" y="117.5151">nameField: TextField</text><rect fill="none" height="6" style="stroke:#C82930;stroke-width:1.0;" width="6" x="456" y="124.1094"/><text fill="#000000" font-family="sans-serif" font-size="11" lengthAdjust="spacingAndGlyphs" textLength="103" x="468" y="130.3198">findButton: Button</text><line style="stroke:#A80036;stroke-width:1.5;" x1="449" x2="645" y1="136.9141" y2="136.9141"/><ellipse cx="459" cy="147.9141" fill="#84BE84" rx="3" ry="3" style="stroke:#038048;stroke-width:1.0;"/><text fill="#000000" font-family="sans-serif" font-size="11" lengthAdjust="spacingAndGlyphs" textLength="110" x="468" y="151.1245">find(): StaffMember</text><!--MD5=[e0d9f8124e4343b1b7a480d0585b083f]
class StaffMemberController--><rect codeLine="18" fill="#FEFECE" filter="url(#f1i0n5pb2xfjgs)" height="150.4375" id="StaffMemberController" style="stroke:#A80036;stroke-width:1.5;" width="192" x="681" y="33"/><ellipse cx="705" cy="49" fill="#ADD1B2" rx="11" ry="11" style="stroke:#A80036;stroke-width:1.0;"/><path d="M707.9688,54.6406 Q707.3906,54.9375 706.75,55.0781 Q706.1094,55.2344 705.4063,55.2344 Q702.9063,55.2344 701.5781,53.5938 Q700.2656,51.9375 700.2656,48.8125 Q700.2656,45.6875 701.5781,44.0313 Q702.9063,42.375 705.4063,42.375 Q706.1094,42.375 706.75,42.5313 Q707.4063,42.6875 707.9688,42.9844 L707.9688,45.7031 Q707.3438,45.125 706.75,44.8594 Q706.1563,44.5781 705.5313,44.5781 Q704.1875,44.5781 703.5,45.6563 Q702.8125,46.7188 702.8125,48.8125 Q702.8125,50.9063 703.5,51.9844 Q704.1875,53.0469 705.5313,53.0469 Q706.1563,53.0469 706.75,52.7813 Q707.3438,52.5 707.9688,51.9219 L707.9688,54.6406 Z " fill="#000000"/><text fill="#000000" font-family="sans-serif" font-size="12" lengthAdjust="spacingAndGlyphs" textLength="140" x="721" y="53.1543">StaffMemberController</text><line style="stroke:#A80036;stroke-width:1.5;" x1="682" x2="872" y1="65" y2="65"/><rect fill="none" height="6" style="stroke:#C82930;stroke-width:1.0;" width="6" x="689" y="73"/><text fill="#000000" font-family="sans-serif" font-size="11" lengthAdjust="spacingAndGlyphs" textLength="116" x="701" y="79.2104">nameField: TextField</text><rect fill="none" height="6" style="stroke:#C82930;stroke-width:1.0;" width="6" x="689" y="85.8047"/><text fill="#000000" font-family="sans-serif" font-size="11" lengthAdjust="spacingAndGlyphs" textLength="140" x="701" y="92.0151">passwordField: TextField</text><rect fill="none" height="6" style="stroke:#C82930;stroke-width:1.0;" width="6" x="689" y="98.6094"/><text fill="#000000" font-family="sans-serif" font-size="11" lengthAdjust="spacingAndGlyphs" textLength="140" x="701" y="104.8198">roleCheckBox: CheckBox</text><rect fill="none" height="6" style="stroke:#C82930;stroke-width:1.0;" width="6" x="689" y="111.4141"/><text fill="#000000" font-family="sans-serif" font-size="11" lengthAdjust="spacingAndGlyphs" textLength="121" x="701" y="117.6245">updateButton: Button</text><rect fill="none" height="6" style="stroke:#C82930;stroke-width:1.0;" width="6" x="689" y="124.2188"/><text fill="#000000" font-family="sans-serif" font-size="11" lengthAdjust="spacingAndGlyphs" textLength="117" x="701" y="130.4292">deleteButton: Button</text><rect fill="none" height="6" style="stroke:#C82930;stroke-width:1.0;" width="6" x="689" y="137.0234"/><text fill="#000000" font-family="sans-serif" font-size="11" lengthAdjust="spacingAndGlyphs" textLength="166" x="701" y="143.2339">validateUpdateButton: Button</text><line style="stroke:#A80036;stroke-width:1.5;" x1="682" x2="872" y1="149.8281" y2="149.8281"/><ellipse cx="692" cy="160.8281" fill="#84BE84" rx="3" ry="3" style="stroke:#038048;stroke-width:1.0;"/><text fill="#000000" font-family="sans-serif" font-size="11" lengthAdjust="spacingAndGlyphs" textLength="78" x="701" y="164.0386">update(): void</text><ellipse cx="692" cy="173.6328" fill="#84BE84" rx="3" ry="3" style="stroke:#038048;stroke-width:1.0;"/><text fill="#000000" font-family="sans-serif" font-size="11" lengthAdjust="spacingAndGlyphs" textLength="74" x="701" y="176.8433">delete(): void</text><!--MD5=[456615ddbcbe43873d275d66c233653d]
class StaffMemberFacade--><rect codeLine="33" fill="#FEFECE" filter="url(#f1i0n5pb2xfjgs)" height="112.0234" id="StaffMemberFacade" style="stroke:#A80036;stroke-width:1.5;" width="305" x="394.5" y="249"/><ellipse cx="480.25" cy="265" fill="#ADD1B2" rx="11" ry="11" style="stroke:#A80036;stroke-width:1.0;"/><path d="M483.2188,270.6406 Q482.6406,270.9375 482,271.0781 Q481.3594,271.2344 480.6563,271.2344 Q478.1563,271.2344 476.8281,269.5938 Q475.5156,267.9375 475.5156,264.8125 Q475.5156,261.6875 476.8281,260.0313 Q478.1563,258.375 480.6563,258.375 Q481.3594,258.375 482,258.5313 Q482.6563,258.6875 483.2188,258.9844 L483.2188,261.7031 Q482.5938,261.125 482,260.8594 Q481.4063,260.5781 480.7813,260.5781 Q479.4375,260.5781 478.75,261.6563 Q478.0625,262.7188 478.0625,264.8125 Q478.0625,266.9063 478.75,267.9844 Q479.4375,269.0469 480.7813,269.0469 Q481.4063,269.0469 482,268.7813 Q482.5938,268.5 483.2188,267.9219 L483.2188,270.6406 Z " fill="#000000"/><text fill="#000000" font-family="sans-serif" font-size="12" lengthAdjust="spacingAndGlyphs" textLength="125" x="500.75" y="269.1543">StaffMemberFacade</text><line style="stroke:#A80036;stroke-width:1.5;" x1="395.5" x2="698.5" y1="281" y2="281"/><line style="stroke:#A80036;stroke-width:1.5;" x1="395.5" x2="698.5" y1="289" y2="289"/><ellipse cx="405.5" cy="300" fill="#84BE84" rx="3" ry="3" style="stroke:#038048;stroke-width:1.0;"/><text fill="#000000" font-family="sans-serif" font-size="11" lengthAdjust="spacingAndGlyphs" textLength="274" x="414.5" y="303.2104">create(StaffMember staffMember): StaffMember</text><ellipse cx="405.5" cy="312.8047" fill="#84BE84" rx="3" ry="3" style="stroke:#038048;stroke-width:1.0;"/><text fill="#000000" font-family="sans-serif" font-size="11" lengthAdjust="spacingAndGlyphs" textLength="189" x="414.5" y="316.0151">findById(int idStaff): StaffMember</text><ellipse cx="405.5" cy="325.6094" fill="#84BE84" rx="3" ry="3" style="stroke:#038048;stroke-width:1.0;"/><text fill="#000000" font-family="sans-serif" font-size="11" lengthAdjust="spacingAndGlyphs" textLength="279" x="414.5" y="328.8198">findByUsername(String username): StaffMember</text><ellipse cx="405.5" cy="338.4141" fill="#84BE84" rx="3" ry="3" style="stroke:#038048;stroke-width:1.0;"/><text fill="#000000" font-family="sans-serif" font-size="11" lengthAdjust="spacingAndGlyphs" textLength="227" x="414.5" y="341.6245">update(StaffMember staffMember): void</text><ellipse cx="405.5" cy="351.2188" fill="#84BE84" rx="3" ry="3" style="stroke:#038048;stroke-width:1.0;"/><text fill="#000000" font-family="sans-serif" font-size="11" lengthAdjust="spacingAndGlyphs" textLength="223" x="414.5" y="354.4292">delete(StaffMember staffMember): void</text><!--MD5=[4a0300a6597e068a69ac5dc42e345e2c]
class DAOFactory--><rect codeLine="45" fill="#FEFECE" filter="url(#f1i0n5pb2xfjgs)" height="60.8047" id="DAOFactory" style="stroke:#A80036;stroke-width:1.5;" width="254" x="420" y="452.5"/><ellipse cx="506.75" cy="468.5" fill="#A9DCDF" rx="11" ry="11" style="stroke:#A80036;stroke-width:1.0;"/><path d="M506.8594,463.8438 L505.7031,468.9219 L508.0313,468.9219 L506.8594,463.8438 Z M505.375,461.6094 L508.3594,461.6094 L511.7188,474 L509.2656,474 L508.5,470.9375 L505.2188,470.9375 L504.4688,474 L502.0313,474 L505.375,461.6094 Z " fill="#000000"/><text fill="#000000" font-family="sans-serif" font-size="12" font-style="italic" lengthAdjust="spacingAndGlyphs" textLength="72" x="527.25" y="472.6543">DAOFactory</text><line style="stroke:#A80036;stroke-width:1.5;" x1="421" x2="673" y1="484.5" y2="484.5"/><line style="stroke:#A80036;stroke-width:1.5;" x1="421" x2="673" y1="492.5" y2="492.5"/><ellipse cx="431" cy="503.5" fill="#84BE84" rx="3" ry="3" style="stroke:#038048;stroke-width:1.0;"/><text fill="#000000" font-family="sans-serif" font-size="11" lengthAdjust="spacingAndGlyphs" textLength="228" x="440" y="506.7104">getStaffMemberDAO(): StaffMemberDAO</text><!--MD5=[b7785740adc24eec8e80232fb4c80faa]
class StaffMemberDAO--><rect codeLine="49" fill="#FEFECE" filter="url(#f1i0n5pb2xfjgs)" height="112.0234" id="StaffMemberDAO" style="stroke:#A80036;stroke-width:1.5;" width="305" x="24.5" y="427"/><ellipse cx="120.25" cy="443" fill="#B4A7E5" rx="11" ry="11" style="stroke:#A80036;stroke-width:1.0;"/><path d="M116.1719,438.7656 L116.1719,436.6094 L123.5625,436.6094 L123.5625,438.7656 L121.0938,438.7656 L121.0938,446.8438 L123.5625,446.8438 L123.5625,449 L116.1719,449 L116.1719,446.8438 L118.6406,446.8438 L118.6406,438.7656 L116.1719,438.7656 Z " fill="#000000"/><text fill="#000000" font-family="sans-serif" font-size="12" font-style="italic" lengthAdjust="spacingAndGlyphs" textLength="105" x="140.75" y="447.1543">StaffMemberDAO</text><line style="stroke:#A80036;stroke-width:1.5;" x1="25.5" x2="328.5" y1="459" y2="459"/><line style="stroke:#A80036;stroke-width:1.5;" x1="25.5" x2="328.5" y1="467" y2="467"/><ellipse cx="35.5" cy="478" fill="#84BE84" rx="3" ry="3" style="stroke:#038048;stroke-width:1.0;"/><text fill="#000000" font-family="sans-serif" font-size="11" lengthAdjust="spacingAndGlyphs" textLength="274" x="44.5" y="481.2104">create(StaffMember staffMember): StaffMember</text><ellipse cx="35.5" cy="490.8047" fill="#84BE84" rx="3" ry="3" style="stroke:#038048;stroke-width:1.0;"/><text fill="#000000" font-family="sans-serif" font-size="11" lengthAdjust="spacingAndGlyphs" textLength="189" x="44.5" y="494.0151">findById(int idStaff): StaffMember</text><ellipse cx="35.5" cy="503.6094" fill="#84BE84" rx="3" ry="3" style="stroke:#038048;stroke-width:1.0;"/><text fill="#000000" font-family="sans-serif" font-size="11" lengthAdjust="spacingAndGlyphs" textLength="279" x="44.5" y="506.8198">findByUsername(String username): StaffMember</text><ellipse cx="35.5" cy="516.4141" fill="#84BE84" rx="3" ry="3" style="stroke:#038048;stroke-width:1.0;"/><text fill="#000000" font-family="sans-serif" font-size="11" lengthAdjust="spacingAndGlyphs" textLength="227" x="44.5" y="519.6245">update(StaffMember staffMember): void</text><ellipse cx="35.5" cy="529.2188" fill="#84BE84" rx="3" ry="3" style="stroke:#038048;stroke-width:1.0;"/><text fill="#000000" font-family="sans-serif" font-size="11" lengthAdjust="spacingAndGlyphs" textLength="223" x="44.5" y="532.4292">delete(StaffMember staffMember): void</text><!--MD5=[eaa04f0840f124e699d692db6cc90032]
class PostgresStaffMemberDAO--><rect codeLine="59" fill="#FEFECE" filter="url(#f1i0n5pb2xfjgs)" height="73.6094" id="PostgresStaffMemberDAO" style="stroke:#A80036;stroke-width:1.5;" width="314" x="50" y="667"/><ellipse cx="122.25" cy="683" fill="#ADD1B2" rx="11" ry="11" style="stroke:#A80036;stroke-width:1.0;"/><path d="M125.2188,688.6406 Q124.6406,688.9375 124,689.0781 Q123.3594,689.2344 122.6563,689.2344 Q120.1563,689.2344 118.8281,687.5938 Q117.5156,685.9375 117.5156,682.8125 Q117.5156,679.6875 118.8281,678.0313 Q120.1563,676.375 122.6563,676.375 Q123.3594,676.375 124,676.5313 Q124.6563,676.6875 125.2188,676.9844 L125.2188,679.7031 Q124.5938,679.125 124,678.8594 Q123.4063,678.5781 122.7813,678.5781 Q121.4375,678.5781 120.75,679.6563 Q120.0625,680.7188 120.0625,682.8125 Q120.0625,684.9063 120.75,685.9844 Q121.4375,687.0469 122.7813,687.0469 Q123.4063,687.0469 124,686.7813 Q124.5938,686.5 125.2188,685.9219 L125.2188,688.6406 Z " fill="#000000"/><text fill="#000000" font-family="sans-serif" font-size="12" lengthAdjust="spacingAndGlyphs" textLength="161" x="142.75" y="687.1543">PostgresStaffMemberDAO</text><line style="stroke:#A80036;stroke-width:1.5;" x1="51" x2="363" y1="699" y2="699"/><rect fill="none" height="6" style="stroke:#C82930;stroke-width:1.0;" width="6" x="58" y="707"/><text fill="#000000" font-family="sans-serif" font-size="11" lengthAdjust="spacingAndGlyphs" textLength="132" x="70" y="713.2104">connection: Connection</text><line style="stroke:#A80036;stroke-width:1.5;" x1="51" x2="363" y1="719.8047" y2="719.8047"/><ellipse cx="61" cy="730.8047" fill="#84BE84" rx="3" ry="3" style="stroke:#038048;stroke-width:1.0;"/><text fill="#000000" font-family="sans-serif" font-size="11" lengthAdjust="spacingAndGlyphs" textLength="288" x="70" y="734.0151">PostgresStaffMemberDAO(Connection: connection)</text><!--MD5=[700a5a1f58ccb71a3c0d036256714175]
class PostgresDAOFactory--><rect codeLine="64" fill="#FEFECE" filter="url(#f1i0n5pb2xfjgs)" height="60.8047" id="PostgresDAOFactory" style="stroke:#A80036;stroke-width:1.5;" width="160" x="449" y="673.5"/><ellipse cx="464" cy="689.5" fill="#ADD1B2" rx="11" ry="11" style="stroke:#A80036;stroke-width:1.0;"/><path d="M466.9688,695.1406 Q466.3906,695.4375 465.75,695.5781 Q465.1094,695.7344 464.4063,695.7344 Q461.9063,695.7344 460.5781,694.0938 Q459.2656,692.4375 459.2656,689.3125 Q459.2656,686.1875 460.5781,684.5313 Q461.9063,682.875 464.4063,682.875 Q465.1094,682.875 465.75,683.0313 Q466.4063,683.1875 466.9688,683.4844 L466.9688,686.2031 Q466.3438,685.625 465.75,685.3594 Q465.1563,685.0781 464.5313,685.0781 Q463.1875,685.0781 462.5,686.1563 Q461.8125,687.2188 461.8125,689.3125 Q461.8125,691.4063 462.5,692.4844 Q463.1875,693.5469 464.5313,693.5469 Q465.1563,693.5469 465.75,693.2813 Q466.3438,693 466.9688,692.4219 L466.9688,695.1406 Z " fill="#000000"/><text fill="#000000" font-family="sans-serif" font-size="12" lengthAdjust="spacingAndGlyphs" textLength="128" x="478" y="693.6543">PostgresDAOFactory</text><line style="stroke:#A80036;stroke-width:1.5;" x1="450" x2="608" y1="705.5" y2="705.5"/><rect fill="none" height="6" style="stroke:#C82930;stroke-width:1.0;" width="6" x="457" y="713.5"/><text fill="#000000" font-family="sans-serif" font-size="11" lengthAdjust="spacingAndGlyphs" textLength="132" x="469" y="719.7104">connection: Connection</text><line style="stroke:#A80036;stroke-width:1.5;" x1="450" x2="608" y1="726.3047" y2="726.3047"/><!--MD5=[48a68d3211fbfa353397754b228fb597]
reverse link StaffMemberDAO to PostgresStaffMemberDAO--><path d="M187.3009,558.8833 C192.2469,595.3187 197.9511,637.3397 201.9442,666.7559 " fill="none" id="StaffMemberDAO-backto-PostgresStaffMemberDAO" style="stroke:#A80036;stroke-width:1.0;stroke-dasharray:7.0,7.0;"/><polygon fill="none" points="180.363,559.8132,184.609,539.0533,194.2358,557.9299,180.363,559.8132" style="stroke:#A80036;stroke-width:1.0;"/><!--MD5=[d37a47b44041b5251d0f0ec75d3c62d9]
reverse link DAOFactory to PostgresDAOFactory--><path d="M542.8576,533.8589 C539.3539,576.8776 534.4476,637.1154 531.5105,673.1764 " fill="none" id="DAOFactory-backto-PostgresDAOFactory" style="stroke:#A80036;stroke-width:1.0;"/><polygon fill="none" points="535.8966,533.0948,544.4972,513.7291,549.8504,534.2314,535.8966,533.0948" style="stroke:#A80036;stroke-width:1.0;"/><!--MD5=[0a13172e59c610c45f69a8e72458813a]
reverse link PostgresStaffMemberDAO to PostgresDAOFactory--><path codeLine="72" d="M369.3913,704 C397.0505,704 424.655,704 448.939,704 " fill="none" id="PostgresStaffMemberDAO-backto-PostgresDAOFactory" style="stroke:#A80036;stroke-width:1.0;stroke-dasharray:7.0,7.0;"/><polygon fill="#A80036" points="364.2269,704,373.2269,708,369.2269,704,373.2269,700,364.2269,704" style="stroke:#A80036;stroke-width:1.0;"/><text fill="#000000" font-family="sans-serif" font-size="13" lengthAdjust="spacingAndGlyphs" textLength="48" x="382.5" y="697.0669">creates</text><!--MD5=[07dde0e0b6955e3bb78c662e60108163]
reverse link StaffMemberDAO to DAOFactory--><path codeLine="73" d="M334.907,483 C363.229,483 392.417,483 419.7378,483 " fill="none" id="StaffMemberDAO-backto-DAOFactory" style="stroke:#A80036;stroke-width:1.0;stroke-dasharray:7.0,7.0;"/><polygon fill="#A80036" points="329.6293,483,338.6293,487,334.6293,483,338.6293,479,329.6293,483" style="stroke:#A80036;stroke-width:1.0;"/><text fill="#000000" font-family="sans-serif" font-size="13" lengthAdjust="spacingAndGlyphs" textLength="54" x="347.75" y="476.0669">provides</text><!--MD5=[ed67455e952edb734ba2e4f800c57868]
link StaffMemberFacade to DAOFactory--><path codeLine="77" d="M547,361.3203 C547,389.4666 547,422.6767 547,447.285 " fill="none" id="StaffMemberFacade-to-DAOFactory" style="stroke:#A80036;stroke-width:1.0;"/><polygon fill="#A80036" points="547,452.4007,551,443.4007,547,447.4007,543,443.4007,547,452.4007" style="stroke:#A80036;stroke-width:1.0;"/><!--MD5=[99b481d42e9d5ab68c95ef6f425b0fca]
link CreateStaffMemberController to StaffMemberFacade--><path codeLine="78" d="M374.7384,164.1887 C405.7621,189.5483 442.4374,219.5277 473.957,245.2926 " fill="none" id="CreateStaffMemberController-to-StaffMemberFacade" style="stroke:#A80036;stroke-width:1.0;"/><polygon fill="#A80036" points="478.1703,248.7367,473.7336,239.9438,474.299,245.5723,468.6705,246.1378,478.1703,248.7367" style="stroke:#A80036;stroke-width:1.0;"/><!--MD5=[a2b62af1b9d1ff5ade8532147a74cdc7]
link FindStaffMemberController to StaffMemberFacade--><path codeLine="79" d="M547,157.7114 C547,183.7865 547,215.9642 547,243.5858 " fill="none" id="FindStaffMemberController-to-StaffMemberFacade" style="stroke:#A80036;stroke-width:1.0;"/><polygon fill="#A80036" points="547,248.6878,551,239.6878,547,243.6878,543,239.6878,547,248.6878" style="stroke:#A80036;stroke-width:1.0;"/><!--MD5=[12483c3b7a3af03e60a9c03439b42248]
link StaffMemberController to StaffMemberFacade--><path codeLine="80" d="M689.3907,183.0392 C665.2694,203.6997 639.4411,225.8222 616.4947,245.4763 " fill="none" id="StaffMemberController-to-StaffMemberFacade" style="stroke:#A80036;stroke-width:1.0;"/><polygon fill="#A80036" points="612.5421,248.8618,621.9796,246.0451,616.3395,245.6092,616.7754,239.9692,612.5421,248.8618" style="stroke:#A80036;stroke-width:1.0;"/><!--MD5=[850be8d9c0ab60dc7bd7fb204570b458]
@startuml
package controller {

  class CreateStaffMemberController {
    -nameField: TextField
    -passwordField: TextField
    -roleCheckBox: CheckBox
    -createButton: Button
    +create(): StaffMember
  }

  class FindStaffMemberController {
    -idField: TextField
    -nameField: TextField
    -findButton: Button
    +find(): StaffMember
  }

  class StaffMemberController {
    -nameField: TextField
    -passwordField: TextField
    -roleCheckBox: CheckBox
    -updateButton: Button
    -deleteButton: Button
    -validateUpdateButton: Button
    +update(): void
    +delete(): void
  }

}

package StaffMember {

  class StaffMemberFacade {
    +create(StaffMember staffMember): StaffMember
    +findById(int idStaff): StaffMember
    +findByUsername(String username): StaffMember
    +update(StaffMember staffMember): void
    +delete(StaffMember staffMember): void
  }

}

package dao {

  abstract class DAOFactory {
    +getStaffMemberDAO(): StaffMemberDAO
  }

  interface StaffMemberDAO {
    +create(StaffMember staffMember): StaffMember
    +findById(int idStaff): StaffMember
    +findByUsername(String username): StaffMember
    +update(StaffMember staffMember): void
    +delete(StaffMember staffMember): void
  }

  package postgres {

    class PostgresStaffMemberDAO implements StaffMemberDAO {
      -connection: Connection
      +PostgresStaffMemberDAO(Connection: connection)
    }

    class PostgresDAOFactory extends DAOFactory {
      -connection: Connection
    }

  }

}

PostgresDAOFactory .left> PostgresStaffMemberDAO : "creates"
DAOFactory .left> StaffMemberDAO : "provides"

' Inter-packages relations

StaffMemberFacade -down-> DAOFactory
CreateStaffMemberController - -> StaffMemberFacade
FindStaffMemberController - -> StaffMemberFacade
StaffMemberController - -> StaffMemberFacade
@enduml

@startuml
package controller {

  class CreateStaffMemberController {
    -nameField: TextField
    -passwordField: TextField
    -roleCheckBox: CheckBox
    -createButton: Button
    +create(): StaffMember
  }

  class FindStaffMemberController {
    -idField: TextField
    -nameField: TextField
    -findButton: Button
    +find(): StaffMember
  }

  class StaffMemberController {
    -nameField: TextField
    -passwordField: TextField
    -roleCheckBox: CheckBox
    -updateButton: Button
    -deleteButton: Button
    -validateUpdateButton: Button
    +update(): void
    +delete(): void
  }

}

package StaffMember {

  class StaffMemberFacade {
    +create(StaffMember staffMember): StaffMember
    +findById(int idStaff): StaffMember
    +findByUsername(String username): StaffMember
    +update(StaffMember staffMember): void
    +delete(StaffMember staffMember): void
  }

}

package dao {

  abstract class DAOFactory {
    +getStaffMemberDAO(): StaffMemberDAO
  }

  interface StaffMemberDAO {
    +create(StaffMember staffMember): StaffMember
    +findById(int idStaff): StaffMember
    +findByUsername(String username): StaffMember
    +update(StaffMember staffMember): void
    +delete(StaffMember staffMember): void
  }

  package postgres {

    class PostgresStaffMemberDAO implements StaffMemberDAO {
      -connection: Connection
      +PostgresStaffMemberDAO(Connection: connection)
    }

    class PostgresDAOFactory extends DAOFactory {
      -connection: Connection
    }

  }

}

PostgresDAOFactory .left> PostgresStaffMemberDAO : "creates"
DAOFactory .left> StaffMemberDAO : "provides"


StaffMemberFacade -down-> DAOFactory
CreateStaffMemberController - -> StaffMemberFacade
FindStaffMemberController - -> StaffMemberFacade
StaffMemberController - -> StaffMemberFacade
@enduml

PlantUML version 1.2020.22(Sun Dec 06 09:36:27 UTC 2020)
(GPL source distribution)
Java Runtime: OpenJDK Runtime Environment
JVM: OpenJDK 64-Bit Server VM
Default Encoding: UTF-8
Language: en
Country: US
--></g></svg>