<?xml version="1.0" encoding="UTF-8" standalone="no"?><svg xmlns="http://www.w3.org/2000/svg" xmlns:xlink="http://www.w3.org/1999/xlink" contentScriptType="application/ecmascript" contentStyleType="text/css" height="779px" preserveAspectRatio="none" style="width:901px;height:779px;" version="1.1" viewBox="0 0 901 779" width="901px" zoomAndPan="magnify"><defs><filter height="300%" id="f16eptse64ru8i" width="300%" x="-1" y="-1"><feGaussianBlur result="blurOut" stdDeviation="2.0"/><feColorMatrix in="blurOut" result="blurOut2" type="matrix" values="0 0 0 0 0 0 0 0 0 0 0 0 0 0 0 0 0 0 .4 0"/><feOffset dx="4.0" dy="4.0" in="blurOut2" result="blurOut3"/><feBlend in="SourceGraphic" in2="blurOut3" mode="normal"/></filter></defs><g><!--MD5=[10ea673caf457862023e152271927b45]
cluster controller--><polygon fill="#FFFFFF" filter="url(#f16eptse64ru8i)" points="189,16,272,16,279,38.2969,879,38.2969,879,201,189,201,189,16" style="stroke: #000000; stroke-width: 1.5;"/><line style="stroke: #000000; stroke-width: 1.5;" x1="189" x2="279" y1="38.2969" y2="38.2969"/><text fill="#000000" font-family="sans-serif" font-size="14" font-weight="bold" lengthAdjust="spacingAndGlyphs" textLength="77" x="193" y="30.9951">controller</text><!--MD5=[c8f8ab40fc7915cdf338a17a9e2cf10d]
cluster StaffMember--><polygon fill="#FFFFFF" filter="url(#f16eptse64ru8i)" points="384,232,491,232,498,254.2969,706,254.2969,706,379,384,379,384,232" style="stroke: #000000; stroke-width: 1.5;"/><line style="stroke: #000000; stroke-width: 1.5;" x1="384" x2="498" y1="254.2969" y2="254.2969"/><text fill="#000000" font-family="sans-serif" font-size="14" font-weight="bold" lengthAdjust="spacingAndGlyphs" textLength="101" x="388" y="246.9951">StaffMember</text><!--MD5=[5622bc4ba3bf2be5d17935065b98c5f9]
cluster dao--><polygon fill="#FFFFFF" filter="url(#f16eptse64ru8i)" points="14,410,49,410,56,432.2969,680,432.2969,680,767,14,767,14,410" style="stroke: #000000; stroke-width: 1.5;"/><line style="stroke: #000000; stroke-width: 1.5;" x1="14" x2="56" y1="432.2969" y2="432.2969"/><text fill="#000000" font-family="sans-serif" font-size="14" font-weight="bold" lengthAdjust="spacingAndGlyphs" textLength="29" x="18" y="424.9951">dao</text><!--MD5=[bab4019c732006648757f54388533847]
cluster postgres--><polygon fill="#FFFFFF" filter="url(#f16eptse64ru8i)" points="40,650,117,650,124,672.2969,615,672.2969,615,759,40,759,40,650" style="stroke: #000000; stroke-width: 1.5;"/><line style="stroke: #000000; stroke-width: 1.5;" x1="40" x2="124" y1="672.2969" y2="672.2969"/><text fill="#000000" font-family="sans-serif" font-size="14" font-weight="bold" lengthAdjust="spacingAndGlyphs" textLength="71" x="44" y="664.9951">postgres</text><!--MD5=[c9c223b8d282850f45ab4892089a1827]
class CreateStaffMemberController--><rect fill="#FEFECE" filter="url(#f16eptse64ru8i)" height="112.0234" id="CreateStaffMemberController" style="stroke: #A80036; stroke-width: 1.5;" width="214" x="197" y="62"/><ellipse cx="212" cy="78" fill="#ADD1B2" rx="11" ry="11" style="stroke: #A80036; stroke-width: 1.0;"/><path d="M214.9688,83.6406 Q214.3906,83.9375 213.75,84.0859 Q213.1094,84.2344 212.4063,84.2344 Q209.9063,84.2344 208.5859,82.5859 Q207.2656,80.9375 207.2656,77.8125 Q207.2656,74.6875 208.5859,73.0313 Q209.9063,71.375 212.4063,71.375 Q213.1094,71.375 213.7578,71.5313 Q214.4063,71.6875 214.9688,71.9844 L214.9688,74.7031 Q214.3438,74.125 213.75,73.8516 Q213.1563,73.5781 212.5313,73.5781 Q211.1875,73.5781 210.5,74.6484 Q209.8125,75.7188 209.8125,77.8125 Q209.8125,79.9063 210.5,80.9766 Q211.1875,82.0469 212.5313,82.0469 Q213.1563,82.0469 213.75,81.7734 Q214.3438,81.5 214.9688,80.9219 L214.9688,83.6406 Z "/><text fill="#000000" font-family="sans-serif" font-size="12" lengthAdjust="spacingAndGlyphs" textLength="182" x="226" y="82.1543">CreateStaffMemberController</text><line style="stroke: #A80036; stroke-width: 1.5;" x1="198" x2="410" y1="94" y2="94"/><rect fill="none" height="6" style="stroke: #C82930; stroke-width: 1.0;" width="6" x="205" y="102"/><text fill="#000000" font-family="sans-serif" font-size="11" lengthAdjust="spacingAndGlyphs" textLength="116" x="217" y="108.2104">nameField: TextField</text><rect fill="none" height="6" style="stroke: #C82930; stroke-width: 1.0;" width="6" x="205" y="114.8047"/><text fill="#000000" font-family="sans-serif" font-size="11" lengthAdjust="spacingAndGlyphs" textLength="140" x="217" y="121.0151">passwordField: TextField</text><rect fill="none" height="6" style="stroke: #C82930; stroke-width: 1.0;" width="6" x="205" y="127.6094"/><text fill="#000000" font-family="sans-serif" font-size="11" lengthAdjust="spacingAndGlyphs" textLength="140" x="217" y="133.8198">roleCheckBox: CheckBox</text><rect fill="none" height="6" style="stroke: #C82930; stroke-width: 1.0;" width="6" x="205" y="140.4141"/><text fill="#000000" font-family="sans-serif" font-size="11" lengthAdjust="spacingAndGlyphs" textLength="118" x="217" y="146.6245">createButton: Button</text><line style="stroke: #A80036; stroke-width: 1.5;" x1="198" x2="410" y1="153.2188" y2="153.2188"/><ellipse cx="208" cy="164.2188" fill="#84BE84" rx="3" ry="3" style="stroke: #038048; stroke-width: 1.0;"/><text fill="#000000" font-family="sans-serif" font-size="11" lengthAdjust="spacingAndGlyphs" textLength="125" x="217" y="167.4292">create(): StaffMember</text><!--MD5=[8d6b76b1d10b117a0f4e8058ebab4a0c]
class FindStaffMemberController--><rect fill="#FEFECE" filter="url(#f16eptse64ru8i)" height="99.2188" id="FindStaffMemberController" style="stroke: #A80036; stroke-width: 1.5;" width="198" x="446" y="68.5"/><ellipse cx="461" cy="84.5" fill="#ADD1B2" rx="11" ry="11" style="stroke: #A80036; stroke-width: 1.0;"/><path d="M463.9688,90.1406 Q463.3906,90.4375 462.75,90.5859 Q462.1094,90.7344 461.4063,90.7344 Q458.9063,90.7344 457.5859,89.0859 Q456.2656,87.4375 456.2656,84.3125 Q456.2656,81.1875 457.5859,79.5313 Q458.9063,77.875 461.4063,77.875 Q462.1094,77.875 462.7578,78.0313 Q463.4063,78.1875 463.9688,78.4844 L463.9688,81.2031 Q463.3438,80.625 462.75,80.3516 Q462.1563,80.0781 461.5313,80.0781 Q460.1875,80.0781 459.5,81.1484 Q458.8125,82.2188 458.8125,84.3125 Q458.8125,86.4063 459.5,87.4766 Q460.1875,88.5469 461.5313,88.5469 Q462.1563,88.5469 462.75,88.2734 Q463.3438,88 463.9688,87.4219 L463.9688,90.1406 Z "/><text fill="#000000" font-family="sans-serif" font-size="12" lengthAdjust="spacingAndGlyphs" textLength="166" x="475" y="88.6543">FindStaffMemberController</text><line style="stroke: #A80036; stroke-width: 1.5;" x1="447" x2="643" y1="100.5" y2="100.5"/><rect fill="none" height="6" style="stroke: #C82930; stroke-width: 1.0;" width="6" x="454" y="108.5"/><text fill="#000000" font-family="sans-serif" font-size="11" lengthAdjust="spacingAndGlyphs" textLength="94" x="466" y="114.7104">idField: TextField</text><rect fill="none" height="6" style="stroke: #C82930; stroke-width: 1.0;" width="6" x="454" y="121.3047"/><text fill="#000000" font-family="sans-serif" font-size="11" lengthAdjust="spacingAndGlyphs" textLength="116" x="466" y="127.5151">nameField: TextField</text><rect fill="none" height="6" style="stroke: #C82930; stroke-width: 1.0;" width="6" x="454" y="134.1094"/><text fill="#000000" font-family="sans-serif" font-size="11" lengthAdjust="spacingAndGlyphs" textLength="103" x="466" y="140.3198">findButton: Button</text><line style="stroke: #A80036; stroke-width: 1.5;" x1="447" x2="643" y1="146.9141" y2="146.9141"/><ellipse cx="457" cy="157.9141" fill="#84BE84" rx="3" ry="3" style="stroke: #038048; stroke-width: 1.0;"/><text fill="#000000" font-family="sans-serif" font-size="11" lengthAdjust="spacingAndGlyphs" textLength="110" x="466" y="161.1245">find(): StaffMember</text><!--MD5=[e0d9f8124e4343b1b7a480d0585b083f]
class StaffMemberController--><rect fill="#FEFECE" filter="url(#f16eptse64ru8i)" height="150.4375" id="StaffMemberController" style="stroke: #A80036; stroke-width: 1.5;" width="192" x="679" y="43"/><ellipse cx="703" cy="59" fill="#ADD1B2" rx="11" ry="11" style="stroke: #A80036; stroke-width: 1.0;"/><path d="M705.9688,64.6406 Q705.3906,64.9375 704.75,65.0859 Q704.1094,65.2344 703.4063,65.2344 Q700.9063,65.2344 699.5859,63.5859 Q698.2656,61.9375 698.2656,58.8125 Q698.2656,55.6875 699.5859,54.0313 Q700.9063,52.375 703.4063,52.375 Q704.1094,52.375 704.7578,52.5313 Q705.4063,52.6875 705.9688,52.9844 L705.9688,55.7031 Q705.3438,55.125 704.75,54.8516 Q704.1563,54.5781 703.5313,54.5781 Q702.1875,54.5781 701.5,55.6484 Q700.8125,56.7188 700.8125,58.8125 Q700.8125,60.9063 701.5,61.9766 Q702.1875,63.0469 703.5313,63.0469 Q704.1563,63.0469 704.75,62.7734 Q705.3438,62.5 705.9688,61.9219 L705.9688,64.6406 Z "/><text fill="#000000" font-family="sans-serif" font-size="12" lengthAdjust="spacingAndGlyphs" textLength="140" x="719" y="63.1543">StaffMemberController</text><line style="stroke: #A80036; stroke-width: 1.5;" x1="680" x2="870" y1="75" y2="75"/><rect fill="none" height="6" style="stroke: #C82930; stroke-width: 1.0;" width="6" x="687" y="83"/><text fill="#000000" font-family="sans-serif" font-size="11" lengthAdjust="spacingAndGlyphs" textLength="116" x="699" y="89.2104">nameField: TextField</text><rect fill="none" height="6" style="stroke: #C82930; stroke-width: 1.0;" width="6" x="687" y="95.8047"/><text fill="#000000" font-family="sans-serif" font-size="11" lengthAdjust="spacingAndGlyphs" textLength="140" x="699" y="102.0151">passwordField: TextField</text><rect fill="none" height="6" style="stroke: #C82930; stroke-width: 1.0;" width="6" x="687" y="108.6094"/><text fill="#000000" font-family="sans-serif" font-size="11" lengthAdjust="spacingAndGlyphs" textLength="140" x="699" y="114.8198">roleCheckBox: CheckBox</text><rect fill="none" height="6" style="stroke: #C82930; stroke-width: 1.0;" width="6" x="687" y="121.4141"/><text fill="#000000" font-family="sans-serif" font-size="11" lengthAdjust="spacingAndGlyphs" textLength="121" x="699" y="127.6245">updateButton: Button</text><rect fill="none" height="6" style="stroke: #C82930; stroke-width: 1.0;" width="6" x="687" y="134.2188"/><text fill="#000000" font-family="sans-serif" font-size="11" lengthAdjust="spacingAndGlyphs" textLength="117" x="699" y="140.4292">deleteButton: Button</text><rect fill="none" height="6" style="stroke: #C82930; stroke-width: 1.0;" width="6" x="687" y="147.0234"/><text fill="#000000" font-family="sans-serif" font-size="11" lengthAdjust="spacingAndGlyphs" textLength="166" x="699" y="153.2339">validateUpdateButton: Button</text><line style="stroke: #A80036; stroke-width: 1.5;" x1="680" x2="870" y1="159.8281" y2="159.8281"/><ellipse cx="690" cy="170.8281" fill="#84BE84" rx="3" ry="3" style="stroke: #038048; stroke-width: 1.0;"/><text fill="#000000" font-family="sans-serif" font-size="11" lengthAdjust="spacingAndGlyphs" textLength="78" x="699" y="174.0386">update(): void</text><ellipse cx="690" cy="183.6328" fill="#84BE84" rx="3" ry="3" style="stroke: #038048; stroke-width: 1.0;"/><text fill="#000000" font-family="sans-serif" font-size="11" lengthAdjust="spacingAndGlyphs" textLength="74" x="699" y="186.8433">delete(): void</text><!--MD5=[456615ddbcbe43873d275d66c233653d]
class StaffMemberFacade--><rect fill="#FEFECE" filter="url(#f16eptse64ru8i)" height="112.0234" id="StaffMemberFacade" style="stroke: #A80036; stroke-width: 1.5;" width="305" x="392.5" y="259"/><ellipse cx="478.25" cy="275" fill="#ADD1B2" rx="11" ry="11" style="stroke: #A80036; stroke-width: 1.0;"/><path d="M481.2188,280.6406 Q480.6406,280.9375 480,281.0859 Q479.3594,281.2344 478.6563,281.2344 Q476.1563,281.2344 474.8359,279.5859 Q473.5156,277.9375 473.5156,274.8125 Q473.5156,271.6875 474.8359,270.0313 Q476.1563,268.375 478.6563,268.375 Q479.3594,268.375 480.0078,268.5313 Q480.6563,268.6875 481.2188,268.9844 L481.2188,271.7031 Q480.5938,271.125 480,270.8516 Q479.4063,270.5781 478.7813,270.5781 Q477.4375,270.5781 476.75,271.6484 Q476.0625,272.7188 476.0625,274.8125 Q476.0625,276.9063 476.75,277.9766 Q477.4375,279.0469 478.7813,279.0469 Q479.4063,279.0469 480,278.7734 Q480.5938,278.5 481.2188,277.9219 L481.2188,280.6406 Z "/><text fill="#000000" font-family="sans-serif" font-size="12" lengthAdjust="spacingAndGlyphs" textLength="125" x="498.75" y="279.1543">StaffMemberFacade</text><line style="stroke: #A80036; stroke-width: 1.5;" x1="393.5" x2="696.5" y1="291" y2="291"/><line style="stroke: #A80036; stroke-width: 1.5;" x1="393.5" x2="696.5" y1="299" y2="299"/><ellipse cx="403.5" cy="310" fill="#84BE84" rx="3" ry="3" style="stroke: #038048; stroke-width: 1.0;"/><text fill="#000000" font-family="sans-serif" font-size="11" lengthAdjust="spacingAndGlyphs" textLength="274" x="412.5" y="313.2104">create(StaffMember staffMember): StaffMember</text><ellipse cx="403.5" cy="322.8047" fill="#84BE84" rx="3" ry="3" style="stroke: #038048; stroke-width: 1.0;"/><text fill="#000000" font-family="sans-serif" font-size="11" lengthAdjust="spacingAndGlyphs" textLength="189" x="412.5" y="326.0151">findById(int idStaff): StaffMember</text><ellipse cx="403.5" cy="335.6094" fill="#84BE84" rx="3" ry="3" style="stroke: #038048; stroke-width: 1.0;"/><text fill="#000000" font-family="sans-serif" font-size="11" lengthAdjust="spacingAndGlyphs" textLength="279" x="412.5" y="338.8198">findByUsername(String username): StaffMember</text><ellipse cx="403.5" cy="348.4141" fill="#84BE84" rx="3" ry="3" style="stroke: #038048; stroke-width: 1.0;"/><text fill="#000000" font-family="sans-serif" font-size="11" lengthAdjust="spacingAndGlyphs" textLength="227" x="412.5" y="351.6245">upsate(StaffMember staffMember): void</text><ellipse cx="403.5" cy="361.2188" fill="#84BE84" rx="3" ry="3" style="stroke: #038048; stroke-width: 1.0;"/><text fill="#000000" font-family="sans-serif" font-size="11" lengthAdjust="spacingAndGlyphs" textLength="223" x="412.5" y="364.4292">delete(StaffMember staffMember): void</text><!--MD5=[4a0300a6597e068a69ac5dc42e345e2c]
class DAOFactory--><rect fill="#FEFECE" filter="url(#f16eptse64ru8i)" height="60.8047" id="DAOFactory" style="stroke: #A80036; stroke-width: 1.5;" width="254" x="418" y="462.5"/><ellipse cx="504.75" cy="478.5" fill="#A9DCDF" rx="11" ry="11" style="stroke: #A80036; stroke-width: 1.0;"/><path d="M504.8594,473.8438 L503.7031,478.9219 L506.0313,478.9219 L504.8594,473.8438 Z M503.375,471.6094 L506.3594,471.6094 L509.7188,484 L507.2656,484 L506.5,480.9375 L503.2188,480.9375 L502.4688,484 L500.0313,484 L503.375,471.6094 Z "/><text fill="#000000" font-family="sans-serif" font-size="12" font-style="italic" lengthAdjust="spacingAndGlyphs" textLength="72" x="525.25" y="482.6543">DAOFactory</text><line style="stroke: #A80036; stroke-width: 1.5;" x1="419" x2="671" y1="494.5" y2="494.5"/><line style="stroke: #A80036; stroke-width: 1.5;" x1="419" x2="671" y1="502.5" y2="502.5"/><ellipse cx="429" cy="513.5" fill="#84BE84" rx="3" ry="3" style="stroke: #038048; stroke-width: 1.0;"/><text fill="#000000" font-family="sans-serif" font-size="11" lengthAdjust="spacingAndGlyphs" textLength="228" x="438" y="516.7104">getStaffMemberDAO(): StaffMemberDAO</text><!--MD5=[b7785740adc24eec8e80232fb4c80faa]
class StaffMemberDAO--><rect fill="#FEFECE" filter="url(#f16eptse64ru8i)" height="112.0234" id="StaffMemberDAO" style="stroke: #A80036; stroke-width: 1.5;" width="305" x="22.5" y="437"/><ellipse cx="118.25" cy="453" fill="#B4A7E5" rx="11" ry="11" style="stroke: #A80036; stroke-width: 1.0;"/><path d="M114.1719,448.7656 L114.1719,446.6094 L121.5625,446.6094 L121.5625,448.7656 L119.0938,448.7656 L119.0938,456.8438 L121.5625,456.8438 L121.5625,459 L114.1719,459 L114.1719,456.8438 L116.6406,456.8438 L116.6406,448.7656 L114.1719,448.7656 Z "/><text fill="#000000" font-family="sans-serif" font-size="12" font-style="italic" lengthAdjust="spacingAndGlyphs" textLength="105" x="138.75" y="457.1543">StaffMemberDAO</text><line style="stroke: #A80036; stroke-width: 1.5;" x1="23.5" x2="326.5" y1="469" y2="469"/><line style="stroke: #A80036; stroke-width: 1.5;" x1="23.5" x2="326.5" y1="477" y2="477"/><ellipse cx="33.5" cy="488" fill="#84BE84" rx="3" ry="3" style="stroke: #038048; stroke-width: 1.0;"/><text fill="#000000" font-family="sans-serif" font-size="11" lengthAdjust="spacingAndGlyphs" textLength="274" x="42.5" y="491.2104">create(StaffMember staffMember): StaffMember</text><ellipse cx="33.5" cy="500.8047" fill="#84BE84" rx="3" ry="3" style="stroke: #038048; stroke-width: 1.0;"/><text fill="#000000" font-family="sans-serif" font-size="11" lengthAdjust="spacingAndGlyphs" textLength="189" x="42.5" y="504.0151">findById(int idStaff): StaffMember</text><ellipse cx="33.5" cy="513.6094" fill="#84BE84" rx="3" ry="3" style="stroke: #038048; stroke-width: 1.0;"/><text fill="#000000" font-family="sans-serif" font-size="11" lengthAdjust="spacingAndGlyphs" textLength="279" x="42.5" y="516.8198">findByUsername(String username): StaffMember</text><ellipse cx="33.5" cy="526.4141" fill="#84BE84" rx="3" ry="3" style="stroke: #038048; stroke-width: 1.0;"/><text fill="#000000" font-family="sans-serif" font-size="11" lengthAdjust="spacingAndGlyphs" textLength="227" x="42.5" y="529.6245">upsate(StaffMember staffMember): void</text><ellipse cx="33.5" cy="539.2188" fill="#84BE84" rx="3" ry="3" style="stroke: #038048; stroke-width: 1.0;"/><text fill="#000000" font-family="sans-serif" font-size="11" lengthAdjust="spacingAndGlyphs" textLength="223" x="42.5" y="542.4292">delete(StaffMember staffMember): void</text><!--MD5=[eaa04f0840f124e699d692db6cc90032]
class PostgresStaffMemberDAO--><rect fill="#FEFECE" filter="url(#f16eptse64ru8i)" height="73.6094" id="PostgresStaffMemberDAO" style="stroke: #A80036; stroke-width: 1.5;" width="314" x="48" y="677"/><ellipse cx="120.25" cy="693" fill="#ADD1B2" rx="11" ry="11" style="stroke: #A80036; stroke-width: 1.0;"/><path d="M123.2188,698.6406 Q122.6406,698.9375 122,699.0859 Q121.3594,699.2344 120.6563,699.2344 Q118.1563,699.2344 116.8359,697.5859 Q115.5156,695.9375 115.5156,692.8125 Q115.5156,689.6875 116.8359,688.0313 Q118.1563,686.375 120.6563,686.375 Q121.3594,686.375 122.0078,686.5313 Q122.6563,686.6875 123.2188,686.9844 L123.2188,689.7031 Q122.5938,689.125 122,688.8516 Q121.4063,688.5781 120.7813,688.5781 Q119.4375,688.5781 118.75,689.6484 Q118.0625,690.7188 118.0625,692.8125 Q118.0625,694.9063 118.75,695.9766 Q119.4375,697.0469 120.7813,697.0469 Q121.4063,697.0469 122,696.7734 Q122.5938,696.5 123.2188,695.9219 L123.2188,698.6406 Z "/><text fill="#000000" font-family="sans-serif" font-size="12" lengthAdjust="spacingAndGlyphs" textLength="161" x="140.75" y="697.1543">PostgresStaffMemberDAO</text><line style="stroke: #A80036; stroke-width: 1.5;" x1="49" x2="361" y1="709" y2="709"/><rect fill="none" height="6" style="stroke: #C82930; stroke-width: 1.0;" width="6" x="56" y="717"/><text fill="#000000" font-family="sans-serif" font-size="11" lengthAdjust="spacingAndGlyphs" textLength="132" x="68" y="723.2104">connection: Connection</text><line style="stroke: #A80036; stroke-width: 1.5;" x1="49" x2="361" y1="729.8047" y2="729.8047"/><ellipse cx="59" cy="740.8047" fill="#84BE84" rx="3" ry="3" style="stroke: #038048; stroke-width: 1.0;"/><text fill="#000000" font-family="sans-serif" font-size="11" lengthAdjust="spacingAndGlyphs" textLength="288" x="68" y="744.0151">PostgresStaffMemberDAO(Connection: connection)</text><!--MD5=[700a5a1f58ccb71a3c0d036256714175]
class PostgresDAOFactory--><rect fill="#FEFECE" filter="url(#f16eptse64ru8i)" height="60.8047" id="PostgresDAOFactory" style="stroke: #A80036; stroke-width: 1.5;" width="160" x="447" y="683.5"/><ellipse cx="462" cy="699.5" fill="#ADD1B2" rx="11" ry="11" style="stroke: #A80036; stroke-width: 1.0;"/><path d="M464.9688,705.1406 Q464.3906,705.4375 463.75,705.5859 Q463.1094,705.7344 462.4063,705.7344 Q459.9063,705.7344 458.5859,704.0859 Q457.2656,702.4375 457.2656,699.3125 Q457.2656,696.1875 458.5859,694.5313 Q459.9063,692.875 462.4063,692.875 Q463.1094,692.875 463.7578,693.0313 Q464.4063,693.1875 464.9688,693.4844 L464.9688,696.2031 Q464.3438,695.625 463.75,695.3516 Q463.1563,695.0781 462.5313,695.0781 Q461.1875,695.0781 460.5,696.1484 Q459.8125,697.2188 459.8125,699.3125 Q459.8125,701.4063 460.5,702.4766 Q461.1875,703.5469 462.5313,703.5469 Q463.1563,703.5469 463.75,703.2734 Q464.3438,703 464.9688,702.4219 L464.9688,705.1406 Z "/><text fill="#000000" font-family="sans-serif" font-size="12" lengthAdjust="spacingAndGlyphs" textLength="128" x="476" y="703.6543">PostgresDAOFactory</text><line style="stroke: #A80036; stroke-width: 1.5;" x1="448" x2="606" y1="715.5" y2="715.5"/><rect fill="none" height="6" style="stroke: #C82930; stroke-width: 1.0;" width="6" x="455" y="723.5"/><text fill="#000000" font-family="sans-serif" font-size="11" lengthAdjust="spacingAndGlyphs" textLength="132" x="467" y="729.7104">connection: Connection</text><line style="stroke: #A80036; stroke-width: 1.5;" x1="448" x2="606" y1="736.3047" y2="736.3047"/><!--MD5=[48a68d3211fbfa353397754b228fb597]
reverse link StaffMemberDAO to PostgresStaffMemberDAO--><path d="M185.3009,568.8833 C190.2469,605.3187 195.9511,647.3397 199.9442,676.7559 " fill="none" id="StaffMemberDAO&lt;-PostgresStaffMemberDAO" style="stroke: #A80036; stroke-width: 1.0; stroke-dasharray: 7.0,7.0;"/><polygon fill="none" points="178.363,569.8132,182.609,549.0533,192.2358,567.9299,178.363,569.8132" style="stroke: #A80036; stroke-width: 1.0;"/><!--MD5=[d37a47b44041b5251d0f0ec75d3c62d9]
reverse link DAOFactory to PostgresDAOFactory--><path d="M540.8576,543.8589 C537.3539,586.8776 532.4476,647.1154 529.5105,683.1764 " fill="none" id="DAOFactory&lt;-PostgresDAOFactory" style="stroke: #A80036; stroke-width: 1.0;"/><polygon fill="none" points="533.8966,543.0948,542.4972,523.7291,547.8504,544.2314,533.8966,543.0948" style="stroke: #A80036; stroke-width: 1.0;"/><!--MD5=[0a13172e59c610c45f69a8e72458813a]
reverse link PostgresStaffMemberDAO to PostgresDAOFactory--><path d="M367.3913,714 C395.0505,714 422.655,714 446.939,714 " fill="none" id="PostgresStaffMemberDAO&lt;-PostgresDAOFactory" style="stroke: #A80036; stroke-width: 1.0; stroke-dasharray: 7.0,7.0;"/><polygon fill="#A80036" points="362.2269,714,371.2269,718,367.2269,714,371.2269,710,362.2269,714" style="stroke: #A80036; stroke-width: 1.0;"/><text fill="#000000" font-family="sans-serif" font-size="13" lengthAdjust="spacingAndGlyphs" textLength="48" x="380.5" y="707.0669">creates</text><!--MD5=[07dde0e0b6955e3bb78c662e60108163]
reverse link StaffMemberDAO to DAOFactory--><path d="M332.907,493 C361.229,493 390.417,493 417.7378,493 " fill="none" id="StaffMemberDAO&lt;-DAOFactory" style="stroke: #A80036; stroke-width: 1.0; stroke-dasharray: 7.0,7.0;"/><polygon fill="#A80036" points="327.6293,493,336.6293,497,332.6293,493,336.6293,489,327.6293,493" style="stroke: #A80036; stroke-width: 1.0;"/><text fill="#000000" font-family="sans-serif" font-size="13" lengthAdjust="spacingAndGlyphs" textLength="54" x="345.75" y="486.0669">provides</text><!--MD5=[ed67455e952edb734ba2e4f800c57868]
link StaffMemberFacade to DAOFactory--><path d="M545,371.3203 C545,399.4666 545,432.6767 545,457.285 " fill="none" id="StaffMemberFacade-&gt;DAOFactory" style="stroke: #A80036; stroke-width: 1.0;"/><polygon fill="#A80036" points="545,462.4007,549,453.4007,545,457.4007,541,453.4007,545,462.4007" style="stroke: #A80036; stroke-width: 1.0;"/><!--MD5=[99b481d42e9d5ab68c95ef6f425b0fca]
link CreateStaffMemberController to StaffMemberFacade--><path d="M372.7384,174.1887 C403.7621,199.5483 440.4374,229.5277 471.957,255.2926 " fill="none" id="CreateStaffMemberController-&gt;StaffMemberFacade" style="stroke: #A80036; stroke-width: 1.0;"/><polygon fill="#A80036" points="476.1703,258.7367,471.7336,249.9438,472.299,255.5723,466.6705,256.1378,476.1703,258.7367" style="stroke: #A80036; stroke-width: 1.0;"/><!--MD5=[a2b62af1b9d1ff5ade8532147a74cdc7]
link FindStaffMemberController to StaffMemberFacade--><path d="M545,167.7114 C545,193.7865 545,225.9642 545,253.5858 " fill="none" id="FindStaffMemberController-&gt;StaffMemberFacade" style="stroke: #A80036; stroke-width: 1.0;"/><polygon fill="#A80036" points="545,258.6878,549,249.6878,545,253.6878,541,249.6878,545,258.6878" style="stroke: #A80036; stroke-width: 1.0;"/><!--MD5=[12483c3b7a3af03e60a9c03439b42248]
link StaffMemberController to StaffMemberFacade--><path d="M687.3907,193.0392 C663.2694,213.6997 637.4411,235.8222 614.4947,255.4763 " fill="none" id="StaffMemberController-&gt;StaffMemberFacade" style="stroke: #A80036; stroke-width: 1.0;"/><polygon fill="#A80036" points="610.5421,258.8618,619.9796,256.0451,614.3395,255.6092,614.7754,249.9692,610.5421,258.8618" style="stroke: #A80036; stroke-width: 1.0;"/><!--MD5=[6abdcf932767c5207ee3a3b7a0e39a7f]
@startuml
package controller {

  class CreateStaffMemberController {
    -nameField: TextField
    -passwordField: TextField
    -roleCheckBox: CheckBox
    -createButton: Button
    +create(): StaffMember
  }
  
  class FindStaffMemberController {
    -idField: TextField
    -nameField: TextField
    -findButton: Button
    +find(): StaffMember
  }
  
  class StaffMemberController {
    -nameField: TextField
    -passwordField: TextField
    -roleCheckBox: CheckBox
    -updateButton: Button
    -deleteButton: Button
    -validateUpdateButton: Button
    +update(): void
    +delete(): void
  }

}

package StaffMember {

  class StaffMemberFacade {
    +create(StaffMember staffMember): StaffMember
    +findById(int idStaff): StaffMember
    +findByUsername(String username): StaffMember
    +upsate(StaffMember staffMember): void
    +delete(StaffMember staffMember): void
  }

}

package dao {

  abstract class DAOFactory {
    +getStaffMemberDAO(): StaffMemberDAO
  }

  interface StaffMemberDAO {
    +create(StaffMember staffMember): StaffMember
    +findById(int idStaff): StaffMember
    +findByUsername(String username): StaffMember
    +upsate(StaffMember staffMember): void
    +delete(StaffMember staffMember): void
  }

  package postgres {

    class PostgresStaffMemberDAO implements StaffMemberDAO {
      -connection: Connection
      +PostgresStaffMemberDAO(Connection: connection)
    }

    class PostgresDAOFactory extends DAOFactory {
      -connection: Connection
    }

  }

}

PostgresDAOFactory .left> PostgresStaffMemberDAO : "creates"
DAOFactory .left> StaffMemberDAO : "provides"


StaffMemberFacade -down-> DAOFactory
CreateStaffMemberController - -> StaffMemberFacade
FindStaffMemberController - -> StaffMemberFacade
StaffMemberController - -> StaffMemberFacade
@enduml

PlantUML version 1.2019.12(Sun Nov 03 10:24:54 UTC 2019)
(GPL source distribution)
Java Runtime: OpenJDK Runtime Environment
JVM: OpenJDK 64-Bit Server VM
Java Version: 1.8.0_232-heroku-b09
Operating System: Linux
Default Encoding: UTF-8
Language: en
Country: US
--></g></svg>