<svg width="255" height="196" viewBox="0 0 255 196" fill="none" xmlns="http://www.w3.org/2000/svg">
<rect width="255" height="196" fill="white"/>
<path d="M69.016 96.636V105H67.924V96.636H69.016ZM74.0811 98.304C74.8811 98.304 75.5291 98.548 76.0251 99.036C76.5211 99.516 76.7691 100.212 76.7691 101.124V105H75.6891V101.28C75.6891 100.624 75.5251 100.124 75.1971 99.78C74.8691 99.428 74.4211 99.252 73.8531 99.252C73.2771 99.252 72.8171 99.432 72.4731 99.792C72.1371 100.152 71.9691 100.676 71.9691 101.364V105H70.8771V98.424H71.9691V99.36C72.1851 99.024 72.4771 98.764 72.8451 98.58C73.2211 98.396 73.6331 98.304 74.0811 98.304ZM81.0009 103.992L83.0409 98.424H84.2049L81.6249 105H80.3529L77.7729 98.424H78.9489L81.0009 103.992ZM84.8715 101.688C84.8715 101.016 85.0075 100.428 85.2795 99.924C85.5515 99.412 85.9235 99.016 86.3955 98.736C86.8755 98.456 87.4075 98.316 87.9915 98.316C88.5675 98.316 89.0675 98.44 89.4915 98.688C89.9155 98.936 90.2315 99.248 90.4395 99.624V98.424H91.5435V105H90.4395V103.776C90.2235 104.16 89.8995 104.48 89.4675 104.736C89.0435 104.984 88.5475 105.108 87.9795 105.108C87.3955 105.108 86.8675 104.964 86.3955 104.676C85.9235 104.388 85.5515 103.984 85.2795 103.464C85.0075 102.944 84.8715 102.352 84.8715 101.688ZM90.4395 101.7C90.4395 101.204 90.3395 100.772 90.1395 100.404C89.9395 100.036 89.6675 99.756 89.3235 99.564C88.9875 99.364 88.6155 99.264 88.2075 99.264C87.7995 99.264 87.4275 99.36 87.0915 99.552C86.7555 99.744 86.4875 100.024 86.2875 100.392C86.0875 100.76 85.9875 101.192 85.9875 101.688C85.9875 102.192 86.0875 102.632 86.2875 103.008C86.4875 103.376 86.7555 103.66 87.0915 103.86C87.4275 104.052 87.7995 104.148 88.2075 104.148C88.6155 104.148 88.9875 104.052 89.3235 103.86C89.6675 103.66 89.9395 103.376 90.1395 103.008C90.3395 102.632 90.4395 102.196 90.4395 101.7ZM94.4808 96.12V105H93.3888V96.12H94.4808ZM96.906 97.356C96.698 97.356 96.522 97.284 96.378 97.14C96.234 96.996 96.162 96.82 96.162 96.612C96.162 96.404 96.234 96.228 96.378 96.084C96.522 95.94 96.698 95.868 96.906 95.868C97.106 95.868 97.274 95.94 97.41 96.084C97.554 96.228 97.626 96.404 97.626 96.612C97.626 96.82 97.554 96.996 97.41 97.14C97.274 97.284 97.106 97.356 96.906 97.356ZM97.434 98.424V105H96.342V98.424H97.434ZM98.8871 101.688C98.8871 101.016 99.0231 100.428 99.2951 99.924C99.5671 99.412 99.9391 99.016 100.411 98.736C100.891 98.456 101.427 98.316 102.019 98.316C102.531 98.316 103.007 98.436 103.447 98.676C103.887 98.908 104.223 99.216 104.455 99.6V96.12H105.559V105H104.455V103.764C104.239 104.156 103.919 104.48 103.495 104.736C103.071 104.984 102.575 105.108 102.007 105.108C101.423 105.108 100.891 104.964 100.411 104.676C99.9391 104.388 99.5671 103.984 99.2951 103.464C99.0231 102.944 98.8871 102.352 98.8871 101.688ZM104.455 101.7C104.455 101.204 104.355 100.772 104.155 100.404C103.955 100.036 103.683 99.756 103.339 99.564C103.003 99.364 102.631 99.264 102.223 99.264C101.815 99.264 101.443 99.36 101.107 99.552C100.771 99.744 100.503 100.024 100.303 100.392C100.103 100.76 100.003 101.192 100.003 101.688C100.003 102.192 100.103 102.632 100.303 103.008C100.503 103.376 100.771 103.66 101.107 103.86C101.443 104.052 101.815 104.148 102.223 104.148C102.631 104.148 103.003 104.052 103.339 103.86C103.683 103.66 103.955 103.376 104.155 103.008C104.355 102.632 104.455 102.196 104.455 101.7ZM110.196 101.7C110.196 101.02 110.332 100.428 110.604 99.924C110.876 99.412 111.252 99.016 111.732 98.736C112.22 98.456 112.776 98.316 113.4 98.316C114.208 98.316 114.872 98.512 115.392 98.904C115.92 99.296 116.268 99.84 116.436 100.536H115.26C115.148 100.136 114.928 99.82 114.6 99.588C114.28 99.356 113.88 99.24 113.4 99.24C112.776 99.24 112.272 99.456 111.888 99.888C111.504 100.312 111.312 100.916 111.312 101.7C111.312 102.492 111.504 103.104 111.888 103.536C112.272 103.968 112.776 104.184 113.4 104.184C113.88 104.184 114.28 104.072 114.6 103.848C114.92 103.624 115.14 103.304 115.26 102.888H116.436C116.26 103.56 115.908 104.1 115.38 104.508C114.852 104.908 114.192 105.108 113.4 105.108C112.776 105.108 112.22 104.968 111.732 104.688C111.252 104.408 110.876 104.012 110.604 103.5C110.332 102.988 110.196 102.388 110.196 101.7ZM118.985 99.492C119.177 99.116 119.449 98.824 119.801 98.616C120.161 98.408 120.597 98.304 121.109 98.304V99.432H120.821C119.597 99.432 118.985 100.096 118.985 101.424V105H117.893V98.424H118.985V99.492ZM128.369 101.46C128.369 101.668 128.357 101.888 128.333 102.12H123.077C123.117 102.768 123.337 103.276 123.737 103.644C124.145 104.004 124.637 104.184 125.213 104.184C125.685 104.184 126.077 104.076 126.389 103.86C126.709 103.636 126.933 103.34 127.061 102.972H128.237C128.061 103.604 127.709 104.12 127.181 104.52C126.653 104.912 125.997 105.108 125.213 105.108C124.589 105.108 124.029 104.968 123.533 104.688C123.045 104.408 122.661 104.012 122.381 103.5C122.101 102.98 121.961 102.38 121.961 101.7C121.961 101.02 122.097 100.424 122.369 99.912C122.641 99.4 123.021 99.008 123.509 98.736C124.005 98.456 124.573 98.316 125.213 98.316C125.837 98.316 126.389 98.452 126.869 98.724C127.349 98.996 127.717 99.372 127.973 99.852C128.237 100.324 128.369 100.86 128.369 101.46ZM127.241 101.232C127.241 100.816 127.149 100.46 126.965 100.164C126.781 99.86 126.529 99.632 126.209 99.48C125.897 99.32 125.549 99.24 125.165 99.24C124.613 99.24 124.141 99.416 123.749 99.768C123.365 100.12 123.145 100.608 123.089 101.232H127.241ZM129.403 101.688C129.403 101.016 129.539 100.428 129.811 99.924C130.083 99.412 130.455 99.016 130.927 98.736C131.407 98.456 131.943 98.316 132.535 98.316C133.047 98.316 133.523 98.436 133.963 98.676C134.403 98.908 134.739 99.216 134.971 99.6V96.12H136.075V105H134.971V103.764C134.755 104.156 134.435 104.48 134.011 104.736C133.587 104.984 133.091 105.108 132.523 105.108C131.939 105.108 131.407 104.964 130.927 104.676C130.455 104.388 130.083 103.984 129.811 103.464C129.539 102.944 129.403 102.352 129.403 101.688ZM134.971 101.7C134.971 101.204 134.871 100.772 134.671 100.404C134.471 100.036 134.199 99.756 133.855 99.564C133.519 99.364 133.147 99.264 132.739 99.264C132.331 99.264 131.959 99.36 131.623 99.552C131.287 99.744 131.019 100.024 130.819 100.392C130.619 100.76 130.519 101.192 130.519 101.688C130.519 102.192 130.619 102.632 130.819 103.008C131.019 103.376 131.287 103.66 131.623 103.86C131.959 104.052 132.331 104.148 132.739 104.148C133.147 104.148 133.519 104.052 133.855 103.86C134.199 103.66 134.471 103.376 134.671 103.008C134.871 102.632 134.971 102.196 134.971 101.7ZM143.92 101.46C143.92 101.668 143.908 101.888 143.884 102.12H138.628C138.668 102.768 138.888 103.276 139.288 103.644C139.696 104.004 140.188 104.184 140.764 104.184C141.236 104.184 141.628 104.076 141.94 103.86C142.26 103.636 142.484 103.34 142.612 102.972H143.788C143.612 103.604 143.26 104.12 142.732 104.52C142.204 104.912 141.548 105.108 140.764 105.108C140.14 105.108 139.58 104.968 139.084 104.688C138.596 104.408 138.212 104.012 137.932 103.5C137.652 102.98 137.512 102.38 137.512 101.7C137.512 101.02 137.648 100.424 137.92 99.912C138.192 99.4 138.572 99.008 139.06 98.736C139.556 98.456 140.124 98.316 140.764 98.316C141.388 98.316 141.94 98.452 142.42 98.724C142.9 98.996 143.268 99.372 143.524 99.852C143.788 100.324 143.92 100.86 143.92 101.46ZM142.792 101.232C142.792 100.816 142.7 100.46 142.516 100.164C142.332 99.86 142.08 99.632 141.76 99.48C141.448 99.32 141.1 99.24 140.716 99.24C140.164 99.24 139.692 99.416 139.3 99.768C138.916 100.12 138.696 100.608 138.64 101.232H142.792ZM148.566 98.304C149.366 98.304 150.014 98.548 150.51 99.036C151.006 99.516 151.254 100.212 151.254 101.124V105H150.174V101.28C150.174 100.624 150.01 100.124 149.682 99.78C149.354 99.428 148.906 99.252 148.338 99.252C147.762 99.252 147.302 99.432 146.958 99.792C146.622 100.152 146.454 100.676 146.454 101.364V105H145.362V98.424H146.454V99.36C146.67 99.024 146.962 98.764 147.33 98.58C147.706 98.396 148.118 98.304 148.566 98.304ZM154.369 99.324V103.2C154.369 103.52 154.437 103.748 154.573 103.884C154.709 104.012 154.945 104.076 155.281 104.076H156.085V105H155.101C154.493 105 154.037 104.86 153.733 104.58C153.429 104.3 153.277 103.84 153.277 103.2V99.324H152.425V98.424H153.277V96.768H154.369V98.424H156.085V99.324H154.369ZM157.972 97.356C157.764 97.356 157.588 97.284 157.444 97.14C157.3 96.996 157.228 96.82 157.228 96.612C157.228 96.404 157.3 96.228 157.444 96.084C157.588 95.94 157.764 95.868 157.972 95.868C158.172 95.868 158.34 95.94 158.476 96.084C158.62 96.228 158.692 96.404 158.692 96.612C158.692 96.82 158.62 96.996 158.476 97.14C158.34 97.284 158.172 97.356 157.972 97.356ZM158.5 98.424V105H157.408V98.424H158.5ZM159.954 101.688C159.954 101.016 160.09 100.428 160.362 99.924C160.634 99.412 161.006 99.016 161.478 98.736C161.958 98.456 162.49 98.316 163.074 98.316C163.65 98.316 164.15 98.44 164.574 98.688C164.998 98.936 165.314 99.248 165.522 99.624V98.424H166.626V105H165.522V103.776C165.306 104.16 164.982 104.48 164.55 104.736C164.126 104.984 163.63 105.108 163.062 105.108C162.478 105.108 161.95 104.964 161.478 104.676C161.006 104.388 160.634 103.984 160.362 103.464C160.09 102.944 159.954 102.352 159.954 101.688ZM165.522 101.7C165.522 101.204 165.422 100.772 165.222 100.404C165.022 100.036 164.75 99.756 164.406 99.564C164.07 99.364 163.698 99.264 163.29 99.264C162.882 99.264 162.51 99.36 162.174 99.552C161.838 99.744 161.57 100.024 161.37 100.392C161.17 100.76 161.07 101.192 161.07 101.688C161.07 102.192 161.17 102.632 161.37 103.008C161.57 103.376 161.838 103.66 162.174 103.86C162.51 104.052 162.882 104.148 163.29 104.148C163.698 104.148 164.07 104.052 164.406 103.86C164.75 103.66 165.022 103.376 165.222 103.008C165.422 102.632 165.522 102.196 165.522 101.7ZM169.563 96.12V105H168.471V96.12H169.563ZM173.752 105.108C173.248 105.108 172.796 105.024 172.396 104.856C171.996 104.68 171.68 104.44 171.448 104.136C171.216 103.824 171.088 103.468 171.064 103.068H172.192C172.224 103.396 172.376 103.664 172.648 103.872C172.928 104.08 173.292 104.184 173.74 104.184C174.156 104.184 174.484 104.092 174.724 103.908C174.964 103.724 175.084 103.492 175.084 103.212C175.084 102.924 174.956 102.712 174.7 102.576C174.444 102.432 174.048 102.292 173.512 102.156C173.024 102.028 172.624 101.9 172.312 101.772C172.008 101.636 171.744 101.44 171.52 101.184C171.304 100.92 171.196 100.576 171.196 100.152C171.196 99.816 171.296 99.508 171.496 99.228C171.696 98.948 171.98 98.728 172.348 98.568C172.716 98.4 173.136 98.316 173.608 98.316C174.336 98.316 174.924 98.5 175.372 98.868C175.82 99.236 176.06 99.74 176.092 100.38H175C174.976 100.036 174.836 99.76 174.58 99.552C174.332 99.344 173.996 99.24 173.572 99.24C173.18 99.24 172.868 99.324 172.636 99.492C172.404 99.66 172.288 99.88 172.288 100.152C172.288 100.368 172.356 100.548 172.492 100.692C172.636 100.828 172.812 100.94 173.02 101.028C173.236 101.108 173.532 101.2 173.908 101.304C174.38 101.432 174.764 101.56 175.06 101.688C175.356 101.808 175.608 101.992 175.816 102.24C176.032 102.488 176.144 102.812 176.152 103.212C176.152 103.572 176.052 103.896 175.852 104.184C175.652 104.472 175.368 104.7 175 104.868C174.64 105.028 174.224 105.108 173.752 105.108Z" fill="#FC5266"/>
<path d="M37.8572 128.727V129.393H36.1472V135H35.3282V129.393H33.6092V128.727H37.8572ZM41.3134 129.978C41.6854 129.978 42.0214 130.059 42.3214 130.221C42.6214 130.377 42.8554 130.614 43.0234 130.932C43.1974 131.25 43.2844 131.637 43.2844 132.093V135H42.4744V132.21C42.4744 131.718 42.3514 131.343 42.1054 131.085C41.8594 130.821 41.5234 130.689 41.0974 130.689C40.6654 130.689 40.3204 130.824 40.0624 131.094C39.8104 131.364 39.6844 131.757 39.6844 132.273V135H38.8654V128.34H39.6844V130.77C39.8464 130.518 40.0684 130.323 40.3504 130.185C40.6384 130.047 40.9594 129.978 41.3134 129.978ZM49.1222 132.345C49.1222 132.501 49.1132 132.666 49.0952 132.84H45.1532C45.1832 133.326 45.3482 133.707 45.6482 133.983C45.9542 134.253 46.3232 134.388 46.7552 134.388C47.1092 134.388 47.4032 134.307 47.6372 134.145C47.8772 133.977 48.0452 133.755 48.1412 133.479H49.0232C48.8912 133.953 48.6272 134.34 48.2312 134.64C47.8352 134.934 47.3432 135.081 46.7552 135.081C46.2872 135.081 45.8672 134.976 45.4952 134.766C45.1292 134.556 44.8412 134.259 44.6312 133.875C44.4212 133.485 44.3162 133.035 44.3162 132.525C44.3162 132.015 44.4182 131.568 44.6222 131.184C44.8262 130.8 45.1112 130.506 45.4772 130.302C45.8492 130.092 46.2752 129.987 46.7552 129.987C47.2232 129.987 47.6372 130.089 47.9972 130.293C48.3572 130.497 48.6332 130.779 48.8252 131.139C49.0232 131.493 49.1222 131.895 49.1222 132.345ZM48.2762 132.174C48.2762 131.862 48.2072 131.595 48.0692 131.373C47.9312 131.145 47.7422 130.974 47.5022 130.86C47.2682 130.74 47.0072 130.68 46.7192 130.68C46.3052 130.68 45.9512 130.812 45.6572 131.076C45.3692 131.34 45.2042 131.706 45.1622 132.174H48.2762ZM56.9767 130.068V135H56.1577V134.271C56.0017 134.523 55.7827 134.721 55.5007 134.865C55.2247 135.003 54.9187 135.072 54.5827 135.072C54.1987 135.072 53.8537 134.994 53.5477 134.838C53.2417 134.676 52.9987 134.436 52.8187 134.118C52.6447 133.8 52.5577 133.413 52.5577 132.957V130.068H53.3677V132.849C53.3677 133.335 53.4907 133.71 53.7367 133.974C53.9827 134.232 54.3187 134.361 54.7447 134.361C55.1827 134.361 55.5277 134.226 55.7797 133.956C56.0317 133.686 56.1577 133.293 56.1577 132.777V130.068H56.9767ZM60.1055 135.081C59.7275 135.081 59.3885 135.018 59.0885 134.892C58.7885 134.76 58.5515 134.58 58.3775 134.352C58.2035 134.118 58.1075 133.851 58.0895 133.551H58.9355C58.9595 133.797 59.0735 133.998 59.2775 134.154C59.4875 134.31 59.7605 134.388 60.0965 134.388C60.4085 134.388 60.6545 134.319 60.8345 134.181C61.0145 134.043 61.1045 133.869 61.1045 133.659C61.1045 133.443 61.0085 133.284 60.8165 133.182C60.6245 133.074 60.3275 132.969 59.9255 132.867C59.5595 132.771 59.2595 132.675 59.0255 132.579C58.7975 132.477 58.5995 132.33 58.4315 132.138C58.2695 131.94 58.1885 131.682 58.1885 131.364C58.1885 131.112 58.2635 130.881 58.4135 130.671C58.5635 130.461 58.7765 130.296 59.0525 130.176C59.3285 130.05 59.6435 129.987 59.9975 129.987C60.5435 129.987 60.9845 130.125 61.3205 130.401C61.6565 130.677 61.8365 131.055 61.8605 131.535H61.0415C61.0235 131.277 60.9185 131.07 60.7265 130.914C60.5405 130.758 60.2885 130.68 59.9705 130.68C59.6765 130.68 59.4425 130.743 59.2685 130.869C59.0945 130.995 59.0075 131.16 59.0075 131.364C59.0075 131.526 59.0585 131.661 59.1605 131.769C59.2685 131.871 59.4005 131.955 59.5565 132.021C59.7185 132.081 59.9405 132.15 60.2225 132.228C60.5765 132.324 60.8645 132.42 61.0865 132.516C61.3085 132.606 61.4975 132.744 61.6535 132.93C61.8155 133.116 61.8995 133.359 61.9055 133.659C61.9055 133.929 61.8305 134.172 61.6805 134.388C61.5305 134.604 61.3175 134.775 61.0415 134.901C60.7715 135.021 60.4595 135.081 60.1055 135.081ZM67.5617 132.345C67.5617 132.501 67.5527 132.666 67.5347 132.84H63.5927C63.6227 133.326 63.7877 133.707 64.0877 133.983C64.3937 134.253 64.7627 134.388 65.1947 134.388C65.5487 134.388 65.8427 134.307 66.0767 134.145C66.3167 133.977 66.4847 133.755 66.5807 133.479H67.4627C67.3307 133.953 67.0667 134.34 66.6707 134.64C66.2747 134.934 65.7827 135.081 65.1947 135.081C64.7267 135.081 64.3067 134.976 63.9347 134.766C63.5687 134.556 63.2807 134.259 63.0707 133.875C62.8607 133.485 62.7557 133.035 62.7557 132.525C62.7557 132.015 62.8577 131.568 63.0617 131.184C63.2657 130.8 63.5507 130.506 63.9167 130.302C64.2887 130.092 64.7147 129.987 65.1947 129.987C65.6627 129.987 66.0767 130.089 66.4367 130.293C66.7967 130.497 67.0727 130.779 67.2647 131.139C67.4627 131.493 67.5617 131.895 67.5617 132.345ZM66.7157 132.174C66.7157 131.862 66.6467 131.595 66.5087 131.373C66.3707 131.145 66.1817 130.974 65.9417 130.86C65.7077 130.74 65.4467 130.68 65.1587 130.68C64.7447 130.68 64.3907 130.812 64.0967 131.076C63.8087 131.34 63.6437 131.706 63.6017 132.174H66.7157ZM69.4617 130.869C69.6057 130.587 69.8097 130.368 70.0737 130.212C70.3437 130.056 70.6707 129.978 71.0547 129.978V130.824H70.8387C69.9207 130.824 69.4617 131.322 69.4617 132.318V135H68.6427V130.068H69.4617V130.869ZM74.4031 129.978C75.0031 129.978 75.4891 130.161 75.8611 130.527C76.2331 130.887 76.4191 131.409 76.4191 132.093V135H75.6091V132.21C75.6091 131.718 75.4861 131.343 75.2401 131.085C74.9941 130.821 74.6581 130.689 74.2321 130.689C73.8001 130.689 73.4551 130.824 73.1971 131.094C72.9451 131.364 72.8191 131.757 72.8191 132.273V135H72.0001V130.068H72.8191V130.77C72.9811 130.518 73.2001 130.323 73.4761 130.185C73.7581 130.047 74.0671 129.978 74.4031 129.978ZM77.451 132.516C77.451 132.012 77.553 131.571 77.757 131.193C77.961 130.809 78.24 130.512 78.594 130.302C78.954 130.092 79.353 129.987 79.791 129.987C80.223 129.987 80.598 130.08 80.916 130.266C81.234 130.452 81.471 130.686 81.627 130.968V130.068H82.455V135H81.627V134.082C81.465 134.37 81.222 134.61 80.898 134.802C80.58 134.988 80.208 135.081 79.782 135.081C79.344 135.081 78.948 134.973 78.594 134.757C78.24 134.541 77.961 134.238 77.757 133.848C77.553 133.458 77.451 133.014 77.451 132.516ZM81.627 132.525C81.627 132.153 81.552 131.829 81.402 131.553C81.252 131.277 81.048 131.067 80.79 130.923C80.538 130.773 80.259 130.698 79.953 130.698C79.647 130.698 79.368 130.77 79.116 130.914C78.864 131.058 78.663 131.268 78.513 131.544C78.363 131.82 78.288 132.144 78.288 132.516C78.288 132.894 78.363 133.224 78.513 133.506C78.663 133.782 78.864 133.995 79.116 134.145C79.368 134.289 79.647 134.361 79.953 134.361C80.259 134.361 80.538 134.289 80.79 134.145C81.048 133.995 81.252 133.782 81.402 133.506C81.552 133.224 81.627 132.897 81.627 132.525ZM89.77 129.978C90.154 129.978 90.496 130.059 90.796 130.221C91.096 130.377 91.333 130.614 91.507 130.932C91.681 131.25 91.768 131.637 91.768 132.093V135H90.958V132.21C90.958 131.718 90.835 131.343 90.589 131.085C90.349 130.821 90.022 130.689 89.608 130.689C89.182 130.689 88.843 130.827 88.591 131.103C88.339 131.373 88.213 131.766 88.213 132.282V135H87.403V132.21C87.403 131.718 87.28 131.343 87.034 131.085C86.794 130.821 86.467 130.689 86.053 130.689C85.627 130.689 85.288 130.827 85.036 131.103C84.784 131.373 84.658 131.766 84.658 132.282V135H83.839V130.068H84.658V130.779C84.82 130.521 85.036 130.323 85.306 130.185C85.582 130.047 85.885 129.978 86.215 129.978C86.629 129.978 86.995 130.071 87.313 130.257C87.631 130.443 87.868 130.716 88.024 131.076C88.162 130.728 88.39 130.458 88.708 130.266C89.026 130.074 89.38 129.978 89.77 129.978ZM97.6115 132.345C97.6115 132.501 97.6025 132.666 97.5845 132.84H93.6425C93.6725 133.326 93.8375 133.707 94.1375 133.983C94.4435 134.253 94.8125 134.388 95.2445 134.388C95.5985 134.388 95.8925 134.307 96.1265 134.145C96.3665 133.977 96.5345 133.755 96.6305 133.479H97.5125C97.3805 133.953 97.1165 134.34 96.7205 134.64C96.3245 134.934 95.8325 135.081 95.2445 135.081C94.7765 135.081 94.3565 134.976 93.9845 134.766C93.6185 134.556 93.3305 134.259 93.1205 133.875C92.9105 133.485 92.8055 133.035 92.8055 132.525C92.8055 132.015 92.9075 131.568 93.1115 131.184C93.3155 130.8 93.6005 130.506 93.9665 130.302C94.3385 130.092 94.7645 129.987 95.2445 129.987C95.7125 129.987 96.1265 130.089 96.4865 130.293C96.8465 130.497 97.1225 130.779 97.3145 131.139C97.5125 131.493 97.6115 131.895 97.6115 132.345ZM96.7655 132.174C96.7655 131.862 96.6965 131.595 96.5585 131.373C96.4205 131.145 96.2315 130.974 95.9915 130.86C95.7575 130.74 95.4965 130.68 95.2085 130.68C94.7945 130.68 94.4405 130.812 94.1465 131.076C93.8585 131.34 93.6935 131.706 93.6515 132.174H96.7655ZM100.786 132.516C100.786 132.012 100.888 131.571 101.092 131.193C101.296 130.809 101.575 130.512 101.929 130.302C102.289 130.092 102.688 129.987 103.126 129.987C103.558 129.987 103.933 130.08 104.251 130.266C104.569 130.452 104.806 130.686 104.962 130.968V130.068H105.79V135H104.962V134.082C104.8 134.37 104.557 134.61 104.233 134.802C103.915 134.988 103.543 135.081 103.117 135.081C102.679 135.081 102.283 134.973 101.929 134.757C101.575 134.541 101.296 134.238 101.092 133.848C100.888 133.458 100.786 133.014 100.786 132.516ZM104.962 132.525C104.962 132.153 104.887 131.829 104.737 131.553C104.587 131.277 104.383 131.067 104.125 130.923C103.873 130.773 103.594 130.698 103.288 130.698C102.982 130.698 102.703 130.77 102.451 130.914C102.199 131.058 101.998 131.268 101.848 131.544C101.698 131.82 101.623 132.144 101.623 132.516C101.623 132.894 101.698 133.224 101.848 133.506C101.998 133.782 102.199 133.995 102.451 134.145C102.703 134.289 102.982 134.361 103.288 134.361C103.594 134.361 103.873 134.289 104.125 134.145C104.383 133.995 104.587 133.782 104.737 133.506C104.887 133.224 104.962 132.897 104.962 132.525ZM109.577 129.978C110.177 129.978 110.663 130.161 111.035 130.527C111.407 130.887 111.593 131.409 111.593 132.093V135H110.783V132.21C110.783 131.718 110.66 131.343 110.414 131.085C110.168 130.821 109.832 130.689 109.406 130.689C108.974 130.689 108.629 130.824 108.371 131.094C108.119 131.364 107.993 131.757 107.993 132.273V135H107.174V130.068H107.993V130.77C108.155 130.518 108.374 130.323 108.65 130.185C108.932 130.047 109.241 129.978 109.577 129.978ZM112.625 132.516C112.625 132.012 112.727 131.571 112.931 131.193C113.135 130.809 113.414 130.512 113.768 130.302C114.128 130.092 114.53 129.987 114.974 129.987C115.358 129.987 115.715 130.077 116.045 130.257C116.375 130.431 116.627 130.662 116.801 130.95V128.34H117.629V135H116.801V134.073C116.639 134.367 116.399 134.61 116.081 134.802C115.763 134.988 115.391 135.081 114.965 135.081C114.527 135.081 114.128 134.973 113.768 134.757C113.414 134.541 113.135 134.238 112.931 133.848C112.727 133.458 112.625 133.014 112.625 132.516ZM116.801 132.525C116.801 132.153 116.726 131.829 116.576 131.553C116.426 131.277 116.222 131.067 115.964 130.923C115.712 130.773 115.433 130.698 115.127 130.698C114.821 130.698 114.542 130.77 114.29 130.914C114.038 131.058 113.837 131.268 113.687 131.544C113.537 131.82 113.462 132.144 113.462 132.516C113.462 132.894 113.537 133.224 113.687 133.506C113.837 133.782 114.038 133.995 114.29 134.145C114.542 134.289 114.821 134.361 115.127 134.361C115.433 134.361 115.712 134.289 115.964 134.145C116.222 133.995 116.426 133.782 116.576 133.506C116.726 133.224 116.801 132.897 116.801 132.525ZM122.073 126.522L119.607 136.53H118.797L121.254 126.522H122.073ZM125.444 135.081C124.982 135.081 124.562 134.976 124.184 134.766C123.812 134.556 123.518 134.259 123.302 133.875C123.092 133.485 122.987 133.035 122.987 132.525C122.987 132.021 123.095 131.577 123.311 131.193C123.533 130.803 123.833 130.506 124.211 130.302C124.589 130.092 125.012 129.987 125.48 129.987C125.948 129.987 126.371 130.092 126.749 130.302C127.127 130.506 127.424 130.8 127.64 131.184C127.862 131.568 127.973 132.015 127.973 132.525C127.973 133.035 127.859 133.485 127.631 133.875C127.409 134.259 127.106 134.556 126.722 134.766C126.338 134.976 125.912 135.081 125.444 135.081ZM125.444 134.361C125.738 134.361 126.014 134.292 126.272 134.154C126.53 134.016 126.737 133.809 126.893 133.533C127.055 133.257 127.136 132.921 127.136 132.525C127.136 132.129 127.058 131.793 126.902 131.517C126.746 131.241 126.542 131.037 126.29 130.905C126.038 130.767 125.765 130.698 125.471 130.698C125.171 130.698 124.895 130.767 124.643 130.905C124.397 131.037 124.199 131.241 124.049 131.517C123.899 131.793 123.824 132.129 123.824 132.525C123.824 132.927 123.896 133.266 124.04 133.542C124.19 133.818 124.388 134.025 124.634 134.163C124.88 134.295 125.15 134.361 125.444 134.361ZM129.869 130.869C130.013 130.587 130.217 130.368 130.481 130.212C130.751 130.056 131.078 129.978 131.462 129.978V130.824H131.246C130.328 130.824 129.869 131.322 129.869 132.318V135H129.05V130.068H129.869V130.869ZM135.806 130.743V133.65C135.806 133.89 135.857 134.061 135.959 134.163C136.061 134.259 136.238 134.307 136.49 134.307H137.093V135H136.355C135.899 135 135.557 134.895 135.329 134.685C135.101 134.475 134.987 134.13 134.987 133.65V130.743H134.348V130.068H134.987V128.826H135.806V130.068H137.093V130.743H135.806ZM140.533 129.978C140.905 129.978 141.241 130.059 141.541 130.221C141.841 130.377 142.075 130.614 142.243 130.932C142.417 131.25 142.504 131.637 142.504 132.093V135H141.694V132.21C141.694 131.718 141.571 131.343 141.325 131.085C141.079 130.821 140.743 130.689 140.317 130.689C139.885 130.689 139.54 130.824 139.282 131.094C139.03 131.364 138.904 131.757 138.904 132.273V135H138.085V128.34H138.904V130.77C139.066 130.518 139.288 130.323 139.57 130.185C139.858 130.047 140.179 129.978 140.533 129.978ZM148.342 132.345C148.342 132.501 148.333 132.666 148.315 132.84H144.373C144.403 133.326 144.568 133.707 144.868 133.983C145.174 134.253 145.543 134.388 145.975 134.388C146.329 134.388 146.623 134.307 146.857 134.145C147.097 133.977 147.265 133.755 147.361 133.479H148.243C148.111 133.953 147.847 134.34 147.451 134.64C147.055 134.934 146.563 135.081 145.975 135.081C145.507 135.081 145.087 134.976 144.715 134.766C144.349 134.556 144.061 134.259 143.851 133.875C143.641 133.485 143.536 133.035 143.536 132.525C143.536 132.015 143.638 131.568 143.842 131.184C144.046 130.8 144.331 130.506 144.697 130.302C145.069 130.092 145.495 129.987 145.975 129.987C146.443 129.987 146.857 130.089 147.217 130.293C147.577 130.497 147.853 130.779 148.045 131.139C148.243 131.493 148.342 131.895 148.342 132.345ZM147.496 132.174C147.496 131.862 147.427 131.595 147.289 131.373C147.151 131.145 146.962 130.974 146.722 130.86C146.488 130.74 146.227 130.68 145.939 130.68C145.525 130.68 145.171 130.812 144.877 131.076C144.589 131.34 144.424 131.706 144.382 132.174H147.496ZM152.641 130.977C152.803 130.695 153.043 130.461 153.361 130.275C153.685 130.083 154.06 129.987 154.486 129.987C154.924 129.987 155.32 130.092 155.674 130.302C156.034 130.512 156.316 130.809 156.52 131.193C156.724 131.571 156.826 132.012 156.826 132.516C156.826 133.014 156.724 133.458 156.52 133.848C156.316 134.238 156.034 134.541 155.674 134.757C155.32 134.973 154.924 135.081 154.486 135.081C154.066 135.081 153.694 134.988 153.37 134.802C153.052 134.61 152.809 134.373 152.641 134.091V137.34H151.822V130.068H152.641V130.977ZM155.989 132.516C155.989 132.144 155.914 131.82 155.764 131.544C155.614 131.268 155.41 131.058 155.152 130.914C154.9 130.77 154.621 130.698 154.315 130.698C154.015 130.698 153.736 130.773 153.478 130.923C153.226 131.067 153.022 131.28 152.866 131.562C152.716 131.838 152.641 132.159 152.641 132.525C152.641 132.897 152.716 133.224 152.866 133.506C153.022 133.782 153.226 133.995 153.478 134.145C153.736 134.289 154.015 134.361 154.315 134.361C154.621 134.361 154.9 134.289 155.152 134.145C155.41 133.995 155.614 133.782 155.764 133.506C155.914 133.224 155.989 132.894 155.989 132.516ZM157.598 132.516C157.598 132.012 157.7 131.571 157.904 131.193C158.108 130.809 158.387 130.512 158.741 130.302C159.101 130.092 159.5 129.987 159.938 129.987C160.37 129.987 160.745 130.08 161.063 130.266C161.381 130.452 161.618 130.686 161.774 130.968V130.068H162.602V135H161.774V134.082C161.612 134.37 161.369 134.61 161.045 134.802C160.727 134.988 160.355 135.081 159.929 135.081C159.491 135.081 159.095 134.973 158.741 134.757C158.387 134.541 158.108 134.238 157.904 133.848C157.7 133.458 157.598 133.014 157.598 132.516ZM161.774 132.525C161.774 132.153 161.699 131.829 161.549 131.553C161.399 131.277 161.195 131.067 160.937 130.923C160.685 130.773 160.406 130.698 160.1 130.698C159.794 130.698 159.515 130.77 159.263 130.914C159.011 131.058 158.81 131.268 158.66 131.544C158.51 131.82 158.435 132.144 158.435 132.516C158.435 132.894 158.51 133.224 158.66 133.506C158.81 133.782 159.011 133.995 159.263 134.145C159.515 134.289 159.794 134.361 160.1 134.361C160.406 134.361 160.685 134.289 160.937 134.145C161.195 133.995 161.399 133.782 161.549 133.506C161.699 133.224 161.774 132.897 161.774 132.525ZM165.732 135.081C165.354 135.081 165.015 135.018 164.715 134.892C164.415 134.76 164.178 134.58 164.004 134.352C163.83 134.118 163.734 133.851 163.716 133.551H164.562C164.586 133.797 164.7 133.998 164.904 134.154C165.114 134.31 165.387 134.388 165.723 134.388C166.035 134.388 166.281 134.319 166.461 134.181C166.641 134.043 166.731 133.869 166.731 133.659C166.731 133.443 166.635 133.284 166.443 133.182C166.251 133.074 165.954 132.969 165.552 132.867C165.186 132.771 164.886 132.675 164.652 132.579C164.424 132.477 164.226 132.33 164.058 132.138C163.896 131.94 163.815 131.682 163.815 131.364C163.815 131.112 163.89 130.881 164.04 130.671C164.19 130.461 164.403 130.296 164.679 130.176C164.955 130.05 165.27 129.987 165.624 129.987C166.17 129.987 166.611 130.125 166.947 130.401C167.283 130.677 167.463 131.055 167.487 131.535H166.668C166.65 131.277 166.545 131.07 166.353 130.914C166.167 130.758 165.915 130.68 165.597 130.68C165.303 130.68 165.069 130.743 164.895 130.869C164.721 130.995 164.634 131.16 164.634 131.364C164.634 131.526 164.685 131.661 164.787 131.769C164.895 131.871 165.027 131.955 165.183 132.021C165.345 132.081 165.567 132.15 165.849 132.228C166.203 132.324 166.491 132.42 166.713 132.516C166.935 132.606 167.124 132.744 167.28 132.93C167.442 133.116 167.526 133.359 167.532 133.659C167.532 133.929 167.457 134.172 167.307 134.388C167.157 134.604 166.944 134.775 166.668 134.901C166.398 135.021 166.086 135.081 165.732 135.081ZM170.435 135.081C170.057 135.081 169.718 135.018 169.418 134.892C169.118 134.76 168.881 134.58 168.707 134.352C168.533 134.118 168.437 133.851 168.419 133.551H169.265C169.289 133.797 169.403 133.998 169.607 134.154C169.817 134.31 170.09 134.388 170.426 134.388C170.738 134.388 170.984 134.319 171.164 134.181C171.344 134.043 171.434 133.869 171.434 133.659C171.434 133.443 171.338 133.284 171.146 133.182C170.954 133.074 170.657 132.969 170.255 132.867C169.889 132.771 169.589 132.675 169.355 132.579C169.127 132.477 168.929 132.33 168.761 132.138C168.599 131.94 168.518 131.682 168.518 131.364C168.518 131.112 168.593 130.881 168.743 130.671C168.893 130.461 169.106 130.296 169.382 130.176C169.658 130.05 169.973 129.987 170.327 129.987C170.873 129.987 171.314 130.125 171.65 130.401C171.986 130.677 172.166 131.055 172.19 131.535H171.371C171.353 131.277 171.248 131.07 171.056 130.914C170.87 130.758 170.618 130.68 170.3 130.68C170.006 130.68 169.772 130.743 169.598 130.869C169.424 130.995 169.337 131.16 169.337 131.364C169.337 131.526 169.388 131.661 169.49 131.769C169.598 131.871 169.73 131.955 169.886 132.021C170.048 132.081 170.27 132.15 170.552 132.228C170.906 132.324 171.194 132.42 171.416 132.516C171.638 132.606 171.827 132.744 171.983 132.93C172.145 133.116 172.229 133.359 172.235 133.659C172.235 133.929 172.16 134.172 172.01 134.388C171.86 134.604 171.647 134.775 171.371 134.901C171.101 135.021 170.789 135.081 170.435 135.081ZM179.961 130.068L178.422 135H177.576L176.388 131.085L175.2 135H174.354L172.806 130.068H173.643L174.777 134.208L176.001 130.068H176.838L178.035 134.217L179.151 130.068H179.961ZM182.925 135.081C182.463 135.081 182.043 134.976 181.665 134.766C181.293 134.556 180.999 134.259 180.783 133.875C180.573 133.485 180.468 133.035 180.468 132.525C180.468 132.021 180.576 131.577 180.792 131.193C181.014 130.803 181.314 130.506 181.692 130.302C182.07 130.092 182.493 129.987 182.961 129.987C183.429 129.987 183.852 130.092 184.23 130.302C184.608 130.506 184.905 130.8 185.121 131.184C185.343 131.568 185.454 132.015 185.454 132.525C185.454 133.035 185.34 133.485 185.112 133.875C184.89 134.259 184.587 134.556 184.203 134.766C183.819 134.976 183.393 135.081 182.925 135.081ZM182.925 134.361C183.219 134.361 183.495 134.292 183.753 134.154C184.011 134.016 184.218 133.809 184.374 133.533C184.536 133.257 184.617 132.921 184.617 132.525C184.617 132.129 184.539 131.793 184.383 131.517C184.227 131.241 184.023 131.037 183.771 130.905C183.519 130.767 183.246 130.698 182.952 130.698C182.652 130.698 182.376 130.767 182.124 130.905C181.878 131.037 181.68 131.241 181.53 131.517C181.38 131.793 181.305 132.129 181.305 132.525C181.305 132.927 181.377 133.266 181.521 133.542C181.671 133.818 181.869 134.025 182.115 134.163C182.361 134.295 182.631 134.361 182.925 134.361ZM187.349 130.869C187.493 130.587 187.697 130.368 187.961 130.212C188.231 130.056 188.558 129.978 188.942 129.978V130.824H188.726C187.808 130.824 187.349 131.322 187.349 132.318V135H186.53V130.068H187.349V130.869ZM189.582 132.516C189.582 132.012 189.684 131.571 189.888 131.193C190.092 130.809 190.371 130.512 190.725 130.302C191.085 130.092 191.487 129.987 191.931 129.987C192.315 129.987 192.672 130.077 193.002 130.257C193.332 130.431 193.584 130.662 193.758 130.95V128.34H194.586V135H193.758V134.073C193.596 134.367 193.356 134.61 193.038 134.802C192.72 134.988 192.348 135.081 191.922 135.081C191.484 135.081 191.085 134.973 190.725 134.757C190.371 134.541 190.092 134.238 189.888 133.848C189.684 133.458 189.582 133.014 189.582 132.516ZM193.758 132.525C193.758 132.153 193.683 131.829 193.533 131.553C193.383 131.277 193.179 131.067 192.921 130.923C192.669 130.773 192.39 130.698 192.084 130.698C191.778 130.698 191.499 130.77 191.247 130.914C190.995 131.058 190.794 131.268 190.644 131.544C190.494 131.82 190.419 132.144 190.419 132.516C190.419 132.894 190.494 133.224 190.644 133.506C190.794 133.782 190.995 133.995 191.247 134.145C191.499 134.289 191.778 134.361 192.084 134.361C192.39 134.361 192.669 134.289 192.921 134.145C193.179 133.995 193.383 133.782 193.533 133.506C193.683 133.224 193.758 132.897 193.758 132.525ZM198.063 132.516C198.063 132.012 198.165 131.571 198.369 131.193C198.573 130.809 198.852 130.512 199.206 130.302C199.566 130.092 199.965 129.987 200.403 129.987C200.835 129.987 201.21 130.08 201.528 130.266C201.846 130.452 202.083 130.686 202.239 130.968V130.068H203.067V135H202.239V134.082C202.077 134.37 201.834 134.61 201.51 134.802C201.192 134.988 200.82 135.081 200.394 135.081C199.956 135.081 199.56 134.973 199.206 134.757C198.852 134.541 198.573 134.238 198.369 133.848C198.165 133.458 198.063 133.014 198.063 132.516ZM202.239 132.525C202.239 132.153 202.164 131.829 202.014 131.553C201.864 131.277 201.66 131.067 201.402 130.923C201.15 130.773 200.871 130.698 200.565 130.698C200.259 130.698 199.98 130.77 199.728 130.914C199.476 131.058 199.275 131.268 199.125 131.544C198.975 131.82 198.9 132.144 198.9 132.516C198.9 132.894 198.975 133.224 199.125 133.506C199.275 133.782 199.476 133.995 199.728 134.145C199.98 134.289 200.259 134.361 200.565 134.361C200.871 134.361 201.15 134.289 201.402 134.145C201.66 133.995 201.864 133.782 202.014 133.506C202.164 133.224 202.239 132.897 202.239 132.525ZM205.27 130.869C205.414 130.587 205.618 130.368 205.882 130.212C206.152 130.056 206.479 129.978 206.863 129.978V130.824H206.647C205.729 130.824 205.27 131.322 205.27 132.318V135H204.451V130.068H205.27V130.869ZM212.309 132.345C212.309 132.501 212.3 132.666 212.282 132.84H208.34C208.37 133.326 208.535 133.707 208.835 133.983C209.141 134.253 209.51 134.388 209.942 134.388C210.296 134.388 210.59 134.307 210.824 134.145C211.064 133.977 211.232 133.755 211.328 133.479H212.21C212.078 133.953 211.814 134.34 211.418 134.64C211.022 134.934 210.53 135.081 209.942 135.081C209.474 135.081 209.054 134.976 208.682 134.766C208.316 134.556 208.028 134.259 207.818 133.875C207.608 133.485 207.503 133.035 207.503 132.525C207.503 132.015 207.605 131.568 207.809 131.184C208.013 130.8 208.298 130.506 208.664 130.302C209.036 130.092 209.462 129.987 209.942 129.987C210.41 129.987 210.824 130.089 211.184 130.293C211.544 130.497 211.82 130.779 212.012 131.139C212.21 131.493 212.309 131.895 212.309 132.345ZM211.463 132.174C211.463 131.862 211.394 131.595 211.256 131.373C211.118 131.145 210.929 130.974 210.689 130.86C210.455 130.74 210.194 130.68 209.906 130.68C209.492 130.68 209.138 130.812 208.844 131.076C208.556 131.34 208.391 131.706 208.349 132.174H211.463ZM70.1731 143.267C70.0171 143.267 69.8851 143.213 69.7771 143.105C69.6691 142.997 69.6151 142.865 69.6151 142.709C69.6151 142.553 69.6691 142.421 69.7771 142.313C69.8851 142.205 70.0171 142.151 70.1731 142.151C70.3231 142.151 70.4491 142.205 70.5511 142.313C70.6591 142.421 70.7131 142.553 70.7131 142.709C70.7131 142.865 70.6591 142.997 70.5511 143.105C70.4491 143.213 70.3231 143.267 70.1731 143.267ZM70.5691 144.068V149H69.7501V144.068H70.5691ZM74.368 143.978C74.968 143.978 75.454 144.161 75.826 144.527C76.198 144.887 76.384 145.409 76.384 146.093V149H75.574V146.21C75.574 145.718 75.451 145.343 75.205 145.085C74.959 144.821 74.623 144.689 74.197 144.689C73.765 144.689 73.42 144.824 73.162 145.094C72.91 145.364 72.784 145.757 72.784 146.273V149H71.965V144.068H72.784V144.77C72.946 144.518 73.165 144.323 73.441 144.185C73.723 144.047 74.032 143.978 74.368 143.978ZM79.5578 148.244L81.0878 144.068H81.9608L80.0258 149H79.0718L77.1368 144.068H78.0188L79.5578 148.244ZM82.4607 146.516C82.4607 146.012 82.5627 145.571 82.7667 145.193C82.9707 144.809 83.2497 144.512 83.6037 144.302C83.9637 144.092 84.3627 143.987 84.8007 143.987C85.2327 143.987 85.6077 144.08 85.9257 144.266C86.2437 144.452 86.4807 144.686 86.6367 144.968V144.068H87.4647V149H86.6367V148.082C86.4747 148.37 86.2317 148.61 85.9077 148.802C85.5897 148.988 85.2177 149.081 84.7917 149.081C84.3537 149.081 83.9577 148.973 83.6037 148.757C83.2497 148.541 82.9707 148.238 82.7667 147.848C82.5627 147.458 82.4607 147.014 82.4607 146.516ZM86.6367 146.525C86.6367 146.153 86.5617 145.829 86.4117 145.553C86.2617 145.277 86.0577 145.067 85.7997 144.923C85.5477 144.773 85.2687 144.698 84.9627 144.698C84.6567 144.698 84.3777 144.77 84.1257 144.914C83.8737 145.058 83.6727 145.268 83.5227 145.544C83.3727 145.82 83.2977 146.144 83.2977 146.516C83.2977 146.894 83.3727 147.224 83.5227 147.506C83.6727 147.782 83.8737 147.995 84.1257 148.145C84.3777 148.289 84.6567 148.361 84.9627 148.361C85.2687 148.361 85.5477 148.289 85.7997 148.145C86.0577 147.995 86.2617 147.782 86.4117 147.506C86.5617 147.224 86.6367 146.897 86.6367 146.525ZM89.6678 142.34V149H88.8488V142.34H89.6678ZM91.4866 143.267C91.3306 143.267 91.1986 143.213 91.0906 143.105C90.9826 142.997 90.9286 142.865 90.9286 142.709C90.9286 142.553 90.9826 142.421 91.0906 142.313C91.1986 142.205 91.3306 142.151 91.4866 142.151C91.6366 142.151 91.7626 142.205 91.8646 142.313C91.9726 142.421 92.0266 142.553 92.0266 142.709C92.0266 142.865 91.9726 142.997 91.8646 143.105C91.7626 143.213 91.6366 143.267 91.4866 143.267ZM91.8826 144.068V149H91.0636V144.068H91.8826ZM92.9724 146.516C92.9724 146.012 93.0744 145.571 93.2784 145.193C93.4824 144.809 93.7614 144.512 94.1154 144.302C94.4754 144.092 94.8774 143.987 95.3214 143.987C95.7054 143.987 96.0624 144.077 96.3924 144.257C96.7224 144.431 96.9744 144.662 97.1484 144.95V142.34H97.9764V149H97.1484V148.073C96.9864 148.367 96.7464 148.61 96.4284 148.802C96.1104 148.988 95.7384 149.081 95.3124 149.081C94.8744 149.081 94.4754 148.973 94.1154 148.757C93.7614 148.541 93.4824 148.238 93.2784 147.848C93.0744 147.458 92.9724 147.014 92.9724 146.516ZM97.1484 146.525C97.1484 146.153 97.0734 145.829 96.9234 145.553C96.7734 145.277 96.5694 145.067 96.3114 144.923C96.0594 144.773 95.7804 144.698 95.4744 144.698C95.1684 144.698 94.8894 144.77 94.6374 144.914C94.3854 145.058 94.1844 145.268 94.0344 145.544C93.8844 145.82 93.8094 146.144 93.8094 146.516C93.8094 146.894 93.8844 147.224 94.0344 147.506C94.1844 147.782 94.3854 147.995 94.6374 148.145C94.8894 148.289 95.1684 148.361 95.4744 148.361C95.7804 148.361 96.0594 148.289 96.3114 148.145C96.5694 147.995 96.7734 147.782 96.9234 147.506C97.0734 147.224 97.1484 146.897 97.1484 146.525ZM99.6215 149.054C99.4655 149.054 99.3335 149 99.2255 148.892C99.1175 148.784 99.0635 148.652 99.0635 148.496C99.0635 148.34 99.1175 148.208 99.2255 148.1C99.3335 147.992 99.4655 147.938 99.6215 147.938C99.7715 147.938 99.8975 147.992 99.9995 148.1C100.107 148.208 100.161 148.34 100.161 148.496C100.161 148.652 100.107 148.784 99.9995 148.892C99.8975 149 99.7715 149.054 99.6215 149.054ZM107.844 144.563C107.844 145.085 107.664 145.52 107.304 145.868C106.95 146.21 106.407 146.381 105.675 146.381H104.469V149H103.65V142.727H105.675C106.383 142.727 106.92 142.898 107.286 143.24C107.658 143.582 107.844 144.023 107.844 144.563ZM105.675 145.706C106.131 145.706 106.467 145.607 106.683 145.409C106.899 145.211 107.007 144.929 107.007 144.563C107.007 143.789 106.563 143.402 105.675 143.402H104.469V145.706H105.675ZM109.68 142.34V149H108.861V142.34H109.68ZM115.576 146.345C115.576 146.501 115.567 146.666 115.549 146.84H111.607C111.637 147.326 111.802 147.707 112.102 147.983C112.408 148.253 112.777 148.388 113.209 148.388C113.563 148.388 113.857 148.307 114.091 148.145C114.331 147.977 114.499 147.755 114.595 147.479H115.477C115.345 147.953 115.081 148.34 114.685 148.64C114.289 148.934 113.797 149.081 113.209 149.081C112.741 149.081 112.321 148.976 111.949 148.766C111.583 148.556 111.295 148.259 111.085 147.875C110.875 147.485 110.77 147.035 110.77 146.525C110.77 146.015 110.872 145.568 111.076 145.184C111.28 144.8 111.565 144.506 111.931 144.302C112.303 144.092 112.729 143.987 113.209 143.987C113.677 143.987 114.091 144.089 114.451 144.293C114.811 144.497 115.087 144.779 115.279 145.139C115.477 145.493 115.576 145.895 115.576 146.345ZM114.73 146.174C114.73 145.862 114.661 145.595 114.523 145.373C114.385 145.145 114.196 144.974 113.956 144.86C113.722 144.74 113.461 144.68 113.173 144.68C112.759 144.68 112.405 144.812 112.111 145.076C111.823 145.34 111.658 145.706 111.616 146.174H114.73ZM116.351 146.516C116.351 146.012 116.453 145.571 116.657 145.193C116.861 144.809 117.14 144.512 117.494 144.302C117.854 144.092 118.253 143.987 118.691 143.987C119.123 143.987 119.498 144.08 119.816 144.266C120.134 144.452 120.371 144.686 120.527 144.968V144.068H121.355V149H120.527V148.082C120.365 148.37 120.122 148.61 119.798 148.802C119.48 148.988 119.108 149.081 118.682 149.081C118.244 149.081 117.848 148.973 117.494 148.757C117.14 148.541 116.861 148.238 116.657 147.848C116.453 147.458 116.351 147.014 116.351 146.516ZM120.527 146.525C120.527 146.153 120.452 145.829 120.302 145.553C120.152 145.277 119.948 145.067 119.69 144.923C119.438 144.773 119.159 144.698 118.853 144.698C118.547 144.698 118.268 144.77 118.016 144.914C117.764 145.058 117.563 145.268 117.413 145.544C117.263 145.82 117.188 146.144 117.188 146.516C117.188 146.894 117.263 147.224 117.413 147.506C117.563 147.782 117.764 147.995 118.016 148.145C118.268 148.289 118.547 148.361 118.853 148.361C119.159 148.361 119.438 148.289 119.69 148.145C119.948 147.995 120.152 147.782 120.302 147.506C120.452 147.224 120.527 146.897 120.527 146.525ZM124.485 149.081C124.107 149.081 123.768 149.018 123.468 148.892C123.168 148.76 122.931 148.58 122.757 148.352C122.583 148.118 122.487 147.851 122.469 147.551H123.315C123.339 147.797 123.453 147.998 123.657 148.154C123.867 148.31 124.14 148.388 124.476 148.388C124.788 148.388 125.034 148.319 125.214 148.181C125.394 148.043 125.484 147.869 125.484 147.659C125.484 147.443 125.388 147.284 125.196 147.182C125.004 147.074 124.707 146.969 124.305 146.867C123.939 146.771 123.639 146.675 123.405 146.579C123.177 146.477 122.979 146.33 122.811 146.138C122.649 145.94 122.568 145.682 122.568 145.364C122.568 145.112 122.643 144.881 122.793 144.671C122.943 144.461 123.156 144.296 123.432 144.176C123.708 144.05 124.023 143.987 124.377 143.987C124.923 143.987 125.364 144.125 125.7 144.401C126.036 144.677 126.216 145.055 126.24 145.535H125.421C125.403 145.277 125.298 145.07 125.106 144.914C124.92 144.758 124.668 144.68 124.35 144.68C124.056 144.68 123.822 144.743 123.648 144.869C123.474 144.995 123.387 145.16 123.387 145.364C123.387 145.526 123.438 145.661 123.54 145.769C123.648 145.871 123.78 145.955 123.936 146.021C124.098 146.081 124.32 146.15 124.602 146.228C124.956 146.324 125.244 146.42 125.466 146.516C125.688 146.606 125.877 146.744 126.033 146.93C126.195 147.116 126.279 147.359 126.285 147.659C126.285 147.929 126.21 148.172 126.06 148.388C125.91 148.604 125.697 148.775 125.421 148.901C125.151 149.021 124.839 149.081 124.485 149.081ZM131.942 146.345C131.942 146.501 131.933 146.666 131.915 146.84H127.973C128.003 147.326 128.168 147.707 128.468 147.983C128.774 148.253 129.143 148.388 129.575 148.388C129.929 148.388 130.223 148.307 130.457 148.145C130.697 147.977 130.865 147.755 130.961 147.479H131.843C131.711 147.953 131.447 148.34 131.051 148.64C130.655 148.934 130.163 149.081 129.575 149.081C129.107 149.081 128.687 148.976 128.315 148.766C127.949 148.556 127.661 148.259 127.451 147.875C127.241 147.485 127.136 147.035 127.136 146.525C127.136 146.015 127.238 145.568 127.442 145.184C127.646 144.8 127.931 144.506 128.297 144.302C128.669 144.092 129.095 143.987 129.575 143.987C130.043 143.987 130.457 144.089 130.817 144.293C131.177 144.497 131.453 144.779 131.645 145.139C131.843 145.493 131.942 145.895 131.942 146.345ZM131.096 146.174C131.096 145.862 131.027 145.595 130.889 145.373C130.751 145.145 130.562 144.974 130.322 144.86C130.088 144.74 129.827 144.68 129.539 144.68C129.125 144.68 128.771 144.812 128.477 145.076C128.189 145.34 128.024 145.706 127.982 146.174H131.096ZM136.421 144.743V147.65C136.421 147.89 136.472 148.061 136.574 148.163C136.676 148.259 136.853 148.307 137.105 148.307H137.708V149H136.97C136.514 149 136.172 148.895 135.944 148.685C135.716 148.475 135.602 148.13 135.602 147.65V144.743H134.963V144.068H135.602V142.826H136.421V144.068H137.708V144.743H136.421ZM139.519 144.869C139.663 144.587 139.867 144.368 140.131 144.212C140.401 144.056 140.728 143.978 141.112 143.978V144.824H140.896C139.978 144.824 139.519 145.322 139.519 146.318V149H138.7V144.068H139.519V144.869ZM146.306 144.068L143.336 151.322H142.49L143.462 148.946L141.473 144.068H142.382L143.93 148.064L145.46 144.068H146.306ZM149.222 146.516C149.222 146.012 149.324 145.571 149.528 145.193C149.732 144.809 150.011 144.512 150.365 144.302C150.725 144.092 151.124 143.987 151.562 143.987C151.994 143.987 152.369 144.08 152.687 144.266C153.005 144.452 153.242 144.686 153.398 144.968V144.068H154.226V149H153.398V148.082C153.236 148.37 152.993 148.61 152.669 148.802C152.351 148.988 151.979 149.081 151.553 149.081C151.115 149.081 150.719 148.973 150.365 148.757C150.011 148.541 149.732 148.238 149.528 147.848C149.324 147.458 149.222 147.014 149.222 146.516ZM153.398 146.525C153.398 146.153 153.323 145.829 153.173 145.553C153.023 145.277 152.819 145.067 152.561 144.923C152.309 144.773 152.03 144.698 151.724 144.698C151.418 144.698 151.139 144.77 150.887 144.914C150.635 145.058 150.434 145.268 150.284 145.544C150.134 145.82 150.059 146.144 150.059 146.516C150.059 146.894 150.134 147.224 150.284 147.506C150.434 147.782 150.635 147.995 150.887 148.145C151.139 148.289 151.418 148.361 151.724 148.361C152.03 148.361 152.309 148.289 152.561 148.145C152.819 147.995 153.023 147.782 153.173 147.506C153.323 147.224 153.398 146.897 153.398 146.525ZM157.644 143.987C158.07 143.987 158.442 144.08 158.76 144.266C159.084 144.452 159.324 144.686 159.48 144.968V144.068H160.308V149.108C160.308 149.558 160.212 149.957 160.02 150.305C159.828 150.659 159.552 150.935 159.192 151.133C158.838 151.331 158.424 151.43 157.95 151.43C157.302 151.43 156.762 151.277 156.33 150.971C155.898 150.665 155.643 150.248 155.565 149.72H156.375C156.465 150.02 156.651 150.26 156.933 150.44C157.215 150.626 157.554 150.719 157.95 150.719C158.4 150.719 158.766 150.578 159.048 150.296C159.336 150.014 159.48 149.618 159.48 149.108V148.073C159.318 148.361 159.078 148.601 158.76 148.793C158.442 148.985 158.07 149.081 157.644 149.081C157.206 149.081 156.807 148.973 156.447 148.757C156.093 148.541 155.814 148.238 155.61 147.848C155.406 147.458 155.304 147.014 155.304 146.516C155.304 146.012 155.406 145.571 155.61 145.193C155.814 144.809 156.093 144.512 156.447 144.302C156.807 144.092 157.206 143.987 157.644 143.987ZM159.48 146.525C159.48 146.153 159.405 145.829 159.255 145.553C159.105 145.277 158.901 145.067 158.643 144.923C158.391 144.773 158.112 144.698 157.806 144.698C157.5 144.698 157.221 144.77 156.969 144.914C156.717 145.058 156.516 145.268 156.366 145.544C156.216 145.82 156.141 146.144 156.141 146.516C156.141 146.894 156.216 147.224 156.366 147.506C156.516 147.782 156.717 147.995 156.969 148.145C157.221 148.289 157.5 148.361 157.806 148.361C158.112 148.361 158.391 148.289 158.643 148.145C158.901 147.995 159.105 147.782 159.255 147.506C159.405 147.224 159.48 146.897 159.48 146.525ZM161.387 146.516C161.387 146.012 161.489 145.571 161.693 145.193C161.897 144.809 162.176 144.512 162.53 144.302C162.89 144.092 163.289 143.987 163.727 143.987C164.159 143.987 164.534 144.08 164.852 144.266C165.17 144.452 165.407 144.686 165.563 144.968V144.068H166.391V149H165.563V148.082C165.401 148.37 165.158 148.61 164.834 148.802C164.516 148.988 164.144 149.081 163.718 149.081C163.28 149.081 162.884 148.973 162.53 148.757C162.176 148.541 161.897 148.238 161.693 147.848C161.489 147.458 161.387 147.014 161.387 146.516ZM165.563 146.525C165.563 146.153 165.488 145.829 165.338 145.553C165.188 145.277 164.984 145.067 164.726 144.923C164.474 144.773 164.195 144.698 163.889 144.698C163.583 144.698 163.304 144.77 163.052 144.914C162.8 145.058 162.599 145.268 162.449 145.544C162.299 145.82 162.224 146.144 162.224 146.516C162.224 146.894 162.299 147.224 162.449 147.506C162.599 147.782 162.8 147.995 163.052 148.145C163.304 148.289 163.583 148.361 163.889 148.361C164.195 148.361 164.474 148.289 164.726 148.145C164.984 147.995 165.188 147.782 165.338 147.506C165.488 147.224 165.563 146.897 165.563 146.525ZM168.198 143.267C168.042 143.267 167.91 143.213 167.802 143.105C167.694 142.997 167.64 142.865 167.64 142.709C167.64 142.553 167.694 142.421 167.802 142.313C167.91 142.205 168.042 142.151 168.198 142.151C168.348 142.151 168.474 142.205 168.576 142.313C168.684 142.421 168.738 142.553 168.738 142.709C168.738 142.865 168.684 142.997 168.576 143.105C168.474 143.213 168.348 143.267 168.198 143.267ZM168.594 144.068V149H167.775V144.068H168.594ZM172.392 143.978C172.992 143.978 173.478 144.161 173.85 144.527C174.222 144.887 174.408 145.409 174.408 146.093V149H173.598V146.21C173.598 145.718 173.475 145.343 173.229 145.085C172.983 144.821 172.647 144.689 172.221 144.689C171.789 144.689 171.444 144.824 171.186 145.094C170.934 145.364 170.808 145.757 170.808 146.273V149H169.989V144.068H170.808V144.77C170.97 144.518 171.189 144.323 171.465 144.185C171.747 144.047 172.056 143.978 172.392 143.978ZM176.007 149.054C175.851 149.054 175.719 149 175.611 148.892C175.503 148.784 175.449 148.652 175.449 148.496C175.449 148.34 175.503 148.208 175.611 148.1C175.719 147.992 175.851 147.938 176.007 147.938C176.157 147.938 176.283 147.992 176.385 148.1C176.493 148.208 176.547 148.34 176.547 148.496C176.547 148.652 176.493 148.784 176.385 148.892C176.283 149 176.157 149.054 176.007 149.054Z" fill="#C4C4C4"/>
<g clip-path="url(#clip0)">
<path d="M125.499 59.0632C123.906 59.0632 122.57 60.3989 122.57 61.9925C122.57 63.586 123.906 64.9218 125.499 64.9218C127.034 64.9218 128.429 63.586 128.358 62.0628C128.429 60.3872 127.105 59.0632 125.499 59.0632Z" fill="#FC5266"/>
<path d="M152.613 69.4447C154.453 66.2693 154.464 62.4846 152.636 59.321L134.287 27.5438C132.471 24.345 129.19 22.4468 125.511 22.4468C121.832 22.4468 118.551 24.3567 116.735 27.5321L98.3622 59.3444C96.5343 62.5432 96.546 66.3513 98.3973 69.5267C100.225 72.6669 103.494 74.5534 107.15 74.5534H143.802C147.469 74.5534 150.762 72.6435 152.613 69.4447ZM148.629 67.1481C147.61 68.9057 145.805 69.9485 143.79 69.9485H107.138C105.146 69.9485 103.354 68.9291 102.358 67.2067C101.35 65.4608 101.338 63.3751 102.346 61.6175L120.719 29.817C121.715 28.0711 123.496 27.04 125.511 27.04C127.515 27.04 129.307 28.0828 130.303 29.8287L148.664 61.6293C149.648 63.34 149.637 65.4022 148.629 67.1481Z" fill="#FC5266"/>
<path d="M124.773 38.4994C123.378 38.8978 122.511 40.1633 122.511 41.6983C122.582 42.6239 122.64 43.5613 122.711 44.487C122.91 48.0138 123.109 51.4704 123.308 54.9973C123.378 56.1925 124.304 57.0595 125.499 57.0595C126.694 57.0595 127.632 56.1339 127.69 54.927C127.69 54.2005 127.69 53.5327 127.761 52.7945C127.89 50.533 128.03 48.2716 128.159 46.0102C128.229 44.5455 128.358 43.0809 128.429 41.6162C128.429 41.089 128.358 40.6203 128.159 40.1516C127.561 38.8392 126.167 38.1714 124.773 38.4994Z" fill="#FC5266"/>
</g>
<g clip-path="url(#clip1)">
<path d="M243.283 13.0119L248.734 7.56038C249.089 7.20578 249.089 6.63245 248.734 6.27785C248.379 5.92325 247.806 5.92325 247.451 6.27785L242 11.7293L236.549 6.27785C236.194 5.92325 235.621 5.92325 235.266 6.27785C234.911 6.63245 234.911 7.20578 235.266 7.56038L240.717 13.0119L235.266 18.4634C234.911 18.818 234.911 19.3913 235.266 19.7459C235.443 19.9228 235.675 20.0116 235.907 20.0116C236.14 20.0116 236.372 19.9228 236.549 19.7459L242 14.2944L247.451 19.7459C247.628 19.9228 247.86 20.0116 248.093 20.0116C248.325 20.0116 248.557 19.9228 248.734 19.7459C249.089 19.3913 249.089 18.818 248.734 18.4634L243.283 13.0119Z" fill="#C4C4C4"/>
</g>
<defs>
<clipPath id="clip0">
<rect width="57" height="57" fill="white" transform="translate(97 20)"/>
</clipPath>
<clipPath id="clip1">
<rect width="14" height="14" fill="white" transform="translate(235 6)"/>
</clipPath>
</defs>
</svg>
