<svg width="255" height="196" viewBox="0 0 255 196" fill="none" xmlns="http://www.w3.org/2000/svg">
<rect width="255" height="196" fill="white"/>
<path d="M69.016 96.636V105H67.924V96.636H69.016ZM74.0811 98.304C74.8811 98.304 75.5291 98.548 76.0251 99.036C76.5211 99.516 76.7691 100.212 76.7691 101.124V105H75.6891V101.28C75.6891 100.624 75.5251 100.124 75.1971 99.78C74.8691 99.428 74.4211 99.252 73.8531 99.252C73.2771 99.252 72.8171 99.432 72.4731 99.792C72.1371 100.152 71.9691 100.676 71.9691 101.364V105H70.8771V98.424H71.9691V99.36C72.1851 99.024 72.4771 98.764 72.8451 98.58C73.2211 98.396 73.6331 98.304 74.0811 98.304ZM81.0009 103.992L83.0409 98.424H84.2049L81.6249 105H80.3529L77.7729 98.424H78.9489L81.0009 103.992ZM84.8715 101.688C84.8715 101.016 85.0075 100.428 85.2795 99.924C85.5515 99.412 85.9235 99.016 86.3955 98.736C86.8755 98.456 87.4075 98.316 87.9915 98.316C88.5675 98.316 89.0675 98.44 89.4915 98.688C89.9155 98.936 90.2315 99.248 90.4395 99.624V98.424H91.5435V105H90.4395V103.776C90.2235 104.16 89.8995 104.48 89.4675 104.736C89.0435 104.984 88.5475 105.108 87.9795 105.108C87.3955 105.108 86.8675 104.964 86.3955 104.676C85.9235 104.388 85.5515 103.984 85.2795 103.464C85.0075 102.944 84.8715 102.352 84.8715 101.688ZM90.4395 101.7C90.4395 101.204 90.3395 100.772 90.1395 100.404C89.9395 100.036 89.6675 99.756 89.3235 99.564C88.9875 99.364 88.6155 99.264 88.2075 99.264C87.7995 99.264 87.4275 99.36 87.0915 99.552C86.7555 99.744 86.4875 100.024 86.2875 100.392C86.0875 100.76 85.9875 101.192 85.9875 101.688C85.9875 102.192 86.0875 102.632 86.2875 103.008C86.4875 103.376 86.7555 103.66 87.0915 103.86C87.4275 104.052 87.7995 104.148 88.2075 104.148C88.6155 104.148 88.9875 104.052 89.3235 103.86C89.6675 103.66 89.9395 103.376 90.1395 103.008C90.3395 102.632 90.4395 102.196 90.4395 101.7ZM94.4808 96.12V105H93.3888V96.12H94.4808ZM96.906 97.356C96.698 97.356 96.522 97.284 96.378 97.14C96.234 96.996 96.162 96.82 96.162 96.612C96.162 96.404 96.234 96.228 96.378 96.084C96.522 95.94 96.698 95.868 96.906 95.868C97.106 95.868 97.274 95.94 97.41 96.084C97.554 96.228 97.626 96.404 97.626 96.612C97.626 96.82 97.554 96.996 97.41 97.14C97.274 97.284 97.106 97.356 96.906 97.356ZM97.434 98.424V105H96.342V98.424H97.434ZM98.8871 101.688C98.8871 101.016 99.0231 100.428 99.2951 99.924C99.5671 99.412 99.9391 99.016 100.411 98.736C100.891 98.456 101.427 98.316 102.019 98.316C102.531 98.316 103.007 98.436 103.447 98.676C103.887 98.908 104.223 99.216 104.455 99.6V96.12H105.559V105H104.455V103.764C104.239 104.156 103.919 104.48 103.495 104.736C103.071 104.984 102.575 105.108 102.007 105.108C101.423 105.108 100.891 104.964 100.411 104.676C99.9391 104.388 99.5671 103.984 99.2951 103.464C99.0231 102.944 98.8871 102.352 98.8871 101.688ZM104.455 101.7C104.455 101.204 104.355 100.772 104.155 100.404C103.955 100.036 103.683 99.756 103.339 99.564C103.003 99.364 102.631 99.264 102.223 99.264C101.815 99.264 101.443 99.36 101.107 99.552C100.771 99.744 100.503 100.024 100.303 100.392C100.103 100.76 100.003 101.192 100.003 101.688C100.003 102.192 100.103 102.632 100.303 103.008C100.503 103.376 100.771 103.66 101.107 103.86C101.443 104.052 101.815 104.148 102.223 104.148C102.631 104.148 103.003 104.052 103.339 103.86C103.683 103.66 103.955 103.376 104.155 103.008C104.355 102.632 104.455 102.196 104.455 101.7ZM110.196 101.7C110.196 101.02 110.332 100.428 110.604 99.924C110.876 99.412 111.252 99.016 111.732 98.736C112.22 98.456 112.776 98.316 113.4 98.316C114.208 98.316 114.872 98.512 115.392 98.904C115.92 99.296 116.268 99.84 116.436 100.536H115.26C115.148 100.136 114.928 99.82 114.6 99.588C114.28 99.356 113.88 99.24 113.4 99.24C112.776 99.24 112.272 99.456 111.888 99.888C111.504 100.312 111.312 100.916 111.312 101.7C111.312 102.492 111.504 103.104 111.888 103.536C112.272 103.968 112.776 104.184 113.4 104.184C113.88 104.184 114.28 104.072 114.6 103.848C114.92 103.624 115.14 103.304 115.26 102.888H116.436C116.26 103.56 115.908 104.1 115.38 104.508C114.852 104.908 114.192 105.108 113.4 105.108C112.776 105.108 112.22 104.968 111.732 104.688C111.252 104.408 110.876 104.012 110.604 103.5C110.332 102.988 110.196 102.388 110.196 101.7ZM118.985 99.492C119.177 99.116 119.449 98.824 119.801 98.616C120.161 98.408 120.597 98.304 121.109 98.304V99.432H120.821C119.597 99.432 118.985 100.096 118.985 101.424V105H117.893V98.424H118.985V99.492ZM128.369 101.46C128.369 101.668 128.357 101.888 128.333 102.12H123.077C123.117 102.768 123.337 103.276 123.737 103.644C124.145 104.004 124.637 104.184 125.213 104.184C125.685 104.184 126.077 104.076 126.389 103.86C126.709 103.636 126.933 103.34 127.061 102.972H128.237C128.061 103.604 127.709 104.12 127.181 104.52C126.653 104.912 125.997 105.108 125.213 105.108C124.589 105.108 124.029 104.968 123.533 104.688C123.045 104.408 122.661 104.012 122.381 103.5C122.101 102.98 121.961 102.38 121.961 101.7C121.961 101.02 122.097 100.424 122.369 99.912C122.641 99.4 123.021 99.008 123.509 98.736C124.005 98.456 124.573 98.316 125.213 98.316C125.837 98.316 126.389 98.452 126.869 98.724C127.349 98.996 127.717 99.372 127.973 99.852C128.237 100.324 128.369 100.86 128.369 101.46ZM127.241 101.232C127.241 100.816 127.149 100.46 126.965 100.164C126.781 99.86 126.529 99.632 126.209 99.48C125.897 99.32 125.549 99.24 125.165 99.24C124.613 99.24 124.141 99.416 123.749 99.768C123.365 100.12 123.145 100.608 123.089 101.232H127.241ZM129.403 101.688C129.403 101.016 129.539 100.428 129.811 99.924C130.083 99.412 130.455 99.016 130.927 98.736C131.407 98.456 131.943 98.316 132.535 98.316C133.047 98.316 133.523 98.436 133.963 98.676C134.403 98.908 134.739 99.216 134.971 99.6V96.12H136.075V105H134.971V103.764C134.755 104.156 134.435 104.48 134.011 104.736C133.587 104.984 133.091 105.108 132.523 105.108C131.939 105.108 131.407 104.964 130.927 104.676C130.455 104.388 130.083 103.984 129.811 103.464C129.539 102.944 129.403 102.352 129.403 101.688ZM134.971 101.7C134.971 101.204 134.871 100.772 134.671 100.404C134.471 100.036 134.199 99.756 133.855 99.564C133.519 99.364 133.147 99.264 132.739 99.264C132.331 99.264 131.959 99.36 131.623 99.552C131.287 99.744 131.019 100.024 130.819 100.392C130.619 100.76 130.519 101.192 130.519 101.688C130.519 102.192 130.619 102.632 130.819 103.008C131.019 103.376 131.287 103.66 131.623 103.86C131.959 104.052 132.331 104.148 132.739 104.148C133.147 104.148 133.519 104.052 133.855 103.86C134.199 103.66 134.471 103.376 134.671 103.008C134.871 102.632 134.971 102.196 134.971 101.7ZM143.92 101.46C143.92 101.668 143.908 101.888 143.884 102.12H138.628C138.668 102.768 138.888 103.276 139.288 103.644C139.696 104.004 140.188 104.184 140.764 104.184C141.236 104.184 141.628 104.076 141.94 103.86C142.26 103.636 142.484 103.34 142.612 102.972H143.788C143.612 103.604 143.26 104.12 142.732 104.52C142.204 104.912 141.548 105.108 140.764 105.108C140.14 105.108 139.58 104.968 139.084 104.688C138.596 104.408 138.212 104.012 137.932 103.5C137.652 102.98 137.512 102.38 137.512 101.7C137.512 101.02 137.648 100.424 137.92 99.912C138.192 99.4 138.572 99.008 139.06 98.736C139.556 98.456 140.124 98.316 140.764 98.316C141.388 98.316 141.94 98.452 142.42 98.724C142.9 98.996 143.268 99.372 143.524 99.852C143.788 100.324 143.92 100.86 143.92 101.46ZM142.792 101.232C142.792 100.816 142.7 100.46 142.516 100.164C142.332 99.86 142.08 99.632 141.76 99.48C141.448 99.32 141.1 99.24 140.716 99.24C140.164 99.24 139.692 99.416 139.3 99.768C138.916 100.12 138.696 100.608 138.64 101.232H142.792ZM148.566 98.304C149.366 98.304 150.014 98.548 150.51 99.036C151.006 99.516 151.254 100.212 151.254 101.124V105H150.174V101.28C150.174 100.624 150.01 100.124 149.682 99.78C149.354 99.428 148.906 99.252 148.338 99.252C147.762 99.252 147.302 99.432 146.958 99.792C146.622 100.152 146.454 100.676 146.454 101.364V105H145.362V98.424H146.454V99.36C146.67 99.024 146.962 98.764 147.33 98.58C147.706 98.396 148.118 98.304 148.566 98.304ZM154.369 99.324V103.2C154.369 103.52 154.437 103.748 154.573 103.884C154.709 104.012 154.945 104.076 155.281 104.076H156.085V105H155.101C154.493 105 154.037 104.86 153.733 104.58C153.429 104.3 153.277 103.84 153.277 103.2V99.324H152.425V98.424H153.277V96.768H154.369V98.424H156.085V99.324H154.369ZM157.972 97.356C157.764 97.356 157.588 97.284 157.444 97.14C157.3 96.996 157.228 96.82 157.228 96.612C157.228 96.404 157.3 96.228 157.444 96.084C157.588 95.94 157.764 95.868 157.972 95.868C158.172 95.868 158.34 95.94 158.476 96.084C158.62 96.228 158.692 96.404 158.692 96.612C158.692 96.82 158.62 96.996 158.476 97.14C158.34 97.284 158.172 97.356 157.972 97.356ZM158.5 98.424V105H157.408V98.424H158.5ZM159.954 101.688C159.954 101.016 160.09 100.428 160.362 99.924C160.634 99.412 161.006 99.016 161.478 98.736C161.958 98.456 162.49 98.316 163.074 98.316C163.65 98.316 164.15 98.44 164.574 98.688C164.998 98.936 165.314 99.248 165.522 99.624V98.424H166.626V105H165.522V103.776C165.306 104.16 164.982 104.48 164.55 104.736C164.126 104.984 163.63 105.108 163.062 105.108C162.478 105.108 161.95 104.964 161.478 104.676C161.006 104.388 160.634 103.984 160.362 103.464C160.09 102.944 159.954 102.352 159.954 101.688ZM165.522 101.7C165.522 101.204 165.422 100.772 165.222 100.404C165.022 100.036 164.75 99.756 164.406 99.564C164.07 99.364 163.698 99.264 163.29 99.264C162.882 99.264 162.51 99.36 162.174 99.552C161.838 99.744 161.57 100.024 161.37 100.392C161.17 100.76 161.07 101.192 161.07 101.688C161.07 102.192 161.17 102.632 161.37 103.008C161.57 103.376 161.838 103.66 162.174 103.86C162.51 104.052 162.882 104.148 163.29 104.148C163.698 104.148 164.07 104.052 164.406 103.86C164.75 103.66 165.022 103.376 165.222 103.008C165.422 102.632 165.522 102.196 165.522 101.7ZM169.563 96.12V105H168.471V96.12H169.563ZM173.752 105.108C173.248 105.108 172.796 105.024 172.396 104.856C171.996 104.68 171.68 104.44 171.448 104.136C171.216 103.824 171.088 103.468 171.064 103.068H172.192C172.224 103.396 172.376 103.664 172.648 103.872C172.928 104.08 173.292 104.184 173.74 104.184C174.156 104.184 174.484 104.092 174.724 103.908C174.964 103.724 175.084 103.492 175.084 103.212C175.084 102.924 174.956 102.712 174.7 102.576C174.444 102.432 174.048 102.292 173.512 102.156C173.024 102.028 172.624 101.9 172.312 101.772C172.008 101.636 171.744 101.44 171.52 101.184C171.304 100.92 171.196 100.576 171.196 100.152C171.196 99.816 171.296 99.508 171.496 99.228C171.696 98.948 171.98 98.728 172.348 98.568C172.716 98.4 173.136 98.316 173.608 98.316C174.336 98.316 174.924 98.5 175.372 98.868C175.82 99.236 176.06 99.74 176.092 100.38H175C174.976 100.036 174.836 99.76 174.58 99.552C174.332 99.344 173.996 99.24 173.572 99.24C173.18 99.24 172.868 99.324 172.636 99.492C172.404 99.66 172.288 99.88 172.288 100.152C172.288 100.368 172.356 100.548 172.492 100.692C172.636 100.828 172.812 100.94 173.02 101.028C173.236 101.108 173.532 101.2 173.908 101.304C174.38 101.432 174.764 101.56 175.06 101.688C175.356 101.808 175.608 101.992 175.816 102.24C176.032 102.488 176.144 102.812 176.152 103.212C176.152 103.572 176.052 103.896 175.852 104.184C175.652 104.472 175.368 104.7 175 104.868C174.64 105.028 174.224 105.108 173.752 105.108Z" fill="#FC5266"/>
<path d="M45.3411 128.727V129.393H43.6311V135H42.8121V129.393H41.0931V128.727H45.3411ZM48.7973 129.978C49.1693 129.978 49.5053 130.059 49.8053 130.221C50.1053 130.377 50.3393 130.614 50.5073 130.932C50.6813 131.25 50.7683 131.637 50.7683 132.093V135H49.9583V132.21C49.9583 131.718 49.8353 131.343 49.5893 131.085C49.3433 130.821 49.0073 130.689 48.5813 130.689C48.1493 130.689 47.8043 130.824 47.5463 131.094C47.2943 131.364 47.1683 131.757 47.1683 132.273V135H46.3493V128.34H47.1683V130.77C47.3303 130.518 47.5523 130.323 47.8343 130.185C48.1223 130.047 48.4433 129.978 48.7973 129.978ZM56.6061 132.345C56.6061 132.501 56.5971 132.666 56.5791 132.84H52.6371C52.6671 133.326 52.8321 133.707 53.1321 133.983C53.4381 134.253 53.8071 134.388 54.2391 134.388C54.5931 134.388 54.8871 134.307 55.1211 134.145C55.3611 133.977 55.5291 133.755 55.6251 133.479H56.5071C56.3751 133.953 56.1111 134.34 55.7151 134.64C55.3191 134.934 54.8271 135.081 54.2391 135.081C53.7711 135.081 53.3511 134.976 52.9791 134.766C52.6131 134.556 52.3251 134.259 52.1151 133.875C51.9051 133.485 51.8001 133.035 51.8001 132.525C51.8001 132.015 51.9021 131.568 52.1061 131.184C52.3101 130.8 52.5951 130.506 52.9611 130.302C53.3331 130.092 53.7591 129.987 54.2391 129.987C54.7071 129.987 55.1211 130.089 55.4811 130.293C55.8411 130.497 56.1171 130.779 56.3091 131.139C56.5071 131.493 56.6061 131.895 56.6061 132.345ZM55.7601 132.174C55.7601 131.862 55.6911 131.595 55.5531 131.373C55.4151 131.145 55.2261 130.974 54.9861 130.86C54.7521 130.74 54.4911 130.68 54.2031 130.68C53.7891 130.68 53.4351 130.812 53.1411 131.076C52.8531 131.34 52.6881 131.706 52.6461 132.174H55.7601ZM60.9056 130.977C61.0676 130.695 61.3076 130.461 61.6256 130.275C61.9496 130.083 62.3246 129.987 62.7506 129.987C63.1886 129.987 63.5846 130.092 63.9386 130.302C64.2986 130.512 64.5806 130.809 64.7846 131.193C64.9886 131.571 65.0906 132.012 65.0906 132.516C65.0906 133.014 64.9886 133.458 64.7846 133.848C64.5806 134.238 64.2986 134.541 63.9386 134.757C63.5846 134.973 63.1886 135.081 62.7506 135.081C62.3306 135.081 61.9586 134.988 61.6346 134.802C61.3166 134.61 61.0736 134.373 60.9056 134.091V137.34H60.0866V130.068H60.9056V130.977ZM64.2536 132.516C64.2536 132.144 64.1786 131.82 64.0286 131.544C63.8786 131.268 63.6746 131.058 63.4166 130.914C63.1646 130.77 62.8856 130.698 62.5796 130.698C62.2796 130.698 62.0006 130.773 61.7426 130.923C61.4906 131.067 61.2866 131.28 61.1306 131.562C60.9806 131.838 60.9056 132.159 60.9056 132.525C60.9056 132.897 60.9806 133.224 61.1306 133.506C61.2866 133.782 61.4906 133.995 61.7426 134.145C62.0006 134.289 62.2796 134.361 62.5796 134.361C62.8856 134.361 63.1646 134.289 63.4166 134.145C63.6746 133.995 63.8786 133.782 64.0286 133.506C64.1786 133.224 64.2536 132.894 64.2536 132.516ZM66.9876 130.869C67.1316 130.587 67.3356 130.368 67.5996 130.212C67.8696 130.056 68.1966 129.978 68.5806 129.978V130.824H68.3646C67.4466 130.824 66.9876 131.322 66.9876 132.318V135H66.1686V130.068H66.9876V130.869ZM71.677 135.081C71.215 135.081 70.795 134.976 70.417 134.766C70.045 134.556 69.751 134.259 69.535 133.875C69.325 133.485 69.22 133.035 69.22 132.525C69.22 132.021 69.328 131.577 69.544 131.193C69.766 130.803 70.066 130.506 70.444 130.302C70.822 130.092 71.245 129.987 71.713 129.987C72.181 129.987 72.604 130.092 72.982 130.302C73.36 130.506 73.657 130.8 73.873 131.184C74.095 131.568 74.206 132.015 74.206 132.525C74.206 133.035 74.092 133.485 73.864 133.875C73.642 134.259 73.339 134.556 72.955 134.766C72.571 134.976 72.145 135.081 71.677 135.081ZM71.677 134.361C71.971 134.361 72.247 134.292 72.505 134.154C72.763 134.016 72.97 133.809 73.126 133.533C73.288 133.257 73.369 132.921 73.369 132.525C73.369 132.129 73.291 131.793 73.135 131.517C72.979 131.241 72.775 131.037 72.523 130.905C72.271 130.767 71.998 130.698 71.704 130.698C71.404 130.698 71.128 130.767 70.876 130.905C70.63 131.037 70.432 131.241 70.282 131.517C70.132 131.793 70.057 132.129 70.057 132.525C70.057 132.927 70.129 133.266 70.273 133.542C70.423 133.818 70.621 134.025 70.867 134.163C71.113 134.295 71.383 134.361 71.677 134.361ZM77.1188 134.244L78.6488 130.068H79.5218L77.5868 135H76.6328L74.6978 130.068H75.5798L77.1188 134.244ZM80.7508 129.267C80.5948 129.267 80.4628 129.213 80.3548 129.105C80.2468 128.997 80.1928 128.865 80.1928 128.709C80.1928 128.553 80.2468 128.421 80.3548 128.313C80.4628 128.205 80.5948 128.151 80.7508 128.151C80.9008 128.151 81.0268 128.205 81.1288 128.313C81.2368 128.421 81.2908 128.553 81.2908 128.709C81.2908 128.865 81.2368 128.997 81.1288 129.105C81.0268 129.213 80.9008 129.267 80.7508 129.267ZM81.1468 130.068V135H80.3278V130.068H81.1468ZM82.2366 132.516C82.2366 132.012 82.3386 131.571 82.5426 131.193C82.7466 130.809 83.0256 130.512 83.3796 130.302C83.7396 130.092 84.1416 129.987 84.5856 129.987C84.9696 129.987 85.3266 130.077 85.6566 130.257C85.9866 130.431 86.2386 130.662 86.4126 130.95V128.34H87.2406V135H86.4126V134.073C86.2506 134.367 86.0106 134.61 85.6926 134.802C85.3746 134.988 85.0026 135.081 84.5766 135.081C84.1386 135.081 83.7396 134.973 83.3796 134.757C83.0256 134.541 82.7466 134.238 82.5426 133.848C82.3386 133.458 82.2366 133.014 82.2366 132.516ZM86.4126 132.525C86.4126 132.153 86.3376 131.829 86.1876 131.553C86.0376 131.277 85.8336 131.067 85.5756 130.923C85.3236 130.773 85.0446 130.698 84.7386 130.698C84.4326 130.698 84.1536 130.77 83.9016 130.914C83.6496 131.058 83.4486 131.268 83.2986 131.544C83.1486 131.82 83.0736 132.144 83.0736 132.516C83.0736 132.894 83.1486 133.224 83.2986 133.506C83.4486 133.782 83.6496 133.995 83.9016 134.145C84.1536 134.289 84.4326 134.361 84.7386 134.361C85.0446 134.361 85.3236 134.289 85.5756 134.145C85.8336 133.995 86.0376 133.782 86.1876 133.506C86.3376 133.224 86.4126 132.897 86.4126 132.525ZM93.1246 132.345C93.1246 132.501 93.1156 132.666 93.0976 132.84H89.1556C89.1856 133.326 89.3506 133.707 89.6506 133.983C89.9566 134.253 90.3256 134.388 90.7576 134.388C91.1116 134.388 91.4056 134.307 91.6396 134.145C91.8796 133.977 92.0476 133.755 92.1436 133.479H93.0256C92.8936 133.953 92.6296 134.34 92.2336 134.64C91.8376 134.934 91.3456 135.081 90.7576 135.081C90.2896 135.081 89.8696 134.976 89.4976 134.766C89.1316 134.556 88.8436 134.259 88.6336 133.875C88.4236 133.485 88.3186 133.035 88.3186 132.525C88.3186 132.015 88.4206 131.568 88.6246 131.184C88.8286 130.8 89.1136 130.506 89.4796 130.302C89.8516 130.092 90.2776 129.987 90.7576 129.987C91.2256 129.987 91.6396 130.089 91.9996 130.293C92.3596 130.497 92.6356 130.779 92.8276 131.139C93.0256 131.493 93.1246 131.895 93.1246 132.345ZM92.2786 132.174C92.2786 131.862 92.2096 131.595 92.0716 131.373C91.9336 131.145 91.7446 130.974 91.5046 130.86C91.2706 130.74 91.0096 130.68 90.7216 130.68C90.3076 130.68 89.9536 130.812 89.6596 131.076C89.3716 131.34 89.2066 131.706 89.1646 132.174H92.2786ZM93.8997 132.516C93.8997 132.012 94.0017 131.571 94.2057 131.193C94.4097 130.809 94.6887 130.512 95.0427 130.302C95.4027 130.092 95.8047 129.987 96.2487 129.987C96.6327 129.987 96.9897 130.077 97.3197 130.257C97.6497 130.431 97.9017 130.662 98.0757 130.95V128.34H98.9037V135H98.0757V134.073C97.9137 134.367 97.6737 134.61 97.3557 134.802C97.0377 134.988 96.6657 135.081 96.2397 135.081C95.8017 135.081 95.4027 134.973 95.0427 134.757C94.6887 134.541 94.4097 134.238 94.2057 133.848C94.0017 133.458 93.8997 133.014 93.8997 132.516ZM98.0757 132.525C98.0757 132.153 98.0007 131.829 97.8507 131.553C97.7007 131.277 97.4967 131.067 97.2387 130.923C96.9867 130.773 96.7077 130.698 96.4017 130.698C96.0957 130.698 95.8167 130.77 95.5647 130.914C95.3127 131.058 95.1117 131.268 94.9617 131.544C94.8117 131.82 94.7367 132.144 94.7367 132.516C94.7367 132.894 94.8117 133.224 94.9617 133.506C95.1117 133.782 95.3127 133.995 95.5647 134.145C95.8167 134.289 96.0957 134.361 96.4017 134.361C96.7077 134.361 96.9867 134.289 97.2387 134.145C97.4967 133.995 97.7007 133.782 97.8507 133.506C98.0007 133.224 98.0757 132.897 98.0757 132.525ZM102.381 132.525C102.381 132.015 102.483 131.571 102.687 131.193C102.891 130.809 103.173 130.512 103.533 130.302C103.899 130.092 104.316 129.987 104.784 129.987C105.39 129.987 105.888 130.134 106.278 130.428C106.674 130.722 106.935 131.13 107.061 131.652H106.179C106.095 131.352 105.93 131.115 105.684 130.941C105.444 130.767 105.144 130.68 104.784 130.68C104.316 130.68 103.938 130.842 103.65 131.166C103.362 131.484 103.218 131.937 103.218 132.525C103.218 133.119 103.362 133.578 103.65 133.902C103.938 134.226 104.316 134.388 104.784 134.388C105.144 134.388 105.444 134.304 105.684 134.136C105.924 133.968 106.089 133.728 106.179 133.416H107.061C106.929 133.92 106.665 134.325 106.269 134.631C105.873 134.931 105.378 135.081 104.784 135.081C104.316 135.081 103.899 134.976 103.533 134.766C103.173 134.556 102.891 134.259 102.687 133.875C102.483 133.491 102.381 133.041 102.381 132.525ZM108.973 128.34V135H108.154V128.34H108.973ZM110.792 129.267C110.636 129.267 110.504 129.213 110.396 129.105C110.288 128.997 110.234 128.865 110.234 128.709C110.234 128.553 110.288 128.421 110.396 128.313C110.504 128.205 110.636 128.151 110.792 128.151C110.942 128.151 111.068 128.205 111.17 128.313C111.278 128.421 111.332 128.553 111.332 128.709C111.332 128.865 111.278 128.997 111.17 129.105C111.068 129.213 110.942 129.267 110.792 129.267ZM111.188 130.068V135H110.369V130.068H111.188ZM117.084 132.345C117.084 132.501 117.075 132.666 117.057 132.84H113.115C113.145 133.326 113.31 133.707 113.61 133.983C113.916 134.253 114.285 134.388 114.717 134.388C115.071 134.388 115.365 134.307 115.599 134.145C115.839 133.977 116.007 133.755 116.103 133.479H116.985C116.853 133.953 116.589 134.34 116.193 134.64C115.797 134.934 115.305 135.081 114.717 135.081C114.249 135.081 113.829 134.976 113.457 134.766C113.091 134.556 112.803 134.259 112.593 133.875C112.383 133.485 112.278 133.035 112.278 132.525C112.278 132.015 112.38 131.568 112.584 131.184C112.788 130.8 113.073 130.506 113.439 130.302C113.811 130.092 114.237 129.987 114.717 129.987C115.185 129.987 115.599 130.089 115.959 130.293C116.319 130.497 116.595 130.779 116.787 131.139C116.985 131.493 117.084 131.895 117.084 132.345ZM116.238 132.174C116.238 131.862 116.169 131.595 116.031 131.373C115.893 131.145 115.704 130.974 115.464 130.86C115.23 130.74 114.969 130.68 114.681 130.68C114.267 130.68 113.913 130.812 113.619 131.076C113.331 131.34 113.166 131.706 113.124 132.174H116.238ZM120.568 129.978C121.168 129.978 121.654 130.161 122.026 130.527C122.398 130.887 122.584 131.409 122.584 132.093V135H121.774V132.21C121.774 131.718 121.651 131.343 121.405 131.085C121.159 130.821 120.823 130.689 120.397 130.689C119.965 130.689 119.62 130.824 119.362 131.094C119.11 131.364 118.984 131.757 118.984 132.273V135H118.165V130.068H118.984V130.77C119.146 130.518 119.365 130.323 119.641 130.185C119.923 130.047 120.232 129.978 120.568 129.978ZM124.921 130.743V133.65C124.921 133.89 124.972 134.061 125.074 134.163C125.176 134.259 125.353 134.307 125.605 134.307H126.208V135H125.47C125.014 135 124.672 134.895 124.444 134.685C124.216 134.475 124.102 134.13 124.102 133.65V130.743H123.463V130.068H124.102V128.826H124.921V130.068H126.208V130.743H124.921ZM130.418 128.727V135H129.599V128.727H130.418ZM133.767 128.727C134.451 128.727 135.042 128.856 135.54 129.114C136.044 129.366 136.428 129.729 136.692 130.203C136.962 130.677 137.097 131.235 137.097 131.877C137.097 132.519 136.962 133.077 136.692 133.551C136.428 134.019 136.044 134.379 135.54 134.631C135.042 134.877 134.451 135 133.767 135H131.814V128.727H133.767ZM133.767 134.325C134.577 134.325 135.195 134.112 135.621 133.686C136.047 133.254 136.26 132.651 136.26 131.877C136.26 131.097 136.044 130.488 135.612 130.05C135.186 129.612 134.571 129.393 133.767 129.393H132.633V134.325H133.767ZM140.271 132.525C140.271 132.015 140.373 131.571 140.577 131.193C140.781 130.809 141.063 130.512 141.423 130.302C141.789 130.092 142.206 129.987 142.674 129.987C143.28 129.987 143.778 130.134 144.168 130.428C144.564 130.722 144.825 131.13 144.951 131.652H144.069C143.985 131.352 143.82 131.115 143.574 130.941C143.334 130.767 143.034 130.68 142.674 130.68C142.206 130.68 141.828 130.842 141.54 131.166C141.252 131.484 141.108 131.937 141.108 132.525C141.108 133.119 141.252 133.578 141.54 133.902C141.828 134.226 142.206 134.388 142.674 134.388C143.034 134.388 143.334 134.304 143.574 134.136C143.814 133.968 143.979 133.728 144.069 133.416H144.951C144.819 133.92 144.555 134.325 144.159 134.631C143.763 134.931 143.268 135.081 142.674 135.081C142.206 135.081 141.789 134.976 141.423 134.766C141.063 134.556 140.781 134.259 140.577 133.875C140.373 133.491 140.271 133.041 140.271 132.525ZM145.738 132.516C145.738 132.012 145.84 131.571 146.044 131.193C146.248 130.809 146.527 130.512 146.881 130.302C147.241 130.092 147.64 129.987 148.078 129.987C148.51 129.987 148.885 130.08 149.203 130.266C149.521 130.452 149.758 130.686 149.914 130.968V130.068H150.742V135H149.914V134.082C149.752 134.37 149.509 134.61 149.185 134.802C148.867 134.988 148.495 135.081 148.069 135.081C147.631 135.081 147.235 134.973 146.881 134.757C146.527 134.541 146.248 134.238 146.044 133.848C145.84 133.458 145.738 133.014 145.738 132.516ZM149.914 132.525C149.914 132.153 149.839 131.829 149.689 131.553C149.539 131.277 149.335 131.067 149.077 130.923C148.825 130.773 148.546 130.698 148.24 130.698C147.934 130.698 147.655 130.77 147.403 130.914C147.151 131.058 146.95 131.268 146.8 131.544C146.65 131.82 146.575 132.144 146.575 132.516C146.575 132.894 146.65 133.224 146.8 133.506C146.95 133.782 147.151 133.995 147.403 134.145C147.655 134.289 147.934 134.361 148.24 134.361C148.546 134.361 148.825 134.289 149.077 134.145C149.335 133.995 149.539 133.782 149.689 133.506C149.839 133.224 149.914 132.897 149.914 132.525ZM154.529 129.978C155.129 129.978 155.615 130.161 155.987 130.527C156.359 130.887 156.545 131.409 156.545 132.093V135H155.735V132.21C155.735 131.718 155.612 131.343 155.366 131.085C155.12 130.821 154.784 130.689 154.358 130.689C153.926 130.689 153.581 130.824 153.323 131.094C153.071 131.364 152.945 131.757 152.945 132.273V135H152.126V130.068H152.945V130.77C153.107 130.518 153.326 130.323 153.602 130.185C153.884 130.047 154.193 129.978 154.529 129.978ZM158.008 128.727H158.917L158.053 130.77H157.477L158.008 128.727ZM160.85 130.743V133.65C160.85 133.89 160.901 134.061 161.003 134.163C161.105 134.259 161.282 134.307 161.534 134.307H162.137V135H161.399C160.943 135 160.601 134.895 160.373 134.685C160.145 134.475 160.031 134.13 160.031 133.65V130.743H159.392V130.068H160.031V128.826H160.85V130.068H162.137V130.743H160.85ZM166.348 130.986C166.516 130.692 166.762 130.452 167.086 130.266C167.41 130.08 167.779 129.987 168.193 129.987C168.637 129.987 169.036 130.092 169.39 130.302C169.744 130.512 170.023 130.809 170.227 131.193C170.431 131.571 170.533 132.012 170.533 132.516C170.533 133.014 170.431 133.458 170.227 133.848C170.023 134.238 169.741 134.541 169.381 134.757C169.027 134.973 168.631 135.081 168.193 135.081C167.767 135.081 167.392 134.988 167.068 134.802C166.75 134.616 166.51 134.379 166.348 134.091V135H165.529V128.34H166.348V130.986ZM169.696 132.516C169.696 132.144 169.621 131.82 169.471 131.544C169.321 131.268 169.117 131.058 168.859 130.914C168.607 130.77 168.328 130.698 168.022 130.698C167.722 130.698 167.443 130.773 167.185 130.923C166.933 131.067 166.729 131.28 166.573 131.562C166.423 131.838 166.348 132.159 166.348 132.525C166.348 132.897 166.423 133.224 166.573 133.506C166.729 133.782 166.933 133.995 167.185 134.145C167.443 134.289 167.722 134.361 168.022 134.361C168.328 134.361 168.607 134.289 168.859 134.145C169.117 133.995 169.321 133.782 169.471 133.506C169.621 133.224 169.696 132.894 169.696 132.516ZM176.111 132.345C176.111 132.501 176.102 132.666 176.084 132.84H172.142C172.172 133.326 172.337 133.707 172.637 133.983C172.943 134.253 173.312 134.388 173.744 134.388C174.098 134.388 174.392 134.307 174.626 134.145C174.866 133.977 175.034 133.755 175.13 133.479H176.012C175.88 133.953 175.616 134.34 175.22 134.64C174.824 134.934 174.332 135.081 173.744 135.081C173.276 135.081 172.856 134.976 172.484 134.766C172.118 134.556 171.83 134.259 171.62 133.875C171.41 133.485 171.305 133.035 171.305 132.525C171.305 132.015 171.407 131.568 171.611 131.184C171.815 130.8 172.1 130.506 172.466 130.302C172.838 130.092 173.264 129.987 173.744 129.987C174.212 129.987 174.626 130.089 174.986 130.293C175.346 130.497 175.622 130.779 175.814 131.139C176.012 131.493 176.111 131.895 176.111 132.345ZM175.265 132.174C175.265 131.862 175.196 131.595 175.058 131.373C174.92 131.145 174.731 130.974 174.491 130.86C174.257 130.74 173.996 130.68 173.708 130.68C173.294 130.68 172.94 130.812 172.646 131.076C172.358 131.34 172.193 131.706 172.151 132.174H175.265ZM181.598 130.743H180.563V135H179.744V130.743H179.105V130.068H179.744V129.717C179.744 129.165 179.885 128.763 180.167 128.511C180.455 128.253 180.914 128.124 181.544 128.124V128.808C181.184 128.808 180.929 128.88 180.779 129.024C180.635 129.162 180.563 129.393 180.563 129.717V130.068H181.598V130.743ZM184.704 135.081C184.242 135.081 183.822 134.976 183.444 134.766C183.072 134.556 182.778 134.259 182.562 133.875C182.352 133.485 182.247 133.035 182.247 132.525C182.247 132.021 182.355 131.577 182.571 131.193C182.793 130.803 183.093 130.506 183.471 130.302C183.849 130.092 184.272 129.987 184.74 129.987C185.208 129.987 185.631 130.092 186.009 130.302C186.387 130.506 186.684 130.8 186.9 131.184C187.122 131.568 187.233 132.015 187.233 132.525C187.233 133.035 187.119 133.485 186.891 133.875C186.669 134.259 186.366 134.556 185.982 134.766C185.598 134.976 185.172 135.081 184.704 135.081ZM184.704 134.361C184.998 134.361 185.274 134.292 185.532 134.154C185.79 134.016 185.997 133.809 186.153 133.533C186.315 133.257 186.396 132.921 186.396 132.525C186.396 132.129 186.318 131.793 186.162 131.517C186.006 131.241 185.802 131.037 185.55 130.905C185.298 130.767 185.025 130.698 184.731 130.698C184.431 130.698 184.155 130.767 183.903 130.905C183.657 131.037 183.459 131.241 183.309 131.517C183.159 131.793 183.084 132.129 183.084 132.525C183.084 132.927 183.156 133.266 183.3 133.542C183.45 133.818 183.648 134.025 183.894 134.163C184.14 134.295 184.41 134.361 184.704 134.361ZM192.684 130.068V135H191.865V134.271C191.709 134.523 191.49 134.721 191.208 134.865C190.932 135.003 190.626 135.072 190.29 135.072C189.906 135.072 189.561 134.994 189.255 134.838C188.949 134.676 188.706 134.436 188.526 134.118C188.352 133.8 188.265 133.413 188.265 132.957V130.068H189.075V132.849C189.075 133.335 189.198 133.71 189.444 133.974C189.69 134.232 190.026 134.361 190.452 134.361C190.89 134.361 191.235 134.226 191.487 133.956C191.739 133.686 191.865 133.293 191.865 132.777V130.068H192.684ZM196.47 129.978C197.07 129.978 197.556 130.161 197.928 130.527C198.3 130.887 198.486 131.409 198.486 132.093V135H197.676V132.21C197.676 131.718 197.553 131.343 197.307 131.085C197.061 130.821 196.725 130.689 196.299 130.689C195.867 130.689 195.522 130.824 195.264 131.094C195.012 131.364 194.886 131.757 194.886 132.273V135H194.067V130.068H194.886V130.77C195.048 130.518 195.267 130.323 195.543 130.185C195.825 130.047 196.134 129.978 196.47 129.978ZM199.518 132.516C199.518 132.012 199.62 131.571 199.824 131.193C200.028 130.809 200.307 130.512 200.661 130.302C201.021 130.092 201.423 129.987 201.867 129.987C202.251 129.987 202.608 130.077 202.938 130.257C203.268 130.431 203.52 130.662 203.694 130.95V128.34H204.522V135H203.694V134.073C203.532 134.367 203.292 134.61 202.974 134.802C202.656 134.988 202.284 135.081 201.858 135.081C201.42 135.081 201.021 134.973 200.661 134.757C200.307 134.541 200.028 134.238 199.824 133.848C199.62 133.458 199.518 133.014 199.518 132.516ZM203.694 132.525C203.694 132.153 203.619 131.829 203.469 131.553C203.319 131.277 203.115 131.067 202.857 130.923C202.605 130.773 202.326 130.698 202.02 130.698C201.714 130.698 201.435 130.77 201.183 130.914C200.931 131.058 200.73 131.268 200.58 131.544C200.43 131.82 200.355 132.144 200.355 132.516C200.355 132.894 200.43 133.224 200.58 133.506C200.73 133.782 200.931 133.995 201.183 134.145C201.435 134.289 201.714 134.361 202.02 134.361C202.326 134.361 202.605 134.289 202.857 134.145C203.115 133.995 203.319 133.782 203.469 133.506C203.619 133.224 203.694 132.897 203.694 132.525Z" fill="#C4C4C4"/>
<g clip-path="url(#clip0)">
<path d="M125.499 59.0632C123.906 59.0632 122.57 60.3989 122.57 61.9925C122.57 63.586 123.906 64.9218 125.499 64.9218C127.034 64.9218 128.429 63.586 128.358 62.0628C128.429 60.3872 127.105 59.0632 125.499 59.0632Z" fill="#FC5266"/>
<path d="M152.613 69.4447C154.453 66.2693 154.464 62.4846 152.636 59.321L134.287 27.5438C132.471 24.345 129.19 22.4468 125.511 22.4468C121.832 22.4468 118.551 24.3567 116.735 27.5321L98.3622 59.3444C96.5343 62.5432 96.546 66.3513 98.3973 69.5267C100.225 72.6669 103.494 74.5534 107.15 74.5534H143.802C147.469 74.5534 150.762 72.6435 152.613 69.4447ZM148.629 67.1481C147.61 68.9057 145.805 69.9485 143.79 69.9485H107.138C105.146 69.9485 103.354 68.9291 102.358 67.2067C101.35 65.4608 101.338 63.3751 102.346 61.6175L120.719 29.817C121.715 28.0711 123.496 27.04 125.511 27.04C127.515 27.04 129.307 28.0828 130.303 29.8287L148.664 61.6293C149.648 63.34 149.637 65.4022 148.629 67.1481Z" fill="#FC5266"/>
<path d="M124.773 38.4994C123.378 38.8978 122.511 40.1633 122.511 41.6983C122.582 42.6239 122.64 43.5613 122.711 44.487C122.91 48.0138 123.109 51.4704 123.308 54.9973C123.378 56.1925 124.304 57.0595 125.499 57.0595C126.694 57.0595 127.632 56.1339 127.69 54.927C127.69 54.2005 127.69 53.5327 127.761 52.7945C127.89 50.533 128.03 48.2716 128.159 46.0102C128.229 44.5455 128.358 43.0809 128.429 41.6162C128.429 41.089 128.358 40.6203 128.159 40.1516C127.561 38.8392 126.167 38.1714 124.773 38.4994Z" fill="#FC5266"/>
</g>
<g clip-path="url(#clip1)">
<path d="M243.283 13.0119L248.734 7.56038C249.089 7.20578 249.089 6.63245 248.734 6.27785C248.379 5.92325 247.806 5.92325 247.451 6.27785L242 11.7293L236.549 6.27785C236.194 5.92325 235.621 5.92325 235.266 6.27785C234.911 6.63245 234.911 7.20578 235.266 7.56038L240.717 13.0119L235.266 18.4634C234.911 18.818 234.911 19.3913 235.266 19.7459C235.443 19.9228 235.675 20.0116 235.907 20.0116C236.14 20.0116 236.372 19.9228 236.549 19.7459L242 14.2944L247.451 19.7459C247.628 19.9228 247.86 20.0116 248.093 20.0116C248.325 20.0116 248.557 19.9228 248.734 19.7459C249.089 19.3913 249.089 18.818 248.734 18.4634L243.283 13.0119Z" fill="#C4C4C4"/>
</g>
<defs>
<clipPath id="clip0">
<rect width="57" height="57" fill="white" transform="translate(97 20)"/>
</clipPath>
<clipPath id="clip1">
<rect width="14" height="14" fill="white" transform="translate(235 6)"/>
</clipPath>
</defs>
</svg>
