<?xml version="1.0" encoding="UTF-8" standalone="no"?><svg xmlns="http://www.w3.org/2000/svg" xmlns:xlink="http://www.w3.org/1999/xlink" contentScriptType="application/ecmascript" contentStyleType="text/css" height="687px" preserveAspectRatio="none" style="width:615px;height:687px;" version="1.1" viewBox="0 0 615 687" width="615px" zoomAndPan="magnify"><defs><filter height="300%" id="f801kqz3asu1b" width="300%" x="-1" y="-1"><feGaussianBlur result="blurOut" stdDeviation="2.0"/><feColorMatrix in="blurOut" result="blurOut2" type="matrix" values="0 0 0 0 0 0 0 0 0 0 0 0 0 0 0 0 0 0 .4 0"/><feOffset dx="4.0" dy="4.0" in="blurOut2" result="blurOut3"/><feBlend in="SourceGraphic" in2="blurOut3" mode="normal"/></filter></defs><g><!--MD5=[10ea673caf457862023e152271927b45]
cluster controller--><polygon fill="#FFFFFF" filter="url(#f801kqz3asu1b)" points="26,6,109,6,116,28.2969,368,28.2969,368,166,26,166,26,6" style="stroke:#000000;stroke-width:1.5;"/><line style="stroke:#000000;stroke-width:1.5;" x1="26" x2="116" y1="28.2969" y2="28.2969"/><text fill="#000000" font-family="sans-serif" font-size="14" font-weight="bold" lengthAdjust="spacingAndGlyphs" textLength="77" x="30" y="20.9951">controller</text><!--MD5=[5769e48904d69bc070cb4379f56b1418]
cluster fines--><polygon fill="#FFFFFF" filter="url(#f801kqz3asu1b)" points="55,197,100,197,107,219.2969,223,219.2969,223,318,55,318,55,197" style="stroke:#000000;stroke-width:1.5;"/><line style="stroke:#000000;stroke-width:1.5;" x1="55" x2="107" y1="219.2969" y2="219.2969"/><text fill="#000000" font-family="sans-serif" font-size="14" font-weight="bold" lengthAdjust="spacingAndGlyphs" textLength="39" x="59" y="211.9951">fines</text><!--MD5=[5622bc4ba3bf2be5d17935065b98c5f9]
cluster dao--><polygon fill="#FFFFFF" filter="url(#f801kqz3asu1b)" points="16,349,51,349,58,371.2969,598,371.2969,598,680,16,680,16,349" style="stroke:#000000;stroke-width:1.5;"/><line style="stroke:#000000;stroke-width:1.5;" x1="16" x2="58" y1="371.2969" y2="371.2969"/><text fill="#000000" font-family="sans-serif" font-size="14" font-weight="bold" lengthAdjust="spacingAndGlyphs" textLength="29" x="20" y="363.9951">dao</text><!--MD5=[bab4019c732006648757f54388533847]
cluster postgres--><polygon fill="#FFFFFF" filter="url(#f801kqz3asu1b)" points="24,563,101,563,108,585.2969,590,585.2969,590,672,24,672,24,563" style="stroke:#000000;stroke-width:1.5;"/><line style="stroke:#000000;stroke-width:1.5;" x1="24" x2="108" y1="585.2969" y2="585.2969"/><text fill="#000000" font-family="sans-serif" font-size="14" font-weight="bold" lengthAdjust="spacingAndGlyphs" textLength="71" x="28" y="577.9951">postgres</text><!--MD5=[5ef584329379a755af0b1f9baaa8060a]
class FinesFormController--><rect codeLine="3" fill="#FEFECE" filter="url(#f801kqz3asu1b)" height="124.8281" id="FinesFormController" style="stroke:#A80036;stroke-width:1.5;" width="171" x="34.5" y="33"/><ellipse cx="55.8" cy="49" fill="#ADD1B2" rx="11" ry="11" style="stroke:#A80036;stroke-width:1.0;"/><path d="M58.7688,54.6406 Q58.1906,54.9375 57.55,55.0781 Q56.9094,55.2344 56.2063,55.2344 Q53.7063,55.2344 52.3781,53.5938 Q51.0656,51.9375 51.0656,48.8125 Q51.0656,45.6875 52.3781,44.0313 Q53.7063,42.375 56.2063,42.375 Q56.9094,42.375 57.55,42.5313 Q58.2063,42.6875 58.7688,42.9844 L58.7688,45.7031 Q58.1438,45.125 57.55,44.8594 Q56.9563,44.5781 56.3313,44.5781 Q54.9875,44.5781 54.3,45.6563 Q53.6125,46.7188 53.6125,48.8125 Q53.6125,50.9063 54.3,51.9844 Q54.9875,53.0469 56.3313,53.0469 Q56.9563,53.0469 57.55,52.7813 Q58.1438,52.5 58.7688,51.9219 L58.7688,54.6406 Z " fill="#000000"/><text fill="#000000" font-family="sans-serif" font-size="12" lengthAdjust="spacingAndGlyphs" textLength="125" x="71.2" y="53.1543">FinesFormController</text><line style="stroke:#A80036;stroke-width:1.5;" x1="35.5" x2="204.5" y1="65" y2="65"/><rect fill="none" height="6" style="stroke:#C82930;stroke-width:1.0;" width="6" x="42.5" y="73"/><text fill="#000000" font-family="sans-serif" font-size="11" lengthAdjust="spacingAndGlyphs" textLength="145" x="54.5" y="79.2104">returnIdField: IntegerField</text><rect fill="none" height="6" style="stroke:#C82930;stroke-width:1.0;" width="6" x="42.5" y="85.8047"/><text fill="#000000" font-family="sans-serif" font-size="11" lengthAdjust="spacingAndGlyphs" textLength="134" x="54.5" y="92.0151">loanIdField: IntegerField</text><rect fill="none" height="6" style="stroke:#C82930;stroke-width:1.0;" width="6" x="42.5" y="98.6094"/><text fill="#000000" font-family="sans-serif" font-size="11" lengthAdjust="spacingAndGlyphs" textLength="143" x="54.5" y="104.8198">fineTypeField: ComboBox</text><line style="stroke:#A80036;stroke-width:1.5;" x1="35.5" x2="204.5" y1="111.4141" y2="111.4141"/><ellipse cx="45.5" cy="122.4141" fill="#84BE84" rx="3" ry="3" style="stroke:#038048;stroke-width:1.0;"/><text fill="#000000" font-family="sans-serif" font-size="11" lengthAdjust="spacingAndGlyphs" textLength="142" x="54.5" y="125.6245">getFineFromFields(): Fine</text><ellipse cx="45.5" cy="135.2188" fill="#84BE84" rx="3" ry="3" style="stroke:#038048;stroke-width:1.0;"/><text fill="#000000" font-family="sans-serif" font-size="11" lengthAdjust="spacingAndGlyphs" textLength="75" x="54.5" y="138.4292">create(): void</text><ellipse cx="45.5" cy="148.0234" fill="#84BE84" rx="3" ry="3" style="stroke:#038048;stroke-width:1.0;"/><text fill="#000000" font-family="sans-serif" font-size="11" lengthAdjust="spacingAndGlyphs" textLength="78" x="54.5" y="151.2339">update(): void</text><!--MD5=[839cf0a5e421f6e7e1813b62ef4dbe33]
class FineController--><rect codeLine="15" fill="#FEFECE" filter="url(#f801kqz3asu1b)" height="60.8047" id="FineController" style="stroke:#A80036;stroke-width:1.5;" width="119" x="240.5" y="65"/><ellipse cx="255.5" cy="81" fill="#ADD1B2" rx="11" ry="11" style="stroke:#A80036;stroke-width:1.0;"/><path d="M258.4688,86.6406 Q257.8906,86.9375 257.25,87.0781 Q256.6094,87.2344 255.9063,87.2344 Q253.4063,87.2344 252.0781,85.5938 Q250.7656,83.9375 250.7656,80.8125 Q250.7656,77.6875 252.0781,76.0313 Q253.4063,74.375 255.9063,74.375 Q256.6094,74.375 257.25,74.5313 Q257.9063,74.6875 258.4688,74.9844 L258.4688,77.7031 Q257.8438,77.125 257.25,76.8594 Q256.6563,76.5781 256.0313,76.5781 Q254.6875,76.5781 254,77.6563 Q253.3125,78.7188 253.3125,80.8125 Q253.3125,82.9063 254,83.9844 Q254.6875,85.0469 256.0313,85.0469 Q256.6563,85.0469 257.25,84.7813 Q257.8438,84.5 258.4688,83.9219 L258.4688,86.6406 Z " fill="#000000"/><text fill="#000000" font-family="sans-serif" font-size="12" lengthAdjust="spacingAndGlyphs" textLength="87" x="269.5" y="85.1543">FineController</text><line style="stroke:#A80036;stroke-width:1.5;" x1="241.5" x2="358.5" y1="97" y2="97"/><line style="stroke:#A80036;stroke-width:1.5;" x1="241.5" x2="358.5" y1="105" y2="105"/><ellipse cx="251.5" cy="116" fill="#84BE84" rx="3" ry="3" style="stroke:#038048;stroke-width:1.0;"/><text fill="#000000" font-family="sans-serif" font-size="11" lengthAdjust="spacingAndGlyphs" textLength="74" x="260.5" y="119.2104">delete(): void</text><!--MD5=[36a795d73a97d1624fac74790d5bf940]
class FinesFacade--><rect codeLine="23" fill="#FEFECE" filter="url(#f801kqz3asu1b)" height="86.4141" id="FinesFacade" style="stroke:#A80036;stroke-width:1.5;" width="152" x="63" y="224"/><ellipse cx="96.45" cy="240" fill="#ADD1B2" rx="11" ry="11" style="stroke:#A80036;stroke-width:1.0;"/><path d="M99.4188,245.6406 Q98.8406,245.9375 98.2,246.0781 Q97.5594,246.2344 96.8563,246.2344 Q94.3563,246.2344 93.0281,244.5938 Q91.7156,242.9375 91.7156,239.8125 Q91.7156,236.6875 93.0281,235.0313 Q94.3563,233.375 96.8563,233.375 Q97.5594,233.375 98.2,233.5313 Q98.8563,233.6875 99.4188,233.9844 L99.4188,236.7031 Q98.7938,236.125 98.2,235.8594 Q97.6063,235.5781 96.9813,235.5781 Q95.6375,235.5781 94.95,236.6563 Q94.2625,237.7188 94.2625,239.8125 Q94.2625,241.9063 94.95,242.9844 Q95.6375,244.0469 96.9813,244.0469 Q97.6063,244.0469 98.2,243.7813 Q98.7938,243.5 99.4188,242.9219 L99.4188,245.6406 Z " fill="#000000"/><text fill="#000000" font-family="sans-serif" font-size="12" lengthAdjust="spacingAndGlyphs" textLength="79" x="114.55" y="244.1543">FinesFacade</text><line style="stroke:#A80036;stroke-width:1.5;" x1="64" x2="214" y1="256" y2="256"/><line style="stroke:#A80036;stroke-width:1.5;" x1="64" x2="214" y1="264" y2="264"/><ellipse cx="74" cy="275" fill="#84BE84" rx="3" ry="3" style="stroke:#038048;stroke-width:1.0;"/><text fill="#000000" font-family="sans-serif" font-size="11" lengthAdjust="spacingAndGlyphs" textLength="123" x="83" y="278.2104">create(Fine fine): Fine</text><ellipse cx="74" cy="287.8047" fill="#84BE84" rx="3" ry="3" style="stroke:#038048;stroke-width:1.0;"/><text fill="#000000" font-family="sans-serif" font-size="11" lengthAdjust="spacingAndGlyphs" textLength="126" x="83" y="291.0151">update(Fine fine): void</text><ellipse cx="74" cy="300.6094" fill="#84BE84" rx="3" ry="3" style="stroke:#038048;stroke-width:1.0;"/><text fill="#000000" font-family="sans-serif" font-size="11" lengthAdjust="spacingAndGlyphs" textLength="124" x="83" y="303.8198">delete(int fineID): void</text><!--MD5=[4a0300a6597e068a69ac5dc42e345e2c]
class DAOFactory--><rect codeLine="33" fill="#FEFECE" filter="url(#f801kqz3asu1b)" height="60.8047" id="DAOFactory" style="stroke:#A80036;stroke-width:1.5;" width="154" x="62" y="388.5"/><ellipse cx="99.5" cy="404.5" fill="#A9DCDF" rx="11" ry="11" style="stroke:#A80036;stroke-width:1.0;"/><path d="M99.6094,399.8438 L98.4531,404.9219 L100.7813,404.9219 L99.6094,399.8438 Z M98.125,397.6094 L101.1094,397.6094 L104.4688,410 L102.0156,410 L101.25,406.9375 L97.9688,406.9375 L97.2188,410 L94.7813,410 L98.125,397.6094 Z " fill="#000000"/><text fill="#000000" font-family="sans-serif" font-size="12" font-style="italic" lengthAdjust="spacingAndGlyphs" textLength="72" x="118.5" y="408.6543">DAOFactory</text><line style="stroke:#A80036;stroke-width:1.5;" x1="63" x2="215" y1="420.5" y2="420.5"/><line style="stroke:#A80036;stroke-width:1.5;" x1="63" x2="215" y1="428.5" y2="428.5"/><ellipse cx="73" cy="439.5" fill="#84BE84" rx="3" ry="3" style="stroke:#038048;stroke-width:1.0;"/><text fill="#000000" font-family="sans-serif" font-size="11" lengthAdjust="spacingAndGlyphs" textLength="128" x="82" y="442.7104">getFineDAO(): FineDAO</text><!--MD5=[7e7825d55ec270345382f5047e9681eb]
class FineDAO--><rect codeLine="37" fill="#FEFECE" filter="url(#f801kqz3asu1b)" height="86.4141" id="FineDAO" style="stroke:#A80036;stroke-width:1.5;" width="152" x="343" y="376"/><ellipse cx="388.75" cy="392" fill="#B4A7E5" rx="11" ry="11" style="stroke:#A80036;stroke-width:1.0;"/><path d="M384.6719,387.7656 L384.6719,385.6094 L392.0625,385.6094 L392.0625,387.7656 L389.5938,387.7656 L389.5938,395.8438 L392.0625,395.8438 L392.0625,398 L384.6719,398 L384.6719,395.8438 L387.1406,395.8438 L387.1406,387.7656 L384.6719,387.7656 Z " fill="#000000"/><text fill="#000000" font-family="sans-serif" font-size="12" font-style="italic" lengthAdjust="spacingAndGlyphs" textLength="52" x="409.25" y="396.1543">FineDAO</text><line style="stroke:#A80036;stroke-width:1.5;" x1="344" x2="494" y1="408" y2="408"/><line style="stroke:#A80036;stroke-width:1.5;" x1="344" x2="494" y1="416" y2="416"/><ellipse cx="354" cy="427" fill="#84BE84" rx="3" ry="3" style="stroke:#038048;stroke-width:1.0;"/><text fill="#000000" font-family="sans-serif" font-size="11" lengthAdjust="spacingAndGlyphs" textLength="123" x="363" y="430.2104">create(Fine fine): Fine</text><ellipse cx="354" cy="439.8047" fill="#84BE84" rx="3" ry="3" style="stroke:#038048;stroke-width:1.0;"/><text fill="#000000" font-family="sans-serif" font-size="11" lengthAdjust="spacingAndGlyphs" textLength="126" x="363" y="443.0151">update(Fine fine): void</text><ellipse cx="354" cy="452.6094" fill="#84BE84" rx="3" ry="3" style="stroke:#038048;stroke-width:1.0;"/><text fill="#000000" font-family="sans-serif" font-size="11" lengthAdjust="spacingAndGlyphs" textLength="123" x="363" y="455.8198">delete(int fineId): void</text><!--MD5=[e38b381baf6a6d2200959efd38783c79]
class PostgresFineDAO--><rect codeLine="45" fill="#FEFECE" filter="url(#f801kqz3asu1b)" height="73.6094" id="PostgresFineDAO" style="stroke:#A80036;stroke-width:1.5;" width="305" x="276.5" y="590"/><ellipse cx="370.75" cy="606" fill="#ADD1B2" rx="11" ry="11" style="stroke:#A80036;stroke-width:1.0;"/><path d="M373.7188,611.6406 Q373.1406,611.9375 372.5,612.0781 Q371.8594,612.2344 371.1563,612.2344 Q368.6563,612.2344 367.3281,610.5938 Q366.0156,608.9375 366.0156,605.8125 Q366.0156,602.6875 367.3281,601.0313 Q368.6563,599.375 371.1563,599.375 Q371.8594,599.375 372.5,599.5313 Q373.1563,599.6875 373.7188,599.9844 L373.7188,602.7031 Q373.0938,602.125 372.5,601.8594 Q371.9063,601.5781 371.2813,601.5781 Q369.9375,601.5781 369.25,602.6563 Q368.5625,603.7188 368.5625,605.8125 Q368.5625,607.9063 369.25,608.9844 Q369.9375,610.0469 371.2813,610.0469 Q371.9063,610.0469 372.5,609.7813 Q373.0938,609.5 373.7188,608.9219 L373.7188,611.6406 Z " fill="#000000"/><text fill="#000000" font-family="sans-serif" font-size="12" lengthAdjust="spacingAndGlyphs" textLength="108" x="391.25" y="610.1543">PostgresFineDAO</text><line style="stroke:#A80036;stroke-width:1.5;" x1="277.5" x2="580.5" y1="622" y2="622"/><rect fill="none" height="6" style="stroke:#C82930;stroke-width:1.0;" width="6" x="284.5" y="630"/><text fill="#000000" font-family="sans-serif" font-size="11" lengthAdjust="spacingAndGlyphs" textLength="132" x="296.5" y="636.2104">connection: Connection</text><line style="stroke:#A80036;stroke-width:1.5;" x1="277.5" x2="580.5" y1="642.8047" y2="642.8047"/><ellipse cx="287.5" cy="653.8047" fill="#84BE84" rx="3" ry="3" style="stroke:#038048;stroke-width:1.0;"/><text fill="#000000" font-family="sans-serif" font-size="11" lengthAdjust="spacingAndGlyphs" textLength="279" x="296.5" y="657.0151">PostgresLibraryItemDAO(Connection: connection)</text><!--MD5=[700a5a1f58ccb71a3c0d036256714175]
class PostgresDAOFactory--><rect codeLine="50" fill="#FEFECE" filter="url(#f801kqz3asu1b)" height="60.8047" id="PostgresDAOFactory" style="stroke:#A80036;stroke-width:1.5;" width="160" x="32" y="596.5"/><ellipse cx="47" cy="612.5" fill="#ADD1B2" rx="11" ry="11" style="stroke:#A80036;stroke-width:1.0;"/><path d="M49.9688,618.1406 Q49.3906,618.4375 48.75,618.5781 Q48.1094,618.7344 47.4063,618.7344 Q44.9063,618.7344 43.5781,617.0938 Q42.2656,615.4375 42.2656,612.3125 Q42.2656,609.1875 43.5781,607.5313 Q44.9063,605.875 47.4063,605.875 Q48.1094,605.875 48.75,606.0313 Q49.4063,606.1875 49.9688,606.4844 L49.9688,609.2031 Q49.3438,608.625 48.75,608.3594 Q48.1563,608.0781 47.5313,608.0781 Q46.1875,608.0781 45.5,609.1563 Q44.8125,610.2188 44.8125,612.3125 Q44.8125,614.4063 45.5,615.4844 Q46.1875,616.5469 47.5313,616.5469 Q48.1563,616.5469 48.75,616.2813 Q49.3438,616 49.9688,615.4219 L49.9688,618.1406 Z " fill="#000000"/><text fill="#000000" font-family="sans-serif" font-size="12" lengthAdjust="spacingAndGlyphs" textLength="128" x="61" y="616.6543">PostgresDAOFactory</text><line style="stroke:#A80036;stroke-width:1.5;" x1="33" x2="191" y1="628.5" y2="628.5"/><rect fill="none" height="6" style="stroke:#C82930;stroke-width:1.0;" width="6" x="40" y="636.5"/><text fill="#000000" font-family="sans-serif" font-size="11" lengthAdjust="spacingAndGlyphs" textLength="132" x="52" y="642.7104">connection: Connection</text><line style="stroke:#A80036;stroke-width:1.5;" x1="33" x2="191" y1="649.3047" y2="649.3047"/><!--MD5=[c2f93a3a26a3ff623238d47994079d3c]
reverse link FineDAO to PostgresFineDAO--><path d="M422.045,482.337 C423.7363,517.5157 425.7818,560.0619 427.2152,589.8756 " fill="none" id="FineDAO-backto-PostgresFineDAO" style="stroke:#A80036;stroke-width:1.0;stroke-dasharray:7.0,7.0;"/><polygon fill="none" points="415.0406,482.4108,421.072,462.0977,429.0245,481.7385,415.0406,482.4108" style="stroke:#A80036;stroke-width:1.0;"/><!--MD5=[d37a47b44041b5251d0f0ec75d3c62d9]
reverse link DAOFactory to PostgresDAOFactory--><path d="M132.4164,469.7181 C127.2839,509.2573 120.3241,562.8737 116.0003,596.183 " fill="none" id="DAOFactory-backto-PostgresDAOFactory" style="stroke:#A80036;stroke-width:1.0;"/><polygon fill="none" points="125.4997,468.6236,135.0161,449.6911,139.3832,470.4258,125.4997,468.6236" style="stroke:#A80036;stroke-width:1.0;"/><!--MD5=[0aab2dcbf8c1f7a695b119dc9782fb0b]
link PostgresDAOFactory to PostgresFineDAO--><path codeLine="58" d="M192.4023,627 C216.5774,627 243.984,627 271.3566,627 " fill="none" id="PostgresDAOFactory-to-PostgresFineDAO" style="stroke:#A80036;stroke-width:1.0;stroke-dasharray:7.0,7.0;"/><polygon fill="#A80036" points="276.4664,627,267.4664,623,271.4664,627,267.4664,631,276.4664,627" style="stroke:#A80036;stroke-width:1.0;"/><text fill="#000000" font-family="sans-serif" font-size="13" lengthAdjust="spacingAndGlyphs" textLength="48" x="210.25" y="620.0669">creates</text><!--MD5=[8f460046a3e4e90aed112fa9f5144f24]
link DAOFactory to FineDAO--><path codeLine="59" d="M216.2524,419 C254.052,419 299.5462,419 337.8534,419 " fill="none" id="DAOFactory-to-FineDAO" style="stroke:#A80036;stroke-width:1.0;stroke-dasharray:7.0,7.0;"/><polygon fill="#A80036" points="342.9683,419,333.9683,415,337.9683,419,333.9683,423,342.9683,419" style="stroke:#A80036;stroke-width:1.0;"/><text fill="#000000" font-family="sans-serif" font-size="13" lengthAdjust="spacingAndGlyphs" textLength="54" x="252.5" y="412.0669">provides</text><!--MD5=[3b1b52752fe7cbbf3f6d1a750de74e36]
link FineController to FinesFacade--><path codeLine="63" d="M271.2164,126.1608 C246.8061,152.1631 211.3935,189.8852 183.36,219.747 " fill="none" id="FineController-to-FinesFacade" style="stroke:#A80036;stroke-width:1.0;"/><polygon fill="#A80036" points="179.6303,223.7198,188.7065,219.8959,183.0525,220.0745,182.874,214.4204,179.6303,223.7198" style="stroke:#A80036;stroke-width:1.0;"/><!--MD5=[d9b9ea33eb1bc20349f798007fc6a963]
link FinesFormController to FinesFacade--><path codeLine="64" d="M126.967,158.3864 C129.1742,178.3096 131.5783,200.0091 133.6532,218.738 " fill="none" id="FinesFormController-to-FinesFacade" style="stroke:#A80036;stroke-width:1.0;"/><polygon fill="#A80036" points="134.2293,223.9378,137.2137,214.552,133.6786,218.9682,129.2624,215.4331,134.2293,223.9378" style="stroke:#A80036;stroke-width:1.0;"/><!--MD5=[00bfcb073c388e18a77bbe4dbd01893c]
link FinesFacade to DAOFactory--><path codeLine="65" d="M139,310.1505 C139,333.227 139,361.3069 139,383.1661 " fill="none" id="FinesFacade-to-DAOFactory" style="stroke:#A80036;stroke-width:1.0;"/><polygon fill="#A80036" points="139,388.2977,143,379.2977,139,383.2977,135,379.2977,139,388.2977" style="stroke:#A80036;stroke-width:1.0;"/><!--MD5=[a8f9d64d5ae0aba4a26ef28996b24ee4]
@startuml
package controller {

  class FinesFormController {
    
    -returnIdField: IntegerField
    -loanIdField: IntegerField
    -fineTypeField: ComboBox
   
    +getFineFromFields(): Fine
    +create(): void
    +update(): void
    
  }
  
  class FineController {
    +delete(): void
  }

}

package fines {

  class FinesFacade {
    +create(Fine fine): Fine
    +update(Fine fine): void
    +delete(int fineID): void
  }

}

package dao {

  abstract class DAOFactory {
    +getFineDAO(): FineDAO
  }

  interface FineDAO {
    +create(Fine fine): Fine
    +update(Fine fine): void
    +delete(int fineId): void
  }

  package postgres {

    class PostgresFineDAO implements FineDAO {
      -connection: Connection
      +PostgresLibraryItemDAO(Connection: connection)
    }

    class PostgresDAOFactory extends DAOFactory {
      -connection: Connection
    }

  }

}

PostgresDAOFactory .> PostgresFineDAO : "creates"
DAOFactory .> FineDAO : "provides"

' Inter-packages relations

FineController -down-> FinesFacade
FinesFormController -down-> FinesFacade
FinesFacade -down-> DAOFactory
@enduml

@startuml
package controller {

  class FinesFormController {
    
    -returnIdField: IntegerField
    -loanIdField: IntegerField
    -fineTypeField: ComboBox
   
    +getFineFromFields(): Fine
    +create(): void
    +update(): void
    
  }
  
  class FineController {
    +delete(): void
  }

}

package fines {

  class FinesFacade {
    +create(Fine fine): Fine
    +update(Fine fine): void
    +delete(int fineID): void
  }

}

package dao {

  abstract class DAOFactory {
    +getFineDAO(): FineDAO
  }

  interface FineDAO {
    +create(Fine fine): Fine
    +update(Fine fine): void
    +delete(int fineId): void
  }

  package postgres {

    class PostgresFineDAO implements FineDAO {
      -connection: Connection
      +PostgresLibraryItemDAO(Connection: connection)
    }

    class PostgresDAOFactory extends DAOFactory {
      -connection: Connection
    }

  }

}

PostgresDAOFactory .> PostgresFineDAO : "creates"
DAOFactory .> FineDAO : "provides"


FineController -down-> FinesFacade
FinesFormController -down-> FinesFacade
FinesFacade -down-> DAOFactory
@enduml

PlantUML version 1.2020.22(Sun Dec 06 09:36:27 UTC 2020)
(GPL source distribution)
Java Runtime: OpenJDK Runtime Environment
JVM: OpenJDK 64-Bit Server VM
Default Encoding: UTF-8
Language: en
Country: US
--></g></svg>