<?xml version="1.0" encoding="UTF-8" standalone="no"?><svg xmlns="http://www.w3.org/2000/svg" xmlns:xlink="http://www.w3.org/1999/xlink" contentScriptType="application/ecmascript" contentStyleType="text/css" height="611px" preserveAspectRatio="none" style="width:941px;height:611px;" version="1.1" viewBox="0 0 941 611" width="941px" zoomAndPan="magnify"><defs><filter height="300%" id="f1oe9fdnnnvxl" width="300%" x="-1" y="-1"><feGaussianBlur result="blurOut" stdDeviation="2.0"/><feColorMatrix in="blurOut" result="blurOut2" type="matrix" values="0 0 0 0 0 0 0 0 0 0 0 0 0 0 0 0 0 0 .4 0"/><feOffset dx="4.0" dy="4.0" in="blurOut2" result="blurOut3"/><feBlend in="SourceGraphic" in2="blurOut3" mode="normal"/></filter></defs><g><!--MD5=[10ea673caf457862023e152271927b45]
cluster controller--><polygon fill="#FFFFFF" filter="url(#f1oe9fdnnnvxl)" points="375,6,458,6,465,28.2969,559,28.2969,559,127,375,127,375,6" style="stroke:#000000;stroke-width:1.5;"/><line style="stroke:#000000;stroke-width:1.5;" x1="375" x2="465" y1="28.2969" y2="28.2969"/><text fill="#000000" font-family="sans-serif" font-size="14" font-weight="bold" lengthAdjust="spacingAndGlyphs" textLength="77" x="379" y="20.9951">controller</text><!--MD5=[8373709d462b77870c485635ad88dbe5]
cluster return--><polygon fill="#FFFFFF" filter="url(#f1oe9fdnnnvxl)" points="213,158,269,158,276,180.2969,704,180.2969,704,254,213,254,213,158" style="stroke:#000000;stroke-width:1.5;"/><line style="stroke:#000000;stroke-width:1.5;" x1="213" x2="276" y1="180.2969" y2="180.2969"/><text fill="#000000" font-family="sans-serif" font-size="14" font-weight="bold" lengthAdjust="spacingAndGlyphs" textLength="50" x="217" y="172.9951">return</text><!--MD5=[5622bc4ba3bf2be5d17935065b98c5f9]
cluster dao--><polygon fill="#FFFFFF" filter="url(#f1oe9fdnnnvxl)" points="16,285,51,285,58,307.2969,924,307.2969,924,604,16,604,16,285" style="stroke:#000000;stroke-width:1.5;"/><line style="stroke:#000000;stroke-width:1.5;" x1="16" x2="58" y1="307.2969" y2="307.2969"/><text fill="#000000" font-family="sans-serif" font-size="14" font-weight="bold" lengthAdjust="spacingAndGlyphs" textLength="29" x="20" y="299.9951">dao</text><!--MD5=[bab4019c732006648757f54388533847]
cluster postgres--><polygon fill="#FFFFFF" filter="url(#f1oe9fdnnnvxl)" points="24,487,101,487,108,509.2969,916,509.2969,916,596,24,596,24,487" style="stroke:#000000;stroke-width:1.5;"/><line style="stroke:#000000;stroke-width:1.5;" x1="24" x2="108" y1="509.2969" y2="509.2969"/><text fill="#000000" font-family="sans-serif" font-size="14" font-weight="bold" lengthAdjust="spacingAndGlyphs" textLength="71" x="28" y="501.9951">postgres</text><!--MD5=[e0c41379dfbe28a22941ded8b1ff7c9a]
class ReturnController--><rect fill="#FEFECE" filter="url(#f1oe9fdnnnvxl)" height="86.4141" id="ReturnController" style="stroke:#A80036;stroke-width:1.5;" width="168" x="383" y="33"/><ellipse cx="412.85" cy="49" fill="#ADD1B2" rx="11" ry="11" style="stroke:#A80036;stroke-width:1.0;"/><path d="M415.8188,54.6406 Q415.2406,54.9375 414.6,55.0781 Q413.9594,55.2344 413.2563,55.2344 Q410.7563,55.2344 409.4281,53.5938 Q408.1156,51.9375 408.1156,48.8125 Q408.1156,45.6875 409.4281,44.0313 Q410.7563,42.375 413.2563,42.375 Q413.9594,42.375 414.6,42.5313 Q415.2563,42.6875 415.8188,42.9844 L415.8188,45.7031 Q415.1938,45.125 414.6,44.8594 Q414.0063,44.5781 413.3813,44.5781 Q412.0375,44.5781 411.35,45.6563 Q410.6625,46.7188 410.6625,48.8125 Q410.6625,50.9063 411.35,51.9844 Q412.0375,53.0469 413.3813,53.0469 Q414.0063,53.0469 414.6,52.7813 Q415.1938,52.5 415.8188,51.9219 L415.8188,54.6406 Z " fill="#000000"/><text fill="#000000" font-family="sans-serif" font-size="12" lengthAdjust="spacingAndGlyphs" textLength="103" x="430.15" y="53.1543">ReturnController</text><line style="stroke:#A80036;stroke-width:1.5;" x1="384" x2="550" y1="65" y2="65"/><rect fill="none" height="6" style="stroke:#C82930;stroke-width:1.0;" width="6" x="391" y="73"/><text fill="#000000" font-family="sans-serif" font-size="11" lengthAdjust="spacingAndGlyphs" textLength="119" x="403" y="79.2104">itemIdField: TextField</text><rect fill="none" height="6" style="stroke:#C82930;stroke-width:1.0;" width="6" x="391" y="85.8047"/><text fill="#000000" font-family="sans-serif" font-size="11" lengthAdjust="spacingAndGlyphs" textLength="142" x="403" y="92.0151">returnButtonItem: Button</text><line style="stroke:#A80036;stroke-width:1.5;" x1="384" x2="550" y1="98.6094" y2="98.6094"/><ellipse cx="394" cy="109.6094" fill="#84BE84" rx="3" ry="3" style="stroke:#038048;stroke-width:1.0;"/><text fill="#000000" font-family="sans-serif" font-size="11" lengthAdjust="spacingAndGlyphs" textLength="99" x="403" y="112.8198">returnItem(): void</text><!--MD5=[8b13c104948af77cfe328a4edf6d72d2]
class ReturnFacade--><rect fill="#FEFECE" filter="url(#f1oe9fdnnnvxl)" height="60.8047" id="ReturnFacade" style="stroke:#A80036;stroke-width:1.5;" width="185" x="220.5" y="185"/><ellipse cx="264.75" cy="201" fill="#ADD1B2" rx="11" ry="11" style="stroke:#A80036;stroke-width:1.0;"/><path d="M267.7188,206.6406 Q267.1406,206.9375 266.5,207.0781 Q265.8594,207.2344 265.1563,207.2344 Q262.6563,207.2344 261.3281,205.5938 Q260.0156,203.9375 260.0156,200.8125 Q260.0156,197.6875 261.3281,196.0313 Q262.6563,194.375 265.1563,194.375 Q265.8594,194.375 266.5,194.5313 Q267.1563,194.6875 267.7188,194.9844 L267.7188,197.7031 Q267.0938,197.125 266.5,196.8594 Q265.9063,196.5781 265.2813,196.5781 Q263.9375,196.5781 263.25,197.6563 Q262.5625,198.7188 262.5625,200.8125 Q262.5625,202.9063 263.25,203.9844 Q263.9375,205.0469 265.2813,205.0469 Q265.9063,205.0469 266.5,204.7813 Q267.0938,204.5 267.7188,203.9219 L267.7188,206.6406 Z " fill="#000000"/><text fill="#000000" font-family="sans-serif" font-size="12" lengthAdjust="spacingAndGlyphs" textLength="88" x="285.25" y="205.1543">ReturnFacade</text><line style="stroke:#A80036;stroke-width:1.5;" x1="221.5" x2="404.5" y1="217" y2="217"/><line style="stroke:#A80036;stroke-width:1.5;" x1="221.5" x2="404.5" y1="225" y2="225"/><ellipse cx="231.5" cy="236" fill="#84BE84" rx="3" ry="3" style="stroke:#038048;stroke-width:1.0;"/><text fill="#000000" font-family="sans-serif" font-size="11" lengthAdjust="spacingAndGlyphs" textLength="159" x="240.5" y="239.2104">makeReturn(int loanId): void</text><!--MD5=[0f94ab9aef886e7f30dbc211b378b1e8]
class LoanFacade--><rect fill="#FEFECE" filter="url(#f1oe9fdnnnvxl)" height="60.8047" id="LoanFacade" style="stroke:#A80036;stroke-width:1.5;" width="255" x="440.5" y="185"/><ellipse cx="525.75" cy="201" fill="#ADD1B2" rx="11" ry="11" style="stroke:#A80036;stroke-width:1.0;"/><path d="M528.7188,206.6406 Q528.1406,206.9375 527.5,207.0781 Q526.8594,207.2344 526.1563,207.2344 Q523.6563,207.2344 522.3281,205.5938 Q521.0156,203.9375 521.0156,200.8125 Q521.0156,197.6875 522.3281,196.0313 Q523.6563,194.375 526.1563,194.375 Q526.8594,194.375 527.5,194.5313 Q528.1563,194.6875 528.7188,194.9844 L528.7188,197.7031 Q528.0938,197.125 527.5,196.8594 Q526.9063,196.5781 526.2813,196.5781 Q524.9375,196.5781 524.25,197.6563 Q523.5625,198.7188 523.5625,200.8125 Q523.5625,202.9063 524.25,203.9844 Q524.9375,205.0469 526.2813,205.0469 Q526.9063,205.0469 527.5,204.7813 Q528.0938,204.5 528.7188,203.9219 L528.7188,206.6406 Z " fill="#000000"/><text fill="#000000" font-family="sans-serif" font-size="12" lengthAdjust="spacingAndGlyphs" textLength="76" x="546.25" y="205.1543">LoanFacade</text><line style="stroke:#A80036;stroke-width:1.5;" x1="441.5" x2="694.5" y1="217" y2="217"/><line style="stroke:#A80036;stroke-width:1.5;" x1="441.5" x2="694.5" y1="225" y2="225"/><ellipse cx="451.5" cy="236" fill="#84BE84" rx="3" ry="3" style="stroke:#038048;stroke-width:1.0;"/><text fill="#000000" font-family="sans-serif" font-size="11" lengthAdjust="spacingAndGlyphs" textLength="229" x="460.5" y="239.2104">getLatestLoanForItemId(int itemId): Loan</text><!--MD5=[4a0300a6597e068a69ac5dc42e345e2c]
class DAOFactory--><rect fill="#FEFECE" filter="url(#f1oe9fdnnnvxl)" height="73.6094" id="DAOFactory" style="stroke:#A80036;stroke-width:1.5;" width="182" x="376" y="312"/><ellipse cx="426.75" cy="328" fill="#A9DCDF" rx="11" ry="11" style="stroke:#A80036;stroke-width:1.0;"/><path d="M426.8594,323.3438 L425.7031,328.4219 L428.0313,328.4219 L426.8594,323.3438 Z M425.375,321.1094 L428.3594,321.1094 L431.7188,333.5 L429.2656,333.5 L428.5,330.4375 L425.2188,330.4375 L424.4688,333.5 L422.0313,333.5 L425.375,321.1094 Z " fill="#000000"/><text fill="#000000" font-family="sans-serif" font-size="12" font-style="italic" lengthAdjust="spacingAndGlyphs" textLength="72" x="447.25" y="332.1543">DAOFactory</text><line style="stroke:#A80036;stroke-width:1.5;" x1="377" x2="557" y1="344" y2="344"/><line style="stroke:#A80036;stroke-width:1.5;" x1="377" x2="557" y1="352" y2="352"/><ellipse cx="387" cy="363" fill="#84BE84" rx="3" ry="3" style="stroke:#038048;stroke-width:1.0;"/><text fill="#000000" font-family="sans-serif" font-size="11" lengthAdjust="spacingAndGlyphs" textLength="156" x="396" y="366.2104">getReturnDAO(): ReturnDAO</text><ellipse cx="387" cy="375.8047" fill="#84BE84" rx="3" ry="3" style="stroke:#038048;stroke-width:1.0;"/><text fill="#000000" font-family="sans-serif" font-size="11" lengthAdjust="spacingAndGlyphs" textLength="136" x="396" y="379.0151">getLoanDAO(): LoanDAO</text><!--MD5=[949ef9dbfdb866955c3619b3dd7cf9b3]
class ReturnDAO--><rect fill="#FEFECE" filter="url(#f1oe9fdnnnvxl)" height="60.8047" id="ReturnDAO" style="stroke:#A80036;stroke-width:1.5;" width="153" x="122.5" y="318.5"/><ellipse cx="161.35" cy="334.5" fill="#B4A7E5" rx="11" ry="11" style="stroke:#A80036;stroke-width:1.0;"/><path d="M157.2719,330.2656 L157.2719,328.1094 L164.6625,328.1094 L164.6625,330.2656 L162.1938,330.2656 L162.1938,338.3438 L164.6625,338.3438 L164.6625,340.5 L157.2719,340.5 L157.2719,338.3438 L159.7406,338.3438 L159.7406,330.2656 L157.2719,330.2656 Z " fill="#000000"/><text fill="#000000" font-family="sans-serif" font-size="12" font-style="italic" lengthAdjust="spacingAndGlyphs" textLength="68" x="180.65" y="338.6543">ReturnDAO</text><line style="stroke:#A80036;stroke-width:1.5;" x1="123.5" x2="274.5" y1="350.5" y2="350.5"/><line style="stroke:#A80036;stroke-width:1.5;" x1="123.5" x2="274.5" y1="358.5" y2="358.5"/><ellipse cx="133.5" cy="369.5" fill="#84BE84" rx="3" ry="3" style="stroke:#038048;stroke-width:1.0;"/><text fill="#000000" font-family="sans-serif" font-size="11" lengthAdjust="spacingAndGlyphs" textLength="127" x="142.5" y="372.7104">create(int loanId): void</text><!--MD5=[49898ca32f4dc84a3dd1f2529e35941d]
class LoanDAO--><rect fill="#FEFECE" filter="url(#f1oe9fdnnnvxl)" height="60.8047" id="LoanDAO" style="stroke:#A80036;stroke-width:1.5;" width="251" x="648.5" y="318.5"/><ellipse cx="741.75" cy="334.5" fill="#B4A7E5" rx="11" ry="11" style="stroke:#A80036;stroke-width:1.0;"/><path d="M737.6719,330.2656 L737.6719,328.1094 L745.0625,328.1094 L745.0625,330.2656 L742.5938,330.2656 L742.5938,338.3438 L745.0625,338.3438 L745.0625,340.5 L737.6719,340.5 L737.6719,338.3438 L740.1406,338.3438 L740.1406,330.2656 L737.6719,330.2656 Z " fill="#000000"/><text fill="#000000" font-family="sans-serif" font-size="12" font-style="italic" lengthAdjust="spacingAndGlyphs" textLength="56" x="762.25" y="338.6543">LoanDAO</text><line style="stroke:#A80036;stroke-width:1.5;" x1="649.5" x2="898.5" y1="350.5" y2="350.5"/><line style="stroke:#A80036;stroke-width:1.5;" x1="649.5" x2="898.5" y1="358.5" y2="358.5"/><ellipse cx="659.5" cy="369.5" fill="#84BE84" rx="3" ry="3" style="stroke:#038048;stroke-width:1.0;"/><text fill="#000000" font-family="sans-serif" font-size="11" lengthAdjust="spacingAndGlyphs" textLength="225" x="668.5" y="372.7104">getLatestLoanByItemId(int itemId): Loan</text><!--MD5=[74323fa055f2226de6d76ab9e84670cf]
class PostgresReturnDAO--><rect fill="#FEFECE" filter="url(#f1oe9fdnnnvxl)" height="73.6094" id="PostgresReturnDAO" style="stroke:#A80036;stroke-width:1.5;" width="278" x="32" y="514"/><ellipse cx="104.75" cy="530" fill="#ADD1B2" rx="11" ry="11" style="stroke:#A80036;stroke-width:1.0;"/><path d="M107.7188,535.6406 Q107.1406,535.9375 106.5,536.0781 Q105.8594,536.2344 105.1563,536.2344 Q102.6563,536.2344 101.3281,534.5938 Q100.0156,532.9375 100.0156,529.8125 Q100.0156,526.6875 101.3281,525.0313 Q102.6563,523.375 105.1563,523.375 Q105.8594,523.375 106.5,523.5313 Q107.1563,523.6875 107.7188,523.9844 L107.7188,526.7031 Q107.0938,526.125 106.5,525.8594 Q105.9063,525.5781 105.2813,525.5781 Q103.9375,525.5781 103.25,526.6563 Q102.5625,527.7188 102.5625,529.8125 Q102.5625,531.9063 103.25,532.9844 Q103.9375,534.0469 105.2813,534.0469 Q105.9063,534.0469 106.5,533.7813 Q107.0938,533.5 107.7188,532.9219 L107.7188,535.6406 Z " fill="#000000"/><text fill="#000000" font-family="sans-serif" font-size="12" lengthAdjust="spacingAndGlyphs" textLength="124" x="125.25" y="534.1543">PostgresReturnDAO</text><line style="stroke:#A80036;stroke-width:1.5;" x1="33" x2="309" y1="546" y2="546"/><rect fill="none" height="6" style="stroke:#C82930;stroke-width:1.0;" width="6" x="40" y="554"/><text fill="#000000" font-family="sans-serif" font-size="11" lengthAdjust="spacingAndGlyphs" textLength="132" x="52" y="560.2104">connection: Connection</text><line style="stroke:#A80036;stroke-width:1.5;" x1="33" x2="309" y1="566.8047" y2="566.8047"/><ellipse cx="43" cy="577.8047" fill="#84BE84" rx="3" ry="3" style="stroke:#038048;stroke-width:1.0;"/><text fill="#000000" font-family="sans-serif" font-size="11" lengthAdjust="spacingAndGlyphs" textLength="252" x="52" y="581.0151">PostgresReturnDAO(Connection: connection)</text><!--MD5=[700a5a1f58ccb71a3c0d036256714175]
class PostgresDAOFactory--><rect fill="#FEFECE" filter="url(#f1oe9fdnnnvxl)" height="60.8047" id="PostgresDAOFactory" style="stroke:#A80036;stroke-width:1.5;" width="160" x="395" y="520.5"/><ellipse cx="410" cy="536.5" fill="#ADD1B2" rx="11" ry="11" style="stroke:#A80036;stroke-width:1.0;"/><path d="M412.9688,542.1406 Q412.3906,542.4375 411.75,542.5781 Q411.1094,542.7344 410.4063,542.7344 Q407.9063,542.7344 406.5781,541.0938 Q405.2656,539.4375 405.2656,536.3125 Q405.2656,533.1875 406.5781,531.5313 Q407.9063,529.875 410.4063,529.875 Q411.1094,529.875 411.75,530.0313 Q412.4063,530.1875 412.9688,530.4844 L412.9688,533.2031 Q412.3438,532.625 411.75,532.3594 Q411.1563,532.0781 410.5313,532.0781 Q409.1875,532.0781 408.5,533.1563 Q407.8125,534.2188 407.8125,536.3125 Q407.8125,538.4063 408.5,539.4844 Q409.1875,540.5469 410.5313,540.5469 Q411.1563,540.5469 411.75,540.2813 Q412.3438,540 412.9688,539.4219 L412.9688,542.1406 Z " fill="#000000"/><text fill="#000000" font-family="sans-serif" font-size="12" lengthAdjust="spacingAndGlyphs" textLength="128" x="424" y="540.6543">PostgresDAOFactory</text><line style="stroke:#A80036;stroke-width:1.5;" x1="396" x2="554" y1="552.5" y2="552.5"/><rect fill="none" height="6" style="stroke:#C82930;stroke-width:1.0;" width="6" x="403" y="560.5"/><text fill="#000000" font-family="sans-serif" font-size="11" lengthAdjust="spacingAndGlyphs" textLength="132" x="415" y="566.7104">connection: Connection</text><line style="stroke:#A80036;stroke-width:1.5;" x1="396" x2="554" y1="573.3047" y2="573.3047"/><!--MD5=[d31719c66243472fdbf6452c22c414e1]
class PostgresLoanDAO--><rect fill="#FEFECE" filter="url(#f1oe9fdnnnvxl)" height="73.6094" id="PostgresLoanDAO" style="stroke:#A80036;stroke-width:1.5;" width="268" x="640" y="514"/><ellipse cx="713.75" cy="530" fill="#ADD1B2" rx="11" ry="11" style="stroke:#A80036;stroke-width:1.0;"/><path d="M716.7188,535.6406 Q716.1406,535.9375 715.5,536.0781 Q714.8594,536.2344 714.1563,536.2344 Q711.6563,536.2344 710.3281,534.5938 Q709.0156,532.9375 709.0156,529.8125 Q709.0156,526.6875 710.3281,525.0313 Q711.6563,523.375 714.1563,523.375 Q714.8594,523.375 715.5,523.5313 Q716.1563,523.6875 716.7188,523.9844 L716.7188,526.7031 Q716.0938,526.125 715.5,525.8594 Q714.9063,525.5781 714.2813,525.5781 Q712.9375,525.5781 712.25,526.6563 Q711.5625,527.7188 711.5625,529.8125 Q711.5625,531.9063 712.25,532.9844 Q712.9375,534.0469 714.2813,534.0469 Q714.9063,534.0469 715.5,533.7813 Q716.0938,533.5 716.7188,532.9219 L716.7188,535.6406 Z " fill="#000000"/><text fill="#000000" font-family="sans-serif" font-size="12" lengthAdjust="spacingAndGlyphs" textLength="112" x="734.25" y="534.1543">PostgresLoanDAO</text><line style="stroke:#A80036;stroke-width:1.5;" x1="641" x2="907" y1="546" y2="546"/><rect fill="none" height="6" style="stroke:#C82930;stroke-width:1.0;" width="6" x="648" y="554"/><text fill="#000000" font-family="sans-serif" font-size="11" lengthAdjust="spacingAndGlyphs" textLength="132" x="660" y="560.2104">connection: Connection</text><line style="stroke:#A80036;stroke-width:1.5;" x1="641" x2="907" y1="566.8047" y2="566.8047"/><ellipse cx="651" cy="577.8047" fill="#84BE84" rx="3" ry="3" style="stroke:#038048;stroke-width:1.0;"/><text fill="#000000" font-family="sans-serif" font-size="11" lengthAdjust="spacingAndGlyphs" textLength="242" x="660" y="581.0151">PostgresLoanDAO(Connection: connection)</text><!--MD5=[fb17a82704d4f5770b0726012553cbe9]
reverse link ReturnDAO to PostgresReturnDAO--><path d="M191.9863,399.599 C187.0663,435.0934 180.5984,481.7546 176.1504,513.8435 " fill="none" id="ReturnDAO-backto-PostgresReturnDAO" style="stroke:#A80036;stroke-width:1.0;stroke-dasharray:7.0,7.0;"/><polygon fill="none" points="185.0676,398.5289,194.7474,379.6795,198.935,400.4512,185.0676,398.5289" style="stroke:#A80036;stroke-width:1.0;"/><!--MD5=[d37a47b44041b5251d0f0ec75d3c62d9]
reverse link DAOFactory to PostgresDAOFactory--><path d="M469.2593,406.0467 C470.7308,443.2036 472.5929,490.2205 473.7903,520.4543 " fill="none" id="DAOFactory-backto-PostgresDAOFactory" style="stroke:#A80036;stroke-width:1.0;"/><polygon fill="none" points="462.2644,406.3113,468.4673,386.0499,476.2534,405.7572,462.2644,406.3113" style="stroke:#A80036;stroke-width:1.0;"/><!--MD5=[2c9099205f7e842031a96f7a3674ceb2]
reverse link LoanDAO to PostgresLoanDAO--><path d="M774,400.0996 C774,435.5312 774,481.9052 774,513.8435 " fill="none" id="LoanDAO-backto-PostgresLoanDAO" style="stroke:#A80036;stroke-width:1.0;stroke-dasharray:7.0,7.0;"/><polygon fill="none" points="767.0001,399.6795,774,379.6795,781.0001,399.6794,767.0001,399.6795" style="stroke:#A80036;stroke-width:1.0;"/><!--MD5=[a8e2fd98b883e5ae54ddcad8a93a0084]
reverse link PostgresReturnDAO to PostgresDAOFactory--><path d="M315.2171,551 C342.6489,551 370.4196,551 394.9428,551 " fill="none" id="PostgresReturnDAO-backto-PostgresDAOFactory" style="stroke:#A80036;stroke-width:1.0;stroke-dasharray:7.0,7.0;"/><polygon fill="#A80036" points="310.0997,551,319.0997,555,315.0997,551,319.0997,547,310.0997,551" style="stroke:#A80036;stroke-width:1.0;"/><text fill="#000000" font-family="sans-serif" font-size="13" lengthAdjust="spacingAndGlyphs" textLength="48" x="328.5" y="544.0669">creates</text><!--MD5=[1d6a55d69df5b67390582eefd6d843f4]
reverse link ReturnDAO to DAOFactory--><path d="M280.9684,349 C311.007,349 345.1754,349 375.9607,349 " fill="none" id="ReturnDAO-backto-DAOFactory" style="stroke:#A80036;stroke-width:1.0;stroke-dasharray:7.0,7.0;"/><polygon fill="#A80036" points="275.798,349,284.798,353,280.798,349,284.798,345,275.798,349" style="stroke:#A80036;stroke-width:1.0;"/><text fill="#000000" font-family="sans-serif" font-size="13" lengthAdjust="spacingAndGlyphs" textLength="54" x="298.75" y="342.0669">provides</text><!--MD5=[5c78a14ccb71dd4f2d53ebf6c5a45706]
link PostgresDAOFactory to PostgresLoanDAO--><path d="M555.1265,551 C579.7165,551 607.5239,551 634.8666,551 " fill="none" id="PostgresDAOFactory-to-PostgresLoanDAO" style="stroke:#A80036;stroke-width:1.0;stroke-dasharray:7.0,7.0;"/><polygon fill="#A80036" points="639.9658,551,630.9658,547,634.9658,551,630.9658,555,639.9658,551" style="stroke:#A80036;stroke-width:1.0;"/><text fill="#000000" font-family="sans-serif" font-size="13" lengthAdjust="spacingAndGlyphs" textLength="48" x="573.5" y="544.0669">creates</text><!--MD5=[85e70c4508c45a1e68ffceccd5f7ce76]
link DAOFactory to LoanDAO--><path d="M558.2789,349 C584.9017,349 614.5303,349 643.092,349 " fill="none" id="DAOFactory-to-LoanDAO" style="stroke:#A80036;stroke-width:1.0;stroke-dasharray:7.0,7.0;"/><polygon fill="#A80036" points="648.4117,349,639.4117,345,643.4117,349,639.4117,353,648.4117,349" style="stroke:#A80036;stroke-width:1.0;"/><text fill="#000000" font-family="sans-serif" font-size="13" lengthAdjust="spacingAndGlyphs" textLength="54" x="576.25" y="342.0669">provides</text><!--MD5=[c3e5393f8a869e7d0614acec5b1357f9]
link ReturnFacade to DAOFactory--><path d="M348.3307,246.1276 C369.6526,264.6112 397.0747,288.383 420.1862,308.4179 " fill="none" id="ReturnFacade-to-DAOFactory" style="stroke:#A80036;stroke-width:1.0;"/><polygon fill="#A80036" points="424.152,311.8558,419.9717,302.9381,420.374,308.5806,414.7315,308.9829,424.152,311.8558" style="stroke:#A80036;stroke-width:1.0;"/><!--MD5=[caa04ddd59d0ea036a80a34981a0877c]
link LoanFacade to DAOFactory--><path d="M544.8286,246.1276 C531.018,264.3821 513.3054,287.7944 498.2676,307.6711 " fill="none" id="LoanFacade-to-DAOFactory" style="stroke:#A80036;stroke-width:1.0;"/><polygon fill="#A80036" points="495.1016,311.8558,503.7216,307.0918,498.1183,307.8684,497.3417,302.2651,495.1016,311.8558" style="stroke:#A80036;stroke-width:1.0;"/><!--MD5=[9aa1642c0dde2fa0a9de3ad6ca32640b]
link ReturnController to ReturnFacade--><path d="M419.1176,119.374 C397.0073,139.4025 371.1406,162.8337 350.4808,181.5482 " fill="none" id="ReturnController-to-ReturnFacade" style="stroke:#A80036;stroke-width:1.0;"/><polygon fill="#A80036" points="346.6859,184.9858,356.0415,181.9081,350.3916,181.629,350.6706,175.979,346.6859,184.9858" style="stroke:#A80036;stroke-width:1.0;"/><!--MD5=[d25b026b8c46cbcc4e7225134db948b3]
link ReturnController to LoanFacade--><path d="M498.4034,119.374 C512.7238,139.1532 529.4469,162.2509 542.9108,180.8471 " fill="none" id="ReturnController-to-LoanFacade" style="stroke:#A80036;stroke-width:1.0;"/><polygon fill="#A80036" points="545.9073,184.9858,543.8691,175.3502,542.975,180.9359,537.3892,180.0419,545.9073,184.9858" style="stroke:#A80036;stroke-width:1.0;"/><!--MD5=[a82c9f7d605872970ca2002d15c2a54b]
@startuml
package controller {

  class ReturnController {
    -itemIdField: TextField
    -returnButtonItem: Button
    +returnItem(): void
  }

}

package return {

  class ReturnFacade {
    +makeReturn(int loanId): void
  }

  class LoanFacade {
    +getLatestLoanForItemId(int itemId): Loan
  }
}

package dao {

  abstract class DAOFactory {
    +getReturnDAO(): ReturnDAO
    +getLoanDAO(): LoanDAO
  }

  interface ReturnDAO {
    +create(int loanId): void
  }

  interface LoanDAO {
    +getLatestLoanByItemId(int itemId): Loan
  }

  package postgres {

    class PostgresReturnDAO implements ReturnDAO {
      -connection: Connection
      +PostgresReturnDAO(Connection: connection)
    }

    class PostgresDAOFactory extends DAOFactory {
      -connection: Connection
    }

    class PostgresLoanDAO implements LoanDAO {
      -connection: Connection
      +PostgresLoanDAO(Connection: connection)
    }

  }

}

PostgresDAOFactory .left> PostgresReturnDAO : "creates"
DAOFactory .left> ReturnDAO : "provides"
PostgresDAOFactory .right> PostgresLoanDAO : "creates"
DAOFactory .right> LoanDAO : "provides"

' Inter-packages relations

ReturnFacade -down-> DAOFactory
LoanFacade -down-> DAOFactory
ReturnController - -> ReturnFacade
ReturnController - -> LoanFacade
@enduml

@startuml
package controller {

  class ReturnController {
    -itemIdField: TextField
    -returnButtonItem: Button
    +returnItem(): void
  }

}

package return {

  class ReturnFacade {
    +makeReturn(int loanId): void
  }

  class LoanFacade {
    +getLatestLoanForItemId(int itemId): Loan
  }
}

package dao {

  abstract class DAOFactory {
    +getReturnDAO(): ReturnDAO
    +getLoanDAO(): LoanDAO
  }

  interface ReturnDAO {
    +create(int loanId): void
  }

  interface LoanDAO {
    +getLatestLoanByItemId(int itemId): Loan
  }

  package postgres {

    class PostgresReturnDAO implements ReturnDAO {
      -connection: Connection
      +PostgresReturnDAO(Connection: connection)
    }

    class PostgresDAOFactory extends DAOFactory {
      -connection: Connection
    }

    class PostgresLoanDAO implements LoanDAO {
      -connection: Connection
      +PostgresLoanDAO(Connection: connection)
    }

  }

}

PostgresDAOFactory .left> PostgresReturnDAO : "creates"
DAOFactory .left> ReturnDAO : "provides"
PostgresDAOFactory .right> PostgresLoanDAO : "creates"
DAOFactory .right> LoanDAO : "provides"


ReturnFacade -down-> DAOFactory
LoanFacade -down-> DAOFactory
ReturnController - -> ReturnFacade
ReturnController - -> LoanFacade
@enduml

PlantUML version 1.2020.22(Sun Dec 06 09:36:27 UTC 2020)
(GPL source distribution)
Java Runtime: OpenJDK Runtime Environment
JVM: OpenJDK 64-Bit Server VM
Default Encoding: UTF-8
Language: en
Country: US
--></g></svg>