<?xml version="1.0" encoding="UTF-8" standalone="no"?><svg xmlns="http://www.w3.org/2000/svg" xmlns:xlink="http://www.w3.org/1999/xlink" contentScriptType="application/ecmascript" contentStyleType="text/css" height="613px" preserveAspectRatio="none" style="width:944px;height:613px;" version="1.1" viewBox="0 0 944 613" width="944px" zoomAndPan="magnify"><defs><filter height="300%" id="fxhbsyodvayru" width="300%" x="-1" y="-1"><feGaussianBlur result="blurOut" stdDeviation="2.0"/><feColorMatrix in="blurOut" result="blurOut2" type="matrix" values="0 0 0 0 0 0 0 0 0 0 0 0 0 0 0 0 0 0 .4 0"/><feOffset dx="4.0" dy="4.0" in="blurOut2" result="blurOut3"/><feBlend in="SourceGraphic" in2="blurOut3" mode="normal"/></filter></defs><g><!--MD5=[10ea673caf457862023e152271927b45]
cluster controller--><polygon fill="#FFFFFF" filter="url(#fxhbsyodvayru)" points="373,16,456,16,463,38.2969,557,38.2969,557,137,373,137,373,16" style="stroke: #000000; stroke-width: 1.5;"/><line style="stroke: #000000; stroke-width: 1.5;" x1="373" x2="463" y1="38.2969" y2="38.2969"/><text fill="#000000" font-family="sans-serif" font-size="14" font-weight="bold" lengthAdjust="spacingAndGlyphs" textLength="77" x="377" y="30.9951">controller</text><!--MD5=[8373709d462b77870c485635ad88dbe5]
cluster return--><polygon fill="#FFFFFF" filter="url(#fxhbsyodvayru)" points="211,168,267,168,274,190.2969,702,190.2969,702,264,211,264,211,168" style="stroke: #000000; stroke-width: 1.5;"/><line style="stroke: #000000; stroke-width: 1.5;" x1="211" x2="274" y1="190.2969" y2="190.2969"/><text fill="#000000" font-family="sans-serif" font-size="14" font-weight="bold" lengthAdjust="spacingAndGlyphs" textLength="50" x="215" y="182.9951">return</text><!--MD5=[5622bc4ba3bf2be5d17935065b98c5f9]
cluster dao--><polygon fill="#FFFFFF" filter="url(#fxhbsyodvayru)" points="14,295,49,295,56,317.2969,922,317.2969,922,601,14,601,14,295" style="stroke: #000000; stroke-width: 1.5;"/><line style="stroke: #000000; stroke-width: 1.5;" x1="14" x2="56" y1="317.2969" y2="317.2969"/><text fill="#000000" font-family="sans-serif" font-size="14" font-weight="bold" lengthAdjust="spacingAndGlyphs" textLength="29" x="18" y="309.9951">dao</text><!--MD5=[bab4019c732006648757f54388533847]
cluster postgres--><polygon fill="#FFFFFF" filter="url(#fxhbsyodvayru)" points="22,484,99,484,106,506.2969,914,506.2969,914,593,22,593,22,484" style="stroke: #000000; stroke-width: 1.5;"/><line style="stroke: #000000; stroke-width: 1.5;" x1="22" x2="106" y1="506.2969" y2="506.2969"/><text fill="#000000" font-family="sans-serif" font-size="14" font-weight="bold" lengthAdjust="spacingAndGlyphs" textLength="71" x="26" y="498.9951">postgres</text><!--MD5=[e0c41379dfbe28a22941ded8b1ff7c9a]
class ReturnController--><rect fill="#FEFECE" filter="url(#fxhbsyodvayru)" height="86.4141" id="ReturnController" style="stroke: #A80036; stroke-width: 1.5;" width="168" x="381" y="43"/><ellipse cx="410.85" cy="59" fill="#ADD1B2" rx="11" ry="11" style="stroke: #A80036; stroke-width: 1.0;"/><path d="M413.8188,64.6406 Q413.2406,64.9375 412.6,65.0859 Q411.9594,65.2344 411.2563,65.2344 Q408.7563,65.2344 407.4359,63.5859 Q406.1156,61.9375 406.1156,58.8125 Q406.1156,55.6875 407.4359,54.0313 Q408.7563,52.375 411.2563,52.375 Q411.9594,52.375 412.6078,52.5313 Q413.2563,52.6875 413.8188,52.9844 L413.8188,55.7031 Q413.1938,55.125 412.6,54.8516 Q412.0063,54.5781 411.3813,54.5781 Q410.0375,54.5781 409.35,55.6484 Q408.6625,56.7188 408.6625,58.8125 Q408.6625,60.9063 409.35,61.9766 Q410.0375,63.0469 411.3813,63.0469 Q412.0063,63.0469 412.6,62.7734 Q413.1938,62.5 413.8188,61.9219 L413.8188,64.6406 Z "/><text fill="#000000" font-family="sans-serif" font-size="12" lengthAdjust="spacingAndGlyphs" textLength="103" x="428.15" y="63.1543">ReturnController</text><line style="stroke: #A80036; stroke-width: 1.5;" x1="382" x2="548" y1="75" y2="75"/><rect fill="none" height="6" style="stroke: #C82930; stroke-width: 1.0;" width="6" x="389" y="83"/><text fill="#000000" font-family="sans-serif" font-size="11" lengthAdjust="spacingAndGlyphs" textLength="119" x="401" y="89.2104">itemIdField: TextField</text><rect fill="none" height="6" style="stroke: #C82930; stroke-width: 1.0;" width="6" x="389" y="95.8047"/><text fill="#000000" font-family="sans-serif" font-size="11" lengthAdjust="spacingAndGlyphs" textLength="142" x="401" y="102.0151">returnButtonItem: Button</text><line style="stroke: #A80036; stroke-width: 1.5;" x1="382" x2="548" y1="108.6094" y2="108.6094"/><ellipse cx="392" cy="119.6094" fill="#84BE84" rx="3" ry="3" style="stroke: #038048; stroke-width: 1.0;"/><text fill="#000000" font-family="sans-serif" font-size="11" lengthAdjust="spacingAndGlyphs" textLength="99" x="401" y="122.8198">returnItem(): void</text><!--MD5=[8b13c104948af77cfe328a4edf6d72d2]
class ReturnFacade--><rect fill="#FEFECE" filter="url(#fxhbsyodvayru)" height="60.8047" id="ReturnFacade" style="stroke: #A80036; stroke-width: 1.5;" width="185" x="218.5" y="195"/><ellipse cx="262.75" cy="211" fill="#ADD1B2" rx="11" ry="11" style="stroke: #A80036; stroke-width: 1.0;"/><path d="M265.7188,216.6406 Q265.1406,216.9375 264.5,217.0859 Q263.8594,217.2344 263.1563,217.2344 Q260.6563,217.2344 259.3359,215.5859 Q258.0156,213.9375 258.0156,210.8125 Q258.0156,207.6875 259.3359,206.0313 Q260.6563,204.375 263.1563,204.375 Q263.8594,204.375 264.5078,204.5313 Q265.1563,204.6875 265.7188,204.9844 L265.7188,207.7031 Q265.0938,207.125 264.5,206.8516 Q263.9063,206.5781 263.2813,206.5781 Q261.9375,206.5781 261.25,207.6484 Q260.5625,208.7188 260.5625,210.8125 Q260.5625,212.9063 261.25,213.9766 Q261.9375,215.0469 263.2813,215.0469 Q263.9063,215.0469 264.5,214.7734 Q265.0938,214.5 265.7188,213.9219 L265.7188,216.6406 Z "/><text fill="#000000" font-family="sans-serif" font-size="12" lengthAdjust="spacingAndGlyphs" textLength="88" x="283.25" y="215.1543">ReturnFacade</text><line style="stroke: #A80036; stroke-width: 1.5;" x1="219.5" x2="402.5" y1="227" y2="227"/><line style="stroke: #A80036; stroke-width: 1.5;" x1="219.5" x2="402.5" y1="235" y2="235"/><ellipse cx="229.5" cy="246" fill="#84BE84" rx="3" ry="3" style="stroke: #038048; stroke-width: 1.0;"/><text fill="#000000" font-family="sans-serif" font-size="11" lengthAdjust="spacingAndGlyphs" textLength="159" x="238.5" y="249.2104">makeReturn(int loanId): void</text><!--MD5=[0f94ab9aef886e7f30dbc211b378b1e8]
class LoanFacade--><rect fill="#FEFECE" filter="url(#fxhbsyodvayru)" height="60.8047" id="LoanFacade" style="stroke: #A80036; stroke-width: 1.5;" width="255" x="438.5" y="195"/><ellipse cx="523.75" cy="211" fill="#ADD1B2" rx="11" ry="11" style="stroke: #A80036; stroke-width: 1.0;"/><path d="M526.7188,216.6406 Q526.1406,216.9375 525.5,217.0859 Q524.8594,217.2344 524.1563,217.2344 Q521.6563,217.2344 520.3359,215.5859 Q519.0156,213.9375 519.0156,210.8125 Q519.0156,207.6875 520.3359,206.0313 Q521.6563,204.375 524.1563,204.375 Q524.8594,204.375 525.5078,204.5313 Q526.1563,204.6875 526.7188,204.9844 L526.7188,207.7031 Q526.0938,207.125 525.5,206.8516 Q524.9063,206.5781 524.2813,206.5781 Q522.9375,206.5781 522.25,207.6484 Q521.5625,208.7188 521.5625,210.8125 Q521.5625,212.9063 522.25,213.9766 Q522.9375,215.0469 524.2813,215.0469 Q524.9063,215.0469 525.5,214.7734 Q526.0938,214.5 526.7188,213.9219 L526.7188,216.6406 Z "/><text fill="#000000" font-family="sans-serif" font-size="12" lengthAdjust="spacingAndGlyphs" textLength="76" x="544.25" y="215.1543">LoanFacade</text><line style="stroke: #A80036; stroke-width: 1.5;" x1="439.5" x2="692.5" y1="227" y2="227"/><line style="stroke: #A80036; stroke-width: 1.5;" x1="439.5" x2="692.5" y1="235" y2="235"/><ellipse cx="449.5" cy="246" fill="#84BE84" rx="3" ry="3" style="stroke: #038048; stroke-width: 1.0;"/><text fill="#000000" font-family="sans-serif" font-size="11" lengthAdjust="spacingAndGlyphs" textLength="229" x="458.5" y="249.2104">getLatestLoanForItemId(int itemId): Loan</text><!--MD5=[4a0300a6597e068a69ac5dc42e345e2c]
class DAOFactory--><rect fill="#FEFECE" filter="url(#fxhbsyodvayru)" height="60.8047" id="DAOFactory" style="stroke: #A80036; stroke-width: 1.5;" width="182" x="374" y="322"/><ellipse cx="424.75" cy="338" fill="#A9DCDF" rx="11" ry="11" style="stroke: #A80036; stroke-width: 1.0;"/><path d="M424.8594,333.3438 L423.7031,338.4219 L426.0313,338.4219 L424.8594,333.3438 Z M423.375,331.1094 L426.3594,331.1094 L429.7188,343.5 L427.2656,343.5 L426.5,340.4375 L423.2188,340.4375 L422.4688,343.5 L420.0313,343.5 L423.375,331.1094 Z "/><text fill="#000000" font-family="sans-serif" font-size="12" font-style="italic" lengthAdjust="spacingAndGlyphs" textLength="72" x="445.25" y="342.1543">DAOFactory</text><line style="stroke: #A80036; stroke-width: 1.5;" x1="375" x2="555" y1="354" y2="354"/><line style="stroke: #A80036; stroke-width: 1.5;" x1="375" x2="555" y1="362" y2="362"/><ellipse cx="385" cy="373" fill="#84BE84" rx="3" ry="3" style="stroke: #038048; stroke-width: 1.0;"/><text fill="#000000" font-family="sans-serif" font-size="11" lengthAdjust="spacingAndGlyphs" textLength="156" x="394" y="376.2104">getReturnDAO(): ReturnDAO</text><!--MD5=[949ef9dbfdb866955c3619b3dd7cf9b3]
class ReturnDAO--><rect fill="#FEFECE" filter="url(#fxhbsyodvayru)" height="60.8047" id="ReturnDAO" style="stroke: #A80036; stroke-width: 1.5;" width="153" x="120.5" y="322"/><ellipse cx="159.35" cy="338" fill="#B4A7E5" rx="11" ry="11" style="stroke: #A80036; stroke-width: 1.0;"/><path d="M155.2719,333.7656 L155.2719,331.6094 L162.6625,331.6094 L162.6625,333.7656 L160.1938,333.7656 L160.1938,341.8438 L162.6625,341.8438 L162.6625,344 L155.2719,344 L155.2719,341.8438 L157.7406,341.8438 L157.7406,333.7656 L155.2719,333.7656 Z "/><text fill="#000000" font-family="sans-serif" font-size="12" font-style="italic" lengthAdjust="spacingAndGlyphs" textLength="68" x="178.65" y="342.1543">ReturnDAO</text><line style="stroke: #A80036; stroke-width: 1.5;" x1="121.5" x2="272.5" y1="354" y2="354"/><line style="stroke: #A80036; stroke-width: 1.5;" x1="121.5" x2="272.5" y1="362" y2="362"/><ellipse cx="131.5" cy="373" fill="#84BE84" rx="3" ry="3" style="stroke: #038048; stroke-width: 1.0;"/><text fill="#000000" font-family="sans-serif" font-size="11" lengthAdjust="spacingAndGlyphs" textLength="127" x="140.5" y="376.2104">create(int loanId): void</text><!--MD5=[49898ca32f4dc84a3dd1f2529e35941d]
class LoanDAO--><rect fill="#FEFECE" filter="url(#fxhbsyodvayru)" height="60.8047" id="LoanDAO" style="stroke: #A80036; stroke-width: 1.5;" width="251" x="646.5" y="322"/><ellipse cx="739.75" cy="338" fill="#B4A7E5" rx="11" ry="11" style="stroke: #A80036; stroke-width: 1.0;"/><path d="M735.6719,333.7656 L735.6719,331.6094 L743.0625,331.6094 L743.0625,333.7656 L740.5938,333.7656 L740.5938,341.8438 L743.0625,341.8438 L743.0625,344 L735.6719,344 L735.6719,341.8438 L738.1406,341.8438 L738.1406,333.7656 L735.6719,333.7656 Z "/><text fill="#000000" font-family="sans-serif" font-size="12" font-style="italic" lengthAdjust="spacingAndGlyphs" textLength="56" x="760.25" y="342.1543">LoanDAO</text><line style="stroke: #A80036; stroke-width: 1.5;" x1="647.5" x2="896.5" y1="354" y2="354"/><line style="stroke: #A80036; stroke-width: 1.5;" x1="647.5" x2="896.5" y1="362" y2="362"/><ellipse cx="657.5" cy="373" fill="#84BE84" rx="3" ry="3" style="stroke: #038048; stroke-width: 1.0;"/><text fill="#000000" font-family="sans-serif" font-size="11" lengthAdjust="spacingAndGlyphs" textLength="225" x="666.5" y="376.2104">getLatestLoanByItemId(int itemId): Loan</text><!--MD5=[74323fa055f2226de6d76ab9e84670cf]
class PostgresReturnDAO--><rect fill="#FEFECE" filter="url(#fxhbsyodvayru)" height="73.6094" id="PostgresReturnDAO" style="stroke: #A80036; stroke-width: 1.5;" width="278" x="30" y="511"/><ellipse cx="102.75" cy="527" fill="#ADD1B2" rx="11" ry="11" style="stroke: #A80036; stroke-width: 1.0;"/><path d="M105.7188,532.6406 Q105.1406,532.9375 104.5,533.0859 Q103.8594,533.2344 103.1563,533.2344 Q100.6563,533.2344 99.3359,531.5859 Q98.0156,529.9375 98.0156,526.8125 Q98.0156,523.6875 99.3359,522.0313 Q100.6563,520.375 103.1563,520.375 Q103.8594,520.375 104.5078,520.5313 Q105.1563,520.6875 105.7188,520.9844 L105.7188,523.7031 Q105.0938,523.125 104.5,522.8516 Q103.9063,522.5781 103.2813,522.5781 Q101.9375,522.5781 101.25,523.6484 Q100.5625,524.7188 100.5625,526.8125 Q100.5625,528.9063 101.25,529.9766 Q101.9375,531.0469 103.2813,531.0469 Q103.9063,531.0469 104.5,530.7734 Q105.0938,530.5 105.7188,529.9219 L105.7188,532.6406 Z "/><text fill="#000000" font-family="sans-serif" font-size="12" lengthAdjust="spacingAndGlyphs" textLength="124" x="123.25" y="531.1543">PostgresReturnDAO</text><line style="stroke: #A80036; stroke-width: 1.5;" x1="31" x2="307" y1="543" y2="543"/><rect fill="none" height="6" style="stroke: #C82930; stroke-width: 1.0;" width="6" x="38" y="551"/><text fill="#000000" font-family="sans-serif" font-size="11" lengthAdjust="spacingAndGlyphs" textLength="132" x="50" y="557.2104">connection: Connection</text><line style="stroke: #A80036; stroke-width: 1.5;" x1="31" x2="307" y1="563.8047" y2="563.8047"/><ellipse cx="41" cy="574.8047" fill="#84BE84" rx="3" ry="3" style="stroke: #038048; stroke-width: 1.0;"/><text fill="#000000" font-family="sans-serif" font-size="11" lengthAdjust="spacingAndGlyphs" textLength="252" x="50" y="578.0151">PostgresReturnDAO(Connection: connection)</text><!--MD5=[700a5a1f58ccb71a3c0d036256714175]
class PostgresDAOFactory--><rect fill="#FEFECE" filter="url(#fxhbsyodvayru)" height="60.8047" id="PostgresDAOFactory" style="stroke: #A80036; stroke-width: 1.5;" width="160" x="393" y="517.5"/><ellipse cx="408" cy="533.5" fill="#ADD1B2" rx="11" ry="11" style="stroke: #A80036; stroke-width: 1.0;"/><path d="M410.9688,539.1406 Q410.3906,539.4375 409.75,539.5859 Q409.1094,539.7344 408.4063,539.7344 Q405.9063,539.7344 404.5859,538.0859 Q403.2656,536.4375 403.2656,533.3125 Q403.2656,530.1875 404.5859,528.5313 Q405.9063,526.875 408.4063,526.875 Q409.1094,526.875 409.7578,527.0313 Q410.4063,527.1875 410.9688,527.4844 L410.9688,530.2031 Q410.3438,529.625 409.75,529.3516 Q409.1563,529.0781 408.5313,529.0781 Q407.1875,529.0781 406.5,530.1484 Q405.8125,531.2188 405.8125,533.3125 Q405.8125,535.4063 406.5,536.4766 Q407.1875,537.5469 408.5313,537.5469 Q409.1563,537.5469 409.75,537.2734 Q410.3438,537 410.9688,536.4219 L410.9688,539.1406 Z "/><text fill="#000000" font-family="sans-serif" font-size="12" lengthAdjust="spacingAndGlyphs" textLength="128" x="422" y="537.6543">PostgresDAOFactory</text><line style="stroke: #A80036; stroke-width: 1.5;" x1="394" x2="552" y1="549.5" y2="549.5"/><rect fill="none" height="6" style="stroke: #C82930; stroke-width: 1.0;" width="6" x="401" y="557.5"/><text fill="#000000" font-family="sans-serif" font-size="11" lengthAdjust="spacingAndGlyphs" textLength="132" x="413" y="563.7104">connection: Connection</text><line style="stroke: #A80036; stroke-width: 1.5;" x1="394" x2="552" y1="570.3047" y2="570.3047"/><!--MD5=[d31719c66243472fdbf6452c22c414e1]
class PostgresLoanDAO--><rect fill="#FEFECE" filter="url(#fxhbsyodvayru)" height="73.6094" id="PostgresLoanDAO" style="stroke: #A80036; stroke-width: 1.5;" width="268" x="638" y="511"/><ellipse cx="711.75" cy="527" fill="#ADD1B2" rx="11" ry="11" style="stroke: #A80036; stroke-width: 1.0;"/><path d="M714.7188,532.6406 Q714.1406,532.9375 713.5,533.0859 Q712.8594,533.2344 712.1563,533.2344 Q709.6563,533.2344 708.3359,531.5859 Q707.0156,529.9375 707.0156,526.8125 Q707.0156,523.6875 708.3359,522.0313 Q709.6563,520.375 712.1563,520.375 Q712.8594,520.375 713.5078,520.5313 Q714.1563,520.6875 714.7188,520.9844 L714.7188,523.7031 Q714.0938,523.125 713.5,522.8516 Q712.9063,522.5781 712.2813,522.5781 Q710.9375,522.5781 710.25,523.6484 Q709.5625,524.7188 709.5625,526.8125 Q709.5625,528.9063 710.25,529.9766 Q710.9375,531.0469 712.2813,531.0469 Q712.9063,531.0469 713.5,530.7734 Q714.0938,530.5 714.7188,529.9219 L714.7188,532.6406 Z "/><text fill="#000000" font-family="sans-serif" font-size="12" lengthAdjust="spacingAndGlyphs" textLength="112" x="732.25" y="531.1543">PostgresLoanDAO</text><line style="stroke: #A80036; stroke-width: 1.5;" x1="639" x2="905" y1="543" y2="543"/><rect fill="none" height="6" style="stroke: #C82930; stroke-width: 1.0;" width="6" x="646" y="551"/><text fill="#000000" font-family="sans-serif" font-size="11" lengthAdjust="spacingAndGlyphs" textLength="132" x="658" y="557.2104">connection: Connection</text><line style="stroke: #A80036; stroke-width: 1.5;" x1="639" x2="905" y1="563.8047" y2="563.8047"/><ellipse cx="649" cy="574.8047" fill="#84BE84" rx="3" ry="3" style="stroke: #038048; stroke-width: 1.0;"/><text fill="#000000" font-family="sans-serif" font-size="11" lengthAdjust="spacingAndGlyphs" textLength="242" x="658" y="578.0151">PostgresLoanDAO(Connection: connection)</text><!--MD5=[fb17a82704d4f5770b0726012553cbe9]
reverse link ReturnDAO to PostgresReturnDAO--><path d="M189.7564,403.0755 C184.9215,436.8337 178.6724,480.4661 174.2995,510.9981 " fill="none" id="ReturnDAO&lt;-PostgresReturnDAO" style="stroke: #A80036; stroke-width: 1.0; stroke-dasharray: 7.0,7.0;"/><polygon fill="none" points="182.8601,401.8524,192.625,383.0469,196.7187,403.8373,182.8601,401.8524" style="stroke: #A80036; stroke-width: 1.0;"/><!--MD5=[d37a47b44041b5251d0f0ec75d3c62d9]
reverse link DAOFactory to PostgresDAOFactory--><path d="M467.0697,403.0792 C468.55,439.2537 470.4942,486.7651 471.7456,517.3457 " fill="none" id="DAOFactory&lt;-PostgresDAOFactory" style="stroke: #A80036; stroke-width: 1.0;"/><polygon fill="none" points="460.0737,403.3164,466.25,383.0469,474.062,402.7439,460.0737,403.3164" style="stroke: #A80036; stroke-width: 1.0;"/><!--MD5=[2c9099205f7e842031a96f7a3674ceb2]
reverse link LoanDAO to PostgresLoanDAO--><path d="M772,403.0755 C772,436.8337 772,480.4661 772,510.9981 " fill="none" id="LoanDAO&lt;-PostgresLoanDAO" style="stroke: #A80036; stroke-width: 1.0; stroke-dasharray: 7.0,7.0;"/><polygon fill="none" points="765.0001,403.0469,772,383.0469,779.0001,403.0468,765.0001,403.0469" style="stroke: #A80036; stroke-width: 1.0;"/><!--MD5=[a8e2fd98b883e5ae54ddcad8a93a0084]
reverse link PostgresReturnDAO to PostgresDAOFactory--><path d="M313.2171,548 C340.6489,548 368.4196,548 392.9428,548 " fill="none" id="PostgresReturnDAO&lt;-PostgresDAOFactory" style="stroke: #A80036; stroke-width: 1.0; stroke-dasharray: 7.0,7.0;"/><polygon fill="#A80036" points="308.0997,548,317.0997,552,313.0997,548,317.0997,544,308.0997,548" style="stroke: #A80036; stroke-width: 1.0;"/><text fill="#000000" font-family="sans-serif" font-size="13" lengthAdjust="spacingAndGlyphs" textLength="48" x="326.5" y="541.0669">creates</text><!--MD5=[1d6a55d69df5b67390582eefd6d843f4]
reverse link ReturnDAO to DAOFactory--><path d="M278.9684,352.5 C309.007,352.5 343.1754,352.5 373.9607,352.5 " fill="none" id="ReturnDAO&lt;-DAOFactory" style="stroke: #A80036; stroke-width: 1.0; stroke-dasharray: 7.0,7.0;"/><polygon fill="#A80036" points="273.798,352.5,282.798,356.5,278.798,352.5,282.798,348.5,273.798,352.5" style="stroke: #A80036; stroke-width: 1.0;"/><text fill="#000000" font-family="sans-serif" font-size="13" lengthAdjust="spacingAndGlyphs" textLength="54" x="296.75" y="345.5669">provides</text><!--MD5=[5c78a14ccb71dd4f2d53ebf6c5a45706]
link PostgresDAOFactory to PostgresLoanDAO--><path d="M553.1265,548 C577.7165,548 605.5239,548 632.8666,548 " fill="none" id="PostgresDAOFactory-&gt;PostgresLoanDAO" style="stroke: #A80036; stroke-width: 1.0; stroke-dasharray: 7.0,7.0;"/><polygon fill="#A80036" points="637.9658,548,628.9658,544,632.9658,548,628.9658,552,637.9658,548" style="stroke: #A80036; stroke-width: 1.0;"/><text fill="#000000" font-family="sans-serif" font-size="13" lengthAdjust="spacingAndGlyphs" textLength="48" x="571.5" y="541.0669">creates</text><!--MD5=[85e70c4508c45a1e68ffceccd5f7ce76]
link DAOFactory to LoanDAO--><path d="M556.2789,352.5 C582.9017,352.5 612.5303,352.5 641.092,352.5 " fill="none" id="DAOFactory-&gt;LoanDAO" style="stroke: #A80036; stroke-width: 1.0; stroke-dasharray: 7.0,7.0;"/><polygon fill="#A80036" points="646.4117,352.5,637.4117,348.5,641.4117,352.5,637.4117,356.5,646.4117,352.5" style="stroke: #A80036; stroke-width: 1.0;"/><text fill="#000000" font-family="sans-serif" font-size="13" lengthAdjust="spacingAndGlyphs" textLength="54" x="574.25" y="345.5669">provides</text><!--MD5=[c3e5393f8a869e7d0614acec5b1357f9]
link ReturnFacade to DAOFactory--><path d="M348.2791,256.2432 C371.0835,275.0494 400.2887,299.1342 423.7803,318.5071 " fill="none" id="ReturnFacade-&gt;DAOFactory" style="stroke: #A80036; stroke-width: 1.0;"/><polygon fill="#A80036" points="427.7976,321.8201,423.3991,313.008,423.9401,318.6389,418.3092,319.18,427.7976,321.8201" style="stroke: #A80036; stroke-width: 1.0;"/><!--MD5=[caa04ddd59d0ea036a80a34981a0877c]
link LoanFacade to DAOFactory--><path d="M541.5507,256.2432 C526.8961,274.6703 508.2111,298.1653 492.9699,317.3299 " fill="none" id="LoanFacade-&gt;DAOFactory" style="stroke: #A80036; stroke-width: 1.0;"/><polygon fill="#A80036" points="489.5742,321.5998,498.3068,317.0456,492.6864,317.6865,492.0455,312.066,489.5742,321.5998" style="stroke: #A80036; stroke-width: 1.0;"/><!--MD5=[9aa1642c0dde2fa0a9de3ad6ca32640b]
link ReturnController to ReturnFacade--><path d="M417.1176,129.374 C395.0073,149.4025 369.1406,172.8337 348.4808,191.5482 " fill="none" id="ReturnController-&gt;ReturnFacade" style="stroke: #A80036; stroke-width: 1.0;"/><polygon fill="#A80036" points="344.6859,194.9858,354.0415,191.9081,348.3916,191.629,348.6706,185.979,344.6859,194.9858" style="stroke: #A80036; stroke-width: 1.0;"/><!--MD5=[d25b026b8c46cbcc4e7225134db948b3]
link ReturnController to LoanFacade--><path d="M496.4034,129.374 C510.7238,149.1532 527.4469,172.2509 540.9108,190.8471 " fill="none" id="ReturnController-&gt;LoanFacade" style="stroke: #A80036; stroke-width: 1.0;"/><polygon fill="#A80036" points="543.9073,194.9858,541.8691,185.3502,540.975,190.9359,535.3892,190.0419,543.9073,194.9858" style="stroke: #A80036; stroke-width: 1.0;"/><!--MD5=[12d20544d62d7e15ea69d03cc17a4426]
@startuml
package controller {

  class ReturnController {
    -itemIdField: TextField
    -returnButtonItem: Button
    +returnItem(): void
  }

}

package return {

  class ReturnFacade {
    +makeReturn(int loanId): void
  }

  class LoanFacade {
    +getLatestLoanForItemId(int itemId): Loan
  }
}

package dao {

  abstract class DAOFactory {
    +getReturnDAO(): ReturnDAO
  }

  interface ReturnDAO {
    +create(int loanId): void
  }

  interface LoanDAO {
    +getLatestLoanByItemId(int itemId): Loan
  }

  package postgres {

    class PostgresReturnDAO implements ReturnDAO {
      -connection: Connection
      +PostgresReturnDAO(Connection: connection)
    }

    class PostgresDAOFactory extends DAOFactory {
      -connection: Connection
    }

    class PostgresLoanDAO implements LoanDAO {
      -connection: Connection
      +PostgresLoanDAO(Connection: connection)
    }

  }

}

PostgresDAOFactory .left> PostgresReturnDAO : "creates"
DAOFactory .left> ReturnDAO : "provides"
PostgresDAOFactory .right> PostgresLoanDAO : "creates"
DAOFactory .right> LoanDAO : "provides"


ReturnFacade -down-> DAOFactory
LoanFacade -down-> DAOFactory
ReturnController - -> ReturnFacade
ReturnController - -> LoanFacade
@enduml

PlantUML version 1.2019.12(Sun Nov 03 10:24:54 UTC 2019)
(GPL source distribution)
Java Runtime: OpenJDK Runtime Environment
JVM: OpenJDK 64-Bit Server VM
Java Version: 1.8.0_232-heroku-b09
Operating System: Linux
Default Encoding: UTF-8
Language: en
Country: US
--></g></svg>